  0
SECTION
  2
BLOCKS
  0
ENDSEC
  0
SECTION
  2
ENTITIES
  0
LINE
  8
0
 10
0
 11
0
 20
0
 21
60
  0
LINE
  8
0
 10
0
 11
20
 20
60
 21
60
  0
LINE
  8
0
 10
20
 11
20
 20
60
 21
20
  0
LINE
  8
0
 10
20
 11
60
 20
20
 21
20
  0
LINE
  8
0
 10
60
 11
60
 20
20
 21
0
  0
LINE
  8
0
 10
60
 11
0
 20
0
 21
0
  0
LINE
  8
0
 10
7.5
 11
7.52
 20
10
 21
10.313
  0
LINE
  8
0
 10
7.52
 11
7.579
 20
10.313
 21
10.622
  0
LINE
  8
0
 10
7.579
 11
7.676
 20
10.622
 21
10.92
  0
LINE
  8
0
 10
7.676
 11
7.809
 20
10.92
 21
11.204
  0
LINE
  8
0
 10
7.809
 11
7.977
 20
11.204
 21
11.469
  0
LINE
  8
0
 10
7.977
 11
8.178
 20
11.469
 21
11.711
  0
LINE
  8
0
 10
8.178
 11
8.406
 20
11.711
 21
11.926
  0
LINE
  8
0
 10
8.406
 11
8.66
 20
11.926
 21
12.111
  0
LINE
  8
0
 10
8.66
 11
8.936
 20
12.111
 21
12.262
  0
LINE
  8
0
 10
8.936
 11
9.227
 20
12.262
 21
12.378
  0
LINE
  8
0
 10
9.227
 11
9.532
 20
12.378
 21
12.456
  0
LINE
  8
0
 10
9.532
 11
9.843
 20
12.456
 21
12.495
  0
LINE
  8
0
 10
9.843
 11
10.157
 20
12.495
 21
12.495
  0
LINE
  8
0
 10
10.157
 11
10.468
 20
12.495
 21
12.456
  0
LINE
  8
0
 10
10.468
 11
10.773
 20
12.456
 21
12.378
  0
LINE
  8
0
 10
10.773
 11
11.064
 20
12.378
 21
12.262
  0
LINE
  8
0
 10
11.064
 11
11.34
 20
12.262
 21
12.111
  0
LINE
  8
0
 10
11.34
 11
11.594
 20
12.111
 21
11.926
  0
LINE
  8
0
 10
11.594
 11
11.822
 20
11.926
 21
11.711
  0
LINE
  8
0
 10
11.822
 11
12.023
 20
11.711
 21
11.469
  0
LINE
  8
0
 10
12.023
 11
12.191
 20
11.469
 21
11.204
  0
LINE
  8
0
 10
12.191
 11
12.324
 20
11.204
 21
10.92
  0
LINE
  8
0
 10
12.324
 11
12.421
 20
10.92
 21
10.622
  0
LINE
  8
0
 10
12.421
 11
12.48
 20
10.622
 21
10.313
  0
LINE
  8
0
 10
12.48
 11
12.5
 20
10.313
 21
10
  0
LINE
  8
0
 10
12.5
 11
12.48
 20
10
 21
9.687
  0
LINE
  8
0
 10
12.48
 11
12.421
 20
9.687
 21
9.378
  0
LINE
  8
0
 10
12.421
 11
12.324
 20
9.378
 21
9.08
  0
LINE
  8
0
 10
12.324
 11
12.191
 20
9.08
 21
8.796
  0
LINE
  8
0
 10
12.191
 11
12.023
 20
8.796
 21
8.531
  0
LINE
  8
0
 10
12.023
 11
11.822
 20
8.531
 21
8.289
  0
LINE
  8
0
 10
11.822
 11
11.594
 20
8.289
 21
8.074
  0
LINE
  8
0
 10
11.594
 11
11.34
 20
8.074
 21
7.889
  0
LINE
  8
0
 10
11.34
 11
11.064
 20
7.889
 21
7.738
  0
LINE
  8
0
 10
11.064
 11
10.773
 20
7.738
 21
7.622
  0
LINE
  8
0
 10
10.773
 11
10.468
 20
7.622
 21
7.544
  0
LINE
  8
0
 10
10.468
 11
10.157
 20
7.544
 21
7.505
  0
LINE
  8
0
 10
10.157
 11
9.843
 20
7.505
 21
7.505
  0
LINE
  8
0
 10
9.843
 11
9.532
 20
7.505
 21
7.544
  0
LINE
  8
0
 10
9.532
 11
9.227
 20
7.544
 21
7.622
  0
LINE
  8
0
 10
9.227
 11
8.936
 20
7.622
 21
7.738
  0
LINE
  8
0
 10
8.936
 11
8.66
 20
7.738
 21
7.889
  0
LINE
  8
0
 10
8.66
 11
8.406
 20
7.889
 21
8.074
  0
LINE
  8
0
 10
8.406
 11
8.178
 20
8.074
 21
8.289
  0
LINE
  8
0
 10
8.178
 11
7.977
 20
8.289
 21
8.531
  0
LINE
  8
0
 10
7.977
 11
7.809
 20
8.531
 21
8.796
  0
LINE
  8
0
 10
7.809
 11
7.676
 20
8.796
 21
9.08
  0
LINE
  8
0
 10
7.676
 11
7.579
 20
9.08
 21
9.378
  0
LINE
  8
0
 10
7.579
 11
7.52
 20
9.378
 21
9.687
  0
LINE
  8
0
 10
7.52
 11
7.5
 20
9.687
 21
10
  0
LINE
  8
0
 10
7.5
 11
7.52
 20
30
 21
30.313
  0
LINE
  8
0
 10
7.52
 11
7.579
 20
30.313
 21
30.622
  0
LINE
  8
0
 10
7.579
 11
7.676
 20
30.622
 21
30.92
  0
LINE
  8
0
 10
7.676
 11
7.809
 20
30.92
 21
31.204
  0
LINE
  8
0
 10
7.809
 11
7.977
 20
31.204
 21
31.469
  0
LINE
  8
0
 10
7.977
 11
8.178
 20
31.469
 21
31.711
  0
LINE
  8
0
 10
8.178
 11
8.406
 20
31.711
 21
31.926
  0
LINE
  8
0
 10
8.406
 11
8.66
 20
31.926
 21
32.111
  0
LINE
  8
0
 10
8.66
 11
8.936
 20
32.111
 21
32.262
  0
LINE
  8
0
 10
8.936
 11
9.227
 20
32.262
 21
32.378
  0
LINE
  8
0
 10
9.227
 11
9.532
 20
32.378
 21
32.456
  0
LINE
  8
0
 10
9.532
 11
9.843
 20
32.456
 21
32.495
  0
LINE
  8
0
 10
9.843
 11
10.157
 20
32.495
 21
32.495
  0
LINE
  8
0
 10
10.157
 11
10.468
 20
32.495
 21
32.456
  0
LINE
  8
0
 10
10.468
 11
10.773
 20
32.456
 21
32.378
  0
LINE
  8
0
 10
10.773
 11
11.064
 20
32.378
 21
32.262
  0
LINE
  8
0
 10
11.064
 11
11.34
 20
32.262
 21
32.111
  0
LINE
  8
0
 10
11.34
 11
11.594
 20
32.111
 21
31.926
  0
LINE
  8
0
 10
11.594
 11
11.822
 20
31.926
 21
31.711
  0
LINE
  8
0
 10
11.822
 11
12.023
 20
31.711
 21
31.469
  0
LINE
  8
0
 10
12.023
 11
12.191
 20
31.469
 21
31.204
  0
LINE
  8
0
 10
12.191
 11
12.324
 20
31.204
 21
30.92
  0
LINE
  8
0
 10
12.324
 11
12.421
 20
30.92
 21
30.622
  0
LINE
  8
0
 10
12.421
 11
12.48
 20
30.622
 21
30.313
  0
LINE
  8
0
 10
12.48
 11
12.5
 20
30.313
 21
30
  0
LINE
  8
0
 10
12.5
 11
12.48
 20
30
 21
29.687
  0
LINE
  8
0
 10
12.48
 11
12.421
 20
29.687
 21
29.378
  0
LINE
  8
0
 10
12.421
 11
12.324
 20
29.378
 21
29.08
  0
LINE
  8
0
 10
12.324
 11
12.191
 20
29.08
 21
28.796
  0
LINE
  8
0
 10
12.191
 11
12.023
 20
28.796
 21
28.531
  0
LINE
  8
0
 10
12.023
 11
11.822
 20
28.531
 21
28.289
  0
LINE
  8
0
 10
11.822
 11
11.594
 20
28.289
 21
28.074
  0
LINE
  8
0
 10
11.594
 11
11.34
 20
28.074
 21
27.889
  0
LINE
  8
0
 10
11.34
 11
11.064
 20
27.889
 21
27.738
  0
LINE
  8
0
 10
11.064
 11
10.773
 20
27.738
 21
27.622
  0
LINE
  8
0
 10
10.773
 11
10.468
 20
27.622
 21
27.544
  0
LINE
  8
0
 10
10.468
 11
10.157
 20
27.544
 21
27.505
  0
LINE
  8
0
 10
10.157
 11
9.843
 20
27.505
 21
27.505
  0
LINE
  8
0
 10
9.843
 11
9.532
 20
27.505
 21
27.544
  0
LINE
  8
0
 10
9.532
 11
9.227
 20
27.544
 21
27.622
  0
LINE
  8
0
 10
9.227
 11
8.936
 20
27.622
 21
27.738
  0
LINE
  8
0
 10
8.936
 11
8.66
 20
27.738
 21
27.889
  0
LINE
  8
0
 10
8.66
 11
8.406
 20
27.889
 21
28.074
  0
LINE
  8
0
 10
8.406
 11
8.178
 20
28.074
 21
28.289
  0
LINE
  8
0
 10
8.178
 11
7.977
 20
28.289
 21
28.531
  0
LINE
  8
0
 10
7.977
 11
7.809
 20
28.531
 21
28.796
  0
LINE
  8
0
 10
7.809
 11
7.676
 20
28.796
 21
29.08
  0
LINE
  8
0
 10
7.676
 11
7.579
 20
29.08
 21
29.378
  0
LINE
  8
0
 10
7.579
 11
7.52
 20
29.378
 21
29.687
  0
LINE
  8
0
 10
7.52
 11
7.5
 20
29.687
 21
30
  0
LINE
  8
0
 10
7.5
 11
7.52
 20
50
 21
50.313
  0
LINE
  8
0
 10
7.52
 11
7.579
 20
50.313
 21
50.622
  0
LINE
  8
0
 10
7.579
 11
7.676
 20
50.622
 21
50.92
  0
LINE
  8
0
 10
7.676
 11
7.809
 20
50.92
 21
51.204
  0
LINE
  8
0
 10
7.809
 11
7.977
 20
51.204
 21
51.469
  0
LINE
  8
0
 10
7.977
 11
8.178
 20
51.469
 21
51.711
  0
LINE
  8
0
 10
8.178
 11
8.406
 20
51.711
 21
51.926
  0
LINE
  8
0
 10
8.406
 11
8.66
 20
51.926
 21
52.111
  0
LINE
  8
0
 10
8.66
 11
8.936
 20
52.111
 21
52.262
  0
LINE
  8
0
 10
8.936
 11
9.227
 20
52.262
 21
52.378
  0
LINE
  8
0
 10
9.227
 11
9.532
 20
52.378
 21
52.456
  0
LINE
  8
0
 10
9.532
 11
9.843
 20
52.456
 21
52.495
  0
LINE
  8
0
 10
9.843
 11
10.157
 20
52.495
 21
52.495
  0
LINE
  8
0
 10
10.157
 11
10.468
 20
52.495
 21
52.456
  0
LINE
  8
0
 10
10.468
 11
10.773
 20
52.456
 21
52.378
  0
LINE
  8
0
 10
10.773
 11
11.064
 20
52.378
 21
52.262
  0
LINE
  8
0
 10
11.064
 11
11.34
 20
52.262
 21
52.111
  0
LINE
  8
0
 10
11.34
 11
11.594
 20
52.111
 21
51.926
  0
LINE
  8
0
 10
11.594
 11
11.822
 20
51.926
 21
51.711
  0
LINE
  8
0
 10
11.822
 11
12.023
 20
51.711
 21
51.469
  0
LINE
  8
0
 10
12.023
 11
12.191
 20
51.469
 21
51.204
  0
LINE
  8
0
 10
12.191
 11
12.324
 20
51.204
 21
50.92
  0
LINE
  8
0
 10
12.324
 11
12.421
 20
50.92
 21
50.622
  0
LINE
  8
0
 10
12.421
 11
12.48
 20
50.622
 21
50.313
  0
LINE
  8
0
 10
12.48
 11
12.5
 20
50.313
 21
50
  0
LINE
  8
0
 10
12.5
 11
12.48
 20
50
 21
49.687
  0
LINE
  8
0
 10
12.48
 11
12.421
 20
49.687
 21
49.378
  0
LINE
  8
0
 10
12.421
 11
12.324
 20
49.378
 21
49.08
  0
LINE
  8
0
 10
12.324
 11
12.191
 20
49.08
 21
48.796
  0
LINE
  8
0
 10
12.191
 11
12.023
 20
48.796
 21
48.531
  0
LINE
  8
0
 10
12.023
 11
11.822
 20
48.531
 21
48.289
  0
LINE
  8
0
 10
11.822
 11
11.594
 20
48.289
 21
48.074
  0
LINE
  8
0
 10
11.594
 11
11.34
 20
48.074
 21
47.889
  0
LINE
  8
0
 10
11.34
 11
11.064
 20
47.889
 21
47.738
  0
LINE
  8
0
 10
11.064
 11
10.773
 20
47.738
 21
47.622
  0
LINE
  8
0
 10
10.773
 11
10.468
 20
47.622
 21
47.544
  0
LINE
  8
0
 10
10.468
 11
10.157
 20
47.544
 21
47.505
  0
LINE
  8
0
 10
10.157
 11
9.843
 20
47.505
 21
47.505
  0
LINE
  8
0
 10
9.843
 11
9.532
 20
47.505
 21
47.544
  0
LINE
  8
0
 10
9.532
 11
9.227
 20
47.544
 21
47.622
  0
LINE
  8
0
 10
9.227
 11
8.936
 20
47.622
 21
47.738
  0
LINE
  8
0
 10
8.936
 11
8.66
 20
47.738
 21
47.889
  0
LINE
  8
0
 10
8.66
 11
8.406
 20
47.889
 21
48.074
  0
LINE
  8
0
 10
8.406
 11
8.178
 20
48.074
 21
48.289
  0
LINE
  8
0
 10
8.178
 11
7.977
 20
48.289
 21
48.531
  0
LINE
  8
0
 10
7.977
 11
7.809
 20
48.531
 21
48.796
  0
LINE
  8
0
 10
7.809
 11
7.676
 20
48.796
 21
49.08
  0
LINE
  8
0
 10
7.676
 11
7.579
 20
49.08
 21
49.378
  0
LINE
  8
0
 10
7.579
 11
7.52
 20
49.378
 21
49.687
  0
LINE
  8
0
 10
7.52
 11
7.5
 20
49.687
 21
50
  0
LINE
  8
0
 10
47.5
 11
47.52
 20
10
 21
10.313
  0
LINE
  8
0
 10
47.52
 11
47.579
 20
10.313
 21
10.622
  0
LINE
  8
0
 10
47.579
 11
47.676
 20
10.622
 21
10.92
  0
LINE
  8
0
 10
47.676
 11
47.809
 20
10.92
 21
11.204
  0
LINE
  8
0
 10
47.809
 11
47.977
 20
11.204
 21
11.469
  0
LINE
  8
0
 10
47.977
 11
48.178
 20
11.469
 21
11.711
  0
LINE
  8
0
 10
48.178
 11
48.406
 20
11.711
 21
11.926
  0
LINE
  8
0
 10
48.406
 11
48.66
 20
11.926
 21
12.111
  0
LINE
  8
0
 10
48.66
 11
48.936
 20
12.111
 21
12.262
  0
LINE
  8
0
 10
48.936
 11
49.227
 20
12.262
 21
12.378
  0
LINE
  8
0
 10
49.227
 11
49.532
 20
12.378
 21
12.456
  0
LINE
  8
0
 10
49.532
 11
49.843
 20
12.456
 21
12.495
  0
LINE
  8
0
 10
49.843
 11
50.157
 20
12.495
 21
12.495
  0
LINE
  8
0
 10
50.157
 11
50.468
 20
12.495
 21
12.456
  0
LINE
  8
0
 10
50.468
 11
50.773
 20
12.456
 21
12.378
  0
LINE
  8
0
 10
50.773
 11
51.064
 20
12.378
 21
12.262
  0
LINE
  8
0
 10
51.064
 11
51.34
 20
12.262
 21
12.111
  0
LINE
  8
0
 10
51.34
 11
51.594
 20
12.111
 21
11.926
  0
LINE
  8
0
 10
51.594
 11
51.822
 20
11.926
 21
11.711
  0
LINE
  8
0
 10
51.822
 11
52.023
 20
11.711
 21
11.469
  0
LINE
  8
0
 10
52.023
 11
52.191
 20
11.469
 21
11.204
  0
LINE
  8
0
 10
52.191
 11
52.324
 20
11.204
 21
10.92
  0
LINE
  8
0
 10
52.324
 11
52.421
 20
10.92
 21
10.622
  0
LINE
  8
0
 10
52.421
 11
52.48
 20
10.622
 21
10.313
  0
LINE
  8
0
 10
52.48
 11
52.5
 20
10.313
 21
10
  0
LINE
  8
0
 10
52.5
 11
52.48
 20
10
 21
9.687
  0
LINE
  8
0
 10
52.48
 11
52.421
 20
9.687
 21
9.378
  0
LINE
  8
0
 10
52.421
 11
52.324
 20
9.378
 21
9.08
  0
LINE
  8
0
 10
52.324
 11
52.191
 20
9.08
 21
8.796
  0
LINE
  8
0
 10
52.191
 11
52.023
 20
8.796
 21
8.531
  0
LINE
  8
0
 10
52.023
 11
51.822
 20
8.531
 21
8.289
  0
LINE
  8
0
 10
51.822
 11
51.594
 20
8.289
 21
8.074
  0
LINE
  8
0
 10
51.594
 11
51.34
 20
8.074
 21
7.889
  0
LINE
  8
0
 10
51.34
 11
51.064
 20
7.889
 21
7.738
  0
LINE
  8
0
 10
51.064
 11
50.773
 20
7.738
 21
7.622
  0
LINE
  8
0
 10
50.773
 11
50.468
 20
7.622
 21
7.544
  0
LINE
  8
0
 10
50.468
 11
50.157
 20
7.544
 21
7.505
  0
LINE
  8
0
 10
50.157
 11
49.843
 20
7.505
 21
7.505
  0
LINE
  8
0
 10
49.843
 11
49.532
 20
7.505
 21
7.544
  0
LINE
  8
0
 10
49.532
 11
49.227
 20
7.544
 21
7.622
  0
LINE
  8
0
 10
49.227
 11
48.936
 20
7.622
 21
7.738
  0
LINE
  8
0
 10
48.936
 11
48.66
 20
7.738
 21
7.889
  0
LINE
  8
0
 10
48.66
 11
48.406
 20
7.889
 21
8.074
  0
LINE
  8
0
 10
48.406
 11
48.178
 20
8.074
 21
8.289
  0
LINE
  8
0
 10
48.178
 11
47.977
 20
8.289
 21
8.531
  0
LINE
  8
0
 10
47.977
 11
47.809
 20
8.531
 21
8.796
  0
LINE
  8
0
 10
47.809
 11
47.676
 20
8.796
 21
9.08
  0
LINE
  8
0
 10
47.676
 11
47.579
 20
9.08
 21
9.378
  0
LINE
  8
0
 10
47.579
 11
47.52
 20
9.378
 21
9.687
  0
LINE
  8
0
 10
47.52
 11
47.5
 20
9.687
 21
10
  0
ENDSEC
  0
SECTION
  2
OBJECTS
  0
DICTIONARY
  0
ENDSEC
  0
EOF
