  0
SECTION
  2
BLOCKS
  0
ENDSEC
  0
SECTION
  2
ENTITIES
  0
LINE
  8
0
 10
-16
 11
-16
 20
-16
 21
16
  0
LINE
  8
0
 10
-16
 11
16
 20
16
 21
16
  0
LINE
  8
0
 10
16
 11
16
 20
16
 21
-16
  0
LINE
  8
0
 10
16
 11
-16
 20
-16
 21
-16
  0
LINE
  8
0
 10
-11.5
 11
-11.488
 20
-10
 21
-9.812
  0
LINE
  8
0
 10
-11.488
 11
-11.453
 20
-9.812
 21
-9.627
  0
LINE
  8
0
 10
-11.453
 11
-11.395
 20
-9.627
 21
-9.448
  0
LINE
  8
0
 10
-11.395
 11
-11.314
 20
-9.448
 21
-9.277
  0
LINE
  8
0
 10
-11.314
 11
-11.214
 20
-9.277
 21
-9.118
  0
LINE
  8
0
 10
-11.214
 11
-11.093
 20
-9.118
 21
-8.973
  0
LINE
  8
0
 10
-11.093
 11
-10.956
 20
-8.973
 21
-8.844
  0
LINE
  8
0
 10
-10.956
 11
-10.804
 20
-8.844
 21
-8.734
  0
LINE
  8
0
 10
-10.804
 11
-10.639
 20
-8.734
 21
-8.643
  0
LINE
  8
0
 10
-10.639
 11
-10.464
 20
-8.643
 21
-8.573
  0
LINE
  8
0
 10
-10.464
 11
-10.281
 20
-8.573
 21
-8.527
  0
LINE
  8
0
 10
-10.281
 11
-10.094
 20
-8.527
 21
-8.503
  0
LINE
  8
0
 10
-10.094
 11
-9.906
 20
-8.503
 21
-8.503
  0
LINE
  8
0
 10
-9.906
 11
-9.719
 20
-8.503
 21
-8.527
  0
LINE
  8
0
 10
-9.719
 11
-9.536
 20
-8.527
 21
-8.573
  0
LINE
  8
0
 10
-9.536
 11
-9.361
 20
-8.573
 21
-8.643
  0
LINE
  8
0
 10
-9.361
 11
-9.196
 20
-8.643
 21
-8.734
  0
LINE
  8
0
 10
-9.196
 11
-9.044
 20
-8.734
 21
-8.844
  0
LINE
  8
0
 10
-9.044
 11
-8.907
 20
-8.844
 21
-8.973
  0
LINE
  8
0
 10
-8.907
 11
-8.786
 20
-8.973
 21
-9.118
  0
LINE
  8
0
 10
-8.786
 11
-8.686
 20
-9.118
 21
-9.277
  0
LINE
  8
0
 10
-8.686
 11
-8.605
 20
-9.277
 21
-9.448
  0
LINE
  8
0
 10
-8.605
 11
-8.547
 20
-9.448
 21
-9.627
  0
LINE
  8
0
 10
-8.547
 11
-8.512
 20
-9.627
 21
-9.812
  0
LINE
  8
0
 10
-8.512
 11
-8.5
 20
-9.812
 21
-10
  0
LINE
  8
0
 10
-8.5
 11
-8.512
 20
-10
 21
-10.188
  0
LINE
  8
0
 10
-8.512
 11
-8.547
 20
-10.188
 21
-10.373
  0
LINE
  8
0
 10
-8.547
 11
-8.605
 20
-10.373
 21
-10.552
  0
LINE
  8
0
 10
-8.605
 11
-8.686
 20
-10.552
 21
-10.723
  0
LINE
  8
0
 10
-8.686
 11
-8.786
 20
-10.723
 21
-10.882
  0
LINE
  8
0
 10
-8.786
 11
-8.907
 20
-10.882
 21
-11.027
  0
LINE
  8
0
 10
-8.907
 11
-9.044
 20
-11.027
 21
-11.156
  0
LINE
  8
0
 10
-9.044
 11
-9.196
 20
-11.156
 21
-11.266
  0
LINE
  8
0
 10
-9.196
 11
-9.361
 20
-11.266
 21
-11.357
  0
LINE
  8
0
 10
-9.361
 11
-9.536
 20
-11.357
 21
-11.427
  0
LINE
  8
0
 10
-9.536
 11
-9.719
 20
-11.427
 21
-11.473
  0
LINE
  8
0
 10
-9.719
 11
-9.906
 20
-11.473
 21
-11.497
  0
LINE
  8
0
 10
-9.906
 11
-10.094
 20
-11.497
 21
-11.497
  0
LINE
  8
0
 10
-10.094
 11
-10.281
 20
-11.497
 21
-11.473
  0
LINE
  8
0
 10
-10.281
 11
-10.464
 20
-11.473
 21
-11.427
  0
LINE
  8
0
 10
-10.464
 11
-10.639
 20
-11.427
 21
-11.357
  0
LINE
  8
0
 10
-10.639
 11
-10.804
 20
-11.357
 21
-11.266
  0
LINE
  8
0
 10
-10.804
 11
-10.956
 20
-11.266
 21
-11.156
  0
LINE
  8
0
 10
-10.956
 11
-11.093
 20
-11.156
 21
-11.027
  0
LINE
  8
0
 10
-11.093
 11
-11.214
 20
-11.027
 21
-10.882
  0
LINE
  8
0
 10
-11.214
 11
-11.314
 20
-10.882
 21
-10.723
  0
LINE
  8
0
 10
-11.314
 11
-11.395
 20
-10.723
 21
-10.552
  0
LINE
  8
0
 10
-11.395
 11
-11.453
 20
-10.552
 21
-10.373
  0
LINE
  8
0
 10
-11.453
 11
-11.488
 20
-10.373
 21
-10.188
  0
LINE
  8
0
 10
-11.488
 11
-11.5
 20
-10.188
 21
-10
  0
LINE
  8
0
 10
-11.497
 11
-11.497
 20
9.906
 21
10.094
  0
LINE
  8
0
 10
-11.497
 11
-11.473
 20
10.094
 21
10.281
  0
LINE
  8
0
 10
-11.473
 11
-11.427
 20
10.281
 21
10.464
  0
LINE
  8
0
 10
-11.427
 11
-11.357
 20
10.464
 21
10.639
  0
LINE
  8
0
 10
-11.357
 11
-11.266
 20
10.639
 21
10.804
  0
LINE
  8
0
 10
-11.266
 11
-11.156
 20
10.804
 21
10.956
  0
LINE
  8
0
 10
-11.156
 11
-11.027
 20
10.956
 21
11.093
  0
LINE
  8
0
 10
-11.027
 11
-10.882
 20
11.093
 21
11.214
  0
LINE
  8
0
 10
-10.882
 11
-10.723
 20
11.214
 21
11.314
  0
LINE
  8
0
 10
-10.723
 11
-10.552
 20
11.314
 21
11.395
  0
LINE
  8
0
 10
-10.552
 11
-10.373
 20
11.395
 21
11.453
  0
LINE
  8
0
 10
-10.373
 11
-10.188
 20
11.453
 21
11.488
  0
LINE
  8
0
 10
-10.188
 11
-10
 20
11.488
 21
11.5
  0
LINE
  8
0
 10
-10
 11
-9.812
 20
11.5
 21
11.488
  0
LINE
  8
0
 10
-9.812
 11
-9.627
 20
11.488
 21
11.453
  0
LINE
  8
0
 10
-9.627
 11
-9.448
 20
11.453
 21
11.395
  0
LINE
  8
0
 10
-9.448
 11
-9.277
 20
11.395
 21
11.314
  0
LINE
  8
0
 10
-9.277
 11
-9.118
 20
11.314
 21
11.214
  0
LINE
  8
0
 10
-9.118
 11
-8.973
 20
11.214
 21
11.093
  0
LINE
  8
0
 10
-8.973
 11
-8.844
 20
11.093
 21
10.956
  0
LINE
  8
0
 10
-8.844
 11
-8.734
 20
10.956
 21
10.804
  0
LINE
  8
0
 10
-8.734
 11
-8.643
 20
10.804
 21
10.639
  0
LINE
  8
0
 10
-8.643
 11
-8.573
 20
10.639
 21
10.464
  0
LINE
  8
0
 10
-8.573
 11
-8.527
 20
10.464
 21
10.281
  0
LINE
  8
0
 10
-8.527
 11
-8.503
 20
10.281
 21
10.094
  0
LINE
  8
0
 10
-8.503
 11
-8.503
 20
10.094
 21
9.906
  0
LINE
  8
0
 10
-8.503
 11
-8.527
 20
9.906
 21
9.719
  0
LINE
  8
0
 10
-8.527
 11
-8.573
 20
9.719
 21
9.536
  0
LINE
  8
0
 10
-8.573
 11
-8.643
 20
9.536
 21
9.361
  0
LINE
  8
0
 10
-8.643
 11
-8.734
 20
9.361
 21
9.196
  0
LINE
  8
0
 10
-8.734
 11
-8.844
 20
9.196
 21
9.044
  0
LINE
  8
0
 10
-8.844
 11
-8.973
 20
9.044
 21
8.907
  0
LINE
  8
0
 10
-8.973
 11
-9.118
 20
8.907
 21
8.786
  0
LINE
  8
0
 10
-9.118
 11
-9.277
 20
8.786
 21
8.686
  0
LINE
  8
0
 10
-9.277
 11
-9.448
 20
8.686
 21
8.605
  0
LINE
  8
0
 10
-9.448
 11
-9.627
 20
8.605
 21
8.547
  0
LINE
  8
0
 10
-9.627
 11
-9.812
 20
8.547
 21
8.512
  0
LINE
  8
0
 10
-9.812
 11
-10
 20
8.512
 21
8.5
  0
LINE
  8
0
 10
-10
 11
-10.188
 20
8.5
 21
8.512
  0
LINE
  8
0
 10
-10.188
 11
-10.373
 20
8.512
 21
8.547
  0
LINE
  8
0
 10
-10.373
 11
-10.552
 20
8.547
 21
8.605
  0
LINE
  8
0
 10
-10.552
 11
-10.723
 20
8.605
 21
8.686
  0
LINE
  8
0
 10
-10.723
 11
-10.882
 20
8.686
 21
8.786
  0
LINE
  8
0
 10
-10.882
 11
-11.027
 20
8.786
 21
8.907
  0
LINE
  8
0
 10
-11.027
 11
-11.156
 20
8.907
 21
9.044
  0
LINE
  8
0
 10
-11.156
 11
-11.266
 20
9.044
 21
9.196
  0
LINE
  8
0
 10
-11.266
 11
-11.357
 20
9.196
 21
9.361
  0
LINE
  8
0
 10
-11.357
 11
-11.427
 20
9.361
 21
9.536
  0
LINE
  8
0
 10
-11.427
 11
-11.473
 20
9.536
 21
9.719
  0
LINE
  8
0
 10
-11.473
 11
-11.497
 20
9.719
 21
9.906
  0
LINE
  8
0
 10
-8
 11
-7.937
 20
0
 21
1.003
  0
LINE
  8
0
 10
-7.937
 11
-7.749
 20
1.003
 21
1.99
  0
LINE
  8
0
 10
-7.749
 11
-7.438
 20
1.99
 21
2.945
  0
LINE
  8
0
 10
-7.438
 11
-7.01
 20
2.945
 21
3.854
  0
LINE
  8
0
 10
-7.01
 11
-6.472
 20
3.854
 21
4.702
  0
LINE
  8
0
 10
-6.472
 11
-5.832
 20
4.702
 21
5.476
  0
LINE
  8
0
 10
-5.832
 11
-5.099
 20
5.476
 21
6.164
  0
LINE
  8
0
 10
-5.099
 11
-4.287
 20
6.164
 21
6.755
  0
LINE
  8
0
 10
-4.287
 11
-3.406
 20
6.755
 21
7.239
  0
LINE
  8
0
 10
-3.406
 11
-2.472
 20
7.239
 21
7.608
  0
LINE
  8
0
 10
-2.472
 11
-1.499
 20
7.608
 21
7.858
  0
LINE
  8
0
 10
-1.499
 11
-0.502
 20
7.858
 21
7.984
  0
LINE
  8
0
 10
-0.502
 11
0.502
 20
7.984
 21
7.984
  0
LINE
  8
0
 10
0.502
 11
1.499
 20
7.984
 21
7.858
  0
LINE
  8
0
 10
1.499
 11
2.472
 20
7.858
 21
7.608
  0
LINE
  8
0
 10
2.472
 11
3.406
 20
7.608
 21
7.239
  0
LINE
  8
0
 10
3.406
 11
4.287
 20
7.239
 21
6.755
  0
LINE
  8
0
 10
4.287
 11
5.099
 20
6.755
 21
6.164
  0
LINE
  8
0
 10
5.099
 11
5.832
 20
6.164
 21
5.476
  0
LINE
  8
0
 10
5.832
 11
6.472
 20
5.476
 21
4.702
  0
LINE
  8
0
 10
6.472
 11
7.01
 20
4.702
 21
3.854
  0
LINE
  8
0
 10
7.01
 11
7.438
 20
3.854
 21
2.945
  0
LINE
  8
0
 10
7.438
 11
7.749
 20
2.945
 21
1.99
  0
LINE
  8
0
 10
7.749
 11
7.937
 20
1.99
 21
1.003
  0
LINE
  8
0
 10
7.937
 11
8
 20
1.003
 21
0
  0
LINE
  8
0
 10
8
 11
7.937
 20
0
 21
-1.003
  0
LINE
  8
0
 10
7.937
 11
7.749
 20
-1.003
 21
-1.99
  0
LINE
  8
0
 10
7.749
 11
7.438
 20
-1.99
 21
-2.945
  0
LINE
  8
0
 10
7.438
 11
7.01
 20
-2.945
 21
-3.854
  0
LINE
  8
0
 10
7.01
 11
6.472
 20
-3.854
 21
-4.702
  0
LINE
  8
0
 10
6.472
 11
5.832
 20
-4.702
 21
-5.476
  0
LINE
  8
0
 10
5.832
 11
5.099
 20
-5.476
 21
-6.164
  0
LINE
  8
0
 10
5.099
 11
4.287
 20
-6.164
 21
-6.755
  0
LINE
  8
0
 10
4.287
 11
3.406
 20
-6.755
 21
-7.239
  0
LINE
  8
0
 10
3.406
 11
2.472
 20
-7.239
 21
-7.608
  0
LINE
  8
0
 10
2.472
 11
1.499
 20
-7.608
 21
-7.858
  0
LINE
  8
0
 10
1.499
 11
0.502
 20
-7.858
 21
-7.984
  0
LINE
  8
0
 10
0.502
 11
-0.502
 20
-7.984
 21
-7.984
  0
LINE
  8
0
 10
-0.502
 11
-1.499
 20
-7.984
 21
-7.858
  0
LINE
  8
0
 10
-1.499
 11
-2.472
 20
-7.858
 21
-7.608
  0
LINE
  8
0
 10
-2.472
 11
-3.406
 20
-7.608
 21
-7.239
  0
LINE
  8
0
 10
-3.406
 11
-4.287
 20
-7.239
 21
-6.755
  0
LINE
  8
0
 10
-4.287
 11
-5.099
 20
-6.755
 21
-6.164
  0
LINE
  8
0
 10
-5.099
 11
-5.832
 20
-6.164
 21
-5.476
  0
LINE
  8
0
 10
-5.832
 11
-6.472
 20
-5.476
 21
-4.702
  0
LINE
  8
0
 10
-6.472
 11
-7.01
 20
-4.702
 21
-3.854
  0
LINE
  8
0
 10
-7.01
 11
-7.438
 20
-3.854
 21
-2.945
  0
LINE
  8
0
 10
-7.438
 11
-7.749
 20
-2.945
 21
-1.99
  0
LINE
  8
0
 10
-7.749
 11
-7.937
 20
-1.99
 21
-1.003
  0
LINE
  8
0
 10
-7.937
 11
-8
 20
-1.003
 21
0
  0
LINE
  8
0
 10
8.5
 11
8.512
 20
10
 21
10.188
  0
LINE
  8
0
 10
8.512
 11
8.547
 20
10.188
 21
10.373
  0
LINE
  8
0
 10
8.547
 11
8.605
 20
10.373
 21
10.552
  0
LINE
  8
0
 10
8.605
 11
8.686
 20
10.552
 21
10.723
  0
LINE
  8
0
 10
8.686
 11
8.786
 20
10.723
 21
10.882
  0
LINE
  8
0
 10
8.786
 11
8.907
 20
10.882
 21
11.027
  0
LINE
  8
0
 10
8.907
 11
9.044
 20
11.027
 21
11.156
  0
LINE
  8
0
 10
9.044
 11
9.196
 20
11.156
 21
11.266
  0
LINE
  8
0
 10
9.196
 11
9.361
 20
11.266
 21
11.357
  0
LINE
  8
0
 10
9.361
 11
9.536
 20
11.357
 21
11.427
  0
LINE
  8
0
 10
9.536
 11
9.719
 20
11.427
 21
11.473
  0
LINE
  8
0
 10
9.719
 11
9.906
 20
11.473
 21
11.497
  0
LINE
  8
0
 10
9.906
 11
10.094
 20
11.497
 21
11.497
  0
LINE
  8
0
 10
10.094
 11
10.281
 20
11.497
 21
11.473
  0
LINE
  8
0
 10
10.281
 11
10.464
 20
11.473
 21
11.427
  0
LINE
  8
0
 10
10.464
 11
10.639
 20
11.427
 21
11.357
  0
LINE
  8
0
 10
10.639
 11
10.804
 20
11.357
 21
11.266
  0
LINE
  8
0
 10
10.804
 11
10.956
 20
11.266
 21
11.156
  0
LINE
  8
0
 10
10.956
 11
11.093
 20
11.156
 21
11.027
  0
LINE
  8
0
 10
11.093
 11
11.214
 20
11.027
 21
10.882
  0
LINE
  8
0
 10
11.214
 11
11.314
 20
10.882
 21
10.723
  0
LINE
  8
0
 10
11.314
 11
11.395
 20
10.723
 21
10.552
  0
LINE
  8
0
 10
11.395
 11
11.453
 20
10.552
 21
10.373
  0
LINE
  8
0
 10
11.453
 11
11.488
 20
10.373
 21
10.188
  0
LINE
  8
0
 10
11.488
 11
11.5
 20
10.188
 21
10
  0
LINE
  8
0
 10
11.5
 11
11.488
 20
10
 21
9.812
  0
LINE
  8
0
 10
11.488
 11
11.453
 20
9.812
 21
9.627
  0
LINE
  8
0
 10
11.453
 11
11.395
 20
9.627
 21
9.448
  0
LINE
  8
0
 10
11.395
 11
11.314
 20
9.448
 21
9.277
  0
LINE
  8
0
 10
11.314
 11
11.214
 20
9.277
 21
9.118
  0
LINE
  8
0
 10
11.214
 11
11.093
 20
9.118
 21
8.973
  0
LINE
  8
0
 10
11.093
 11
10.956
 20
8.973
 21
8.844
  0
LINE
  8
0
 10
10.956
 11
10.804
 20
8.844
 21
8.734
  0
LINE
  8
0
 10
10.804
 11
10.639
 20
8.734
 21
8.643
  0
LINE
  8
0
 10
10.639
 11
10.464
 20
8.643
 21
8.573
  0
LINE
  8
0
 10
10.464
 11
10.281
 20
8.573
 21
8.527
  0
LINE
  8
0
 10
10.281
 11
10.094
 20
8.527
 21
8.503
  0
LINE
  8
0
 10
10.094
 11
9.906
 20
8.503
 21
8.503
  0
LINE
  8
0
 10
9.906
 11
9.719
 20
8.503
 21
8.527
  0
LINE
  8
0
 10
9.719
 11
9.536
 20
8.527
 21
8.573
  0
LINE
  8
0
 10
9.536
 11
9.361
 20
8.573
 21
8.643
  0
LINE
  8
0
 10
9.361
 11
9.196
 20
8.643
 21
8.734
  0
LINE
  8
0
 10
9.196
 11
9.044
 20
8.734
 21
8.844
  0
LINE
  8
0
 10
9.044
 11
8.907
 20
8.844
 21
8.973
  0
LINE
  8
0
 10
8.907
 11
8.786
 20
8.973
 21
9.118
  0
LINE
  8
0
 10
8.786
 11
8.686
 20
9.118
 21
9.277
  0
LINE
  8
0
 10
8.686
 11
8.605
 20
9.277
 21
9.448
  0
LINE
  8
0
 10
8.605
 11
8.547
 20
9.448
 21
9.627
  0
LINE
  8
0
 10
8.547
 11
8.512
 20
9.627
 21
9.812
  0
LINE
  8
0
 10
8.512
 11
8.5
 20
9.812
 21
10
  0
LINE
  8
0
 10
8.503
 11
8.503
 20
-10.094
 21
-9.906
  0
LINE
  8
0
 10
8.503
 11
8.527
 20
-9.906
 21
-9.719
  0
LINE
  8
0
 10
8.527
 11
8.573
 20
-9.719
 21
-9.536
  0
LINE
  8
0
 10
8.573
 11
8.643
 20
-9.536
 21
-9.361
  0
LINE
  8
0
 10
8.643
 11
8.734
 20
-9.361
 21
-9.196
  0
LINE
  8
0
 10
8.734
 11
8.844
 20
-9.196
 21
-9.044
  0
LINE
  8
0
 10
8.844
 11
8.973
 20
-9.044
 21
-8.907
  0
LINE
  8
0
 10
8.973
 11
9.118
 20
-8.907
 21
-8.786
  0
LINE
  8
0
 10
9.118
 11
9.277
 20
-8.786
 21
-8.686
  0
LINE
  8
0
 10
9.277
 11
9.448
 20
-8.686
 21
-8.605
  0
LINE
  8
0
 10
9.448
 11
9.627
 20
-8.605
 21
-8.547
  0
LINE
  8
0
 10
9.627
 11
9.812
 20
-8.547
 21
-8.512
  0
LINE
  8
0
 10
9.812
 11
10
 20
-8.512
 21
-8.5
  0
LINE
  8
0
 10
10
 11
10.188
 20
-8.5
 21
-8.512
  0
LINE
  8
0
 10
10.188
 11
10.373
 20
-8.512
 21
-8.547
  0
LINE
  8
0
 10
10.373
 11
10.552
 20
-8.547
 21
-8.605
  0
LINE
  8
0
 10
10.552
 11
10.723
 20
-8.605
 21
-8.686
  0
LINE
  8
0
 10
10.723
 11
10.882
 20
-8.686
 21
-8.786
  0
LINE
  8
0
 10
10.882
 11
11.027
 20
-8.786
 21
-8.907
  0
LINE
  8
0
 10
11.027
 11
11.156
 20
-8.907
 21
-9.044
  0
LINE
  8
0
 10
11.156
 11
11.266
 20
-9.044
 21
-9.196
  0
LINE
  8
0
 10
11.266
 11
11.357
 20
-9.196
 21
-9.361
  0
LINE
  8
0
 10
11.357
 11
11.427
 20
-9.361
 21
-9.536
  0
LINE
  8
0
 10
11.427
 11
11.473
 20
-9.536
 21
-9.719
  0
LINE
  8
0
 10
11.473
 11
11.497
 20
-9.719
 21
-9.906
  0
LINE
  8
0
 10
11.497
 11
11.497
 20
-9.906
 21
-10.094
  0
LINE
  8
0
 10
11.497
 11
11.473
 20
-10.094
 21
-10.281
  0
LINE
  8
0
 10
11.473
 11
11.427
 20
-10.281
 21
-10.464
  0
LINE
  8
0
 10
11.427
 11
11.357
 20
-10.464
 21
-10.639
  0
LINE
  8
0
 10
11.357
 11
11.266
 20
-10.639
 21
-10.804
  0
LINE
  8
0
 10
11.266
 11
11.156
 20
-10.804
 21
-10.956
  0
LINE
  8
0
 10
11.156
 11
11.027
 20
-10.956
 21
-11.093
  0
LINE
  8
0
 10
11.027
 11
10.882
 20
-11.093
 21
-11.214
  0
LINE
  8
0
 10
10.882
 11
10.723
 20
-11.214
 21
-11.314
  0
LINE
  8
0
 10
10.723
 11
10.552
 20
-11.314
 21
-11.395
  0
LINE
  8
0
 10
10.552
 11
10.373
 20
-11.395
 21
-11.453
  0
LINE
  8
0
 10
10.373
 11
10.188
 20
-11.453
 21
-11.488
  0
LINE
  8
0
 10
10.188
 11
10
 20
-11.488
 21
-11.5
  0
LINE
  8
0
 10
10
 11
9.812
 20
-11.5
 21
-11.488
  0
LINE
  8
0
 10
9.812
 11
9.627
 20
-11.488
 21
-11.453
  0
LINE
  8
0
 10
9.627
 11
9.448
 20
-11.453
 21
-11.395
  0
LINE
  8
0
 10
9.448
 11
9.277
 20
-11.395
 21
-11.314
  0
LINE
  8
0
 10
9.277
 11
9.118
 20
-11.314
 21
-11.214
  0
LINE
  8
0
 10
9.118
 11
8.973
 20
-11.214
 21
-11.093
  0
LINE
  8
0
 10
8.973
 11
8.844
 20
-11.093
 21
-10.956
  0
LINE
  8
0
 10
8.844
 11
8.734
 20
-10.956
 21
-10.804
  0
LINE
  8
0
 10
8.734
 11
8.643
 20
-10.804
 21
-10.639
  0
LINE
  8
0
 10
8.643
 11
8.573
 20
-10.639
 21
-10.464
  0
LINE
  8
0
 10
8.573
 11
8.527
 20
-10.464
 21
-10.281
  0
LINE
  8
0
 10
8.527
 11
8.503
 20
-10.281
 21
-10.094
  0
ENDSEC
  0
SECTION
  2
OBJECTS
  0
DICTIONARY
  0
ENDSEC
  0
EOF
