  0
SECTION
  2
BLOCKS
  0
ENDSEC
  0
SECTION
  2
ENTITIES
  0
LINE
  8
0
 10
-20
 20
47.5
 11
-20
 21
20
  0
LINE
  8
0
 10
-20
 20
20
 11
-60
 21
20
  0
LINE
  8
0
 10
-60
 20
20
 11
-20
 21
0
  0
LINE
  8
0
 10
-20
 20
0
 11
-20
 21
-20
  0
LINE
  8
0
 10
-20
 20
-20
 11
20
 21
-20
  0
LINE
  8
0
 10
20
 20
-20
 11
20
 21
0
  0
LINE
  8
0
 10
20
 20
0
 11
60
 21
20
  0
LINE
  8
0
 10
60
 20
20
 11
20
 21
20
  0
LINE
  8
0
 10
20
 20
20
 11
20
 21
47.5
  0
LINE
  8
0
 10
20
 20
47.5
 11
-20
 21
47.5
  0
LINE
  8
0
 10
-0.439529
 20
28.0138
 11
-1.31166
 21
28.124
  0
LINE
  8
0
 10
-1.31166
 20
28.124
 11
-2.16312
 21
28.3426
  0
LINE
  8
0
 10
-2.16312
 20
28.3426
 11
-2.98045
 21
28.6662
  0
LINE
  8
0
 10
-2.98045
 20
28.6662
 11
-3.75078
 21
29.0897
  0
LINE
  8
0
 10
-3.75078
 20
29.0897
 11
-4.46196
 21
29.6064
  0
LINE
  8
0
 10
-4.46196
 20
29.6064
 11
-5.10277
 21
30.2082
  0
LINE
  8
0
 10
-5.10277
 20
30.2082
 11
-5.66312
 21
30.8855
  0
LINE
  8
0
 10
-5.66312
 20
30.8855
 11
-6.13414
 21
31.6277
  0
LINE
  8
0
 10
-6.13414
 20
31.6277
 11
-6.50842
 21
32.4231
  0
LINE
  8
0
 10
-6.50842
 20
32.4231
 11
-6.78008
 21
33.2592
  0
LINE
  8
0
 10
-6.78008
 20
33.2592
 11
-6.94479
 21
34.1227
  0
LINE
  8
0
 10
-6.94479
 20
34.1227
 11
-7
 21
35
  0
LINE
  8
0
 10
-7
 20
35
 11
-6.94479
 21
35.8773
  0
LINE
  8
0
 10
-6.94479
 20
35.8773
 11
-6.78008
 21
36.7408
  0
LINE
  8
0
 10
-6.78008
 20
36.7408
 11
-6.50842
 21
37.5769
  0
LINE
  8
0
 10
-6.50842
 20
37.5769
 11
-6.13414
 21
38.3723
  0
LINE
  8
0
 10
-6.13414
 20
38.3723
 11
-5.66312
 21
39.1145
  0
LINE
  8
0
 10
-5.66312
 20
39.1145
 11
-5.10277
 21
39.7918
  0
LINE
  8
0
 10
-5.10277
 20
39.7918
 11
-4.46196
 21
40.3936
  0
LINE
  8
0
 10
-4.46196
 20
40.3936
 11
-3.75078
 21
40.9103
  0
LINE
  8
0
 10
-3.75078
 20
40.9103
 11
-2.98045
 21
41.3338
  0
LINE
  8
0
 10
-2.98045
 20
41.3338
 11
-2.16312
 21
41.6574
  0
LINE
  8
0
 10
-2.16312
 20
41.6574
 11
-1.31166
 21
41.876
  0
LINE
  8
0
 10
-1.31166
 20
41.876
 11
-0.439529
 21
41.9862
  0
LINE
  8
0
 10
-0.439529
 20
41.9862
 11
0.439529
 21
41.9862
  0
LINE
  8
0
 10
0.439529
 20
41.9862
 11
1.31166
 21
41.876
  0
LINE
  8
0
 10
1.31166
 20
41.876
 11
2.16312
 21
41.6574
  0
LINE
  8
0
 10
2.16312
 20
41.6574
 11
2.98045
 21
41.3338
  0
LINE
  8
0
 10
2.98045
 20
41.3338
 11
3.75078
 21
40.9103
  0
LINE
  8
0
 10
3.75078
 20
40.9103
 11
4.46196
 21
40.3936
  0
LINE
  8
0
 10
4.46196
 20
40.3936
 11
5.10277
 21
39.7918
  0
LINE
  8
0
 10
5.10277
 20
39.7918
 11
5.66312
 21
39.1145
  0
LINE
  8
0
 10
5.66312
 20
39.1145
 11
6.13414
 21
38.3723
  0
LINE
  8
0
 10
6.13414
 20
38.3723
 11
6.50842
 21
37.5769
  0
LINE
  8
0
 10
6.50842
 20
37.5769
 11
6.78008
 21
36.7408
  0
LINE
  8
0
 10
6.78008
 20
36.7408
 11
6.94479
 21
35.8773
  0
LINE
  8
0
 10
6.94479
 20
35.8773
 11
7
 21
35
  0
LINE
  8
0
 10
7
 20
35
 11
6.94479
 21
34.1227
  0
LINE
  8
0
 10
6.94479
 20
34.1227
 11
6.78008
 21
33.2592
  0
LINE
  8
0
 10
6.78008
 20
33.2592
 11
6.50842
 21
32.4231
  0
LINE
  8
0
 10
6.50842
 20
32.4231
 11
6.13414
 21
31.6277
  0
LINE
  8
0
 10
6.13414
 20
31.6277
 11
5.66312
 21
30.8855
  0
LINE
  8
0
 10
5.66312
 20
30.8855
 11
5.10277
 21
30.2082
  0
LINE
  8
0
 10
5.10277
 20
30.2082
 11
4.46196
 21
29.6064
  0
LINE
  8
0
 10
4.46196
 20
29.6064
 11
3.75078
 21
29.0897
  0
LINE
  8
0
 10
3.75078
 20
29.0897
 11
2.98045
 21
28.6662
  0
LINE
  8
0
 10
2.98045
 20
28.6662
 11
2.16312
 21
28.3426
  0
LINE
  8
0
 10
2.16312
 20
28.3426
 11
1.31166
 21
28.124
  0
LINE
  8
0
 10
1.31166
 20
28.124
 11
0.439529
 21
28.0138
  0
LINE
  8
0
 10
0.439529
 20
28.0138
 11
-0.439529
 21
28.0138
  0
LINE
  8
0
 10
-10.157
 20
7.50493
 11
-10.4684
 21
7.54428
  0
LINE
  8
0
 10
-10.4684
 20
7.54428
 11
-10.7725
 21
7.62234
  0
LINE
  8
0
 10
-10.7725
 20
7.62234
 11
-11.0644
 21
7.73793
  0
LINE
  8
0
 10
-11.0644
 20
7.73793
 11
-11.3396
 21
7.88918
  0
LINE
  8
0
 10
-11.3396
 20
7.88918
 11
-11.5936
 21
8.07372
  0
LINE
  8
0
 10
-11.5936
 20
8.07372
 11
-11.8224
 21
8.28862
  0
LINE
  8
0
 10
-11.8224
 20
8.28862
 11
-12.0225
 21
8.53053
  0
LINE
  8
0
 10
-12.0225
 20
8.53053
 11
-12.1908
 21
8.79561
  0
LINE
  8
0
 10
-12.1908
 20
8.79561
 11
-12.3244
 21
9.07968
  0
LINE
  8
0
 10
-12.3244
 20
9.07968
 11
-12.4214
 21
9.37827
  0
LINE
  8
0
 10
-12.4214
 20
9.37827
 11
-12.4803
 21
9.68666
  0
LINE
  8
0
 10
-12.4803
 20
9.68666
 11
-12.5
 21
10
  0
LINE
  8
0
 10
-12.5
 20
10
 11
-12.4803
 21
10.3133
  0
LINE
  8
0
 10
-12.4803
 20
10.3133
 11
-12.4214
 21
10.6217
  0
LINE
  8
0
 10
-12.4214
 20
10.6217
 11
-12.3244
 21
10.9203
  0
LINE
  8
0
 10
-12.3244
 20
10.9203
 11
-12.1908
 21
11.2044
  0
LINE
  8
0
 10
-12.1908
 20
11.2044
 11
-12.0225
 21
11.4695
  0
LINE
  8
0
 10
-12.0225
 20
11.4695
 11
-11.8224
 21
11.7114
  0
LINE
  8
0
 10
-11.8224
 20
11.7114
 11
-11.5936
 21
11.9263
  0
LINE
  8
0
 10
-11.5936
 20
11.9263
 11
-11.3396
 21
12.1108
  0
LINE
  8
0
 10
-11.3396
 20
12.1108
 11
-11.0644
 21
12.2621
  0
LINE
  8
0
 10
-11.0644
 20
12.2621
 11
-10.7725
 21
12.3776
  0
LINE
  8
0
 10
-10.7725
 20
12.3776
 11
-10.4684
 21
12.4557
  0
LINE
  8
0
 10
-10.4684
 20
12.4557
 11
-10.157
 21
12.4951
  0
LINE
  8
0
 10
-10.157
 20
12.4951
 11
-9.84302
 21
12.4951
  0
LINE
  8
0
 10
-9.84302
 20
12.4951
 11
-9.53154
 21
12.4557
  0
LINE
  8
0
 10
-9.53154
 20
12.4557
 11
-9.22745
 21
12.3776
  0
LINE
  8
0
 10
-9.22745
 20
12.3776
 11
-8.93555
 21
12.2621
  0
LINE
  8
0
 10
-8.93555
 20
12.2621
 11
-8.66043
 21
12.1108
  0
LINE
  8
0
 10
-8.66043
 20
12.1108
 11
-8.40643
 21
11.9263
  0
LINE
  8
0
 10
-8.40643
 20
11.9263
 11
-8.17757
 21
11.7114
  0
LINE
  8
0
 10
-8.17757
 20
11.7114
 11
-7.97745
 21
11.4695
  0
LINE
  8
0
 10
-7.97745
 20
11.4695
 11
-7.80922
 21
11.2044
  0
LINE
  8
0
 10
-7.80922
 20
11.2044
 11
-7.67555
 21
10.9203
  0
LINE
  8
0
 10
-7.67555
 20
10.9203
 11
-7.57854
 21
10.6217
  0
LINE
  8
0
 10
-7.57854
 20
10.6217
 11
-7.5197
 21
10.3133
  0
LINE
  8
0
 10
-7.5197
 20
10.3133
 11
-7.5
 21
10
  0
LINE
  8
0
 10
-7.5
 20
10
 11
-7.5197
 21
9.68666
  0
LINE
  8
0
 10
-7.5197
 20
9.68666
 11
-7.57854
 21
9.37827
  0
LINE
  8
0
 10
-7.57854
 20
9.37827
 11
-7.67555
 21
9.07968
  0
LINE
  8
0
 10
-7.67555
 20
9.07968
 11
-7.80922
 21
8.79561
  0
LINE
  8
0
 10
-7.80922
 20
8.79561
 11
-7.97745
 21
8.53053
  0
LINE
  8
0
 10
-7.97745
 20
8.53053
 11
-8.17757
 21
8.28862
  0
LINE
  8
0
 10
-8.17757
 20
8.28862
 11
-8.40643
 21
8.07372
  0
LINE
  8
0
 10
-8.40643
 20
8.07372
 11
-8.66043
 21
7.88918
  0
LINE
  8
0
 10
-8.66043
 20
7.88918
 11
-8.93555
 21
7.73793
  0
LINE
  8
0
 10
-8.93555
 20
7.73793
 11
-9.22745
 21
7.62234
  0
LINE
  8
0
 10
-9.22745
 20
7.62234
 11
-9.53154
 21
7.54428
  0
LINE
  8
0
 10
-9.53154
 20
7.54428
 11
-9.84302
 21
7.50493
  0
LINE
  8
0
 10
-9.84302
 20
7.50493
 11
-10.157
 21
7.50493
  0
LINE
  8
0
 10
9.84302
 20
7.50493
 11
9.53154
 21
7.54428
  0
LINE
  8
0
 10
9.53154
 20
7.54428
 11
9.22745
 21
7.62234
  0
LINE
  8
0
 10
9.22745
 20
7.62234
 11
8.93555
 21
7.73793
  0
LINE
  8
0
 10
8.93555
 20
7.73793
 11
8.66043
 21
7.88918
  0
LINE
  8
0
 10
8.66043
 20
7.88918
 11
8.40643
 21
8.07372
  0
LINE
  8
0
 10
8.40643
 20
8.07372
 11
8.17757
 21
8.28862
  0
LINE
  8
0
 10
8.17757
 20
8.28862
 11
7.97745
 21
8.53053
  0
LINE
  8
0
 10
7.97745
 20
8.53053
 11
7.80922
 21
8.79561
  0
LINE
  8
0
 10
7.80922
 20
8.79561
 11
7.67555
 21
9.07968
  0
LINE
  8
0
 10
7.67555
 20
9.07968
 11
7.57854
 21
9.37827
  0
LINE
  8
0
 10
7.57854
 20
9.37827
 11
7.5197
 21
9.68666
  0
LINE
  8
0
 10
7.5197
 20
9.68666
 11
7.5
 21
10
  0
LINE
  8
0
 10
7.5
 20
10
 11
7.5197
 21
10.3133
  0
LINE
  8
0
 10
7.5197
 20
10.3133
 11
7.57854
 21
10.6217
  0
LINE
  8
0
 10
7.57854
 20
10.6217
 11
7.67555
 21
10.9203
  0
LINE
  8
0
 10
7.67555
 20
10.9203
 11
7.80922
 21
11.2044
  0
LINE
  8
0
 10
7.80922
 20
11.2044
 11
7.97745
 21
11.4695
  0
LINE
  8
0
 10
7.97745
 20
11.4695
 11
8.17757
 21
11.7114
  0
LINE
  8
0
 10
8.17757
 20
11.7114
 11
8.40643
 21
11.9263
  0
LINE
  8
0
 10
8.40643
 20
11.9263
 11
8.66043
 21
12.1108
  0
LINE
  8
0
 10
8.66043
 20
12.1108
 11
8.93555
 21
12.2621
  0
LINE
  8
0
 10
8.93555
 20
12.2621
 11
9.22745
 21
12.3776
  0
LINE
  8
0
 10
9.22745
 20
12.3776
 11
9.53154
 21
12.4557
  0
LINE
  8
0
 10
9.53154
 20
12.4557
 11
9.84302
 21
12.4951
  0
LINE
  8
0
 10
9.84302
 20
12.4951
 11
10.157
 21
12.4951
  0
LINE
  8
0
 10
10.157
 20
12.4951
 11
10.4684
 21
12.4557
  0
LINE
  8
0
 10
10.4684
 20
12.4557
 11
10.7725
 21
12.3776
  0
LINE
  8
0
 10
10.7725
 20
12.3776
 11
11.0644
 21
12.2621
  0
LINE
  8
0
 10
11.0644
 20
12.2621
 11
11.3396
 21
12.1108
  0
LINE
  8
0
 10
11.3396
 20
12.1108
 11
11.5936
 21
11.9263
  0
LINE
  8
0
 10
11.5936
 20
11.9263
 11
11.8224
 21
11.7114
  0
LINE
  8
0
 10
11.8224
 20
11.7114
 11
12.0225
 21
11.4695
  0
LINE
  8
0
 10
12.0225
 20
11.4695
 11
12.1908
 21
11.2044
  0
LINE
  8
0
 10
12.1908
 20
11.2044
 11
12.3244
 21
10.9203
  0
LINE
  8
0
 10
12.3244
 20
10.9203
 11
12.4214
 21
10.6217
  0
LINE
  8
0
 10
12.4214
 20
10.6217
 11
12.4803
 21
10.3133
  0
LINE
  8
0
 10
12.4803
 20
10.3133
 11
12.5
 21
10
  0
LINE
  8
0
 10
12.5
 20
10
 11
12.4803
 21
9.68666
  0
LINE
  8
0
 10
12.4803
 20
9.68666
 11
12.4214
 21
9.37827
  0
LINE
  8
0
 10
12.4214
 20
9.37827
 11
12.3244
 21
9.07968
  0
LINE
  8
0
 10
12.3244
 20
9.07968
 11
12.1908
 21
8.79561
  0
LINE
  8
0
 10
12.1908
 20
8.79561
 11
12.0225
 21
8.53053
  0
LINE
  8
0
 10
12.0225
 20
8.53053
 11
11.8224
 21
8.28862
  0
LINE
  8
0
 10
11.8224
 20
8.28862
 11
11.5936
 21
8.07372
  0
LINE
  8
0
 10
11.5936
 20
8.07372
 11
11.3396
 21
7.88918
  0
LINE
  8
0
 10
11.3396
 20
7.88918
 11
11.0644
 21
7.73793
  0
LINE
  8
0
 10
11.0644
 20
7.73793
 11
10.7725
 21
7.62234
  0
LINE
  8
0
 10
10.7725
 20
7.62234
 11
10.4684
 21
7.54428
  0
LINE
  8
0
 10
10.4684
 20
7.54428
 11
10.157
 21
7.50493
  0
LINE
  8
0
 10
10.157
 20
7.50493
 11
9.84302
 21
7.50493
  0
LINE
  8
0
 10
-10.157
 20
-12.4951
 11
-10.4684
 21
-12.4557
  0
LINE
  8
0
 10
-10.4684
 20
-12.4557
 11
-10.7725
 21
-12.3776
  0
LINE
  8
0
 10
-10.7725
 20
-12.3776
 11
-11.0644
 21
-12.2621
  0
LINE
  8
0
 10
-11.0644
 20
-12.2621
 11
-11.3396
 21
-12.1108
  0
LINE
  8
0
 10
-11.3396
 20
-12.1108
 11
-11.5936
 21
-11.9263
  0
LINE
  8
0
 10
-11.5936
 20
-11.9263
 11
-11.8224
 21
-11.7114
  0
LINE
  8
0
 10
-11.8224
 20
-11.7114
 11
-12.0225
 21
-11.4695
  0
LINE
  8
0
 10
-12.0225
 20
-11.4695
 11
-12.1908
 21
-11.2044
  0
LINE
  8
0
 10
-12.1908
 20
-11.2044
 11
-12.3244
 21
-10.9203
  0
LINE
  8
0
 10
-12.3244
 20
-10.9203
 11
-12.4214
 21
-10.6217
  0
LINE
  8
0
 10
-12.4214
 20
-10.6217
 11
-12.4803
 21
-10.3133
  0
LINE
  8
0
 10
-12.4803
 20
-10.3133
 11
-12.5
 21
-10
  0
LINE
  8
0
 10
-12.5
 20
-10
 11
-12.4803
 21
-9.68666
  0
LINE
  8
0
 10
-12.4803
 20
-9.68666
 11
-12.4214
 21
-9.37827
  0
LINE
  8
0
 10
-12.4214
 20
-9.37827
 11
-12.3244
 21
-9.07968
  0
LINE
  8
0
 10
-12.3244
 20
-9.07968
 11
-12.1908
 21
-8.79561
  0
LINE
  8
0
 10
-12.1908
 20
-8.79561
 11
-12.0225
 21
-8.53053
  0
LINE
  8
0
 10
-12.0225
 20
-8.53053
 11
-11.8224
 21
-8.28862
  0
LINE
  8
0
 10
-11.8224
 20
-8.28862
 11
-11.5936
 21
-8.07372
  0
LINE
  8
0
 10
-11.5936
 20
-8.07372
 11
-11.3396
 21
-7.88918
  0
LINE
  8
0
 10
-11.3396
 20
-7.88918
 11
-11.0644
 21
-7.73793
  0
LINE
  8
0
 10
-11.0644
 20
-7.73793
 11
-10.7725
 21
-7.62234
  0
LINE
  8
0
 10
-10.7725
 20
-7.62234
 11
-10.4684
 21
-7.54428
  0
LINE
  8
0
 10
-10.4684
 20
-7.54428
 11
-10.157
 21
-7.50493
  0
LINE
  8
0
 10
-10.157
 20
-7.50493
 11
-9.84302
 21
-7.50493
  0
LINE
  8
0
 10
-9.84302
 20
-7.50493
 11
-9.53154
 21
-7.54428
  0
LINE
  8
0
 10
-9.53154
 20
-7.54428
 11
-9.22745
 21
-7.62234
  0
LINE
  8
0
 10
-9.22745
 20
-7.62234
 11
-8.93555
 21
-7.73793
  0
LINE
  8
0
 10
-8.93555
 20
-7.73793
 11
-8.66043
 21
-7.88918
  0
LINE
  8
0
 10
-8.66043
 20
-7.88918
 11
-8.40643
 21
-8.07372
  0
LINE
  8
0
 10
-8.40643
 20
-8.07372
 11
-8.17757
 21
-8.28862
  0
LINE
  8
0
 10
-8.17757
 20
-8.28862
 11
-7.97745
 21
-8.53053
  0
LINE
  8
0
 10
-7.97745
 20
-8.53053
 11
-7.80922
 21
-8.79561
  0
LINE
  8
0
 10
-7.80922
 20
-8.79561
 11
-7.67555
 21
-9.07968
  0
LINE
  8
0
 10
-7.67555
 20
-9.07968
 11
-7.57854
 21
-9.37827
  0
LINE
  8
0
 10
-7.57854
 20
-9.37827
 11
-7.5197
 21
-9.68666
  0
LINE
  8
0
 10
-7.5197
 20
-9.68666
 11
-7.5
 21
-10
  0
LINE
  8
0
 10
-7.5
 20
-10
 11
-7.5197
 21
-10.3133
  0
LINE
  8
0
 10
-7.5197
 20
-10.3133
 11
-7.57854
 21
-10.6217
  0
LINE
  8
0
 10
-7.57854
 20
-10.6217
 11
-7.67555
 21
-10.9203
  0
LINE
  8
0
 10
-7.67555
 20
-10.9203
 11
-7.80922
 21
-11.2044
  0
LINE
  8
0
 10
-7.80922
 20
-11.2044
 11
-7.97745
 21
-11.4695
  0
LINE
  8
0
 10
-7.97745
 20
-11.4695
 11
-8.17757
 21
-11.7114
  0
LINE
  8
0
 10
-8.17757
 20
-11.7114
 11
-8.40643
 21
-11.9263
  0
LINE
  8
0
 10
-8.40643
 20
-11.9263
 11
-8.66043
 21
-12.1108
  0
LINE
  8
0
 10
-8.66043
 20
-12.1108
 11
-8.93555
 21
-12.2621
  0
LINE
  8
0
 10
-8.93555
 20
-12.2621
 11
-9.22745
 21
-12.3776
  0
LINE
  8
0
 10
-9.22745
 20
-12.3776
 11
-9.53154
 21
-12.4557
  0
LINE
  8
0
 10
-9.53154
 20
-12.4557
 11
-9.84302
 21
-12.4951
  0
LINE
  8
0
 10
-9.84302
 20
-12.4951
 11
-10.157
 21
-12.4951
  0
LINE
  8
0
 10
9.84302
 20
-12.4951
 11
9.53154
 21
-12.4557
  0
LINE
  8
0
 10
9.53154
 20
-12.4557
 11
9.22745
 21
-12.3776
  0
LINE
  8
0
 10
9.22745
 20
-12.3776
 11
8.93555
 21
-12.2621
  0
LINE
  8
0
 10
8.93555
 20
-12.2621
 11
8.66043
 21
-12.1108
  0
LINE
  8
0
 10
8.66043
 20
-12.1108
 11
8.40643
 21
-11.9263
  0
LINE
  8
0
 10
8.40643
 20
-11.9263
 11
8.17757
 21
-11.7114
  0
LINE
  8
0
 10
8.17757
 20
-11.7114
 11
7.97745
 21
-11.4695
  0
LINE
  8
0
 10
7.97745
 20
-11.4695
 11
7.80922
 21
-11.2044
  0
LINE
  8
0
 10
7.80922
 20
-11.2044
 11
7.67555
 21
-10.9203
  0
LINE
  8
0
 10
7.67555
 20
-10.9203
 11
7.57854
 21
-10.6217
  0
LINE
  8
0
 10
7.57854
 20
-10.6217
 11
7.5197
 21
-10.3133
  0
LINE
  8
0
 10
7.5197
 20
-10.3133
 11
7.5
 21
-10
  0
LINE
  8
0
 10
7.5
 20
-10
 11
7.5197
 21
-9.68666
  0
LINE
  8
0
 10
7.5197
 20
-9.68666
 11
7.57854
 21
-9.37827
  0
LINE
  8
0
 10
7.57854
 20
-9.37827
 11
7.67555
 21
-9.07968
  0
LINE
  8
0
 10
7.67555
 20
-9.07968
 11
7.80922
 21
-8.79561
  0
LINE
  8
0
 10
7.80922
 20
-8.79561
 11
7.97745
 21
-8.53053
  0
LINE
  8
0
 10
7.97745
 20
-8.53053
 11
8.17757
 21
-8.28862
  0
LINE
  8
0
 10
8.17757
 20
-8.28862
 11
8.40643
 21
-8.07372
  0
LINE
  8
0
 10
8.40643
 20
-8.07372
 11
8.66043
 21
-7.88918
  0
LINE
  8
0
 10
8.66043
 20
-7.88918
 11
8.93555
 21
-7.73793
  0
LINE
  8
0
 10
8.93555
 20
-7.73793
 11
9.22745
 21
-7.62234
  0
LINE
  8
0
 10
9.22745
 20
-7.62234
 11
9.53154
 21
-7.54428
  0
LINE
  8
0
 10
9.53154
 20
-7.54428
 11
9.84302
 21
-7.50493
  0
LINE
  8
0
 10
9.84302
 20
-7.50493
 11
10.157
 21
-7.50493
  0
LINE
  8
0
 10
10.157
 20
-7.50493
 11
10.4684
 21
-7.54428
  0
LINE
  8
0
 10
10.4684
 20
-7.54428
 11
10.7725
 21
-7.62234
  0
LINE
  8
0
 10
10.7725
 20
-7.62234
 11
11.0644
 21
-7.73793
  0
LINE
  8
0
 10
11.0644
 20
-7.73793
 11
11.3396
 21
-7.88918
  0
LINE
  8
0
 10
11.3396
 20
-7.88918
 11
11.5936
 21
-8.07372
  0
LINE
  8
0
 10
11.5936
 20
-8.07372
 11
11.8224
 21
-8.28862
  0
LINE
  8
0
 10
11.8224
 20
-8.28862
 11
12.0225
 21
-8.53053
  0
LINE
  8
0
 10
12.0225
 20
-8.53053
 11
12.1908
 21
-8.79561
  0
LINE
  8
0
 10
12.1908
 20
-8.79561
 11
12.3244
 21
-9.07968
  0
LINE
  8
0
 10
12.3244
 20
-9.07968
 11
12.4214
 21
-9.37827
  0
LINE
  8
0
 10
12.4214
 20
-9.37827
 11
12.4803
 21
-9.68666
  0
LINE
  8
0
 10
12.4803
 20
-9.68666
 11
12.5
 21
-10
  0
LINE
  8
0
 10
12.5
 20
-10
 11
12.4803
 21
-10.3133
  0
LINE
  8
0
 10
12.4803
 20
-10.3133
 11
12.4214
 21
-10.6217
  0
LINE
  8
0
 10
12.4214
 20
-10.6217
 11
12.3244
 21
-10.9203
  0
LINE
  8
0
 10
12.3244
 20
-10.9203
 11
12.1908
 21
-11.2044
  0
LINE
  8
0
 10
12.1908
 20
-11.2044
 11
12.0225
 21
-11.4695
  0
LINE
  8
0
 10
12.0225
 20
-11.4695
 11
11.8224
 21
-11.7114
  0
LINE
  8
0
 10
11.8224
 20
-11.7114
 11
11.5936
 21
-11.9263
  0
LINE
  8
0
 10
11.5936
 20
-11.9263
 11
11.3396
 21
-12.1108
  0
LINE
  8
0
 10
11.3396
 20
-12.1108
 11
11.0644
 21
-12.2621
  0
LINE
  8
0
 10
11.0644
 20
-12.2621
 11
10.7725
 21
-12.3776
  0
LINE
  8
0
 10
10.7725
 20
-12.3776
 11
10.4684
 21
-12.4557
  0
LINE
  8
0
 10
10.4684
 20
-12.4557
 11
10.157
 21
-12.4951
  0
LINE
  8
0
 10
10.157
 20
-12.4951
 11
9.84302
 21
-12.4951
  0
ENDSEC
  0
SECTION
  2
OBJECTS
  0
DICTIONARY
  0
ENDSEC
  0
EOF
