  0
SECTION
  2
BLOCKS
  0
ENDSEC
  0
SECTION
  2
ENTITIES
  0
LINE
  8
0
 10
-16
 11
-16
 20
-16
 21
16
  0
LINE
  8
0
 10
-16
 11
16
 20
16
 21
16
  0
LINE
  8
0
 10
16
 11
16
 20
16
 21
-16
  0
LINE
  8
0
 10
16
 11
-16
 20
-16
 21
-16
  0
LINE
  8
0
 10
-11.5
 11
-11.488
 20
-10
 21
-9.812
  0
LINE
  8
0
 10
-11.488
 11
-11.453
 20
-9.812
 21
-9.627
  0
LINE
  8
0
 10
-11.453
 11
-11.395
 20
-9.627
 21
-9.448
  0
LINE
  8
0
 10
-11.395
 11
-11.314
 20
-9.448
 21
-9.277
  0
LINE
  8
0
 10
-11.314
 11
-11.214
 20
-9.277
 21
-9.118
  0
LINE
  8
0
 10
-11.214
 11
-11.093
 20
-9.118
 21
-8.973
  0
LINE
  8
0
 10
-11.093
 11
-10.956
 20
-8.973
 21
-8.844
  0
LINE
  8
0
 10
-10.956
 11
-10.804
 20
-8.844
 21
-8.734
  0
LINE
  8
0
 10
-10.804
 11
-10.639
 20
-8.734
 21
-8.643
  0
LINE
  8
0
 10
-10.639
 11
-10.464
 20
-8.643
 21
-8.573
  0
LINE
  8
0
 10
-10.464
 11
-10.281
 20
-8.573
 21
-8.527
  0
LINE
  8
0
 10
-10.281
 11
-10.094
 20
-8.527
 21
-8.503
  0
LINE
  8
0
 10
-10.094
 11
-9.906
 20
-8.503
 21
-8.503
  0
LINE
  8
0
 10
-9.906
 11
-9.719
 20
-8.503
 21
-8.527
  0
LINE
  8
0
 10
-9.719
 11
-9.536
 20
-8.527
 21
-8.573
  0
LINE
  8
0
 10
-9.536
 11
-9.361
 20
-8.573
 21
-8.643
  0
LINE
  8
0
 10
-9.361
 11
-9.196
 20
-8.643
 21
-8.734
  0
LINE
  8
0
 10
-9.196
 11
-9.044
 20
-8.734
 21
-8.844
  0
LINE
  8
0
 10
-9.044
 11
-8.907
 20
-8.844
 21
-8.973
  0
LINE
  8
0
 10
-8.907
 11
-8.786
 20
-8.973
 21
-9.118
  0
LINE
  8
0
 10
-8.786
 11
-8.686
 20
-9.118
 21
-9.277
  0
LINE
  8
0
 10
-8.686
 11
-8.605
 20
-9.277
 21
-9.448
  0
LINE
  8
0
 10
-8.605
 11
-8.547
 20
-9.448
 21
-9.627
  0
LINE
  8
0
 10
-8.547
 11
-8.512
 20
-9.627
 21
-9.812
  0
LINE
  8
0
 10
-8.512
 11
-8.5
 20
-9.812
 21
-10
  0
LINE
  8
0
 10
-8.5
 11
-8.512
 20
-10
 21
-10.188
  0
LINE
  8
0
 10
-8.512
 11
-8.547
 20
-10.188
 21
-10.373
  0
LINE
  8
0
 10
-8.547
 11
-8.605
 20
-10.373
 21
-10.552
  0
LINE
  8
0
 10
-8.605
 11
-8.686
 20
-10.552
 21
-10.723
  0
LINE
  8
0
 10
-8.686
 11
-8.786
 20
-10.723
 21
-10.882
  0
LINE
  8
0
 10
-8.786
 11
-8.907
 20
-10.882
 21
-11.027
  0
LINE
  8
0
 10
-8.907
 11
-9.044
 20
-11.027
 21
-11.156
  0
LINE
  8
0
 10
-9.044
 11
-9.196
 20
-11.156
 21
-11.266
  0
LINE
  8
0
 10
-9.196
 11
-9.361
 20
-11.266
 21
-11.357
  0
LINE
  8
0
 10
-9.361
 11
-9.536
 20
-11.357
 21
-11.427
  0
LINE
  8
0
 10
-9.536
 11
-9.719
 20
-11.427
 21
-11.473
  0
LINE
  8
0
 10
-9.719
 11
-9.906
 20
-11.473
 21
-11.497
  0
LINE
  8
0
 10
-9.906
 11
-10.094
 20
-11.497
 21
-11.497
  0
LINE
  8
0
 10
-10.094
 11
-10.281
 20
-11.497
 21
-11.473
  0
LINE
  8
0
 10
-10.281
 11
-10.464
 20
-11.473
 21
-11.427
  0
LINE
  8
0
 10
-10.464
 11
-10.639
 20
-11.427
 21
-11.357
  0
LINE
  8
0
 10
-10.639
 11
-10.804
 20
-11.357
 21
-11.266
  0
LINE
  8
0
 10
-10.804
 11
-10.956
 20
-11.266
 21
-11.156
  0
LINE
  8
0
 10
-10.956
 11
-11.093
 20
-11.156
 21
-11.027
  0
LINE
  8
0
 10
-11.093
 11
-11.214
 20
-11.027
 21
-10.882
  0
LINE
  8
0
 10
-11.214
 11
-11.314
 20
-10.882
 21
-10.723
  0
LINE
  8
0
 10
-11.314
 11
-11.395
 20
-10.723
 21
-10.552
  0
LINE
  8
0
 10
-11.395
 11
-11.453
 20
-10.552
 21
-10.373
  0
LINE
  8
0
 10
-11.453
 11
-11.488
 20
-10.373
 21
-10.188
  0
LINE
  8
0
 10
-11.488
 11
-11.5
 20
-10.188
 21
-10
  0
LINE
  8
0
 10
-11.497
 11
-11.497
 20
9.906
 21
10.094
  0
LINE
  8
0
 10
-11.497
 11
-11.473
 20
10.094
 21
10.281
  0
LINE
  8
0
 10
-11.473
 11
-11.427
 20
10.281
 21
10.464
  0
LINE
  8
0
 10
-11.427
 11
-11.357
 20
10.464
 21
10.639
  0
LINE
  8
0
 10
-11.357
 11
-11.266
 20
10.639
 21
10.804
  0
LINE
  8
0
 10
-11.266
 11
-11.156
 20
10.804
 21
10.956
  0
LINE
  8
0
 10
-11.156
 11
-11.027
 20
10.956
 21
11.093
  0
LINE
  8
0
 10
-11.027
 11
-10.882
 20
11.093
 21
11.214
  0
LINE
  8
0
 10
-10.882
 11
-10.723
 20
11.214
 21
11.314
  0
LINE
  8
0
 10
-10.723
 11
-10.552
 20
11.314
 21
11.395
  0
LINE
  8
0
 10
-10.552
 11
-10.373
 20
11.395
 21
11.453
  0
LINE
  8
0
 10
-10.373
 11
-10.188
 20
11.453
 21
11.488
  0
LINE
  8
0
 10
-10.188
 11
-10
 20
11.488
 21
11.5
  0
LINE
  8
0
 10
-10
 11
-9.812
 20
11.5
 21
11.488
  0
LINE
  8
0
 10
-9.812
 11
-9.627
 20
11.488
 21
11.453
  0
LINE
  8
0
 10
-9.627
 11
-9.448
 20
11.453
 21
11.395
  0
LINE
  8
0
 10
-9.448
 11
-9.277
 20
11.395
 21
11.314
  0
LINE
  8
0
 10
-9.277
 11
-9.118
 20
11.314
 21
11.214
  0
LINE
  8
0
 10
-9.118
 11
-8.973
 20
11.214
 21
11.093
  0
LINE
  8
0
 10
-8.973
 11
-8.844
 20
11.093
 21
10.956
  0
LINE
  8
0
 10
-8.844
 11
-8.734
 20
10.956
 21
10.804
  0
LINE
  8
0
 10
-8.734
 11
-8.643
 20
10.804
 21
10.639
  0
LINE
  8
0
 10
-8.643
 11
-8.573
 20
10.639
 21
10.464
  0
LINE
  8
0
 10
-8.573
 11
-8.527
 20
10.464
 21
10.281
  0
LINE
  8
0
 10
-8.527
 11
-8.503
 20
10.281
 21
10.094
  0
LINE
  8
0
 10
-8.503
 11
-8.503
 20
10.094
 21
9.906
  0
LINE
  8
0
 10
-8.503
 11
-8.527
 20
9.906
 21
9.719
  0
LINE
  8
0
 10
-8.527
 11
-8.573
 20
9.719
 21
9.536
  0
LINE
  8
0
 10
-8.573
 11
-8.643
 20
9.536
 21
9.361
  0
LINE
  8
0
 10
-8.643
 11
-8.734
 20
9.361
 21
9.196
  0
LINE
  8
0
 10
-8.734
 11
-8.844
 20
9.196
 21
9.044
  0
LINE
  8
0
 10
-8.844
 11
-8.973
 20
9.044
 21
8.907
  0
LINE
  8
0
 10
-8.973
 11
-9.118
 20
8.907
 21
8.786
  0
LINE
  8
0
 10
-9.118
 11
-9.277
 20
8.786
 21
8.686
  0
LINE
  8
0
 10
-9.277
 11
-9.448
 20
8.686
 21
8.605
  0
LINE
  8
0
 10
-9.448
 11
-9.627
 20
8.605
 21
8.547
  0
LINE
  8
0
 10
-9.627
 11
-9.812
 20
8.547
 21
8.512
  0
LINE
  8
0
 10
-9.812
 11
-10
 20
8.512
 21
8.5
  0
LINE
  8
0
 10
-10
 11
-10.188
 20
8.5
 21
8.512
  0
LINE
  8
0
 10
-10.188
 11
-10.373
 20
8.512
 21
8.547
  0
LINE
  8
0
 10
-10.373
 11
-10.552
 20
8.547
 21
8.605
  0
LINE
  8
0
 10
-10.552
 11
-10.723
 20
8.605
 21
8.686
  0
LINE
  8
0
 10
-10.723
 11
-10.882
 20
8.686
 21
8.786
  0
LINE
  8
0
 10
-10.882
 11
-11.027
 20
8.786
 21
8.907
  0
LINE
  8
0
 10
-11.027
 11
-11.156
 20
8.907
 21
9.044
  0
LINE
  8
0
 10
-11.156
 11
-11.266
 20
9.044
 21
9.196
  0
LINE
  8
0
 10
-11.266
 11
-11.357
 20
9.196
 21
9.361
  0
LINE
  8
0
 10
-11.357
 11
-11.427
 20
9.361
 21
9.536
  0
LINE
  8
0
 10
-11.427
 11
-11.473
 20
9.536
 21
9.719
  0
LINE
  8
0
 10
-11.473
 11
-11.497
 20
9.719
 21
9.906
  0
LINE
  8
0
 10
-9.5
 11
-9.488
 20
0
 21
0.188
  0
LINE
  8
0
 10
-9.488
 11
-9.453
 20
0.188
 21
0.373
  0
LINE
  8
0
 10
-9.453
 11
-9.395
 20
0.373
 21
0.552
  0
LINE
  8
0
 10
-9.395
 11
-9.314
 20
0.552
 21
0.723
  0
LINE
  8
0
 10
-9.314
 11
-9.214
 20
0.723
 21
0.882
  0
LINE
  8
0
 10
-9.214
 11
-9.093
 20
0.882
 21
1.027
  0
LINE
  8
0
 10
-9.093
 11
-8.956
 20
1.027
 21
1.156
  0
LINE
  8
0
 10
-8.956
 11
-8.804
 20
1.156
 21
1.266
  0
LINE
  8
0
 10
-8.804
 11
-8.639
 20
1.266
 21
1.357
  0
LINE
  8
0
 10
-8.639
 11
-8.464
 20
1.357
 21
1.427
  0
LINE
  8
0
 10
-8.464
 11
-8.281
 20
1.427
 21
1.473
  0
LINE
  8
0
 10
-8.281
 11
-8.094
 20
1.473
 21
1.497
  0
LINE
  8
0
 10
-8.094
 11
-7.906
 20
1.497
 21
1.497
  0
LINE
  8
0
 10
-7.906
 11
-7.719
 20
1.497
 21
1.473
  0
LINE
  8
0
 10
-7.719
 11
-7.536
 20
1.473
 21
1.427
  0
LINE
  8
0
 10
-7.536
 11
-7.361
 20
1.427
 21
1.357
  0
LINE
  8
0
 10
-7.361
 11
-7.196
 20
1.357
 21
1.266
  0
LINE
  8
0
 10
-7.196
 11
-7.044
 20
1.266
 21
1.156
  0
LINE
  8
0
 10
-7.044
 11
-6.907
 20
1.156
 21
1.027
  0
LINE
  8
0
 10
-6.907
 11
-6.786
 20
1.027
 21
0.882
  0
LINE
  8
0
 10
-6.786
 11
-6.686
 20
0.882
 21
0.723
  0
LINE
  8
0
 10
-6.686
 11
-6.605
 20
0.723
 21
0.552
  0
LINE
  8
0
 10
-6.605
 11
-6.547
 20
0.552
 21
0.373
  0
LINE
  8
0
 10
-6.547
 11
-6.512
 20
0.373
 21
0.188
  0
LINE
  8
0
 10
-6.512
 11
-6.5
 20
0.188
 21
0
  0
LINE
  8
0
 10
-6.5
 11
-6.512
 20
0
 21
-0.188
  0
LINE
  8
0
 10
-6.512
 11
-6.547
 20
-0.188
 21
-0.373
  0
LINE
  8
0
 10
-6.547
 11
-6.605
 20
-0.373
 21
-0.552
  0
LINE
  8
0
 10
-6.605
 11
-6.686
 20
-0.552
 21
-0.723
  0
LINE
  8
0
 10
-6.686
 11
-6.786
 20
-0.723
 21
-0.882
  0
LINE
  8
0
 10
-6.786
 11
-6.907
 20
-0.882
 21
-1.027
  0
LINE
  8
0
 10
-6.907
 11
-7.044
 20
-1.027
 21
-1.156
  0
LINE
  8
0
 10
-7.044
 11
-7.196
 20
-1.156
 21
-1.266
  0
LINE
  8
0
 10
-7.196
 11
-7.361
 20
-1.266
 21
-1.357
  0
LINE
  8
0
 10
-7.361
 11
-7.536
 20
-1.357
 21
-1.427
  0
LINE
  8
0
 10
-7.536
 11
-7.719
 20
-1.427
 21
-1.473
  0
LINE
  8
0
 10
-7.719
 11
-7.906
 20
-1.473
 21
-1.497
  0
LINE
  8
0
 10
-7.906
 11
-8.094
 20
-1.497
 21
-1.497
  0
LINE
  8
0
 10
-8.094
 11
-8.281
 20
-1.497
 21
-1.473
  0
LINE
  8
0
 10
-8.281
 11
-8.464
 20
-1.473
 21
-1.427
  0
LINE
  8
0
 10
-8.464
 11
-8.639
 20
-1.427
 21
-1.357
  0
LINE
  8
0
 10
-8.639
 11
-8.804
 20
-1.357
 21
-1.266
  0
LINE
  8
0
 10
-8.804
 11
-8.956
 20
-1.266
 21
-1.156
  0
LINE
  8
0
 10
-8.956
 11
-9.093
 20
-1.156
 21
-1.027
  0
LINE
  8
0
 10
-9.093
 11
-9.214
 20
-1.027
 21
-0.882
  0
LINE
  8
0
 10
-9.214
 11
-9.314
 20
-0.882
 21
-0.723
  0
LINE
  8
0
 10
-9.314
 11
-9.395
 20
-0.723
 21
-0.552
  0
LINE
  8
0
 10
-9.395
 11
-9.453
 20
-0.552
 21
-0.373
  0
LINE
  8
0
 10
-9.453
 11
-9.488
 20
-0.373
 21
-0.188
  0
LINE
  8
0
 10
-9.488
 11
-9.5
 20
-0.188
 21
0
  0
LINE
  8
0
 10
-5
 11
-4.961
 20
0
 21
0.627
  0
LINE
  8
0
 10
-4.961
 11
-4.843
 20
0.627
 21
1.243
  0
LINE
  8
0
 10
-4.843
 11
-4.649
 20
1.243
 21
1.841
  0
LINE
  8
0
 10
-4.649
 11
-4.382
 20
1.841
 21
2.409
  0
LINE
  8
0
 10
-4.382
 11
-4.045
 20
2.409
 21
2.939
  0
LINE
  8
0
 10
-4.045
 11
-3.645
 20
2.939
 21
3.423
  0
LINE
  8
0
 10
-3.645
 11
-3.187
 20
3.423
 21
3.853
  0
LINE
  8
0
 10
-3.187
 11
-2.679
 20
3.853
 21
4.222
  0
LINE
  8
0
 10
-2.679
 11
-2.129
 20
4.222
 21
4.524
  0
LINE
  8
0
 10
-2.129
 11
-1.545
 20
4.524
 21
4.755
  0
LINE
  8
0
 10
-1.545
 11
-0.937
 20
4.755
 21
4.911
  0
LINE
  8
0
 10
-0.937
 11
-0.314
 20
4.911
 21
4.99
  0
LINE
  8
0
 10
-0.314
 11
0.314
 20
4.99
 21
4.99
  0
LINE
  8
0
 10
0.314
 11
0.937
 20
4.99
 21
4.911
  0
LINE
  8
0
 10
0.937
 11
1.545
 20
4.911
 21
4.755
  0
LINE
  8
0
 10
1.545
 11
2.129
 20
4.755
 21
4.524
  0
LINE
  8
0
 10
2.129
 11
2.679
 20
4.524
 21
4.222
  0
LINE
  8
0
 10
2.679
 11
3.187
 20
4.222
 21
3.853
  0
LINE
  8
0
 10
3.187
 11
3.645
 20
3.853
 21
3.423
  0
LINE
  8
0
 10
3.645
 11
4.045
 20
3.423
 21
2.939
  0
LINE
  8
0
 10
4.045
 11
4.382
 20
2.939
 21
2.409
  0
LINE
  8
0
 10
4.382
 11
4.649
 20
2.409
 21
1.841
  0
LINE
  8
0
 10
4.649
 11
4.843
 20
1.841
 21
1.243
  0
LINE
  8
0
 10
4.843
 11
4.961
 20
1.243
 21
0.627
  0
LINE
  8
0
 10
4.961
 11
5
 20
0.627
 21
0
  0
LINE
  8
0
 10
5
 11
4.961
 20
0
 21
-0.627
  0
LINE
  8
0
 10
4.961
 11
4.843
 20
-0.627
 21
-1.243
  0
LINE
  8
0
 10
4.843
 11
4.649
 20
-1.243
 21
-1.841
  0
LINE
  8
0
 10
4.649
 11
4.382
 20
-1.841
 21
-2.409
  0
LINE
  8
0
 10
4.382
 11
4.045
 20
-2.409
 21
-2.939
  0
LINE
  8
0
 10
4.045
 11
3.645
 20
-2.939
 21
-3.423
  0
LINE
  8
0
 10
3.645
 11
3.187
 20
-3.423
 21
-3.853
  0
LINE
  8
0
 10
3.187
 11
2.679
 20
-3.853
 21
-4.222
  0
LINE
  8
0
 10
2.679
 11
2.129
 20
-4.222
 21
-4.524
  0
LINE
  8
0
 10
2.129
 11
1.545
 20
-4.524
 21
-4.755
  0
LINE
  8
0
 10
1.545
 11
0.937
 20
-4.755
 21
-4.911
  0
LINE
  8
0
 10
0.937
 11
0.314
 20
-4.911
 21
-4.99
  0
LINE
  8
0
 10
0.314
 11
-0.314
 20
-4.99
 21
-4.99
  0
LINE
  8
0
 10
-0.314
 11
-0.937
 20
-4.99
 21
-4.911
  0
LINE
  8
0
 10
-0.937
 11
-1.545
 20
-4.911
 21
-4.755
  0
LINE
  8
0
 10
-1.545
 11
-2.129
 20
-4.755
 21
-4.524
  0
LINE
  8
0
 10
-2.129
 11
-2.679
 20
-4.524
 21
-4.222
  0
LINE
  8
0
 10
-2.679
 11
-3.187
 20
-4.222
 21
-3.853
  0
LINE
  8
0
 10
-3.187
 11
-3.645
 20
-3.853
 21
-3.423
  0
LINE
  8
0
 10
-3.645
 11
-4.045
 20
-3.423
 21
-2.939
  0
LINE
  8
0
 10
-4.045
 11
-4.382
 20
-2.939
 21
-2.409
  0
LINE
  8
0
 10
-4.382
 11
-4.649
 20
-2.409
 21
-1.841
  0
LINE
  8
0
 10
-4.649
 11
-4.843
 20
-1.841
 21
-1.243
  0
LINE
  8
0
 10
-4.843
 11
-4.961
 20
-1.243
 21
-0.627
  0
LINE
  8
0
 10
-4.961
 11
-5
 20
-0.627
 21
0
  0
LINE
  8
0
 10
-1.497
 11
-1.497
 20
-8.094
 21
-7.906
  0
LINE
  8
0
 10
-1.497
 11
-1.473
 20
-7.906
 21
-7.719
  0
LINE
  8
0
 10
-1.473
 11
-1.427
 20
-7.719
 21
-7.536
  0
LINE
  8
0
 10
-1.427
 11
-1.357
 20
-7.536
 21
-7.361
  0
LINE
  8
0
 10
-1.357
 11
-1.266
 20
-7.361
 21
-7.196
  0
LINE
  8
0
 10
-1.266
 11
-1.156
 20
-7.196
 21
-7.044
  0
LINE
  8
0
 10
-1.156
 11
-1.027
 20
-7.044
 21
-6.907
  0
LINE
  8
0
 10
-1.027
 11
-0.882
 20
-6.907
 21
-6.786
  0
LINE
  8
0
 10
-0.882
 11
-0.723
 20
-6.786
 21
-6.686
  0
LINE
  8
0
 10
-0.723
 11
-0.552
 20
-6.686
 21
-6.605
  0
LINE
  8
0
 10
-0.552
 11
-0.373
 20
-6.605
 21
-6.547
  0
LINE
  8
0
 10
-0.373
 11
-0.188
 20
-6.547
 21
-6.512
  0
LINE
  8
0
 10
-0.188
 11
0
 20
-6.512
 21
-6.5
  0
LINE
  8
0
 10
0
 11
0.188
 20
-6.5
 21
-6.512
  0
LINE
  8
0
 10
0.188
 11
0.373
 20
-6.512
 21
-6.547
  0
LINE
  8
0
 10
0.373
 11
0.552
 20
-6.547
 21
-6.605
  0
LINE
  8
0
 10
0.552
 11
0.723
 20
-6.605
 21
-6.686
  0
LINE
  8
0
 10
0.723
 11
0.882
 20
-6.686
 21
-6.786
  0
LINE
  8
0
 10
0.882
 11
1.027
 20
-6.786
 21
-6.907
  0
LINE
  8
0
 10
1.027
 11
1.156
 20
-6.907
 21
-7.044
  0
LINE
  8
0
 10
1.156
 11
1.266
 20
-7.044
 21
-7.196
  0
LINE
  8
0
 10
1.266
 11
1.357
 20
-7.196
 21
-7.361
  0
LINE
  8
0
 10
1.357
 11
1.427
 20
-7.361
 21
-7.536
  0
LINE
  8
0
 10
1.427
 11
1.473
 20
-7.536
 21
-7.719
  0
LINE
  8
0
 10
1.473
 11
1.497
 20
-7.719
 21
-7.906
  0
LINE
  8
0
 10
1.497
 11
1.497
 20
-7.906
 21
-8.094
  0
LINE
  8
0
 10
1.497
 11
1.473
 20
-8.094
 21
-8.281
  0
LINE
  8
0
 10
1.473
 11
1.427
 20
-8.281
 21
-8.464
  0
LINE
  8
0
 10
1.427
 11
1.357
 20
-8.464
 21
-8.639
  0
LINE
  8
0
 10
1.357
 11
1.266
 20
-8.639
 21
-8.804
  0
LINE
  8
0
 10
1.266
 11
1.156
 20
-8.804
 21
-8.956
  0
LINE
  8
0
 10
1.156
 11
1.027
 20
-8.956
 21
-9.093
  0
LINE
  8
0
 10
1.027
 11
0.882
 20
-9.093
 21
-9.214
  0
LINE
  8
0
 10
0.882
 11
0.723
 20
-9.214
 21
-9.314
  0
LINE
  8
0
 10
0.723
 11
0.552
 20
-9.314
 21
-9.395
  0
LINE
  8
0
 10
0.552
 11
0.373
 20
-9.395
 21
-9.453
  0
LINE
  8
0
 10
0.373
 11
0.188
 20
-9.453
 21
-9.488
  0
LINE
  8
0
 10
0.188
 11
0
 20
-9.488
 21
-9.5
  0
LINE
  8
0
 10
0
 11
-0.188
 20
-9.5
 21
-9.488
  0
LINE
  8
0
 10
-0.188
 11
-0.373
 20
-9.488
 21
-9.453
  0
LINE
  8
0
 10
-0.373
 11
-0.552
 20
-9.453
 21
-9.395
  0
LINE
  8
0
 10
-0.552
 11
-0.723
 20
-9.395
 21
-9.314
  0
LINE
  8
0
 10
-0.723
 11
-0.882
 20
-9.314
 21
-9.214
  0
LINE
  8
0
 10
-0.882
 11
-1.027
 20
-9.214
 21
-9.093
  0
LINE
  8
0
 10
-1.027
 11
-1.156
 20
-9.093
 21
-8.956
  0
LINE
  8
0
 10
-1.156
 11
-1.266
 20
-8.956
 21
-8.804
  0
LINE
  8
0
 10
-1.266
 11
-1.357
 20
-8.804
 21
-8.639
  0
LINE
  8
0
 10
-1.357
 11
-1.427
 20
-8.639
 21
-8.464
  0
LINE
  8
0
 10
-1.427
 11
-1.473
 20
-8.464
 21
-8.281
  0
LINE
  8
0
 10
-1.473
 11
-1.497
 20
-8.281
 21
-8.094
  0
LINE
  8
0
 10
-1.497
 11
-1.497
 20
7.906
 21
8.094
  0
LINE
  8
0
 10
-1.497
 11
-1.473
 20
8.094
 21
8.281
  0
LINE
  8
0
 10
-1.473
 11
-1.427
 20
8.281
 21
8.464
  0
LINE
  8
0
 10
-1.427
 11
-1.357
 20
8.464
 21
8.639
  0
LINE
  8
0
 10
-1.357
 11
-1.266
 20
8.639
 21
8.804
  0
LINE
  8
0
 10
-1.266
 11
-1.156
 20
8.804
 21
8.956
  0
LINE
  8
0
 10
-1.156
 11
-1.027
 20
8.956
 21
9.093
  0
LINE
  8
0
 10
-1.027
 11
-0.882
 20
9.093
 21
9.214
  0
LINE
  8
0
 10
-0.882
 11
-0.723
 20
9.214
 21
9.314
  0
LINE
  8
0
 10
-0.723
 11
-0.552
 20
9.314
 21
9.395
  0
LINE
  8
0
 10
-0.552
 11
-0.373
 20
9.395
 21
9.453
  0
LINE
  8
0
 10
-0.373
 11
-0.188
 20
9.453
 21
9.488
  0
LINE
  8
0
 10
-0.188
 11
0
 20
9.488
 21
9.5
  0
LINE
  8
0
 10
0
 11
0.188
 20
9.5
 21
9.488
  0
LINE
  8
0
 10
0.188
 11
0.373
 20
9.488
 21
9.453
  0
LINE
  8
0
 10
0.373
 11
0.552
 20
9.453
 21
9.395
  0
LINE
  8
0
 10
0.552
 11
0.723
 20
9.395
 21
9.314
  0
LINE
  8
0
 10
0.723
 11
0.882
 20
9.314
 21
9.214
  0
LINE
  8
0
 10
0.882
 11
1.027
 20
9.214
 21
9.093
  0
LINE
  8
0
 10
1.027
 11
1.156
 20
9.093
 21
8.956
  0
LINE
  8
0
 10
1.156
 11
1.266
 20
8.956
 21
8.804
  0
LINE
  8
0
 10
1.266
 11
1.357
 20
8.804
 21
8.639
  0
LINE
  8
0
 10
1.357
 11
1.427
 20
8.639
 21
8.464
  0
LINE
  8
0
 10
1.427
 11
1.473
 20
8.464
 21
8.281
  0
LINE
  8
0
 10
1.473
 11
1.497
 20
8.281
 21
8.094
  0
LINE
  8
0
 10
1.497
 11
1.497
 20
8.094
 21
7.906
  0
LINE
  8
0
 10
1.497
 11
1.473
 20
7.906
 21
7.719
  0
LINE
  8
0
 10
1.473
 11
1.427
 20
7.719
 21
7.536
  0
LINE
  8
0
 10
1.427
 11
1.357
 20
7.536
 21
7.361
  0
LINE
  8
0
 10
1.357
 11
1.266
 20
7.361
 21
7.196
  0
LINE
  8
0
 10
1.266
 11
1.156
 20
7.196
 21
7.044
  0
LINE
  8
0
 10
1.156
 11
1.027
 20
7.044
 21
6.907
  0
LINE
  8
0
 10
1.027
 11
0.882
 20
6.907
 21
6.786
  0
LINE
  8
0
 10
0.882
 11
0.723
 20
6.786
 21
6.686
  0
LINE
  8
0
 10
0.723
 11
0.552
 20
6.686
 21
6.605
  0
LINE
  8
0
 10
0.552
 11
0.373
 20
6.605
 21
6.547
  0
LINE
  8
0
 10
0.373
 11
0.188
 20
6.547
 21
6.512
  0
LINE
  8
0
 10
0.188
 11
0
 20
6.512
 21
6.5
  0
LINE
  8
0
 10
0
 11
-0.188
 20
6.5
 21
6.512
  0
LINE
  8
0
 10
-0.188
 11
-0.373
 20
6.512
 21
6.547
  0
LINE
  8
0
 10
-0.373
 11
-0.552
 20
6.547
 21
6.605
  0
LINE
  8
0
 10
-0.552
 11
-0.723
 20
6.605
 21
6.686
  0
LINE
  8
0
 10
-0.723
 11
-0.882
 20
6.686
 21
6.786
  0
LINE
  8
0
 10
-0.882
 11
-1.027
 20
6.786
 21
6.907
  0
LINE
  8
0
 10
-1.027
 11
-1.156
 20
6.907
 21
7.044
  0
LINE
  8
0
 10
-1.156
 11
-1.266
 20
7.044
 21
7.196
  0
LINE
  8
0
 10
-1.266
 11
-1.357
 20
7.196
 21
7.361
  0
LINE
  8
0
 10
-1.357
 11
-1.427
 20
7.361
 21
7.536
  0
LINE
  8
0
 10
-1.427
 11
-1.473
 20
7.536
 21
7.719
  0
LINE
  8
0
 10
-1.473
 11
-1.497
 20
7.719
 21
7.906
  0
LINE
  8
0
 10
6.5
 11
6.512
 20
0
 21
0.188
  0
LINE
  8
0
 10
6.512
 11
6.547
 20
0.188
 21
0.373
  0
LINE
  8
0
 10
6.547
 11
6.605
 20
0.373
 21
0.552
  0
LINE
  8
0
 10
6.605
 11
6.686
 20
0.552
 21
0.723
  0
LINE
  8
0
 10
6.686
 11
6.786
 20
0.723
 21
0.882
  0
LINE
  8
0
 10
6.786
 11
6.907
 20
0.882
 21
1.027
  0
LINE
  8
0
 10
6.907
 11
7.044
 20
1.027
 21
1.156
  0
LINE
  8
0
 10
7.044
 11
7.196
 20
1.156
 21
1.266
  0
LINE
  8
0
 10
7.196
 11
7.361
 20
1.266
 21
1.357
  0
LINE
  8
0
 10
7.361
 11
7.536
 20
1.357
 21
1.427
  0
LINE
  8
0
 10
7.536
 11
7.719
 20
1.427
 21
1.473
  0
LINE
  8
0
 10
7.719
 11
7.906
 20
1.473
 21
1.497
  0
LINE
  8
0
 10
7.906
 11
8.094
 20
1.497
 21
1.497
  0
LINE
  8
0
 10
8.094
 11
8.281
 20
1.497
 21
1.473
  0
LINE
  8
0
 10
8.281
 11
8.464
 20
1.473
 21
1.427
  0
LINE
  8
0
 10
8.464
 11
8.639
 20
1.427
 21
1.357
  0
LINE
  8
0
 10
8.639
 11
8.804
 20
1.357
 21
1.266
  0
LINE
  8
0
 10
8.804
 11
8.956
 20
1.266
 21
1.156
  0
LINE
  8
0
 10
8.956
 11
9.093
 20
1.156
 21
1.027
  0
LINE
  8
0
 10
9.093
 11
9.214
 20
1.027
 21
0.882
  0
LINE
  8
0
 10
9.214
 11
9.314
 20
0.882
 21
0.723
  0
LINE
  8
0
 10
9.314
 11
9.395
 20
0.723
 21
0.552
  0
LINE
  8
0
 10
9.395
 11
9.453
 20
0.552
 21
0.373
  0
LINE
  8
0
 10
9.453
 11
9.488
 20
0.373
 21
0.188
  0
LINE
  8
0
 10
9.488
 11
9.5
 20
0.188
 21
0
  0
LINE
  8
0
 10
9.5
 11
9.488
 20
0
 21
-0.188
  0
LINE
  8
0
 10
9.488
 11
9.453
 20
-0.188
 21
-0.373
  0
LINE
  8
0
 10
9.453
 11
9.395
 20
-0.373
 21
-0.552
  0
LINE
  8
0
 10
9.395
 11
9.314
 20
-0.552
 21
-0.723
  0
LINE
  8
0
 10
9.314
 11
9.214
 20
-0.723
 21
-0.882
  0
LINE
  8
0
 10
9.214
 11
9.093
 20
-0.882
 21
-1.027
  0
LINE
  8
0
 10
9.093
 11
8.956
 20
-1.027
 21
-1.156
  0
LINE
  8
0
 10
8.956
 11
8.804
 20
-1.156
 21
-1.266
  0
LINE
  8
0
 10
8.804
 11
8.639
 20
-1.266
 21
-1.357
  0
LINE
  8
0
 10
8.639
 11
8.464
 20
-1.357
 21
-1.427
  0
LINE
  8
0
 10
8.464
 11
8.281
 20
-1.427
 21
-1.473
  0
LINE
  8
0
 10
8.281
 11
8.094
 20
-1.473
 21
-1.497
  0
LINE
  8
0
 10
8.094
 11
7.906
 20
-1.497
 21
-1.497
  0
LINE
  8
0
 10
7.906
 11
7.719
 20
-1.497
 21
-1.473
  0
LINE
  8
0
 10
7.719
 11
7.536
 20
-1.473
 21
-1.427
  0
LINE
  8
0
 10
7.536
 11
7.361
 20
-1.427
 21
-1.357
  0
LINE
  8
0
 10
7.361
 11
7.196
 20
-1.357
 21
-1.266
  0
LINE
  8
0
 10
7.196
 11
7.044
 20
-1.266
 21
-1.156
  0
LINE
  8
0
 10
7.044
 11
6.907
 20
-1.156
 21
-1.027
  0
LINE
  8
0
 10
6.907
 11
6.786
 20
-1.027
 21
-0.882
  0
LINE
  8
0
 10
6.786
 11
6.686
 20
-0.882
 21
-0.723
  0
LINE
  8
0
 10
6.686
 11
6.605
 20
-0.723
 21
-0.552
  0
LINE
  8
0
 10
6.605
 11
6.547
 20
-0.552
 21
-0.373
  0
LINE
  8
0
 10
6.547
 11
6.512
 20
-0.373
 21
-0.188
  0
LINE
  8
0
 10
6.512
 11
6.5
 20
-0.188
 21
0
  0
LINE
  8
0
 10
8.5
 11
8.512
 20
10
 21
10.188
  0
LINE
  8
0
 10
8.512
 11
8.547
 20
10.188
 21
10.373
  0
LINE
  8
0
 10
8.547
 11
8.605
 20
10.373
 21
10.552
  0
LINE
  8
0
 10
8.605
 11
8.686
 20
10.552
 21
10.723
  0
LINE
  8
0
 10
8.686
 11
8.786
 20
10.723
 21
10.882
  0
LINE
  8
0
 10
8.786
 11
8.907
 20
10.882
 21
11.027
  0
LINE
  8
0
 10
8.907
 11
9.044
 20
11.027
 21
11.156
  0
LINE
  8
0
 10
9.044
 11
9.196
 20
11.156
 21
11.266
  0
LINE
  8
0
 10
9.196
 11
9.361
 20
11.266
 21
11.357
  0
LINE
  8
0
 10
9.361
 11
9.536
 20
11.357
 21
11.427
  0
LINE
  8
0
 10
9.536
 11
9.719
 20
11.427
 21
11.473
  0
LINE
  8
0
 10
9.719
 11
9.906
 20
11.473
 21
11.497
  0
LINE
  8
0
 10
9.906
 11
10.094
 20
11.497
 21
11.497
  0
LINE
  8
0
 10
10.094
 11
10.281
 20
11.497
 21
11.473
  0
LINE
  8
0
 10
10.281
 11
10.464
 20
11.473
 21
11.427
  0
LINE
  8
0
 10
10.464
 11
10.639
 20
11.427
 21
11.357
  0
LINE
  8
0
 10
10.639
 11
10.804
 20
11.357
 21
11.266
  0
LINE
  8
0
 10
10.804
 11
10.956
 20
11.266
 21
11.156
  0
LINE
  8
0
 10
10.956
 11
11.093
 20
11.156
 21
11.027
  0
LINE
  8
0
 10
11.093
 11
11.214
 20
11.027
 21
10.882
  0
LINE
  8
0
 10
11.214
 11
11.314
 20
10.882
 21
10.723
  0
LINE
  8
0
 10
11.314
 11
11.395
 20
10.723
 21
10.552
  0
LINE
  8
0
 10
11.395
 11
11.453
 20
10.552
 21
10.373
  0
LINE
  8
0
 10
11.453
 11
11.488
 20
10.373
 21
10.188
  0
LINE
  8
0
 10
11.488
 11
11.5
 20
10.188
 21
10
  0
LINE
  8
0
 10
11.5
 11
11.488
 20
10
 21
9.812
  0
LINE
  8
0
 10
11.488
 11
11.453
 20
9.812
 21
9.627
  0
LINE
  8
0
 10
11.453
 11
11.395
 20
9.627
 21
9.448
  0
LINE
  8
0
 10
11.395
 11
11.314
 20
9.448
 21
9.277
  0
LINE
  8
0
 10
11.314
 11
11.214
 20
9.277
 21
9.118
  0
LINE
  8
0
 10
11.214
 11
11.093
 20
9.118
 21
8.973
  0
LINE
  8
0
 10
11.093
 11
10.956
 20
8.973
 21
8.844
  0
LINE
  8
0
 10
10.956
 11
10.804
 20
8.844
 21
8.734
  0
LINE
  8
0
 10
10.804
 11
10.639
 20
8.734
 21
8.643
  0
LINE
  8
0
 10
10.639
 11
10.464
 20
8.643
 21
8.573
  0
LINE
  8
0
 10
10.464
 11
10.281
 20
8.573
 21
8.527
  0
LINE
  8
0
 10
10.281
 11
10.094
 20
8.527
 21
8.503
  0
LINE
  8
0
 10
10.094
 11
9.906
 20
8.503
 21
8.503
  0
LINE
  8
0
 10
9.906
 11
9.719
 20
8.503
 21
8.527
  0
LINE
  8
0
 10
9.719
 11
9.536
 20
8.527
 21
8.573
  0
LINE
  8
0
 10
9.536
 11
9.361
 20
8.573
 21
8.643
  0
LINE
  8
0
 10
9.361
 11
9.196
 20
8.643
 21
8.734
  0
LINE
  8
0
 10
9.196
 11
9.044
 20
8.734
 21
8.844
  0
LINE
  8
0
 10
9.044
 11
8.907
 20
8.844
 21
8.973
  0
LINE
  8
0
 10
8.907
 11
8.786
 20
8.973
 21
9.118
  0
LINE
  8
0
 10
8.786
 11
8.686
 20
9.118
 21
9.277
  0
LINE
  8
0
 10
8.686
 11
8.605
 20
9.277
 21
9.448
  0
LINE
  8
0
 10
8.605
 11
8.547
 20
9.448
 21
9.627
  0
LINE
  8
0
 10
8.547
 11
8.512
 20
9.627
 21
9.812
  0
LINE
  8
0
 10
8.512
 11
8.5
 20
9.812
 21
10
  0
LINE
  8
0
 10
8.503
 11
8.503
 20
-10.094
 21
-9.906
  0
LINE
  8
0
 10
8.503
 11
8.527
 20
-9.906
 21
-9.719
  0
LINE
  8
0
 10
8.527
 11
8.573
 20
-9.719
 21
-9.536
  0
LINE
  8
0
 10
8.573
 11
8.643
 20
-9.536
 21
-9.361
  0
LINE
  8
0
 10
8.643
 11
8.734
 20
-9.361
 21
-9.196
  0
LINE
  8
0
 10
8.734
 11
8.844
 20
-9.196
 21
-9.044
  0
LINE
  8
0
 10
8.844
 11
8.973
 20
-9.044
 21
-8.907
  0
LINE
  8
0
 10
8.973
 11
9.118
 20
-8.907
 21
-8.786
  0
LINE
  8
0
 10
9.118
 11
9.277
 20
-8.786
 21
-8.686
  0
LINE
  8
0
 10
9.277
 11
9.448
 20
-8.686
 21
-8.605
  0
LINE
  8
0
 10
9.448
 11
9.627
 20
-8.605
 21
-8.547
  0
LINE
  8
0
 10
9.627
 11
9.812
 20
-8.547
 21
-8.512
  0
LINE
  8
0
 10
9.812
 11
10
 20
-8.512
 21
-8.5
  0
LINE
  8
0
 10
10
 11
10.188
 20
-8.5
 21
-8.512
  0
LINE
  8
0
 10
10.188
 11
10.373
 20
-8.512
 21
-8.547
  0
LINE
  8
0
 10
10.373
 11
10.552
 20
-8.547
 21
-8.605
  0
LINE
  8
0
 10
10.552
 11
10.723
 20
-8.605
 21
-8.686
  0
LINE
  8
0
 10
10.723
 11
10.882
 20
-8.686
 21
-8.786
  0
LINE
  8
0
 10
10.882
 11
11.027
 20
-8.786
 21
-8.907
  0
LINE
  8
0
 10
11.027
 11
11.156
 20
-8.907
 21
-9.044
  0
LINE
  8
0
 10
11.156
 11
11.266
 20
-9.044
 21
-9.196
  0
LINE
  8
0
 10
11.266
 11
11.357
 20
-9.196
 21
-9.361
  0
LINE
  8
0
 10
11.357
 11
11.427
 20
-9.361
 21
-9.536
  0
LINE
  8
0
 10
11.427
 11
11.473
 20
-9.536
 21
-9.719
  0
LINE
  8
0
 10
11.473
 11
11.497
 20
-9.719
 21
-9.906
  0
LINE
  8
0
 10
11.497
 11
11.497
 20
-9.906
 21
-10.094
  0
LINE
  8
0
 10
11.497
 11
11.473
 20
-10.094
 21
-10.281
  0
LINE
  8
0
 10
11.473
 11
11.427
 20
-10.281
 21
-10.464
  0
LINE
  8
0
 10
11.427
 11
11.357
 20
-10.464
 21
-10.639
  0
LINE
  8
0
 10
11.357
 11
11.266
 20
-10.639
 21
-10.804
  0
LINE
  8
0
 10
11.266
 11
11.156
 20
-10.804
 21
-10.956
  0
LINE
  8
0
 10
11.156
 11
11.027
 20
-10.956
 21
-11.093
  0
LINE
  8
0
 10
11.027
 11
10.882
 20
-11.093
 21
-11.214
  0
LINE
  8
0
 10
10.882
 11
10.723
 20
-11.214
 21
-11.314
  0
LINE
  8
0
 10
10.723
 11
10.552
 20
-11.314
 21
-11.395
  0
LINE
  8
0
 10
10.552
 11
10.373
 20
-11.395
 21
-11.453
  0
LINE
  8
0
 10
10.373
 11
10.188
 20
-11.453
 21
-11.488
  0
LINE
  8
0
 10
10.188
 11
10
 20
-11.488
 21
-11.5
  0
LINE
  8
0
 10
10
 11
9.812
 20
-11.5
 21
-11.488
  0
LINE
  8
0
 10
9.812
 11
9.627
 20
-11.488
 21
-11.453
  0
LINE
  8
0
 10
9.627
 11
9.448
 20
-11.453
 21
-11.395
  0
LINE
  8
0
 10
9.448
 11
9.277
 20
-11.395
 21
-11.314
  0
LINE
  8
0
 10
9.277
 11
9.118
 20
-11.314
 21
-11.214
  0
LINE
  8
0
 10
9.118
 11
8.973
 20
-11.214
 21
-11.093
  0
LINE
  8
0
 10
8.973
 11
8.844
 20
-11.093
 21
-10.956
  0
LINE
  8
0
 10
8.844
 11
8.734
 20
-10.956
 21
-10.804
  0
LINE
  8
0
 10
8.734
 11
8.643
 20
-10.804
 21
-10.639
  0
LINE
  8
0
 10
8.643
 11
8.573
 20
-10.639
 21
-10.464
  0
LINE
  8
0
 10
8.573
 11
8.527
 20
-10.464
 21
-10.281
  0
LINE
  8
0
 10
8.527
 11
8.503
 20
-10.281
 21
-10.094
  0
ENDSEC
  0
SECTION
  2
OBJECTS
  0
DICTIONARY
  0
ENDSEC
  0
EOF
