  0
SECTION
  2
BLOCKS
  0
ENDSEC
  0
SECTION
  2
ENTITIES
  0
LINE
  8
0
 10
-170
 20
30
 11
-170
 21
-30
  0
LINE
  8
0
 10
-170
 20
-30
 11
-150
 21
-30
  0
LINE
  8
0
 10
-150
 20
-30
 11
-150
 21
-34.9997
  0
LINE
  8
0
 10
-150
 20
-34.9997
 11
-130
 21
-34.9997
  0
LINE
  8
0
 10
-130
 20
-34.9997
 11
-130
 21
-30
  0
LINE
  8
0
 10
-130
 20
-30
 11
-110
 21
-30
  0
LINE
  8
0
 10
-110
 20
-30
 11
-110
 21
-34.9997
  0
LINE
  8
0
 10
-110
 20
-34.9997
 11
-90
 21
-34.9997
  0
LINE
  8
0
 10
-90
 20
-34.9997
 11
-90
 21
-30
  0
LINE
  8
0
 10
-90
 20
-30
 11
-70
 21
-30
  0
LINE
  8
0
 10
-70
 20
-30
 11
-70
 21
-34.9997
  0
LINE
  8
0
 10
-70
 20
-34.9997
 11
-50
 21
-34.9997
  0
LINE
  8
0
 10
-50
 20
-34.9997
 11
-50
 21
-30
  0
LINE
  8
0
 10
-50
 20
-30
 11
-30
 21
-30
  0
LINE
  8
0
 10
-30
 20
-30
 11
-30
 21
-34.9997
  0
LINE
  8
0
 10
-30
 20
-34.9997
 11
-10
 21
-34.9997
  0
LINE
  8
0
 10
-10
 20
-34.9997
 11
-10
 21
-30
  0
LINE
  8
0
 10
-10
 20
-30
 11
10
 21
-30
  0
LINE
  8
0
 10
10
 20
-30
 11
10
 21
-34.9997
  0
LINE
  8
0
 10
10
 20
-34.9997
 11
30
 21
-34.9997
  0
LINE
  8
0
 10
30
 20
-34.9997
 11
30
 21
-30
  0
LINE
  8
0
 10
30
 20
-30
 11
50
 21
-30
  0
LINE
  8
0
 10
50
 20
-30
 11
50
 21
-34.9997
  0
LINE
  8
0
 10
50
 20
-34.9997
 11
70
 21
-34.9997
  0
LINE
  8
0
 10
70
 20
-34.9997
 11
70
 21
-30
  0
LINE
  8
0
 10
70
 20
-30
 11
90
 21
-30
  0
LINE
  8
0
 10
90
 20
-30
 11
90
 21
-34.9997
  0
LINE
  8
0
 10
90
 20
-34.9997
 11
110
 21
-34.9997
  0
LINE
  8
0
 10
110
 20
-34.9997
 11
110
 21
-30
  0
LINE
  8
0
 10
110
 20
-30
 11
130
 21
-30
  0
LINE
  8
0
 10
130
 20
-30
 11
130
 21
-34.9997
  0
LINE
  8
0
 10
130
 20
-34.9997
 11
150
 21
-34.9997
  0
LINE
  8
0
 10
150
 20
-34.9997
 11
150
 21
-30
  0
LINE
  8
0
 10
150
 20
-30
 11
170
 21
-30
  0
LINE
  8
0
 10
170
 20
-30
 11
170
 21
30
  0
LINE
  8
0
 10
170
 20
30
 11
150
 21
30
  0
LINE
  8
0
 10
150
 20
30
 11
150
 21
40
  0
LINE
  8
0
 10
150
 20
40
 11
130
 21
40
  0
LINE
  8
0
 10
130
 20
40
 11
130
 21
30
  0
LINE
  8
0
 10
130
 20
30
 11
110
 21
30
  0
LINE
  8
0
 10
110
 20
30
 11
110
 21
40
  0
LINE
  8
0
 10
110
 20
40
 11
90
 21
40
  0
LINE
  8
0
 10
90
 20
40
 11
90
 21
30
  0
LINE
  8
0
 10
90
 20
30
 11
70
 21
30
  0
LINE
  8
0
 10
70
 20
30
 11
70
 21
40
  0
LINE
  8
0
 10
70
 20
40
 11
50
 21
40
  0
LINE
  8
0
 10
50
 20
40
 11
50
 21
30
  0
LINE
  8
0
 10
50
 20
30
 11
30
 21
30
  0
LINE
  8
0
 10
30
 20
30
 11
30
 21
40
  0
LINE
  8
0
 10
30
 20
40
 11
10
 21
40
  0
LINE
  8
0
 10
10
 20
40
 11
10
 21
30
  0
LINE
  8
0
 10
10
 20
30
 11
-10
 21
30
  0
LINE
  8
0
 10
-10
 20
30
 11
-10
 21
40
  0
LINE
  8
0
 10
-10
 20
40
 11
-30
 21
40
  0
LINE
  8
0
 10
-30
 20
40
 11
-30
 21
30
  0
LINE
  8
0
 10
-30
 20
30
 11
-50
 21
30
  0
LINE
  8
0
 10
-50
 20
30
 11
-50
 21
40
  0
LINE
  8
0
 10
-50
 20
40
 11
-70
 21
40
  0
LINE
  8
0
 10
-70
 20
40
 11
-70
 21
30
  0
LINE
  8
0
 10
-70
 20
30
 11
-90
 21
30
  0
LINE
  8
0
 10
-90
 20
30
 11
-90
 21
40
  0
LINE
  8
0
 10
-90
 20
40
 11
-110
 21
40
  0
LINE
  8
0
 10
-110
 20
40
 11
-110
 21
30
  0
LINE
  8
0
 10
-110
 20
30
 11
-130
 21
30
  0
LINE
  8
0
 10
-130
 20
30
 11
-130
 21
40
  0
LINE
  8
0
 10
-130
 20
40
 11
-150
 21
40
  0
LINE
  8
0
 10
-150
 20
40
 11
-150
 21
30
  0
LINE
  8
0
 10
-150
 20
30
 11
-170
 21
30
  0
LINE
  8
0
 10
-160.157
 20
17.5049
 11
-160.468
 21
17.5443
  0
LINE
  8
0
 10
-160.468
 20
17.5443
 11
-160.773
 21
17.6223
  0
LINE
  8
0
 10
-160.773
 20
17.6223
 11
-161.064
 21
17.7379
  0
LINE
  8
0
 10
-161.064
 20
17.7379
 11
-161.34
 21
17.8892
  0
LINE
  8
0
 10
-161.34
 20
17.8892
 11
-161.594
 21
18.0737
  0
LINE
  8
0
 10
-161.594
 20
18.0737
 11
-161.822
 21
18.2886
  0
LINE
  8
0
 10
-161.822
 20
18.2886
 11
-162.023
 21
18.5305
  0
LINE
  8
0
 10
-162.023
 20
18.5305
 11
-162.191
 21
18.7956
  0
LINE
  8
0
 10
-162.191
 20
18.7956
 11
-162.324
 21
19.0797
  0
LINE
  8
0
 10
-162.324
 20
19.0797
 11
-162.421
 21
19.3783
  0
LINE
  8
0
 10
-162.421
 20
19.3783
 11
-162.48
 21
19.6867
  0
LINE
  8
0
 10
-162.48
 20
19.6867
 11
-162.5
 21
20
  0
LINE
  8
0
 10
-162.5
 20
20
 11
-162.48
 21
20.3133
  0
LINE
  8
0
 10
-162.48
 20
20.3133
 11
-162.421
 21
20.6217
  0
LINE
  8
0
 10
-162.421
 20
20.6217
 11
-162.324
 21
20.9203
  0
LINE
  8
0
 10
-162.324
 20
20.9203
 11
-162.191
 21
21.2044
  0
LINE
  8
0
 10
-162.191
 20
21.2044
 11
-162.023
 21
21.4695
  0
LINE
  8
0
 10
-162.023
 20
21.4695
 11
-161.822
 21
21.7114
  0
LINE
  8
0
 10
-161.822
 20
21.7114
 11
-161.594
 21
21.9263
  0
LINE
  8
0
 10
-161.594
 20
21.9263
 11
-161.34
 21
22.1108
  0
LINE
  8
0
 10
-161.34
 20
22.1108
 11
-161.064
 21
22.2621
  0
LINE
  8
0
 10
-161.064
 20
22.2621
 11
-160.773
 21
22.3776
  0
LINE
  8
0
 10
-160.773
 20
22.3776
 11
-160.468
 21
22.4557
  0
LINE
  8
0
 10
-160.468
 20
22.4557
 11
-160.157
 21
22.4951
  0
LINE
  8
0
 10
-160.157
 20
22.4951
 11
-159.843
 21
22.4951
  0
LINE
  8
0
 10
-159.843
 20
22.4951
 11
-159.532
 21
22.4557
  0
LINE
  8
0
 10
-159.532
 20
22.4557
 11
-159.227
 21
22.3776
  0
LINE
  8
0
 10
-159.227
 20
22.3776
 11
-158.936
 21
22.2621
  0
LINE
  8
0
 10
-158.936
 20
22.2621
 11
-158.66
 21
22.1108
  0
LINE
  8
0
 10
-158.66
 20
22.1108
 11
-158.406
 21
21.9263
  0
LINE
  8
0
 10
-158.406
 20
21.9263
 11
-158.178
 21
21.7114
  0
LINE
  8
0
 10
-158.178
 20
21.7114
 11
-157.977
 21
21.4695
  0
LINE
  8
0
 10
-157.977
 20
21.4695
 11
-157.809
 21
21.2044
  0
LINE
  8
0
 10
-157.809
 20
21.2044
 11
-157.676
 21
20.9203
  0
LINE
  8
0
 10
-157.676
 20
20.9203
 11
-157.579
 21
20.6217
  0
LINE
  8
0
 10
-157.579
 20
20.6217
 11
-157.52
 21
20.3133
  0
LINE
  8
0
 10
-157.52
 20
20.3133
 11
-157.5
 21
20
  0
LINE
  8
0
 10
-157.5
 20
20
 11
-157.52
 21
19.6867
  0
LINE
  8
0
 10
-157.52
 20
19.6867
 11
-157.579
 21
19.3783
  0
LINE
  8
0
 10
-157.579
 20
19.3783
 11
-157.676
 21
19.0797
  0
LINE
  8
0
 10
-157.676
 20
19.0797
 11
-157.809
 21
18.7956
  0
LINE
  8
0
 10
-157.809
 20
18.7956
 11
-157.977
 21
18.5305
  0
LINE
  8
0
 10
-157.977
 20
18.5305
 11
-158.178
 21
18.2886
  0
LINE
  8
0
 10
-158.178
 20
18.2886
 11
-158.406
 21
18.0737
  0
LINE
  8
0
 10
-158.406
 20
18.0737
 11
-158.66
 21
17.8892
  0
LINE
  8
0
 10
-158.66
 20
17.8892
 11
-158.936
 21
17.7379
  0
LINE
  8
0
 10
-158.936
 20
17.7379
 11
-159.227
 21
17.6223
  0
LINE
  8
0
 10
-159.227
 20
17.6223
 11
-159.532
 21
17.5443
  0
LINE
  8
0
 10
-159.532
 20
17.5443
 11
-159.843
 21
17.5049
  0
LINE
  8
0
 10
-159.843
 20
17.5049
 11
-160.157
 21
17.5049
  0
LINE
  8
0
 10
159.843
 20
17.5049
 11
159.532
 21
17.5443
  0
LINE
  8
0
 10
159.532
 20
17.5443
 11
159.227
 21
17.6223
  0
LINE
  8
0
 10
159.227
 20
17.6223
 11
158.936
 21
17.7379
  0
LINE
  8
0
 10
158.936
 20
17.7379
 11
158.66
 21
17.8892
  0
LINE
  8
0
 10
158.66
 20
17.8892
 11
158.406
 21
18.0737
  0
LINE
  8
0
 10
158.406
 20
18.0737
 11
158.178
 21
18.2886
  0
LINE
  8
0
 10
158.178
 20
18.2886
 11
157.977
 21
18.5305
  0
LINE
  8
0
 10
157.977
 20
18.5305
 11
157.809
 21
18.7956
  0
LINE
  8
0
 10
157.809
 20
18.7956
 11
157.676
 21
19.0797
  0
LINE
  8
0
 10
157.676
 20
19.0797
 11
157.579
 21
19.3783
  0
LINE
  8
0
 10
157.579
 20
19.3783
 11
157.52
 21
19.6867
  0
LINE
  8
0
 10
157.52
 20
19.6867
 11
157.5
 21
20
  0
LINE
  8
0
 10
157.5
 20
20
 11
157.52
 21
20.3133
  0
LINE
  8
0
 10
157.52
 20
20.3133
 11
157.579
 21
20.6217
  0
LINE
  8
0
 10
157.579
 20
20.6217
 11
157.676
 21
20.9203
  0
LINE
  8
0
 10
157.676
 20
20.9203
 11
157.809
 21
21.2044
  0
LINE
  8
0
 10
157.809
 20
21.2044
 11
157.977
 21
21.4695
  0
LINE
  8
0
 10
157.977
 20
21.4695
 11
158.178
 21
21.7114
  0
LINE
  8
0
 10
158.178
 20
21.7114
 11
158.406
 21
21.9263
  0
LINE
  8
0
 10
158.406
 20
21.9263
 11
158.66
 21
22.1108
  0
LINE
  8
0
 10
158.66
 20
22.1108
 11
158.936
 21
22.2621
  0
LINE
  8
0
 10
158.936
 20
22.2621
 11
159.227
 21
22.3776
  0
LINE
  8
0
 10
159.227
 20
22.3776
 11
159.532
 21
22.4557
  0
LINE
  8
0
 10
159.532
 20
22.4557
 11
159.843
 21
22.4951
  0
LINE
  8
0
 10
159.843
 20
22.4951
 11
160.157
 21
22.4951
  0
LINE
  8
0
 10
160.157
 20
22.4951
 11
160.468
 21
22.4557
  0
LINE
  8
0
 10
160.468
 20
22.4557
 11
160.773
 21
22.3776
  0
LINE
  8
0
 10
160.773
 20
22.3776
 11
161.064
 21
22.2621
  0
LINE
  8
0
 10
161.064
 20
22.2621
 11
161.34
 21
22.1108
  0
LINE
  8
0
 10
161.34
 20
22.1108
 11
161.594
 21
21.9263
  0
LINE
  8
0
 10
161.594
 20
21.9263
 11
161.822
 21
21.7114
  0
LINE
  8
0
 10
161.822
 20
21.7114
 11
162.023
 21
21.4695
  0
LINE
  8
0
 10
162.023
 20
21.4695
 11
162.191
 21
21.2044
  0
LINE
  8
0
 10
162.191
 20
21.2044
 11
162.324
 21
20.9203
  0
LINE
  8
0
 10
162.324
 20
20.9203
 11
162.421
 21
20.6217
  0
LINE
  8
0
 10
162.421
 20
20.6217
 11
162.48
 21
20.3133
  0
LINE
  8
0
 10
162.48
 20
20.3133
 11
162.5
 21
20
  0
LINE
  8
0
 10
162.5
 20
20
 11
162.48
 21
19.6867
  0
LINE
  8
0
 10
162.48
 20
19.6867
 11
162.421
 21
19.3783
  0
LINE
  8
0
 10
162.421
 20
19.3783
 11
162.324
 21
19.0797
  0
LINE
  8
0
 10
162.324
 20
19.0797
 11
162.191
 21
18.7956
  0
LINE
  8
0
 10
162.191
 20
18.7956
 11
162.023
 21
18.5305
  0
LINE
  8
0
 10
162.023
 20
18.5305
 11
161.822
 21
18.2886
  0
LINE
  8
0
 10
161.822
 20
18.2886
 11
161.594
 21
18.0737
  0
LINE
  8
0
 10
161.594
 20
18.0737
 11
161.34
 21
17.8892
  0
LINE
  8
0
 10
161.34
 20
17.8892
 11
161.064
 21
17.7379
  0
LINE
  8
0
 10
161.064
 20
17.7379
 11
160.773
 21
17.6223
  0
LINE
  8
0
 10
160.773
 20
17.6223
 11
160.468
 21
17.5443
  0
LINE
  8
0
 10
160.468
 20
17.5443
 11
160.157
 21
17.5049
  0
LINE
  8
0
 10
160.157
 20
17.5049
 11
159.843
 21
17.5049
  0
LINE
  8
0
 10
159.843
 20
-22.4951
 11
159.532
 21
-22.4557
  0
LINE
  8
0
 10
159.532
 20
-22.4557
 11
159.227
 21
-22.3776
  0
LINE
  8
0
 10
159.227
 20
-22.3776
 11
158.936
 21
-22.2621
  0
LINE
  8
0
 10
158.936
 20
-22.2621
 11
158.66
 21
-22.1108
  0
LINE
  8
0
 10
158.66
 20
-22.1108
 11
158.406
 21
-21.9263
  0
LINE
  8
0
 10
158.406
 20
-21.9263
 11
158.178
 21
-21.7114
  0
LINE
  8
0
 10
158.178
 20
-21.7114
 11
157.977
 21
-21.4695
  0
LINE
  8
0
 10
157.977
 20
-21.4695
 11
157.809
 21
-21.2044
  0
LINE
  8
0
 10
157.809
 20
-21.2044
 11
157.676
 21
-20.9203
  0
LINE
  8
0
 10
157.676
 20
-20.9203
 11
157.579
 21
-20.6217
  0
LINE
  8
0
 10
157.579
 20
-20.6217
 11
157.52
 21
-20.3133
  0
LINE
  8
0
 10
157.52
 20
-20.3133
 11
157.5
 21
-20
  0
LINE
  8
0
 10
157.5
 20
-20
 11
157.52
 21
-19.6867
  0
LINE
  8
0
 10
157.52
 20
-19.6867
 11
157.579
 21
-19.3783
  0
LINE
  8
0
 10
157.579
 20
-19.3783
 11
157.676
 21
-19.0797
  0
LINE
  8
0
 10
157.676
 20
-19.0797
 11
157.809
 21
-18.7956
  0
LINE
  8
0
 10
157.809
 20
-18.7956
 11
157.977
 21
-18.5305
  0
LINE
  8
0
 10
157.977
 20
-18.5305
 11
158.178
 21
-18.2886
  0
LINE
  8
0
 10
158.178
 20
-18.2886
 11
158.406
 21
-18.0737
  0
LINE
  8
0
 10
158.406
 20
-18.0737
 11
158.66
 21
-17.8892
  0
LINE
  8
0
 10
158.66
 20
-17.8892
 11
158.936
 21
-17.7379
  0
LINE
  8
0
 10
158.936
 20
-17.7379
 11
159.227
 21
-17.6223
  0
LINE
  8
0
 10
159.227
 20
-17.6223
 11
159.532
 21
-17.5443
  0
LINE
  8
0
 10
159.532
 20
-17.5443
 11
159.843
 21
-17.5049
  0
LINE
  8
0
 10
159.843
 20
-17.5049
 11
160.157
 21
-17.5049
  0
LINE
  8
0
 10
160.157
 20
-17.5049
 11
160.468
 21
-17.5443
  0
LINE
  8
0
 10
160.468
 20
-17.5443
 11
160.773
 21
-17.6223
  0
LINE
  8
0
 10
160.773
 20
-17.6223
 11
161.064
 21
-17.7379
  0
LINE
  8
0
 10
161.064
 20
-17.7379
 11
161.34
 21
-17.8892
  0
LINE
  8
0
 10
161.34
 20
-17.8892
 11
161.594
 21
-18.0737
  0
LINE
  8
0
 10
161.594
 20
-18.0737
 11
161.822
 21
-18.2886
  0
LINE
  8
0
 10
161.822
 20
-18.2886
 11
162.023
 21
-18.5305
  0
LINE
  8
0
 10
162.023
 20
-18.5305
 11
162.191
 21
-18.7956
  0
LINE
  8
0
 10
162.191
 20
-18.7956
 11
162.324
 21
-19.0797
  0
LINE
  8
0
 10
162.324
 20
-19.0797
 11
162.421
 21
-19.3783
  0
LINE
  8
0
 10
162.421
 20
-19.3783
 11
162.48
 21
-19.6867
  0
LINE
  8
0
 10
162.48
 20
-19.6867
 11
162.5
 21
-20
  0
LINE
  8
0
 10
162.5
 20
-20
 11
162.48
 21
-20.3133
  0
LINE
  8
0
 10
162.48
 20
-20.3133
 11
162.421
 21
-20.6217
  0
LINE
  8
0
 10
162.421
 20
-20.6217
 11
162.324
 21
-20.9203
  0
LINE
  8
0
 10
162.324
 20
-20.9203
 11
162.191
 21
-21.2044
  0
LINE
  8
0
 10
162.191
 20
-21.2044
 11
162.023
 21
-21.4695
  0
LINE
  8
0
 10
162.023
 20
-21.4695
 11
161.822
 21
-21.7114
  0
LINE
  8
0
 10
161.822
 20
-21.7114
 11
161.594
 21
-21.9263
  0
LINE
  8
0
 10
161.594
 20
-21.9263
 11
161.34
 21
-22.1108
  0
LINE
  8
0
 10
161.34
 20
-22.1108
 11
161.064
 21
-22.2621
  0
LINE
  8
0
 10
161.064
 20
-22.2621
 11
160.773
 21
-22.3776
  0
LINE
  8
0
 10
160.773
 20
-22.3776
 11
160.468
 21
-22.4557
  0
LINE
  8
0
 10
160.468
 20
-22.4557
 11
160.157
 21
-22.4951
  0
LINE
  8
0
 10
160.157
 20
-22.4951
 11
159.843
 21
-22.4951
  0
LINE
  8
0
 10
-160.157
 20
-22.4951
 11
-160.468
 21
-22.4557
  0
LINE
  8
0
 10
-160.468
 20
-22.4557
 11
-160.773
 21
-22.3776
  0
LINE
  8
0
 10
-160.773
 20
-22.3776
 11
-161.064
 21
-22.2621
  0
LINE
  8
0
 10
-161.064
 20
-22.2621
 11
-161.34
 21
-22.1108
  0
LINE
  8
0
 10
-161.34
 20
-22.1108
 11
-161.594
 21
-21.9263
  0
LINE
  8
0
 10
-161.594
 20
-21.9263
 11
-161.822
 21
-21.7114
  0
LINE
  8
0
 10
-161.822
 20
-21.7114
 11
-162.023
 21
-21.4695
  0
LINE
  8
0
 10
-162.023
 20
-21.4695
 11
-162.191
 21
-21.2044
  0
LINE
  8
0
 10
-162.191
 20
-21.2044
 11
-162.324
 21
-20.9203
  0
LINE
  8
0
 10
-162.324
 20
-20.9203
 11
-162.421
 21
-20.6217
  0
LINE
  8
0
 10
-162.421
 20
-20.6217
 11
-162.48
 21
-20.3133
  0
LINE
  8
0
 10
-162.48
 20
-20.3133
 11
-162.5
 21
-20
  0
LINE
  8
0
 10
-162.5
 20
-20
 11
-162.48
 21
-19.6867
  0
LINE
  8
0
 10
-162.48
 20
-19.6867
 11
-162.421
 21
-19.3783
  0
LINE
  8
0
 10
-162.421
 20
-19.3783
 11
-162.324
 21
-19.0797
  0
LINE
  8
0
 10
-162.324
 20
-19.0797
 11
-162.191
 21
-18.7956
  0
LINE
  8
0
 10
-162.191
 20
-18.7956
 11
-162.023
 21
-18.5305
  0
LINE
  8
0
 10
-162.023
 20
-18.5305
 11
-161.822
 21
-18.2886
  0
LINE
  8
0
 10
-161.822
 20
-18.2886
 11
-161.594
 21
-18.0737
  0
LINE
  8
0
 10
-161.594
 20
-18.0737
 11
-161.34
 21
-17.8892
  0
LINE
  8
0
 10
-161.34
 20
-17.8892
 11
-161.064
 21
-17.7379
  0
LINE
  8
0
 10
-161.064
 20
-17.7379
 11
-160.773
 21
-17.6223
  0
LINE
  8
0
 10
-160.773
 20
-17.6223
 11
-160.468
 21
-17.5443
  0
LINE
  8
0
 10
-160.468
 20
-17.5443
 11
-160.157
 21
-17.5049
  0
LINE
  8
0
 10
-160.157
 20
-17.5049
 11
-159.843
 21
-17.5049
  0
LINE
  8
0
 10
-159.843
 20
-17.5049
 11
-159.532
 21
-17.5443
  0
LINE
  8
0
 10
-159.532
 20
-17.5443
 11
-159.227
 21
-17.6223
  0
LINE
  8
0
 10
-159.227
 20
-17.6223
 11
-158.936
 21
-17.7379
  0
LINE
  8
0
 10
-158.936
 20
-17.7379
 11
-158.66
 21
-17.8892
  0
LINE
  8
0
 10
-158.66
 20
-17.8892
 11
-158.406
 21
-18.0737
  0
LINE
  8
0
 10
-158.406
 20
-18.0737
 11
-158.178
 21
-18.2886
  0
LINE
  8
0
 10
-158.178
 20
-18.2886
 11
-157.977
 21
-18.5305
  0
LINE
  8
0
 10
-157.977
 20
-18.5305
 11
-157.809
 21
-18.7956
  0
LINE
  8
0
 10
-157.809
 20
-18.7956
 11
-157.676
 21
-19.0797
  0
LINE
  8
0
 10
-157.676
 20
-19.0797
 11
-157.579
 21
-19.3783
  0
LINE
  8
0
 10
-157.579
 20
-19.3783
 11
-157.52
 21
-19.6867
  0
LINE
  8
0
 10
-157.52
 20
-19.6867
 11
-157.5
 21
-20
  0
LINE
  8
0
 10
-157.5
 20
-20
 11
-157.52
 21
-20.3133
  0
LINE
  8
0
 10
-157.52
 20
-20.3133
 11
-157.579
 21
-20.6217
  0
LINE
  8
0
 10
-157.579
 20
-20.6217
 11
-157.676
 21
-20.9203
  0
LINE
  8
0
 10
-157.676
 20
-20.9203
 11
-157.809
 21
-21.2044
  0
LINE
  8
0
 10
-157.809
 20
-21.2044
 11
-157.977
 21
-21.4695
  0
LINE
  8
0
 10
-157.977
 20
-21.4695
 11
-158.178
 21
-21.7114
  0
LINE
  8
0
 10
-158.178
 20
-21.7114
 11
-158.406
 21
-21.9263
  0
LINE
  8
0
 10
-158.406
 20
-21.9263
 11
-158.66
 21
-22.1108
  0
LINE
  8
0
 10
-158.66
 20
-22.1108
 11
-158.936
 21
-22.2621
  0
LINE
  8
0
 10
-158.936
 20
-22.2621
 11
-159.227
 21
-22.3776
  0
LINE
  8
0
 10
-159.227
 20
-22.3776
 11
-159.532
 21
-22.4557
  0
LINE
  8
0
 10
-159.532
 20
-22.4557
 11
-159.843
 21
-22.4951
  0
LINE
  8
0
 10
-159.843
 20
-22.4951
 11
-160.157
 21
-22.4951
  0
ENDSEC
  0
SECTION
  2
OBJECTS
  0
DICTIONARY
  0
ENDSEC
  0
EOF
