  0
SECTION
  2
BLOCKS
  0
ENDSEC
  0
SECTION
  2
ENTITIES
  0
LINE
  8
0
 10
175
 20
20
 11
-175
 21
20
  0
LINE
  8
0
 10
-175
 20
20
 11
-175
 21
-20
  0
LINE
  8
0
 10
-175
 20
-20
 11
175
 21
-20
  0
LINE
  8
0
 10
175
 20
-20
 11
175
 21
20
  0
LINE
  8
0
 10
130
 20
10
 11
130
 21
15
  0
LINE
  8
0
 10
130
 20
15
 11
150
 21
15
  0
LINE
  8
0
 10
150
 20
15
 11
150
 21
10
  0
LINE
  8
0
 10
150
 20
10
 11
130
 21
10
  0
LINE
  8
0
 10
-30
 20
10
 11
-30
 21
15
  0
LINE
  8
0
 10
-30
 20
15
 11
-10
 21
15
  0
LINE
  8
0
 10
-10
 20
15
 11
-10
 21
10
  0
LINE
  8
0
 10
-10
 20
10
 11
-30
 21
10
  0
LINE
  8
0
 10
-70
 20
10
 11
-70
 21
15
  0
LINE
  8
0
 10
-70
 20
15
 11
-50
 21
15
  0
LINE
  8
0
 10
-50
 20
15
 11
-50
 21
10
  0
LINE
  8
0
 10
-50
 20
10
 11
-70
 21
10
  0
LINE
  8
0
 10
-110
 20
10
 11
-110
 21
15
  0
LINE
  8
0
 10
-110
 20
15
 11
-90
 21
15
  0
LINE
  8
0
 10
-90
 20
15
 11
-90
 21
10
  0
LINE
  8
0
 10
-90
 20
10
 11
-110
 21
10
  0
LINE
  8
0
 10
-150
 20
10
 11
-150
 21
15
  0
LINE
  8
0
 10
-150
 20
15
 11
-130
 21
15
  0
LINE
  8
0
 10
-130
 20
15
 11
-130
 21
10
  0
LINE
  8
0
 10
-130
 20
10
 11
-150
 21
10
  0
LINE
  8
0
 10
10
 20
10
 11
10
 21
15
  0
LINE
  8
0
 10
10
 20
15
 11
30
 21
15
  0
LINE
  8
0
 10
30
 20
15
 11
30
 21
10
  0
LINE
  8
0
 10
30
 20
10
 11
10
 21
10
  0
LINE
  8
0
 10
50
 20
10
 11
50
 21
15
  0
LINE
  8
0
 10
50
 20
15
 11
70
 21
15
  0
LINE
  8
0
 10
70
 20
15
 11
70
 21
10
  0
LINE
  8
0
 10
70
 20
10
 11
50
 21
10
  0
LINE
  8
0
 10
90
 20
10
 11
90
 21
15
  0
LINE
  8
0
 10
90
 20
15
 11
110
 21
15
  0
LINE
  8
0
 10
110
 20
15
 11
110
 21
10
  0
LINE
  8
0
 10
110
 20
10
 11
90
 21
10
  0
LINE
  8
0
 10
159.843
 20
-2.49506
 11
159.532
 21
-2.4557
  0
LINE
  8
0
 10
159.532
 20
-2.4557
 11
159.227
 21
-2.37764
  0
LINE
  8
0
 10
159.227
 20
-2.37764
 11
158.936
 21
-2.26205
  0
LINE
  8
0
 10
158.936
 20
-2.26205
 11
158.66
 21
-2.11081
  0
LINE
  8
0
 10
158.66
 20
-2.11081
 11
158.406
 21
-1.92627
  0
LINE
  8
0
 10
158.406
 20
-1.92627
 11
158.178
 21
-1.71136
  0
LINE
  8
0
 10
158.178
 20
-1.71136
 11
157.977
 21
-1.46945
  0
LINE
  8
0
 10
157.977
 20
-1.46945
 11
157.809
 21
-1.20438
  0
LINE
  8
0
 10
157.809
 20
-1.20438
 11
157.676
 21
-0.920303
  0
LINE
  8
0
 10
157.676
 20
-0.920303
 11
157.579
 21
-0.621719
  0
LINE
  8
0
 10
157.579
 20
-0.621719
 11
157.52
 21
-0.313324
  0
LINE
  8
0
 10
157.52
 20
-0.313324
 11
157.5
 21
0
  0
LINE
  8
0
 10
157.5
 20
0
 11
157.52
 21
0.313324
  0
LINE
  8
0
 10
157.52
 20
0.313324
 11
157.579
 21
0.621719
  0
LINE
  8
0
 10
157.579
 20
0.621719
 11
157.676
 21
0.920303
  0
LINE
  8
0
 10
157.676
 20
0.920303
 11
157.809
 21
1.20438
  0
LINE
  8
0
 10
157.809
 20
1.20438
 11
157.977
 21
1.46945
  0
LINE
  8
0
 10
157.977
 20
1.46945
 11
158.178
 21
1.71136
  0
LINE
  8
0
 10
158.178
 20
1.71136
 11
158.406
 21
1.92627
  0
LINE
  8
0
 10
158.406
 20
1.92627
 11
158.66
 21
2.11081
  0
LINE
  8
0
 10
158.66
 20
2.11081
 11
158.936
 21
2.26205
  0
LINE
  8
0
 10
158.936
 20
2.26205
 11
159.227
 21
2.37764
  0
LINE
  8
0
 10
159.227
 20
2.37764
 11
159.532
 21
2.4557
  0
LINE
  8
0
 10
159.532
 20
2.4557
 11
159.843
 21
2.49506
  0
LINE
  8
0
 10
159.843
 20
2.49506
 11
160.157
 21
2.49506
  0
LINE
  8
0
 10
160.157
 20
2.49506
 11
160.468
 21
2.4557
  0
LINE
  8
0
 10
160.468
 20
2.4557
 11
160.773
 21
2.37764
  0
LINE
  8
0
 10
160.773
 20
2.37764
 11
161.064
 21
2.26205
  0
LINE
  8
0
 10
161.064
 20
2.26205
 11
161.34
 21
2.11081
  0
LINE
  8
0
 10
161.34
 20
2.11081
 11
161.594
 21
1.92627
  0
LINE
  8
0
 10
161.594
 20
1.92627
 11
161.822
 21
1.71136
  0
LINE
  8
0
 10
161.822
 20
1.71136
 11
162.023
 21
1.46945
  0
LINE
  8
0
 10
162.023
 20
1.46945
 11
162.191
 21
1.20438
  0
LINE
  8
0
 10
162.191
 20
1.20438
 11
162.324
 21
0.920303
  0
LINE
  8
0
 10
162.324
 20
0.920303
 11
162.421
 21
0.621719
  0
LINE
  8
0
 10
162.421
 20
0.621719
 11
162.48
 21
0.313324
  0
LINE
  8
0
 10
162.48
 20
0.313324
 11
162.5
 21
0
  0
LINE
  8
0
 10
162.5
 20
0
 11
162.48
 21
-0.313324
  0
LINE
  8
0
 10
162.48
 20
-0.313324
 11
162.421
 21
-0.621719
  0
LINE
  8
0
 10
162.421
 20
-0.621719
 11
162.324
 21
-0.920303
  0
LINE
  8
0
 10
162.324
 20
-0.920303
 11
162.191
 21
-1.20438
  0
LINE
  8
0
 10
162.191
 20
-1.20438
 11
162.023
 21
-1.46945
  0
LINE
  8
0
 10
162.023
 20
-1.46945
 11
161.822
 21
-1.71136
  0
LINE
  8
0
 10
161.822
 20
-1.71136
 11
161.594
 21
-1.92627
  0
LINE
  8
0
 10
161.594
 20
-1.92627
 11
161.34
 21
-2.11081
  0
LINE
  8
0
 10
161.34
 20
-2.11081
 11
161.064
 21
-2.26205
  0
LINE
  8
0
 10
161.064
 20
-2.26205
 11
160.773
 21
-2.37764
  0
LINE
  8
0
 10
160.773
 20
-2.37764
 11
160.468
 21
-2.4557
  0
LINE
  8
0
 10
160.468
 20
-2.4557
 11
160.157
 21
-2.49506
  0
LINE
  8
0
 10
160.157
 20
-2.49506
 11
159.843
 21
-2.49506
  0
LINE
  8
0
 10
-160.157
 20
-2.49506
 11
-160.468
 21
-2.4557
  0
LINE
  8
0
 10
-160.468
 20
-2.4557
 11
-160.773
 21
-2.37764
  0
LINE
  8
0
 10
-160.773
 20
-2.37764
 11
-161.064
 21
-2.26205
  0
LINE
  8
0
 10
-161.064
 20
-2.26205
 11
-161.34
 21
-2.11081
  0
LINE
  8
0
 10
-161.34
 20
-2.11081
 11
-161.594
 21
-1.92627
  0
LINE
  8
0
 10
-161.594
 20
-1.92627
 11
-161.822
 21
-1.71136
  0
LINE
  8
0
 10
-161.822
 20
-1.71136
 11
-162.023
 21
-1.46945
  0
LINE
  8
0
 10
-162.023
 20
-1.46945
 11
-162.191
 21
-1.20438
  0
LINE
  8
0
 10
-162.191
 20
-1.20438
 11
-162.324
 21
-0.920303
  0
LINE
  8
0
 10
-162.324
 20
-0.920303
 11
-162.421
 21
-0.621719
  0
LINE
  8
0
 10
-162.421
 20
-0.621719
 11
-162.48
 21
-0.313324
  0
LINE
  8
0
 10
-162.48
 20
-0.313324
 11
-162.5
 21
0
  0
LINE
  8
0
 10
-162.5
 20
0
 11
-162.48
 21
0.313324
  0
LINE
  8
0
 10
-162.48
 20
0.313324
 11
-162.421
 21
0.621719
  0
LINE
  8
0
 10
-162.421
 20
0.621719
 11
-162.324
 21
0.920303
  0
LINE
  8
0
 10
-162.324
 20
0.920303
 11
-162.191
 21
1.20438
  0
LINE
  8
0
 10
-162.191
 20
1.20438
 11
-162.023
 21
1.46945
  0
LINE
  8
0
 10
-162.023
 20
1.46945
 11
-161.822
 21
1.71136
  0
LINE
  8
0
 10
-161.822
 20
1.71136
 11
-161.594
 21
1.92627
  0
LINE
  8
0
 10
-161.594
 20
1.92627
 11
-161.34
 21
2.11081
  0
LINE
  8
0
 10
-161.34
 20
2.11081
 11
-161.064
 21
2.26205
  0
LINE
  8
0
 10
-161.064
 20
2.26205
 11
-160.773
 21
2.37764
  0
LINE
  8
0
 10
-160.773
 20
2.37764
 11
-160.468
 21
2.4557
  0
LINE
  8
0
 10
-160.468
 20
2.4557
 11
-160.157
 21
2.49506
  0
LINE
  8
0
 10
-160.157
 20
2.49506
 11
-159.843
 21
2.49506
  0
LINE
  8
0
 10
-159.843
 20
2.49506
 11
-159.532
 21
2.4557
  0
LINE
  8
0
 10
-159.532
 20
2.4557
 11
-159.227
 21
2.37764
  0
LINE
  8
0
 10
-159.227
 20
2.37764
 11
-158.936
 21
2.26205
  0
LINE
  8
0
 10
-158.936
 20
2.26205
 11
-158.66
 21
2.11081
  0
LINE
  8
0
 10
-158.66
 20
2.11081
 11
-158.406
 21
1.92627
  0
LINE
  8
0
 10
-158.406
 20
1.92627
 11
-158.178
 21
1.71136
  0
LINE
  8
0
 10
-158.178
 20
1.71136
 11
-157.977
 21
1.46945
  0
LINE
  8
0
 10
-157.977
 20
1.46945
 11
-157.809
 21
1.20438
  0
LINE
  8
0
 10
-157.809
 20
1.20438
 11
-157.676
 21
0.920303
  0
LINE
  8
0
 10
-157.676
 20
0.920303
 11
-157.579
 21
0.621719
  0
LINE
  8
0
 10
-157.579
 20
0.621719
 11
-157.52
 21
0.313324
  0
LINE
  8
0
 10
-157.52
 20
0.313324
 11
-157.5
 21
0
  0
LINE
  8
0
 10
-157.5
 20
0
 11
-157.52
 21
-0.313324
  0
LINE
  8
0
 10
-157.52
 20
-0.313324
 11
-157.579
 21
-0.621719
  0
LINE
  8
0
 10
-157.579
 20
-0.621719
 11
-157.676
 21
-0.920303
  0
LINE
  8
0
 10
-157.676
 20
-0.920303
 11
-157.809
 21
-1.20438
  0
LINE
  8
0
 10
-157.809
 20
-1.20438
 11
-157.977
 21
-1.46945
  0
LINE
  8
0
 10
-157.977
 20
-1.46945
 11
-158.178
 21
-1.71136
  0
LINE
  8
0
 10
-158.178
 20
-1.71136
 11
-158.406
 21
-1.92627
  0
LINE
  8
0
 10
-158.406
 20
-1.92627
 11
-158.66
 21
-2.11081
  0
LINE
  8
0
 10
-158.66
 20
-2.11081
 11
-158.936
 21
-2.26205
  0
LINE
  8
0
 10
-158.936
 20
-2.26205
 11
-159.227
 21
-2.37764
  0
LINE
  8
0
 10
-159.227
 20
-2.37764
 11
-159.532
 21
-2.4557
  0
LINE
  8
0
 10
-159.532
 20
-2.4557
 11
-159.843
 21
-2.49506
  0
LINE
  8
0
 10
-159.843
 20
-2.49506
 11
-160.157
 21
-2.49506
  0
LINE
  8
0
 10
-30
 20
-14.9999
 11
-30
 21
-9.99986
  0
LINE
  8
0
 10
-30
 20
-9.99986
 11
-10
 21
-9.99986
  0
LINE
  8
0
 10
-10
 20
-9.99986
 11
-10
 21
-14.9999
  0
LINE
  8
0
 10
-10
 20
-14.9999
 11
-30
 21
-14.9999
  0
LINE
  8
0
 10
-70
 20
-14.9999
 11
-70
 21
-9.99986
  0
LINE
  8
0
 10
-70
 20
-9.99986
 11
-50
 21
-9.99986
  0
LINE
  8
0
 10
-50
 20
-9.99986
 11
-50
 21
-14.9999
  0
LINE
  8
0
 10
-50
 20
-14.9999
 11
-70
 21
-14.9999
  0
LINE
  8
0
 10
-110
 20
-14.9999
 11
-110
 21
-9.99986
  0
LINE
  8
0
 10
-110
 20
-9.99986
 11
-90
 21
-9.99986
  0
LINE
  8
0
 10
-90
 20
-9.99986
 11
-90
 21
-14.9999
  0
LINE
  8
0
 10
-90
 20
-14.9999
 11
-110
 21
-14.9999
  0
LINE
  8
0
 10
-150
 20
-14.9999
 11
-150
 21
-9.99986
  0
LINE
  8
0
 10
-150
 20
-9.99986
 11
-130
 21
-9.99986
  0
LINE
  8
0
 10
-130
 20
-9.99986
 11
-130
 21
-14.9999
  0
LINE
  8
0
 10
-130
 20
-14.9999
 11
-150
 21
-14.9999
  0
LINE
  8
0
 10
10
 20
-14.9999
 11
10
 21
-9.99986
  0
LINE
  8
0
 10
10
 20
-9.99986
 11
30
 21
-9.99986
  0
LINE
  8
0
 10
30
 20
-9.99986
 11
30
 21
-14.9999
  0
LINE
  8
0
 10
30
 20
-14.9999
 11
10
 21
-14.9999
  0
LINE
  8
0
 10
50
 20
-14.9999
 11
50
 21
-9.99986
  0
LINE
  8
0
 10
50
 20
-9.99986
 11
70
 21
-9.99986
  0
LINE
  8
0
 10
70
 20
-9.99986
 11
70
 21
-14.9999
  0
LINE
  8
0
 10
70
 20
-14.9999
 11
50
 21
-14.9999
  0
LINE
  8
0
 10
90
 20
-14.9999
 11
90
 21
-9.99986
  0
LINE
  8
0
 10
90
 20
-9.99986
 11
110
 21
-9.99986
  0
LINE
  8
0
 10
110
 20
-9.99986
 11
110
 21
-14.9999
  0
LINE
  8
0
 10
110
 20
-14.9999
 11
90
 21
-14.9999
  0
LINE
  8
0
 10
130
 20
-14.9999
 11
130
 21
-9.99986
  0
LINE
  8
0
 10
130
 20
-9.99986
 11
150
 21
-9.99986
  0
LINE
  8
0
 10
150
 20
-9.99986
 11
150
 21
-14.9999
  0
LINE
  8
0
 10
150
 20
-14.9999
 11
130
 21
-14.9999
  0
ENDSEC
  0
SECTION
  2
OBJECTS
  0
DICTIONARY
  0
ENDSEC
  0
EOF
