  0
SECTION
  2
BLOCKS
  0
ENDSEC
  0
SECTION
  2
ENTITIES
  0
LINE
  8
0
 10
213
 20
20
 11
-213
 21
20
  0
LINE
  8
0
 10
-213
 20
20
 11
-213
 21
-20
  0
LINE
  8
0
 10
-213
 20
-20
 11
213
 21
-20
  0
LINE
  8
0
 10
213
 20
-20
 11
213
 21
20
  0
LINE
  8
0
 10
206.906
 20
14.003
 11
206.719
 21
14.0266
  0
LINE
  8
0
 10
206.719
 20
14.0266
 11
206.536
 21
14.0734
  0
LINE
  8
0
 10
206.536
 20
14.0734
 11
206.361
 21
14.1428
  0
LINE
  8
0
 10
206.361
 20
14.1428
 11
206.196
 21
14.2335
  0
LINE
  8
0
 10
206.196
 20
14.2335
 11
206.044
 21
14.3442
  0
LINE
  8
0
 10
206.044
 20
14.3442
 11
205.907
 21
14.4732
  0
LINE
  8
0
 10
205.907
 20
14.4732
 11
205.786
 21
14.6183
  0
LINE
  8
0
 10
205.786
 20
14.6183
 11
205.686
 21
14.7774
  0
LINE
  8
0
 10
205.686
 20
14.7774
 11
205.605
 21
14.9478
  0
LINE
  8
0
 10
205.605
 20
14.9478
 11
205.547
 21
15.127
  0
LINE
  8
0
 10
205.547
 20
15.127
 11
205.512
 21
15.312
  0
LINE
  8
0
 10
205.512
 20
15.312
 11
205.5
 21
15.5
  0
LINE
  8
0
 10
205.5
 20
15.5
 11
205.512
 21
15.688
  0
LINE
  8
0
 10
205.512
 20
15.688
 11
205.547
 21
15.873
  0
LINE
  8
0
 10
205.547
 20
15.873
 11
205.605
 21
16.0522
  0
LINE
  8
0
 10
205.605
 20
16.0522
 11
205.686
 21
16.2226
  0
LINE
  8
0
 10
205.686
 20
16.2226
 11
205.786
 21
16.3817
  0
LINE
  8
0
 10
205.786
 20
16.3817
 11
205.907
 21
16.5268
  0
LINE
  8
0
 10
205.907
 20
16.5268
 11
206.044
 21
16.6558
  0
LINE
  8
0
 10
206.044
 20
16.6558
 11
206.196
 21
16.7665
  0
LINE
  8
0
 10
206.196
 20
16.7665
 11
206.361
 21
16.8572
  0
LINE
  8
0
 10
206.361
 20
16.8572
 11
206.536
 21
16.9266
  0
LINE
  8
0
 10
206.536
 20
16.9266
 11
206.719
 21
16.9734
  0
LINE
  8
0
 10
206.719
 20
16.9734
 11
206.906
 21
16.997
  0
LINE
  8
0
 10
206.906
 20
16.997
 11
207.094
 21
16.997
  0
LINE
  8
0
 10
207.094
 20
16.997
 11
207.281
 21
16.9734
  0
LINE
  8
0
 10
207.281
 20
16.9734
 11
207.464
 21
16.9266
  0
LINE
  8
0
 10
207.464
 20
16.9266
 11
207.639
 21
16.8572
  0
LINE
  8
0
 10
207.639
 20
16.8572
 11
207.804
 21
16.7665
  0
LINE
  8
0
 10
207.804
 20
16.7665
 11
207.956
 21
16.6558
  0
LINE
  8
0
 10
207.956
 20
16.6558
 11
208.093
 21
16.5268
  0
LINE
  8
0
 10
208.093
 20
16.5268
 11
208.214
 21
16.3817
  0
LINE
  8
0
 10
208.214
 20
16.3817
 11
208.314
 21
16.2226
  0
LINE
  8
0
 10
208.314
 20
16.2226
 11
208.395
 21
16.0522
  0
LINE
  8
0
 10
208.395
 20
16.0522
 11
208.453
 21
15.873
  0
LINE
  8
0
 10
208.453
 20
15.873
 11
208.488
 21
15.688
  0
LINE
  8
0
 10
208.488
 20
15.688
 11
208.5
 21
15.5
  0
LINE
  8
0
 10
208.5
 20
15.5
 11
208.488
 21
15.312
  0
LINE
  8
0
 10
208.488
 20
15.312
 11
208.453
 21
15.127
  0
LINE
  8
0
 10
208.453
 20
15.127
 11
208.395
 21
14.9478
  0
LINE
  8
0
 10
208.395
 20
14.9478
 11
208.314
 21
14.7774
  0
LINE
  8
0
 10
208.314
 20
14.7774
 11
208.214
 21
14.6183
  0
LINE
  8
0
 10
208.214
 20
14.6183
 11
208.093
 21
14.4732
  0
LINE
  8
0
 10
208.093
 20
14.4732
 11
207.956
 21
14.3442
  0
LINE
  8
0
 10
207.956
 20
14.3442
 11
207.804
 21
14.2335
  0
LINE
  8
0
 10
207.804
 20
14.2335
 11
207.639
 21
14.1428
  0
LINE
  8
0
 10
207.639
 20
14.1428
 11
207.464
 21
14.0734
  0
LINE
  8
0
 10
207.464
 20
14.0734
 11
207.281
 21
14.0266
  0
LINE
  8
0
 10
207.281
 20
14.0266
 11
207.094
 21
14.003
  0
LINE
  8
0
 10
207.094
 20
14.003
 11
206.906
 21
14.003
  0
LINE
  8
0
 10
175.906
 20
14.003
 11
175.719
 21
14.0266
  0
LINE
  8
0
 10
175.719
 20
14.0266
 11
175.536
 21
14.0734
  0
LINE
  8
0
 10
175.536
 20
14.0734
 11
175.361
 21
14.1428
  0
LINE
  8
0
 10
175.361
 20
14.1428
 11
175.196
 21
14.2335
  0
LINE
  8
0
 10
175.196
 20
14.2335
 11
175.044
 21
14.3442
  0
LINE
  8
0
 10
175.044
 20
14.3442
 11
174.907
 21
14.4732
  0
LINE
  8
0
 10
174.907
 20
14.4732
 11
174.786
 21
14.6183
  0
LINE
  8
0
 10
174.786
 20
14.6183
 11
174.686
 21
14.7774
  0
LINE
  8
0
 10
174.686
 20
14.7774
 11
174.605
 21
14.9478
  0
LINE
  8
0
 10
174.605
 20
14.9478
 11
174.547
 21
15.127
  0
LINE
  8
0
 10
174.547
 20
15.127
 11
174.512
 21
15.312
  0
LINE
  8
0
 10
174.512
 20
15.312
 11
174.5
 21
15.5
  0
LINE
  8
0
 10
174.5
 20
15.5
 11
174.512
 21
15.688
  0
LINE
  8
0
 10
174.512
 20
15.688
 11
174.547
 21
15.873
  0
LINE
  8
0
 10
174.547
 20
15.873
 11
174.605
 21
16.0522
  0
LINE
  8
0
 10
174.605
 20
16.0522
 11
174.686
 21
16.2226
  0
LINE
  8
0
 10
174.686
 20
16.2226
 11
174.786
 21
16.3817
  0
LINE
  8
0
 10
174.786
 20
16.3817
 11
174.907
 21
16.5268
  0
LINE
  8
0
 10
174.907
 20
16.5268
 11
175.044
 21
16.6558
  0
LINE
  8
0
 10
175.044
 20
16.6558
 11
175.196
 21
16.7665
  0
LINE
  8
0
 10
175.196
 20
16.7665
 11
175.361
 21
16.8572
  0
LINE
  8
0
 10
175.361
 20
16.8572
 11
175.536
 21
16.9266
  0
LINE
  8
0
 10
175.536
 20
16.9266
 11
175.719
 21
16.9734
  0
LINE
  8
0
 10
175.719
 20
16.9734
 11
175.906
 21
16.997
  0
LINE
  8
0
 10
175.906
 20
16.997
 11
176.094
 21
16.997
  0
LINE
  8
0
 10
176.094
 20
16.997
 11
176.281
 21
16.9734
  0
LINE
  8
0
 10
176.281
 20
16.9734
 11
176.464
 21
16.9266
  0
LINE
  8
0
 10
176.464
 20
16.9266
 11
176.639
 21
16.8572
  0
LINE
  8
0
 10
176.639
 20
16.8572
 11
176.804
 21
16.7665
  0
LINE
  8
0
 10
176.804
 20
16.7665
 11
176.956
 21
16.6558
  0
LINE
  8
0
 10
176.956
 20
16.6558
 11
177.093
 21
16.5268
  0
LINE
  8
0
 10
177.093
 20
16.5268
 11
177.214
 21
16.3817
  0
LINE
  8
0
 10
177.214
 20
16.3817
 11
177.314
 21
16.2226
  0
LINE
  8
0
 10
177.314
 20
16.2226
 11
177.395
 21
16.0522
  0
LINE
  8
0
 10
177.395
 20
16.0522
 11
177.453
 21
15.873
  0
LINE
  8
0
 10
177.453
 20
15.873
 11
177.488
 21
15.688
  0
LINE
  8
0
 10
177.488
 20
15.688
 11
177.5
 21
15.5
  0
LINE
  8
0
 10
177.5
 20
15.5
 11
177.488
 21
15.312
  0
LINE
  8
0
 10
177.488
 20
15.312
 11
177.453
 21
15.127
  0
LINE
  8
0
 10
177.453
 20
15.127
 11
177.395
 21
14.9478
  0
LINE
  8
0
 10
177.395
 20
14.9478
 11
177.314
 21
14.7774
  0
LINE
  8
0
 10
177.314
 20
14.7774
 11
177.214
 21
14.6183
  0
LINE
  8
0
 10
177.214
 20
14.6183
 11
177.093
 21
14.4732
  0
LINE
  8
0
 10
177.093
 20
14.4732
 11
176.956
 21
14.3442
  0
LINE
  8
0
 10
176.956
 20
14.3442
 11
176.804
 21
14.2335
  0
LINE
  8
0
 10
176.804
 20
14.2335
 11
176.639
 21
14.1428
  0
LINE
  8
0
 10
176.639
 20
14.1428
 11
176.464
 21
14.0734
  0
LINE
  8
0
 10
176.464
 20
14.0734
 11
176.281
 21
14.0266
  0
LINE
  8
0
 10
176.281
 20
14.0266
 11
176.094
 21
14.003
  0
LINE
  8
0
 10
176.094
 20
14.003
 11
175.906
 21
14.003
  0
LINE
  8
0
 10
-176.094
 20
14.003
 11
-176.281
 21
14.0266
  0
LINE
  8
0
 10
-176.281
 20
14.0266
 11
-176.464
 21
14.0734
  0
LINE
  8
0
 10
-176.464
 20
14.0734
 11
-176.639
 21
14.1428
  0
LINE
  8
0
 10
-176.639
 20
14.1428
 11
-176.804
 21
14.2335
  0
LINE
  8
0
 10
-176.804
 20
14.2335
 11
-176.956
 21
14.3442
  0
LINE
  8
0
 10
-176.956
 20
14.3442
 11
-177.093
 21
14.4732
  0
LINE
  8
0
 10
-177.093
 20
14.4732
 11
-177.214
 21
14.6183
  0
LINE
  8
0
 10
-177.214
 20
14.6183
 11
-177.314
 21
14.7774
  0
LINE
  8
0
 10
-177.314
 20
14.7774
 11
-177.395
 21
14.9478
  0
LINE
  8
0
 10
-177.395
 20
14.9478
 11
-177.453
 21
15.127
  0
LINE
  8
0
 10
-177.453
 20
15.127
 11
-177.488
 21
15.312
  0
LINE
  8
0
 10
-177.488
 20
15.312
 11
-177.5
 21
15.5
  0
LINE
  8
0
 10
-177.5
 20
15.5
 11
-177.488
 21
15.688
  0
LINE
  8
0
 10
-177.488
 20
15.688
 11
-177.453
 21
15.873
  0
LINE
  8
0
 10
-177.453
 20
15.873
 11
-177.395
 21
16.0522
  0
LINE
  8
0
 10
-177.395
 20
16.0522
 11
-177.314
 21
16.2226
  0
LINE
  8
0
 10
-177.314
 20
16.2226
 11
-177.214
 21
16.3817
  0
LINE
  8
0
 10
-177.214
 20
16.3817
 11
-177.093
 21
16.5268
  0
LINE
  8
0
 10
-177.093
 20
16.5268
 11
-176.956
 21
16.6558
  0
LINE
  8
0
 10
-176.956
 20
16.6558
 11
-176.804
 21
16.7665
  0
LINE
  8
0
 10
-176.804
 20
16.7665
 11
-176.639
 21
16.8572
  0
LINE
  8
0
 10
-176.639
 20
16.8572
 11
-176.464
 21
16.9266
  0
LINE
  8
0
 10
-176.464
 20
16.9266
 11
-176.281
 21
16.9734
  0
LINE
  8
0
 10
-176.281
 20
16.9734
 11
-176.094
 21
16.997
  0
LINE
  8
0
 10
-176.094
 20
16.997
 11
-175.906
 21
16.997
  0
LINE
  8
0
 10
-175.906
 20
16.997
 11
-175.719
 21
16.9734
  0
LINE
  8
0
 10
-175.719
 20
16.9734
 11
-175.536
 21
16.9266
  0
LINE
  8
0
 10
-175.536
 20
16.9266
 11
-175.361
 21
16.8572
  0
LINE
  8
0
 10
-175.361
 20
16.8572
 11
-175.196
 21
16.7665
  0
LINE
  8
0
 10
-175.196
 20
16.7665
 11
-175.044
 21
16.6558
  0
LINE
  8
0
 10
-175.044
 20
16.6558
 11
-174.907
 21
16.5268
  0
LINE
  8
0
 10
-174.907
 20
16.5268
 11
-174.786
 21
16.3817
  0
LINE
  8
0
 10
-174.786
 20
16.3817
 11
-174.686
 21
16.2226
  0
LINE
  8
0
 10
-174.686
 20
16.2226
 11
-174.605
 21
16.0522
  0
LINE
  8
0
 10
-174.605
 20
16.0522
 11
-174.547
 21
15.873
  0
LINE
  8
0
 10
-174.547
 20
15.873
 11
-174.512
 21
15.688
  0
LINE
  8
0
 10
-174.512
 20
15.688
 11
-174.5
 21
15.5
  0
LINE
  8
0
 10
-174.5
 20
15.5
 11
-174.512
 21
15.312
  0
LINE
  8
0
 10
-174.512
 20
15.312
 11
-174.547
 21
15.127
  0
LINE
  8
0
 10
-174.547
 20
15.127
 11
-174.605
 21
14.9478
  0
LINE
  8
0
 10
-174.605
 20
14.9478
 11
-174.686
 21
14.7774
  0
LINE
  8
0
 10
-174.686
 20
14.7774
 11
-174.786
 21
14.6183
  0
LINE
  8
0
 10
-174.786
 20
14.6183
 11
-174.907
 21
14.4732
  0
LINE
  8
0
 10
-174.907
 20
14.4732
 11
-175.044
 21
14.3442
  0
LINE
  8
0
 10
-175.044
 20
14.3442
 11
-175.196
 21
14.2335
  0
LINE
  8
0
 10
-175.196
 20
14.2335
 11
-175.361
 21
14.1428
  0
LINE
  8
0
 10
-175.361
 20
14.1428
 11
-175.536
 21
14.0734
  0
LINE
  8
0
 10
-175.536
 20
14.0734
 11
-175.719
 21
14.0266
  0
LINE
  8
0
 10
-175.719
 20
14.0266
 11
-175.906
 21
14.003
  0
LINE
  8
0
 10
-175.906
 20
14.003
 11
-176.094
 21
14.003
  0
LINE
  8
0
 10
-207.094
 20
14.003
 11
-207.281
 21
14.0266
  0
LINE
  8
0
 10
-207.281
 20
14.0266
 11
-207.464
 21
14.0734
  0
LINE
  8
0
 10
-207.464
 20
14.0734
 11
-207.639
 21
14.1428
  0
LINE
  8
0
 10
-207.639
 20
14.1428
 11
-207.804
 21
14.2335
  0
LINE
  8
0
 10
-207.804
 20
14.2335
 11
-207.956
 21
14.3442
  0
LINE
  8
0
 10
-207.956
 20
14.3442
 11
-208.093
 21
14.4732
  0
LINE
  8
0
 10
-208.093
 20
14.4732
 11
-208.214
 21
14.6183
  0
LINE
  8
0
 10
-208.214
 20
14.6183
 11
-208.314
 21
14.7774
  0
LINE
  8
0
 10
-208.314
 20
14.7774
 11
-208.395
 21
14.9478
  0
LINE
  8
0
 10
-208.395
 20
14.9478
 11
-208.453
 21
15.127
  0
LINE
  8
0
 10
-208.453
 20
15.127
 11
-208.488
 21
15.312
  0
LINE
  8
0
 10
-208.488
 20
15.312
 11
-208.5
 21
15.5
  0
LINE
  8
0
 10
-208.5
 20
15.5
 11
-208.488
 21
15.688
  0
LINE
  8
0
 10
-208.488
 20
15.688
 11
-208.453
 21
15.873
  0
LINE
  8
0
 10
-208.453
 20
15.873
 11
-208.395
 21
16.0522
  0
LINE
  8
0
 10
-208.395
 20
16.0522
 11
-208.314
 21
16.2226
  0
LINE
  8
0
 10
-208.314
 20
16.2226
 11
-208.214
 21
16.3817
  0
LINE
  8
0
 10
-208.214
 20
16.3817
 11
-208.093
 21
16.5268
  0
LINE
  8
0
 10
-208.093
 20
16.5268
 11
-207.956
 21
16.6558
  0
LINE
  8
0
 10
-207.956
 20
16.6558
 11
-207.804
 21
16.7665
  0
LINE
  8
0
 10
-207.804
 20
16.7665
 11
-207.639
 21
16.8572
  0
LINE
  8
0
 10
-207.639
 20
16.8572
 11
-207.464
 21
16.9266
  0
LINE
  8
0
 10
-207.464
 20
16.9266
 11
-207.281
 21
16.9734
  0
LINE
  8
0
 10
-207.281
 20
16.9734
 11
-207.094
 21
16.997
  0
LINE
  8
0
 10
-207.094
 20
16.997
 11
-206.906
 21
16.997
  0
LINE
  8
0
 10
-206.906
 20
16.997
 11
-206.719
 21
16.9734
  0
LINE
  8
0
 10
-206.719
 20
16.9734
 11
-206.536
 21
16.9266
  0
LINE
  8
0
 10
-206.536
 20
16.9266
 11
-206.361
 21
16.8572
  0
LINE
  8
0
 10
-206.361
 20
16.8572
 11
-206.196
 21
16.7665
  0
LINE
  8
0
 10
-206.196
 20
16.7665
 11
-206.044
 21
16.6558
  0
LINE
  8
0
 10
-206.044
 20
16.6558
 11
-205.907
 21
16.5268
  0
LINE
  8
0
 10
-205.907
 20
16.5268
 11
-205.786
 21
16.3817
  0
LINE
  8
0
 10
-205.786
 20
16.3817
 11
-205.686
 21
16.2226
  0
LINE
  8
0
 10
-205.686
 20
16.2226
 11
-205.605
 21
16.0522
  0
LINE
  8
0
 10
-205.605
 20
16.0522
 11
-205.547
 21
15.873
  0
LINE
  8
0
 10
-205.547
 20
15.873
 11
-205.512
 21
15.688
  0
LINE
  8
0
 10
-205.512
 20
15.688
 11
-205.5
 21
15.5
  0
LINE
  8
0
 10
-205.5
 20
15.5
 11
-205.512
 21
15.312
  0
LINE
  8
0
 10
-205.512
 20
15.312
 11
-205.547
 21
15.127
  0
LINE
  8
0
 10
-205.547
 20
15.127
 11
-205.605
 21
14.9478
  0
LINE
  8
0
 10
-205.605
 20
14.9478
 11
-205.686
 21
14.7774
  0
LINE
  8
0
 10
-205.686
 20
14.7774
 11
-205.786
 21
14.6183
  0
LINE
  8
0
 10
-205.786
 20
14.6183
 11
-205.907
 21
14.4732
  0
LINE
  8
0
 10
-205.907
 20
14.4732
 11
-206.044
 21
14.3442
  0
LINE
  8
0
 10
-206.044
 20
14.3442
 11
-206.196
 21
14.2335
  0
LINE
  8
0
 10
-206.196
 20
14.2335
 11
-206.361
 21
14.1428
  0
LINE
  8
0
 10
-206.361
 20
14.1428
 11
-206.536
 21
14.0734
  0
LINE
  8
0
 10
-206.536
 20
14.0734
 11
-206.719
 21
14.0266
  0
LINE
  8
0
 10
-206.719
 20
14.0266
 11
-206.906
 21
14.003
  0
LINE
  8
0
 10
-206.906
 20
14.003
 11
-207.094
 21
14.003
  0
LINE
  8
0
 10
-70
 20
10
 11
-70
 21
15
  0
LINE
  8
0
 10
-70
 20
15
 11
-50
 21
15
  0
LINE
  8
0
 10
-50
 20
15
 11
-50
 21
10
  0
LINE
  8
0
 10
-50
 20
10
 11
-70
 21
10
  0
LINE
  8
0
 10
130
 20
10
 11
130
 21
15
  0
LINE
  8
0
 10
130
 20
15
 11
150
 21
15
  0
LINE
  8
0
 10
150
 20
15
 11
150
 21
10
  0
LINE
  8
0
 10
150
 20
10
 11
130
 21
10
  0
LINE
  8
0
 10
90
 20
10
 11
90
 21
15
  0
LINE
  8
0
 10
90
 20
15
 11
110
 21
15
  0
LINE
  8
0
 10
110
 20
15
 11
110
 21
10
  0
LINE
  8
0
 10
110
 20
10
 11
90
 21
10
  0
LINE
  8
0
 10
50
 20
10
 11
50
 21
15
  0
LINE
  8
0
 10
50
 20
15
 11
70
 21
15
  0
LINE
  8
0
 10
70
 20
15
 11
70
 21
10
  0
LINE
  8
0
 10
70
 20
10
 11
50
 21
10
  0
LINE
  8
0
 10
10
 20
10
 11
10
 21
15
  0
LINE
  8
0
 10
10
 20
15
 11
30
 21
15
  0
LINE
  8
0
 10
30
 20
15
 11
30
 21
10
  0
LINE
  8
0
 10
30
 20
10
 11
10
 21
10
  0
LINE
  8
0
 10
-150
 20
10
 11
-150
 21
15
  0
LINE
  8
0
 10
-150
 20
15
 11
-130
 21
15
  0
LINE
  8
0
 10
-130
 20
15
 11
-130
 21
10
  0
LINE
  8
0
 10
-130
 20
10
 11
-150
 21
10
  0
LINE
  8
0
 10
-110
 20
10
 11
-110
 21
15
  0
LINE
  8
0
 10
-110
 20
15
 11
-90
 21
15
  0
LINE
  8
0
 10
-90
 20
15
 11
-90
 21
10
  0
LINE
  8
0
 10
-90
 20
10
 11
-110
 21
10
  0
LINE
  8
0
 10
-30
 20
10
 11
-30
 21
15
  0
LINE
  8
0
 10
-30
 20
15
 11
-10
 21
15
  0
LINE
  8
0
 10
-10
 20
15
 11
-10
 21
10
  0
LINE
  8
0
 10
-10
 20
10
 11
-30
 21
10
  0
LINE
  8
0
 10
-192.379
 20
-13.9724
 11
-194.123
 21
-13.752
  0
LINE
  8
0
 10
-194.123
 20
-13.752
 11
-195.826
 21
-13.3148
  0
LINE
  8
0
 10
-195.826
 20
-13.3148
 11
-197.461
 21
-12.6676
  0
LINE
  8
0
 10
-197.461
 20
-12.6676
 11
-199.002
 21
-11.8206
  0
LINE
  8
0
 10
-199.002
 20
-11.8206
 11
-200.424
 21
-10.7872
  0
LINE
  8
0
 10
-200.424
 20
-10.7872
 11
-201.706
 21
-9.58365
  0
LINE
  8
0
 10
-201.706
 20
-9.58365
 11
-202.826
 21
-8.22899
  0
LINE
  8
0
 10
-202.826
 20
-8.22899
 11
-203.768
 21
-6.74454
  0
LINE
  8
0
 10
-203.768
 20
-6.74454
 11
-204.517
 21
-5.15373
  0
LINE
  8
0
 10
-204.517
 20
-5.15373
 11
-205.06
 21
-3.48164
  0
LINE
  8
0
 10
-205.06
 20
-3.48164
 11
-205.39
 21
-1.75465
  0
LINE
  8
0
 10
-205.39
 20
-1.75465
 11
-205.5
 21
0
  0
LINE
  8
0
 10
-205.5
 20
0
 11
-205.39
 21
1.75465
  0
LINE
  8
0
 10
-205.39
 20
1.75465
 11
-205.06
 21
3.48164
  0
LINE
  8
0
 10
-205.06
 20
3.48164
 11
-204.517
 21
5.15373
  0
LINE
  8
0
 10
-204.517
 20
5.15373
 11
-203.768
 21
6.74454
  0
LINE
  8
0
 10
-203.768
 20
6.74454
 11
-202.826
 21
8.22899
  0
LINE
  8
0
 10
-202.826
 20
8.22899
 11
-201.706
 21
9.58365
  0
LINE
  8
0
 10
-201.706
 20
9.58365
 11
-200.424
 21
10.7872
  0
LINE
  8
0
 10
-200.424
 20
10.7872
 11
-199.002
 21
11.8206
  0
LINE
  8
0
 10
-199.002
 20
11.8206
 11
-197.461
 21
12.6676
  0
LINE
  8
0
 10
-197.461
 20
12.6676
 11
-195.826
 21
13.3148
  0
LINE
  8
0
 10
-195.826
 20
13.3148
 11
-194.123
 21
13.752
  0
LINE
  8
0
 10
-194.123
 20
13.752
 11
-192.379
 21
13.9724
  0
LINE
  8
0
 10
-192.379
 20
13.9724
 11
-190.621
 21
13.9724
  0
LINE
  8
0
 10
-190.621
 20
13.9724
 11
-188.877
 21
13.752
  0
LINE
  8
0
 10
-188.877
 20
13.752
 11
-187.174
 21
13.3148
  0
LINE
  8
0
 10
-187.174
 20
13.3148
 11
-185.539
 21
12.6676
  0
LINE
  8
0
 10
-185.539
 20
12.6676
 11
-183.998
 21
11.8206
  0
LINE
  8
0
 10
-183.998
 20
11.8206
 11
-182.576
 21
10.7872
  0
LINE
  8
0
 10
-182.576
 20
10.7872
 11
-181.294
 21
9.58365
  0
LINE
  8
0
 10
-181.294
 20
9.58365
 11
-180.174
 21
8.22899
  0
LINE
  8
0
 10
-180.174
 20
8.22899
 11
-179.232
 21
6.74454
  0
LINE
  8
0
 10
-179.232
 20
6.74454
 11
-178.483
 21
5.15373
  0
LINE
  8
0
 10
-178.483
 20
5.15373
 11
-177.94
 21
3.48164
  0
LINE
  8
0
 10
-177.94
 20
3.48164
 11
-177.61
 21
1.75465
  0
LINE
  8
0
 10
-177.61
 20
1.75465
 11
-177.5
 21
0
  0
LINE
  8
0
 10
-177.5
 20
0
 11
-177.61
 21
-1.75465
  0
LINE
  8
0
 10
-177.61
 20
-1.75465
 11
-177.94
 21
-3.48164
  0
LINE
  8
0
 10
-177.94
 20
-3.48164
 11
-178.483
 21
-5.15373
  0
LINE
  8
0
 10
-178.483
 20
-5.15373
 11
-179.232
 21
-6.74454
  0
LINE
  8
0
 10
-179.232
 20
-6.74454
 11
-180.174
 21
-8.22899
  0
LINE
  8
0
 10
-180.174
 20
-8.22899
 11
-181.294
 21
-9.58365
  0
LINE
  8
0
 10
-181.294
 20
-9.58365
 11
-182.576
 21
-10.7872
  0
LINE
  8
0
 10
-182.576
 20
-10.7872
 11
-183.998
 21
-11.8206
  0
LINE
  8
0
 10
-183.998
 20
-11.8206
 11
-185.539
 21
-12.6676
  0
LINE
  8
0
 10
-185.539
 20
-12.6676
 11
-187.174
 21
-13.3148
  0
LINE
  8
0
 10
-187.174
 20
-13.3148
 11
-188.877
 21
-13.752
  0
LINE
  8
0
 10
-188.877
 20
-13.752
 11
-190.621
 21
-13.9724
  0
LINE
  8
0
 10
-190.621
 20
-13.9724
 11
-192.379
 21
-13.9724
  0
LINE
  8
0
 10
190.621
 20
-13.9724
 11
188.877
 21
-13.752
  0
LINE
  8
0
 10
188.877
 20
-13.752
 11
187.174
 21
-13.3148
  0
LINE
  8
0
 10
187.174
 20
-13.3148
 11
185.539
 21
-12.6676
  0
LINE
  8
0
 10
185.539
 20
-12.6676
 11
183.998
 21
-11.8206
  0
LINE
  8
0
 10
183.998
 20
-11.8206
 11
182.576
 21
-10.7872
  0
LINE
  8
0
 10
182.576
 20
-10.7872
 11
181.294
 21
-9.58365
  0
LINE
  8
0
 10
181.294
 20
-9.58365
 11
180.174
 21
-8.22899
  0
LINE
  8
0
 10
180.174
 20
-8.22899
 11
179.232
 21
-6.74454
  0
LINE
  8
0
 10
179.232
 20
-6.74454
 11
178.483
 21
-5.15373
  0
LINE
  8
0
 10
178.483
 20
-5.15373
 11
177.94
 21
-3.48164
  0
LINE
  8
0
 10
177.94
 20
-3.48164
 11
177.61
 21
-1.75465
  0
LINE
  8
0
 10
177.61
 20
-1.75465
 11
177.5
 21
0
  0
LINE
  8
0
 10
177.5
 20
0
 11
177.61
 21
1.75465
  0
LINE
  8
0
 10
177.61
 20
1.75465
 11
177.94
 21
3.48164
  0
LINE
  8
0
 10
177.94
 20
3.48164
 11
178.483
 21
5.15373
  0
LINE
  8
0
 10
178.483
 20
5.15373
 11
179.232
 21
6.74454
  0
LINE
  8
0
 10
179.232
 20
6.74454
 11
180.174
 21
8.22899
  0
LINE
  8
0
 10
180.174
 20
8.22899
 11
181.294
 21
9.58365
  0
LINE
  8
0
 10
181.294
 20
9.58365
 11
182.576
 21
10.7872
  0
LINE
  8
0
 10
182.576
 20
10.7872
 11
183.998
 21
11.8206
  0
LINE
  8
0
 10
183.998
 20
11.8206
 11
185.539
 21
12.6676
  0
LINE
  8
0
 10
185.539
 20
12.6676
 11
187.174
 21
13.3148
  0
LINE
  8
0
 10
187.174
 20
13.3148
 11
188.877
 21
13.752
  0
LINE
  8
0
 10
188.877
 20
13.752
 11
190.621
 21
13.9724
  0
LINE
  8
0
 10
190.621
 20
13.9724
 11
192.379
 21
13.9724
  0
LINE
  8
0
 10
192.379
 20
13.9724
 11
194.123
 21
13.752
  0
LINE
  8
0
 10
194.123
 20
13.752
 11
195.826
 21
13.3148
  0
LINE
  8
0
 10
195.826
 20
13.3148
 11
197.461
 21
12.6676
  0
LINE
  8
0
 10
197.461
 20
12.6676
 11
199.002
 21
11.8206
  0
LINE
  8
0
 10
199.002
 20
11.8206
 11
200.424
 21
10.7872
  0
LINE
  8
0
 10
200.424
 20
10.7872
 11
201.706
 21
9.58365
  0
LINE
  8
0
 10
201.706
 20
9.58365
 11
202.826
 21
8.22899
  0
LINE
  8
0
 10
202.826
 20
8.22899
 11
203.768
 21
6.74454
  0
LINE
  8
0
 10
203.768
 20
6.74454
 11
204.517
 21
5.15373
  0
LINE
  8
0
 10
204.517
 20
5.15373
 11
205.06
 21
3.48164
  0
LINE
  8
0
 10
205.06
 20
3.48164
 11
205.39
 21
1.75465
  0
LINE
  8
0
 10
205.39
 20
1.75465
 11
205.5
 21
0
  0
LINE
  8
0
 10
205.5
 20
0
 11
205.39
 21
-1.75465
  0
LINE
  8
0
 10
205.39
 20
-1.75465
 11
205.06
 21
-3.48164
  0
LINE
  8
0
 10
205.06
 20
-3.48164
 11
204.517
 21
-5.15373
  0
LINE
  8
0
 10
204.517
 20
-5.15373
 11
203.768
 21
-6.74454
  0
LINE
  8
0
 10
203.768
 20
-6.74454
 11
202.826
 21
-8.22899
  0
LINE
  8
0
 10
202.826
 20
-8.22899
 11
201.706
 21
-9.58365
  0
LINE
  8
0
 10
201.706
 20
-9.58365
 11
200.424
 21
-10.7872
  0
LINE
  8
0
 10
200.424
 20
-10.7872
 11
199.002
 21
-11.8206
  0
LINE
  8
0
 10
199.002
 20
-11.8206
 11
197.461
 21
-12.6676
  0
LINE
  8
0
 10
197.461
 20
-12.6676
 11
195.826
 21
-13.3148
  0
LINE
  8
0
 10
195.826
 20
-13.3148
 11
194.123
 21
-13.752
  0
LINE
  8
0
 10
194.123
 20
-13.752
 11
192.379
 21
-13.9724
  0
LINE
  8
0
 10
192.379
 20
-13.9724
 11
190.621
 21
-13.9724
  0
LINE
  8
0
 10
-160.157
 20
-2.49506
 11
-160.468
 21
-2.4557
  0
LINE
  8
0
 10
-160.468
 20
-2.4557
 11
-160.773
 21
-2.37764
  0
LINE
  8
0
 10
-160.773
 20
-2.37764
 11
-161.064
 21
-2.26205
  0
LINE
  8
0
 10
-161.064
 20
-2.26205
 11
-161.34
 21
-2.11081
  0
LINE
  8
0
 10
-161.34
 20
-2.11081
 11
-161.594
 21
-1.92627
  0
LINE
  8
0
 10
-161.594
 20
-1.92627
 11
-161.822
 21
-1.71136
  0
LINE
  8
0
 10
-161.822
 20
-1.71136
 11
-162.023
 21
-1.46945
  0
LINE
  8
0
 10
-162.023
 20
-1.46945
 11
-162.191
 21
-1.20438
  0
LINE
  8
0
 10
-162.191
 20
-1.20438
 11
-162.324
 21
-0.920303
  0
LINE
  8
0
 10
-162.324
 20
-0.920303
 11
-162.421
 21
-0.621719
  0
LINE
  8
0
 10
-162.421
 20
-0.621719
 11
-162.48
 21
-0.313324
  0
LINE
  8
0
 10
-162.48
 20
-0.313324
 11
-162.5
 21
0
  0
LINE
  8
0
 10
-162.5
 20
0
 11
-162.48
 21
0.313324
  0
LINE
  8
0
 10
-162.48
 20
0.313324
 11
-162.421
 21
0.621719
  0
LINE
  8
0
 10
-162.421
 20
0.621719
 11
-162.324
 21
0.920303
  0
LINE
  8
0
 10
-162.324
 20
0.920303
 11
-162.191
 21
1.20438
  0
LINE
  8
0
 10
-162.191
 20
1.20438
 11
-162.023
 21
1.46945
  0
LINE
  8
0
 10
-162.023
 20
1.46945
 11
-161.822
 21
1.71136
  0
LINE
  8
0
 10
-161.822
 20
1.71136
 11
-161.594
 21
1.92627
  0
LINE
  8
0
 10
-161.594
 20
1.92627
 11
-161.34
 21
2.11081
  0
LINE
  8
0
 10
-161.34
 20
2.11081
 11
-161.064
 21
2.26205
  0
LINE
  8
0
 10
-161.064
 20
2.26205
 11
-160.773
 21
2.37764
  0
LINE
  8
0
 10
-160.773
 20
2.37764
 11
-160.468
 21
2.4557
  0
LINE
  8
0
 10
-160.468
 20
2.4557
 11
-160.157
 21
2.49506
  0
LINE
  8
0
 10
-160.157
 20
2.49506
 11
-159.843
 21
2.49506
  0
LINE
  8
0
 10
-159.843
 20
2.49506
 11
-159.532
 21
2.4557
  0
LINE
  8
0
 10
-159.532
 20
2.4557
 11
-159.227
 21
2.37764
  0
LINE
  8
0
 10
-159.227
 20
2.37764
 11
-158.936
 21
2.26205
  0
LINE
  8
0
 10
-158.936
 20
2.26205
 11
-158.66
 21
2.11081
  0
LINE
  8
0
 10
-158.66
 20
2.11081
 11
-158.406
 21
1.92627
  0
LINE
  8
0
 10
-158.406
 20
1.92627
 11
-158.178
 21
1.71136
  0
LINE
  8
0
 10
-158.178
 20
1.71136
 11
-157.977
 21
1.46945
  0
LINE
  8
0
 10
-157.977
 20
1.46945
 11
-157.809
 21
1.20438
  0
LINE
  8
0
 10
-157.809
 20
1.20438
 11
-157.676
 21
0.920303
  0
LINE
  8
0
 10
-157.676
 20
0.920303
 11
-157.579
 21
0.621719
  0
LINE
  8
0
 10
-157.579
 20
0.621719
 11
-157.52
 21
0.313324
  0
LINE
  8
0
 10
-157.52
 20
0.313324
 11
-157.5
 21
0
  0
LINE
  8
0
 10
-157.5
 20
0
 11
-157.52
 21
-0.313324
  0
LINE
  8
0
 10
-157.52
 20
-0.313324
 11
-157.579
 21
-0.621719
  0
LINE
  8
0
 10
-157.579
 20
-0.621719
 11
-157.676
 21
-0.920303
  0
LINE
  8
0
 10
-157.676
 20
-0.920303
 11
-157.809
 21
-1.20438
  0
LINE
  8
0
 10
-157.809
 20
-1.20438
 11
-157.977
 21
-1.46945
  0
LINE
  8
0
 10
-157.977
 20
-1.46945
 11
-158.178
 21
-1.71136
  0
LINE
  8
0
 10
-158.178
 20
-1.71136
 11
-158.406
 21
-1.92627
  0
LINE
  8
0
 10
-158.406
 20
-1.92627
 11
-158.66
 21
-2.11081
  0
LINE
  8
0
 10
-158.66
 20
-2.11081
 11
-158.936
 21
-2.26205
  0
LINE
  8
0
 10
-158.936
 20
-2.26205
 11
-159.227
 21
-2.37764
  0
LINE
  8
0
 10
-159.227
 20
-2.37764
 11
-159.532
 21
-2.4557
  0
LINE
  8
0
 10
-159.532
 20
-2.4557
 11
-159.843
 21
-2.49506
  0
LINE
  8
0
 10
-159.843
 20
-2.49506
 11
-160.157
 21
-2.49506
  0
LINE
  8
0
 10
159.843
 20
-2.49506
 11
159.532
 21
-2.4557
  0
LINE
  8
0
 10
159.532
 20
-2.4557
 11
159.227
 21
-2.37764
  0
LINE
  8
0
 10
159.227
 20
-2.37764
 11
158.936
 21
-2.26205
  0
LINE
  8
0
 10
158.936
 20
-2.26205
 11
158.66
 21
-2.11081
  0
LINE
  8
0
 10
158.66
 20
-2.11081
 11
158.406
 21
-1.92627
  0
LINE
  8
0
 10
158.406
 20
-1.92627
 11
158.178
 21
-1.71136
  0
LINE
  8
0
 10
158.178
 20
-1.71136
 11
157.977
 21
-1.46945
  0
LINE
  8
0
 10
157.977
 20
-1.46945
 11
157.809
 21
-1.20438
  0
LINE
  8
0
 10
157.809
 20
-1.20438
 11
157.676
 21
-0.920303
  0
LINE
  8
0
 10
157.676
 20
-0.920303
 11
157.579
 21
-0.621719
  0
LINE
  8
0
 10
157.579
 20
-0.621719
 11
157.52
 21
-0.313324
  0
LINE
  8
0
 10
157.52
 20
-0.313324
 11
157.5
 21
0
  0
LINE
  8
0
 10
157.5
 20
0
 11
157.52
 21
0.313324
  0
LINE
  8
0
 10
157.52
 20
0.313324
 11
157.579
 21
0.621719
  0
LINE
  8
0
 10
157.579
 20
0.621719
 11
157.676
 21
0.920303
  0
LINE
  8
0
 10
157.676
 20
0.920303
 11
157.809
 21
1.20438
  0
LINE
  8
0
 10
157.809
 20
1.20438
 11
157.977
 21
1.46945
  0
LINE
  8
0
 10
157.977
 20
1.46945
 11
158.178
 21
1.71136
  0
LINE
  8
0
 10
158.178
 20
1.71136
 11
158.406
 21
1.92627
  0
LINE
  8
0
 10
158.406
 20
1.92627
 11
158.66
 21
2.11081
  0
LINE
  8
0
 10
158.66
 20
2.11081
 11
158.936
 21
2.26205
  0
LINE
  8
0
 10
158.936
 20
2.26205
 11
159.227
 21
2.37764
  0
LINE
  8
0
 10
159.227
 20
2.37764
 11
159.532
 21
2.4557
  0
LINE
  8
0
 10
159.532
 20
2.4557
 11
159.843
 21
2.49506
  0
LINE
  8
0
 10
159.843
 20
2.49506
 11
160.157
 21
2.49506
  0
LINE
  8
0
 10
160.157
 20
2.49506
 11
160.468
 21
2.4557
  0
LINE
  8
0
 10
160.468
 20
2.4557
 11
160.773
 21
2.37764
  0
LINE
  8
0
 10
160.773
 20
2.37764
 11
161.064
 21
2.26205
  0
LINE
  8
0
 10
161.064
 20
2.26205
 11
161.34
 21
2.11081
  0
LINE
  8
0
 10
161.34
 20
2.11081
 11
161.594
 21
1.92627
  0
LINE
  8
0
 10
161.594
 20
1.92627
 11
161.822
 21
1.71136
  0
LINE
  8
0
 10
161.822
 20
1.71136
 11
162.023
 21
1.46945
  0
LINE
  8
0
 10
162.023
 20
1.46945
 11
162.191
 21
1.20438
  0
LINE
  8
0
 10
162.191
 20
1.20438
 11
162.324
 21
0.920303
  0
LINE
  8
0
 10
162.324
 20
0.920303
 11
162.421
 21
0.621719
  0
LINE
  8
0
 10
162.421
 20
0.621719
 11
162.48
 21
0.313324
  0
LINE
  8
0
 10
162.48
 20
0.313324
 11
162.5
 21
0
  0
LINE
  8
0
 10
162.5
 20
0
 11
162.48
 21
-0.313324
  0
LINE
  8
0
 10
162.48
 20
-0.313324
 11
162.421
 21
-0.621719
  0
LINE
  8
0
 10
162.421
 20
-0.621719
 11
162.324
 21
-0.920303
  0
LINE
  8
0
 10
162.324
 20
-0.920303
 11
162.191
 21
-1.20438
  0
LINE
  8
0
 10
162.191
 20
-1.20438
 11
162.023
 21
-1.46945
  0
LINE
  8
0
 10
162.023
 20
-1.46945
 11
161.822
 21
-1.71136
  0
LINE
  8
0
 10
161.822
 20
-1.71136
 11
161.594
 21
-1.92627
  0
LINE
  8
0
 10
161.594
 20
-1.92627
 11
161.34
 21
-2.11081
  0
LINE
  8
0
 10
161.34
 20
-2.11081
 11
161.064
 21
-2.26205
  0
LINE
  8
0
 10
161.064
 20
-2.26205
 11
160.773
 21
-2.37764
  0
LINE
  8
0
 10
160.773
 20
-2.37764
 11
160.468
 21
-2.4557
  0
LINE
  8
0
 10
160.468
 20
-2.4557
 11
160.157
 21
-2.49506
  0
LINE
  8
0
 10
160.157
 20
-2.49506
 11
159.843
 21
-2.49506
  0
LINE
  8
0
 10
-30
 20
-14.9999
 11
-30
 21
-9.99986
  0
LINE
  8
0
 10
-30
 20
-9.99986
 11
-10
 21
-9.99986
  0
LINE
  8
0
 10
-10
 20
-9.99986
 11
-10
 21
-14.9999
  0
LINE
  8
0
 10
-10
 20
-14.9999
 11
-30
 21
-14.9999
  0
LINE
  8
0
 10
-70
 20
-14.9999
 11
-70
 21
-9.99986
  0
LINE
  8
0
 10
-70
 20
-9.99986
 11
-50
 21
-9.99986
  0
LINE
  8
0
 10
-50
 20
-9.99986
 11
-50
 21
-14.9999
  0
LINE
  8
0
 10
-50
 20
-14.9999
 11
-70
 21
-14.9999
  0
LINE
  8
0
 10
-110
 20
-14.9999
 11
-110
 21
-9.99986
  0
LINE
  8
0
 10
-110
 20
-9.99986
 11
-90
 21
-9.99986
  0
LINE
  8
0
 10
-90
 20
-9.99986
 11
-90
 21
-14.9999
  0
LINE
  8
0
 10
-90
 20
-14.9999
 11
-110
 21
-14.9999
  0
LINE
  8
0
 10
-150
 20
-14.9999
 11
-150
 21
-9.99986
  0
LINE
  8
0
 10
-150
 20
-9.99986
 11
-130
 21
-9.99986
  0
LINE
  8
0
 10
-130
 20
-9.99986
 11
-130
 21
-14.9999
  0
LINE
  8
0
 10
-130
 20
-14.9999
 11
-150
 21
-14.9999
  0
LINE
  8
0
 10
10
 20
-14.9999
 11
10
 21
-9.99986
  0
LINE
  8
0
 10
10
 20
-9.99986
 11
30
 21
-9.99986
  0
LINE
  8
0
 10
30
 20
-9.99986
 11
30
 21
-14.9999
  0
LINE
  8
0
 10
30
 20
-14.9999
 11
10
 21
-14.9999
  0
LINE
  8
0
 10
50
 20
-14.9999
 11
50
 21
-9.99986
  0
LINE
  8
0
 10
50
 20
-9.99986
 11
70
 21
-9.99986
  0
LINE
  8
0
 10
70
 20
-9.99986
 11
70
 21
-14.9999
  0
LINE
  8
0
 10
70
 20
-14.9999
 11
50
 21
-14.9999
  0
LINE
  8
0
 10
90
 20
-14.9999
 11
90
 21
-9.99986
  0
LINE
  8
0
 10
90
 20
-9.99986
 11
110
 21
-9.99986
  0
LINE
  8
0
 10
110
 20
-9.99986
 11
110
 21
-14.9999
  0
LINE
  8
0
 10
110
 20
-14.9999
 11
90
 21
-14.9999
  0
LINE
  8
0
 10
130
 20
-14.9999
 11
130
 21
-9.99986
  0
LINE
  8
0
 10
130
 20
-9.99986
 11
150
 21
-9.99986
  0
LINE
  8
0
 10
150
 20
-9.99986
 11
150
 21
-14.9999
  0
LINE
  8
0
 10
150
 20
-14.9999
 11
130
 21
-14.9999
  0
LINE
  8
0
 10
-207.094
 20
-16.997
 11
-207.281
 21
-16.9734
  0
LINE
  8
0
 10
-207.281
 20
-16.9734
 11
-207.464
 21
-16.9266
  0
LINE
  8
0
 10
-207.464
 20
-16.9266
 11
-207.639
 21
-16.8572
  0
LINE
  8
0
 10
-207.639
 20
-16.8572
 11
-207.804
 21
-16.7665
  0
LINE
  8
0
 10
-207.804
 20
-16.7665
 11
-207.956
 21
-16.6558
  0
LINE
  8
0
 10
-207.956
 20
-16.6558
 11
-208.093
 21
-16.5268
  0
LINE
  8
0
 10
-208.093
 20
-16.5268
 11
-208.214
 21
-16.3817
  0
LINE
  8
0
 10
-208.214
 20
-16.3817
 11
-208.314
 21
-16.2226
  0
LINE
  8
0
 10
-208.314
 20
-16.2226
 11
-208.395
 21
-16.0522
  0
LINE
  8
0
 10
-208.395
 20
-16.0522
 11
-208.453
 21
-15.873
  0
LINE
  8
0
 10
-208.453
 20
-15.873
 11
-208.488
 21
-15.688
  0
LINE
  8
0
 10
-208.488
 20
-15.688
 11
-208.5
 21
-15.5
  0
LINE
  8
0
 10
-208.5
 20
-15.5
 11
-208.488
 21
-15.312
  0
LINE
  8
0
 10
-208.488
 20
-15.312
 11
-208.453
 21
-15.127
  0
LINE
  8
0
 10
-208.453
 20
-15.127
 11
-208.395
 21
-14.9478
  0
LINE
  8
0
 10
-208.395
 20
-14.9478
 11
-208.314
 21
-14.7774
  0
LINE
  8
0
 10
-208.314
 20
-14.7774
 11
-208.214
 21
-14.6183
  0
LINE
  8
0
 10
-208.214
 20
-14.6183
 11
-208.093
 21
-14.4732
  0
LINE
  8
0
 10
-208.093
 20
-14.4732
 11
-207.956
 21
-14.3442
  0
LINE
  8
0
 10
-207.956
 20
-14.3442
 11
-207.804
 21
-14.2335
  0
LINE
  8
0
 10
-207.804
 20
-14.2335
 11
-207.639
 21
-14.1428
  0
LINE
  8
0
 10
-207.639
 20
-14.1428
 11
-207.464
 21
-14.0734
  0
LINE
  8
0
 10
-207.464
 20
-14.0734
 11
-207.281
 21
-14.0266
  0
LINE
  8
0
 10
-207.281
 20
-14.0266
 11
-207.094
 21
-14.003
  0
LINE
  8
0
 10
-207.094
 20
-14.003
 11
-206.906
 21
-14.003
  0
LINE
  8
0
 10
-206.906
 20
-14.003
 11
-206.719
 21
-14.0266
  0
LINE
  8
0
 10
-206.719
 20
-14.0266
 11
-206.536
 21
-14.0734
  0
LINE
  8
0
 10
-206.536
 20
-14.0734
 11
-206.361
 21
-14.1428
  0
LINE
  8
0
 10
-206.361
 20
-14.1428
 11
-206.196
 21
-14.2335
  0
LINE
  8
0
 10
-206.196
 20
-14.2335
 11
-206.044
 21
-14.3442
  0
LINE
  8
0
 10
-206.044
 20
-14.3442
 11
-205.907
 21
-14.4732
  0
LINE
  8
0
 10
-205.907
 20
-14.4732
 11
-205.786
 21
-14.6183
  0
LINE
  8
0
 10
-205.786
 20
-14.6183
 11
-205.686
 21
-14.7774
  0
LINE
  8
0
 10
-205.686
 20
-14.7774
 11
-205.605
 21
-14.9478
  0
LINE
  8
0
 10
-205.605
 20
-14.9478
 11
-205.547
 21
-15.127
  0
LINE
  8
0
 10
-205.547
 20
-15.127
 11
-205.512
 21
-15.312
  0
LINE
  8
0
 10
-205.512
 20
-15.312
 11
-205.5
 21
-15.5
  0
LINE
  8
0
 10
-205.5
 20
-15.5
 11
-205.512
 21
-15.688
  0
LINE
  8
0
 10
-205.512
 20
-15.688
 11
-205.547
 21
-15.873
  0
LINE
  8
0
 10
-205.547
 20
-15.873
 11
-205.605
 21
-16.0522
  0
LINE
  8
0
 10
-205.605
 20
-16.0522
 11
-205.686
 21
-16.2226
  0
LINE
  8
0
 10
-205.686
 20
-16.2226
 11
-205.786
 21
-16.3817
  0
LINE
  8
0
 10
-205.786
 20
-16.3817
 11
-205.907
 21
-16.5268
  0
LINE
  8
0
 10
-205.907
 20
-16.5268
 11
-206.044
 21
-16.6558
  0
LINE
  8
0
 10
-206.044
 20
-16.6558
 11
-206.196
 21
-16.7665
  0
LINE
  8
0
 10
-206.196
 20
-16.7665
 11
-206.361
 21
-16.8572
  0
LINE
  8
0
 10
-206.361
 20
-16.8572
 11
-206.536
 21
-16.9266
  0
LINE
  8
0
 10
-206.536
 20
-16.9266
 11
-206.719
 21
-16.9734
  0
LINE
  8
0
 10
-206.719
 20
-16.9734
 11
-206.906
 21
-16.997
  0
LINE
  8
0
 10
-206.906
 20
-16.997
 11
-207.094
 21
-16.997
  0
LINE
  8
0
 10
-176.094
 20
-16.997
 11
-176.281
 21
-16.9734
  0
LINE
  8
0
 10
-176.281
 20
-16.9734
 11
-176.464
 21
-16.9266
  0
LINE
  8
0
 10
-176.464
 20
-16.9266
 11
-176.639
 21
-16.8572
  0
LINE
  8
0
 10
-176.639
 20
-16.8572
 11
-176.804
 21
-16.7665
  0
LINE
  8
0
 10
-176.804
 20
-16.7665
 11
-176.956
 21
-16.6558
  0
LINE
  8
0
 10
-176.956
 20
-16.6558
 11
-177.093
 21
-16.5268
  0
LINE
  8
0
 10
-177.093
 20
-16.5268
 11
-177.214
 21
-16.3817
  0
LINE
  8
0
 10
-177.214
 20
-16.3817
 11
-177.314
 21
-16.2226
  0
LINE
  8
0
 10
-177.314
 20
-16.2226
 11
-177.395
 21
-16.0522
  0
LINE
  8
0
 10
-177.395
 20
-16.0522
 11
-177.453
 21
-15.873
  0
LINE
  8
0
 10
-177.453
 20
-15.873
 11
-177.488
 21
-15.688
  0
LINE
  8
0
 10
-177.488
 20
-15.688
 11
-177.5
 21
-15.5
  0
LINE
  8
0
 10
-177.5
 20
-15.5
 11
-177.488
 21
-15.312
  0
LINE
  8
0
 10
-177.488
 20
-15.312
 11
-177.453
 21
-15.127
  0
LINE
  8
0
 10
-177.453
 20
-15.127
 11
-177.395
 21
-14.9478
  0
LINE
  8
0
 10
-177.395
 20
-14.9478
 11
-177.314
 21
-14.7774
  0
LINE
  8
0
 10
-177.314
 20
-14.7774
 11
-177.214
 21
-14.6183
  0
LINE
  8
0
 10
-177.214
 20
-14.6183
 11
-177.093
 21
-14.4732
  0
LINE
  8
0
 10
-177.093
 20
-14.4732
 11
-176.956
 21
-14.3442
  0
LINE
  8
0
 10
-176.956
 20
-14.3442
 11
-176.804
 21
-14.2335
  0
LINE
  8
0
 10
-176.804
 20
-14.2335
 11
-176.639
 21
-14.1428
  0
LINE
  8
0
 10
-176.639
 20
-14.1428
 11
-176.464
 21
-14.0734
  0
LINE
  8
0
 10
-176.464
 20
-14.0734
 11
-176.281
 21
-14.0266
  0
LINE
  8
0
 10
-176.281
 20
-14.0266
 11
-176.094
 21
-14.003
  0
LINE
  8
0
 10
-176.094
 20
-14.003
 11
-175.906
 21
-14.003
  0
LINE
  8
0
 10
-175.906
 20
-14.003
 11
-175.719
 21
-14.0266
  0
LINE
  8
0
 10
-175.719
 20
-14.0266
 11
-175.536
 21
-14.0734
  0
LINE
  8
0
 10
-175.536
 20
-14.0734
 11
-175.361
 21
-14.1428
  0
LINE
  8
0
 10
-175.361
 20
-14.1428
 11
-175.196
 21
-14.2335
  0
LINE
  8
0
 10
-175.196
 20
-14.2335
 11
-175.044
 21
-14.3442
  0
LINE
  8
0
 10
-175.044
 20
-14.3442
 11
-174.907
 21
-14.4732
  0
LINE
  8
0
 10
-174.907
 20
-14.4732
 11
-174.786
 21
-14.6183
  0
LINE
  8
0
 10
-174.786
 20
-14.6183
 11
-174.686
 21
-14.7774
  0
LINE
  8
0
 10
-174.686
 20
-14.7774
 11
-174.605
 21
-14.9478
  0
LINE
  8
0
 10
-174.605
 20
-14.9478
 11
-174.547
 21
-15.127
  0
LINE
  8
0
 10
-174.547
 20
-15.127
 11
-174.512
 21
-15.312
  0
LINE
  8
0
 10
-174.512
 20
-15.312
 11
-174.5
 21
-15.5
  0
LINE
  8
0
 10
-174.5
 20
-15.5
 11
-174.512
 21
-15.688
  0
LINE
  8
0
 10
-174.512
 20
-15.688
 11
-174.547
 21
-15.873
  0
LINE
  8
0
 10
-174.547
 20
-15.873
 11
-174.605
 21
-16.0522
  0
LINE
  8
0
 10
-174.605
 20
-16.0522
 11
-174.686
 21
-16.2226
  0
LINE
  8
0
 10
-174.686
 20
-16.2226
 11
-174.786
 21
-16.3817
  0
LINE
  8
0
 10
-174.786
 20
-16.3817
 11
-174.907
 21
-16.5268
  0
LINE
  8
0
 10
-174.907
 20
-16.5268
 11
-175.044
 21
-16.6558
  0
LINE
  8
0
 10
-175.044
 20
-16.6558
 11
-175.196
 21
-16.7665
  0
LINE
  8
0
 10
-175.196
 20
-16.7665
 11
-175.361
 21
-16.8572
  0
LINE
  8
0
 10
-175.361
 20
-16.8572
 11
-175.536
 21
-16.9266
  0
LINE
  8
0
 10
-175.536
 20
-16.9266
 11
-175.719
 21
-16.9734
  0
LINE
  8
0
 10
-175.719
 20
-16.9734
 11
-175.906
 21
-16.997
  0
LINE
  8
0
 10
-175.906
 20
-16.997
 11
-176.094
 21
-16.997
  0
LINE
  8
0
 10
175.906
 20
-16.997
 11
175.719
 21
-16.9734
  0
LINE
  8
0
 10
175.719
 20
-16.9734
 11
175.536
 21
-16.9266
  0
LINE
  8
0
 10
175.536
 20
-16.9266
 11
175.361
 21
-16.8572
  0
LINE
  8
0
 10
175.361
 20
-16.8572
 11
175.196
 21
-16.7665
  0
LINE
  8
0
 10
175.196
 20
-16.7665
 11
175.044
 21
-16.6558
  0
LINE
  8
0
 10
175.044
 20
-16.6558
 11
174.907
 21
-16.5268
  0
LINE
  8
0
 10
174.907
 20
-16.5268
 11
174.786
 21
-16.3817
  0
LINE
  8
0
 10
174.786
 20
-16.3817
 11
174.686
 21
-16.2226
  0
LINE
  8
0
 10
174.686
 20
-16.2226
 11
174.605
 21
-16.0522
  0
LINE
  8
0
 10
174.605
 20
-16.0522
 11
174.547
 21
-15.873
  0
LINE
  8
0
 10
174.547
 20
-15.873
 11
174.512
 21
-15.688
  0
LINE
  8
0
 10
174.512
 20
-15.688
 11
174.5
 21
-15.5
  0
LINE
  8
0
 10
174.5
 20
-15.5
 11
174.512
 21
-15.312
  0
LINE
  8
0
 10
174.512
 20
-15.312
 11
174.547
 21
-15.127
  0
LINE
  8
0
 10
174.547
 20
-15.127
 11
174.605
 21
-14.9478
  0
LINE
  8
0
 10
174.605
 20
-14.9478
 11
174.686
 21
-14.7774
  0
LINE
  8
0
 10
174.686
 20
-14.7774
 11
174.786
 21
-14.6183
  0
LINE
  8
0
 10
174.786
 20
-14.6183
 11
174.907
 21
-14.4732
  0
LINE
  8
0
 10
174.907
 20
-14.4732
 11
175.044
 21
-14.3442
  0
LINE
  8
0
 10
175.044
 20
-14.3442
 11
175.196
 21
-14.2335
  0
LINE
  8
0
 10
175.196
 20
-14.2335
 11
175.361
 21
-14.1428
  0
LINE
  8
0
 10
175.361
 20
-14.1428
 11
175.536
 21
-14.0734
  0
LINE
  8
0
 10
175.536
 20
-14.0734
 11
175.719
 21
-14.0266
  0
LINE
  8
0
 10
175.719
 20
-14.0266
 11
175.906
 21
-14.003
  0
LINE
  8
0
 10
175.906
 20
-14.003
 11
176.094
 21
-14.003
  0
LINE
  8
0
 10
176.094
 20
-14.003
 11
176.281
 21
-14.0266
  0
LINE
  8
0
 10
176.281
 20
-14.0266
 11
176.464
 21
-14.0734
  0
LINE
  8
0
 10
176.464
 20
-14.0734
 11
176.639
 21
-14.1428
  0
LINE
  8
0
 10
176.639
 20
-14.1428
 11
176.804
 21
-14.2335
  0
LINE
  8
0
 10
176.804
 20
-14.2335
 11
176.956
 21
-14.3442
  0
LINE
  8
0
 10
176.956
 20
-14.3442
 11
177.093
 21
-14.4732
  0
LINE
  8
0
 10
177.093
 20
-14.4732
 11
177.214
 21
-14.6183
  0
LINE
  8
0
 10
177.214
 20
-14.6183
 11
177.314
 21
-14.7774
  0
LINE
  8
0
 10
177.314
 20
-14.7774
 11
177.395
 21
-14.9478
  0
LINE
  8
0
 10
177.395
 20
-14.9478
 11
177.453
 21
-15.127
  0
LINE
  8
0
 10
177.453
 20
-15.127
 11
177.488
 21
-15.312
  0
LINE
  8
0
 10
177.488
 20
-15.312
 11
177.5
 21
-15.5
  0
LINE
  8
0
 10
177.5
 20
-15.5
 11
177.488
 21
-15.688
  0
LINE
  8
0
 10
177.488
 20
-15.688
 11
177.453
 21
-15.873
  0
LINE
  8
0
 10
177.453
 20
-15.873
 11
177.395
 21
-16.0522
  0
LINE
  8
0
 10
177.395
 20
-16.0522
 11
177.314
 21
-16.2226
  0
LINE
  8
0
 10
177.314
 20
-16.2226
 11
177.214
 21
-16.3817
  0
LINE
  8
0
 10
177.214
 20
-16.3817
 11
177.093
 21
-16.5268
  0
LINE
  8
0
 10
177.093
 20
-16.5268
 11
176.956
 21
-16.6558
  0
LINE
  8
0
 10
176.956
 20
-16.6558
 11
176.804
 21
-16.7665
  0
LINE
  8
0
 10
176.804
 20
-16.7665
 11
176.639
 21
-16.8572
  0
LINE
  8
0
 10
176.639
 20
-16.8572
 11
176.464
 21
-16.9266
  0
LINE
  8
0
 10
176.464
 20
-16.9266
 11
176.281
 21
-16.9734
  0
LINE
  8
0
 10
176.281
 20
-16.9734
 11
176.094
 21
-16.997
  0
LINE
  8
0
 10
176.094
 20
-16.997
 11
175.906
 21
-16.997
  0
LINE
  8
0
 10
206.906
 20
-16.997
 11
206.719
 21
-16.9734
  0
LINE
  8
0
 10
206.719
 20
-16.9734
 11
206.536
 21
-16.9266
  0
LINE
  8
0
 10
206.536
 20
-16.9266
 11
206.361
 21
-16.8572
  0
LINE
  8
0
 10
206.361
 20
-16.8572
 11
206.196
 21
-16.7665
  0
LINE
  8
0
 10
206.196
 20
-16.7665
 11
206.044
 21
-16.6558
  0
LINE
  8
0
 10
206.044
 20
-16.6558
 11
205.907
 21
-16.5268
  0
LINE
  8
0
 10
205.907
 20
-16.5268
 11
205.786
 21
-16.3817
  0
LINE
  8
0
 10
205.786
 20
-16.3817
 11
205.686
 21
-16.2226
  0
LINE
  8
0
 10
205.686
 20
-16.2226
 11
205.605
 21
-16.0522
  0
LINE
  8
0
 10
205.605
 20
-16.0522
 11
205.547
 21
-15.873
  0
LINE
  8
0
 10
205.547
 20
-15.873
 11
205.512
 21
-15.688
  0
LINE
  8
0
 10
205.512
 20
-15.688
 11
205.5
 21
-15.5
  0
LINE
  8
0
 10
205.5
 20
-15.5
 11
205.512
 21
-15.312
  0
LINE
  8
0
 10
205.512
 20
-15.312
 11
205.547
 21
-15.127
  0
LINE
  8
0
 10
205.547
 20
-15.127
 11
205.605
 21
-14.9478
  0
LINE
  8
0
 10
205.605
 20
-14.9478
 11
205.686
 21
-14.7774
  0
LINE
  8
0
 10
205.686
 20
-14.7774
 11
205.786
 21
-14.6183
  0
LINE
  8
0
 10
205.786
 20
-14.6183
 11
205.907
 21
-14.4732
  0
LINE
  8
0
 10
205.907
 20
-14.4732
 11
206.044
 21
-14.3442
  0
LINE
  8
0
 10
206.044
 20
-14.3442
 11
206.196
 21
-14.2335
  0
LINE
  8
0
 10
206.196
 20
-14.2335
 11
206.361
 21
-14.1428
  0
LINE
  8
0
 10
206.361
 20
-14.1428
 11
206.536
 21
-14.0734
  0
LINE
  8
0
 10
206.536
 20
-14.0734
 11
206.719
 21
-14.0266
  0
LINE
  8
0
 10
206.719
 20
-14.0266
 11
206.906
 21
-14.003
  0
LINE
  8
0
 10
206.906
 20
-14.003
 11
207.094
 21
-14.003
  0
LINE
  8
0
 10
207.094
 20
-14.003
 11
207.281
 21
-14.0266
  0
LINE
  8
0
 10
207.281
 20
-14.0266
 11
207.464
 21
-14.0734
  0
LINE
  8
0
 10
207.464
 20
-14.0734
 11
207.639
 21
-14.1428
  0
LINE
  8
0
 10
207.639
 20
-14.1428
 11
207.804
 21
-14.2335
  0
LINE
  8
0
 10
207.804
 20
-14.2335
 11
207.956
 21
-14.3442
  0
LINE
  8
0
 10
207.956
 20
-14.3442
 11
208.093
 21
-14.4732
  0
LINE
  8
0
 10
208.093
 20
-14.4732
 11
208.214
 21
-14.6183
  0
LINE
  8
0
 10
208.214
 20
-14.6183
 11
208.314
 21
-14.7774
  0
LINE
  8
0
 10
208.314
 20
-14.7774
 11
208.395
 21
-14.9478
  0
LINE
  8
0
 10
208.395
 20
-14.9478
 11
208.453
 21
-15.127
  0
LINE
  8
0
 10
208.453
 20
-15.127
 11
208.488
 21
-15.312
  0
LINE
  8
0
 10
208.488
 20
-15.312
 11
208.5
 21
-15.5
  0
LINE
  8
0
 10
208.5
 20
-15.5
 11
208.488
 21
-15.688
  0
LINE
  8
0
 10
208.488
 20
-15.688
 11
208.453
 21
-15.873
  0
LINE
  8
0
 10
208.453
 20
-15.873
 11
208.395
 21
-16.0522
  0
LINE
  8
0
 10
208.395
 20
-16.0522
 11
208.314
 21
-16.2226
  0
LINE
  8
0
 10
208.314
 20
-16.2226
 11
208.214
 21
-16.3817
  0
LINE
  8
0
 10
208.214
 20
-16.3817
 11
208.093
 21
-16.5268
  0
LINE
  8
0
 10
208.093
 20
-16.5268
 11
207.956
 21
-16.6558
  0
LINE
  8
0
 10
207.956
 20
-16.6558
 11
207.804
 21
-16.7665
  0
LINE
  8
0
 10
207.804
 20
-16.7665
 11
207.639
 21
-16.8572
  0
LINE
  8
0
 10
207.639
 20
-16.8572
 11
207.464
 21
-16.9266
  0
LINE
  8
0
 10
207.464
 20
-16.9266
 11
207.281
 21
-16.9734
  0
LINE
  8
0
 10
207.281
 20
-16.9734
 11
207.094
 21
-16.997
  0
LINE
  8
0
 10
207.094
 20
-16.997
 11
206.906
 21
-16.997
  0
ENDSEC
  0
SECTION
  2
OBJECTS
  0
DICTIONARY
  0
ENDSEC
  0
EOF
