  0
SECTION
  2
BLOCKS
  0
ENDSEC
  0
SECTION
  2
ENTITIES
  0
LINE
  8
0
 10
175
 20
20
 11
-175
 21
20
  0
LINE
  8
0
 10
-175
 20
20
 11
-175
 21
-20
  0
LINE
  8
0
 10
-175
 20
-20
 11
175
 21
-20
  0
LINE
  8
0
 10
175
 20
-20
 11
175
 21
20
  0
LINE
  8
0
 10
90
 20
10
 11
90
 21
15
  0
LINE
  8
0
 10
90
 20
15
 11
110
 21
15
  0
LINE
  8
0
 10
110
 20
15
 11
110
 21
10
  0
LINE
  8
0
 10
110
 20
10
 11
90
 21
10
  0
LINE
  8
0
 10
50
 20
10
 11
50
 21
15
  0
LINE
  8
0
 10
50
 20
15
 11
70
 21
15
  0
LINE
  8
0
 10
70
 20
15
 11
70
 21
10
  0
LINE
  8
0
 10
70
 20
10
 11
50
 21
10
  0
LINE
  8
0
 10
10
 20
10
 11
10
 21
15
  0
LINE
  8
0
 10
10
 20
15
 11
30
 21
15
  0
LINE
  8
0
 10
30
 20
15
 11
30
 21
10
  0
LINE
  8
0
 10
30
 20
10
 11
10
 21
10
  0
LINE
  8
0
 10
-150
 20
10
 11
-150
 21
15
  0
LINE
  8
0
 10
-150
 20
15
 11
-130
 21
15
  0
LINE
  8
0
 10
-130
 20
15
 11
-130
 21
10
  0
LINE
  8
0
 10
-130
 20
10
 11
-150
 21
10
  0
LINE
  8
0
 10
-110
 20
10
 11
-110
 21
15
  0
LINE
  8
0
 10
-110
 20
15
 11
-90
 21
15
  0
LINE
  8
0
 10
-90
 20
15
 11
-90
 21
10
  0
LINE
  8
0
 10
-90
 20
10
 11
-110
 21
10
  0
LINE
  8
0
 10
-70
 20
10
 11
-70
 21
15
  0
LINE
  8
0
 10
-70
 20
15
 11
-50
 21
15
  0
LINE
  8
0
 10
-50
 20
15
 11
-50
 21
10
  0
LINE
  8
0
 10
-50
 20
10
 11
-70
 21
10
  0
LINE
  8
0
 10
-30
 20
10
 11
-30
 21
15
  0
LINE
  8
0
 10
-30
 20
15
 11
-10
 21
15
  0
LINE
  8
0
 10
-10
 20
15
 11
-10
 21
10
  0
LINE
  8
0
 10
-10
 20
10
 11
-30
 21
10
  0
LINE
  8
0
 10
130
 20
10
 11
130
 21
15
  0
LINE
  8
0
 10
130
 20
15
 11
150
 21
15
  0
LINE
  8
0
 10
150
 20
15
 11
150
 21
10
  0
LINE
  8
0
 10
150
 20
10
 11
130
 21
10
  0
LINE
  8
0
 10
-168
 20
-10
 11
-168.241
 21
-9.98535
  0
LINE
  8
0
 10
-168.241
 20
-9.98535
 11
-168.479
 21
-9.94141
  0
LINE
  8
0
 10
-168.479
 20
-9.94141
 11
-168.709
 21
-9.87012
  0
LINE
  8
0
 10
-168.709
 20
-9.87012
 11
-168.93
 21
-9.77051
  0
LINE
  8
0
 10
-168.93
 20
-9.77051
 11
-169.136
 21
-9.64551
  0
LINE
  8
0
 10
-169.136
 20
-9.64551
 11
-169.326
 21
-9.49707
  0
LINE
  8
0
 10
-169.326
 20
-9.49707
 11
-169.497
 21
-9.32617
  0
LINE
  8
0
 10
-169.497
 20
-9.32617
 11
-169.646
 21
-9.13574
  0
LINE
  8
0
 10
-169.646
 20
-9.13574
 11
-169.771
 21
-8.92969
  0
LINE
  8
0
 10
-169.771
 20
-8.92969
 11
-169.87
 21
-8.70898
  0
LINE
  8
0
 10
-169.87
 20
-8.70898
 11
-169.941
 21
-8.47852
  0
LINE
  8
0
 10
-169.941
 20
-8.47852
 11
-169.985
 21
-8.24121
  0
LINE
  8
0
 10
-169.985
 20
-8.24121
 11
-170
 21
-8
  0
LINE
  8
0
 10
-170
 20
-8
 11
-170
 21
-3.2998
  0
LINE
  8
0
 10
-170
 20
-3.2998
 11
-169.994
 21
-3.20312
  0
LINE
  8
0
 10
-169.994
 20
-3.20312
 11
-169.977
 21
-3.1084
  0
LINE
  8
0
 10
-169.977
 20
-3.1084
 11
-169.948
 21
-3.0166
  0
LINE
  8
0
 10
-169.948
 20
-3.0166
 11
-169.908
 21
-2.92773
  0
LINE
  8
0
 10
-169.908
 20
-2.92773
 11
-169.858
 21
-2.8457
  0
LINE
  8
0
 10
-169.858
 20
-2.8457
 11
-169.799
 21
-2.76953
  0
LINE
  8
0
 10
-169.799
 20
-2.76953
 11
-169.73
 21
-2.70117
  0
LINE
  8
0
 10
-169.73
 20
-2.70117
 11
-169.654
 21
-2.6416
  0
LINE
  8
0
 10
-169.654
 20
-2.6416
 11
-169.572
 21
-2.5918
  0
LINE
  8
0
 10
-169.572
 20
-2.5918
 11
-169.483
 21
-2.55176
  0
LINE
  8
0
 10
-169.483
 20
-2.55176
 11
-169.392
 21
-2.52344
  0
LINE
  8
0
 10
-169.392
 20
-2.52344
 11
-169.297
 21
-2.50586
  0
LINE
  8
0
 10
-169.297
 20
-2.50586
 11
-169.2
 21
-2.5
  0
LINE
  8
0
 10
-169.2
 20
-2.5
 11
-168.5
 21
-2.5
  0
LINE
  8
0
 10
-168.5
 20
-2.5
 11
-168.464
 21
-2.50195
  0
LINE
  8
0
 10
-168.464
 20
-2.50195
 11
-168.428
 21
-2.50879
  0
LINE
  8
0
 10
-168.428
 20
-2.50879
 11
-168.394
 21
-2.51953
  0
LINE
  8
0
 10
-168.394
 20
-2.51953
 11
-168.36
 21
-2.53418
  0
LINE
  8
0
 10
-168.36
 20
-2.53418
 11
-168.329
 21
-2.55273
  0
LINE
  8
0
 10
-168.329
 20
-2.55273
 11
-168.301
 21
-2.5752
  0
LINE
  8
0
 10
-168.301
 20
-2.5752
 11
-168.275
 21
-2.60059
  0
LINE
  8
0
 10
-168.275
 20
-2.60059
 11
-168.253
 21
-2.62988
  0
LINE
  8
0
 10
-168.253
 20
-2.62988
 11
-168.234
 21
-2.66016
  0
LINE
  8
0
 10
-168.234
 20
-2.66016
 11
-168.22
 21
-2.69336
  0
LINE
  8
0
 10
-168.22
 20
-2.69336
 11
-168.209
 21
-2.72852
  0
LINE
  8
0
 10
-168.209
 20
-2.72852
 11
-168.202
 21
-2.76367
  0
LINE
  8
0
 10
-168.202
 20
-2.76367
 11
-168.2
 21
-2.7998
  0
LINE
  8
0
 10
-168.2
 20
-2.7998
 11
-168.2
 21
-4.99609
  0
LINE
  8
0
 10
-168.2
 20
-4.99609
 11
-168.194
 21
-5.09473
  0
LINE
  8
0
 10
-168.194
 20
-5.09473
 11
-168.176
 21
-5.19238
  0
LINE
  8
0
 10
-168.176
 20
-5.19238
 11
-168.146
 21
-5.28711
  0
LINE
  8
0
 10
-168.146
 20
-5.28711
 11
-168.104
 21
-5.37695
  0
LINE
  8
0
 10
-168.104
 20
-5.37695
 11
-168.051
 21
-5.46094
  0
LINE
  8
0
 10
-168.051
 20
-5.46094
 11
-167.988
 21
-5.53809
  0
LINE
  8
0
 10
-167.988
 20
-5.53809
 11
-167.917
 21
-5.60645
  0
LINE
  8
0
 10
-167.917
 20
-5.60645
 11
-167.838
 21
-5.66602
  0
LINE
  8
0
 10
-167.838
 20
-5.66602
 11
-167.751
 21
-5.71484
  0
LINE
  8
0
 10
-167.751
 20
-5.71484
 11
-167.66
 21
-5.75293
  0
LINE
  8
0
 10
-167.66
 20
-5.75293
 11
-167.564
 21
-5.77832
  0
LINE
  8
0
 10
-167.564
 20
-5.77832
 11
-167.466
 21
-5.79297
  0
LINE
  8
0
 10
-167.466
 20
-5.79297
 11
-167.367
 21
-5.79492
  0
LINE
  8
0
 10
-167.367
 20
-5.79492
 11
-167.269
 21
-5.78516
  0
LINE
  8
0
 10
-167.269
 20
-5.78516
 11
-167.172
 21
-5.7627
  0
LINE
  8
0
 10
-167.172
 20
-5.7627
 11
-167.079
 21
-5.72852
  0
LINE
  8
0
 10
-167.079
 20
-5.72852
 11
-166.99
 21
-5.68262
  0
LINE
  8
0
 10
-166.99
 20
-5.68262
 11
-166.908
 21
-5.62695
  0
LINE
  8
0
 10
-166.908
 20
-5.62695
 11
-166.834
 21
-5.56152
  0
LINE
  8
0
 10
-166.834
 20
-5.56152
 11
-164.528
 21
-3.25586
  0
LINE
  8
0
 10
-164.528
 20
-3.25586
 11
-164.305
 21
-3.00488
  0
LINE
  8
0
 10
-164.305
 20
-3.00488
 11
-164.109
 21
-2.73047
  0
LINE
  8
0
 10
-164.109
 20
-2.73047
 11
-163.947
 21
-2.43652
  0
LINE
  8
0
 10
-163.947
 20
-2.43652
 11
-163.818
 21
-2.125
  0
LINE
  8
0
 10
-163.818
 20
-2.125
 11
-163.726
 21
-1.80176
  0
LINE
  8
0
 10
-163.726
 20
-1.80176
 11
-163.669
 21
-1.4707
  0
LINE
  8
0
 10
-163.669
 20
-1.4707
 11
-163.65
 21
-1.13477
  0
LINE
  8
0
 10
-163.65
 20
-1.13477
 11
-163.65
 21
1.13477
  0
LINE
  8
0
 10
-163.65
 20
1.13477
 11
-163.669
 21
1.4707
  0
LINE
  8
0
 10
-163.669
 20
1.4707
 11
-163.726
 21
1.80176
  0
LINE
  8
0
 10
-163.726
 20
1.80176
 11
-163.818
 21
2.125
  0
LINE
  8
0
 10
-163.818
 20
2.125
 11
-163.947
 21
2.43652
  0
LINE
  8
0
 10
-163.947
 20
2.43652
 11
-164.109
 21
2.73047
  0
LINE
  8
0
 10
-164.109
 20
2.73047
 11
-164.305
 21
3.00488
  0
LINE
  8
0
 10
-164.305
 20
3.00488
 11
-164.528
 21
3.25586
  0
LINE
  8
0
 10
-164.528
 20
3.25586
 11
-166.834
 21
5.56152
  0
LINE
  8
0
 10
-166.834
 20
5.56152
 11
-166.908
 21
5.62695
  0
LINE
  8
0
 10
-166.908
 20
5.62695
 11
-166.99
 21
5.68262
  0
LINE
  8
0
 10
-166.99
 20
5.68262
 11
-167.079
 21
5.72852
  0
LINE
  8
0
 10
-167.079
 20
5.72852
 11
-167.172
 21
5.7627
  0
LINE
  8
0
 10
-167.172
 20
5.7627
 11
-167.269
 21
5.78516
  0
LINE
  8
0
 10
-167.269
 20
5.78516
 11
-167.367
 21
5.79492
  0
LINE
  8
0
 10
-167.367
 20
5.79492
 11
-167.466
 21
5.79297
  0
LINE
  8
0
 10
-167.466
 20
5.79297
 11
-167.564
 21
5.77832
  0
LINE
  8
0
 10
-167.564
 20
5.77832
 11
-167.66
 21
5.75293
  0
LINE
  8
0
 10
-167.66
 20
5.75293
 11
-167.751
 21
5.71484
  0
LINE
  8
0
 10
-167.751
 20
5.71484
 11
-167.838
 21
5.66602
  0
LINE
  8
0
 10
-167.838
 20
5.66602
 11
-167.917
 21
5.60645
  0
LINE
  8
0
 10
-167.917
 20
5.60645
 11
-167.988
 21
5.53809
  0
LINE
  8
0
 10
-167.988
 20
5.53809
 11
-168.051
 21
5.46094
  0
LINE
  8
0
 10
-168.051
 20
5.46094
 11
-168.104
 21
5.37695
  0
LINE
  8
0
 10
-168.104
 20
5.37695
 11
-168.146
 21
5.28711
  0
LINE
  8
0
 10
-168.146
 20
5.28711
 11
-168.176
 21
5.19238
  0
LINE
  8
0
 10
-168.176
 20
5.19238
 11
-168.194
 21
5.09473
  0
LINE
  8
0
 10
-168.194
 20
5.09473
 11
-168.2
 21
4.99609
  0
LINE
  8
0
 10
-168.2
 20
4.99609
 11
-168.2
 21
2.7998
  0
LINE
  8
0
 10
-168.2
 20
2.7998
 11
-168.202
 21
2.76367
  0
LINE
  8
0
 10
-168.202
 20
2.76367
 11
-168.209
 21
2.72852
  0
LINE
  8
0
 10
-168.209
 20
2.72852
 11
-168.22
 21
2.69336
  0
LINE
  8
0
 10
-168.22
 20
2.69336
 11
-168.234
 21
2.66016
  0
LINE
  8
0
 10
-168.234
 20
2.66016
 11
-168.253
 21
2.62988
  0
LINE
  8
0
 10
-168.253
 20
2.62988
 11
-168.275
 21
2.60059
  0
LINE
  8
0
 10
-168.275
 20
2.60059
 11
-168.301
 21
2.5752
  0
LINE
  8
0
 10
-168.301
 20
2.5752
 11
-168.329
 21
2.55273
  0
LINE
  8
0
 10
-168.329
 20
2.55273
 11
-168.36
 21
2.53418
  0
LINE
  8
0
 10
-168.36
 20
2.53418
 11
-168.394
 21
2.51953
  0
LINE
  8
0
 10
-168.394
 20
2.51953
 11
-168.428
 21
2.50879
  0
LINE
  8
0
 10
-168.428
 20
2.50879
 11
-168.464
 21
2.50195
  0
LINE
  8
0
 10
-168.464
 20
2.50195
 11
-168.5
 21
2.5
  0
LINE
  8
0
 10
-168.5
 20
2.5
 11
-169.2
 21
2.5
  0
LINE
  8
0
 10
-169.2
 20
2.5
 11
-169.297
 21
2.50586
  0
LINE
  8
0
 10
-169.297
 20
2.50586
 11
-169.392
 21
2.52344
  0
LINE
  8
0
 10
-169.392
 20
2.52344
 11
-169.483
 21
2.55176
  0
LINE
  8
0
 10
-169.483
 20
2.55176
 11
-169.572
 21
2.5918
  0
LINE
  8
0
 10
-169.572
 20
2.5918
 11
-169.654
 21
2.6416
  0
LINE
  8
0
 10
-169.654
 20
2.6416
 11
-169.73
 21
2.70117
  0
LINE
  8
0
 10
-169.73
 20
2.70117
 11
-169.799
 21
2.76953
  0
LINE
  8
0
 10
-169.799
 20
2.76953
 11
-169.858
 21
2.8457
  0
LINE
  8
0
 10
-169.858
 20
2.8457
 11
-169.908
 21
2.92773
  0
LINE
  8
0
 10
-169.908
 20
2.92773
 11
-169.948
 21
3.0166
  0
LINE
  8
0
 10
-169.948
 20
3.0166
 11
-169.977
 21
3.1084
  0
LINE
  8
0
 10
-169.977
 20
3.1084
 11
-169.994
 21
3.20312
  0
LINE
  8
0
 10
-169.994
 20
3.20312
 11
-170
 21
3.2998
  0
LINE
  8
0
 10
-170
 20
3.2998
 11
-170
 21
8
  0
LINE
  8
0
 10
-170
 20
8
 11
-169.985
 21
8.24121
  0
LINE
  8
0
 10
-169.985
 20
8.24121
 11
-169.941
 21
8.47852
  0
LINE
  8
0
 10
-169.941
 20
8.47852
 11
-169.87
 21
8.70898
  0
LINE
  8
0
 10
-169.87
 20
8.70898
 11
-169.771
 21
8.92969
  0
LINE
  8
0
 10
-169.771
 20
8.92969
 11
-169.646
 21
9.13574
  0
LINE
  8
0
 10
-169.646
 20
9.13574
 11
-169.497
 21
9.32617
  0
LINE
  8
0
 10
-169.497
 20
9.32617
 11
-169.326
 21
9.49707
  0
LINE
  8
0
 10
-169.326
 20
9.49707
 11
-169.136
 21
9.64551
  0
LINE
  8
0
 10
-169.136
 20
9.64551
 11
-168.93
 21
9.77051
  0
LINE
  8
0
 10
-168.93
 20
9.77051
 11
-168.709
 21
9.87012
  0
LINE
  8
0
 10
-168.709
 20
9.87012
 11
-168.479
 21
9.94141
  0
LINE
  8
0
 10
-168.479
 20
9.94141
 11
-168.241
 21
9.98535
  0
LINE
  8
0
 10
-168.241
 20
9.98535
 11
-168
 21
10
  0
LINE
  8
0
 10
-168
 20
10
 11
-163.3
 21
10
  0
LINE
  8
0
 10
-163.3
 20
10
 11
-163.203
 21
9.99414
  0
LINE
  8
0
 10
-163.203
 20
9.99414
 11
-163.108
 21
9.97656
  0
LINE
  8
0
 10
-163.108
 20
9.97656
 11
-163.017
 21
9.94824
  0
LINE
  8
0
 10
-163.017
 20
9.94824
 11
-162.928
 21
9.9082
  0
LINE
  8
0
 10
-162.928
 20
9.9082
 11
-162.846
 21
9.8584
  0
LINE
  8
0
 10
-162.846
 20
9.8584
 11
-162.77
 21
9.79883
  0
LINE
  8
0
 10
-162.77
 20
9.79883
 11
-162.701
 21
9.73047
  0
LINE
  8
0
 10
-162.701
 20
9.73047
 11
-162.642
 21
9.6543
  0
LINE
  8
0
 10
-162.642
 20
9.6543
 11
-162.592
 21
9.57227
  0
LINE
  8
0
 10
-162.592
 20
9.57227
 11
-162.552
 21
9.4834
  0
LINE
  8
0
 10
-162.552
 20
9.4834
 11
-162.523
 21
9.3916
  0
LINE
  8
0
 10
-162.523
 20
9.3916
 11
-162.506
 21
9.29688
  0
LINE
  8
0
 10
-162.506
 20
9.29688
 11
-162.5
 21
9.2002
  0
LINE
  8
0
 10
-162.5
 20
9.2002
 11
-162.5
 21
8.5
  0
LINE
  8
0
 10
-162.5
 20
8.5
 11
-162.502
 21
8.46387
  0
LINE
  8
0
 10
-162.502
 20
8.46387
 11
-162.509
 21
8.42773
  0
LINE
  8
0
 10
-162.509
 20
8.42773
 11
-162.52
 21
8.39355
  0
LINE
  8
0
 10
-162.52
 20
8.39355
 11
-162.534
 21
8.36035
  0
LINE
  8
0
 10
-162.534
 20
8.36035
 11
-162.553
 21
8.3291
  0
LINE
  8
0
 10
-162.553
 20
8.3291
 11
-162.575
 21
8.30078
  0
LINE
  8
0
 10
-162.575
 20
8.30078
 11
-162.601
 21
8.27539
  0
LINE
  8
0
 10
-162.601
 20
8.27539
 11
-162.63
 21
8.25293
  0
LINE
  8
0
 10
-162.63
 20
8.25293
 11
-162.66
 21
8.23438
  0
LINE
  8
0
 10
-162.66
 20
8.23438
 11
-162.693
 21
8.21973
  0
LINE
  8
0
 10
-162.693
 20
8.21973
 11
-162.729
 21
8.20898
  0
LINE
  8
0
 10
-162.729
 20
8.20898
 11
-162.764
 21
8.20215
  0
LINE
  8
0
 10
-162.764
 20
8.20215
 11
-162.8
 21
8.2002
  0
LINE
  8
0
 10
-162.8
 20
8.2002
 11
-164.996
 21
8.2002
  0
LINE
  8
0
 10
-164.996
 20
8.2002
 11
-165.095
 21
8.19434
  0
LINE
  8
0
 10
-165.095
 20
8.19434
 11
-165.192
 21
8.17578
  0
LINE
  8
0
 10
-165.192
 20
8.17578
 11
-165.287
 21
8.14551
  0
LINE
  8
0
 10
-165.287
 20
8.14551
 11
-165.377
 21
8.10352
  0
LINE
  8
0
 10
-165.377
 20
8.10352
 11
-165.461
 21
8.05078
  0
LINE
  8
0
 10
-165.461
 20
8.05078
 11
-165.538
 21
7.98828
  0
LINE
  8
0
 10
-165.538
 20
7.98828
 11
-165.606
 21
7.91699
  0
LINE
  8
0
 10
-165.606
 20
7.91699
 11
-165.666
 21
7.83789
  0
LINE
  8
0
 10
-165.666
 20
7.83789
 11
-165.715
 21
7.75098
  0
LINE
  8
0
 10
-165.715
 20
7.75098
 11
-165.753
 21
7.66016
  0
LINE
  8
0
 10
-165.753
 20
7.66016
 11
-165.779
 21
7.56445
  0
LINE
  8
0
 10
-165.779
 20
7.56445
 11
-165.793
 21
7.46582
  0
LINE
  8
0
 10
-165.793
 20
7.46582
 11
-165.795
 21
7.36719
  0
LINE
  8
0
 10
-165.795
 20
7.36719
 11
-165.785
 21
7.26855
  0
LINE
  8
0
 10
-165.785
 20
7.26855
 11
-165.763
 21
7.17188
  0
LINE
  8
0
 10
-165.763
 20
7.17188
 11
-165.729
 21
7.0791
  0
LINE
  8
0
 10
-165.729
 20
7.0791
 11
-165.683
 21
6.99023
  0
LINE
  8
0
 10
-165.683
 20
6.99023
 11
-165.627
 21
6.9082
  0
LINE
  8
0
 10
-165.627
 20
6.9082
 11
-165.562
 21
6.83398
  0
LINE
  8
0
 10
-165.562
 20
6.83398
 11
-163.256
 21
4.52832
  0
LINE
  8
0
 10
-163.256
 20
4.52832
 11
-163.005
 21
4.30469
  0
LINE
  8
0
 10
-163.005
 20
4.30469
 11
-162.73
 21
4.10938
  0
LINE
  8
0
 10
-162.73
 20
4.10938
 11
-162.437
 21
3.94727
  0
LINE
  8
0
 10
-162.437
 20
3.94727
 11
-162.125
 21
3.81836
  0
LINE
  8
0
 10
-162.125
 20
3.81836
 11
-161.802
 21
3.72559
  0
LINE
  8
0
 10
-161.802
 20
3.72559
 11
-161.471
 21
3.66895
  0
LINE
  8
0
 10
-161.471
 20
3.66895
 11
-161.135
 21
3.65039
  0
LINE
  8
0
 10
-161.135
 20
3.65039
 11
-158.865
 21
3.65039
  0
LINE
  8
0
 10
-158.865
 20
3.65039
 11
-158.529
 21
3.66895
  0
LINE
  8
0
 10
-158.529
 20
3.66895
 11
-158.198
 21
3.72559
  0
LINE
  8
0
 10
-158.198
 20
3.72559
 11
-157.875
 21
3.81836
  0
LINE
  8
0
 10
-157.875
 20
3.81836
 11
-157.563
 21
3.94727
  0
LINE
  8
0
 10
-157.563
 20
3.94727
 11
-157.27
 21
4.10938
  0
LINE
  8
0
 10
-157.27
 20
4.10938
 11
-156.995
 21
4.30469
  0
LINE
  8
0
 10
-156.995
 20
4.30469
 11
-156.744
 21
4.52832
  0
LINE
  8
0
 10
-156.744
 20
4.52832
 11
-154.438
 21
6.83398
  0
LINE
  8
0
 10
-154.438
 20
6.83398
 11
-154.373
 21
6.9082
  0
LINE
  8
0
 10
-154.373
 20
6.9082
 11
-154.317
 21
6.99023
  0
LINE
  8
0
 10
-154.317
 20
6.99023
 11
-154.271
 21
7.0791
  0
LINE
  8
0
 10
-154.271
 20
7.0791
 11
-154.237
 21
7.17188
  0
LINE
  8
0
 10
-154.237
 20
7.17188
 11
-154.215
 21
7.26855
  0
LINE
  8
0
 10
-154.215
 20
7.26855
 11
-154.205
 21
7.36719
  0
LINE
  8
0
 10
-154.205
 20
7.36719
 11
-154.207
 21
7.46582
  0
LINE
  8
0
 10
-154.207
 20
7.46582
 11
-154.221
 21
7.56445
  0
LINE
  8
0
 10
-154.221
 20
7.56445
 11
-154.247
 21
7.66016
  0
LINE
  8
0
 10
-154.247
 20
7.66016
 11
-154.285
 21
7.75098
  0
LINE
  8
0
 10
-154.285
 20
7.75098
 11
-154.334
 21
7.83789
  0
LINE
  8
0
 10
-154.334
 20
7.83789
 11
-154.394
 21
7.91699
  0
LINE
  8
0
 10
-154.394
 20
7.91699
 11
-154.462
 21
7.98828
  0
LINE
  8
0
 10
-154.462
 20
7.98828
 11
-154.539
 21
8.05078
  0
LINE
  8
0
 10
-154.539
 20
8.05078
 11
-154.623
 21
8.10352
  0
LINE
  8
0
 10
-154.623
 20
8.10352
 11
-154.713
 21
8.14551
  0
LINE
  8
0
 10
-154.713
 20
8.14551
 11
-154.808
 21
8.17578
  0
LINE
  8
0
 10
-154.808
 20
8.17578
 11
-154.905
 21
8.19434
  0
LINE
  8
0
 10
-154.905
 20
8.19434
 11
-155.004
 21
8.2002
  0
LINE
  8
0
 10
-155.004
 20
8.2002
 11
-157.2
 21
8.2002
  0
LINE
  8
0
 10
-157.2
 20
8.2002
 11
-157.236
 21
8.20215
  0
LINE
  8
0
 10
-157.236
 20
8.20215
 11
-157.271
 21
8.20898
  0
LINE
  8
0
 10
-157.271
 20
8.20898
 11
-157.307
 21
8.21973
  0
LINE
  8
0
 10
-157.307
 20
8.21973
 11
-157.34
 21
8.23438
  0
LINE
  8
0
 10
-157.34
 20
8.23438
 11
-157.37
 21
8.25293
  0
LINE
  8
0
 10
-157.37
 20
8.25293
 11
-157.399
 21
8.27539
  0
LINE
  8
0
 10
-157.399
 20
8.27539
 11
-157.425
 21
8.30078
  0
LINE
  8
0
 10
-157.425
 20
8.30078
 11
-157.447
 21
8.3291
  0
LINE
  8
0
 10
-157.447
 20
8.3291
 11
-157.466
 21
8.36035
  0
LINE
  8
0
 10
-157.466
 20
8.36035
 11
-157.48
 21
8.39355
  0
LINE
  8
0
 10
-157.48
 20
8.39355
 11
-157.491
 21
8.42773
  0
LINE
  8
0
 10
-157.491
 20
8.42773
 11
-157.498
 21
8.46387
  0
LINE
  8
0
 10
-157.498
 20
8.46387
 11
-157.5
 21
8.5
  0
LINE
  8
0
 10
-157.5
 20
8.5
 11
-157.5
 21
9.2002
  0
LINE
  8
0
 10
-157.5
 20
9.2002
 11
-157.494
 21
9.29688
  0
LINE
  8
0
 10
-157.494
 20
9.29688
 11
-157.477
 21
9.3916
  0
LINE
  8
0
 10
-157.477
 20
9.3916
 11
-157.448
 21
9.4834
  0
LINE
  8
0
 10
-157.448
 20
9.4834
 11
-157.408
 21
9.57227
  0
LINE
  8
0
 10
-157.408
 20
9.57227
 11
-157.358
 21
9.6543
  0
LINE
  8
0
 10
-157.358
 20
9.6543
 11
-157.299
 21
9.73047
  0
LINE
  8
0
 10
-157.299
 20
9.73047
 11
-157.23
 21
9.79883
  0
LINE
  8
0
 10
-157.23
 20
9.79883
 11
-157.154
 21
9.8584
  0
LINE
  8
0
 10
-157.154
 20
9.8584
 11
-157.072
 21
9.9082
  0
LINE
  8
0
 10
-157.072
 20
9.9082
 11
-156.983
 21
9.94824
  0
LINE
  8
0
 10
-156.983
 20
9.94824
 11
-156.892
 21
9.97656
  0
LINE
  8
0
 10
-156.892
 20
9.97656
 11
-156.797
 21
9.99414
  0
LINE
  8
0
 10
-156.797
 20
9.99414
 11
-156.7
 21
10
  0
LINE
  8
0
 10
-156.7
 20
10
 11
-152
 21
10
  0
LINE
  8
0
 10
-152
 20
10
 11
-151.759
 21
9.98535
  0
LINE
  8
0
 10
-151.759
 20
9.98535
 11
-151.521
 21
9.94141
  0
LINE
  8
0
 10
-151.521
 20
9.94141
 11
-151.291
 21
9.87012
  0
LINE
  8
0
 10
-151.291
 20
9.87012
 11
-151.07
 21
9.77051
  0
LINE
  8
0
 10
-151.07
 20
9.77051
 11
-150.864
 21
9.64551
  0
LINE
  8
0
 10
-150.864
 20
9.64551
 11
-150.674
 21
9.49707
  0
LINE
  8
0
 10
-150.674
 20
9.49707
 11
-150.503
 21
9.32617
  0
LINE
  8
0
 10
-150.503
 20
9.32617
 11
-150.354
 21
9.13574
  0
LINE
  8
0
 10
-150.354
 20
9.13574
 11
-150.229
 21
8.92969
  0
LINE
  8
0
 10
-150.229
 20
8.92969
 11
-150.13
 21
8.70898
  0
LINE
  8
0
 10
-150.13
 20
8.70898
 11
-150.059
 21
8.47852
  0
LINE
  8
0
 10
-150.059
 20
8.47852
 11
-150.015
 21
8.24121
  0
LINE
  8
0
 10
-150.015
 20
8.24121
 11
-150
 21
8
  0
LINE
  8
0
 10
-150
 20
8
 11
-150
 21
3.2998
  0
LINE
  8
0
 10
-150
 20
3.2998
 11
-150.006
 21
3.20312
  0
LINE
  8
0
 10
-150.006
 20
3.20312
 11
-150.023
 21
3.1084
  0
LINE
  8
0
 10
-150.023
 20
3.1084
 11
-150.052
 21
3.0166
  0
LINE
  8
0
 10
-150.052
 20
3.0166
 11
-150.092
 21
2.92773
  0
LINE
  8
0
 10
-150.092
 20
2.92773
 11
-150.142
 21
2.8457
  0
LINE
  8
0
 10
-150.142
 20
2.8457
 11
-150.201
 21
2.76953
  0
LINE
  8
0
 10
-150.201
 20
2.76953
 11
-150.27
 21
2.70117
  0
LINE
  8
0
 10
-150.27
 20
2.70117
 11
-150.346
 21
2.6416
  0
LINE
  8
0
 10
-150.346
 20
2.6416
 11
-150.428
 21
2.5918
  0
LINE
  8
0
 10
-150.428
 20
2.5918
 11
-150.517
 21
2.55176
  0
LINE
  8
0
 10
-150.517
 20
2.55176
 11
-150.608
 21
2.52344
  0
LINE
  8
0
 10
-150.608
 20
2.52344
 11
-150.703
 21
2.50586
  0
LINE
  8
0
 10
-150.703
 20
2.50586
 11
-150.8
 21
2.5
  0
LINE
  8
0
 10
-150.8
 20
2.5
 11
-151.5
 21
2.5
  0
LINE
  8
0
 10
-151.5
 20
2.5
 11
-151.536
 21
2.50195
  0
LINE
  8
0
 10
-151.536
 20
2.50195
 11
-151.572
 21
2.50879
  0
LINE
  8
0
 10
-151.572
 20
2.50879
 11
-151.606
 21
2.51953
  0
LINE
  8
0
 10
-151.606
 20
2.51953
 11
-151.64
 21
2.53418
  0
LINE
  8
0
 10
-151.64
 20
2.53418
 11
-151.671
 21
2.55273
  0
LINE
  8
0
 10
-151.671
 20
2.55273
 11
-151.699
 21
2.5752
  0
LINE
  8
0
 10
-151.699
 20
2.5752
 11
-151.725
 21
2.60059
  0
LINE
  8
0
 10
-151.725
 20
2.60059
 11
-151.747
 21
2.62988
  0
LINE
  8
0
 10
-151.747
 20
2.62988
 11
-151.766
 21
2.66016
  0
LINE
  8
0
 10
-151.766
 20
2.66016
 11
-151.78
 21
2.69336
  0
LINE
  8
0
 10
-151.78
 20
2.69336
 11
-151.791
 21
2.72852
  0
LINE
  8
0
 10
-151.791
 20
2.72852
 11
-151.798
 21
2.76367
  0
LINE
  8
0
 10
-151.798
 20
2.76367
 11
-151.8
 21
2.7998
  0
LINE
  8
0
 10
-151.8
 20
2.7998
 11
-151.8
 21
4.99609
  0
LINE
  8
0
 10
-151.8
 20
4.99609
 11
-151.806
 21
5.09473
  0
LINE
  8
0
 10
-151.806
 20
5.09473
 11
-151.824
 21
5.19238
  0
LINE
  8
0
 10
-151.824
 20
5.19238
 11
-151.854
 21
5.28711
  0
LINE
  8
0
 10
-151.854
 20
5.28711
 11
-151.896
 21
5.37695
  0
LINE
  8
0
 10
-151.896
 20
5.37695
 11
-151.949
 21
5.46094
  0
LINE
  8
0
 10
-151.949
 20
5.46094
 11
-152.012
 21
5.53809
  0
LINE
  8
0
 10
-152.012
 20
5.53809
 11
-152.083
 21
5.60645
  0
LINE
  8
0
 10
-152.083
 20
5.60645
 11
-152.162
 21
5.66602
  0
LINE
  8
0
 10
-152.162
 20
5.66602
 11
-152.249
 21
5.71484
  0
LINE
  8
0
 10
-152.249
 20
5.71484
 11
-152.34
 21
5.75293
  0
LINE
  8
0
 10
-152.34
 20
5.75293
 11
-152.436
 21
5.77832
  0
LINE
  8
0
 10
-152.436
 20
5.77832
 11
-152.534
 21
5.79297
  0
LINE
  8
0
 10
-152.534
 20
5.79297
 11
-152.633
 21
5.79492
  0
LINE
  8
0
 10
-152.633
 20
5.79492
 11
-152.731
 21
5.78516
  0
LINE
  8
0
 10
-152.731
 20
5.78516
 11
-152.828
 21
5.7627
  0
LINE
  8
0
 10
-152.828
 20
5.7627
 11
-152.921
 21
5.72852
  0
LINE
  8
0
 10
-152.921
 20
5.72852
 11
-153.01
 21
5.68262
  0
LINE
  8
0
 10
-153.01
 20
5.68262
 11
-153.092
 21
5.62695
  0
LINE
  8
0
 10
-153.092
 20
5.62695
 11
-153.166
 21
5.56152
  0
LINE
  8
0
 10
-153.166
 20
5.56152
 11
-155.472
 21
3.25586
  0
LINE
  8
0
 10
-155.472
 20
3.25586
 11
-155.695
 21
3.00488
  0
LINE
  8
0
 10
-155.695
 20
3.00488
 11
-155.891
 21
2.73047
  0
LINE
  8
0
 10
-155.891
 20
2.73047
 11
-156.053
 21
2.43652
  0
LINE
  8
0
 10
-156.053
 20
2.43652
 11
-156.182
 21
2.125
  0
LINE
  8
0
 10
-156.182
 20
2.125
 11
-156.274
 21
1.80176
  0
LINE
  8
0
 10
-156.274
 20
1.80176
 11
-156.331
 21
1.4707
  0
LINE
  8
0
 10
-156.331
 20
1.4707
 11
-156.35
 21
1.13477
  0
LINE
  8
0
 10
-156.35
 20
1.13477
 11
-156.35
 21
-1.13477
  0
LINE
  8
0
 10
-156.35
 20
-1.13477
 11
-156.331
 21
-1.4707
  0
LINE
  8
0
 10
-156.331
 20
-1.4707
 11
-156.274
 21
-1.80176
  0
LINE
  8
0
 10
-156.274
 20
-1.80176
 11
-156.182
 21
-2.125
  0
LINE
  8
0
 10
-156.182
 20
-2.125
 11
-156.053
 21
-2.43652
  0
LINE
  8
0
 10
-156.053
 20
-2.43652
 11
-155.891
 21
-2.73047
  0
LINE
  8
0
 10
-155.891
 20
-2.73047
 11
-155.695
 21
-3.00488
  0
LINE
  8
0
 10
-155.695
 20
-3.00488
 11
-155.472
 21
-3.25586
  0
LINE
  8
0
 10
-155.472
 20
-3.25586
 11
-153.166
 21
-5.56152
  0
LINE
  8
0
 10
-153.166
 20
-5.56152
 11
-153.092
 21
-5.62695
  0
LINE
  8
0
 10
-153.092
 20
-5.62695
 11
-153.01
 21
-5.68262
  0
LINE
  8
0
 10
-153.01
 20
-5.68262
 11
-152.921
 21
-5.72852
  0
LINE
  8
0
 10
-152.921
 20
-5.72852
 11
-152.828
 21
-5.7627
  0
LINE
  8
0
 10
-152.828
 20
-5.7627
 11
-152.731
 21
-5.78516
  0
LINE
  8
0
 10
-152.731
 20
-5.78516
 11
-152.633
 21
-5.79492
  0
LINE
  8
0
 10
-152.633
 20
-5.79492
 11
-152.534
 21
-5.79297
  0
LINE
  8
0
 10
-152.534
 20
-5.79297
 11
-152.436
 21
-5.77832
  0
LINE
  8
0
 10
-152.436
 20
-5.77832
 11
-152.34
 21
-5.75293
  0
LINE
  8
0
 10
-152.34
 20
-5.75293
 11
-152.249
 21
-5.71484
  0
LINE
  8
0
 10
-152.249
 20
-5.71484
 11
-152.162
 21
-5.66602
  0
LINE
  8
0
 10
-152.162
 20
-5.66602
 11
-152.083
 21
-5.60645
  0
LINE
  8
0
 10
-152.083
 20
-5.60645
 11
-152.012
 21
-5.53809
  0
LINE
  8
0
 10
-152.012
 20
-5.53809
 11
-151.949
 21
-5.46094
  0
LINE
  8
0
 10
-151.949
 20
-5.46094
 11
-151.896
 21
-5.37695
  0
LINE
  8
0
 10
-151.896
 20
-5.37695
 11
-151.854
 21
-5.28711
  0
LINE
  8
0
 10
-151.854
 20
-5.28711
 11
-151.824
 21
-5.19238
  0
LINE
  8
0
 10
-151.824
 20
-5.19238
 11
-151.806
 21
-5.09473
  0
LINE
  8
0
 10
-151.806
 20
-5.09473
 11
-151.8
 21
-4.99609
  0
LINE
  8
0
 10
-151.8
 20
-4.99609
 11
-151.8
 21
-2.7998
  0
LINE
  8
0
 10
-151.8
 20
-2.7998
 11
-151.798
 21
-2.76367
  0
LINE
  8
0
 10
-151.798
 20
-2.76367
 11
-151.791
 21
-2.72852
  0
LINE
  8
0
 10
-151.791
 20
-2.72852
 11
-151.78
 21
-2.69336
  0
LINE
  8
0
 10
-151.78
 20
-2.69336
 11
-151.766
 21
-2.66016
  0
LINE
  8
0
 10
-151.766
 20
-2.66016
 11
-151.747
 21
-2.62988
  0
LINE
  8
0
 10
-151.747
 20
-2.62988
 11
-151.725
 21
-2.60059
  0
LINE
  8
0
 10
-151.725
 20
-2.60059
 11
-151.699
 21
-2.5752
  0
LINE
  8
0
 10
-151.699
 20
-2.5752
 11
-151.671
 21
-2.55273
  0
LINE
  8
0
 10
-151.671
 20
-2.55273
 11
-151.64
 21
-2.53418
  0
LINE
  8
0
 10
-151.64
 20
-2.53418
 11
-151.606
 21
-2.51953
  0
LINE
  8
0
 10
-151.606
 20
-2.51953
 11
-151.572
 21
-2.50879
  0
LINE
  8
0
 10
-151.572
 20
-2.50879
 11
-151.536
 21
-2.50195
  0
LINE
  8
0
 10
-151.536
 20
-2.50195
 11
-151.5
 21
-2.5
  0
LINE
  8
0
 10
-151.5
 20
-2.5
 11
-150.8
 21
-2.5
  0
LINE
  8
0
 10
-150.8
 20
-2.5
 11
-150.703
 21
-2.50586
  0
LINE
  8
0
 10
-150.703
 20
-2.50586
 11
-150.608
 21
-2.52344
  0
LINE
  8
0
 10
-150.608
 20
-2.52344
 11
-150.517
 21
-2.55176
  0
LINE
  8
0
 10
-150.517
 20
-2.55176
 11
-150.428
 21
-2.5918
  0
LINE
  8
0
 10
-150.428
 20
-2.5918
 11
-150.346
 21
-2.6416
  0
LINE
  8
0
 10
-150.346
 20
-2.6416
 11
-150.27
 21
-2.70117
  0
LINE
  8
0
 10
-150.27
 20
-2.70117
 11
-150.201
 21
-2.76953
  0
LINE
  8
0
 10
-150.201
 20
-2.76953
 11
-150.142
 21
-2.8457
  0
LINE
  8
0
 10
-150.142
 20
-2.8457
 11
-150.092
 21
-2.92773
  0
LINE
  8
0
 10
-150.092
 20
-2.92773
 11
-150.052
 21
-3.0166
  0
LINE
  8
0
 10
-150.052
 20
-3.0166
 11
-150.023
 21
-3.1084
  0
LINE
  8
0
 10
-150.023
 20
-3.1084
 11
-150.006
 21
-3.20312
  0
LINE
  8
0
 10
-150.006
 20
-3.20312
 11
-150
 21
-3.2998
  0
LINE
  8
0
 10
-150
 20
-3.2998
 11
-150
 21
-8
  0
LINE
  8
0
 10
-150
 20
-8
 11
-150.015
 21
-8.24121
  0
LINE
  8
0
 10
-150.015
 20
-8.24121
 11
-150.059
 21
-8.47852
  0
LINE
  8
0
 10
-150.059
 20
-8.47852
 11
-150.13
 21
-8.70898
  0
LINE
  8
0
 10
-150.13
 20
-8.70898
 11
-150.229
 21
-8.92969
  0
LINE
  8
0
 10
-150.229
 20
-8.92969
 11
-150.354
 21
-9.13574
  0
LINE
  8
0
 10
-150.354
 20
-9.13574
 11
-150.503
 21
-9.32617
  0
LINE
  8
0
 10
-150.503
 20
-9.32617
 11
-150.674
 21
-9.49707
  0
LINE
  8
0
 10
-150.674
 20
-9.49707
 11
-150.864
 21
-9.64551
  0
LINE
  8
0
 10
-150.864
 20
-9.64551
 11
-151.07
 21
-9.77051
  0
LINE
  8
0
 10
-151.07
 20
-9.77051
 11
-151.291
 21
-9.87012
  0
LINE
  8
0
 10
-151.291
 20
-9.87012
 11
-151.521
 21
-9.94141
  0
LINE
  8
0
 10
-151.521
 20
-9.94141
 11
-151.759
 21
-9.98535
  0
LINE
  8
0
 10
-151.759
 20
-9.98535
 11
-152
 21
-10
  0
LINE
  8
0
 10
-152
 20
-10
 11
-156.7
 21
-10
  0
LINE
  8
0
 10
-156.7
 20
-10
 11
-156.797
 21
-9.99414
  0
LINE
  8
0
 10
-156.797
 20
-9.99414
 11
-156.892
 21
-9.97656
  0
LINE
  8
0
 10
-156.892
 20
-9.97656
 11
-156.983
 21
-9.94824
  0
LINE
  8
0
 10
-156.983
 20
-9.94824
 11
-157.072
 21
-9.9082
  0
LINE
  8
0
 10
-157.072
 20
-9.9082
 11
-157.154
 21
-9.8584
  0
LINE
  8
0
 10
-157.154
 20
-9.8584
 11
-157.23
 21
-9.79883
  0
LINE
  8
0
 10
-157.23
 20
-9.79883
 11
-157.299
 21
-9.73047
  0
LINE
  8
0
 10
-157.299
 20
-9.73047
 11
-157.358
 21
-9.6543
  0
LINE
  8
0
 10
-157.358
 20
-9.6543
 11
-157.408
 21
-9.57227
  0
LINE
  8
0
 10
-157.408
 20
-9.57227
 11
-157.448
 21
-9.4834
  0
LINE
  8
0
 10
-157.448
 20
-9.4834
 11
-157.477
 21
-9.3916
  0
LINE
  8
0
 10
-157.477
 20
-9.3916
 11
-157.494
 21
-9.29688
  0
LINE
  8
0
 10
-157.494
 20
-9.29688
 11
-157.5
 21
-9.2002
  0
LINE
  8
0
 10
-157.5
 20
-9.2002
 11
-157.5
 21
-8.5
  0
LINE
  8
0
 10
-157.5
 20
-8.5
 11
-157.498
 21
-8.46387
  0
LINE
  8
0
 10
-157.498
 20
-8.46387
 11
-157.491
 21
-8.42773
  0
LINE
  8
0
 10
-157.491
 20
-8.42773
 11
-157.48
 21
-8.39355
  0
LINE
  8
0
 10
-157.48
 20
-8.39355
 11
-157.466
 21
-8.36035
  0
LINE
  8
0
 10
-157.466
 20
-8.36035
 11
-157.447
 21
-8.3291
  0
LINE
  8
0
 10
-157.447
 20
-8.3291
 11
-157.425
 21
-8.30078
  0
LINE
  8
0
 10
-157.425
 20
-8.30078
 11
-157.399
 21
-8.27539
  0
LINE
  8
0
 10
-157.399
 20
-8.27539
 11
-157.37
 21
-8.25293
  0
LINE
  8
0
 10
-157.37
 20
-8.25293
 11
-157.34
 21
-8.23438
  0
LINE
  8
0
 10
-157.34
 20
-8.23438
 11
-157.307
 21
-8.21973
  0
LINE
  8
0
 10
-157.307
 20
-8.21973
 11
-157.271
 21
-8.20898
  0
LINE
  8
0
 10
-157.271
 20
-8.20898
 11
-157.236
 21
-8.20215
  0
LINE
  8
0
 10
-157.236
 20
-8.20215
 11
-157.2
 21
-8.2002
  0
LINE
  8
0
 10
-157.2
 20
-8.2002
 11
-155.004
 21
-8.2002
  0
LINE
  8
0
 10
-155.004
 20
-8.2002
 11
-154.905
 21
-8.19434
  0
LINE
  8
0
 10
-154.905
 20
-8.19434
 11
-154.808
 21
-8.17578
  0
LINE
  8
0
 10
-154.808
 20
-8.17578
 11
-154.713
 21
-8.14551
  0
LINE
  8
0
 10
-154.713
 20
-8.14551
 11
-154.623
 21
-8.10352
  0
LINE
  8
0
 10
-154.623
 20
-8.10352
 11
-154.539
 21
-8.05078
  0
LINE
  8
0
 10
-154.539
 20
-8.05078
 11
-154.462
 21
-7.98828
  0
LINE
  8
0
 10
-154.462
 20
-7.98828
 11
-154.394
 21
-7.91699
  0
LINE
  8
0
 10
-154.394
 20
-7.91699
 11
-154.334
 21
-7.83789
  0
LINE
  8
0
 10
-154.334
 20
-7.83789
 11
-154.285
 21
-7.75098
  0
LINE
  8
0
 10
-154.285
 20
-7.75098
 11
-154.247
 21
-7.66016
  0
LINE
  8
0
 10
-154.247
 20
-7.66016
 11
-154.221
 21
-7.56445
  0
LINE
  8
0
 10
-154.221
 20
-7.56445
 11
-154.207
 21
-7.46582
  0
LINE
  8
0
 10
-154.207
 20
-7.46582
 11
-154.205
 21
-7.36719
  0
LINE
  8
0
 10
-154.205
 20
-7.36719
 11
-154.215
 21
-7.26855
  0
LINE
  8
0
 10
-154.215
 20
-7.26855
 11
-154.237
 21
-7.17188
  0
LINE
  8
0
 10
-154.237
 20
-7.17188
 11
-154.271
 21
-7.0791
  0
LINE
  8
0
 10
-154.271
 20
-7.0791
 11
-154.317
 21
-6.99023
  0
LINE
  8
0
 10
-154.317
 20
-6.99023
 11
-154.373
 21
-6.9082
  0
LINE
  8
0
 10
-154.373
 20
-6.9082
 11
-154.438
 21
-6.83398
  0
LINE
  8
0
 10
-154.438
 20
-6.83398
 11
-156.744
 21
-4.52832
  0
LINE
  8
0
 10
-156.744
 20
-4.52832
 11
-156.995
 21
-4.30469
  0
LINE
  8
0
 10
-156.995
 20
-4.30469
 11
-157.27
 21
-4.10938
  0
LINE
  8
0
 10
-157.27
 20
-4.10938
 11
-157.563
 21
-3.94727
  0
LINE
  8
0
 10
-157.563
 20
-3.94727
 11
-157.875
 21
-3.81836
  0
LINE
  8
0
 10
-157.875
 20
-3.81836
 11
-158.198
 21
-3.72559
  0
LINE
  8
0
 10
-158.198
 20
-3.72559
 11
-158.529
 21
-3.66895
  0
LINE
  8
0
 10
-158.529
 20
-3.66895
 11
-158.865
 21
-3.65039
  0
LINE
  8
0
 10
-158.865
 20
-3.65039
 11
-161.135
 21
-3.65039
  0
LINE
  8
0
 10
-161.135
 20
-3.65039
 11
-161.471
 21
-3.66895
  0
LINE
  8
0
 10
-161.471
 20
-3.66895
 11
-161.802
 21
-3.72559
  0
LINE
  8
0
 10
-161.802
 20
-3.72559
 11
-162.125
 21
-3.81836
  0
LINE
  8
0
 10
-162.125
 20
-3.81836
 11
-162.437
 21
-3.94727
  0
LINE
  8
0
 10
-162.437
 20
-3.94727
 11
-162.73
 21
-4.10938
  0
LINE
  8
0
 10
-162.73
 20
-4.10938
 11
-163.005
 21
-4.30469
  0
LINE
  8
0
 10
-163.005
 20
-4.30469
 11
-163.256
 21
-4.52832
  0
LINE
  8
0
 10
-163.256
 20
-4.52832
 11
-165.562
 21
-6.83398
  0
LINE
  8
0
 10
-165.562
 20
-6.83398
 11
-165.627
 21
-6.9082
  0
LINE
  8
0
 10
-165.627
 20
-6.9082
 11
-165.683
 21
-6.99023
  0
LINE
  8
0
 10
-165.683
 20
-6.99023
 11
-165.729
 21
-7.0791
  0
LINE
  8
0
 10
-165.729
 20
-7.0791
 11
-165.763
 21
-7.17188
  0
LINE
  8
0
 10
-165.763
 20
-7.17188
 11
-165.785
 21
-7.26855
  0
LINE
  8
0
 10
-165.785
 20
-7.26855
 11
-165.795
 21
-7.36719
  0
LINE
  8
0
 10
-165.795
 20
-7.36719
 11
-165.793
 21
-7.46582
  0
LINE
  8
0
 10
-165.793
 20
-7.46582
 11
-165.779
 21
-7.56445
  0
LINE
  8
0
 10
-165.779
 20
-7.56445
 11
-165.753
 21
-7.66016
  0
LINE
  8
0
 10
-165.753
 20
-7.66016
 11
-165.715
 21
-7.75098
  0
LINE
  8
0
 10
-165.715
 20
-7.75098
 11
-165.666
 21
-7.83789
  0
LINE
  8
0
 10
-165.666
 20
-7.83789
 11
-165.606
 21
-7.91699
  0
LINE
  8
0
 10
-165.606
 20
-7.91699
 11
-165.538
 21
-7.98828
  0
LINE
  8
0
 10
-165.538
 20
-7.98828
 11
-165.461
 21
-8.05078
  0
LINE
  8
0
 10
-165.461
 20
-8.05078
 11
-165.377
 21
-8.10352
  0
LINE
  8
0
 10
-165.377
 20
-8.10352
 11
-165.287
 21
-8.14551
  0
LINE
  8
0
 10
-165.287
 20
-8.14551
 11
-165.192
 21
-8.17578
  0
LINE
  8
0
 10
-165.192
 20
-8.17578
 11
-165.095
 21
-8.19434
  0
LINE
  8
0
 10
-165.095
 20
-8.19434
 11
-164.996
 21
-8.2002
  0
LINE
  8
0
 10
-164.996
 20
-8.2002
 11
-162.8
 21
-8.2002
  0
LINE
  8
0
 10
-162.8
 20
-8.2002
 11
-162.764
 21
-8.20215
  0
LINE
  8
0
 10
-162.764
 20
-8.20215
 11
-162.729
 21
-8.20898
  0
LINE
  8
0
 10
-162.729
 20
-8.20898
 11
-162.693
 21
-8.21973
  0
LINE
  8
0
 10
-162.693
 20
-8.21973
 11
-162.66
 21
-8.23438
  0
LINE
  8
0
 10
-162.66
 20
-8.23438
 11
-162.63
 21
-8.25293
  0
LINE
  8
0
 10
-162.63
 20
-8.25293
 11
-162.601
 21
-8.27539
  0
LINE
  8
0
 10
-162.601
 20
-8.27539
 11
-162.575
 21
-8.30078
  0
LINE
  8
0
 10
-162.575
 20
-8.30078
 11
-162.553
 21
-8.3291
  0
LINE
  8
0
 10
-162.553
 20
-8.3291
 11
-162.534
 21
-8.36035
  0
LINE
  8
0
 10
-162.534
 20
-8.36035
 11
-162.52
 21
-8.39355
  0
LINE
  8
0
 10
-162.52
 20
-8.39355
 11
-162.509
 21
-8.42773
  0
LINE
  8
0
 10
-162.509
 20
-8.42773
 11
-162.502
 21
-8.46387
  0
LINE
  8
0
 10
-162.502
 20
-8.46387
 11
-162.5
 21
-8.5
  0
LINE
  8
0
 10
-162.5
 20
-8.5
 11
-162.5
 21
-9.2002
  0
LINE
  8
0
 10
-162.5
 20
-9.2002
 11
-162.506
 21
-9.29688
  0
LINE
  8
0
 10
-162.506
 20
-9.29688
 11
-162.523
 21
-9.3916
  0
LINE
  8
0
 10
-162.523
 20
-9.3916
 11
-162.552
 21
-9.4834
  0
LINE
  8
0
 10
-162.552
 20
-9.4834
 11
-162.592
 21
-9.57227
  0
LINE
  8
0
 10
-162.592
 20
-9.57227
 11
-162.642
 21
-9.6543
  0
LINE
  8
0
 10
-162.642
 20
-9.6543
 11
-162.701
 21
-9.73047
  0
LINE
  8
0
 10
-162.701
 20
-9.73047
 11
-162.77
 21
-9.79883
  0
LINE
  8
0
 10
-162.77
 20
-9.79883
 11
-162.846
 21
-9.8584
  0
LINE
  8
0
 10
-162.846
 20
-9.8584
 11
-162.928
 21
-9.9082
  0
LINE
  8
0
 10
-162.928
 20
-9.9082
 11
-163.017
 21
-9.94824
  0
LINE
  8
0
 10
-163.017
 20
-9.94824
 11
-163.108
 21
-9.97656
  0
LINE
  8
0
 10
-163.108
 20
-9.97656
 11
-163.203
 21
-9.99414
  0
LINE
  8
0
 10
-163.203
 20
-9.99414
 11
-163.3
 21
-10
  0
LINE
  8
0
 10
-163.3
 20
-10
 11
-168
 21
-10
  0
LINE
  8
0
 10
152
 20
-10
 11
151.759
 21
-9.98535
  0
LINE
  8
0
 10
151.759
 20
-9.98535
 11
151.521
 21
-9.94141
  0
LINE
  8
0
 10
151.521
 20
-9.94141
 11
151.291
 21
-9.87012
  0
LINE
  8
0
 10
151.291
 20
-9.87012
 11
151.07
 21
-9.77051
  0
LINE
  8
0
 10
151.07
 20
-9.77051
 11
150.864
 21
-9.64551
  0
LINE
  8
0
 10
150.864
 20
-9.64551
 11
150.674
 21
-9.49707
  0
LINE
  8
0
 10
150.674
 20
-9.49707
 11
150.503
 21
-9.32617
  0
LINE
  8
0
 10
150.503
 20
-9.32617
 11
150.354
 21
-9.13574
  0
LINE
  8
0
 10
150.354
 20
-9.13574
 11
150.229
 21
-8.92969
  0
LINE
  8
0
 10
150.229
 20
-8.92969
 11
150.13
 21
-8.70898
  0
LINE
  8
0
 10
150.13
 20
-8.70898
 11
150.059
 21
-8.47852
  0
LINE
  8
0
 10
150.059
 20
-8.47852
 11
150.015
 21
-8.24121
  0
LINE
  8
0
 10
150.015
 20
-8.24121
 11
150
 21
-8
  0
LINE
  8
0
 10
150
 20
-8
 11
150
 21
-3.2998
  0
LINE
  8
0
 10
150
 20
-3.2998
 11
150.006
 21
-3.20312
  0
LINE
  8
0
 10
150.006
 20
-3.20312
 11
150.023
 21
-3.1084
  0
LINE
  8
0
 10
150.023
 20
-3.1084
 11
150.052
 21
-3.0166
  0
LINE
  8
0
 10
150.052
 20
-3.0166
 11
150.092
 21
-2.92773
  0
LINE
  8
0
 10
150.092
 20
-2.92773
 11
150.142
 21
-2.8457
  0
LINE
  8
0
 10
150.142
 20
-2.8457
 11
150.201
 21
-2.76953
  0
LINE
  8
0
 10
150.201
 20
-2.76953
 11
150.27
 21
-2.70117
  0
LINE
  8
0
 10
150.27
 20
-2.70117
 11
150.346
 21
-2.6416
  0
LINE
  8
0
 10
150.346
 20
-2.6416
 11
150.428
 21
-2.5918
  0
LINE
  8
0
 10
150.428
 20
-2.5918
 11
150.517
 21
-2.55176
  0
LINE
  8
0
 10
150.517
 20
-2.55176
 11
150.608
 21
-2.52344
  0
LINE
  8
0
 10
150.608
 20
-2.52344
 11
150.703
 21
-2.50586
  0
LINE
  8
0
 10
150.703
 20
-2.50586
 11
150.8
 21
-2.5
  0
LINE
  8
0
 10
150.8
 20
-2.5
 11
151.5
 21
-2.5
  0
LINE
  8
0
 10
151.5
 20
-2.5
 11
151.536
 21
-2.50195
  0
LINE
  8
0
 10
151.536
 20
-2.50195
 11
151.572
 21
-2.50879
  0
LINE
  8
0
 10
151.572
 20
-2.50879
 11
151.606
 21
-2.51953
  0
LINE
  8
0
 10
151.606
 20
-2.51953
 11
151.64
 21
-2.53418
  0
LINE
  8
0
 10
151.64
 20
-2.53418
 11
151.671
 21
-2.55273
  0
LINE
  8
0
 10
151.671
 20
-2.55273
 11
151.699
 21
-2.5752
  0
LINE
  8
0
 10
151.699
 20
-2.5752
 11
151.725
 21
-2.60059
  0
LINE
  8
0
 10
151.725
 20
-2.60059
 11
151.747
 21
-2.62988
  0
LINE
  8
0
 10
151.747
 20
-2.62988
 11
151.766
 21
-2.66016
  0
LINE
  8
0
 10
151.766
 20
-2.66016
 11
151.78
 21
-2.69336
  0
LINE
  8
0
 10
151.78
 20
-2.69336
 11
151.791
 21
-2.72852
  0
LINE
  8
0
 10
151.791
 20
-2.72852
 11
151.798
 21
-2.76367
  0
LINE
  8
0
 10
151.798
 20
-2.76367
 11
151.8
 21
-2.7998
  0
LINE
  8
0
 10
151.8
 20
-2.7998
 11
151.8
 21
-4.99609
  0
LINE
  8
0
 10
151.8
 20
-4.99609
 11
151.806
 21
-5.09473
  0
LINE
  8
0
 10
151.806
 20
-5.09473
 11
151.824
 21
-5.19238
  0
LINE
  8
0
 10
151.824
 20
-5.19238
 11
151.854
 21
-5.28711
  0
LINE
  8
0
 10
151.854
 20
-5.28711
 11
151.896
 21
-5.37695
  0
LINE
  8
0
 10
151.896
 20
-5.37695
 11
151.949
 21
-5.46094
  0
LINE
  8
0
 10
151.949
 20
-5.46094
 11
152.012
 21
-5.53809
  0
LINE
  8
0
 10
152.012
 20
-5.53809
 11
152.083
 21
-5.60645
  0
LINE
  8
0
 10
152.083
 20
-5.60645
 11
152.162
 21
-5.66602
  0
LINE
  8
0
 10
152.162
 20
-5.66602
 11
152.249
 21
-5.71484
  0
LINE
  8
0
 10
152.249
 20
-5.71484
 11
152.34
 21
-5.75293
  0
LINE
  8
0
 10
152.34
 20
-5.75293
 11
152.436
 21
-5.77832
  0
LINE
  8
0
 10
152.436
 20
-5.77832
 11
152.534
 21
-5.79297
  0
LINE
  8
0
 10
152.534
 20
-5.79297
 11
152.633
 21
-5.79492
  0
LINE
  8
0
 10
152.633
 20
-5.79492
 11
152.731
 21
-5.78516
  0
LINE
  8
0
 10
152.731
 20
-5.78516
 11
152.828
 21
-5.7627
  0
LINE
  8
0
 10
152.828
 20
-5.7627
 11
152.921
 21
-5.72852
  0
LINE
  8
0
 10
152.921
 20
-5.72852
 11
153.01
 21
-5.68262
  0
LINE
  8
0
 10
153.01
 20
-5.68262
 11
153.092
 21
-5.62695
  0
LINE
  8
0
 10
153.092
 20
-5.62695
 11
153.166
 21
-5.56152
  0
LINE
  8
0
 10
153.166
 20
-5.56152
 11
155.472
 21
-3.25586
  0
LINE
  8
0
 10
155.472
 20
-3.25586
 11
155.695
 21
-3.00488
  0
LINE
  8
0
 10
155.695
 20
-3.00488
 11
155.891
 21
-2.73047
  0
LINE
  8
0
 10
155.891
 20
-2.73047
 11
156.053
 21
-2.43652
  0
LINE
  8
0
 10
156.053
 20
-2.43652
 11
156.182
 21
-2.125
  0
LINE
  8
0
 10
156.182
 20
-2.125
 11
156.274
 21
-1.80176
  0
LINE
  8
0
 10
156.274
 20
-1.80176
 11
156.331
 21
-1.4707
  0
LINE
  8
0
 10
156.331
 20
-1.4707
 11
156.35
 21
-1.13477
  0
LINE
  8
0
 10
156.35
 20
-1.13477
 11
156.35
 21
1.13477
  0
LINE
  8
0
 10
156.35
 20
1.13477
 11
156.331
 21
1.4707
  0
LINE
  8
0
 10
156.331
 20
1.4707
 11
156.274
 21
1.80176
  0
LINE
  8
0
 10
156.274
 20
1.80176
 11
156.182
 21
2.125
  0
LINE
  8
0
 10
156.182
 20
2.125
 11
156.053
 21
2.43652
  0
LINE
  8
0
 10
156.053
 20
2.43652
 11
155.891
 21
2.73047
  0
LINE
  8
0
 10
155.891
 20
2.73047
 11
155.695
 21
3.00488
  0
LINE
  8
0
 10
155.695
 20
3.00488
 11
155.472
 21
3.25586
  0
LINE
  8
0
 10
155.472
 20
3.25586
 11
153.166
 21
5.56152
  0
LINE
  8
0
 10
153.166
 20
5.56152
 11
153.092
 21
5.62695
  0
LINE
  8
0
 10
153.092
 20
5.62695
 11
153.01
 21
5.68262
  0
LINE
  8
0
 10
153.01
 20
5.68262
 11
152.921
 21
5.72852
  0
LINE
  8
0
 10
152.921
 20
5.72852
 11
152.828
 21
5.7627
  0
LINE
  8
0
 10
152.828
 20
5.7627
 11
152.731
 21
5.78516
  0
LINE
  8
0
 10
152.731
 20
5.78516
 11
152.633
 21
5.79492
  0
LINE
  8
0
 10
152.633
 20
5.79492
 11
152.534
 21
5.79297
  0
LINE
  8
0
 10
152.534
 20
5.79297
 11
152.436
 21
5.77832
  0
LINE
  8
0
 10
152.436
 20
5.77832
 11
152.34
 21
5.75293
  0
LINE
  8
0
 10
152.34
 20
5.75293
 11
152.249
 21
5.71484
  0
LINE
  8
0
 10
152.249
 20
5.71484
 11
152.162
 21
5.66602
  0
LINE
  8
0
 10
152.162
 20
5.66602
 11
152.083
 21
5.60645
  0
LINE
  8
0
 10
152.083
 20
5.60645
 11
152.012
 21
5.53809
  0
LINE
  8
0
 10
152.012
 20
5.53809
 11
151.949
 21
5.46094
  0
LINE
  8
0
 10
151.949
 20
5.46094
 11
151.896
 21
5.37695
  0
LINE
  8
0
 10
151.896
 20
5.37695
 11
151.854
 21
5.28711
  0
LINE
  8
0
 10
151.854
 20
5.28711
 11
151.824
 21
5.19238
  0
LINE
  8
0
 10
151.824
 20
5.19238
 11
151.806
 21
5.09473
  0
LINE
  8
0
 10
151.806
 20
5.09473
 11
151.8
 21
4.99609
  0
LINE
  8
0
 10
151.8
 20
4.99609
 11
151.8
 21
2.7998
  0
LINE
  8
0
 10
151.8
 20
2.7998
 11
151.798
 21
2.76367
  0
LINE
  8
0
 10
151.798
 20
2.76367
 11
151.791
 21
2.72852
  0
LINE
  8
0
 10
151.791
 20
2.72852
 11
151.78
 21
2.69336
  0
LINE
  8
0
 10
151.78
 20
2.69336
 11
151.766
 21
2.66016
  0
LINE
  8
0
 10
151.766
 20
2.66016
 11
151.747
 21
2.62988
  0
LINE
  8
0
 10
151.747
 20
2.62988
 11
151.725
 21
2.60059
  0
LINE
  8
0
 10
151.725
 20
2.60059
 11
151.699
 21
2.5752
  0
LINE
  8
0
 10
151.699
 20
2.5752
 11
151.671
 21
2.55273
  0
LINE
  8
0
 10
151.671
 20
2.55273
 11
151.64
 21
2.53418
  0
LINE
  8
0
 10
151.64
 20
2.53418
 11
151.606
 21
2.51953
  0
LINE
  8
0
 10
151.606
 20
2.51953
 11
151.572
 21
2.50879
  0
LINE
  8
0
 10
151.572
 20
2.50879
 11
151.536
 21
2.50195
  0
LINE
  8
0
 10
151.536
 20
2.50195
 11
151.5
 21
2.5
  0
LINE
  8
0
 10
151.5
 20
2.5
 11
150.8
 21
2.5
  0
LINE
  8
0
 10
150.8
 20
2.5
 11
150.703
 21
2.50586
  0
LINE
  8
0
 10
150.703
 20
2.50586
 11
150.608
 21
2.52344
  0
LINE
  8
0
 10
150.608
 20
2.52344
 11
150.517
 21
2.55176
  0
LINE
  8
0
 10
150.517
 20
2.55176
 11
150.428
 21
2.5918
  0
LINE
  8
0
 10
150.428
 20
2.5918
 11
150.346
 21
2.6416
  0
LINE
  8
0
 10
150.346
 20
2.6416
 11
150.27
 21
2.70117
  0
LINE
  8
0
 10
150.27
 20
2.70117
 11
150.201
 21
2.76953
  0
LINE
  8
0
 10
150.201
 20
2.76953
 11
150.142
 21
2.8457
  0
LINE
  8
0
 10
150.142
 20
2.8457
 11
150.092
 21
2.92773
  0
LINE
  8
0
 10
150.092
 20
2.92773
 11
150.052
 21
3.0166
  0
LINE
  8
0
 10
150.052
 20
3.0166
 11
150.023
 21
3.1084
  0
LINE
  8
0
 10
150.023
 20
3.1084
 11
150.006
 21
3.20312
  0
LINE
  8
0
 10
150.006
 20
3.20312
 11
150
 21
3.2998
  0
LINE
  8
0
 10
150
 20
3.2998
 11
150
 21
8
  0
LINE
  8
0
 10
150
 20
8
 11
150.015
 21
8.24121
  0
LINE
  8
0
 10
150.015
 20
8.24121
 11
150.059
 21
8.47852
  0
LINE
  8
0
 10
150.059
 20
8.47852
 11
150.13
 21
8.70898
  0
LINE
  8
0
 10
150.13
 20
8.70898
 11
150.229
 21
8.92969
  0
LINE
  8
0
 10
150.229
 20
8.92969
 11
150.354
 21
9.13574
  0
LINE
  8
0
 10
150.354
 20
9.13574
 11
150.503
 21
9.32617
  0
LINE
  8
0
 10
150.503
 20
9.32617
 11
150.674
 21
9.49707
  0
LINE
  8
0
 10
150.674
 20
9.49707
 11
150.864
 21
9.64551
  0
LINE
  8
0
 10
150.864
 20
9.64551
 11
151.07
 21
9.77051
  0
LINE
  8
0
 10
151.07
 20
9.77051
 11
151.291
 21
9.87012
  0
LINE
  8
0
 10
151.291
 20
9.87012
 11
151.521
 21
9.94141
  0
LINE
  8
0
 10
151.521
 20
9.94141
 11
151.759
 21
9.98535
  0
LINE
  8
0
 10
151.759
 20
9.98535
 11
152
 21
10
  0
LINE
  8
0
 10
152
 20
10
 11
156.7
 21
10
  0
LINE
  8
0
 10
156.7
 20
10
 11
156.797
 21
9.99414
  0
LINE
  8
0
 10
156.797
 20
9.99414
 11
156.892
 21
9.97656
  0
LINE
  8
0
 10
156.892
 20
9.97656
 11
156.983
 21
9.94824
  0
LINE
  8
0
 10
156.983
 20
9.94824
 11
157.072
 21
9.9082
  0
LINE
  8
0
 10
157.072
 20
9.9082
 11
157.154
 21
9.8584
  0
LINE
  8
0
 10
157.154
 20
9.8584
 11
157.23
 21
9.79883
  0
LINE
  8
0
 10
157.23
 20
9.79883
 11
157.299
 21
9.73047
  0
LINE
  8
0
 10
157.299
 20
9.73047
 11
157.358
 21
9.6543
  0
LINE
  8
0
 10
157.358
 20
9.6543
 11
157.408
 21
9.57227
  0
LINE
  8
0
 10
157.408
 20
9.57227
 11
157.448
 21
9.4834
  0
LINE
  8
0
 10
157.448
 20
9.4834
 11
157.477
 21
9.3916
  0
LINE
  8
0
 10
157.477
 20
9.3916
 11
157.494
 21
9.29688
  0
LINE
  8
0
 10
157.494
 20
9.29688
 11
157.5
 21
9.2002
  0
LINE
  8
0
 10
157.5
 20
9.2002
 11
157.5
 21
8.5
  0
LINE
  8
0
 10
157.5
 20
8.5
 11
157.498
 21
8.46387
  0
LINE
  8
0
 10
157.498
 20
8.46387
 11
157.491
 21
8.42773
  0
LINE
  8
0
 10
157.491
 20
8.42773
 11
157.48
 21
8.39355
  0
LINE
  8
0
 10
157.48
 20
8.39355
 11
157.466
 21
8.36035
  0
LINE
  8
0
 10
157.466
 20
8.36035
 11
157.447
 21
8.3291
  0
LINE
  8
0
 10
157.447
 20
8.3291
 11
157.425
 21
8.30078
  0
LINE
  8
0
 10
157.425
 20
8.30078
 11
157.399
 21
8.27539
  0
LINE
  8
0
 10
157.399
 20
8.27539
 11
157.37
 21
8.25293
  0
LINE
  8
0
 10
157.37
 20
8.25293
 11
157.34
 21
8.23438
  0
LINE
  8
0
 10
157.34
 20
8.23438
 11
157.307
 21
8.21973
  0
LINE
  8
0
 10
157.307
 20
8.21973
 11
157.271
 21
8.20898
  0
LINE
  8
0
 10
157.271
 20
8.20898
 11
157.236
 21
8.20215
  0
LINE
  8
0
 10
157.236
 20
8.20215
 11
157.2
 21
8.2002
  0
LINE
  8
0
 10
157.2
 20
8.2002
 11
155.004
 21
8.2002
  0
LINE
  8
0
 10
155.004
 20
8.2002
 11
154.905
 21
8.19434
  0
LINE
  8
0
 10
154.905
 20
8.19434
 11
154.808
 21
8.17578
  0
LINE
  8
0
 10
154.808
 20
8.17578
 11
154.713
 21
8.14551
  0
LINE
  8
0
 10
154.713
 20
8.14551
 11
154.623
 21
8.10352
  0
LINE
  8
0
 10
154.623
 20
8.10352
 11
154.539
 21
8.05078
  0
LINE
  8
0
 10
154.539
 20
8.05078
 11
154.462
 21
7.98828
  0
LINE
  8
0
 10
154.462
 20
7.98828
 11
154.394
 21
7.91699
  0
LINE
  8
0
 10
154.394
 20
7.91699
 11
154.334
 21
7.83789
  0
LINE
  8
0
 10
154.334
 20
7.83789
 11
154.285
 21
7.75098
  0
LINE
  8
0
 10
154.285
 20
7.75098
 11
154.247
 21
7.66016
  0
LINE
  8
0
 10
154.247
 20
7.66016
 11
154.221
 21
7.56445
  0
LINE
  8
0
 10
154.221
 20
7.56445
 11
154.207
 21
7.46582
  0
LINE
  8
0
 10
154.207
 20
7.46582
 11
154.205
 21
7.36719
  0
LINE
  8
0
 10
154.205
 20
7.36719
 11
154.215
 21
7.26855
  0
LINE
  8
0
 10
154.215
 20
7.26855
 11
154.237
 21
7.17188
  0
LINE
  8
0
 10
154.237
 20
7.17188
 11
154.271
 21
7.0791
  0
LINE
  8
0
 10
154.271
 20
7.0791
 11
154.317
 21
6.99023
  0
LINE
  8
0
 10
154.317
 20
6.99023
 11
154.373
 21
6.9082
  0
LINE
  8
0
 10
154.373
 20
6.9082
 11
154.438
 21
6.83398
  0
LINE
  8
0
 10
154.438
 20
6.83398
 11
156.744
 21
4.52832
  0
LINE
  8
0
 10
156.744
 20
4.52832
 11
156.995
 21
4.30469
  0
LINE
  8
0
 10
156.995
 20
4.30469
 11
157.27
 21
4.10938
  0
LINE
  8
0
 10
157.27
 20
4.10938
 11
157.563
 21
3.94727
  0
LINE
  8
0
 10
157.563
 20
3.94727
 11
157.875
 21
3.81836
  0
LINE
  8
0
 10
157.875
 20
3.81836
 11
158.198
 21
3.72559
  0
LINE
  8
0
 10
158.198
 20
3.72559
 11
158.529
 21
3.66895
  0
LINE
  8
0
 10
158.529
 20
3.66895
 11
158.865
 21
3.65039
  0
LINE
  8
0
 10
158.865
 20
3.65039
 11
161.135
 21
3.65039
  0
LINE
  8
0
 10
161.135
 20
3.65039
 11
161.471
 21
3.66895
  0
LINE
  8
0
 10
161.471
 20
3.66895
 11
161.802
 21
3.72559
  0
LINE
  8
0
 10
161.802
 20
3.72559
 11
162.125
 21
3.81836
  0
LINE
  8
0
 10
162.125
 20
3.81836
 11
162.437
 21
3.94727
  0
LINE
  8
0
 10
162.437
 20
3.94727
 11
162.73
 21
4.10938
  0
LINE
  8
0
 10
162.73
 20
4.10938
 11
163.005
 21
4.30469
  0
LINE
  8
0
 10
163.005
 20
4.30469
 11
163.256
 21
4.52832
  0
LINE
  8
0
 10
163.256
 20
4.52832
 11
165.562
 21
6.83398
  0
LINE
  8
0
 10
165.562
 20
6.83398
 11
165.627
 21
6.9082
  0
LINE
  8
0
 10
165.627
 20
6.9082
 11
165.683
 21
6.99023
  0
LINE
  8
0
 10
165.683
 20
6.99023
 11
165.729
 21
7.0791
  0
LINE
  8
0
 10
165.729
 20
7.0791
 11
165.763
 21
7.17188
  0
LINE
  8
0
 10
165.763
 20
7.17188
 11
165.785
 21
7.26855
  0
LINE
  8
0
 10
165.785
 20
7.26855
 11
165.795
 21
7.36719
  0
LINE
  8
0
 10
165.795
 20
7.36719
 11
165.793
 21
7.46582
  0
LINE
  8
0
 10
165.793
 20
7.46582
 11
165.779
 21
7.56445
  0
LINE
  8
0
 10
165.779
 20
7.56445
 11
165.753
 21
7.66016
  0
LINE
  8
0
 10
165.753
 20
7.66016
 11
165.715
 21
7.75098
  0
LINE
  8
0
 10
165.715
 20
7.75098
 11
165.666
 21
7.83789
  0
LINE
  8
0
 10
165.666
 20
7.83789
 11
165.606
 21
7.91699
  0
LINE
  8
0
 10
165.606
 20
7.91699
 11
165.538
 21
7.98828
  0
LINE
  8
0
 10
165.538
 20
7.98828
 11
165.461
 21
8.05078
  0
LINE
  8
0
 10
165.461
 20
8.05078
 11
165.377
 21
8.10352
  0
LINE
  8
0
 10
165.377
 20
8.10352
 11
165.287
 21
8.14551
  0
LINE
  8
0
 10
165.287
 20
8.14551
 11
165.192
 21
8.17578
  0
LINE
  8
0
 10
165.192
 20
8.17578
 11
165.095
 21
8.19434
  0
LINE
  8
0
 10
165.095
 20
8.19434
 11
164.996
 21
8.2002
  0
LINE
  8
0
 10
164.996
 20
8.2002
 11
162.8
 21
8.2002
  0
LINE
  8
0
 10
162.8
 20
8.2002
 11
162.764
 21
8.20215
  0
LINE
  8
0
 10
162.764
 20
8.20215
 11
162.729
 21
8.20898
  0
LINE
  8
0
 10
162.729
 20
8.20898
 11
162.693
 21
8.21973
  0
LINE
  8
0
 10
162.693
 20
8.21973
 11
162.66
 21
8.23438
  0
LINE
  8
0
 10
162.66
 20
8.23438
 11
162.63
 21
8.25293
  0
LINE
  8
0
 10
162.63
 20
8.25293
 11
162.601
 21
8.27539
  0
LINE
  8
0
 10
162.601
 20
8.27539
 11
162.575
 21
8.30078
  0
LINE
  8
0
 10
162.575
 20
8.30078
 11
162.553
 21
8.3291
  0
LINE
  8
0
 10
162.553
 20
8.3291
 11
162.534
 21
8.36035
  0
LINE
  8
0
 10
162.534
 20
8.36035
 11
162.52
 21
8.39355
  0
LINE
  8
0
 10
162.52
 20
8.39355
 11
162.509
 21
8.42773
  0
LINE
  8
0
 10
162.509
 20
8.42773
 11
162.502
 21
8.46387
  0
LINE
  8
0
 10
162.502
 20
8.46387
 11
162.5
 21
8.5
  0
LINE
  8
0
 10
162.5
 20
8.5
 11
162.5
 21
9.2002
  0
LINE
  8
0
 10
162.5
 20
9.2002
 11
162.506
 21
9.29688
  0
LINE
  8
0
 10
162.506
 20
9.29688
 11
162.523
 21
9.3916
  0
LINE
  8
0
 10
162.523
 20
9.3916
 11
162.552
 21
9.4834
  0
LINE
  8
0
 10
162.552
 20
9.4834
 11
162.592
 21
9.57227
  0
LINE
  8
0
 10
162.592
 20
9.57227
 11
162.642
 21
9.6543
  0
LINE
  8
0
 10
162.642
 20
9.6543
 11
162.701
 21
9.73047
  0
LINE
  8
0
 10
162.701
 20
9.73047
 11
162.77
 21
9.79883
  0
LINE
  8
0
 10
162.77
 20
9.79883
 11
162.846
 21
9.8584
  0
LINE
  8
0
 10
162.846
 20
9.8584
 11
162.928
 21
9.9082
  0
LINE
  8
0
 10
162.928
 20
9.9082
 11
163.017
 21
9.94824
  0
LINE
  8
0
 10
163.017
 20
9.94824
 11
163.108
 21
9.97656
  0
LINE
  8
0
 10
163.108
 20
9.97656
 11
163.203
 21
9.99414
  0
LINE
  8
0
 10
163.203
 20
9.99414
 11
163.3
 21
10
  0
LINE
  8
0
 10
163.3
 20
10
 11
168
 21
10
  0
LINE
  8
0
 10
168
 20
10
 11
168.241
 21
9.98535
  0
LINE
  8
0
 10
168.241
 20
9.98535
 11
168.479
 21
9.94141
  0
LINE
  8
0
 10
168.479
 20
9.94141
 11
168.709
 21
9.87012
  0
LINE
  8
0
 10
168.709
 20
9.87012
 11
168.93
 21
9.77051
  0
LINE
  8
0
 10
168.93
 20
9.77051
 11
169.136
 21
9.64551
  0
LINE
  8
0
 10
169.136
 20
9.64551
 11
169.326
 21
9.49707
  0
LINE
  8
0
 10
169.326
 20
9.49707
 11
169.497
 21
9.32617
  0
LINE
  8
0
 10
169.497
 20
9.32617
 11
169.646
 21
9.13574
  0
LINE
  8
0
 10
169.646
 20
9.13574
 11
169.771
 21
8.92969
  0
LINE
  8
0
 10
169.771
 20
8.92969
 11
169.87
 21
8.70898
  0
LINE
  8
0
 10
169.87
 20
8.70898
 11
169.941
 21
8.47852
  0
LINE
  8
0
 10
169.941
 20
8.47852
 11
169.985
 21
8.24121
  0
LINE
  8
0
 10
169.985
 20
8.24121
 11
170
 21
8
  0
LINE
  8
0
 10
170
 20
8
 11
170
 21
3.2998
  0
LINE
  8
0
 10
170
 20
3.2998
 11
169.994
 21
3.20312
  0
LINE
  8
0
 10
169.994
 20
3.20312
 11
169.977
 21
3.1084
  0
LINE
  8
0
 10
169.977
 20
3.1084
 11
169.948
 21
3.0166
  0
LINE
  8
0
 10
169.948
 20
3.0166
 11
169.908
 21
2.92773
  0
LINE
  8
0
 10
169.908
 20
2.92773
 11
169.858
 21
2.8457
  0
LINE
  8
0
 10
169.858
 20
2.8457
 11
169.799
 21
2.76953
  0
LINE
  8
0
 10
169.799
 20
2.76953
 11
169.73
 21
2.70117
  0
LINE
  8
0
 10
169.73
 20
2.70117
 11
169.654
 21
2.6416
  0
LINE
  8
0
 10
169.654
 20
2.6416
 11
169.572
 21
2.5918
  0
LINE
  8
0
 10
169.572
 20
2.5918
 11
169.483
 21
2.55176
  0
LINE
  8
0
 10
169.483
 20
2.55176
 11
169.392
 21
2.52344
  0
LINE
  8
0
 10
169.392
 20
2.52344
 11
169.297
 21
2.50586
  0
LINE
  8
0
 10
169.297
 20
2.50586
 11
169.2
 21
2.5
  0
LINE
  8
0
 10
169.2
 20
2.5
 11
168.5
 21
2.5
  0
LINE
  8
0
 10
168.5
 20
2.5
 11
168.464
 21
2.50195
  0
LINE
  8
0
 10
168.464
 20
2.50195
 11
168.428
 21
2.50879
  0
LINE
  8
0
 10
168.428
 20
2.50879
 11
168.394
 21
2.51953
  0
LINE
  8
0
 10
168.394
 20
2.51953
 11
168.36
 21
2.53418
  0
LINE
  8
0
 10
168.36
 20
2.53418
 11
168.329
 21
2.55273
  0
LINE
  8
0
 10
168.329
 20
2.55273
 11
168.301
 21
2.5752
  0
LINE
  8
0
 10
168.301
 20
2.5752
 11
168.275
 21
2.60059
  0
LINE
  8
0
 10
168.275
 20
2.60059
 11
168.253
 21
2.62988
  0
LINE
  8
0
 10
168.253
 20
2.62988
 11
168.234
 21
2.66016
  0
LINE
  8
0
 10
168.234
 20
2.66016
 11
168.22
 21
2.69336
  0
LINE
  8
0
 10
168.22
 20
2.69336
 11
168.209
 21
2.72852
  0
LINE
  8
0
 10
168.209
 20
2.72852
 11
168.202
 21
2.76367
  0
LINE
  8
0
 10
168.202
 20
2.76367
 11
168.2
 21
2.7998
  0
LINE
  8
0
 10
168.2
 20
2.7998
 11
168.2
 21
4.99609
  0
LINE
  8
0
 10
168.2
 20
4.99609
 11
168.194
 21
5.09473
  0
LINE
  8
0
 10
168.194
 20
5.09473
 11
168.176
 21
5.19238
  0
LINE
  8
0
 10
168.176
 20
5.19238
 11
168.146
 21
5.28711
  0
LINE
  8
0
 10
168.146
 20
5.28711
 11
168.104
 21
5.37695
  0
LINE
  8
0
 10
168.104
 20
5.37695
 11
168.051
 21
5.46094
  0
LINE
  8
0
 10
168.051
 20
5.46094
 11
167.988
 21
5.53809
  0
LINE
  8
0
 10
167.988
 20
5.53809
 11
167.917
 21
5.60645
  0
LINE
  8
0
 10
167.917
 20
5.60645
 11
167.838
 21
5.66602
  0
LINE
  8
0
 10
167.838
 20
5.66602
 11
167.751
 21
5.71484
  0
LINE
  8
0
 10
167.751
 20
5.71484
 11
167.66
 21
5.75293
  0
LINE
  8
0
 10
167.66
 20
5.75293
 11
167.564
 21
5.77832
  0
LINE
  8
0
 10
167.564
 20
5.77832
 11
167.466
 21
5.79297
  0
LINE
  8
0
 10
167.466
 20
5.79297
 11
167.367
 21
5.79492
  0
LINE
  8
0
 10
167.367
 20
5.79492
 11
167.269
 21
5.78516
  0
LINE
  8
0
 10
167.269
 20
5.78516
 11
167.172
 21
5.7627
  0
LINE
  8
0
 10
167.172
 20
5.7627
 11
167.079
 21
5.72852
  0
LINE
  8
0
 10
167.079
 20
5.72852
 11
166.99
 21
5.68262
  0
LINE
  8
0
 10
166.99
 20
5.68262
 11
166.908
 21
5.62695
  0
LINE
  8
0
 10
166.908
 20
5.62695
 11
166.834
 21
5.56152
  0
LINE
  8
0
 10
166.834
 20
5.56152
 11
164.528
 21
3.25586
  0
LINE
  8
0
 10
164.528
 20
3.25586
 11
164.305
 21
3.00488
  0
LINE
  8
0
 10
164.305
 20
3.00488
 11
164.109
 21
2.73047
  0
LINE
  8
0
 10
164.109
 20
2.73047
 11
163.947
 21
2.43652
  0
LINE
  8
0
 10
163.947
 20
2.43652
 11
163.818
 21
2.125
  0
LINE
  8
0
 10
163.818
 20
2.125
 11
163.726
 21
1.80176
  0
LINE
  8
0
 10
163.726
 20
1.80176
 11
163.669
 21
1.4707
  0
LINE
  8
0
 10
163.669
 20
1.4707
 11
163.65
 21
1.13477
  0
LINE
  8
0
 10
163.65
 20
1.13477
 11
163.65
 21
-1.13477
  0
LINE
  8
0
 10
163.65
 20
-1.13477
 11
163.669
 21
-1.4707
  0
LINE
  8
0
 10
163.669
 20
-1.4707
 11
163.726
 21
-1.80176
  0
LINE
  8
0
 10
163.726
 20
-1.80176
 11
163.818
 21
-2.125
  0
LINE
  8
0
 10
163.818
 20
-2.125
 11
163.947
 21
-2.43652
  0
LINE
  8
0
 10
163.947
 20
-2.43652
 11
164.109
 21
-2.73047
  0
LINE
  8
0
 10
164.109
 20
-2.73047
 11
164.305
 21
-3.00488
  0
LINE
  8
0
 10
164.305
 20
-3.00488
 11
164.528
 21
-3.25586
  0
LINE
  8
0
 10
164.528
 20
-3.25586
 11
166.834
 21
-5.56152
  0
LINE
  8
0
 10
166.834
 20
-5.56152
 11
166.908
 21
-5.62695
  0
LINE
  8
0
 10
166.908
 20
-5.62695
 11
166.99
 21
-5.68262
  0
LINE
  8
0
 10
166.99
 20
-5.68262
 11
167.079
 21
-5.72852
  0
LINE
  8
0
 10
167.079
 20
-5.72852
 11
167.172
 21
-5.7627
  0
LINE
  8
0
 10
167.172
 20
-5.7627
 11
167.269
 21
-5.78516
  0
LINE
  8
0
 10
167.269
 20
-5.78516
 11
167.367
 21
-5.79492
  0
LINE
  8
0
 10
167.367
 20
-5.79492
 11
167.466
 21
-5.79297
  0
LINE
  8
0
 10
167.466
 20
-5.79297
 11
167.564
 21
-5.77832
  0
LINE
  8
0
 10
167.564
 20
-5.77832
 11
167.66
 21
-5.75293
  0
LINE
  8
0
 10
167.66
 20
-5.75293
 11
167.751
 21
-5.71484
  0
LINE
  8
0
 10
167.751
 20
-5.71484
 11
167.838
 21
-5.66602
  0
LINE
  8
0
 10
167.838
 20
-5.66602
 11
167.917
 21
-5.60645
  0
LINE
  8
0
 10
167.917
 20
-5.60645
 11
167.988
 21
-5.53809
  0
LINE
  8
0
 10
167.988
 20
-5.53809
 11
168.051
 21
-5.46094
  0
LINE
  8
0
 10
168.051
 20
-5.46094
 11
168.104
 21
-5.37695
  0
LINE
  8
0
 10
168.104
 20
-5.37695
 11
168.146
 21
-5.28711
  0
LINE
  8
0
 10
168.146
 20
-5.28711
 11
168.176
 21
-5.19238
  0
LINE
  8
0
 10
168.176
 20
-5.19238
 11
168.194
 21
-5.09473
  0
LINE
  8
0
 10
168.194
 20
-5.09473
 11
168.2
 21
-4.99609
  0
LINE
  8
0
 10
168.2
 20
-4.99609
 11
168.2
 21
-2.7998
  0
LINE
  8
0
 10
168.2
 20
-2.7998
 11
168.202
 21
-2.76367
  0
LINE
  8
0
 10
168.202
 20
-2.76367
 11
168.209
 21
-2.72852
  0
LINE
  8
0
 10
168.209
 20
-2.72852
 11
168.22
 21
-2.69336
  0
LINE
  8
0
 10
168.22
 20
-2.69336
 11
168.234
 21
-2.66016
  0
LINE
  8
0
 10
168.234
 20
-2.66016
 11
168.253
 21
-2.62988
  0
LINE
  8
0
 10
168.253
 20
-2.62988
 11
168.275
 21
-2.60059
  0
LINE
  8
0
 10
168.275
 20
-2.60059
 11
168.301
 21
-2.5752
  0
LINE
  8
0
 10
168.301
 20
-2.5752
 11
168.329
 21
-2.55273
  0
LINE
  8
0
 10
168.329
 20
-2.55273
 11
168.36
 21
-2.53418
  0
LINE
  8
0
 10
168.36
 20
-2.53418
 11
168.394
 21
-2.51953
  0
LINE
  8
0
 10
168.394
 20
-2.51953
 11
168.428
 21
-2.50879
  0
LINE
  8
0
 10
168.428
 20
-2.50879
 11
168.464
 21
-2.50195
  0
LINE
  8
0
 10
168.464
 20
-2.50195
 11
168.5
 21
-2.5
  0
LINE
  8
0
 10
168.5
 20
-2.5
 11
169.2
 21
-2.5
  0
LINE
  8
0
 10
169.2
 20
-2.5
 11
169.297
 21
-2.50586
  0
LINE
  8
0
 10
169.297
 20
-2.50586
 11
169.392
 21
-2.52344
  0
LINE
  8
0
 10
169.392
 20
-2.52344
 11
169.483
 21
-2.55176
  0
LINE
  8
0
 10
169.483
 20
-2.55176
 11
169.572
 21
-2.5918
  0
LINE
  8
0
 10
169.572
 20
-2.5918
 11
169.654
 21
-2.6416
  0
LINE
  8
0
 10
169.654
 20
-2.6416
 11
169.73
 21
-2.70117
  0
LINE
  8
0
 10
169.73
 20
-2.70117
 11
169.799
 21
-2.76953
  0
LINE
  8
0
 10
169.799
 20
-2.76953
 11
169.858
 21
-2.8457
  0
LINE
  8
0
 10
169.858
 20
-2.8457
 11
169.908
 21
-2.92773
  0
LINE
  8
0
 10
169.908
 20
-2.92773
 11
169.948
 21
-3.0166
  0
LINE
  8
0
 10
169.948
 20
-3.0166
 11
169.977
 21
-3.1084
  0
LINE
  8
0
 10
169.977
 20
-3.1084
 11
169.994
 21
-3.20312
  0
LINE
  8
0
 10
169.994
 20
-3.20312
 11
170
 21
-3.2998
  0
LINE
  8
0
 10
170
 20
-3.2998
 11
170
 21
-8
  0
LINE
  8
0
 10
170
 20
-8
 11
169.985
 21
-8.24121
  0
LINE
  8
0
 10
169.985
 20
-8.24121
 11
169.941
 21
-8.47852
  0
LINE
  8
0
 10
169.941
 20
-8.47852
 11
169.87
 21
-8.70898
  0
LINE
  8
0
 10
169.87
 20
-8.70898
 11
169.771
 21
-8.92969
  0
LINE
  8
0
 10
169.771
 20
-8.92969
 11
169.646
 21
-9.13574
  0
LINE
  8
0
 10
169.646
 20
-9.13574
 11
169.497
 21
-9.32617
  0
LINE
  8
0
 10
169.497
 20
-9.32617
 11
169.326
 21
-9.49707
  0
LINE
  8
0
 10
169.326
 20
-9.49707
 11
169.136
 21
-9.64551
  0
LINE
  8
0
 10
169.136
 20
-9.64551
 11
168.93
 21
-9.77051
  0
LINE
  8
0
 10
168.93
 20
-9.77051
 11
168.709
 21
-9.87012
  0
LINE
  8
0
 10
168.709
 20
-9.87012
 11
168.479
 21
-9.94141
  0
LINE
  8
0
 10
168.479
 20
-9.94141
 11
168.241
 21
-9.98535
  0
LINE
  8
0
 10
168.241
 20
-9.98535
 11
168
 21
-10
  0
LINE
  8
0
 10
168
 20
-10
 11
163.3
 21
-10
  0
LINE
  8
0
 10
163.3
 20
-10
 11
163.203
 21
-9.99414
  0
LINE
  8
0
 10
163.203
 20
-9.99414
 11
163.108
 21
-9.97656
  0
LINE
  8
0
 10
163.108
 20
-9.97656
 11
163.017
 21
-9.94824
  0
LINE
  8
0
 10
163.017
 20
-9.94824
 11
162.928
 21
-9.9082
  0
LINE
  8
0
 10
162.928
 20
-9.9082
 11
162.846
 21
-9.8584
  0
LINE
  8
0
 10
162.846
 20
-9.8584
 11
162.77
 21
-9.79883
  0
LINE
  8
0
 10
162.77
 20
-9.79883
 11
162.701
 21
-9.73047
  0
LINE
  8
0
 10
162.701
 20
-9.73047
 11
162.642
 21
-9.6543
  0
LINE
  8
0
 10
162.642
 20
-9.6543
 11
162.592
 21
-9.57227
  0
LINE
  8
0
 10
162.592
 20
-9.57227
 11
162.552
 21
-9.4834
  0
LINE
  8
0
 10
162.552
 20
-9.4834
 11
162.523
 21
-9.3916
  0
LINE
  8
0
 10
162.523
 20
-9.3916
 11
162.506
 21
-9.29688
  0
LINE
  8
0
 10
162.506
 20
-9.29688
 11
162.5
 21
-9.2002
  0
LINE
  8
0
 10
162.5
 20
-9.2002
 11
162.5
 21
-8.5
  0
LINE
  8
0
 10
162.5
 20
-8.5
 11
162.502
 21
-8.46387
  0
LINE
  8
0
 10
162.502
 20
-8.46387
 11
162.509
 21
-8.42773
  0
LINE
  8
0
 10
162.509
 20
-8.42773
 11
162.52
 21
-8.39355
  0
LINE
  8
0
 10
162.52
 20
-8.39355
 11
162.534
 21
-8.36035
  0
LINE
  8
0
 10
162.534
 20
-8.36035
 11
162.553
 21
-8.3291
  0
LINE
  8
0
 10
162.553
 20
-8.3291
 11
162.575
 21
-8.30078
  0
LINE
  8
0
 10
162.575
 20
-8.30078
 11
162.601
 21
-8.27539
  0
LINE
  8
0
 10
162.601
 20
-8.27539
 11
162.63
 21
-8.25293
  0
LINE
  8
0
 10
162.63
 20
-8.25293
 11
162.66
 21
-8.23438
  0
LINE
  8
0
 10
162.66
 20
-8.23438
 11
162.693
 21
-8.21973
  0
LINE
  8
0
 10
162.693
 20
-8.21973
 11
162.729
 21
-8.20898
  0
LINE
  8
0
 10
162.729
 20
-8.20898
 11
162.764
 21
-8.20215
  0
LINE
  8
0
 10
162.764
 20
-8.20215
 11
162.8
 21
-8.2002
  0
LINE
  8
0
 10
162.8
 20
-8.2002
 11
164.996
 21
-8.2002
  0
LINE
  8
0
 10
164.996
 20
-8.2002
 11
165.095
 21
-8.19434
  0
LINE
  8
0
 10
165.095
 20
-8.19434
 11
165.192
 21
-8.17578
  0
LINE
  8
0
 10
165.192
 20
-8.17578
 11
165.287
 21
-8.14551
  0
LINE
  8
0
 10
165.287
 20
-8.14551
 11
165.377
 21
-8.10352
  0
LINE
  8
0
 10
165.377
 20
-8.10352
 11
165.461
 21
-8.05078
  0
LINE
  8
0
 10
165.461
 20
-8.05078
 11
165.538
 21
-7.98828
  0
LINE
  8
0
 10
165.538
 20
-7.98828
 11
165.606
 21
-7.91699
  0
LINE
  8
0
 10
165.606
 20
-7.91699
 11
165.666
 21
-7.83789
  0
LINE
  8
0
 10
165.666
 20
-7.83789
 11
165.715
 21
-7.75098
  0
LINE
  8
0
 10
165.715
 20
-7.75098
 11
165.753
 21
-7.66016
  0
LINE
  8
0
 10
165.753
 20
-7.66016
 11
165.779
 21
-7.56445
  0
LINE
  8
0
 10
165.779
 20
-7.56445
 11
165.793
 21
-7.46582
  0
LINE
  8
0
 10
165.793
 20
-7.46582
 11
165.795
 21
-7.36719
  0
LINE
  8
0
 10
165.795
 20
-7.36719
 11
165.785
 21
-7.26855
  0
LINE
  8
0
 10
165.785
 20
-7.26855
 11
165.763
 21
-7.17188
  0
LINE
  8
0
 10
165.763
 20
-7.17188
 11
165.729
 21
-7.0791
  0
LINE
  8
0
 10
165.729
 20
-7.0791
 11
165.683
 21
-6.99023
  0
LINE
  8
0
 10
165.683
 20
-6.99023
 11
165.627
 21
-6.9082
  0
LINE
  8
0
 10
165.627
 20
-6.9082
 11
165.562
 21
-6.83398
  0
LINE
  8
0
 10
165.562
 20
-6.83398
 11
163.256
 21
-4.52832
  0
LINE
  8
0
 10
163.256
 20
-4.52832
 11
163.005
 21
-4.30469
  0
LINE
  8
0
 10
163.005
 20
-4.30469
 11
162.73
 21
-4.10938
  0
LINE
  8
0
 10
162.73
 20
-4.10938
 11
162.437
 21
-3.94727
  0
LINE
  8
0
 10
162.437
 20
-3.94727
 11
162.125
 21
-3.81836
  0
LINE
  8
0
 10
162.125
 20
-3.81836
 11
161.802
 21
-3.72559
  0
LINE
  8
0
 10
161.802
 20
-3.72559
 11
161.471
 21
-3.66895
  0
LINE
  8
0
 10
161.471
 20
-3.66895
 11
161.135
 21
-3.65039
  0
LINE
  8
0
 10
161.135
 20
-3.65039
 11
158.865
 21
-3.65039
  0
LINE
  8
0
 10
158.865
 20
-3.65039
 11
158.529
 21
-3.66895
  0
LINE
  8
0
 10
158.529
 20
-3.66895
 11
158.198
 21
-3.72559
  0
LINE
  8
0
 10
158.198
 20
-3.72559
 11
157.875
 21
-3.81836
  0
LINE
  8
0
 10
157.875
 20
-3.81836
 11
157.563
 21
-3.94727
  0
LINE
  8
0
 10
157.563
 20
-3.94727
 11
157.27
 21
-4.10938
  0
LINE
  8
0
 10
157.27
 20
-4.10938
 11
156.995
 21
-4.30469
  0
LINE
  8
0
 10
156.995
 20
-4.30469
 11
156.744
 21
-4.52832
  0
LINE
  8
0
 10
156.744
 20
-4.52832
 11
154.438
 21
-6.83398
  0
LINE
  8
0
 10
154.438
 20
-6.83398
 11
154.373
 21
-6.9082
  0
LINE
  8
0
 10
154.373
 20
-6.9082
 11
154.317
 21
-6.99023
  0
LINE
  8
0
 10
154.317
 20
-6.99023
 11
154.271
 21
-7.0791
  0
LINE
  8
0
 10
154.271
 20
-7.0791
 11
154.237
 21
-7.17188
  0
LINE
  8
0
 10
154.237
 20
-7.17188
 11
154.215
 21
-7.26855
  0
LINE
  8
0
 10
154.215
 20
-7.26855
 11
154.205
 21
-7.36719
  0
LINE
  8
0
 10
154.205
 20
-7.36719
 11
154.207
 21
-7.46582
  0
LINE
  8
0
 10
154.207
 20
-7.46582
 11
154.221
 21
-7.56445
  0
LINE
  8
0
 10
154.221
 20
-7.56445
 11
154.247
 21
-7.66016
  0
LINE
  8
0
 10
154.247
 20
-7.66016
 11
154.285
 21
-7.75098
  0
LINE
  8
0
 10
154.285
 20
-7.75098
 11
154.334
 21
-7.83789
  0
LINE
  8
0
 10
154.334
 20
-7.83789
 11
154.394
 21
-7.91699
  0
LINE
  8
0
 10
154.394
 20
-7.91699
 11
154.462
 21
-7.98828
  0
LINE
  8
0
 10
154.462
 20
-7.98828
 11
154.539
 21
-8.05078
  0
LINE
  8
0
 10
154.539
 20
-8.05078
 11
154.623
 21
-8.10352
  0
LINE
  8
0
 10
154.623
 20
-8.10352
 11
154.713
 21
-8.14551
  0
LINE
  8
0
 10
154.713
 20
-8.14551
 11
154.808
 21
-8.17578
  0
LINE
  8
0
 10
154.808
 20
-8.17578
 11
154.905
 21
-8.19434
  0
LINE
  8
0
 10
154.905
 20
-8.19434
 11
155.004
 21
-8.2002
  0
LINE
  8
0
 10
155.004
 20
-8.2002
 11
157.2
 21
-8.2002
  0
LINE
  8
0
 10
157.2
 20
-8.2002
 11
157.236
 21
-8.20215
  0
LINE
  8
0
 10
157.236
 20
-8.20215
 11
157.271
 21
-8.20898
  0
LINE
  8
0
 10
157.271
 20
-8.20898
 11
157.307
 21
-8.21973
  0
LINE
  8
0
 10
157.307
 20
-8.21973
 11
157.34
 21
-8.23438
  0
LINE
  8
0
 10
157.34
 20
-8.23438
 11
157.37
 21
-8.25293
  0
LINE
  8
0
 10
157.37
 20
-8.25293
 11
157.399
 21
-8.27539
  0
LINE
  8
0
 10
157.399
 20
-8.27539
 11
157.425
 21
-8.30078
  0
LINE
  8
0
 10
157.425
 20
-8.30078
 11
157.447
 21
-8.3291
  0
LINE
  8
0
 10
157.447
 20
-8.3291
 11
157.466
 21
-8.36035
  0
LINE
  8
0
 10
157.466
 20
-8.36035
 11
157.48
 21
-8.39355
  0
LINE
  8
0
 10
157.48
 20
-8.39355
 11
157.491
 21
-8.42773
  0
LINE
  8
0
 10
157.491
 20
-8.42773
 11
157.498
 21
-8.46387
  0
LINE
  8
0
 10
157.498
 20
-8.46387
 11
157.5
 21
-8.5
  0
LINE
  8
0
 10
157.5
 20
-8.5
 11
157.5
 21
-9.2002
  0
LINE
  8
0
 10
157.5
 20
-9.2002
 11
157.494
 21
-9.29688
  0
LINE
  8
0
 10
157.494
 20
-9.29688
 11
157.477
 21
-9.3916
  0
LINE
  8
0
 10
157.477
 20
-9.3916
 11
157.448
 21
-9.4834
  0
LINE
  8
0
 10
157.448
 20
-9.4834
 11
157.408
 21
-9.57227
  0
LINE
  8
0
 10
157.408
 20
-9.57227
 11
157.358
 21
-9.6543
  0
LINE
  8
0
 10
157.358
 20
-9.6543
 11
157.299
 21
-9.73047
  0
LINE
  8
0
 10
157.299
 20
-9.73047
 11
157.23
 21
-9.79883
  0
LINE
  8
0
 10
157.23
 20
-9.79883
 11
157.154
 21
-9.8584
  0
LINE
  8
0
 10
157.154
 20
-9.8584
 11
157.072
 21
-9.9082
  0
LINE
  8
0
 10
157.072
 20
-9.9082
 11
156.983
 21
-9.94824
  0
LINE
  8
0
 10
156.983
 20
-9.94824
 11
156.892
 21
-9.97656
  0
LINE
  8
0
 10
156.892
 20
-9.97656
 11
156.797
 21
-9.99414
  0
LINE
  8
0
 10
156.797
 20
-9.99414
 11
156.7
 21
-10
  0
LINE
  8
0
 10
156.7
 20
-10
 11
152
 21
-10
  0
LINE
  8
0
 10
-30
 20
-14.9999
 11
-30
 21
-9.99986
  0
LINE
  8
0
 10
-30
 20
-9.99986
 11
-10
 21
-9.99986
  0
LINE
  8
0
 10
-10
 20
-9.99986
 11
-10
 21
-14.9999
  0
LINE
  8
0
 10
-10
 20
-14.9999
 11
-30
 21
-14.9999
  0
LINE
  8
0
 10
-70
 20
-14.9999
 11
-70
 21
-9.99986
  0
LINE
  8
0
 10
-70
 20
-9.99986
 11
-50
 21
-9.99986
  0
LINE
  8
0
 10
-50
 20
-9.99986
 11
-50
 21
-14.9999
  0
LINE
  8
0
 10
-50
 20
-14.9999
 11
-70
 21
-14.9999
  0
LINE
  8
0
 10
-110
 20
-14.9999
 11
-110
 21
-9.99986
  0
LINE
  8
0
 10
-110
 20
-9.99986
 11
-90
 21
-9.99986
  0
LINE
  8
0
 10
-90
 20
-9.99986
 11
-90
 21
-14.9999
  0
LINE
  8
0
 10
-90
 20
-14.9999
 11
-110
 21
-14.9999
  0
LINE
  8
0
 10
-150
 20
-14.9999
 11
-150
 21
-9.99986
  0
LINE
  8
0
 10
-150
 20
-9.99986
 11
-130
 21
-9.99986
  0
LINE
  8
0
 10
-130
 20
-9.99986
 11
-130
 21
-14.9999
  0
LINE
  8
0
 10
-130
 20
-14.9999
 11
-150
 21
-14.9999
  0
LINE
  8
0
 10
10
 20
-14.9999
 11
10
 21
-9.99986
  0
LINE
  8
0
 10
10
 20
-9.99986
 11
30
 21
-9.99986
  0
LINE
  8
0
 10
30
 20
-9.99986
 11
30
 21
-14.9999
  0
LINE
  8
0
 10
30
 20
-14.9999
 11
10
 21
-14.9999
  0
LINE
  8
0
 10
50
 20
-14.9999
 11
50
 21
-9.99986
  0
LINE
  8
0
 10
50
 20
-9.99986
 11
70
 21
-9.99986
  0
LINE
  8
0
 10
70
 20
-9.99986
 11
70
 21
-14.9999
  0
LINE
  8
0
 10
70
 20
-14.9999
 11
50
 21
-14.9999
  0
LINE
  8
0
 10
90
 20
-14.9999
 11
90
 21
-9.99986
  0
LINE
  8
0
 10
90
 20
-9.99986
 11
110
 21
-9.99986
  0
LINE
  8
0
 10
110
 20
-9.99986
 11
110
 21
-14.9999
  0
LINE
  8
0
 10
110
 20
-14.9999
 11
90
 21
-14.9999
  0
LINE
  8
0
 10
130
 20
-14.9999
 11
130
 21
-9.99986
  0
LINE
  8
0
 10
130
 20
-9.99986
 11
150
 21
-9.99986
  0
LINE
  8
0
 10
150
 20
-9.99986
 11
150
 21
-14.9999
  0
LINE
  8
0
 10
150
 20
-14.9999
 11
130
 21
-14.9999
  0
ENDSEC
  0
SECTION
  2
OBJECTS
  0
DICTIONARY
  0
ENDSEC
  0
EOF
