  0
SECTION
  2
BLOCKS
  0
ENDSEC
  0
SECTION
  2
ENTITIES
  0
LINE
  8
0
 10
-60
 20
20
 11
-20
 21
0
  0
LINE
  8
0
 10
-20
 20
0
 11
-20
 21
-20
  0
LINE
  8
0
 10
-20
 20
-20
 11
20
 21
-20
  0
LINE
  8
0
 10
20
 20
-20
 11
20
 21
0
  0
LINE
  8
0
 10
20
 20
0
 11
60
 21
20
  0
LINE
  8
0
 10
60
 20
20
 11
20
 21
20
  0
LINE
  8
0
 10
20
 20
20
 11
20
 21
70
  0
LINE
  8
0
 10
20
 20
70
 11
-20
 21
70
  0
LINE
  8
0
 10
-20
 20
70
 11
-20
 21
20
  0
LINE
  8
0
 10
-20
 20
20
 11
-60
 21
20
  0
LINE
  8
0
 10
15.4058
 20
64.003
 11
15.2189
 21
64.0266
  0
LINE
  8
0
 10
15.2189
 20
64.0266
 11
15.0365
 21
64.0734
  0
LINE
  8
0
 10
15.0365
 20
64.0734
 11
14.8613
 21
64.1428
  0
LINE
  8
0
 10
14.8613
 20
64.1428
 11
14.6963
 21
64.2335
  0
LINE
  8
0
 10
14.6963
 20
64.2335
 11
14.5439
 21
64.3442
  0
LINE
  8
0
 10
14.5439
 20
64.3442
 11
14.4066
 21
64.4732
  0
LINE
  8
0
 10
14.4066
 20
64.4732
 11
14.2865
 21
64.6183
  0
LINE
  8
0
 10
14.2865
 20
64.6183
 11
14.1855
 21
64.7774
  0
LINE
  8
0
 10
14.1855
 20
64.7774
 11
14.1053
 21
64.9478
  0
LINE
  8
0
 10
14.1053
 20
64.9478
 11
14.0471
 21
65.127
  0
LINE
  8
0
 10
14.0471
 20
65.127
 11
14.0118
 21
65.312
  0
LINE
  8
0
 10
14.0118
 20
65.312
 11
14
 21
65.5
  0
LINE
  8
0
 10
14
 20
65.5
 11
14.0118
 21
65.688
  0
LINE
  8
0
 10
14.0118
 20
65.688
 11
14.0471
 21
65.873
  0
LINE
  8
0
 10
14.0471
 20
65.873
 11
14.1053
 21
66.0522
  0
LINE
  8
0
 10
14.1053
 20
66.0522
 11
14.1855
 21
66.2226
  0
LINE
  8
0
 10
14.1855
 20
66.2226
 11
14.2865
 21
66.3817
  0
LINE
  8
0
 10
14.2865
 20
66.3817
 11
14.4066
 21
66.5268
  0
LINE
  8
0
 10
14.4066
 20
66.5268
 11
14.5439
 21
66.6558
  0
LINE
  8
0
 10
14.5439
 20
66.6558
 11
14.6963
 21
66.7665
  0
LINE
  8
0
 10
14.6963
 20
66.7665
 11
14.8613
 21
66.8572
  0
LINE
  8
0
 10
14.8613
 20
66.8572
 11
15.0365
 21
66.9266
  0
LINE
  8
0
 10
15.0365
 20
66.9266
 11
15.2189
 21
66.9734
  0
LINE
  8
0
 10
15.2189
 20
66.9734
 11
15.4058
 21
66.997
  0
LINE
  8
0
 10
15.4058
 20
66.997
 11
15.5942
 21
66.997
  0
LINE
  8
0
 10
15.5942
 20
66.997
 11
15.7811
 21
66.9734
  0
LINE
  8
0
 10
15.7811
 20
66.9734
 11
15.9635
 21
66.9266
  0
LINE
  8
0
 10
15.9635
 20
66.9266
 11
16.1387
 21
66.8572
  0
LINE
  8
0
 10
16.1387
 20
66.8572
 11
16.3037
 21
66.7665
  0
LINE
  8
0
 10
16.3037
 20
66.7665
 11
16.4561
 21
66.6558
  0
LINE
  8
0
 10
16.4561
 20
66.6558
 11
16.5934
 21
66.5268
  0
LINE
  8
0
 10
16.5934
 20
66.5268
 11
16.7135
 21
66.3817
  0
LINE
  8
0
 10
16.7135
 20
66.3817
 11
16.8145
 21
66.2226
  0
LINE
  8
0
 10
16.8145
 20
66.2226
 11
16.8947
 21
66.0522
  0
LINE
  8
0
 10
16.8947
 20
66.0522
 11
16.9529
 21
65.873
  0
LINE
  8
0
 10
16.9529
 20
65.873
 11
16.9882
 21
65.688
  0
LINE
  8
0
 10
16.9882
 20
65.688
 11
17
 21
65.5
  0
LINE
  8
0
 10
17
 20
65.5
 11
16.9882
 21
65.312
  0
LINE
  8
0
 10
16.9882
 20
65.312
 11
16.9529
 21
65.127
  0
LINE
  8
0
 10
16.9529
 20
65.127
 11
16.8947
 21
64.9478
  0
LINE
  8
0
 10
16.8947
 20
64.9478
 11
16.8145
 21
64.7774
  0
LINE
  8
0
 10
16.8145
 20
64.7774
 11
16.7135
 21
64.6183
  0
LINE
  8
0
 10
16.7135
 20
64.6183
 11
16.5934
 21
64.4732
  0
LINE
  8
0
 10
16.5934
 20
64.4732
 11
16.4561
 21
64.3442
  0
LINE
  8
0
 10
16.4561
 20
64.3442
 11
16.3037
 21
64.2335
  0
LINE
  8
0
 10
16.3037
 20
64.2335
 11
16.1387
 21
64.1428
  0
LINE
  8
0
 10
16.1387
 20
64.1428
 11
15.9635
 21
64.0734
  0
LINE
  8
0
 10
15.9635
 20
64.0734
 11
15.7811
 21
64.0266
  0
LINE
  8
0
 10
15.7811
 20
64.0266
 11
15.5942
 21
64.003
  0
LINE
  8
0
 10
15.5942
 20
64.003
 11
15.4058
 21
64.003
  0
LINE
  8
0
 10
-15.5942
 20
64.003
 11
-15.7811
 21
64.0266
  0
LINE
  8
0
 10
-15.7811
 20
64.0266
 11
-15.9635
 21
64.0734
  0
LINE
  8
0
 10
-15.9635
 20
64.0734
 11
-16.1387
 21
64.1428
  0
LINE
  8
0
 10
-16.1387
 20
64.1428
 11
-16.3037
 21
64.2335
  0
LINE
  8
0
 10
-16.3037
 20
64.2335
 11
-16.4561
 21
64.3442
  0
LINE
  8
0
 10
-16.4561
 20
64.3442
 11
-16.5934
 21
64.4732
  0
LINE
  8
0
 10
-16.5934
 20
64.4732
 11
-16.7135
 21
64.6183
  0
LINE
  8
0
 10
-16.7135
 20
64.6183
 11
-16.8145
 21
64.7774
  0
LINE
  8
0
 10
-16.8145
 20
64.7774
 11
-16.8947
 21
64.9478
  0
LINE
  8
0
 10
-16.8947
 20
64.9478
 11
-16.9529
 21
65.127
  0
LINE
  8
0
 10
-16.9529
 20
65.127
 11
-16.9882
 21
65.312
  0
LINE
  8
0
 10
-16.9882
 20
65.312
 11
-17
 21
65.5
  0
LINE
  8
0
 10
-17
 20
65.5
 11
-16.9882
 21
65.688
  0
LINE
  8
0
 10
-16.9882
 20
65.688
 11
-16.9529
 21
65.873
  0
LINE
  8
0
 10
-16.9529
 20
65.873
 11
-16.8947
 21
66.0522
  0
LINE
  8
0
 10
-16.8947
 20
66.0522
 11
-16.8145
 21
66.2226
  0
LINE
  8
0
 10
-16.8145
 20
66.2226
 11
-16.7135
 21
66.3817
  0
LINE
  8
0
 10
-16.7135
 20
66.3817
 11
-16.5934
 21
66.5268
  0
LINE
  8
0
 10
-16.5934
 20
66.5268
 11
-16.4561
 21
66.6558
  0
LINE
  8
0
 10
-16.4561
 20
66.6558
 11
-16.3037
 21
66.7665
  0
LINE
  8
0
 10
-16.3037
 20
66.7665
 11
-16.1387
 21
66.8572
  0
LINE
  8
0
 10
-16.1387
 20
66.8572
 11
-15.9635
 21
66.9266
  0
LINE
  8
0
 10
-15.9635
 20
66.9266
 11
-15.7811
 21
66.9734
  0
LINE
  8
0
 10
-15.7811
 20
66.9734
 11
-15.5942
 21
66.997
  0
LINE
  8
0
 10
-15.5942
 20
66.997
 11
-15.4058
 21
66.997
  0
LINE
  8
0
 10
-15.4058
 20
66.997
 11
-15.2189
 21
66.9734
  0
LINE
  8
0
 10
-15.2189
 20
66.9734
 11
-15.0365
 21
66.9266
  0
LINE
  8
0
 10
-15.0365
 20
66.9266
 11
-14.8613
 21
66.8572
  0
LINE
  8
0
 10
-14.8613
 20
66.8572
 11
-14.6963
 21
66.7665
  0
LINE
  8
0
 10
-14.6963
 20
66.7665
 11
-14.5439
 21
66.6558
  0
LINE
  8
0
 10
-14.5439
 20
66.6558
 11
-14.4066
 21
66.5268
  0
LINE
  8
0
 10
-14.4066
 20
66.5268
 11
-14.2865
 21
66.3817
  0
LINE
  8
0
 10
-14.2865
 20
66.3817
 11
-14.1855
 21
66.2226
  0
LINE
  8
0
 10
-14.1855
 20
66.2226
 11
-14.1053
 21
66.0522
  0
LINE
  8
0
 10
-14.1053
 20
66.0522
 11
-14.0471
 21
65.873
  0
LINE
  8
0
 10
-14.0471
 20
65.873
 11
-14.0118
 21
65.688
  0
LINE
  8
0
 10
-14.0118
 20
65.688
 11
-14
 21
65.5
  0
LINE
  8
0
 10
-14
 20
65.5
 11
-14.0118
 21
65.312
  0
LINE
  8
0
 10
-14.0118
 20
65.312
 11
-14.0471
 21
65.127
  0
LINE
  8
0
 10
-14.0471
 20
65.127
 11
-14.1053
 21
64.9478
  0
LINE
  8
0
 10
-14.1053
 20
64.9478
 11
-14.1855
 21
64.7774
  0
LINE
  8
0
 10
-14.1855
 20
64.7774
 11
-14.2865
 21
64.6183
  0
LINE
  8
0
 10
-14.2865
 20
64.6183
 11
-14.4066
 21
64.4732
  0
LINE
  8
0
 10
-14.4066
 20
64.4732
 11
-14.5439
 21
64.3442
  0
LINE
  8
0
 10
-14.5439
 20
64.3442
 11
-14.6963
 21
64.2335
  0
LINE
  8
0
 10
-14.6963
 20
64.2335
 11
-14.8613
 21
64.1428
  0
LINE
  8
0
 10
-14.8613
 20
64.1428
 11
-15.0365
 21
64.0734
  0
LINE
  8
0
 10
-15.0365
 20
64.0734
 11
-15.2189
 21
64.0266
  0
LINE
  8
0
 10
-15.2189
 20
64.0266
 11
-15.4058
 21
64.003
  0
LINE
  8
0
 10
-15.4058
 20
64.003
 11
-15.5942
 21
64.003
  0
LINE
  8
0
 10
-0.879059
 20
36.0276
 11
-2.62334
 21
36.248
  0
LINE
  8
0
 10
-2.62334
 20
36.248
 11
-4.32623
 21
36.6852
  0
LINE
  8
0
 10
-4.32623
 20
36.6852
 11
-5.96091
 21
37.3324
  0
LINE
  8
0
 10
-5.96091
 20
37.3324
 11
-7.50157
 21
38.1794
  0
LINE
  8
0
 10
-7.50157
 20
38.1794
 11
-8.92393
 21
39.2128
  0
LINE
  8
0
 10
-8.92393
 20
39.2128
 11
-10.2056
 21
40.4164
  0
LINE
  8
0
 10
-10.2056
 20
40.4164
 11
-11.3262
 21
41.771
  0
LINE
  8
0
 10
-11.3262
 20
41.771
 11
-12.2683
 21
43.2555
  0
LINE
  8
0
 10
-12.2683
 20
43.2555
 11
-13.0169
 21
44.8463
  0
LINE
  8
0
 10
-13.0169
 20
44.8463
 11
-13.5602
 21
46.5184
  0
LINE
  8
0
 10
-13.5602
 20
46.5184
 11
-13.8896
 21
48.2453
  0
LINE
  8
0
 10
-13.8896
 20
48.2453
 11
-14
 21
50
  0
LINE
  8
0
 10
-14
 20
50
 11
-13.8896
 21
51.7547
  0
LINE
  8
0
 10
-13.8896
 20
51.7547
 11
-13.5602
 21
53.4816
  0
LINE
  8
0
 10
-13.5602
 20
53.4816
 11
-13.0169
 21
55.1537
  0
LINE
  8
0
 10
-13.0169
 20
55.1537
 11
-12.2683
 21
56.7445
  0
LINE
  8
0
 10
-12.2683
 20
56.7445
 11
-11.3262
 21
58.229
  0
LINE
  8
0
 10
-11.3262
 20
58.229
 11
-10.2056
 21
59.5836
  0
LINE
  8
0
 10
-10.2056
 20
59.5836
 11
-8.92393
 21
60.7872
  0
LINE
  8
0
 10
-8.92393
 20
60.7872
 11
-7.50157
 21
61.8206
  0
LINE
  8
0
 10
-7.50157
 20
61.8206
 11
-5.96091
 21
62.6676
  0
LINE
  8
0
 10
-5.96091
 20
62.6676
 11
-4.32623
 21
63.3148
  0
LINE
  8
0
 10
-4.32623
 20
63.3148
 11
-2.62334
 21
63.752
  0
LINE
  8
0
 10
-2.62334
 20
63.752
 11
-0.879059
 21
63.9724
  0
LINE
  8
0
 10
-0.879059
 20
63.9724
 11
0.879059
 21
63.9724
  0
LINE
  8
0
 10
0.879059
 20
63.9724
 11
2.62334
 21
63.752
  0
LINE
  8
0
 10
2.62334
 20
63.752
 11
4.32623
 21
63.3148
  0
LINE
  8
0
 10
4.32623
 20
63.3148
 11
5.96091
 21
62.6676
  0
LINE
  8
0
 10
5.96091
 20
62.6676
 11
7.50157
 21
61.8206
  0
LINE
  8
0
 10
7.50157
 20
61.8206
 11
8.92393
 21
60.7872
  0
LINE
  8
0
 10
8.92393
 20
60.7872
 11
10.2056
 21
59.5836
  0
LINE
  8
0
 10
10.2056
 20
59.5836
 11
11.3262
 21
58.229
  0
LINE
  8
0
 10
11.3262
 20
58.229
 11
12.2683
 21
56.7445
  0
LINE
  8
0
 10
12.2683
 20
56.7445
 11
13.0169
 21
55.1537
  0
LINE
  8
0
 10
13.0169
 20
55.1537
 11
13.5602
 21
53.4816
  0
LINE
  8
0
 10
13.5602
 20
53.4816
 11
13.8896
 21
51.7547
  0
LINE
  8
0
 10
13.8896
 20
51.7547
 11
14
 21
50
  0
LINE
  8
0
 10
14
 20
50
 11
13.8896
 21
48.2453
  0
LINE
  8
0
 10
13.8896
 20
48.2453
 11
13.5602
 21
46.5184
  0
LINE
  8
0
 10
13.5602
 20
46.5184
 11
13.0169
 21
44.8463
  0
LINE
  8
0
 10
13.0169
 20
44.8463
 11
12.2683
 21
43.2555
  0
LINE
  8
0
 10
12.2683
 20
43.2555
 11
11.3262
 21
41.771
  0
LINE
  8
0
 10
11.3262
 20
41.771
 11
10.2056
 21
40.4164
  0
LINE
  8
0
 10
10.2056
 20
40.4164
 11
8.92393
 21
39.2128
  0
LINE
  8
0
 10
8.92393
 20
39.2128
 11
7.50157
 21
38.1794
  0
LINE
  8
0
 10
7.50157
 20
38.1794
 11
5.96091
 21
37.3324
  0
LINE
  8
0
 10
5.96091
 20
37.3324
 11
4.32623
 21
36.6852
  0
LINE
  8
0
 10
4.32623
 20
36.6852
 11
2.62334
 21
36.248
  0
LINE
  8
0
 10
2.62334
 20
36.248
 11
0.879059
 21
36.0276
  0
LINE
  8
0
 10
0.879059
 20
36.0276
 11
-0.879059
 21
36.0276
  0
LINE
  8
0
 10
15.4058
 20
33.003
 11
15.2189
 21
33.0266
  0
LINE
  8
0
 10
15.2189
 20
33.0266
 11
15.0365
 21
33.0734
  0
LINE
  8
0
 10
15.0365
 20
33.0734
 11
14.8613
 21
33.1428
  0
LINE
  8
0
 10
14.8613
 20
33.1428
 11
14.6963
 21
33.2335
  0
LINE
  8
0
 10
14.6963
 20
33.2335
 11
14.5439
 21
33.3442
  0
LINE
  8
0
 10
14.5439
 20
33.3442
 11
14.4066
 21
33.4732
  0
LINE
  8
0
 10
14.4066
 20
33.4732
 11
14.2865
 21
33.6183
  0
LINE
  8
0
 10
14.2865
 20
33.6183
 11
14.1855
 21
33.7774
  0
LINE
  8
0
 10
14.1855
 20
33.7774
 11
14.1053
 21
33.9478
  0
LINE
  8
0
 10
14.1053
 20
33.9478
 11
14.0471
 21
34.127
  0
LINE
  8
0
 10
14.0471
 20
34.127
 11
14.0118
 21
34.312
  0
LINE
  8
0
 10
14.0118
 20
34.312
 11
14
 21
34.5
  0
LINE
  8
0
 10
14
 20
34.5
 11
14.0118
 21
34.688
  0
LINE
  8
0
 10
14.0118
 20
34.688
 11
14.0471
 21
34.873
  0
LINE
  8
0
 10
14.0471
 20
34.873
 11
14.1053
 21
35.0522
  0
LINE
  8
0
 10
14.1053
 20
35.0522
 11
14.1855
 21
35.2226
  0
LINE
  8
0
 10
14.1855
 20
35.2226
 11
14.2865
 21
35.3817
  0
LINE
  8
0
 10
14.2865
 20
35.3817
 11
14.4066
 21
35.5268
  0
LINE
  8
0
 10
14.4066
 20
35.5268
 11
14.5439
 21
35.6558
  0
LINE
  8
0
 10
14.5439
 20
35.6558
 11
14.6963
 21
35.7665
  0
LINE
  8
0
 10
14.6963
 20
35.7665
 11
14.8613
 21
35.8572
  0
LINE
  8
0
 10
14.8613
 20
35.8572
 11
15.0365
 21
35.9266
  0
LINE
  8
0
 10
15.0365
 20
35.9266
 11
15.2189
 21
35.9734
  0
LINE
  8
0
 10
15.2189
 20
35.9734
 11
15.4058
 21
35.997
  0
LINE
  8
0
 10
15.4058
 20
35.997
 11
15.5942
 21
35.997
  0
LINE
  8
0
 10
15.5942
 20
35.997
 11
15.7811
 21
35.9734
  0
LINE
  8
0
 10
15.7811
 20
35.9734
 11
15.9635
 21
35.9266
  0
LINE
  8
0
 10
15.9635
 20
35.9266
 11
16.1387
 21
35.8572
  0
LINE
  8
0
 10
16.1387
 20
35.8572
 11
16.3037
 21
35.7665
  0
LINE
  8
0
 10
16.3037
 20
35.7665
 11
16.4561
 21
35.6558
  0
LINE
  8
0
 10
16.4561
 20
35.6558
 11
16.5934
 21
35.5268
  0
LINE
  8
0
 10
16.5934
 20
35.5268
 11
16.7135
 21
35.3817
  0
LINE
  8
0
 10
16.7135
 20
35.3817
 11
16.8145
 21
35.2226
  0
LINE
  8
0
 10
16.8145
 20
35.2226
 11
16.8947
 21
35.0522
  0
LINE
  8
0
 10
16.8947
 20
35.0522
 11
16.9529
 21
34.873
  0
LINE
  8
0
 10
16.9529
 20
34.873
 11
16.9882
 21
34.688
  0
LINE
  8
0
 10
16.9882
 20
34.688
 11
17
 21
34.5
  0
LINE
  8
0
 10
17
 20
34.5
 11
16.9882
 21
34.312
  0
LINE
  8
0
 10
16.9882
 20
34.312
 11
16.9529
 21
34.127
  0
LINE
  8
0
 10
16.9529
 20
34.127
 11
16.8947
 21
33.9478
  0
LINE
  8
0
 10
16.8947
 20
33.9478
 11
16.8145
 21
33.7774
  0
LINE
  8
0
 10
16.8145
 20
33.7774
 11
16.7135
 21
33.6183
  0
LINE
  8
0
 10
16.7135
 20
33.6183
 11
16.5934
 21
33.4732
  0
LINE
  8
0
 10
16.5934
 20
33.4732
 11
16.4561
 21
33.3442
  0
LINE
  8
0
 10
16.4561
 20
33.3442
 11
16.3037
 21
33.2335
  0
LINE
  8
0
 10
16.3037
 20
33.2335
 11
16.1387
 21
33.1428
  0
LINE
  8
0
 10
16.1387
 20
33.1428
 11
15.9635
 21
33.0734
  0
LINE
  8
0
 10
15.9635
 20
33.0734
 11
15.7811
 21
33.0266
  0
LINE
  8
0
 10
15.7811
 20
33.0266
 11
15.5942
 21
33.003
  0
LINE
  8
0
 10
15.5942
 20
33.003
 11
15.4058
 21
33.003
  0
LINE
  8
0
 10
-15.5942
 20
33.003
 11
-15.7811
 21
33.0266
  0
LINE
  8
0
 10
-15.7811
 20
33.0266
 11
-15.9635
 21
33.0734
  0
LINE
  8
0
 10
-15.9635
 20
33.0734
 11
-16.1387
 21
33.1428
  0
LINE
  8
0
 10
-16.1387
 20
33.1428
 11
-16.3037
 21
33.2335
  0
LINE
  8
0
 10
-16.3037
 20
33.2335
 11
-16.4561
 21
33.3442
  0
LINE
  8
0
 10
-16.4561
 20
33.3442
 11
-16.5934
 21
33.4732
  0
LINE
  8
0
 10
-16.5934
 20
33.4732
 11
-16.7135
 21
33.6183
  0
LINE
  8
0
 10
-16.7135
 20
33.6183
 11
-16.8145
 21
33.7774
  0
LINE
  8
0
 10
-16.8145
 20
33.7774
 11
-16.8947
 21
33.9478
  0
LINE
  8
0
 10
-16.8947
 20
33.9478
 11
-16.9529
 21
34.127
  0
LINE
  8
0
 10
-16.9529
 20
34.127
 11
-16.9882
 21
34.312
  0
LINE
  8
0
 10
-16.9882
 20
34.312
 11
-17
 21
34.5
  0
LINE
  8
0
 10
-17
 20
34.5
 11
-16.9882
 21
34.688
  0
LINE
  8
0
 10
-16.9882
 20
34.688
 11
-16.9529
 21
34.873
  0
LINE
  8
0
 10
-16.9529
 20
34.873
 11
-16.8947
 21
35.0522
  0
LINE
  8
0
 10
-16.8947
 20
35.0522
 11
-16.8145
 21
35.2226
  0
LINE
  8
0
 10
-16.8145
 20
35.2226
 11
-16.7135
 21
35.3817
  0
LINE
  8
0
 10
-16.7135
 20
35.3817
 11
-16.5934
 21
35.5268
  0
LINE
  8
0
 10
-16.5934
 20
35.5268
 11
-16.4561
 21
35.6558
  0
LINE
  8
0
 10
-16.4561
 20
35.6558
 11
-16.3037
 21
35.7665
  0
LINE
  8
0
 10
-16.3037
 20
35.7665
 11
-16.1387
 21
35.8572
  0
LINE
  8
0
 10
-16.1387
 20
35.8572
 11
-15.9635
 21
35.9266
  0
LINE
  8
0
 10
-15.9635
 20
35.9266
 11
-15.7811
 21
35.9734
  0
LINE
  8
0
 10
-15.7811
 20
35.9734
 11
-15.5942
 21
35.997
  0
LINE
  8
0
 10
-15.5942
 20
35.997
 11
-15.4058
 21
35.997
  0
LINE
  8
0
 10
-15.4058
 20
35.997
 11
-15.2189
 21
35.9734
  0
LINE
  8
0
 10
-15.2189
 20
35.9734
 11
-15.0365
 21
35.9266
  0
LINE
  8
0
 10
-15.0365
 20
35.9266
 11
-14.8613
 21
35.8572
  0
LINE
  8
0
 10
-14.8613
 20
35.8572
 11
-14.6963
 21
35.7665
  0
LINE
  8
0
 10
-14.6963
 20
35.7665
 11
-14.5439
 21
35.6558
  0
LINE
  8
0
 10
-14.5439
 20
35.6558
 11
-14.4066
 21
35.5268
  0
LINE
  8
0
 10
-14.4066
 20
35.5268
 11
-14.2865
 21
35.3817
  0
LINE
  8
0
 10
-14.2865
 20
35.3817
 11
-14.1855
 21
35.2226
  0
LINE
  8
0
 10
-14.1855
 20
35.2226
 11
-14.1053
 21
35.0522
  0
LINE
  8
0
 10
-14.1053
 20
35.0522
 11
-14.0471
 21
34.873
  0
LINE
  8
0
 10
-14.0471
 20
34.873
 11
-14.0118
 21
34.688
  0
LINE
  8
0
 10
-14.0118
 20
34.688
 11
-14
 21
34.5
  0
LINE
  8
0
 10
-14
 20
34.5
 11
-14.0118
 21
34.312
  0
LINE
  8
0
 10
-14.0118
 20
34.312
 11
-14.0471
 21
34.127
  0
LINE
  8
0
 10
-14.0471
 20
34.127
 11
-14.1053
 21
33.9478
  0
LINE
  8
0
 10
-14.1053
 20
33.9478
 11
-14.1855
 21
33.7774
  0
LINE
  8
0
 10
-14.1855
 20
33.7774
 11
-14.2865
 21
33.6183
  0
LINE
  8
0
 10
-14.2865
 20
33.6183
 11
-14.4066
 21
33.4732
  0
LINE
  8
0
 10
-14.4066
 20
33.4732
 11
-14.5439
 21
33.3442
  0
LINE
  8
0
 10
-14.5439
 20
33.3442
 11
-14.6963
 21
33.2335
  0
LINE
  8
0
 10
-14.6963
 20
33.2335
 11
-14.8613
 21
33.1428
  0
LINE
  8
0
 10
-14.8613
 20
33.1428
 11
-15.0365
 21
33.0734
  0
LINE
  8
0
 10
-15.0365
 20
33.0734
 11
-15.2189
 21
33.0266
  0
LINE
  8
0
 10
-15.2189
 20
33.0266
 11
-15.4058
 21
33.003
  0
LINE
  8
0
 10
-15.4058
 20
33.003
 11
-15.5942
 21
33.003
  0
LINE
  8
0
 10
-10.157
 20
7.50493
 11
-10.4684
 21
7.54428
  0
LINE
  8
0
 10
-10.4684
 20
7.54428
 11
-10.7725
 21
7.62234
  0
LINE
  8
0
 10
-10.7725
 20
7.62234
 11
-11.0644
 21
7.73793
  0
LINE
  8
0
 10
-11.0644
 20
7.73793
 11
-11.3396
 21
7.88918
  0
LINE
  8
0
 10
-11.3396
 20
7.88918
 11
-11.5936
 21
8.07372
  0
LINE
  8
0
 10
-11.5936
 20
8.07372
 11
-11.8224
 21
8.28862
  0
LINE
  8
0
 10
-11.8224
 20
8.28862
 11
-12.0225
 21
8.53053
  0
LINE
  8
0
 10
-12.0225
 20
8.53053
 11
-12.1908
 21
8.79561
  0
LINE
  8
0
 10
-12.1908
 20
8.79561
 11
-12.3244
 21
9.07968
  0
LINE
  8
0
 10
-12.3244
 20
9.07968
 11
-12.4214
 21
9.37827
  0
LINE
  8
0
 10
-12.4214
 20
9.37827
 11
-12.4803
 21
9.68666
  0
LINE
  8
0
 10
-12.4803
 20
9.68666
 11
-12.5
 21
10
  0
LINE
  8
0
 10
-12.5
 20
10
 11
-12.4803
 21
10.3133
  0
LINE
  8
0
 10
-12.4803
 20
10.3133
 11
-12.4214
 21
10.6217
  0
LINE
  8
0
 10
-12.4214
 20
10.6217
 11
-12.3244
 21
10.9203
  0
LINE
  8
0
 10
-12.3244
 20
10.9203
 11
-12.1908
 21
11.2044
  0
LINE
  8
0
 10
-12.1908
 20
11.2044
 11
-12.0225
 21
11.4695
  0
LINE
  8
0
 10
-12.0225
 20
11.4695
 11
-11.8224
 21
11.7114
  0
LINE
  8
0
 10
-11.8224
 20
11.7114
 11
-11.5936
 21
11.9263
  0
LINE
  8
0
 10
-11.5936
 20
11.9263
 11
-11.3396
 21
12.1108
  0
LINE
  8
0
 10
-11.3396
 20
12.1108
 11
-11.0644
 21
12.2621
  0
LINE
  8
0
 10
-11.0644
 20
12.2621
 11
-10.7725
 21
12.3776
  0
LINE
  8
0
 10
-10.7725
 20
12.3776
 11
-10.4684
 21
12.4557
  0
LINE
  8
0
 10
-10.4684
 20
12.4557
 11
-10.157
 21
12.4951
  0
LINE
  8
0
 10
-10.157
 20
12.4951
 11
-9.84302
 21
12.4951
  0
LINE
  8
0
 10
-9.84302
 20
12.4951
 11
-9.53154
 21
12.4557
  0
LINE
  8
0
 10
-9.53154
 20
12.4557
 11
-9.22745
 21
12.3776
  0
LINE
  8
0
 10
-9.22745
 20
12.3776
 11
-8.93555
 21
12.2621
  0
LINE
  8
0
 10
-8.93555
 20
12.2621
 11
-8.66043
 21
12.1108
  0
LINE
  8
0
 10
-8.66043
 20
12.1108
 11
-8.40643
 21
11.9263
  0
LINE
  8
0
 10
-8.40643
 20
11.9263
 11
-8.17757
 21
11.7114
  0
LINE
  8
0
 10
-8.17757
 20
11.7114
 11
-7.97745
 21
11.4695
  0
LINE
  8
0
 10
-7.97745
 20
11.4695
 11
-7.80922
 21
11.2044
  0
LINE
  8
0
 10
-7.80922
 20
11.2044
 11
-7.67555
 21
10.9203
  0
LINE
  8
0
 10
-7.67555
 20
10.9203
 11
-7.57854
 21
10.6217
  0
LINE
  8
0
 10
-7.57854
 20
10.6217
 11
-7.5197
 21
10.3133
  0
LINE
  8
0
 10
-7.5197
 20
10.3133
 11
-7.5
 21
10
  0
LINE
  8
0
 10
-7.5
 20
10
 11
-7.5197
 21
9.68666
  0
LINE
  8
0
 10
-7.5197
 20
9.68666
 11
-7.57854
 21
9.37827
  0
LINE
  8
0
 10
-7.57854
 20
9.37827
 11
-7.67555
 21
9.07968
  0
LINE
  8
0
 10
-7.67555
 20
9.07968
 11
-7.80922
 21
8.79561
  0
LINE
  8
0
 10
-7.80922
 20
8.79561
 11
-7.97745
 21
8.53053
  0
LINE
  8
0
 10
-7.97745
 20
8.53053
 11
-8.17757
 21
8.28862
  0
LINE
  8
0
 10
-8.17757
 20
8.28862
 11
-8.40643
 21
8.07372
  0
LINE
  8
0
 10
-8.40643
 20
8.07372
 11
-8.66043
 21
7.88918
  0
LINE
  8
0
 10
-8.66043
 20
7.88918
 11
-8.93555
 21
7.73793
  0
LINE
  8
0
 10
-8.93555
 20
7.73793
 11
-9.22745
 21
7.62234
  0
LINE
  8
0
 10
-9.22745
 20
7.62234
 11
-9.53154
 21
7.54428
  0
LINE
  8
0
 10
-9.53154
 20
7.54428
 11
-9.84302
 21
7.50493
  0
LINE
  8
0
 10
-9.84302
 20
7.50493
 11
-10.157
 21
7.50493
  0
LINE
  8
0
 10
9.84302
 20
7.50493
 11
9.53154
 21
7.54428
  0
LINE
  8
0
 10
9.53154
 20
7.54428
 11
9.22745
 21
7.62234
  0
LINE
  8
0
 10
9.22745
 20
7.62234
 11
8.93555
 21
7.73793
  0
LINE
  8
0
 10
8.93555
 20
7.73793
 11
8.66043
 21
7.88918
  0
LINE
  8
0
 10
8.66043
 20
7.88918
 11
8.40643
 21
8.07372
  0
LINE
  8
0
 10
8.40643
 20
8.07372
 11
8.17757
 21
8.28862
  0
LINE
  8
0
 10
8.17757
 20
8.28862
 11
7.97745
 21
8.53053
  0
LINE
  8
0
 10
7.97745
 20
8.53053
 11
7.80922
 21
8.79561
  0
LINE
  8
0
 10
7.80922
 20
8.79561
 11
7.67555
 21
9.07968
  0
LINE
  8
0
 10
7.67555
 20
9.07968
 11
7.57854
 21
9.37827
  0
LINE
  8
0
 10
7.57854
 20
9.37827
 11
7.5197
 21
9.68666
  0
LINE
  8
0
 10
7.5197
 20
9.68666
 11
7.5
 21
10
  0
LINE
  8
0
 10
7.5
 20
10
 11
7.5197
 21
10.3133
  0
LINE
  8
0
 10
7.5197
 20
10.3133
 11
7.57854
 21
10.6217
  0
LINE
  8
0
 10
7.57854
 20
10.6217
 11
7.67555
 21
10.9203
  0
LINE
  8
0
 10
7.67555
 20
10.9203
 11
7.80922
 21
11.2044
  0
LINE
  8
0
 10
7.80922
 20
11.2044
 11
7.97745
 21
11.4695
  0
LINE
  8
0
 10
7.97745
 20
11.4695
 11
8.17757
 21
11.7114
  0
LINE
  8
0
 10
8.17757
 20
11.7114
 11
8.40643
 21
11.9263
  0
LINE
  8
0
 10
8.40643
 20
11.9263
 11
8.66043
 21
12.1108
  0
LINE
  8
0
 10
8.66043
 20
12.1108
 11
8.93555
 21
12.2621
  0
LINE
  8
0
 10
8.93555
 20
12.2621
 11
9.22745
 21
12.3776
  0
LINE
  8
0
 10
9.22745
 20
12.3776
 11
9.53154
 21
12.4557
  0
LINE
  8
0
 10
9.53154
 20
12.4557
 11
9.84302
 21
12.4951
  0
LINE
  8
0
 10
9.84302
 20
12.4951
 11
10.157
 21
12.4951
  0
LINE
  8
0
 10
10.157
 20
12.4951
 11
10.4684
 21
12.4557
  0
LINE
  8
0
 10
10.4684
 20
12.4557
 11
10.7725
 21
12.3776
  0
LINE
  8
0
 10
10.7725
 20
12.3776
 11
11.0644
 21
12.2621
  0
LINE
  8
0
 10
11.0644
 20
12.2621
 11
11.3396
 21
12.1108
  0
LINE
  8
0
 10
11.3396
 20
12.1108
 11
11.5936
 21
11.9263
  0
LINE
  8
0
 10
11.5936
 20
11.9263
 11
11.8224
 21
11.7114
  0
LINE
  8
0
 10
11.8224
 20
11.7114
 11
12.0225
 21
11.4695
  0
LINE
  8
0
 10
12.0225
 20
11.4695
 11
12.1908
 21
11.2044
  0
LINE
  8
0
 10
12.1908
 20
11.2044
 11
12.3244
 21
10.9203
  0
LINE
  8
0
 10
12.3244
 20
10.9203
 11
12.4214
 21
10.6217
  0
LINE
  8
0
 10
12.4214
 20
10.6217
 11
12.4803
 21
10.3133
  0
LINE
  8
0
 10
12.4803
 20
10.3133
 11
12.5
 21
10
  0
LINE
  8
0
 10
12.5
 20
10
 11
12.4803
 21
9.68666
  0
LINE
  8
0
 10
12.4803
 20
9.68666
 11
12.4214
 21
9.37827
  0
LINE
  8
0
 10
12.4214
 20
9.37827
 11
12.3244
 21
9.07968
  0
LINE
  8
0
 10
12.3244
 20
9.07968
 11
12.1908
 21
8.79561
  0
LINE
  8
0
 10
12.1908
 20
8.79561
 11
12.0225
 21
8.53053
  0
LINE
  8
0
 10
12.0225
 20
8.53053
 11
11.8224
 21
8.28862
  0
LINE
  8
0
 10
11.8224
 20
8.28862
 11
11.5936
 21
8.07372
  0
LINE
  8
0
 10
11.5936
 20
8.07372
 11
11.3396
 21
7.88918
  0
LINE
  8
0
 10
11.3396
 20
7.88918
 11
11.0644
 21
7.73793
  0
LINE
  8
0
 10
11.0644
 20
7.73793
 11
10.7725
 21
7.62234
  0
LINE
  8
0
 10
10.7725
 20
7.62234
 11
10.4684
 21
7.54428
  0
LINE
  8
0
 10
10.4684
 20
7.54428
 11
10.157
 21
7.50493
  0
LINE
  8
0
 10
10.157
 20
7.50493
 11
9.84302
 21
7.50493
  0
LINE
  8
0
 10
-10.157
 20
-12.4951
 11
-10.4684
 21
-12.4557
  0
LINE
  8
0
 10
-10.4684
 20
-12.4557
 11
-10.7725
 21
-12.3776
  0
LINE
  8
0
 10
-10.7725
 20
-12.3776
 11
-11.0644
 21
-12.2621
  0
LINE
  8
0
 10
-11.0644
 20
-12.2621
 11
-11.3396
 21
-12.1108
  0
LINE
  8
0
 10
-11.3396
 20
-12.1108
 11
-11.5936
 21
-11.9263
  0
LINE
  8
0
 10
-11.5936
 20
-11.9263
 11
-11.8224
 21
-11.7114
  0
LINE
  8
0
 10
-11.8224
 20
-11.7114
 11
-12.0225
 21
-11.4695
  0
LINE
  8
0
 10
-12.0225
 20
-11.4695
 11
-12.1908
 21
-11.2044
  0
LINE
  8
0
 10
-12.1908
 20
-11.2044
 11
-12.3244
 21
-10.9203
  0
LINE
  8
0
 10
-12.3244
 20
-10.9203
 11
-12.4214
 21
-10.6217
  0
LINE
  8
0
 10
-12.4214
 20
-10.6217
 11
-12.4803
 21
-10.3133
  0
LINE
  8
0
 10
-12.4803
 20
-10.3133
 11
-12.5
 21
-10
  0
LINE
  8
0
 10
-12.5
 20
-10
 11
-12.4803
 21
-9.68666
  0
LINE
  8
0
 10
-12.4803
 20
-9.68666
 11
-12.4214
 21
-9.37827
  0
LINE
  8
0
 10
-12.4214
 20
-9.37827
 11
-12.3244
 21
-9.07968
  0
LINE
  8
0
 10
-12.3244
 20
-9.07968
 11
-12.1908
 21
-8.79561
  0
LINE
  8
0
 10
-12.1908
 20
-8.79561
 11
-12.0225
 21
-8.53053
  0
LINE
  8
0
 10
-12.0225
 20
-8.53053
 11
-11.8224
 21
-8.28862
  0
LINE
  8
0
 10
-11.8224
 20
-8.28862
 11
-11.5936
 21
-8.07372
  0
LINE
  8
0
 10
-11.5936
 20
-8.07372
 11
-11.3396
 21
-7.88918
  0
LINE
  8
0
 10
-11.3396
 20
-7.88918
 11
-11.0644
 21
-7.73793
  0
LINE
  8
0
 10
-11.0644
 20
-7.73793
 11
-10.7725
 21
-7.62234
  0
LINE
  8
0
 10
-10.7725
 20
-7.62234
 11
-10.4684
 21
-7.54428
  0
LINE
  8
0
 10
-10.4684
 20
-7.54428
 11
-10.157
 21
-7.50493
  0
LINE
  8
0
 10
-10.157
 20
-7.50493
 11
-9.84302
 21
-7.50493
  0
LINE
  8
0
 10
-9.84302
 20
-7.50493
 11
-9.53154
 21
-7.54428
  0
LINE
  8
0
 10
-9.53154
 20
-7.54428
 11
-9.22745
 21
-7.62234
  0
LINE
  8
0
 10
-9.22745
 20
-7.62234
 11
-8.93555
 21
-7.73793
  0
LINE
  8
0
 10
-8.93555
 20
-7.73793
 11
-8.66043
 21
-7.88918
  0
LINE
  8
0
 10
-8.66043
 20
-7.88918
 11
-8.40643
 21
-8.07372
  0
LINE
  8
0
 10
-8.40643
 20
-8.07372
 11
-8.17757
 21
-8.28862
  0
LINE
  8
0
 10
-8.17757
 20
-8.28862
 11
-7.97745
 21
-8.53053
  0
LINE
  8
0
 10
-7.97745
 20
-8.53053
 11
-7.80922
 21
-8.79561
  0
LINE
  8
0
 10
-7.80922
 20
-8.79561
 11
-7.67555
 21
-9.07968
  0
LINE
  8
0
 10
-7.67555
 20
-9.07968
 11
-7.57854
 21
-9.37827
  0
LINE
  8
0
 10
-7.57854
 20
-9.37827
 11
-7.5197
 21
-9.68666
  0
LINE
  8
0
 10
-7.5197
 20
-9.68666
 11
-7.5
 21
-10
  0
LINE
  8
0
 10
-7.5
 20
-10
 11
-7.5197
 21
-10.3133
  0
LINE
  8
0
 10
-7.5197
 20
-10.3133
 11
-7.57854
 21
-10.6217
  0
LINE
  8
0
 10
-7.57854
 20
-10.6217
 11
-7.67555
 21
-10.9203
  0
LINE
  8
0
 10
-7.67555
 20
-10.9203
 11
-7.80922
 21
-11.2044
  0
LINE
  8
0
 10
-7.80922
 20
-11.2044
 11
-7.97745
 21
-11.4695
  0
LINE
  8
0
 10
-7.97745
 20
-11.4695
 11
-8.17757
 21
-11.7114
  0
LINE
  8
0
 10
-8.17757
 20
-11.7114
 11
-8.40643
 21
-11.9263
  0
LINE
  8
0
 10
-8.40643
 20
-11.9263
 11
-8.66043
 21
-12.1108
  0
LINE
  8
0
 10
-8.66043
 20
-12.1108
 11
-8.93555
 21
-12.2621
  0
LINE
  8
0
 10
-8.93555
 20
-12.2621
 11
-9.22745
 21
-12.3776
  0
LINE
  8
0
 10
-9.22745
 20
-12.3776
 11
-9.53154
 21
-12.4557
  0
LINE
  8
0
 10
-9.53154
 20
-12.4557
 11
-9.84302
 21
-12.4951
  0
LINE
  8
0
 10
-9.84302
 20
-12.4951
 11
-10.157
 21
-12.4951
  0
LINE
  8
0
 10
9.84302
 20
-12.4951
 11
9.53154
 21
-12.4557
  0
LINE
  8
0
 10
9.53154
 20
-12.4557
 11
9.22745
 21
-12.3776
  0
LINE
  8
0
 10
9.22745
 20
-12.3776
 11
8.93555
 21
-12.2621
  0
LINE
  8
0
 10
8.93555
 20
-12.2621
 11
8.66043
 21
-12.1108
  0
LINE
  8
0
 10
8.66043
 20
-12.1108
 11
8.40643
 21
-11.9263
  0
LINE
  8
0
 10
8.40643
 20
-11.9263
 11
8.17757
 21
-11.7114
  0
LINE
  8
0
 10
8.17757
 20
-11.7114
 11
7.97745
 21
-11.4695
  0
LINE
  8
0
 10
7.97745
 20
-11.4695
 11
7.80922
 21
-11.2044
  0
LINE
  8
0
 10
7.80922
 20
-11.2044
 11
7.67555
 21
-10.9203
  0
LINE
  8
0
 10
7.67555
 20
-10.9203
 11
7.57854
 21
-10.6217
  0
LINE
  8
0
 10
7.57854
 20
-10.6217
 11
7.5197
 21
-10.3133
  0
LINE
  8
0
 10
7.5197
 20
-10.3133
 11
7.5
 21
-10
  0
LINE
  8
0
 10
7.5
 20
-10
 11
7.5197
 21
-9.68666
  0
LINE
  8
0
 10
7.5197
 20
-9.68666
 11
7.57854
 21
-9.37827
  0
LINE
  8
0
 10
7.57854
 20
-9.37827
 11
7.67555
 21
-9.07968
  0
LINE
  8
0
 10
7.67555
 20
-9.07968
 11
7.80922
 21
-8.79561
  0
LINE
  8
0
 10
7.80922
 20
-8.79561
 11
7.97745
 21
-8.53053
  0
LINE
  8
0
 10
7.97745
 20
-8.53053
 11
8.17757
 21
-8.28862
  0
LINE
  8
0
 10
8.17757
 20
-8.28862
 11
8.40643
 21
-8.07372
  0
LINE
  8
0
 10
8.40643
 20
-8.07372
 11
8.66043
 21
-7.88918
  0
LINE
  8
0
 10
8.66043
 20
-7.88918
 11
8.93555
 21
-7.73793
  0
LINE
  8
0
 10
8.93555
 20
-7.73793
 11
9.22745
 21
-7.62234
  0
LINE
  8
0
 10
9.22745
 20
-7.62234
 11
9.53154
 21
-7.54428
  0
LINE
  8
0
 10
9.53154
 20
-7.54428
 11
9.84302
 21
-7.50493
  0
LINE
  8
0
 10
9.84302
 20
-7.50493
 11
10.157
 21
-7.50493
  0
LINE
  8
0
 10
10.157
 20
-7.50493
 11
10.4684
 21
-7.54428
  0
LINE
  8
0
 10
10.4684
 20
-7.54428
 11
10.7725
 21
-7.62234
  0
LINE
  8
0
 10
10.7725
 20
-7.62234
 11
11.0644
 21
-7.73793
  0
LINE
  8
0
 10
11.0644
 20
-7.73793
 11
11.3396
 21
-7.88918
  0
LINE
  8
0
 10
11.3396
 20
-7.88918
 11
11.5936
 21
-8.07372
  0
LINE
  8
0
 10
11.5936
 20
-8.07372
 11
11.8224
 21
-8.28862
  0
LINE
  8
0
 10
11.8224
 20
-8.28862
 11
12.0225
 21
-8.53053
  0
LINE
  8
0
 10
12.0225
 20
-8.53053
 11
12.1908
 21
-8.79561
  0
LINE
  8
0
 10
12.1908
 20
-8.79561
 11
12.3244
 21
-9.07968
  0
LINE
  8
0
 10
12.3244
 20
-9.07968
 11
12.4214
 21
-9.37827
  0
LINE
  8
0
 10
12.4214
 20
-9.37827
 11
12.4803
 21
-9.68666
  0
LINE
  8
0
 10
12.4803
 20
-9.68666
 11
12.5
 21
-10
  0
LINE
  8
0
 10
12.5
 20
-10
 11
12.4803
 21
-10.3133
  0
LINE
  8
0
 10
12.4803
 20
-10.3133
 11
12.4214
 21
-10.6217
  0
LINE
  8
0
 10
12.4214
 20
-10.6217
 11
12.3244
 21
-10.9203
  0
LINE
  8
0
 10
12.3244
 20
-10.9203
 11
12.1908
 21
-11.2044
  0
LINE
  8
0
 10
12.1908
 20
-11.2044
 11
12.0225
 21
-11.4695
  0
LINE
  8
0
 10
12.0225
 20
-11.4695
 11
11.8224
 21
-11.7114
  0
LINE
  8
0
 10
11.8224
 20
-11.7114
 11
11.5936
 21
-11.9263
  0
LINE
  8
0
 10
11.5936
 20
-11.9263
 11
11.3396
 21
-12.1108
  0
LINE
  8
0
 10
11.3396
 20
-12.1108
 11
11.0644
 21
-12.2621
  0
LINE
  8
0
 10
11.0644
 20
-12.2621
 11
10.7725
 21
-12.3776
  0
LINE
  8
0
 10
10.7725
 20
-12.3776
 11
10.4684
 21
-12.4557
  0
LINE
  8
0
 10
10.4684
 20
-12.4557
 11
10.157
 21
-12.4951
  0
LINE
  8
0
 10
10.157
 20
-12.4951
 11
9.84302
 21
-12.4951
  0
ENDSEC
  0
SECTION
  2
OBJECTS
  0
DICTIONARY
  0
ENDSEC
  0
EOF
