  0
SECTION
  2
BLOCKS
  0
ENDSEC
  0
SECTION
  2
ENTITIES
  0
LINE
  8
0
 10
115
 20
70
 11
-115
 21
70
  0
LINE
  8
0
 10
-115
 20
70
 11
-115
 21
-70
  0
LINE
  8
0
 10
-115
 20
-70
 11
115
 21
-70
  0
LINE
  8
0
 10
115
 20
-70
 11
115
 21
70
  0
LINE
  8
0
 10
4.90581
 20
63.5029
 11
4.71892
 21
63.5266
  0
LINE
  8
0
 10
4.71892
 20
63.5266
 11
4.53647
 21
63.5734
  0
LINE
  8
0
 10
4.53647
 20
63.5734
 11
4.36133
 21
63.6427
  0
LINE
  8
0
 10
4.36133
 20
63.6427
 11
4.19626
 21
63.7335
  0
LINE
  8
0
 10
4.19626
 20
63.7335
 11
4.04385
 21
63.8442
  0
LINE
  8
0
 10
4.04385
 20
63.8442
 11
3.90654
 21
63.9732
  0
LINE
  8
0
 10
3.90654
 20
63.9732
 11
3.78647
 21
64.1183
  0
LINE
  8
0
 10
3.78647
 20
64.1183
 11
3.68553
 21
64.2774
  0
LINE
  8
0
 10
3.68553
 20
64.2774
 11
3.60533
 21
64.4478
  0
LINE
  8
0
 10
3.60533
 20
64.4478
 11
3.54712
 21
64.627
  0
LINE
  8
0
 10
3.54712
 20
64.627
 11
3.51183
 21
64.812
  0
LINE
  8
0
 10
3.51183
 20
64.812
 11
3.5
 21
65
  0
LINE
  8
0
 10
3.5
 20
65
 11
3.51183
 21
65.188
  0
LINE
  8
0
 10
3.51183
 20
65.188
 11
3.54712
 21
65.373
  0
LINE
  8
0
 10
3.54712
 20
65.373
 11
3.60533
 21
65.5522
  0
LINE
  8
0
 10
3.60533
 20
65.5522
 11
3.68553
 21
65.7226
  0
LINE
  8
0
 10
3.68553
 20
65.7226
 11
3.78647
 21
65.8817
  0
LINE
  8
0
 10
3.78647
 20
65.8817
 11
3.90654
 21
66.0268
  0
LINE
  8
0
 10
3.90654
 20
66.0268
 11
4.04385
 21
66.1558
  0
LINE
  8
0
 10
4.04385
 20
66.1558
 11
4.19626
 21
66.2665
  0
LINE
  8
0
 10
4.19626
 20
66.2665
 11
4.36133
 21
66.3572
  0
LINE
  8
0
 10
4.36133
 20
66.3572
 11
4.53647
 21
66.4266
  0
LINE
  8
0
 10
4.53647
 20
66.4266
 11
4.71892
 21
66.4734
  0
LINE
  8
0
 10
4.71892
 20
66.4734
 11
4.90581
 21
66.497
  0
LINE
  8
0
 10
4.90581
 20
66.497
 11
5.09418
 21
66.497
  0
LINE
  8
0
 10
5.09418
 20
66.497
 11
5.28107
 21
66.4734
  0
LINE
  8
0
 10
5.28107
 20
66.4734
 11
5.46352
 21
66.4266
  0
LINE
  8
0
 10
5.46352
 20
66.4266
 11
5.63866
 21
66.3572
  0
LINE
  8
0
 10
5.63866
 20
66.3572
 11
5.80373
 21
66.2665
  0
LINE
  8
0
 10
5.80373
 20
66.2665
 11
5.95613
 21
66.1558
  0
LINE
  8
0
 10
5.95613
 20
66.1558
 11
6.09344
 21
66.0268
  0
LINE
  8
0
 10
6.09344
 20
66.0268
 11
6.21352
 21
65.8817
  0
LINE
  8
0
 10
6.21352
 20
65.8817
 11
6.31445
 21
65.7226
  0
LINE
  8
0
 10
6.31445
 20
65.7226
 11
6.39465
 21
65.5522
  0
LINE
  8
0
 10
6.39465
 20
65.5522
 11
6.45287
 21
65.373
  0
LINE
  8
0
 10
6.45287
 20
65.373
 11
6.48816
 21
65.188
  0
LINE
  8
0
 10
6.48816
 20
65.188
 11
6.5
 21
65
  0
LINE
  8
0
 10
6.5
 20
65
 11
6.48816
 21
64.812
  0
LINE
  8
0
 10
6.48816
 20
64.812
 11
6.45287
 21
64.627
  0
LINE
  8
0
 10
6.45287
 20
64.627
 11
6.39465
 21
64.4478
  0
LINE
  8
0
 10
6.39465
 20
64.4478
 11
6.31445
 21
64.2774
  0
LINE
  8
0
 10
6.31445
 20
64.2774
 11
6.21352
 21
64.1183
  0
LINE
  8
0
 10
6.21352
 20
64.1183
 11
6.09344
 21
63.9732
  0
LINE
  8
0
 10
6.09344
 20
63.9732
 11
5.95613
 21
63.8442
  0
LINE
  8
0
 10
5.95613
 20
63.8442
 11
5.80373
 21
63.7335
  0
LINE
  8
0
 10
5.80373
 20
63.7335
 11
5.63866
 21
63.6427
  0
LINE
  8
0
 10
5.63866
 20
63.6427
 11
5.46352
 21
63.5734
  0
LINE
  8
0
 10
5.46352
 20
63.5734
 11
5.28107
 21
63.5266
  0
LINE
  8
0
 10
5.28107
 20
63.5266
 11
5.09418
 21
63.5029
  0
LINE
  8
0
 10
5.09418
 20
63.5029
 11
4.90581
 21
63.5029
  0
LINE
  8
0
 10
-79.1256
 20
60.0039
 11
-79.3748
 21
60.0354
  0
LINE
  8
0
 10
-79.3748
 20
60.0354
 11
-79.618
 21
60.0979
  0
LINE
  8
0
 10
-79.618
 20
60.0979
 11
-79.8515
 21
60.1903
  0
LINE
  8
0
 10
-79.8515
 20
60.1903
 11
-80.0716
 21
60.3113
  0
LINE
  8
0
 10
-80.0716
 20
60.3113
 11
-80.2748
 21
60.459
  0
LINE
  8
0
 10
-80.2748
 20
60.459
 11
-80.4579
 21
60.6309
  0
LINE
  8
0
 10
-80.4579
 20
60.6309
 11
-80.618
 21
60.8244
  0
LINE
  8
0
 10
-80.618
 20
60.8244
 11
-80.7526
 21
61.0365
  0
LINE
  8
0
 10
-80.7526
 20
61.0365
 11
-80.8595
 21
61.2637
  0
LINE
  8
0
 10
-80.8595
 20
61.2637
 11
-80.9372
 21
61.5026
  0
LINE
  8
0
 10
-80.9372
 20
61.5026
 11
-80.9842
 21
61.7493
  0
LINE
  8
0
 10
-80.9842
 20
61.7493
 11
-81
 21
62
  0
LINE
  8
0
 10
-81
 20
62
 11
-80.9842
 21
62.2507
  0
LINE
  8
0
 10
-80.9842
 20
62.2507
 11
-80.9372
 21
62.4974
  0
LINE
  8
0
 10
-80.9372
 20
62.4974
 11
-80.8595
 21
62.7362
  0
LINE
  8
0
 10
-80.8595
 20
62.7362
 11
-80.7526
 21
62.9635
  0
LINE
  8
0
 10
-80.7526
 20
62.9635
 11
-80.618
 21
63.1756
  0
LINE
  8
0
 10
-80.618
 20
63.1756
 11
-80.4579
 21
63.3691
  0
LINE
  8
0
 10
-80.4579
 20
63.3691
 11
-80.2748
 21
63.541
  0
LINE
  8
0
 10
-80.2748
 20
63.541
 11
-80.0716
 21
63.6886
  0
LINE
  8
0
 10
-80.0716
 20
63.6886
 11
-79.8515
 21
63.8096
  0
LINE
  8
0
 10
-79.8515
 20
63.8096
 11
-79.618
 21
63.9021
  0
LINE
  8
0
 10
-79.618
 20
63.9021
 11
-79.3748
 21
63.9646
  0
LINE
  8
0
 10
-79.3748
 20
63.9646
 11
-79.1256
 21
63.996
  0
LINE
  8
0
 10
-79.1256
 20
63.996
 11
-78.8744
 21
63.996
  0
LINE
  8
0
 10
-78.8744
 20
63.996
 11
-78.6252
 21
63.9646
  0
LINE
  8
0
 10
-78.6252
 20
63.9646
 11
-78.382
 21
63.9021
  0
LINE
  8
0
 10
-78.382
 20
63.9021
 11
-78.1484
 21
63.8096
  0
LINE
  8
0
 10
-78.1484
 20
63.8096
 11
-77.9283
 21
63.6886
  0
LINE
  8
0
 10
-77.9283
 20
63.6886
 11
-77.7251
 21
63.541
  0
LINE
  8
0
 10
-77.7251
 20
63.541
 11
-77.5421
 21
63.3691
  0
LINE
  8
0
 10
-77.5421
 20
63.3691
 11
-77.382
 21
63.1756
  0
LINE
  8
0
 10
-77.382
 20
63.1756
 11
-77.2474
 21
62.9635
  0
LINE
  8
0
 10
-77.2474
 20
62.9635
 11
-77.1404
 21
62.7362
  0
LINE
  8
0
 10
-77.1404
 20
62.7362
 11
-77.0628
 21
62.4974
  0
LINE
  8
0
 10
-77.0628
 20
62.4974
 11
-77.0158
 21
62.2507
  0
LINE
  8
0
 10
-77.0158
 20
62.2507
 11
-77
 21
62
  0
LINE
  8
0
 10
-77
 20
62
 11
-77.0158
 21
61.7493
  0
LINE
  8
0
 10
-77.0158
 20
61.7493
 11
-77.0628
 21
61.5026
  0
LINE
  8
0
 10
-77.0628
 20
61.5026
 11
-77.1404
 21
61.2637
  0
LINE
  8
0
 10
-77.1404
 20
61.2637
 11
-77.2474
 21
61.0365
  0
LINE
  8
0
 10
-77.2474
 20
61.0365
 11
-77.382
 21
60.8244
  0
LINE
  8
0
 10
-77.382
 20
60.8244
 11
-77.5421
 21
60.6309
  0
LINE
  8
0
 10
-77.5421
 20
60.6309
 11
-77.7251
 21
60.459
  0
LINE
  8
0
 10
-77.7251
 20
60.459
 11
-77.9283
 21
60.3113
  0
LINE
  8
0
 10
-77.9283
 20
60.3113
 11
-78.1484
 21
60.1903
  0
LINE
  8
0
 10
-78.1484
 20
60.1903
 11
-78.382
 21
60.0979
  0
LINE
  8
0
 10
-78.382
 20
60.0979
 11
-78.6252
 21
60.0354
  0
LINE
  8
0
 10
-78.6252
 20
60.0354
 11
-78.8744
 21
60.0039
  0
LINE
  8
0
 10
-78.8744
 20
60.0039
 11
-79.1256
 21
60.0039
  0
LINE
  8
0
 10
-61.1256
 20
60.0039
 11
-61.3748
 21
60.0354
  0
LINE
  8
0
 10
-61.3748
 20
60.0354
 11
-61.618
 21
60.0979
  0
LINE
  8
0
 10
-61.618
 20
60.0979
 11
-61.8516
 21
60.1903
  0
LINE
  8
0
 10
-61.8516
 20
60.1903
 11
-62.0717
 21
60.3113
  0
LINE
  8
0
 10
-62.0717
 20
60.3113
 11
-62.2749
 21
60.459
  0
LINE
  8
0
 10
-62.2749
 20
60.459
 11
-62.4579
 21
60.6309
  0
LINE
  8
0
 10
-62.4579
 20
60.6309
 11
-62.618
 21
60.8244
  0
LINE
  8
0
 10
-62.618
 20
60.8244
 11
-62.7526
 21
61.0365
  0
LINE
  8
0
 10
-62.7526
 20
61.0365
 11
-62.8596
 21
61.2637
  0
LINE
  8
0
 10
-62.8596
 20
61.2637
 11
-62.9372
 21
61.5026
  0
LINE
  8
0
 10
-62.9372
 20
61.5026
 11
-62.9842
 21
61.7493
  0
LINE
  8
0
 10
-62.9842
 20
61.7493
 11
-63
 21
62
  0
LINE
  8
0
 10
-63
 20
62
 11
-62.9842
 21
62.2507
  0
LINE
  8
0
 10
-62.9842
 20
62.2507
 11
-62.9372
 21
62.4974
  0
LINE
  8
0
 10
-62.9372
 20
62.4974
 11
-62.8596
 21
62.7362
  0
LINE
  8
0
 10
-62.8596
 20
62.7362
 11
-62.7526
 21
62.9635
  0
LINE
  8
0
 10
-62.7526
 20
62.9635
 11
-62.618
 21
63.1756
  0
LINE
  8
0
 10
-62.618
 20
63.1756
 11
-62.4579
 21
63.3691
  0
LINE
  8
0
 10
-62.4579
 20
63.3691
 11
-62.2749
 21
63.541
  0
LINE
  8
0
 10
-62.2749
 20
63.541
 11
-62.0717
 21
63.6886
  0
LINE
  8
0
 10
-62.0717
 20
63.6886
 11
-61.8516
 21
63.8096
  0
LINE
  8
0
 10
-61.8516
 20
63.8096
 11
-61.618
 21
63.9021
  0
LINE
  8
0
 10
-61.618
 20
63.9021
 11
-61.3748
 21
63.9646
  0
LINE
  8
0
 10
-61.3748
 20
63.9646
 11
-61.1256
 21
63.996
  0
LINE
  8
0
 10
-61.1256
 20
63.996
 11
-60.8744
 21
63.996
  0
LINE
  8
0
 10
-60.8744
 20
63.996
 11
-60.6252
 21
63.9646
  0
LINE
  8
0
 10
-60.6252
 20
63.9646
 11
-60.382
 21
63.9021
  0
LINE
  8
0
 10
-60.382
 20
63.9021
 11
-60.1485
 21
63.8096
  0
LINE
  8
0
 10
-60.1485
 20
63.8096
 11
-59.9284
 21
63.6886
  0
LINE
  8
0
 10
-59.9284
 20
63.6886
 11
-59.7252
 21
63.541
  0
LINE
  8
0
 10
-59.7252
 20
63.541
 11
-59.5421
 21
63.3691
  0
LINE
  8
0
 10
-59.5421
 20
63.3691
 11
-59.382
 21
63.1756
  0
LINE
  8
0
 10
-59.382
 20
63.1756
 11
-59.2474
 21
62.9635
  0
LINE
  8
0
 10
-59.2474
 20
62.9635
 11
-59.1405
 21
62.7362
  0
LINE
  8
0
 10
-59.1405
 20
62.7362
 11
-59.0628
 21
62.4974
  0
LINE
  8
0
 10
-59.0628
 20
62.4974
 11
-59.0158
 21
62.2507
  0
LINE
  8
0
 10
-59.0158
 20
62.2507
 11
-59
 21
62
  0
LINE
  8
0
 10
-59
 20
62
 11
-59.0158
 21
61.7493
  0
LINE
  8
0
 10
-59.0158
 20
61.7493
 11
-59.0628
 21
61.5026
  0
LINE
  8
0
 10
-59.0628
 20
61.5026
 11
-59.1405
 21
61.2637
  0
LINE
  8
0
 10
-59.1405
 20
61.2637
 11
-59.2474
 21
61.0365
  0
LINE
  8
0
 10
-59.2474
 20
61.0365
 11
-59.382
 21
60.8244
  0
LINE
  8
0
 10
-59.382
 20
60.8244
 11
-59.5421
 21
60.6309
  0
LINE
  8
0
 10
-59.5421
 20
60.6309
 11
-59.7252
 21
60.459
  0
LINE
  8
0
 10
-59.7252
 20
60.459
 11
-59.9284
 21
60.3113
  0
LINE
  8
0
 10
-59.9284
 20
60.3113
 11
-60.1485
 21
60.1903
  0
LINE
  8
0
 10
-60.1485
 20
60.1903
 11
-60.382
 21
60.0979
  0
LINE
  8
0
 10
-60.382
 20
60.0979
 11
-60.6252
 21
60.0354
  0
LINE
  8
0
 10
-60.6252
 20
60.0354
 11
-60.8744
 21
60.0039
  0
LINE
  8
0
 10
-60.8744
 20
60.0039
 11
-61.1256
 21
60.0039
  0
LINE
  8
0
 10
105.974
 20
58.0039
 11
105.725
 21
58.0354
  0
LINE
  8
0
 10
105.725
 20
58.0354
 11
105.482
 21
58.0979
  0
LINE
  8
0
 10
105.482
 20
58.0979
 11
105.248
 21
58.1903
  0
LINE
  8
0
 10
105.248
 20
58.1903
 11
105.028
 21
58.3113
  0
LINE
  8
0
 10
105.028
 20
58.3113
 11
104.825
 21
58.459
  0
LINE
  8
0
 10
104.825
 20
58.459
 11
104.642
 21
58.6309
  0
LINE
  8
0
 10
104.642
 20
58.6309
 11
104.482
 21
58.8244
  0
LINE
  8
0
 10
104.482
 20
58.8244
 11
104.347
 21
59.0365
  0
LINE
  8
0
 10
104.347
 20
59.0365
 11
104.24
 21
59.2637
  0
LINE
  8
0
 10
104.24
 20
59.2637
 11
104.163
 21
59.5026
  0
LINE
  8
0
 10
104.163
 20
59.5026
 11
104.116
 21
59.7493
  0
LINE
  8
0
 10
104.116
 20
59.7493
 11
104.1
 21
60
  0
LINE
  8
0
 10
104.1
 20
60
 11
104.116
 21
60.2507
  0
LINE
  8
0
 10
104.116
 20
60.2507
 11
104.163
 21
60.4974
  0
LINE
  8
0
 10
104.163
 20
60.4974
 11
104.24
 21
60.7362
  0
LINE
  8
0
 10
104.24
 20
60.7362
 11
104.347
 21
60.9635
  0
LINE
  8
0
 10
104.347
 20
60.9635
 11
104.482
 21
61.1756
  0
LINE
  8
0
 10
104.482
 20
61.1756
 11
104.642
 21
61.3691
  0
LINE
  8
0
 10
104.642
 20
61.3691
 11
104.825
 21
61.541
  0
LINE
  8
0
 10
104.825
 20
61.541
 11
105.028
 21
61.6886
  0
LINE
  8
0
 10
105.028
 20
61.6886
 11
105.248
 21
61.8096
  0
LINE
  8
0
 10
105.248
 20
61.8096
 11
105.482
 21
61.9021
  0
LINE
  8
0
 10
105.482
 20
61.9021
 11
105.725
 21
61.9646
  0
LINE
  8
0
 10
105.725
 20
61.9646
 11
105.974
 21
61.996
  0
LINE
  8
0
 10
105.974
 20
61.996
 11
106.226
 21
61.996
  0
LINE
  8
0
 10
106.226
 20
61.996
 11
106.475
 21
61.9646
  0
LINE
  8
0
 10
106.475
 20
61.9646
 11
106.718
 21
61.9021
  0
LINE
  8
0
 10
106.718
 20
61.9021
 11
106.952
 21
61.8096
  0
LINE
  8
0
 10
106.952
 20
61.8096
 11
107.172
 21
61.6886
  0
LINE
  8
0
 10
107.172
 20
61.6886
 11
107.375
 21
61.541
  0
LINE
  8
0
 10
107.375
 20
61.541
 11
107.558
 21
61.3691
  0
LINE
  8
0
 10
107.558
 20
61.3691
 11
107.718
 21
61.1756
  0
LINE
  8
0
 10
107.718
 20
61.1756
 11
107.853
 21
60.9635
  0
LINE
  8
0
 10
107.853
 20
60.9635
 11
107.96
 21
60.7362
  0
LINE
  8
0
 10
107.96
 20
60.7362
 11
108.037
 21
60.4974
  0
LINE
  8
0
 10
108.037
 20
60.4974
 11
108.084
 21
60.2507
  0
LINE
  8
0
 10
108.084
 20
60.2507
 11
108.1
 21
60
  0
LINE
  8
0
 10
108.1
 20
60
 11
108.084
 21
59.7493
  0
LINE
  8
0
 10
108.084
 20
59.7493
 11
108.037
 21
59.5026
  0
LINE
  8
0
 10
108.037
 20
59.5026
 11
107.96
 21
59.2637
  0
LINE
  8
0
 10
107.96
 20
59.2637
 11
107.853
 21
59.0365
  0
LINE
  8
0
 10
107.853
 20
59.0365
 11
107.718
 21
58.8244
  0
LINE
  8
0
 10
107.718
 20
58.8244
 11
107.558
 21
58.6309
  0
LINE
  8
0
 10
107.558
 20
58.6309
 11
107.375
 21
58.459
  0
LINE
  8
0
 10
107.375
 20
58.459
 11
107.172
 21
58.3113
  0
LINE
  8
0
 10
107.172
 20
58.3113
 11
106.952
 21
58.1903
  0
LINE
  8
0
 10
106.952
 20
58.1903
 11
106.718
 21
58.0979
  0
LINE
  8
0
 10
106.718
 20
58.0979
 11
106.475
 21
58.0354
  0
LINE
  8
0
 10
106.475
 20
58.0354
 11
106.226
 21
58.0039
  0
LINE
  8
0
 10
106.226
 20
58.0039
 11
105.974
 21
58.0039
  0
LINE
  8
0
 10
-106.226
 20
58.0039
 11
-106.475
 21
58.0354
  0
LINE
  8
0
 10
-106.475
 20
58.0354
 11
-106.718
 21
58.0979
  0
LINE
  8
0
 10
-106.718
 20
58.0979
 11
-106.952
 21
58.1903
  0
LINE
  8
0
 10
-106.952
 20
58.1903
 11
-107.172
 21
58.3113
  0
LINE
  8
0
 10
-107.172
 20
58.3113
 11
-107.375
 21
58.459
  0
LINE
  8
0
 10
-107.375
 20
58.459
 11
-107.558
 21
58.6309
  0
LINE
  8
0
 10
-107.558
 20
58.6309
 11
-107.718
 21
58.8244
  0
LINE
  8
0
 10
-107.718
 20
58.8244
 11
-107.853
 21
59.0365
  0
LINE
  8
0
 10
-107.853
 20
59.0365
 11
-107.96
 21
59.2637
  0
LINE
  8
0
 10
-107.96
 20
59.2637
 11
-108.037
 21
59.5026
  0
LINE
  8
0
 10
-108.037
 20
59.5026
 11
-108.084
 21
59.7493
  0
LINE
  8
0
 10
-108.084
 20
59.7493
 11
-108.1
 21
60
  0
LINE
  8
0
 10
-108.1
 20
60
 11
-108.084
 21
60.2507
  0
LINE
  8
0
 10
-108.084
 20
60.2507
 11
-108.037
 21
60.4974
  0
LINE
  8
0
 10
-108.037
 20
60.4974
 11
-107.96
 21
60.7362
  0
LINE
  8
0
 10
-107.96
 20
60.7362
 11
-107.853
 21
60.9635
  0
LINE
  8
0
 10
-107.853
 20
60.9635
 11
-107.718
 21
61.1756
  0
LINE
  8
0
 10
-107.718
 20
61.1756
 11
-107.558
 21
61.3691
  0
LINE
  8
0
 10
-107.558
 20
61.3691
 11
-107.375
 21
61.541
  0
LINE
  8
0
 10
-107.375
 20
61.541
 11
-107.172
 21
61.6886
  0
LINE
  8
0
 10
-107.172
 20
61.6886
 11
-106.952
 21
61.8096
  0
LINE
  8
0
 10
-106.952
 20
61.8096
 11
-106.718
 21
61.9021
  0
LINE
  8
0
 10
-106.718
 20
61.9021
 11
-106.475
 21
61.9646
  0
LINE
  8
0
 10
-106.475
 20
61.9646
 11
-106.226
 21
61.996
  0
LINE
  8
0
 10
-106.226
 20
61.996
 11
-105.974
 21
61.996
  0
LINE
  8
0
 10
-105.974
 20
61.996
 11
-105.725
 21
61.9646
  0
LINE
  8
0
 10
-105.725
 20
61.9646
 11
-105.482
 21
61.9021
  0
LINE
  8
0
 10
-105.482
 20
61.9021
 11
-105.248
 21
61.8096
  0
LINE
  8
0
 10
-105.248
 20
61.8096
 11
-105.028
 21
61.6886
  0
LINE
  8
0
 10
-105.028
 20
61.6886
 11
-104.825
 21
61.541
  0
LINE
  8
0
 10
-104.825
 20
61.541
 11
-104.642
 21
61.3691
  0
LINE
  8
0
 10
-104.642
 20
61.3691
 11
-104.482
 21
61.1756
  0
LINE
  8
0
 10
-104.482
 20
61.1756
 11
-104.347
 21
60.9635
  0
LINE
  8
0
 10
-104.347
 20
60.9635
 11
-104.24
 21
60.7362
  0
LINE
  8
0
 10
-104.24
 20
60.7362
 11
-104.163
 21
60.4974
  0
LINE
  8
0
 10
-104.163
 20
60.4974
 11
-104.116
 21
60.2507
  0
LINE
  8
0
 10
-104.116
 20
60.2507
 11
-104.1
 21
60
  0
LINE
  8
0
 10
-104.1
 20
60
 11
-104.116
 21
59.7493
  0
LINE
  8
0
 10
-104.116
 20
59.7493
 11
-104.163
 21
59.5026
  0
LINE
  8
0
 10
-104.163
 20
59.5026
 11
-104.24
 21
59.2637
  0
LINE
  8
0
 10
-104.24
 20
59.2637
 11
-104.347
 21
59.0365
  0
LINE
  8
0
 10
-104.347
 20
59.0365
 11
-104.482
 21
58.8244
  0
LINE
  8
0
 10
-104.482
 20
58.8244
 11
-104.642
 21
58.6309
  0
LINE
  8
0
 10
-104.642
 20
58.6309
 11
-104.825
 21
58.459
  0
LINE
  8
0
 10
-104.825
 20
58.459
 11
-105.028
 21
58.3113
  0
LINE
  8
0
 10
-105.028
 20
58.3113
 11
-105.248
 21
58.1903
  0
LINE
  8
0
 10
-105.248
 20
58.1903
 11
-105.482
 21
58.0979
  0
LINE
  8
0
 10
-105.482
 20
58.0979
 11
-105.725
 21
58.0354
  0
LINE
  8
0
 10
-105.725
 20
58.0354
 11
-105.974
 21
58.0039
  0
LINE
  8
0
 10
-105.974
 20
58.0039
 11
-106.226
 21
58.0039
  0
LINE
  8
0
 10
49.9058
 20
48.5029
 11
49.7189
 21
48.5266
  0
LINE
  8
0
 10
49.7189
 20
48.5266
 11
49.5365
 21
48.5734
  0
LINE
  8
0
 10
49.5365
 20
48.5734
 11
49.3613
 21
48.6427
  0
LINE
  8
0
 10
49.3613
 20
48.6427
 11
49.1963
 21
48.7335
  0
LINE
  8
0
 10
49.1963
 20
48.7335
 11
49.0439
 21
48.8442
  0
LINE
  8
0
 10
49.0439
 20
48.8442
 11
48.9065
 21
48.9732
  0
LINE
  8
0
 10
48.9065
 20
48.9732
 11
48.7865
 21
49.1183
  0
LINE
  8
0
 10
48.7865
 20
49.1183
 11
48.6855
 21
49.2774
  0
LINE
  8
0
 10
48.6855
 20
49.2774
 11
48.6053
 21
49.4478
  0
LINE
  8
0
 10
48.6053
 20
49.4478
 11
48.5471
 21
49.627
  0
LINE
  8
0
 10
48.5471
 20
49.627
 11
48.5118
 21
49.812
  0
LINE
  8
0
 10
48.5118
 20
49.812
 11
48.5
 21
50
  0
LINE
  8
0
 10
48.5
 20
50
 11
48.5118
 21
50.188
  0
LINE
  8
0
 10
48.5118
 20
50.188
 11
48.5471
 21
50.373
  0
LINE
  8
0
 10
48.5471
 20
50.373
 11
48.6053
 21
50.5522
  0
LINE
  8
0
 10
48.6053
 20
50.5522
 11
48.6855
 21
50.7226
  0
LINE
  8
0
 10
48.6855
 20
50.7226
 11
48.7865
 21
50.8817
  0
LINE
  8
0
 10
48.7865
 20
50.8817
 11
48.9065
 21
51.0268
  0
LINE
  8
0
 10
48.9065
 20
51.0268
 11
49.0439
 21
51.1558
  0
LINE
  8
0
 10
49.0439
 20
51.1558
 11
49.1963
 21
51.2665
  0
LINE
  8
0
 10
49.1963
 20
51.2665
 11
49.3613
 21
51.3572
  0
LINE
  8
0
 10
49.3613
 20
51.3572
 11
49.5365
 21
51.4266
  0
LINE
  8
0
 10
49.5365
 20
51.4266
 11
49.7189
 21
51.4734
  0
LINE
  8
0
 10
49.7189
 20
51.4734
 11
49.9058
 21
51.497
  0
LINE
  8
0
 10
49.9058
 20
51.497
 11
50.0942
 21
51.497
  0
LINE
  8
0
 10
50.0942
 20
51.497
 11
50.2811
 21
51.4734
  0
LINE
  8
0
 10
50.2811
 20
51.4734
 11
50.4635
 21
51.4266
  0
LINE
  8
0
 10
50.4635
 20
51.4266
 11
50.6387
 21
51.3572
  0
LINE
  8
0
 10
50.6387
 20
51.3572
 11
50.8037
 21
51.2665
  0
LINE
  8
0
 10
50.8037
 20
51.2665
 11
50.9561
 21
51.1558
  0
LINE
  8
0
 10
50.9561
 20
51.1558
 11
51.0934
 21
51.0268
  0
LINE
  8
0
 10
51.0934
 20
51.0268
 11
51.2135
 21
50.8817
  0
LINE
  8
0
 10
51.2135
 20
50.8817
 11
51.3145
 21
50.7226
  0
LINE
  8
0
 10
51.3145
 20
50.7226
 11
51.3947
 21
50.5522
  0
LINE
  8
0
 10
51.3947
 20
50.5522
 11
51.4529
 21
50.373
  0
LINE
  8
0
 10
51.4529
 20
50.373
 11
51.4882
 21
50.188
  0
LINE
  8
0
 10
51.4882
 20
50.188
 11
51.5
 21
50
  0
LINE
  8
0
 10
51.5
 20
50
 11
51.4882
 21
49.812
  0
LINE
  8
0
 10
51.4882
 20
49.812
 11
51.4529
 21
49.627
  0
LINE
  8
0
 10
51.4529
 20
49.627
 11
51.3947
 21
49.4478
  0
LINE
  8
0
 10
51.3947
 20
49.4478
 11
51.3145
 21
49.2774
  0
LINE
  8
0
 10
51.3145
 20
49.2774
 11
51.2135
 21
49.1183
  0
LINE
  8
0
 10
51.2135
 20
49.1183
 11
51.0934
 21
48.9732
  0
LINE
  8
0
 10
51.0934
 20
48.9732
 11
50.9561
 21
48.8442
  0
LINE
  8
0
 10
50.9561
 20
48.8442
 11
50.8037
 21
48.7335
  0
LINE
  8
0
 10
50.8037
 20
48.7335
 11
50.6387
 21
48.6427
  0
LINE
  8
0
 10
50.6387
 20
48.6427
 11
50.4635
 21
48.5734
  0
LINE
  8
0
 10
50.4635
 20
48.5734
 11
50.2811
 21
48.5266
  0
LINE
  8
0
 10
50.2811
 20
48.5266
 11
50.0942
 21
48.5029
  0
LINE
  8
0
 10
50.0942
 20
48.5029
 11
49.9058
 21
48.5029
  0
LINE
  8
0
 10
-50.0942
 20
48.5029
 11
-50.2811
 21
48.5266
  0
LINE
  8
0
 10
-50.2811
 20
48.5266
 11
-50.4635
 21
48.5734
  0
LINE
  8
0
 10
-50.4635
 20
48.5734
 11
-50.6387
 21
48.6427
  0
LINE
  8
0
 10
-50.6387
 20
48.6427
 11
-50.8037
 21
48.7335
  0
LINE
  8
0
 10
-50.8037
 20
48.7335
 11
-50.9561
 21
48.8442
  0
LINE
  8
0
 10
-50.9561
 20
48.8442
 11
-51.0934
 21
48.9732
  0
LINE
  8
0
 10
-51.0934
 20
48.9732
 11
-51.2135
 21
49.1183
  0
LINE
  8
0
 10
-51.2135
 20
49.1183
 11
-51.3145
 21
49.2774
  0
LINE
  8
0
 10
-51.3145
 20
49.2774
 11
-51.3947
 21
49.4478
  0
LINE
  8
0
 10
-51.3947
 20
49.4478
 11
-51.4529
 21
49.627
  0
LINE
  8
0
 10
-51.4529
 20
49.627
 11
-51.4882
 21
49.812
  0
LINE
  8
0
 10
-51.4882
 20
49.812
 11
-51.5
 21
50
  0
LINE
  8
0
 10
-51.5
 20
50
 11
-51.4882
 21
50.188
  0
LINE
  8
0
 10
-51.4882
 20
50.188
 11
-51.4529
 21
50.373
  0
LINE
  8
0
 10
-51.4529
 20
50.373
 11
-51.3947
 21
50.5522
  0
LINE
  8
0
 10
-51.3947
 20
50.5522
 11
-51.3145
 21
50.7226
  0
LINE
  8
0
 10
-51.3145
 20
50.7226
 11
-51.2135
 21
50.8817
  0
LINE
  8
0
 10
-51.2135
 20
50.8817
 11
-51.0934
 21
51.0268
  0
LINE
  8
0
 10
-51.0934
 20
51.0268
 11
-50.9561
 21
51.1558
  0
LINE
  8
0
 10
-50.9561
 20
51.1558
 11
-50.8037
 21
51.2665
  0
LINE
  8
0
 10
-50.8037
 20
51.2665
 11
-50.6387
 21
51.3572
  0
LINE
  8
0
 10
-50.6387
 20
51.3572
 11
-50.4635
 21
51.4266
  0
LINE
  8
0
 10
-50.4635
 20
51.4266
 11
-50.2811
 21
51.4734
  0
LINE
  8
0
 10
-50.2811
 20
51.4734
 11
-50.0942
 21
51.497
  0
LINE
  8
0
 10
-50.0942
 20
51.497
 11
-49.9058
 21
51.497
  0
LINE
  8
0
 10
-49.9058
 20
51.497
 11
-49.7189
 21
51.4734
  0
LINE
  8
0
 10
-49.7189
 20
51.4734
 11
-49.5365
 21
51.4266
  0
LINE
  8
0
 10
-49.5365
 20
51.4266
 11
-49.3613
 21
51.3572
  0
LINE
  8
0
 10
-49.3613
 20
51.3572
 11
-49.1963
 21
51.2665
  0
LINE
  8
0
 10
-49.1963
 20
51.2665
 11
-49.0439
 21
51.1558
  0
LINE
  8
0
 10
-49.0439
 20
51.1558
 11
-48.9065
 21
51.0268
  0
LINE
  8
0
 10
-48.9065
 20
51.0268
 11
-48.7865
 21
50.8817
  0
LINE
  8
0
 10
-48.7865
 20
50.8817
 11
-48.6855
 21
50.7226
  0
LINE
  8
0
 10
-48.6855
 20
50.7226
 11
-48.6053
 21
50.5522
  0
LINE
  8
0
 10
-48.6053
 20
50.5522
 11
-48.5471
 21
50.373
  0
LINE
  8
0
 10
-48.5471
 20
50.373
 11
-48.5118
 21
50.188
  0
LINE
  8
0
 10
-48.5118
 20
50.188
 11
-48.5
 21
50
  0
LINE
  8
0
 10
-48.5
 20
50
 11
-48.5118
 21
49.812
  0
LINE
  8
0
 10
-48.5118
 20
49.812
 11
-48.5471
 21
49.627
  0
LINE
  8
0
 10
-48.5471
 20
49.627
 11
-48.6053
 21
49.4478
  0
LINE
  8
0
 10
-48.6053
 20
49.4478
 11
-48.6855
 21
49.2774
  0
LINE
  8
0
 10
-48.6855
 20
49.2774
 11
-48.7865
 21
49.1183
  0
LINE
  8
0
 10
-48.7865
 20
49.1183
 11
-48.9065
 21
48.9732
  0
LINE
  8
0
 10
-48.9065
 20
48.9732
 11
-49.0439
 21
48.8442
  0
LINE
  8
0
 10
-49.0439
 20
48.8442
 11
-49.1963
 21
48.7335
  0
LINE
  8
0
 10
-49.1963
 20
48.7335
 11
-49.3613
 21
48.6427
  0
LINE
  8
0
 10
-49.3613
 20
48.6427
 11
-49.5365
 21
48.5734
  0
LINE
  8
0
 10
-49.5365
 20
48.5734
 11
-49.7189
 21
48.5266
  0
LINE
  8
0
 10
-49.7189
 20
48.5266
 11
-49.9058
 21
48.5029
  0
LINE
  8
0
 10
-49.9058
 20
48.5029
 11
-50.0942
 21
48.5029
  0
LINE
  8
0
 10
-79.1256
 20
36.004
 11
-79.3748
 21
36.0354
  0
LINE
  8
0
 10
-79.3748
 20
36.0354
 11
-79.618
 21
36.0979
  0
LINE
  8
0
 10
-79.618
 20
36.0979
 11
-79.8515
 21
36.1904
  0
LINE
  8
0
 10
-79.8515
 20
36.1904
 11
-80.0716
 21
36.3114
  0
LINE
  8
0
 10
-80.0716
 20
36.3114
 11
-80.2748
 21
36.459
  0
LINE
  8
0
 10
-80.2748
 20
36.459
 11
-80.4579
 21
36.6309
  0
LINE
  8
0
 10
-80.4579
 20
36.6309
 11
-80.618
 21
36.8244
  0
LINE
  8
0
 10
-80.618
 20
36.8244
 11
-80.7526
 21
37.0365
  0
LINE
  8
0
 10
-80.7526
 20
37.0365
 11
-80.8595
 21
37.2638
  0
LINE
  8
0
 10
-80.8595
 20
37.2638
 11
-80.9372
 21
37.5026
  0
LINE
  8
0
 10
-80.9372
 20
37.5026
 11
-80.9842
 21
37.7493
  0
LINE
  8
0
 10
-80.9842
 20
37.7493
 11
-81
 21
38
  0
LINE
  8
0
 10
-81
 20
38
 11
-80.9842
 21
38.2507
  0
LINE
  8
0
 10
-80.9842
 20
38.2507
 11
-80.9372
 21
38.4974
  0
LINE
  8
0
 10
-80.9372
 20
38.4974
 11
-80.8595
 21
38.7363
  0
LINE
  8
0
 10
-80.8595
 20
38.7363
 11
-80.7526
 21
38.9635
  0
LINE
  8
0
 10
-80.7526
 20
38.9635
 11
-80.618
 21
39.1756
  0
LINE
  8
0
 10
-80.618
 20
39.1756
 11
-80.4579
 21
39.3691
  0
LINE
  8
0
 10
-80.4579
 20
39.3691
 11
-80.2748
 21
39.541
  0
LINE
  8
0
 10
-80.2748
 20
39.541
 11
-80.0716
 21
39.6887
  0
LINE
  8
0
 10
-80.0716
 20
39.6887
 11
-79.8515
 21
39.8097
  0
LINE
  8
0
 10
-79.8515
 20
39.8097
 11
-79.618
 21
39.9021
  0
LINE
  8
0
 10
-79.618
 20
39.9021
 11
-79.3748
 21
39.9646
  0
LINE
  8
0
 10
-79.3748
 20
39.9646
 11
-79.1256
 21
39.9961
  0
LINE
  8
0
 10
-79.1256
 20
39.9961
 11
-78.8744
 21
39.9961
  0
LINE
  8
0
 10
-78.8744
 20
39.9961
 11
-78.6252
 21
39.9646
  0
LINE
  8
0
 10
-78.6252
 20
39.9646
 11
-78.382
 21
39.9021
  0
LINE
  8
0
 10
-78.382
 20
39.9021
 11
-78.1484
 21
39.8097
  0
LINE
  8
0
 10
-78.1484
 20
39.8097
 11
-77.9283
 21
39.6887
  0
LINE
  8
0
 10
-77.9283
 20
39.6887
 11
-77.7251
 21
39.541
  0
LINE
  8
0
 10
-77.7251
 20
39.541
 11
-77.5421
 21
39.3691
  0
LINE
  8
0
 10
-77.5421
 20
39.3691
 11
-77.382
 21
39.1756
  0
LINE
  8
0
 10
-77.382
 20
39.1756
 11
-77.2474
 21
38.9635
  0
LINE
  8
0
 10
-77.2474
 20
38.9635
 11
-77.1404
 21
38.7363
  0
LINE
  8
0
 10
-77.1404
 20
38.7363
 11
-77.0628
 21
38.4974
  0
LINE
  8
0
 10
-77.0628
 20
38.4974
 11
-77.0158
 21
38.2507
  0
LINE
  8
0
 10
-77.0158
 20
38.2507
 11
-77
 21
38
  0
LINE
  8
0
 10
-77
 20
38
 11
-77.0158
 21
37.7493
  0
LINE
  8
0
 10
-77.0158
 20
37.7493
 11
-77.0628
 21
37.5026
  0
LINE
  8
0
 10
-77.0628
 20
37.5026
 11
-77.1404
 21
37.2638
  0
LINE
  8
0
 10
-77.1404
 20
37.2638
 11
-77.2474
 21
37.0365
  0
LINE
  8
0
 10
-77.2474
 20
37.0365
 11
-77.382
 21
36.8244
  0
LINE
  8
0
 10
-77.382
 20
36.8244
 11
-77.5421
 21
36.6309
  0
LINE
  8
0
 10
-77.5421
 20
36.6309
 11
-77.7251
 21
36.459
  0
LINE
  8
0
 10
-77.7251
 20
36.459
 11
-77.9283
 21
36.3114
  0
LINE
  8
0
 10
-77.9283
 20
36.3114
 11
-78.1484
 21
36.1904
  0
LINE
  8
0
 10
-78.1484
 20
36.1904
 11
-78.382
 21
36.0979
  0
LINE
  8
0
 10
-78.382
 20
36.0979
 11
-78.6252
 21
36.0354
  0
LINE
  8
0
 10
-78.6252
 20
36.0354
 11
-78.8744
 21
36.004
  0
LINE
  8
0
 10
-78.8744
 20
36.004
 11
-79.1256
 21
36.004
  0
LINE
  8
0
 10
-61.1256
 20
36.004
 11
-61.3748
 21
36.0354
  0
LINE
  8
0
 10
-61.3748
 20
36.0354
 11
-61.618
 21
36.0979
  0
LINE
  8
0
 10
-61.618
 20
36.0979
 11
-61.8516
 21
36.1904
  0
LINE
  8
0
 10
-61.8516
 20
36.1904
 11
-62.0717
 21
36.3114
  0
LINE
  8
0
 10
-62.0717
 20
36.3114
 11
-62.2749
 21
36.459
  0
LINE
  8
0
 10
-62.2749
 20
36.459
 11
-62.4579
 21
36.6309
  0
LINE
  8
0
 10
-62.4579
 20
36.6309
 11
-62.618
 21
36.8244
  0
LINE
  8
0
 10
-62.618
 20
36.8244
 11
-62.7526
 21
37.0365
  0
LINE
  8
0
 10
-62.7526
 20
37.0365
 11
-62.8596
 21
37.2638
  0
LINE
  8
0
 10
-62.8596
 20
37.2638
 11
-62.9372
 21
37.5026
  0
LINE
  8
0
 10
-62.9372
 20
37.5026
 11
-62.9842
 21
37.7493
  0
LINE
  8
0
 10
-62.9842
 20
37.7493
 11
-63
 21
38
  0
LINE
  8
0
 10
-63
 20
38
 11
-62.9842
 21
38.2507
  0
LINE
  8
0
 10
-62.9842
 20
38.2507
 11
-62.9372
 21
38.4974
  0
LINE
  8
0
 10
-62.9372
 20
38.4974
 11
-62.8596
 21
38.7363
  0
LINE
  8
0
 10
-62.8596
 20
38.7363
 11
-62.7526
 21
38.9635
  0
LINE
  8
0
 10
-62.7526
 20
38.9635
 11
-62.618
 21
39.1756
  0
LINE
  8
0
 10
-62.618
 20
39.1756
 11
-62.4579
 21
39.3691
  0
LINE
  8
0
 10
-62.4579
 20
39.3691
 11
-62.2749
 21
39.541
  0
LINE
  8
0
 10
-62.2749
 20
39.541
 11
-62.0717
 21
39.6887
  0
LINE
  8
0
 10
-62.0717
 20
39.6887
 11
-61.8516
 21
39.8097
  0
LINE
  8
0
 10
-61.8516
 20
39.8097
 11
-61.618
 21
39.9021
  0
LINE
  8
0
 10
-61.618
 20
39.9021
 11
-61.3748
 21
39.9646
  0
LINE
  8
0
 10
-61.3748
 20
39.9646
 11
-61.1256
 21
39.9961
  0
LINE
  8
0
 10
-61.1256
 20
39.9961
 11
-60.8744
 21
39.9961
  0
LINE
  8
0
 10
-60.8744
 20
39.9961
 11
-60.6252
 21
39.9646
  0
LINE
  8
0
 10
-60.6252
 20
39.9646
 11
-60.382
 21
39.9021
  0
LINE
  8
0
 10
-60.382
 20
39.9021
 11
-60.1485
 21
39.8097
  0
LINE
  8
0
 10
-60.1485
 20
39.8097
 11
-59.9284
 21
39.6887
  0
LINE
  8
0
 10
-59.9284
 20
39.6887
 11
-59.7252
 21
39.541
  0
LINE
  8
0
 10
-59.7252
 20
39.541
 11
-59.5421
 21
39.3691
  0
LINE
  8
0
 10
-59.5421
 20
39.3691
 11
-59.382
 21
39.1756
  0
LINE
  8
0
 10
-59.382
 20
39.1756
 11
-59.2474
 21
38.9635
  0
LINE
  8
0
 10
-59.2474
 20
38.9635
 11
-59.1405
 21
38.7363
  0
LINE
  8
0
 10
-59.1405
 20
38.7363
 11
-59.0628
 21
38.4974
  0
LINE
  8
0
 10
-59.0628
 20
38.4974
 11
-59.0158
 21
38.2507
  0
LINE
  8
0
 10
-59.0158
 20
38.2507
 11
-59
 21
38
  0
LINE
  8
0
 10
-59
 20
38
 11
-59.0158
 21
37.7493
  0
LINE
  8
0
 10
-59.0158
 20
37.7493
 11
-59.0628
 21
37.5026
  0
LINE
  8
0
 10
-59.0628
 20
37.5026
 11
-59.1405
 21
37.2638
  0
LINE
  8
0
 10
-59.1405
 20
37.2638
 11
-59.2474
 21
37.0365
  0
LINE
  8
0
 10
-59.2474
 20
37.0365
 11
-59.382
 21
36.8244
  0
LINE
  8
0
 10
-59.382
 20
36.8244
 11
-59.5421
 21
36.6309
  0
LINE
  8
0
 10
-59.5421
 20
36.6309
 11
-59.7252
 21
36.459
  0
LINE
  8
0
 10
-59.7252
 20
36.459
 11
-59.9284
 21
36.3114
  0
LINE
  8
0
 10
-59.9284
 20
36.3114
 11
-60.1485
 21
36.1904
  0
LINE
  8
0
 10
-60.1485
 20
36.1904
 11
-60.382
 21
36.0979
  0
LINE
  8
0
 10
-60.382
 20
36.0979
 11
-60.6252
 21
36.0354
  0
LINE
  8
0
 10
-60.6252
 20
36.0354
 11
-60.8744
 21
36.004
  0
LINE
  8
0
 10
-60.8744
 20
36.004
 11
-61.1256
 21
36.004
  0
LINE
  8
0
 10
60.8744
 20
10.0039
 11
60.6252
 21
10.0354
  0
LINE
  8
0
 10
60.6252
 20
10.0354
 11
60.382
 21
10.0979
  0
LINE
  8
0
 10
60.382
 20
10.0979
 11
60.1485
 21
10.1903
  0
LINE
  8
0
 10
60.1485
 20
10.1903
 11
59.9284
 21
10.3113
  0
LINE
  8
0
 10
59.9284
 20
10.3113
 11
59.7252
 21
10.459
  0
LINE
  8
0
 10
59.7252
 20
10.459
 11
59.5421
 21
10.6309
  0
LINE
  8
0
 10
59.5421
 20
10.6309
 11
59.382
 21
10.8244
  0
LINE
  8
0
 10
59.382
 20
10.8244
 11
59.2474
 21
11.0365
  0
LINE
  8
0
 10
59.2474
 20
11.0365
 11
59.1405
 21
11.2637
  0
LINE
  8
0
 10
59.1405
 20
11.2637
 11
59.0628
 21
11.5026
  0
LINE
  8
0
 10
59.0628
 20
11.5026
 11
59.0158
 21
11.7493
  0
LINE
  8
0
 10
59.0158
 20
11.7493
 11
59
 21
12
  0
LINE
  8
0
 10
59
 20
12
 11
59.0158
 21
12.2507
  0
LINE
  8
0
 10
59.0158
 20
12.2507
 11
59.0628
 21
12.4974
  0
LINE
  8
0
 10
59.0628
 20
12.4974
 11
59.1405
 21
12.7362
  0
LINE
  8
0
 10
59.1405
 20
12.7362
 11
59.2474
 21
12.9635
  0
LINE
  8
0
 10
59.2474
 20
12.9635
 11
59.382
 21
13.1756
  0
LINE
  8
0
 10
59.382
 20
13.1756
 11
59.5421
 21
13.3691
  0
LINE
  8
0
 10
59.5421
 20
13.3691
 11
59.7252
 21
13.541
  0
LINE
  8
0
 10
59.7252
 20
13.541
 11
59.9284
 21
13.6886
  0
LINE
  8
0
 10
59.9284
 20
13.6886
 11
60.1485
 21
13.8096
  0
LINE
  8
0
 10
60.1485
 20
13.8096
 11
60.382
 21
13.9021
  0
LINE
  8
0
 10
60.382
 20
13.9021
 11
60.6252
 21
13.9646
  0
LINE
  8
0
 10
60.6252
 20
13.9646
 11
60.8744
 21
13.996
  0
LINE
  8
0
 10
60.8744
 20
13.996
 11
61.1256
 21
13.996
  0
LINE
  8
0
 10
61.1256
 20
13.996
 11
61.3748
 21
13.9646
  0
LINE
  8
0
 10
61.3748
 20
13.9646
 11
61.618
 21
13.9021
  0
LINE
  8
0
 10
61.618
 20
13.9021
 11
61.8516
 21
13.8096
  0
LINE
  8
0
 10
61.8516
 20
13.8096
 11
62.0717
 21
13.6886
  0
LINE
  8
0
 10
62.0717
 20
13.6886
 11
62.2749
 21
13.541
  0
LINE
  8
0
 10
62.2749
 20
13.541
 11
62.4579
 21
13.3691
  0
LINE
  8
0
 10
62.4579
 20
13.3691
 11
62.618
 21
13.1756
  0
LINE
  8
0
 10
62.618
 20
13.1756
 11
62.7526
 21
12.9635
  0
LINE
  8
0
 10
62.7526
 20
12.9635
 11
62.8596
 21
12.7362
  0
LINE
  8
0
 10
62.8596
 20
12.7362
 11
62.9372
 21
12.4974
  0
LINE
  8
0
 10
62.9372
 20
12.4974
 11
62.9842
 21
12.2507
  0
LINE
  8
0
 10
62.9842
 20
12.2507
 11
63
 21
12
  0
LINE
  8
0
 10
63
 20
12
 11
62.9842
 21
11.7493
  0
LINE
  8
0
 10
62.9842
 20
11.7493
 11
62.9372
 21
11.5026
  0
LINE
  8
0
 10
62.9372
 20
11.5026
 11
62.8596
 21
11.2637
  0
LINE
  8
0
 10
62.8596
 20
11.2637
 11
62.7526
 21
11.0365
  0
LINE
  8
0
 10
62.7526
 20
11.0365
 11
62.618
 21
10.8244
  0
LINE
  8
0
 10
62.618
 20
10.8244
 11
62.4579
 21
10.6309
  0
LINE
  8
0
 10
62.4579
 20
10.6309
 11
62.2749
 21
10.459
  0
LINE
  8
0
 10
62.2749
 20
10.459
 11
62.0717
 21
10.3113
  0
LINE
  8
0
 10
62.0717
 20
10.3113
 11
61.8516
 21
10.1903
  0
LINE
  8
0
 10
61.8516
 20
10.1903
 11
61.618
 21
10.0979
  0
LINE
  8
0
 10
61.618
 20
10.0979
 11
61.3748
 21
10.0354
  0
LINE
  8
0
 10
61.3748
 20
10.0354
 11
61.1256
 21
10.0039
  0
LINE
  8
0
 10
61.1256
 20
10.0039
 11
60.8744
 21
10.0039
  0
LINE
  8
0
 10
78.8744
 20
10.0039
 11
78.6252
 21
10.0354
  0
LINE
  8
0
 10
78.6252
 20
10.0354
 11
78.382
 21
10.0979
  0
LINE
  8
0
 10
78.382
 20
10.0979
 11
78.1484
 21
10.1903
  0
LINE
  8
0
 10
78.1484
 20
10.1903
 11
77.9283
 21
10.3113
  0
LINE
  8
0
 10
77.9283
 20
10.3113
 11
77.7251
 21
10.459
  0
LINE
  8
0
 10
77.7251
 20
10.459
 11
77.5421
 21
10.6309
  0
LINE
  8
0
 10
77.5421
 20
10.6309
 11
77.382
 21
10.8244
  0
LINE
  8
0
 10
77.382
 20
10.8244
 11
77.2474
 21
11.0365
  0
LINE
  8
0
 10
77.2474
 20
11.0365
 11
77.1404
 21
11.2637
  0
LINE
  8
0
 10
77.1404
 20
11.2637
 11
77.0628
 21
11.5026
  0
LINE
  8
0
 10
77.0628
 20
11.5026
 11
77.0158
 21
11.7493
  0
LINE
  8
0
 10
77.0158
 20
11.7493
 11
77
 21
12
  0
LINE
  8
0
 10
77
 20
12
 11
77.0158
 21
12.2507
  0
LINE
  8
0
 10
77.0158
 20
12.2507
 11
77.0628
 21
12.4974
  0
LINE
  8
0
 10
77.0628
 20
12.4974
 11
77.1404
 21
12.7362
  0
LINE
  8
0
 10
77.1404
 20
12.7362
 11
77.2474
 21
12.9635
  0
LINE
  8
0
 10
77.2474
 20
12.9635
 11
77.382
 21
13.1756
  0
LINE
  8
0
 10
77.382
 20
13.1756
 11
77.5421
 21
13.3691
  0
LINE
  8
0
 10
77.5421
 20
13.3691
 11
77.7251
 21
13.541
  0
LINE
  8
0
 10
77.7251
 20
13.541
 11
77.9283
 21
13.6886
  0
LINE
  8
0
 10
77.9283
 20
13.6886
 11
78.1484
 21
13.8096
  0
LINE
  8
0
 10
78.1484
 20
13.8096
 11
78.382
 21
13.9021
  0
LINE
  8
0
 10
78.382
 20
13.9021
 11
78.6252
 21
13.9646
  0
LINE
  8
0
 10
78.6252
 20
13.9646
 11
78.8744
 21
13.996
  0
LINE
  8
0
 10
78.8744
 20
13.996
 11
79.1256
 21
13.996
  0
LINE
  8
0
 10
79.1256
 20
13.996
 11
79.3748
 21
13.9646
  0
LINE
  8
0
 10
79.3748
 20
13.9646
 11
79.618
 21
13.9021
  0
LINE
  8
0
 10
79.618
 20
13.9021
 11
79.8515
 21
13.8096
  0
LINE
  8
0
 10
79.8515
 20
13.8096
 11
80.0716
 21
13.6886
  0
LINE
  8
0
 10
80.0716
 20
13.6886
 11
80.2748
 21
13.541
  0
LINE
  8
0
 10
80.2748
 20
13.541
 11
80.4579
 21
13.3691
  0
LINE
  8
0
 10
80.4579
 20
13.3691
 11
80.618
 21
13.1756
  0
LINE
  8
0
 10
80.618
 20
13.1756
 11
80.7526
 21
12.9635
  0
LINE
  8
0
 10
80.7526
 20
12.9635
 11
80.8595
 21
12.7362
  0
LINE
  8
0
 10
80.8595
 20
12.7362
 11
80.9372
 21
12.4974
  0
LINE
  8
0
 10
80.9372
 20
12.4974
 11
80.9842
 21
12.2507
  0
LINE
  8
0
 10
80.9842
 20
12.2507
 11
81
 21
12
  0
LINE
  8
0
 10
81
 20
12
 11
80.9842
 21
11.7493
  0
LINE
  8
0
 10
80.9842
 20
11.7493
 11
80.9372
 21
11.5026
  0
LINE
  8
0
 10
80.9372
 20
11.5026
 11
80.8595
 21
11.2637
  0
LINE
  8
0
 10
80.8595
 20
11.2637
 11
80.7526
 21
11.0365
  0
LINE
  8
0
 10
80.7526
 20
11.0365
 11
80.618
 21
10.8244
  0
LINE
  8
0
 10
80.618
 20
10.8244
 11
80.4579
 21
10.6309
  0
LINE
  8
0
 10
80.4579
 20
10.6309
 11
80.2748
 21
10.459
  0
LINE
  8
0
 10
80.2748
 20
10.459
 11
80.0716
 21
10.3113
  0
LINE
  8
0
 10
80.0716
 20
10.3113
 11
79.8515
 21
10.1903
  0
LINE
  8
0
 10
79.8515
 20
10.1903
 11
79.618
 21
10.0979
  0
LINE
  8
0
 10
79.618
 20
10.0979
 11
79.3748
 21
10.0354
  0
LINE
  8
0
 10
79.3748
 20
10.0354
 11
79.1256
 21
10.0039
  0
LINE
  8
0
 10
79.1256
 20
10.0039
 11
78.8744
 21
10.0039
  0
LINE
  8
0
 10
60.8744
 20
-13.996
 11
60.6252
 21
-13.9646
  0
LINE
  8
0
 10
60.6252
 20
-13.9646
 11
60.382
 21
-13.9021
  0
LINE
  8
0
 10
60.382
 20
-13.9021
 11
60.1485
 21
-13.8096
  0
LINE
  8
0
 10
60.1485
 20
-13.8096
 11
59.9284
 21
-13.6886
  0
LINE
  8
0
 10
59.9284
 20
-13.6886
 11
59.7252
 21
-13.541
  0
LINE
  8
0
 10
59.7252
 20
-13.541
 11
59.5421
 21
-13.3691
  0
LINE
  8
0
 10
59.5421
 20
-13.3691
 11
59.382
 21
-13.1756
  0
LINE
  8
0
 10
59.382
 20
-13.1756
 11
59.2474
 21
-12.9635
  0
LINE
  8
0
 10
59.2474
 20
-12.9635
 11
59.1405
 21
-12.7362
  0
LINE
  8
0
 10
59.1405
 20
-12.7362
 11
59.0628
 21
-12.4974
  0
LINE
  8
0
 10
59.0628
 20
-12.4974
 11
59.0158
 21
-12.2507
  0
LINE
  8
0
 10
59.0158
 20
-12.2507
 11
59
 21
-12
  0
LINE
  8
0
 10
59
 20
-12
 11
59.0158
 21
-11.7493
  0
LINE
  8
0
 10
59.0158
 20
-11.7493
 11
59.0628
 21
-11.5026
  0
LINE
  8
0
 10
59.0628
 20
-11.5026
 11
59.1405
 21
-11.2637
  0
LINE
  8
0
 10
59.1405
 20
-11.2637
 11
59.2474
 21
-11.0365
  0
LINE
  8
0
 10
59.2474
 20
-11.0365
 11
59.382
 21
-10.8244
  0
LINE
  8
0
 10
59.382
 20
-10.8244
 11
59.5421
 21
-10.6309
  0
LINE
  8
0
 10
59.5421
 20
-10.6309
 11
59.7252
 21
-10.459
  0
LINE
  8
0
 10
59.7252
 20
-10.459
 11
59.9284
 21
-10.3113
  0
LINE
  8
0
 10
59.9284
 20
-10.3113
 11
60.1485
 21
-10.1903
  0
LINE
  8
0
 10
60.1485
 20
-10.1903
 11
60.382
 21
-10.0979
  0
LINE
  8
0
 10
60.382
 20
-10.0979
 11
60.6252
 21
-10.0354
  0
LINE
  8
0
 10
60.6252
 20
-10.0354
 11
60.8744
 21
-10.0039
  0
LINE
  8
0
 10
60.8744
 20
-10.0039
 11
61.1256
 21
-10.0039
  0
LINE
  8
0
 10
61.1256
 20
-10.0039
 11
61.3748
 21
-10.0354
  0
LINE
  8
0
 10
61.3748
 20
-10.0354
 11
61.618
 21
-10.0979
  0
LINE
  8
0
 10
61.618
 20
-10.0979
 11
61.8516
 21
-10.1903
  0
LINE
  8
0
 10
61.8516
 20
-10.1903
 11
62.0717
 21
-10.3113
  0
LINE
  8
0
 10
62.0717
 20
-10.3113
 11
62.2749
 21
-10.459
  0
LINE
  8
0
 10
62.2749
 20
-10.459
 11
62.4579
 21
-10.6309
  0
LINE
  8
0
 10
62.4579
 20
-10.6309
 11
62.618
 21
-10.8244
  0
LINE
  8
0
 10
62.618
 20
-10.8244
 11
62.7526
 21
-11.0365
  0
LINE
  8
0
 10
62.7526
 20
-11.0365
 11
62.8596
 21
-11.2637
  0
LINE
  8
0
 10
62.8596
 20
-11.2637
 11
62.9372
 21
-11.5026
  0
LINE
  8
0
 10
62.9372
 20
-11.5026
 11
62.9842
 21
-11.7493
  0
LINE
  8
0
 10
62.9842
 20
-11.7493
 11
63
 21
-12
  0
LINE
  8
0
 10
63
 20
-12
 11
62.9842
 21
-12.2507
  0
LINE
  8
0
 10
62.9842
 20
-12.2507
 11
62.9372
 21
-12.4974
  0
LINE
  8
0
 10
62.9372
 20
-12.4974
 11
62.8596
 21
-12.7362
  0
LINE
  8
0
 10
62.8596
 20
-12.7362
 11
62.7526
 21
-12.9635
  0
LINE
  8
0
 10
62.7526
 20
-12.9635
 11
62.618
 21
-13.1756
  0
LINE
  8
0
 10
62.618
 20
-13.1756
 11
62.4579
 21
-13.3691
  0
LINE
  8
0
 10
62.4579
 20
-13.3691
 11
62.2749
 21
-13.541
  0
LINE
  8
0
 10
62.2749
 20
-13.541
 11
62.0717
 21
-13.6886
  0
LINE
  8
0
 10
62.0717
 20
-13.6886
 11
61.8516
 21
-13.8096
  0
LINE
  8
0
 10
61.8516
 20
-13.8096
 11
61.618
 21
-13.9021
  0
LINE
  8
0
 10
61.618
 20
-13.9021
 11
61.3748
 21
-13.9646
  0
LINE
  8
0
 10
61.3748
 20
-13.9646
 11
61.1256
 21
-13.996
  0
LINE
  8
0
 10
61.1256
 20
-13.996
 11
60.8744
 21
-13.996
  0
LINE
  8
0
 10
78.8744
 20
-13.996
 11
78.6252
 21
-13.9646
  0
LINE
  8
0
 10
78.6252
 20
-13.9646
 11
78.382
 21
-13.9021
  0
LINE
  8
0
 10
78.382
 20
-13.9021
 11
78.1484
 21
-13.8096
  0
LINE
  8
0
 10
78.1484
 20
-13.8096
 11
77.9283
 21
-13.6886
  0
LINE
  8
0
 10
77.9283
 20
-13.6886
 11
77.7251
 21
-13.541
  0
LINE
  8
0
 10
77.7251
 20
-13.541
 11
77.5421
 21
-13.3691
  0
LINE
  8
0
 10
77.5421
 20
-13.3691
 11
77.382
 21
-13.1756
  0
LINE
  8
0
 10
77.382
 20
-13.1756
 11
77.2474
 21
-12.9635
  0
LINE
  8
0
 10
77.2474
 20
-12.9635
 11
77.1404
 21
-12.7362
  0
LINE
  8
0
 10
77.1404
 20
-12.7362
 11
77.0628
 21
-12.4974
  0
LINE
  8
0
 10
77.0628
 20
-12.4974
 11
77.0158
 21
-12.2507
  0
LINE
  8
0
 10
77.0158
 20
-12.2507
 11
77
 21
-12
  0
LINE
  8
0
 10
77
 20
-12
 11
77.0158
 21
-11.7493
  0
LINE
  8
0
 10
77.0158
 20
-11.7493
 11
77.0628
 21
-11.5026
  0
LINE
  8
0
 10
77.0628
 20
-11.5026
 11
77.1404
 21
-11.2637
  0
LINE
  8
0
 10
77.1404
 20
-11.2637
 11
77.2474
 21
-11.0365
  0
LINE
  8
0
 10
77.2474
 20
-11.0365
 11
77.382
 21
-10.8244
  0
LINE
  8
0
 10
77.382
 20
-10.8244
 11
77.5421
 21
-10.6309
  0
LINE
  8
0
 10
77.5421
 20
-10.6309
 11
77.7251
 21
-10.459
  0
LINE
  8
0
 10
77.7251
 20
-10.459
 11
77.9283
 21
-10.3113
  0
LINE
  8
0
 10
77.9283
 20
-10.3113
 11
78.1484
 21
-10.1903
  0
LINE
  8
0
 10
78.1484
 20
-10.1903
 11
78.382
 21
-10.0979
  0
LINE
  8
0
 10
78.382
 20
-10.0979
 11
78.6252
 21
-10.0354
  0
LINE
  8
0
 10
78.6252
 20
-10.0354
 11
78.8744
 21
-10.0039
  0
LINE
  8
0
 10
78.8744
 20
-10.0039
 11
79.1256
 21
-10.0039
  0
LINE
  8
0
 10
79.1256
 20
-10.0039
 11
79.3748
 21
-10.0354
  0
LINE
  8
0
 10
79.3748
 20
-10.0354
 11
79.618
 21
-10.0979
  0
LINE
  8
0
 10
79.618
 20
-10.0979
 11
79.8515
 21
-10.1903
  0
LINE
  8
0
 10
79.8515
 20
-10.1903
 11
80.0716
 21
-10.3113
  0
LINE
  8
0
 10
80.0716
 20
-10.3113
 11
80.2748
 21
-10.459
  0
LINE
  8
0
 10
80.2748
 20
-10.459
 11
80.4579
 21
-10.6309
  0
LINE
  8
0
 10
80.4579
 20
-10.6309
 11
80.618
 21
-10.8244
  0
LINE
  8
0
 10
80.618
 20
-10.8244
 11
80.7526
 21
-11.0365
  0
LINE
  8
0
 10
80.7526
 20
-11.0365
 11
80.8595
 21
-11.2637
  0
LINE
  8
0
 10
80.8595
 20
-11.2637
 11
80.9372
 21
-11.5026
  0
LINE
  8
0
 10
80.9372
 20
-11.5026
 11
80.9842
 21
-11.7493
  0
LINE
  8
0
 10
80.9842
 20
-11.7493
 11
81
 21
-12
  0
LINE
  8
0
 10
81
 20
-12
 11
80.9842
 21
-12.2507
  0
LINE
  8
0
 10
80.9842
 20
-12.2507
 11
80.9372
 21
-12.4974
  0
LINE
  8
0
 10
80.9372
 20
-12.4974
 11
80.8595
 21
-12.7362
  0
LINE
  8
0
 10
80.8595
 20
-12.7362
 11
80.7526
 21
-12.9635
  0
LINE
  8
0
 10
80.7526
 20
-12.9635
 11
80.618
 21
-13.1756
  0
LINE
  8
0
 10
80.618
 20
-13.1756
 11
80.4579
 21
-13.3691
  0
LINE
  8
0
 10
80.4579
 20
-13.3691
 11
80.2748
 21
-13.541
  0
LINE
  8
0
 10
80.2748
 20
-13.541
 11
80.0716
 21
-13.6886
  0
LINE
  8
0
 10
80.0716
 20
-13.6886
 11
79.8515
 21
-13.8096
  0
LINE
  8
0
 10
79.8515
 20
-13.8096
 11
79.618
 21
-13.9021
  0
LINE
  8
0
 10
79.618
 20
-13.9021
 11
79.3748
 21
-13.9646
  0
LINE
  8
0
 10
79.3748
 20
-13.9646
 11
79.1256
 21
-13.996
  0
LINE
  8
0
 10
79.1256
 20
-13.996
 11
78.8744
 21
-13.996
  0
LINE
  8
0
 10
-61.1256
 20
-39.9961
 11
-61.3748
 21
-39.9646
  0
LINE
  8
0
 10
-61.3748
 20
-39.9646
 11
-61.618
 21
-39.9021
  0
LINE
  8
0
 10
-61.618
 20
-39.9021
 11
-61.8516
 21
-39.8097
  0
LINE
  8
0
 10
-61.8516
 20
-39.8097
 11
-62.0717
 21
-39.6887
  0
LINE
  8
0
 10
-62.0717
 20
-39.6887
 11
-62.2749
 21
-39.541
  0
LINE
  8
0
 10
-62.2749
 20
-39.541
 11
-62.4579
 21
-39.3691
  0
LINE
  8
0
 10
-62.4579
 20
-39.3691
 11
-62.618
 21
-39.1756
  0
LINE
  8
0
 10
-62.618
 20
-39.1756
 11
-62.7526
 21
-38.9635
  0
LINE
  8
0
 10
-62.7526
 20
-38.9635
 11
-62.8596
 21
-38.7363
  0
LINE
  8
0
 10
-62.8596
 20
-38.7363
 11
-62.9372
 21
-38.4974
  0
LINE
  8
0
 10
-62.9372
 20
-38.4974
 11
-62.9842
 21
-38.2507
  0
LINE
  8
0
 10
-62.9842
 20
-38.2507
 11
-63
 21
-38
  0
LINE
  8
0
 10
-63
 20
-38
 11
-62.9842
 21
-37.7493
  0
LINE
  8
0
 10
-62.9842
 20
-37.7493
 11
-62.9372
 21
-37.5026
  0
LINE
  8
0
 10
-62.9372
 20
-37.5026
 11
-62.8596
 21
-37.2638
  0
LINE
  8
0
 10
-62.8596
 20
-37.2638
 11
-62.7526
 21
-37.0365
  0
LINE
  8
0
 10
-62.7526
 20
-37.0365
 11
-62.618
 21
-36.8244
  0
LINE
  8
0
 10
-62.618
 20
-36.8244
 11
-62.4579
 21
-36.6309
  0
LINE
  8
0
 10
-62.4579
 20
-36.6309
 11
-62.2749
 21
-36.459
  0
LINE
  8
0
 10
-62.2749
 20
-36.459
 11
-62.0717
 21
-36.3114
  0
LINE
  8
0
 10
-62.0717
 20
-36.3114
 11
-61.8516
 21
-36.1904
  0
LINE
  8
0
 10
-61.8516
 20
-36.1904
 11
-61.618
 21
-36.0979
  0
LINE
  8
0
 10
-61.618
 20
-36.0979
 11
-61.3748
 21
-36.0354
  0
LINE
  8
0
 10
-61.3748
 20
-36.0354
 11
-61.1256
 21
-36.004
  0
LINE
  8
0
 10
-61.1256
 20
-36.004
 11
-60.8744
 21
-36.004
  0
LINE
  8
0
 10
-60.8744
 20
-36.004
 11
-60.6252
 21
-36.0354
  0
LINE
  8
0
 10
-60.6252
 20
-36.0354
 11
-60.382
 21
-36.0979
  0
LINE
  8
0
 10
-60.382
 20
-36.0979
 11
-60.1485
 21
-36.1904
  0
LINE
  8
0
 10
-60.1485
 20
-36.1904
 11
-59.9284
 21
-36.3114
  0
LINE
  8
0
 10
-59.9284
 20
-36.3114
 11
-59.7252
 21
-36.459
  0
LINE
  8
0
 10
-59.7252
 20
-36.459
 11
-59.5421
 21
-36.6309
  0
LINE
  8
0
 10
-59.5421
 20
-36.6309
 11
-59.382
 21
-36.8244
  0
LINE
  8
0
 10
-59.382
 20
-36.8244
 11
-59.2474
 21
-37.0365
  0
LINE
  8
0
 10
-59.2474
 20
-37.0365
 11
-59.1405
 21
-37.2638
  0
LINE
  8
0
 10
-59.1405
 20
-37.2638
 11
-59.0628
 21
-37.5026
  0
LINE
  8
0
 10
-59.0628
 20
-37.5026
 11
-59.0158
 21
-37.7493
  0
LINE
  8
0
 10
-59.0158
 20
-37.7493
 11
-59
 21
-38
  0
LINE
  8
0
 10
-59
 20
-38
 11
-59.0158
 21
-38.2507
  0
LINE
  8
0
 10
-59.0158
 20
-38.2507
 11
-59.0628
 21
-38.4974
  0
LINE
  8
0
 10
-59.0628
 20
-38.4974
 11
-59.1405
 21
-38.7363
  0
LINE
  8
0
 10
-59.1405
 20
-38.7363
 11
-59.2474
 21
-38.9635
  0
LINE
  8
0
 10
-59.2474
 20
-38.9635
 11
-59.382
 21
-39.1756
  0
LINE
  8
0
 10
-59.382
 20
-39.1756
 11
-59.5421
 21
-39.3691
  0
LINE
  8
0
 10
-59.5421
 20
-39.3691
 11
-59.7252
 21
-39.541
  0
LINE
  8
0
 10
-59.7252
 20
-39.541
 11
-59.9284
 21
-39.6887
  0
LINE
  8
0
 10
-59.9284
 20
-39.6887
 11
-60.1485
 21
-39.8097
  0
LINE
  8
0
 10
-60.1485
 20
-39.8097
 11
-60.382
 21
-39.9021
  0
LINE
  8
0
 10
-60.382
 20
-39.9021
 11
-60.6252
 21
-39.9646
  0
LINE
  8
0
 10
-60.6252
 20
-39.9646
 11
-60.8744
 21
-39.9961
  0
LINE
  8
0
 10
-60.8744
 20
-39.9961
 11
-61.1256
 21
-39.9961
  0
LINE
  8
0
 10
-79.1256
 20
-39.9961
 11
-79.3748
 21
-39.9646
  0
LINE
  8
0
 10
-79.3748
 20
-39.9646
 11
-79.618
 21
-39.9021
  0
LINE
  8
0
 10
-79.618
 20
-39.9021
 11
-79.8515
 21
-39.8097
  0
LINE
  8
0
 10
-79.8515
 20
-39.8097
 11
-80.0716
 21
-39.6887
  0
LINE
  8
0
 10
-80.0716
 20
-39.6887
 11
-80.2748
 21
-39.541
  0
LINE
  8
0
 10
-80.2748
 20
-39.541
 11
-80.4579
 21
-39.3691
  0
LINE
  8
0
 10
-80.4579
 20
-39.3691
 11
-80.618
 21
-39.1756
  0
LINE
  8
0
 10
-80.618
 20
-39.1756
 11
-80.7526
 21
-38.9635
  0
LINE
  8
0
 10
-80.7526
 20
-38.9635
 11
-80.8595
 21
-38.7363
  0
LINE
  8
0
 10
-80.8595
 20
-38.7363
 11
-80.9372
 21
-38.4974
  0
LINE
  8
0
 10
-80.9372
 20
-38.4974
 11
-80.9842
 21
-38.2507
  0
LINE
  8
0
 10
-80.9842
 20
-38.2507
 11
-81
 21
-38
  0
LINE
  8
0
 10
-81
 20
-38
 11
-80.9842
 21
-37.7493
  0
LINE
  8
0
 10
-80.9842
 20
-37.7493
 11
-80.9372
 21
-37.5026
  0
LINE
  8
0
 10
-80.9372
 20
-37.5026
 11
-80.8595
 21
-37.2638
  0
LINE
  8
0
 10
-80.8595
 20
-37.2638
 11
-80.7526
 21
-37.0365
  0
LINE
  8
0
 10
-80.7526
 20
-37.0365
 11
-80.618
 21
-36.8244
  0
LINE
  8
0
 10
-80.618
 20
-36.8244
 11
-80.4579
 21
-36.6309
  0
LINE
  8
0
 10
-80.4579
 20
-36.6309
 11
-80.2748
 21
-36.459
  0
LINE
  8
0
 10
-80.2748
 20
-36.459
 11
-80.0716
 21
-36.3114
  0
LINE
  8
0
 10
-80.0716
 20
-36.3114
 11
-79.8515
 21
-36.1904
  0
LINE
  8
0
 10
-79.8515
 20
-36.1904
 11
-79.618
 21
-36.0979
  0
LINE
  8
0
 10
-79.618
 20
-36.0979
 11
-79.3748
 21
-36.0354
  0
LINE
  8
0
 10
-79.3748
 20
-36.0354
 11
-79.1256
 21
-36.004
  0
LINE
  8
0
 10
-79.1256
 20
-36.004
 11
-78.8744
 21
-36.004
  0
LINE
  8
0
 10
-78.8744
 20
-36.004
 11
-78.6252
 21
-36.0354
  0
LINE
  8
0
 10
-78.6252
 20
-36.0354
 11
-78.382
 21
-36.0979
  0
LINE
  8
0
 10
-78.382
 20
-36.0979
 11
-78.1484
 21
-36.1904
  0
LINE
  8
0
 10
-78.1484
 20
-36.1904
 11
-77.9283
 21
-36.3114
  0
LINE
  8
0
 10
-77.9283
 20
-36.3114
 11
-77.7251
 21
-36.459
  0
LINE
  8
0
 10
-77.7251
 20
-36.459
 11
-77.5421
 21
-36.6309
  0
LINE
  8
0
 10
-77.5421
 20
-36.6309
 11
-77.382
 21
-36.8244
  0
LINE
  8
0
 10
-77.382
 20
-36.8244
 11
-77.2474
 21
-37.0365
  0
LINE
  8
0
 10
-77.2474
 20
-37.0365
 11
-77.1404
 21
-37.2638
  0
LINE
  8
0
 10
-77.1404
 20
-37.2638
 11
-77.0628
 21
-37.5026
  0
LINE
  8
0
 10
-77.0628
 20
-37.5026
 11
-77.0158
 21
-37.7493
  0
LINE
  8
0
 10
-77.0158
 20
-37.7493
 11
-77
 21
-38
  0
LINE
  8
0
 10
-77
 20
-38
 11
-77.0158
 21
-38.2507
  0
LINE
  8
0
 10
-77.0158
 20
-38.2507
 11
-77.0628
 21
-38.4974
  0
LINE
  8
0
 10
-77.0628
 20
-38.4974
 11
-77.1404
 21
-38.7363
  0
LINE
  8
0
 10
-77.1404
 20
-38.7363
 11
-77.2474
 21
-38.9635
  0
LINE
  8
0
 10
-77.2474
 20
-38.9635
 11
-77.382
 21
-39.1756
  0
LINE
  8
0
 10
-77.382
 20
-39.1756
 11
-77.5421
 21
-39.3691
  0
LINE
  8
0
 10
-77.5421
 20
-39.3691
 11
-77.7251
 21
-39.541
  0
LINE
  8
0
 10
-77.7251
 20
-39.541
 11
-77.9283
 21
-39.6887
  0
LINE
  8
0
 10
-77.9283
 20
-39.6887
 11
-78.1484
 21
-39.8097
  0
LINE
  8
0
 10
-78.1484
 20
-39.8097
 11
-78.382
 21
-39.9021
  0
LINE
  8
0
 10
-78.382
 20
-39.9021
 11
-78.6252
 21
-39.9646
  0
LINE
  8
0
 10
-78.6252
 20
-39.9646
 11
-78.8744
 21
-39.9961
  0
LINE
  8
0
 10
-78.8744
 20
-39.9961
 11
-79.1256
 21
-39.9961
  0
LINE
  8
0
 10
-50.0942
 20
-51.497
 11
-50.2811
 21
-51.4734
  0
LINE
  8
0
 10
-50.2811
 20
-51.4734
 11
-50.4635
 21
-51.4266
  0
LINE
  8
0
 10
-50.4635
 20
-51.4266
 11
-50.6387
 21
-51.3572
  0
LINE
  8
0
 10
-50.6387
 20
-51.3572
 11
-50.8037
 21
-51.2665
  0
LINE
  8
0
 10
-50.8037
 20
-51.2665
 11
-50.9561
 21
-51.1558
  0
LINE
  8
0
 10
-50.9561
 20
-51.1558
 11
-51.0934
 21
-51.0268
  0
LINE
  8
0
 10
-51.0934
 20
-51.0268
 11
-51.2135
 21
-50.8817
  0
LINE
  8
0
 10
-51.2135
 20
-50.8817
 11
-51.3145
 21
-50.7226
  0
LINE
  8
0
 10
-51.3145
 20
-50.7226
 11
-51.3947
 21
-50.5522
  0
LINE
  8
0
 10
-51.3947
 20
-50.5522
 11
-51.4529
 21
-50.373
  0
LINE
  8
0
 10
-51.4529
 20
-50.373
 11
-51.4882
 21
-50.188
  0
LINE
  8
0
 10
-51.4882
 20
-50.188
 11
-51.5
 21
-50
  0
LINE
  8
0
 10
-51.5
 20
-50
 11
-51.4882
 21
-49.812
  0
LINE
  8
0
 10
-51.4882
 20
-49.812
 11
-51.4529
 21
-49.627
  0
LINE
  8
0
 10
-51.4529
 20
-49.627
 11
-51.3947
 21
-49.4478
  0
LINE
  8
0
 10
-51.3947
 20
-49.4478
 11
-51.3145
 21
-49.2774
  0
LINE
  8
0
 10
-51.3145
 20
-49.2774
 11
-51.2135
 21
-49.1183
  0
LINE
  8
0
 10
-51.2135
 20
-49.1183
 11
-51.0934
 21
-48.9732
  0
LINE
  8
0
 10
-51.0934
 20
-48.9732
 11
-50.9561
 21
-48.8442
  0
LINE
  8
0
 10
-50.9561
 20
-48.8442
 11
-50.8037
 21
-48.7335
  0
LINE
  8
0
 10
-50.8037
 20
-48.7335
 11
-50.6387
 21
-48.6427
  0
LINE
  8
0
 10
-50.6387
 20
-48.6427
 11
-50.4635
 21
-48.5734
  0
LINE
  8
0
 10
-50.4635
 20
-48.5734
 11
-50.2811
 21
-48.5266
  0
LINE
  8
0
 10
-50.2811
 20
-48.5266
 11
-50.0942
 21
-48.5029
  0
LINE
  8
0
 10
-50.0942
 20
-48.5029
 11
-49.9058
 21
-48.5029
  0
LINE
  8
0
 10
-49.9058
 20
-48.5029
 11
-49.7189
 21
-48.5266
  0
LINE
  8
0
 10
-49.7189
 20
-48.5266
 11
-49.5365
 21
-48.5734
  0
LINE
  8
0
 10
-49.5365
 20
-48.5734
 11
-49.3613
 21
-48.6427
  0
LINE
  8
0
 10
-49.3613
 20
-48.6427
 11
-49.1963
 21
-48.7335
  0
LINE
  8
0
 10
-49.1963
 20
-48.7335
 11
-49.0439
 21
-48.8442
  0
LINE
  8
0
 10
-49.0439
 20
-48.8442
 11
-48.9065
 21
-48.9732
  0
LINE
  8
0
 10
-48.9065
 20
-48.9732
 11
-48.7865
 21
-49.1183
  0
LINE
  8
0
 10
-48.7865
 20
-49.1183
 11
-48.6855
 21
-49.2774
  0
LINE
  8
0
 10
-48.6855
 20
-49.2774
 11
-48.6053
 21
-49.4478
  0
LINE
  8
0
 10
-48.6053
 20
-49.4478
 11
-48.5471
 21
-49.627
  0
LINE
  8
0
 10
-48.5471
 20
-49.627
 11
-48.5118
 21
-49.812
  0
LINE
  8
0
 10
-48.5118
 20
-49.812
 11
-48.5
 21
-50
  0
LINE
  8
0
 10
-48.5
 20
-50
 11
-48.5118
 21
-50.188
  0
LINE
  8
0
 10
-48.5118
 20
-50.188
 11
-48.5471
 21
-50.373
  0
LINE
  8
0
 10
-48.5471
 20
-50.373
 11
-48.6053
 21
-50.5522
  0
LINE
  8
0
 10
-48.6053
 20
-50.5522
 11
-48.6855
 21
-50.7226
  0
LINE
  8
0
 10
-48.6855
 20
-50.7226
 11
-48.7865
 21
-50.8817
  0
LINE
  8
0
 10
-48.7865
 20
-50.8817
 11
-48.9065
 21
-51.0268
  0
LINE
  8
0
 10
-48.9065
 20
-51.0268
 11
-49.0439
 21
-51.1558
  0
LINE
  8
0
 10
-49.0439
 20
-51.1558
 11
-49.1963
 21
-51.2665
  0
LINE
  8
0
 10
-49.1963
 20
-51.2665
 11
-49.3613
 21
-51.3572
  0
LINE
  8
0
 10
-49.3613
 20
-51.3572
 11
-49.5365
 21
-51.4266
  0
LINE
  8
0
 10
-49.5365
 20
-51.4266
 11
-49.7189
 21
-51.4734
  0
LINE
  8
0
 10
-49.7189
 20
-51.4734
 11
-49.9058
 21
-51.497
  0
LINE
  8
0
 10
-49.9058
 20
-51.497
 11
-50.0942
 21
-51.497
  0
LINE
  8
0
 10
49.9058
 20
-51.497
 11
49.7189
 21
-51.4734
  0
LINE
  8
0
 10
49.7189
 20
-51.4734
 11
49.5365
 21
-51.4266
  0
LINE
  8
0
 10
49.5365
 20
-51.4266
 11
49.3613
 21
-51.3572
  0
LINE
  8
0
 10
49.3613
 20
-51.3572
 11
49.1963
 21
-51.2665
  0
LINE
  8
0
 10
49.1963
 20
-51.2665
 11
49.0439
 21
-51.1558
  0
LINE
  8
0
 10
49.0439
 20
-51.1558
 11
48.9065
 21
-51.0268
  0
LINE
  8
0
 10
48.9065
 20
-51.0268
 11
48.7865
 21
-50.8817
  0
LINE
  8
0
 10
48.7865
 20
-50.8817
 11
48.6855
 21
-50.7226
  0
LINE
  8
0
 10
48.6855
 20
-50.7226
 11
48.6053
 21
-50.5522
  0
LINE
  8
0
 10
48.6053
 20
-50.5522
 11
48.5471
 21
-50.373
  0
LINE
  8
0
 10
48.5471
 20
-50.373
 11
48.5118
 21
-50.188
  0
LINE
  8
0
 10
48.5118
 20
-50.188
 11
48.5
 21
-50
  0
LINE
  8
0
 10
48.5
 20
-50
 11
48.5118
 21
-49.812
  0
LINE
  8
0
 10
48.5118
 20
-49.812
 11
48.5471
 21
-49.627
  0
LINE
  8
0
 10
48.5471
 20
-49.627
 11
48.6053
 21
-49.4478
  0
LINE
  8
0
 10
48.6053
 20
-49.4478
 11
48.6855
 21
-49.2774
  0
LINE
  8
0
 10
48.6855
 20
-49.2774
 11
48.7865
 21
-49.1183
  0
LINE
  8
0
 10
48.7865
 20
-49.1183
 11
48.9065
 21
-48.9732
  0
LINE
  8
0
 10
48.9065
 20
-48.9732
 11
49.0439
 21
-48.8442
  0
LINE
  8
0
 10
49.0439
 20
-48.8442
 11
49.1963
 21
-48.7335
  0
LINE
  8
0
 10
49.1963
 20
-48.7335
 11
49.3613
 21
-48.6427
  0
LINE
  8
0
 10
49.3613
 20
-48.6427
 11
49.5365
 21
-48.5734
  0
LINE
  8
0
 10
49.5365
 20
-48.5734
 11
49.7189
 21
-48.5266
  0
LINE
  8
0
 10
49.7189
 20
-48.5266
 11
49.9058
 21
-48.5029
  0
LINE
  8
0
 10
49.9058
 20
-48.5029
 11
50.0942
 21
-48.5029
  0
LINE
  8
0
 10
50.0942
 20
-48.5029
 11
50.2811
 21
-48.5266
  0
LINE
  8
0
 10
50.2811
 20
-48.5266
 11
50.4635
 21
-48.5734
  0
LINE
  8
0
 10
50.4635
 20
-48.5734
 11
50.6387
 21
-48.6427
  0
LINE
  8
0
 10
50.6387
 20
-48.6427
 11
50.8037
 21
-48.7335
  0
LINE
  8
0
 10
50.8037
 20
-48.7335
 11
50.9561
 21
-48.8442
  0
LINE
  8
0
 10
50.9561
 20
-48.8442
 11
51.0934
 21
-48.9732
  0
LINE
  8
0
 10
51.0934
 20
-48.9732
 11
51.2135
 21
-49.1183
  0
LINE
  8
0
 10
51.2135
 20
-49.1183
 11
51.3145
 21
-49.2774
  0
LINE
  8
0
 10
51.3145
 20
-49.2774
 11
51.3947
 21
-49.4478
  0
LINE
  8
0
 10
51.3947
 20
-49.4478
 11
51.4529
 21
-49.627
  0
LINE
  8
0
 10
51.4529
 20
-49.627
 11
51.4882
 21
-49.812
  0
LINE
  8
0
 10
51.4882
 20
-49.812
 11
51.5
 21
-50
  0
LINE
  8
0
 10
51.5
 20
-50
 11
51.4882
 21
-50.188
  0
LINE
  8
0
 10
51.4882
 20
-50.188
 11
51.4529
 21
-50.373
  0
LINE
  8
0
 10
51.4529
 20
-50.373
 11
51.3947
 21
-50.5522
  0
LINE
  8
0
 10
51.3947
 20
-50.5522
 11
51.3145
 21
-50.7226
  0
LINE
  8
0
 10
51.3145
 20
-50.7226
 11
51.2135
 21
-50.8817
  0
LINE
  8
0
 10
51.2135
 20
-50.8817
 11
51.0934
 21
-51.0268
  0
LINE
  8
0
 10
51.0934
 20
-51.0268
 11
50.9561
 21
-51.1558
  0
LINE
  8
0
 10
50.9561
 20
-51.1558
 11
50.8037
 21
-51.2665
  0
LINE
  8
0
 10
50.8037
 20
-51.2665
 11
50.6387
 21
-51.3572
  0
LINE
  8
0
 10
50.6387
 20
-51.3572
 11
50.4635
 21
-51.4266
  0
LINE
  8
0
 10
50.4635
 20
-51.4266
 11
50.2811
 21
-51.4734
  0
LINE
  8
0
 10
50.2811
 20
-51.4734
 11
50.0942
 21
-51.497
  0
LINE
  8
0
 10
50.0942
 20
-51.497
 11
49.9058
 21
-51.497
  0
LINE
  8
0
 10
-106.226
 20
-61.996
 11
-106.475
 21
-61.9646
  0
LINE
  8
0
 10
-106.475
 20
-61.9646
 11
-106.718
 21
-61.9021
  0
LINE
  8
0
 10
-106.718
 20
-61.9021
 11
-106.952
 21
-61.8096
  0
LINE
  8
0
 10
-106.952
 20
-61.8096
 11
-107.172
 21
-61.6886
  0
LINE
  8
0
 10
-107.172
 20
-61.6886
 11
-107.375
 21
-61.541
  0
LINE
  8
0
 10
-107.375
 20
-61.541
 11
-107.558
 21
-61.3691
  0
LINE
  8
0
 10
-107.558
 20
-61.3691
 11
-107.718
 21
-61.1756
  0
LINE
  8
0
 10
-107.718
 20
-61.1756
 11
-107.853
 21
-60.9635
  0
LINE
  8
0
 10
-107.853
 20
-60.9635
 11
-107.96
 21
-60.7362
  0
LINE
  8
0
 10
-107.96
 20
-60.7362
 11
-108.037
 21
-60.4974
  0
LINE
  8
0
 10
-108.037
 20
-60.4974
 11
-108.084
 21
-60.2507
  0
LINE
  8
0
 10
-108.084
 20
-60.2507
 11
-108.1
 21
-60
  0
LINE
  8
0
 10
-108.1
 20
-60
 11
-108.084
 21
-59.7493
  0
LINE
  8
0
 10
-108.084
 20
-59.7493
 11
-108.037
 21
-59.5026
  0
LINE
  8
0
 10
-108.037
 20
-59.5026
 11
-107.96
 21
-59.2637
  0
LINE
  8
0
 10
-107.96
 20
-59.2637
 11
-107.853
 21
-59.0365
  0
LINE
  8
0
 10
-107.853
 20
-59.0365
 11
-107.718
 21
-58.8244
  0
LINE
  8
0
 10
-107.718
 20
-58.8244
 11
-107.558
 21
-58.6309
  0
LINE
  8
0
 10
-107.558
 20
-58.6309
 11
-107.375
 21
-58.459
  0
LINE
  8
0
 10
-107.375
 20
-58.459
 11
-107.172
 21
-58.3113
  0
LINE
  8
0
 10
-107.172
 20
-58.3113
 11
-106.952
 21
-58.1903
  0
LINE
  8
0
 10
-106.952
 20
-58.1903
 11
-106.718
 21
-58.0979
  0
LINE
  8
0
 10
-106.718
 20
-58.0979
 11
-106.475
 21
-58.0354
  0
LINE
  8
0
 10
-106.475
 20
-58.0354
 11
-106.226
 21
-58.0039
  0
LINE
  8
0
 10
-106.226
 20
-58.0039
 11
-105.974
 21
-58.0039
  0
LINE
  8
0
 10
-105.974
 20
-58.0039
 11
-105.725
 21
-58.0354
  0
LINE
  8
0
 10
-105.725
 20
-58.0354
 11
-105.482
 21
-58.0979
  0
LINE
  8
0
 10
-105.482
 20
-58.0979
 11
-105.248
 21
-58.1903
  0
LINE
  8
0
 10
-105.248
 20
-58.1903
 11
-105.028
 21
-58.3113
  0
LINE
  8
0
 10
-105.028
 20
-58.3113
 11
-104.825
 21
-58.459
  0
LINE
  8
0
 10
-104.825
 20
-58.459
 11
-104.642
 21
-58.6309
  0
LINE
  8
0
 10
-104.642
 20
-58.6309
 11
-104.482
 21
-58.8244
  0
LINE
  8
0
 10
-104.482
 20
-58.8244
 11
-104.347
 21
-59.0365
  0
LINE
  8
0
 10
-104.347
 20
-59.0365
 11
-104.24
 21
-59.2637
  0
LINE
  8
0
 10
-104.24
 20
-59.2637
 11
-104.163
 21
-59.5026
  0
LINE
  8
0
 10
-104.163
 20
-59.5026
 11
-104.116
 21
-59.7493
  0
LINE
  8
0
 10
-104.116
 20
-59.7493
 11
-104.1
 21
-60
  0
LINE
  8
0
 10
-104.1
 20
-60
 11
-104.116
 21
-60.2507
  0
LINE
  8
0
 10
-104.116
 20
-60.2507
 11
-104.163
 21
-60.4974
  0
LINE
  8
0
 10
-104.163
 20
-60.4974
 11
-104.24
 21
-60.7362
  0
LINE
  8
0
 10
-104.24
 20
-60.7362
 11
-104.347
 21
-60.9635
  0
LINE
  8
0
 10
-104.347
 20
-60.9635
 11
-104.482
 21
-61.1756
  0
LINE
  8
0
 10
-104.482
 20
-61.1756
 11
-104.642
 21
-61.3691
  0
LINE
  8
0
 10
-104.642
 20
-61.3691
 11
-104.825
 21
-61.541
  0
LINE
  8
0
 10
-104.825
 20
-61.541
 11
-105.028
 21
-61.6886
  0
LINE
  8
0
 10
-105.028
 20
-61.6886
 11
-105.248
 21
-61.8096
  0
LINE
  8
0
 10
-105.248
 20
-61.8096
 11
-105.482
 21
-61.9021
  0
LINE
  8
0
 10
-105.482
 20
-61.9021
 11
-105.725
 21
-61.9646
  0
LINE
  8
0
 10
-105.725
 20
-61.9646
 11
-105.974
 21
-61.996
  0
LINE
  8
0
 10
-105.974
 20
-61.996
 11
-106.226
 21
-61.996
  0
LINE
  8
0
 10
105.974
 20
-61.996
 11
105.725
 21
-61.9646
  0
LINE
  8
0
 10
105.725
 20
-61.9646
 11
105.482
 21
-61.9021
  0
LINE
  8
0
 10
105.482
 20
-61.9021
 11
105.248
 21
-61.8096
  0
LINE
  8
0
 10
105.248
 20
-61.8096
 11
105.028
 21
-61.6886
  0
LINE
  8
0
 10
105.028
 20
-61.6886
 11
104.825
 21
-61.541
  0
LINE
  8
0
 10
104.825
 20
-61.541
 11
104.642
 21
-61.3691
  0
LINE
  8
0
 10
104.642
 20
-61.3691
 11
104.482
 21
-61.1756
  0
LINE
  8
0
 10
104.482
 20
-61.1756
 11
104.347
 21
-60.9635
  0
LINE
  8
0
 10
104.347
 20
-60.9635
 11
104.24
 21
-60.7362
  0
LINE
  8
0
 10
104.24
 20
-60.7362
 11
104.163
 21
-60.4974
  0
LINE
  8
0
 10
104.163
 20
-60.4974
 11
104.116
 21
-60.2507
  0
LINE
  8
0
 10
104.116
 20
-60.2507
 11
104.1
 21
-60
  0
LINE
  8
0
 10
104.1
 20
-60
 11
104.116
 21
-59.7493
  0
LINE
  8
0
 10
104.116
 20
-59.7493
 11
104.163
 21
-59.5026
  0
LINE
  8
0
 10
104.163
 20
-59.5026
 11
104.24
 21
-59.2637
  0
LINE
  8
0
 10
104.24
 20
-59.2637
 11
104.347
 21
-59.0365
  0
LINE
  8
0
 10
104.347
 20
-59.0365
 11
104.482
 21
-58.8244
  0
LINE
  8
0
 10
104.482
 20
-58.8244
 11
104.642
 21
-58.6309
  0
LINE
  8
0
 10
104.642
 20
-58.6309
 11
104.825
 21
-58.459
  0
LINE
  8
0
 10
104.825
 20
-58.459
 11
105.028
 21
-58.3113
  0
LINE
  8
0
 10
105.028
 20
-58.3113
 11
105.248
 21
-58.1903
  0
LINE
  8
0
 10
105.248
 20
-58.1903
 11
105.482
 21
-58.0979
  0
LINE
  8
0
 10
105.482
 20
-58.0979
 11
105.725
 21
-58.0354
  0
LINE
  8
0
 10
105.725
 20
-58.0354
 11
105.974
 21
-58.0039
  0
LINE
  8
0
 10
105.974
 20
-58.0039
 11
106.226
 21
-58.0039
  0
LINE
  8
0
 10
106.226
 20
-58.0039
 11
106.475
 21
-58.0354
  0
LINE
  8
0
 10
106.475
 20
-58.0354
 11
106.718
 21
-58.0979
  0
LINE
  8
0
 10
106.718
 20
-58.0979
 11
106.952
 21
-58.1903
  0
LINE
  8
0
 10
106.952
 20
-58.1903
 11
107.172
 21
-58.3113
  0
LINE
  8
0
 10
107.172
 20
-58.3113
 11
107.375
 21
-58.459
  0
LINE
  8
0
 10
107.375
 20
-58.459
 11
107.558
 21
-58.6309
  0
LINE
  8
0
 10
107.558
 20
-58.6309
 11
107.718
 21
-58.8244
  0
LINE
  8
0
 10
107.718
 20
-58.8244
 11
107.853
 21
-59.0365
  0
LINE
  8
0
 10
107.853
 20
-59.0365
 11
107.96
 21
-59.2637
  0
LINE
  8
0
 10
107.96
 20
-59.2637
 11
108.037
 21
-59.5026
  0
LINE
  8
0
 10
108.037
 20
-59.5026
 11
108.084
 21
-59.7493
  0
LINE
  8
0
 10
108.084
 20
-59.7493
 11
108.1
 21
-60
  0
LINE
  8
0
 10
108.1
 20
-60
 11
108.084
 21
-60.2507
  0
LINE
  8
0
 10
108.084
 20
-60.2507
 11
108.037
 21
-60.4974
  0
LINE
  8
0
 10
108.037
 20
-60.4974
 11
107.96
 21
-60.7362
  0
LINE
  8
0
 10
107.96
 20
-60.7362
 11
107.853
 21
-60.9635
  0
LINE
  8
0
 10
107.853
 20
-60.9635
 11
107.718
 21
-61.1756
  0
LINE
  8
0
 10
107.718
 20
-61.1756
 11
107.558
 21
-61.3691
  0
LINE
  8
0
 10
107.558
 20
-61.3691
 11
107.375
 21
-61.541
  0
LINE
  8
0
 10
107.375
 20
-61.541
 11
107.172
 21
-61.6886
  0
LINE
  8
0
 10
107.172
 20
-61.6886
 11
106.952
 21
-61.8096
  0
LINE
  8
0
 10
106.952
 20
-61.8096
 11
106.718
 21
-61.9021
  0
LINE
  8
0
 10
106.718
 20
-61.9021
 11
106.475
 21
-61.9646
  0
LINE
  8
0
 10
106.475
 20
-61.9646
 11
106.226
 21
-61.996
  0
LINE
  8
0
 10
106.226
 20
-61.996
 11
105.974
 21
-61.996
  0
LINE
  8
0
 10
-61.1256
 20
-63.996
 11
-61.3748
 21
-63.9646
  0
LINE
  8
0
 10
-61.3748
 20
-63.9646
 11
-61.618
 21
-63.9021
  0
LINE
  8
0
 10
-61.618
 20
-63.9021
 11
-61.8516
 21
-63.8096
  0
LINE
  8
0
 10
-61.8516
 20
-63.8096
 11
-62.0717
 21
-63.6886
  0
LINE
  8
0
 10
-62.0717
 20
-63.6886
 11
-62.2749
 21
-63.541
  0
LINE
  8
0
 10
-62.2749
 20
-63.541
 11
-62.4579
 21
-63.3691
  0
LINE
  8
0
 10
-62.4579
 20
-63.3691
 11
-62.618
 21
-63.1756
  0
LINE
  8
0
 10
-62.618
 20
-63.1756
 11
-62.7526
 21
-62.9635
  0
LINE
  8
0
 10
-62.7526
 20
-62.9635
 11
-62.8596
 21
-62.7362
  0
LINE
  8
0
 10
-62.8596
 20
-62.7362
 11
-62.9372
 21
-62.4974
  0
LINE
  8
0
 10
-62.9372
 20
-62.4974
 11
-62.9842
 21
-62.2507
  0
LINE
  8
0
 10
-62.9842
 20
-62.2507
 11
-63
 21
-62
  0
LINE
  8
0
 10
-63
 20
-62
 11
-62.9842
 21
-61.7493
  0
LINE
  8
0
 10
-62.9842
 20
-61.7493
 11
-62.9372
 21
-61.5026
  0
LINE
  8
0
 10
-62.9372
 20
-61.5026
 11
-62.8596
 21
-61.2637
  0
LINE
  8
0
 10
-62.8596
 20
-61.2637
 11
-62.7526
 21
-61.0365
  0
LINE
  8
0
 10
-62.7526
 20
-61.0365
 11
-62.618
 21
-60.8244
  0
LINE
  8
0
 10
-62.618
 20
-60.8244
 11
-62.4579
 21
-60.6309
  0
LINE
  8
0
 10
-62.4579
 20
-60.6309
 11
-62.2749
 21
-60.459
  0
LINE
  8
0
 10
-62.2749
 20
-60.459
 11
-62.0717
 21
-60.3113
  0
LINE
  8
0
 10
-62.0717
 20
-60.3113
 11
-61.8516
 21
-60.1903
  0
LINE
  8
0
 10
-61.8516
 20
-60.1903
 11
-61.618
 21
-60.0979
  0
LINE
  8
0
 10
-61.618
 20
-60.0979
 11
-61.3748
 21
-60.0354
  0
LINE
  8
0
 10
-61.3748
 20
-60.0354
 11
-61.1256
 21
-60.0039
  0
LINE
  8
0
 10
-61.1256
 20
-60.0039
 11
-60.8744
 21
-60.0039
  0
LINE
  8
0
 10
-60.8744
 20
-60.0039
 11
-60.6252
 21
-60.0354
  0
LINE
  8
0
 10
-60.6252
 20
-60.0354
 11
-60.382
 21
-60.0979
  0
LINE
  8
0
 10
-60.382
 20
-60.0979
 11
-60.1485
 21
-60.1903
  0
LINE
  8
0
 10
-60.1485
 20
-60.1903
 11
-59.9284
 21
-60.3113
  0
LINE
  8
0
 10
-59.9284
 20
-60.3113
 11
-59.7252
 21
-60.459
  0
LINE
  8
0
 10
-59.7252
 20
-60.459
 11
-59.5421
 21
-60.6309
  0
LINE
  8
0
 10
-59.5421
 20
-60.6309
 11
-59.382
 21
-60.8244
  0
LINE
  8
0
 10
-59.382
 20
-60.8244
 11
-59.2474
 21
-61.0365
  0
LINE
  8
0
 10
-59.2474
 20
-61.0365
 11
-59.1405
 21
-61.2637
  0
LINE
  8
0
 10
-59.1405
 20
-61.2637
 11
-59.0628
 21
-61.5026
  0
LINE
  8
0
 10
-59.0628
 20
-61.5026
 11
-59.0158
 21
-61.7493
  0
LINE
  8
0
 10
-59.0158
 20
-61.7493
 11
-59
 21
-62
  0
LINE
  8
0
 10
-59
 20
-62
 11
-59.0158
 21
-62.2507
  0
LINE
  8
0
 10
-59.0158
 20
-62.2507
 11
-59.0628
 21
-62.4974
  0
LINE
  8
0
 10
-59.0628
 20
-62.4974
 11
-59.1405
 21
-62.7362
  0
LINE
  8
0
 10
-59.1405
 20
-62.7362
 11
-59.2474
 21
-62.9635
  0
LINE
  8
0
 10
-59.2474
 20
-62.9635
 11
-59.382
 21
-63.1756
  0
LINE
  8
0
 10
-59.382
 20
-63.1756
 11
-59.5421
 21
-63.3691
  0
LINE
  8
0
 10
-59.5421
 20
-63.3691
 11
-59.7252
 21
-63.541
  0
LINE
  8
0
 10
-59.7252
 20
-63.541
 11
-59.9284
 21
-63.6886
  0
LINE
  8
0
 10
-59.9284
 20
-63.6886
 11
-60.1485
 21
-63.8096
  0
LINE
  8
0
 10
-60.1485
 20
-63.8096
 11
-60.382
 21
-63.9021
  0
LINE
  8
0
 10
-60.382
 20
-63.9021
 11
-60.6252
 21
-63.9646
  0
LINE
  8
0
 10
-60.6252
 20
-63.9646
 11
-60.8744
 21
-63.996
  0
LINE
  8
0
 10
-60.8744
 20
-63.996
 11
-61.1256
 21
-63.996
  0
LINE
  8
0
 10
-79.1256
 20
-63.996
 11
-79.3748
 21
-63.9646
  0
LINE
  8
0
 10
-79.3748
 20
-63.9646
 11
-79.618
 21
-63.9021
  0
LINE
  8
0
 10
-79.618
 20
-63.9021
 11
-79.8515
 21
-63.8096
  0
LINE
  8
0
 10
-79.8515
 20
-63.8096
 11
-80.0716
 21
-63.6886
  0
LINE
  8
0
 10
-80.0716
 20
-63.6886
 11
-80.2748
 21
-63.541
  0
LINE
  8
0
 10
-80.2748
 20
-63.541
 11
-80.4579
 21
-63.3691
  0
LINE
  8
0
 10
-80.4579
 20
-63.3691
 11
-80.618
 21
-63.1756
  0
LINE
  8
0
 10
-80.618
 20
-63.1756
 11
-80.7526
 21
-62.9635
  0
LINE
  8
0
 10
-80.7526
 20
-62.9635
 11
-80.8595
 21
-62.7362
  0
LINE
  8
0
 10
-80.8595
 20
-62.7362
 11
-80.9372
 21
-62.4974
  0
LINE
  8
0
 10
-80.9372
 20
-62.4974
 11
-80.9842
 21
-62.2507
  0
LINE
  8
0
 10
-80.9842
 20
-62.2507
 11
-81
 21
-62
  0
LINE
  8
0
 10
-81
 20
-62
 11
-80.9842
 21
-61.7493
  0
LINE
  8
0
 10
-80.9842
 20
-61.7493
 11
-80.9372
 21
-61.5026
  0
LINE
  8
0
 10
-80.9372
 20
-61.5026
 11
-80.8595
 21
-61.2637
  0
LINE
  8
0
 10
-80.8595
 20
-61.2637
 11
-80.7526
 21
-61.0365
  0
LINE
  8
0
 10
-80.7526
 20
-61.0365
 11
-80.618
 21
-60.8244
  0
LINE
  8
0
 10
-80.618
 20
-60.8244
 11
-80.4579
 21
-60.6309
  0
LINE
  8
0
 10
-80.4579
 20
-60.6309
 11
-80.2748
 21
-60.459
  0
LINE
  8
0
 10
-80.2748
 20
-60.459
 11
-80.0716
 21
-60.3113
  0
LINE
  8
0
 10
-80.0716
 20
-60.3113
 11
-79.8515
 21
-60.1903
  0
LINE
  8
0
 10
-79.8515
 20
-60.1903
 11
-79.618
 21
-60.0979
  0
LINE
  8
0
 10
-79.618
 20
-60.0979
 11
-79.3748
 21
-60.0354
  0
LINE
  8
0
 10
-79.3748
 20
-60.0354
 11
-79.1256
 21
-60.0039
  0
LINE
  8
0
 10
-79.1256
 20
-60.0039
 11
-78.8744
 21
-60.0039
  0
LINE
  8
0
 10
-78.8744
 20
-60.0039
 11
-78.6252
 21
-60.0354
  0
LINE
  8
0
 10
-78.6252
 20
-60.0354
 11
-78.382
 21
-60.0979
  0
LINE
  8
0
 10
-78.382
 20
-60.0979
 11
-78.1484
 21
-60.1903
  0
LINE
  8
0
 10
-78.1484
 20
-60.1903
 11
-77.9283
 21
-60.3113
  0
LINE
  8
0
 10
-77.9283
 20
-60.3113
 11
-77.7251
 21
-60.459
  0
LINE
  8
0
 10
-77.7251
 20
-60.459
 11
-77.5421
 21
-60.6309
  0
LINE
  8
0
 10
-77.5421
 20
-60.6309
 11
-77.382
 21
-60.8244
  0
LINE
  8
0
 10
-77.382
 20
-60.8244
 11
-77.2474
 21
-61.0365
  0
LINE
  8
0
 10
-77.2474
 20
-61.0365
 11
-77.1404
 21
-61.2637
  0
LINE
  8
0
 10
-77.1404
 20
-61.2637
 11
-77.0628
 21
-61.5026
  0
LINE
  8
0
 10
-77.0628
 20
-61.5026
 11
-77.0158
 21
-61.7493
  0
LINE
  8
0
 10
-77.0158
 20
-61.7493
 11
-77
 21
-62
  0
LINE
  8
0
 10
-77
 20
-62
 11
-77.0158
 21
-62.2507
  0
LINE
  8
0
 10
-77.0158
 20
-62.2507
 11
-77.0628
 21
-62.4974
  0
LINE
  8
0
 10
-77.0628
 20
-62.4974
 11
-77.1404
 21
-62.7362
  0
LINE
  8
0
 10
-77.1404
 20
-62.7362
 11
-77.2474
 21
-62.9635
  0
LINE
  8
0
 10
-77.2474
 20
-62.9635
 11
-77.382
 21
-63.1756
  0
LINE
  8
0
 10
-77.382
 20
-63.1756
 11
-77.5421
 21
-63.3691
  0
LINE
  8
0
 10
-77.5421
 20
-63.3691
 11
-77.7251
 21
-63.541
  0
LINE
  8
0
 10
-77.7251
 20
-63.541
 11
-77.9283
 21
-63.6886
  0
LINE
  8
0
 10
-77.9283
 20
-63.6886
 11
-78.1484
 21
-63.8096
  0
LINE
  8
0
 10
-78.1484
 20
-63.8096
 11
-78.382
 21
-63.9021
  0
LINE
  8
0
 10
-78.382
 20
-63.9021
 11
-78.6252
 21
-63.9646
  0
LINE
  8
0
 10
-78.6252
 20
-63.9646
 11
-78.8744
 21
-63.996
  0
LINE
  8
0
 10
-78.8744
 20
-63.996
 11
-79.1256
 21
-63.996
  0
LINE
  8
0
 10
4.90581
 20
-66.497
 11
4.71892
 21
-66.4734
  0
LINE
  8
0
 10
4.71892
 20
-66.4734
 11
4.53647
 21
-66.4266
  0
LINE
  8
0
 10
4.53647
 20
-66.4266
 11
4.36133
 21
-66.3572
  0
LINE
  8
0
 10
4.36133
 20
-66.3572
 11
4.19626
 21
-66.2665
  0
LINE
  8
0
 10
4.19626
 20
-66.2665
 11
4.04385
 21
-66.1558
  0
LINE
  8
0
 10
4.04385
 20
-66.1558
 11
3.90654
 21
-66.0268
  0
LINE
  8
0
 10
3.90654
 20
-66.0268
 11
3.78647
 21
-65.8817
  0
LINE
  8
0
 10
3.78647
 20
-65.8817
 11
3.68553
 21
-65.7226
  0
LINE
  8
0
 10
3.68553
 20
-65.7226
 11
3.60533
 21
-65.5522
  0
LINE
  8
0
 10
3.60533
 20
-65.5522
 11
3.54712
 21
-65.373
  0
LINE
  8
0
 10
3.54712
 20
-65.373
 11
3.51183
 21
-65.188
  0
LINE
  8
0
 10
3.51183
 20
-65.188
 11
3.5
 21
-65
  0
LINE
  8
0
 10
3.5
 20
-65
 11
3.51183
 21
-64.812
  0
LINE
  8
0
 10
3.51183
 20
-64.812
 11
3.54712
 21
-64.627
  0
LINE
  8
0
 10
3.54712
 20
-64.627
 11
3.60533
 21
-64.4478
  0
LINE
  8
0
 10
3.60533
 20
-64.4478
 11
3.68553
 21
-64.2774
  0
LINE
  8
0
 10
3.68553
 20
-64.2774
 11
3.78647
 21
-64.1183
  0
LINE
  8
0
 10
3.78647
 20
-64.1183
 11
3.90654
 21
-63.9732
  0
LINE
  8
0
 10
3.90654
 20
-63.9732
 11
4.04385
 21
-63.8442
  0
LINE
  8
0
 10
4.04385
 20
-63.8442
 11
4.19626
 21
-63.7335
  0
LINE
  8
0
 10
4.19626
 20
-63.7335
 11
4.36133
 21
-63.6427
  0
LINE
  8
0
 10
4.36133
 20
-63.6427
 11
4.53647
 21
-63.5734
  0
LINE
  8
0
 10
4.53647
 20
-63.5734
 11
4.71892
 21
-63.5266
  0
LINE
  8
0
 10
4.71892
 20
-63.5266
 11
4.90581
 21
-63.5029
  0
LINE
  8
0
 10
4.90581
 20
-63.5029
 11
5.09418
 21
-63.5029
  0
LINE
  8
0
 10
5.09418
 20
-63.5029
 11
5.28107
 21
-63.5266
  0
LINE
  8
0
 10
5.28107
 20
-63.5266
 11
5.46352
 21
-63.5734
  0
LINE
  8
0
 10
5.46352
 20
-63.5734
 11
5.63866
 21
-63.6427
  0
LINE
  8
0
 10
5.63866
 20
-63.6427
 11
5.80373
 21
-63.7335
  0
LINE
  8
0
 10
5.80373
 20
-63.7335
 11
5.95613
 21
-63.8442
  0
LINE
  8
0
 10
5.95613
 20
-63.8442
 11
6.09344
 21
-63.9732
  0
LINE
  8
0
 10
6.09344
 20
-63.9732
 11
6.21352
 21
-64.1183
  0
LINE
  8
0
 10
6.21352
 20
-64.1183
 11
6.31445
 21
-64.2774
  0
LINE
  8
0
 10
6.31445
 20
-64.2774
 11
6.39465
 21
-64.4478
  0
LINE
  8
0
 10
6.39465
 20
-64.4478
 11
6.45287
 21
-64.627
  0
LINE
  8
0
 10
6.45287
 20
-64.627
 11
6.48816
 21
-64.812
  0
LINE
  8
0
 10
6.48816
 20
-64.812
 11
6.5
 21
-65
  0
LINE
  8
0
 10
6.5
 20
-65
 11
6.48816
 21
-65.188
  0
LINE
  8
0
 10
6.48816
 20
-65.188
 11
6.45287
 21
-65.373
  0
LINE
  8
0
 10
6.45287
 20
-65.373
 11
6.39465
 21
-65.5522
  0
LINE
  8
0
 10
6.39465
 20
-65.5522
 11
6.31445
 21
-65.7226
  0
LINE
  8
0
 10
6.31445
 20
-65.7226
 11
6.21352
 21
-65.8817
  0
LINE
  8
0
 10
6.21352
 20
-65.8817
 11
6.09344
 21
-66.0268
  0
LINE
  8
0
 10
6.09344
 20
-66.0268
 11
5.95613
 21
-66.1558
  0
LINE
  8
0
 10
5.95613
 20
-66.1558
 11
5.80373
 21
-66.2665
  0
LINE
  8
0
 10
5.80373
 20
-66.2665
 11
5.63866
 21
-66.3572
  0
LINE
  8
0
 10
5.63866
 20
-66.3572
 11
5.46352
 21
-66.4266
  0
LINE
  8
0
 10
5.46352
 20
-66.4266
 11
5.28107
 21
-66.4734
  0
LINE
  8
0
 10
5.28107
 20
-66.4734
 11
5.09418
 21
-66.497
  0
LINE
  8
0
 10
5.09418
 20
-66.497
 11
4.90581
 21
-66.497
  0
ENDSEC
  0
SECTION
  2
OBJECTS
  0
DICTIONARY
  0
ENDSEC
  0
EOF
