  0
SECTION
  2
BLOCKS
  0
ENDSEC
  0
SECTION
  2
ENTITIES
  0
LINE
  8
0
 10
-115
 11
-115
 20
-70
 21
70
  0
LINE
  8
0
 10
-115
 11
115
 20
70
 21
70
  0
LINE
  8
0
 10
115
 11
115
 20
70
 21
-70
  0
LINE
  8
0
 10
115
 11
-115
 20
-70
 21
-70
  0
LINE
  8
0
 10
-108.1
 11
-108.084
 20
-60
 21
-59.749
  0
LINE
  8
0
 10
-108.084
 11
-108.037
 20
-59.749
 21
-59.503
  0
LINE
  8
0
 10
-108.037
 11
-107.96
 20
-59.503
 21
-59.264
  0
LINE
  8
0
 10
-107.96
 11
-107.853
 20
-59.264
 21
-59.036
  0
LINE
  8
0
 10
-107.853
 11
-107.718
 20
-59.036
 21
-58.824
  0
LINE
  8
0
 10
-107.718
 11
-107.558
 20
-58.824
 21
-58.631
  0
LINE
  8
0
 10
-107.558
 11
-107.375
 20
-58.631
 21
-58.459
  0
LINE
  8
0
 10
-107.375
 11
-107.172
 20
-58.459
 21
-58.311
  0
LINE
  8
0
 10
-107.172
 11
-106.952
 20
-58.311
 21
-58.19
  0
LINE
  8
0
 10
-106.952
 11
-106.718
 20
-58.19
 21
-58.098
  0
LINE
  8
0
 10
-106.718
 11
-106.475
 20
-58.098
 21
-58.035
  0
LINE
  8
0
 10
-106.475
 11
-106.226
 20
-58.035
 21
-58.004
  0
LINE
  8
0
 10
-106.226
 11
-105.974
 20
-58.004
 21
-58.004
  0
LINE
  8
0
 10
-105.974
 11
-105.725
 20
-58.004
 21
-58.035
  0
LINE
  8
0
 10
-105.725
 11
-105.482
 20
-58.035
 21
-58.098
  0
LINE
  8
0
 10
-105.482
 11
-105.248
 20
-58.098
 21
-58.19
  0
LINE
  8
0
 10
-105.248
 11
-105.028
 20
-58.19
 21
-58.311
  0
LINE
  8
0
 10
-105.028
 11
-104.825
 20
-58.311
 21
-58.459
  0
LINE
  8
0
 10
-104.825
 11
-104.642
 20
-58.459
 21
-58.631
  0
LINE
  8
0
 10
-104.642
 11
-104.482
 20
-58.631
 21
-58.824
  0
LINE
  8
0
 10
-104.482
 11
-104.347
 20
-58.824
 21
-59.036
  0
LINE
  8
0
 10
-104.347
 11
-104.24
 20
-59.036
 21
-59.264
  0
LINE
  8
0
 10
-104.24
 11
-104.163
 20
-59.264
 21
-59.503
  0
LINE
  8
0
 10
-104.163
 11
-104.116
 20
-59.503
 21
-59.749
  0
LINE
  8
0
 10
-104.116
 11
-104.1
 20
-59.749
 21
-60
  0
LINE
  8
0
 10
-104.1
 11
-104.116
 20
-60
 21
-60.251
  0
LINE
  8
0
 10
-104.116
 11
-104.163
 20
-60.251
 21
-60.497
  0
LINE
  8
0
 10
-104.163
 11
-104.24
 20
-60.497
 21
-60.736
  0
LINE
  8
0
 10
-104.24
 11
-104.347
 20
-60.736
 21
-60.964
  0
LINE
  8
0
 10
-104.347
 11
-104.482
 20
-60.964
 21
-61.176
  0
LINE
  8
0
 10
-104.482
 11
-104.642
 20
-61.176
 21
-61.369
  0
LINE
  8
0
 10
-104.642
 11
-104.825
 20
-61.369
 21
-61.541
  0
LINE
  8
0
 10
-104.825
 11
-105.028
 20
-61.541
 21
-61.689
  0
LINE
  8
0
 10
-105.028
 11
-105.248
 20
-61.689
 21
-61.81
  0
LINE
  8
0
 10
-105.248
 11
-105.482
 20
-61.81
 21
-61.902
  0
LINE
  8
0
 10
-105.482
 11
-105.725
 20
-61.902
 21
-61.965
  0
LINE
  8
0
 10
-105.725
 11
-105.974
 20
-61.965
 21
-61.996
  0
LINE
  8
0
 10
-105.974
 11
-106.226
 20
-61.996
 21
-61.996
  0
LINE
  8
0
 10
-106.226
 11
-106.475
 20
-61.996
 21
-61.965
  0
LINE
  8
0
 10
-106.475
 11
-106.718
 20
-61.965
 21
-61.902
  0
LINE
  8
0
 10
-106.718
 11
-106.952
 20
-61.902
 21
-61.81
  0
LINE
  8
0
 10
-106.952
 11
-107.172
 20
-61.81
 21
-61.689
  0
LINE
  8
0
 10
-107.172
 11
-107.375
 20
-61.689
 21
-61.541
  0
LINE
  8
0
 10
-107.375
 11
-107.558
 20
-61.541
 21
-61.369
  0
LINE
  8
0
 10
-107.558
 11
-107.718
 20
-61.369
 21
-61.176
  0
LINE
  8
0
 10
-107.718
 11
-107.853
 20
-61.176
 21
-60.964
  0
LINE
  8
0
 10
-107.853
 11
-107.96
 20
-60.964
 21
-60.736
  0
LINE
  8
0
 10
-107.96
 11
-108.037
 20
-60.736
 21
-60.497
  0
LINE
  8
0
 10
-108.037
 11
-108.084
 20
-60.497
 21
-60.251
  0
LINE
  8
0
 10
-108.084
 11
-108.1
 20
-60.251
 21
-60
  0
LINE
  8
0
 10
-108.1
 11
-108.084
 20
60
 21
60.251
  0
LINE
  8
0
 10
-108.084
 11
-108.037
 20
60.251
 21
60.497
  0
LINE
  8
0
 10
-108.037
 11
-107.96
 20
60.497
 21
60.736
  0
LINE
  8
0
 10
-107.96
 11
-107.853
 20
60.736
 21
60.964
  0
LINE
  8
0
 10
-107.853
 11
-107.718
 20
60.964
 21
61.176
  0
LINE
  8
0
 10
-107.718
 11
-107.558
 20
61.176
 21
61.369
  0
LINE
  8
0
 10
-107.558
 11
-107.375
 20
61.369
 21
61.541
  0
LINE
  8
0
 10
-107.375
 11
-107.172
 20
61.541
 21
61.689
  0
LINE
  8
0
 10
-107.172
 11
-106.952
 20
61.689
 21
61.81
  0
LINE
  8
0
 10
-106.952
 11
-106.718
 20
61.81
 21
61.902
  0
LINE
  8
0
 10
-106.718
 11
-106.475
 20
61.902
 21
61.965
  0
LINE
  8
0
 10
-106.475
 11
-106.226
 20
61.965
 21
61.996
  0
LINE
  8
0
 10
-106.226
 11
-105.974
 20
61.996
 21
61.996
  0
LINE
  8
0
 10
-105.974
 11
-105.725
 20
61.996
 21
61.965
  0
LINE
  8
0
 10
-105.725
 11
-105.482
 20
61.965
 21
61.902
  0
LINE
  8
0
 10
-105.482
 11
-105.248
 20
61.902
 21
61.81
  0
LINE
  8
0
 10
-105.248
 11
-105.028
 20
61.81
 21
61.689
  0
LINE
  8
0
 10
-105.028
 11
-104.825
 20
61.689
 21
61.541
  0
LINE
  8
0
 10
-104.825
 11
-104.642
 20
61.541
 21
61.369
  0
LINE
  8
0
 10
-104.642
 11
-104.482
 20
61.369
 21
61.176
  0
LINE
  8
0
 10
-104.482
 11
-104.347
 20
61.176
 21
60.964
  0
LINE
  8
0
 10
-104.347
 11
-104.24
 20
60.964
 21
60.736
  0
LINE
  8
0
 10
-104.24
 11
-104.163
 20
60.736
 21
60.497
  0
LINE
  8
0
 10
-104.163
 11
-104.116
 20
60.497
 21
60.251
  0
LINE
  8
0
 10
-104.116
 11
-104.1
 20
60.251
 21
60
  0
LINE
  8
0
 10
-104.1
 11
-104.116
 20
60
 21
59.749
  0
LINE
  8
0
 10
-104.116
 11
-104.163
 20
59.749
 21
59.503
  0
LINE
  8
0
 10
-104.163
 11
-104.24
 20
59.503
 21
59.264
  0
LINE
  8
0
 10
-104.24
 11
-104.347
 20
59.264
 21
59.036
  0
LINE
  8
0
 10
-104.347
 11
-104.482
 20
59.036
 21
58.824
  0
LINE
  8
0
 10
-104.482
 11
-104.642
 20
58.824
 21
58.631
  0
LINE
  8
0
 10
-104.642
 11
-104.825
 20
58.631
 21
58.459
  0
LINE
  8
0
 10
-104.825
 11
-105.028
 20
58.459
 21
58.311
  0
LINE
  8
0
 10
-105.028
 11
-105.248
 20
58.311
 21
58.19
  0
LINE
  8
0
 10
-105.248
 11
-105.482
 20
58.19
 21
58.098
  0
LINE
  8
0
 10
-105.482
 11
-105.725
 20
58.098
 21
58.035
  0
LINE
  8
0
 10
-105.725
 11
-105.974
 20
58.035
 21
58.004
  0
LINE
  8
0
 10
-105.974
 11
-106.226
 20
58.004
 21
58.004
  0
LINE
  8
0
 10
-106.226
 11
-106.475
 20
58.004
 21
58.035
  0
LINE
  8
0
 10
-106.475
 11
-106.718
 20
58.035
 21
58.098
  0
LINE
  8
0
 10
-106.718
 11
-106.952
 20
58.098
 21
58.19
  0
LINE
  8
0
 10
-106.952
 11
-107.172
 20
58.19
 21
58.311
  0
LINE
  8
0
 10
-107.172
 11
-107.375
 20
58.311
 21
58.459
  0
LINE
  8
0
 10
-107.375
 11
-107.558
 20
58.459
 21
58.631
  0
LINE
  8
0
 10
-107.558
 11
-107.718
 20
58.631
 21
58.824
  0
LINE
  8
0
 10
-107.718
 11
-107.853
 20
58.824
 21
59.036
  0
LINE
  8
0
 10
-107.853
 11
-107.96
 20
59.036
 21
59.264
  0
LINE
  8
0
 10
-107.96
 11
-108.037
 20
59.264
 21
59.503
  0
LINE
  8
0
 10
-108.037
 11
-108.084
 20
59.503
 21
59.749
  0
LINE
  8
0
 10
-108.084
 11
-108.1
 20
59.749
 21
60
  0
LINE
  8
0
 10
-80.5
 11
-80.488
 20
-62
 21
-61.812
  0
LINE
  8
0
 10
-80.488
 11
-80.453
 20
-61.812
 21
-61.627
  0
LINE
  8
0
 10
-80.453
 11
-80.395
 20
-61.627
 21
-61.448
  0
LINE
  8
0
 10
-80.395
 11
-80.314
 20
-61.448
 21
-61.277
  0
LINE
  8
0
 10
-80.314
 11
-80.214
 20
-61.277
 21
-61.118
  0
LINE
  8
0
 10
-80.214
 11
-80.093
 20
-61.118
 21
-60.973
  0
LINE
  8
0
 10
-80.093
 11
-79.956
 20
-60.973
 21
-60.844
  0
LINE
  8
0
 10
-79.956
 11
-79.804
 20
-60.844
 21
-60.734
  0
LINE
  8
0
 10
-79.804
 11
-79.639
 20
-60.734
 21
-60.643
  0
LINE
  8
0
 10
-79.639
 11
-79.464
 20
-60.643
 21
-60.573
  0
LINE
  8
0
 10
-79.464
 11
-79.281
 20
-60.573
 21
-60.527
  0
LINE
  8
0
 10
-79.281
 11
-79.094
 20
-60.527
 21
-60.503
  0
LINE
  8
0
 10
-79.094
 11
-78.906
 20
-60.503
 21
-60.503
  0
LINE
  8
0
 10
-78.906
 11
-78.719
 20
-60.503
 21
-60.527
  0
LINE
  8
0
 10
-78.719
 11
-78.536
 20
-60.527
 21
-60.573
  0
LINE
  8
0
 10
-78.536
 11
-78.361
 20
-60.573
 21
-60.643
  0
LINE
  8
0
 10
-78.361
 11
-78.196
 20
-60.643
 21
-60.734
  0
LINE
  8
0
 10
-78.196
 11
-78.044
 20
-60.734
 21
-60.844
  0
LINE
  8
0
 10
-78.044
 11
-77.907
 20
-60.844
 21
-60.973
  0
LINE
  8
0
 10
-77.907
 11
-77.786
 20
-60.973
 21
-61.118
  0
LINE
  8
0
 10
-77.786
 11
-77.686
 20
-61.118
 21
-61.277
  0
LINE
  8
0
 10
-77.686
 11
-77.605
 20
-61.277
 21
-61.448
  0
LINE
  8
0
 10
-77.605
 11
-77.547
 20
-61.448
 21
-61.627
  0
LINE
  8
0
 10
-77.547
 11
-77.512
 20
-61.627
 21
-61.812
  0
LINE
  8
0
 10
-77.512
 11
-77.5
 20
-61.812
 21
-62
  0
LINE
  8
0
 10
-77.5
 11
-77.512
 20
-62
 21
-62.188
  0
LINE
  8
0
 10
-77.512
 11
-77.547
 20
-62.188
 21
-62.373
  0
LINE
  8
0
 10
-77.547
 11
-77.605
 20
-62.373
 21
-62.552
  0
LINE
  8
0
 10
-77.605
 11
-77.686
 20
-62.552
 21
-62.723
  0
LINE
  8
0
 10
-77.686
 11
-77.786
 20
-62.723
 21
-62.882
  0
LINE
  8
0
 10
-77.786
 11
-77.907
 20
-62.882
 21
-63.027
  0
LINE
  8
0
 10
-77.907
 11
-78.044
 20
-63.027
 21
-63.156
  0
LINE
  8
0
 10
-78.044
 11
-78.196
 20
-63.156
 21
-63.266
  0
LINE
  8
0
 10
-78.196
 11
-78.361
 20
-63.266
 21
-63.357
  0
LINE
  8
0
 10
-78.361
 11
-78.536
 20
-63.357
 21
-63.427
  0
LINE
  8
0
 10
-78.536
 11
-78.719
 20
-63.427
 21
-63.473
  0
LINE
  8
0
 10
-78.719
 11
-78.906
 20
-63.473
 21
-63.497
  0
LINE
  8
0
 10
-78.906
 11
-79.094
 20
-63.497
 21
-63.497
  0
LINE
  8
0
 10
-79.094
 11
-79.281
 20
-63.497
 21
-63.473
  0
LINE
  8
0
 10
-79.281
 11
-79.464
 20
-63.473
 21
-63.427
  0
LINE
  8
0
 10
-79.464
 11
-79.639
 20
-63.427
 21
-63.357
  0
LINE
  8
0
 10
-79.639
 11
-79.804
 20
-63.357
 21
-63.266
  0
LINE
  8
0
 10
-79.804
 11
-79.956
 20
-63.266
 21
-63.156
  0
LINE
  8
0
 10
-79.956
 11
-80.093
 20
-63.156
 21
-63.027
  0
LINE
  8
0
 10
-80.093
 11
-80.214
 20
-63.027
 21
-62.882
  0
LINE
  8
0
 10
-80.214
 11
-80.314
 20
-62.882
 21
-62.723
  0
LINE
  8
0
 10
-80.314
 11
-80.395
 20
-62.723
 21
-62.552
  0
LINE
  8
0
 10
-80.395
 11
-80.453
 20
-62.552
 21
-62.373
  0
LINE
  8
0
 10
-80.453
 11
-80.488
 20
-62.373
 21
-62.188
  0
LINE
  8
0
 10
-80.488
 11
-80.5
 20
-62.188
 21
-62
  0
LINE
  8
0
 10
-80.5
 11
-80.488
 20
-38
 21
-37.812
  0
LINE
  8
0
 10
-80.488
 11
-80.453
 20
-37.812
 21
-37.627
  0
LINE
  8
0
 10
-80.453
 11
-80.395
 20
-37.627
 21
-37.448
  0
LINE
  8
0
 10
-80.395
 11
-80.314
 20
-37.448
 21
-37.277
  0
LINE
  8
0
 10
-80.314
 11
-80.214
 20
-37.277
 21
-37.118
  0
LINE
  8
0
 10
-80.214
 11
-80.093
 20
-37.118
 21
-36.973
  0
LINE
  8
0
 10
-80.093
 11
-79.956
 20
-36.973
 21
-36.844
  0
LINE
  8
0
 10
-79.956
 11
-79.804
 20
-36.844
 21
-36.734
  0
LINE
  8
0
 10
-79.804
 11
-79.639
 20
-36.734
 21
-36.643
  0
LINE
  8
0
 10
-79.639
 11
-79.464
 20
-36.643
 21
-36.573
  0
LINE
  8
0
 10
-79.464
 11
-79.281
 20
-36.573
 21
-36.527
  0
LINE
  8
0
 10
-79.281
 11
-79.094
 20
-36.527
 21
-36.503
  0
LINE
  8
0
 10
-79.094
 11
-78.906
 20
-36.503
 21
-36.503
  0
LINE
  8
0
 10
-78.906
 11
-78.719
 20
-36.503
 21
-36.527
  0
LINE
  8
0
 10
-78.719
 11
-78.536
 20
-36.527
 21
-36.573
  0
LINE
  8
0
 10
-78.536
 11
-78.361
 20
-36.573
 21
-36.643
  0
LINE
  8
0
 10
-78.361
 11
-78.196
 20
-36.643
 21
-36.734
  0
LINE
  8
0
 10
-78.196
 11
-78.044
 20
-36.734
 21
-36.844
  0
LINE
  8
0
 10
-78.044
 11
-77.907
 20
-36.844
 21
-36.973
  0
LINE
  8
0
 10
-77.907
 11
-77.786
 20
-36.973
 21
-37.118
  0
LINE
  8
0
 10
-77.786
 11
-77.686
 20
-37.118
 21
-37.277
  0
LINE
  8
0
 10
-77.686
 11
-77.605
 20
-37.277
 21
-37.448
  0
LINE
  8
0
 10
-77.605
 11
-77.547
 20
-37.448
 21
-37.627
  0
LINE
  8
0
 10
-77.547
 11
-77.512
 20
-37.627
 21
-37.812
  0
LINE
  8
0
 10
-77.512
 11
-77.5
 20
-37.812
 21
-38
  0
LINE
  8
0
 10
-77.5
 11
-77.512
 20
-38
 21
-38.188
  0
LINE
  8
0
 10
-77.512
 11
-77.547
 20
-38.188
 21
-38.373
  0
LINE
  8
0
 10
-77.547
 11
-77.605
 20
-38.373
 21
-38.552
  0
LINE
  8
0
 10
-77.605
 11
-77.686
 20
-38.552
 21
-38.723
  0
LINE
  8
0
 10
-77.686
 11
-77.786
 20
-38.723
 21
-38.882
  0
LINE
  8
0
 10
-77.786
 11
-77.907
 20
-38.882
 21
-39.027
  0
LINE
  8
0
 10
-77.907
 11
-78.044
 20
-39.027
 21
-39.156
  0
LINE
  8
0
 10
-78.044
 11
-78.196
 20
-39.156
 21
-39.266
  0
LINE
  8
0
 10
-78.196
 11
-78.361
 20
-39.266
 21
-39.357
  0
LINE
  8
0
 10
-78.361
 11
-78.536
 20
-39.357
 21
-39.427
  0
LINE
  8
0
 10
-78.536
 11
-78.719
 20
-39.427
 21
-39.473
  0
LINE
  8
0
 10
-78.719
 11
-78.906
 20
-39.473
 21
-39.497
  0
LINE
  8
0
 10
-78.906
 11
-79.094
 20
-39.497
 21
-39.497
  0
LINE
  8
0
 10
-79.094
 11
-79.281
 20
-39.497
 21
-39.473
  0
LINE
  8
0
 10
-79.281
 11
-79.464
 20
-39.473
 21
-39.427
  0
LINE
  8
0
 10
-79.464
 11
-79.639
 20
-39.427
 21
-39.357
  0
LINE
  8
0
 10
-79.639
 11
-79.804
 20
-39.357
 21
-39.266
  0
LINE
  8
0
 10
-79.804
 11
-79.956
 20
-39.266
 21
-39.156
  0
LINE
  8
0
 10
-79.956
 11
-80.093
 20
-39.156
 21
-39.027
  0
LINE
  8
0
 10
-80.093
 11
-80.214
 20
-39.027
 21
-38.882
  0
LINE
  8
0
 10
-80.214
 11
-80.314
 20
-38.882
 21
-38.723
  0
LINE
  8
0
 10
-80.314
 11
-80.395
 20
-38.723
 21
-38.552
  0
LINE
  8
0
 10
-80.395
 11
-80.453
 20
-38.552
 21
-38.373
  0
LINE
  8
0
 10
-80.453
 11
-80.488
 20
-38.373
 21
-38.188
  0
LINE
  8
0
 10
-80.488
 11
-80.5
 20
-38.188
 21
-38
  0
LINE
  8
0
 10
-80.5
 11
-80.488
 20
38
 21
38.188
  0
LINE
  8
0
 10
-80.488
 11
-80.453
 20
38.188
 21
38.373
  0
LINE
  8
0
 10
-80.453
 11
-80.395
 20
38.373
 21
38.552
  0
LINE
  8
0
 10
-80.395
 11
-80.314
 20
38.552
 21
38.723
  0
LINE
  8
0
 10
-80.314
 11
-80.214
 20
38.723
 21
38.882
  0
LINE
  8
0
 10
-80.214
 11
-80.093
 20
38.882
 21
39.027
  0
LINE
  8
0
 10
-80.093
 11
-79.956
 20
39.027
 21
39.156
  0
LINE
  8
0
 10
-79.956
 11
-79.804
 20
39.156
 21
39.266
  0
LINE
  8
0
 10
-79.804
 11
-79.639
 20
39.266
 21
39.357
  0
LINE
  8
0
 10
-79.639
 11
-79.464
 20
39.357
 21
39.427
  0
LINE
  8
0
 10
-79.464
 11
-79.281
 20
39.427
 21
39.473
  0
LINE
  8
0
 10
-79.281
 11
-79.094
 20
39.473
 21
39.497
  0
LINE
  8
0
 10
-79.094
 11
-78.906
 20
39.497
 21
39.497
  0
LINE
  8
0
 10
-78.906
 11
-78.719
 20
39.497
 21
39.473
  0
LINE
  8
0
 10
-78.719
 11
-78.536
 20
39.473
 21
39.427
  0
LINE
  8
0
 10
-78.536
 11
-78.361
 20
39.427
 21
39.357
  0
LINE
  8
0
 10
-78.361
 11
-78.196
 20
39.357
 21
39.266
  0
LINE
  8
0
 10
-78.196
 11
-78.044
 20
39.266
 21
39.156
  0
LINE
  8
0
 10
-78.044
 11
-77.907
 20
39.156
 21
39.027
  0
LINE
  8
0
 10
-77.907
 11
-77.786
 20
39.027
 21
38.882
  0
LINE
  8
0
 10
-77.786
 11
-77.686
 20
38.882
 21
38.723
  0
LINE
  8
0
 10
-77.686
 11
-77.605
 20
38.723
 21
38.552
  0
LINE
  8
0
 10
-77.605
 11
-77.547
 20
38.552
 21
38.373
  0
LINE
  8
0
 10
-77.547
 11
-77.512
 20
38.373
 21
38.188
  0
LINE
  8
0
 10
-77.512
 11
-77.5
 20
38.188
 21
38
  0
LINE
  8
0
 10
-77.5
 11
-77.512
 20
38
 21
37.812
  0
LINE
  8
0
 10
-77.512
 11
-77.547
 20
37.812
 21
37.627
  0
LINE
  8
0
 10
-77.547
 11
-77.605
 20
37.627
 21
37.448
  0
LINE
  8
0
 10
-77.605
 11
-77.686
 20
37.448
 21
37.277
  0
LINE
  8
0
 10
-77.686
 11
-77.786
 20
37.277
 21
37.118
  0
LINE
  8
0
 10
-77.786
 11
-77.907
 20
37.118
 21
36.973
  0
LINE
  8
0
 10
-77.907
 11
-78.044
 20
36.973
 21
36.844
  0
LINE
  8
0
 10
-78.044
 11
-78.196
 20
36.844
 21
36.734
  0
LINE
  8
0
 10
-78.196
 11
-78.361
 20
36.734
 21
36.643
  0
LINE
  8
0
 10
-78.361
 11
-78.536
 20
36.643
 21
36.573
  0
LINE
  8
0
 10
-78.536
 11
-78.719
 20
36.573
 21
36.527
  0
LINE
  8
0
 10
-78.719
 11
-78.906
 20
36.527
 21
36.503
  0
LINE
  8
0
 10
-78.906
 11
-79.094
 20
36.503
 21
36.503
  0
LINE
  8
0
 10
-79.094
 11
-79.281
 20
36.503
 21
36.527
  0
LINE
  8
0
 10
-79.281
 11
-79.464
 20
36.527
 21
36.573
  0
LINE
  8
0
 10
-79.464
 11
-79.639
 20
36.573
 21
36.643
  0
LINE
  8
0
 10
-79.639
 11
-79.804
 20
36.643
 21
36.734
  0
LINE
  8
0
 10
-79.804
 11
-79.956
 20
36.734
 21
36.844
  0
LINE
  8
0
 10
-79.956
 11
-80.093
 20
36.844
 21
36.973
  0
LINE
  8
0
 10
-80.093
 11
-80.214
 20
36.973
 21
37.118
  0
LINE
  8
0
 10
-80.214
 11
-80.314
 20
37.118
 21
37.277
  0
LINE
  8
0
 10
-80.314
 11
-80.395
 20
37.277
 21
37.448
  0
LINE
  8
0
 10
-80.395
 11
-80.453
 20
37.448
 21
37.627
  0
LINE
  8
0
 10
-80.453
 11
-80.488
 20
37.627
 21
37.812
  0
LINE
  8
0
 10
-80.488
 11
-80.5
 20
37.812
 21
38
  0
LINE
  8
0
 10
-80.5
 11
-80.488
 20
62
 21
62.188
  0
LINE
  8
0
 10
-80.488
 11
-80.453
 20
62.188
 21
62.373
  0
LINE
  8
0
 10
-80.453
 11
-80.395
 20
62.373
 21
62.552
  0
LINE
  8
0
 10
-80.395
 11
-80.314
 20
62.552
 21
62.723
  0
LINE
  8
0
 10
-80.314
 11
-80.214
 20
62.723
 21
62.882
  0
LINE
  8
0
 10
-80.214
 11
-80.093
 20
62.882
 21
63.027
  0
LINE
  8
0
 10
-80.093
 11
-79.956
 20
63.027
 21
63.156
  0
LINE
  8
0
 10
-79.956
 11
-79.804
 20
63.156
 21
63.266
  0
LINE
  8
0
 10
-79.804
 11
-79.639
 20
63.266
 21
63.357
  0
LINE
  8
0
 10
-79.639
 11
-79.464
 20
63.357
 21
63.427
  0
LINE
  8
0
 10
-79.464
 11
-79.281
 20
63.427
 21
63.473
  0
LINE
  8
0
 10
-79.281
 11
-79.094
 20
63.473
 21
63.497
  0
LINE
  8
0
 10
-79.094
 11
-78.906
 20
63.497
 21
63.497
  0
LINE
  8
0
 10
-78.906
 11
-78.719
 20
63.497
 21
63.473
  0
LINE
  8
0
 10
-78.719
 11
-78.536
 20
63.473
 21
63.427
  0
LINE
  8
0
 10
-78.536
 11
-78.361
 20
63.427
 21
63.357
  0
LINE
  8
0
 10
-78.361
 11
-78.196
 20
63.357
 21
63.266
  0
LINE
  8
0
 10
-78.196
 11
-78.044
 20
63.266
 21
63.156
  0
LINE
  8
0
 10
-78.044
 11
-77.907
 20
63.156
 21
63.027
  0
LINE
  8
0
 10
-77.907
 11
-77.786
 20
63.027
 21
62.882
  0
LINE
  8
0
 10
-77.786
 11
-77.686
 20
62.882
 21
62.723
  0
LINE
  8
0
 10
-77.686
 11
-77.605
 20
62.723
 21
62.552
  0
LINE
  8
0
 10
-77.605
 11
-77.547
 20
62.552
 21
62.373
  0
LINE
  8
0
 10
-77.547
 11
-77.512
 20
62.373
 21
62.188
  0
LINE
  8
0
 10
-77.512
 11
-77.5
 20
62.188
 21
62
  0
LINE
  8
0
 10
-77.5
 11
-77.512
 20
62
 21
61.812
  0
LINE
  8
0
 10
-77.512
 11
-77.547
 20
61.812
 21
61.627
  0
LINE
  8
0
 10
-77.547
 11
-77.605
 20
61.627
 21
61.448
  0
LINE
  8
0
 10
-77.605
 11
-77.686
 20
61.448
 21
61.277
  0
LINE
  8
0
 10
-77.686
 11
-77.786
 20
61.277
 21
61.118
  0
LINE
  8
0
 10
-77.786
 11
-77.907
 20
61.118
 21
60.973
  0
LINE
  8
0
 10
-77.907
 11
-78.044
 20
60.973
 21
60.844
  0
LINE
  8
0
 10
-78.044
 11
-78.196
 20
60.844
 21
60.734
  0
LINE
  8
0
 10
-78.196
 11
-78.361
 20
60.734
 21
60.643
  0
LINE
  8
0
 10
-78.361
 11
-78.536
 20
60.643
 21
60.573
  0
LINE
  8
0
 10
-78.536
 11
-78.719
 20
60.573
 21
60.527
  0
LINE
  8
0
 10
-78.719
 11
-78.906
 20
60.527
 21
60.503
  0
LINE
  8
0
 10
-78.906
 11
-79.094
 20
60.503
 21
60.503
  0
LINE
  8
0
 10
-79.094
 11
-79.281
 20
60.503
 21
60.527
  0
LINE
  8
0
 10
-79.281
 11
-79.464
 20
60.527
 21
60.573
  0
LINE
  8
0
 10
-79.464
 11
-79.639
 20
60.573
 21
60.643
  0
LINE
  8
0
 10
-79.639
 11
-79.804
 20
60.643
 21
60.734
  0
LINE
  8
0
 10
-79.804
 11
-79.956
 20
60.734
 21
60.844
  0
LINE
  8
0
 10
-79.956
 11
-80.093
 20
60.844
 21
60.973
  0
LINE
  8
0
 10
-80.093
 11
-80.214
 20
60.973
 21
61.118
  0
LINE
  8
0
 10
-80.214
 11
-80.314
 20
61.118
 21
61.277
  0
LINE
  8
0
 10
-80.314
 11
-80.395
 20
61.277
 21
61.448
  0
LINE
  8
0
 10
-80.395
 11
-80.453
 20
61.448
 21
61.627
  0
LINE
  8
0
 10
-80.453
 11
-80.488
 20
61.627
 21
61.812
  0
LINE
  8
0
 10
-80.488
 11
-80.5
 20
61.812
 21
62
  0
LINE
  8
0
 10
-62.5
 11
-62.488
 20
-62
 21
-61.812
  0
LINE
  8
0
 10
-62.488
 11
-62.453
 20
-61.812
 21
-61.627
  0
LINE
  8
0
 10
-62.453
 11
-62.395
 20
-61.627
 21
-61.448
  0
LINE
  8
0
 10
-62.395
 11
-62.314
 20
-61.448
 21
-61.277
  0
LINE
  8
0
 10
-62.314
 11
-62.214
 20
-61.277
 21
-61.118
  0
LINE
  8
0
 10
-62.214
 11
-62.093
 20
-61.118
 21
-60.973
  0
LINE
  8
0
 10
-62.093
 11
-61.956
 20
-60.973
 21
-60.844
  0
LINE
  8
0
 10
-61.956
 11
-61.804
 20
-60.844
 21
-60.734
  0
LINE
  8
0
 10
-61.804
 11
-61.639
 20
-60.734
 21
-60.643
  0
LINE
  8
0
 10
-61.639
 11
-61.464
 20
-60.643
 21
-60.573
  0
LINE
  8
0
 10
-61.464
 11
-61.281
 20
-60.573
 21
-60.527
  0
LINE
  8
0
 10
-61.281
 11
-61.094
 20
-60.527
 21
-60.503
  0
LINE
  8
0
 10
-61.094
 11
-60.906
 20
-60.503
 21
-60.503
  0
LINE
  8
0
 10
-60.906
 11
-60.719
 20
-60.503
 21
-60.527
  0
LINE
  8
0
 10
-60.719
 11
-60.536
 20
-60.527
 21
-60.573
  0
LINE
  8
0
 10
-60.536
 11
-60.361
 20
-60.573
 21
-60.643
  0
LINE
  8
0
 10
-60.361
 11
-60.196
 20
-60.643
 21
-60.734
  0
LINE
  8
0
 10
-60.196
 11
-60.044
 20
-60.734
 21
-60.844
  0
LINE
  8
0
 10
-60.044
 11
-59.907
 20
-60.844
 21
-60.973
  0
LINE
  8
0
 10
-59.907
 11
-59.786
 20
-60.973
 21
-61.118
  0
LINE
  8
0
 10
-59.786
 11
-59.686
 20
-61.118
 21
-61.277
  0
LINE
  8
0
 10
-59.686
 11
-59.605
 20
-61.277
 21
-61.448
  0
LINE
  8
0
 10
-59.605
 11
-59.547
 20
-61.448
 21
-61.627
  0
LINE
  8
0
 10
-59.547
 11
-59.512
 20
-61.627
 21
-61.812
  0
LINE
  8
0
 10
-59.512
 11
-59.5
 20
-61.812
 21
-62
  0
LINE
  8
0
 10
-59.5
 11
-59.512
 20
-62
 21
-62.188
  0
LINE
  8
0
 10
-59.512
 11
-59.547
 20
-62.188
 21
-62.373
  0
LINE
  8
0
 10
-59.547
 11
-59.605
 20
-62.373
 21
-62.552
  0
LINE
  8
0
 10
-59.605
 11
-59.686
 20
-62.552
 21
-62.723
  0
LINE
  8
0
 10
-59.686
 11
-59.786
 20
-62.723
 21
-62.882
  0
LINE
  8
0
 10
-59.786
 11
-59.907
 20
-62.882
 21
-63.027
  0
LINE
  8
0
 10
-59.907
 11
-60.044
 20
-63.027
 21
-63.156
  0
LINE
  8
0
 10
-60.044
 11
-60.196
 20
-63.156
 21
-63.266
  0
LINE
  8
0
 10
-60.196
 11
-60.361
 20
-63.266
 21
-63.357
  0
LINE
  8
0
 10
-60.361
 11
-60.536
 20
-63.357
 21
-63.427
  0
LINE
  8
0
 10
-60.536
 11
-60.719
 20
-63.427
 21
-63.473
  0
LINE
  8
0
 10
-60.719
 11
-60.906
 20
-63.473
 21
-63.497
  0
LINE
  8
0
 10
-60.906
 11
-61.094
 20
-63.497
 21
-63.497
  0
LINE
  8
0
 10
-61.094
 11
-61.281
 20
-63.497
 21
-63.473
  0
LINE
  8
0
 10
-61.281
 11
-61.464
 20
-63.473
 21
-63.427
  0
LINE
  8
0
 10
-61.464
 11
-61.639
 20
-63.427
 21
-63.357
  0
LINE
  8
0
 10
-61.639
 11
-61.804
 20
-63.357
 21
-63.266
  0
LINE
  8
0
 10
-61.804
 11
-61.956
 20
-63.266
 21
-63.156
  0
LINE
  8
0
 10
-61.956
 11
-62.093
 20
-63.156
 21
-63.027
  0
LINE
  8
0
 10
-62.093
 11
-62.214
 20
-63.027
 21
-62.882
  0
LINE
  8
0
 10
-62.214
 11
-62.314
 20
-62.882
 21
-62.723
  0
LINE
  8
0
 10
-62.314
 11
-62.395
 20
-62.723
 21
-62.552
  0
LINE
  8
0
 10
-62.395
 11
-62.453
 20
-62.552
 21
-62.373
  0
LINE
  8
0
 10
-62.453
 11
-62.488
 20
-62.373
 21
-62.188
  0
LINE
  8
0
 10
-62.488
 11
-62.5
 20
-62.188
 21
-62
  0
LINE
  8
0
 10
-62.5
 11
-62.488
 20
-38
 21
-37.812
  0
LINE
  8
0
 10
-62.488
 11
-62.453
 20
-37.812
 21
-37.627
  0
LINE
  8
0
 10
-62.453
 11
-62.395
 20
-37.627
 21
-37.448
  0
LINE
  8
0
 10
-62.395
 11
-62.314
 20
-37.448
 21
-37.277
  0
LINE
  8
0
 10
-62.314
 11
-62.214
 20
-37.277
 21
-37.118
  0
LINE
  8
0
 10
-62.214
 11
-62.093
 20
-37.118
 21
-36.973
  0
LINE
  8
0
 10
-62.093
 11
-61.956
 20
-36.973
 21
-36.844
  0
LINE
  8
0
 10
-61.956
 11
-61.804
 20
-36.844
 21
-36.734
  0
LINE
  8
0
 10
-61.804
 11
-61.639
 20
-36.734
 21
-36.643
  0
LINE
  8
0
 10
-61.639
 11
-61.464
 20
-36.643
 21
-36.573
  0
LINE
  8
0
 10
-61.464
 11
-61.281
 20
-36.573
 21
-36.527
  0
LINE
  8
0
 10
-61.281
 11
-61.094
 20
-36.527
 21
-36.503
  0
LINE
  8
0
 10
-61.094
 11
-60.906
 20
-36.503
 21
-36.503
  0
LINE
  8
0
 10
-60.906
 11
-60.719
 20
-36.503
 21
-36.527
  0
LINE
  8
0
 10
-60.719
 11
-60.536
 20
-36.527
 21
-36.573
  0
LINE
  8
0
 10
-60.536
 11
-60.361
 20
-36.573
 21
-36.643
  0
LINE
  8
0
 10
-60.361
 11
-60.196
 20
-36.643
 21
-36.734
  0
LINE
  8
0
 10
-60.196
 11
-60.044
 20
-36.734
 21
-36.844
  0
LINE
  8
0
 10
-60.044
 11
-59.907
 20
-36.844
 21
-36.973
  0
LINE
  8
0
 10
-59.907
 11
-59.786
 20
-36.973
 21
-37.118
  0
LINE
  8
0
 10
-59.786
 11
-59.686
 20
-37.118
 21
-37.277
  0
LINE
  8
0
 10
-59.686
 11
-59.605
 20
-37.277
 21
-37.448
  0
LINE
  8
0
 10
-59.605
 11
-59.547
 20
-37.448
 21
-37.627
  0
LINE
  8
0
 10
-59.547
 11
-59.512
 20
-37.627
 21
-37.812
  0
LINE
  8
0
 10
-59.512
 11
-59.5
 20
-37.812
 21
-38
  0
LINE
  8
0
 10
-59.5
 11
-59.512
 20
-38
 21
-38.188
  0
LINE
  8
0
 10
-59.512
 11
-59.547
 20
-38.188
 21
-38.373
  0
LINE
  8
0
 10
-59.547
 11
-59.605
 20
-38.373
 21
-38.552
  0
LINE
  8
0
 10
-59.605
 11
-59.686
 20
-38.552
 21
-38.723
  0
LINE
  8
0
 10
-59.686
 11
-59.786
 20
-38.723
 21
-38.882
  0
LINE
  8
0
 10
-59.786
 11
-59.907
 20
-38.882
 21
-39.027
  0
LINE
  8
0
 10
-59.907
 11
-60.044
 20
-39.027
 21
-39.156
  0
LINE
  8
0
 10
-60.044
 11
-60.196
 20
-39.156
 21
-39.266
  0
LINE
  8
0
 10
-60.196
 11
-60.361
 20
-39.266
 21
-39.357
  0
LINE
  8
0
 10
-60.361
 11
-60.536
 20
-39.357
 21
-39.427
  0
LINE
  8
0
 10
-60.536
 11
-60.719
 20
-39.427
 21
-39.473
  0
LINE
  8
0
 10
-60.719
 11
-60.906
 20
-39.473
 21
-39.497
  0
LINE
  8
0
 10
-60.906
 11
-61.094
 20
-39.497
 21
-39.497
  0
LINE
  8
0
 10
-61.094
 11
-61.281
 20
-39.497
 21
-39.473
  0
LINE
  8
0
 10
-61.281
 11
-61.464
 20
-39.473
 21
-39.427
  0
LINE
  8
0
 10
-61.464
 11
-61.639
 20
-39.427
 21
-39.357
  0
LINE
  8
0
 10
-61.639
 11
-61.804
 20
-39.357
 21
-39.266
  0
LINE
  8
0
 10
-61.804
 11
-61.956
 20
-39.266
 21
-39.156
  0
LINE
  8
0
 10
-61.956
 11
-62.093
 20
-39.156
 21
-39.027
  0
LINE
  8
0
 10
-62.093
 11
-62.214
 20
-39.027
 21
-38.882
  0
LINE
  8
0
 10
-62.214
 11
-62.314
 20
-38.882
 21
-38.723
  0
LINE
  8
0
 10
-62.314
 11
-62.395
 20
-38.723
 21
-38.552
  0
LINE
  8
0
 10
-62.395
 11
-62.453
 20
-38.552
 21
-38.373
  0
LINE
  8
0
 10
-62.453
 11
-62.488
 20
-38.373
 21
-38.188
  0
LINE
  8
0
 10
-62.488
 11
-62.5
 20
-38.188
 21
-38
  0
LINE
  8
0
 10
-62.5
 11
-62.488
 20
38
 21
38.188
  0
LINE
  8
0
 10
-62.488
 11
-62.453
 20
38.188
 21
38.373
  0
LINE
  8
0
 10
-62.453
 11
-62.395
 20
38.373
 21
38.552
  0
LINE
  8
0
 10
-62.395
 11
-62.314
 20
38.552
 21
38.723
  0
LINE
  8
0
 10
-62.314
 11
-62.214
 20
38.723
 21
38.882
  0
LINE
  8
0
 10
-62.214
 11
-62.093
 20
38.882
 21
39.027
  0
LINE
  8
0
 10
-62.093
 11
-61.956
 20
39.027
 21
39.156
  0
LINE
  8
0
 10
-61.956
 11
-61.804
 20
39.156
 21
39.266
  0
LINE
  8
0
 10
-61.804
 11
-61.639
 20
39.266
 21
39.357
  0
LINE
  8
0
 10
-61.639
 11
-61.464
 20
39.357
 21
39.427
  0
LINE
  8
0
 10
-61.464
 11
-61.281
 20
39.427
 21
39.473
  0
LINE
  8
0
 10
-61.281
 11
-61.094
 20
39.473
 21
39.497
  0
LINE
  8
0
 10
-61.094
 11
-60.906
 20
39.497
 21
39.497
  0
LINE
  8
0
 10
-60.906
 11
-60.719
 20
39.497
 21
39.473
  0
LINE
  8
0
 10
-60.719
 11
-60.536
 20
39.473
 21
39.427
  0
LINE
  8
0
 10
-60.536
 11
-60.361
 20
39.427
 21
39.357
  0
LINE
  8
0
 10
-60.361
 11
-60.196
 20
39.357
 21
39.266
  0
LINE
  8
0
 10
-60.196
 11
-60.044
 20
39.266
 21
39.156
  0
LINE
  8
0
 10
-60.044
 11
-59.907
 20
39.156
 21
39.027
  0
LINE
  8
0
 10
-59.907
 11
-59.786
 20
39.027
 21
38.882
  0
LINE
  8
0
 10
-59.786
 11
-59.686
 20
38.882
 21
38.723
  0
LINE
  8
0
 10
-59.686
 11
-59.605
 20
38.723
 21
38.552
  0
LINE
  8
0
 10
-59.605
 11
-59.547
 20
38.552
 21
38.373
  0
LINE
  8
0
 10
-59.547
 11
-59.512
 20
38.373
 21
38.188
  0
LINE
  8
0
 10
-59.512
 11
-59.5
 20
38.188
 21
38
  0
LINE
  8
0
 10
-59.5
 11
-59.512
 20
38
 21
37.812
  0
LINE
  8
0
 10
-59.512
 11
-59.547
 20
37.812
 21
37.627
  0
LINE
  8
0
 10
-59.547
 11
-59.605
 20
37.627
 21
37.448
  0
LINE
  8
0
 10
-59.605
 11
-59.686
 20
37.448
 21
37.277
  0
LINE
  8
0
 10
-59.686
 11
-59.786
 20
37.277
 21
37.118
  0
LINE
  8
0
 10
-59.786
 11
-59.907
 20
37.118
 21
36.973
  0
LINE
  8
0
 10
-59.907
 11
-60.044
 20
36.973
 21
36.844
  0
LINE
  8
0
 10
-60.044
 11
-60.196
 20
36.844
 21
36.734
  0
LINE
  8
0
 10
-60.196
 11
-60.361
 20
36.734
 21
36.643
  0
LINE
  8
0
 10
-60.361
 11
-60.536
 20
36.643
 21
36.573
  0
LINE
  8
0
 10
-60.536
 11
-60.719
 20
36.573
 21
36.527
  0
LINE
  8
0
 10
-60.719
 11
-60.906
 20
36.527
 21
36.503
  0
LINE
  8
0
 10
-60.906
 11
-61.094
 20
36.503
 21
36.503
  0
LINE
  8
0
 10
-61.094
 11
-61.281
 20
36.503
 21
36.527
  0
LINE
  8
0
 10
-61.281
 11
-61.464
 20
36.527
 21
36.573
  0
LINE
  8
0
 10
-61.464
 11
-61.639
 20
36.573
 21
36.643
  0
LINE
  8
0
 10
-61.639
 11
-61.804
 20
36.643
 21
36.734
  0
LINE
  8
0
 10
-61.804
 11
-61.956
 20
36.734
 21
36.844
  0
LINE
  8
0
 10
-61.956
 11
-62.093
 20
36.844
 21
36.973
  0
LINE
  8
0
 10
-62.093
 11
-62.214
 20
36.973
 21
37.118
  0
LINE
  8
0
 10
-62.214
 11
-62.314
 20
37.118
 21
37.277
  0
LINE
  8
0
 10
-62.314
 11
-62.395
 20
37.277
 21
37.448
  0
LINE
  8
0
 10
-62.395
 11
-62.453
 20
37.448
 21
37.627
  0
LINE
  8
0
 10
-62.453
 11
-62.488
 20
37.627
 21
37.812
  0
LINE
  8
0
 10
-62.488
 11
-62.5
 20
37.812
 21
38
  0
LINE
  8
0
 10
-62.5
 11
-62.488
 20
62
 21
62.188
  0
LINE
  8
0
 10
-62.488
 11
-62.453
 20
62.188
 21
62.373
  0
LINE
  8
0
 10
-62.453
 11
-62.395
 20
62.373
 21
62.552
  0
LINE
  8
0
 10
-62.395
 11
-62.314
 20
62.552
 21
62.723
  0
LINE
  8
0
 10
-62.314
 11
-62.214
 20
62.723
 21
62.882
  0
LINE
  8
0
 10
-62.214
 11
-62.093
 20
62.882
 21
63.027
  0
LINE
  8
0
 10
-62.093
 11
-61.956
 20
63.027
 21
63.156
  0
LINE
  8
0
 10
-61.956
 11
-61.804
 20
63.156
 21
63.266
  0
LINE
  8
0
 10
-61.804
 11
-61.639
 20
63.266
 21
63.357
  0
LINE
  8
0
 10
-61.639
 11
-61.464
 20
63.357
 21
63.427
  0
LINE
  8
0
 10
-61.464
 11
-61.281
 20
63.427
 21
63.473
  0
LINE
  8
0
 10
-61.281
 11
-61.094
 20
63.473
 21
63.497
  0
LINE
  8
0
 10
-61.094
 11
-60.906
 20
63.497
 21
63.497
  0
LINE
  8
0
 10
-60.906
 11
-60.719
 20
63.497
 21
63.473
  0
LINE
  8
0
 10
-60.719
 11
-60.536
 20
63.473
 21
63.427
  0
LINE
  8
0
 10
-60.536
 11
-60.361
 20
63.427
 21
63.357
  0
LINE
  8
0
 10
-60.361
 11
-60.196
 20
63.357
 21
63.266
  0
LINE
  8
0
 10
-60.196
 11
-60.044
 20
63.266
 21
63.156
  0
LINE
  8
0
 10
-60.044
 11
-59.907
 20
63.156
 21
63.027
  0
LINE
  8
0
 10
-59.907
 11
-59.786
 20
63.027
 21
62.882
  0
LINE
  8
0
 10
-59.786
 11
-59.686
 20
62.882
 21
62.723
  0
LINE
  8
0
 10
-59.686
 11
-59.605
 20
62.723
 21
62.552
  0
LINE
  8
0
 10
-59.605
 11
-59.547
 20
62.552
 21
62.373
  0
LINE
  8
0
 10
-59.547
 11
-59.512
 20
62.373
 21
62.188
  0
LINE
  8
0
 10
-59.512
 11
-59.5
 20
62.188
 21
62
  0
LINE
  8
0
 10
-59.5
 11
-59.512
 20
62
 21
61.812
  0
LINE
  8
0
 10
-59.512
 11
-59.547
 20
61.812
 21
61.627
  0
LINE
  8
0
 10
-59.547
 11
-59.605
 20
61.627
 21
61.448
  0
LINE
  8
0
 10
-59.605
 11
-59.686
 20
61.448
 21
61.277
  0
LINE
  8
0
 10
-59.686
 11
-59.786
 20
61.277
 21
61.118
  0
LINE
  8
0
 10
-59.786
 11
-59.907
 20
61.118
 21
60.973
  0
LINE
  8
0
 10
-59.907
 11
-60.044
 20
60.973
 21
60.844
  0
LINE
  8
0
 10
-60.044
 11
-60.196
 20
60.844
 21
60.734
  0
LINE
  8
0
 10
-60.196
 11
-60.361
 20
60.734
 21
60.643
  0
LINE
  8
0
 10
-60.361
 11
-60.536
 20
60.643
 21
60.573
  0
LINE
  8
0
 10
-60.536
 11
-60.719
 20
60.573
 21
60.527
  0
LINE
  8
0
 10
-60.719
 11
-60.906
 20
60.527
 21
60.503
  0
LINE
  8
0
 10
-60.906
 11
-61.094
 20
60.503
 21
60.503
  0
LINE
  8
0
 10
-61.094
 11
-61.281
 20
60.503
 21
60.527
  0
LINE
  8
0
 10
-61.281
 11
-61.464
 20
60.527
 21
60.573
  0
LINE
  8
0
 10
-61.464
 11
-61.639
 20
60.573
 21
60.643
  0
LINE
  8
0
 10
-61.639
 11
-61.804
 20
60.643
 21
60.734
  0
LINE
  8
0
 10
-61.804
 11
-61.956
 20
60.734
 21
60.844
  0
LINE
  8
0
 10
-61.956
 11
-62.093
 20
60.844
 21
60.973
  0
LINE
  8
0
 10
-62.093
 11
-62.214
 20
60.973
 21
61.118
  0
LINE
  8
0
 10
-62.214
 11
-62.314
 20
61.118
 21
61.277
  0
LINE
  8
0
 10
-62.314
 11
-62.395
 20
61.277
 21
61.448
  0
LINE
  8
0
 10
-62.395
 11
-62.453
 20
61.448
 21
61.627
  0
LINE
  8
0
 10
-62.453
 11
-62.488
 20
61.627
 21
61.812
  0
LINE
  8
0
 10
-62.488
 11
-62.5
 20
61.812
 21
62
  0
LINE
  8
0
 10
-51.5
 11
-51.488
 20
-50
 21
-49.812
  0
LINE
  8
0
 10
-51.488
 11
-51.453
 20
-49.812
 21
-49.627
  0
LINE
  8
0
 10
-51.453
 11
-51.395
 20
-49.627
 21
-49.448
  0
LINE
  8
0
 10
-51.395
 11
-51.314
 20
-49.448
 21
-49.277
  0
LINE
  8
0
 10
-51.314
 11
-51.214
 20
-49.277
 21
-49.118
  0
LINE
  8
0
 10
-51.214
 11
-51.093
 20
-49.118
 21
-48.973
  0
LINE
  8
0
 10
-51.093
 11
-50.956
 20
-48.973
 21
-48.844
  0
LINE
  8
0
 10
-50.956
 11
-50.804
 20
-48.844
 21
-48.734
  0
LINE
  8
0
 10
-50.804
 11
-50.639
 20
-48.734
 21
-48.643
  0
LINE
  8
0
 10
-50.639
 11
-50.464
 20
-48.643
 21
-48.573
  0
LINE
  8
0
 10
-50.464
 11
-50.281
 20
-48.573
 21
-48.527
  0
LINE
  8
0
 10
-50.281
 11
-50.094
 20
-48.527
 21
-48.503
  0
LINE
  8
0
 10
-50.094
 11
-49.906
 20
-48.503
 21
-48.503
  0
LINE
  8
0
 10
-49.906
 11
-49.719
 20
-48.503
 21
-48.527
  0
LINE
  8
0
 10
-49.719
 11
-49.536
 20
-48.527
 21
-48.573
  0
LINE
  8
0
 10
-49.536
 11
-49.361
 20
-48.573
 21
-48.643
  0
LINE
  8
0
 10
-49.361
 11
-49.196
 20
-48.643
 21
-48.734
  0
LINE
  8
0
 10
-49.196
 11
-49.044
 20
-48.734
 21
-48.844
  0
LINE
  8
0
 10
-49.044
 11
-48.907
 20
-48.844
 21
-48.973
  0
LINE
  8
0
 10
-48.907
 11
-48.786
 20
-48.973
 21
-49.118
  0
LINE
  8
0
 10
-48.786
 11
-48.686
 20
-49.118
 21
-49.277
  0
LINE
  8
0
 10
-48.686
 11
-48.605
 20
-49.277
 21
-49.448
  0
LINE
  8
0
 10
-48.605
 11
-48.547
 20
-49.448
 21
-49.627
  0
LINE
  8
0
 10
-48.547
 11
-48.512
 20
-49.627
 21
-49.812
  0
LINE
  8
0
 10
-48.512
 11
-48.5
 20
-49.812
 21
-50
  0
LINE
  8
0
 10
-48.5
 11
-48.512
 20
-50
 21
-50.188
  0
LINE
  8
0
 10
-48.512
 11
-48.547
 20
-50.188
 21
-50.373
  0
LINE
  8
0
 10
-48.547
 11
-48.605
 20
-50.373
 21
-50.552
  0
LINE
  8
0
 10
-48.605
 11
-48.686
 20
-50.552
 21
-50.723
  0
LINE
  8
0
 10
-48.686
 11
-48.786
 20
-50.723
 21
-50.882
  0
LINE
  8
0
 10
-48.786
 11
-48.907
 20
-50.882
 21
-51.027
  0
LINE
  8
0
 10
-48.907
 11
-49.044
 20
-51.027
 21
-51.156
  0
LINE
  8
0
 10
-49.044
 11
-49.196
 20
-51.156
 21
-51.266
  0
LINE
  8
0
 10
-49.196
 11
-49.361
 20
-51.266
 21
-51.357
  0
LINE
  8
0
 10
-49.361
 11
-49.536
 20
-51.357
 21
-51.427
  0
LINE
  8
0
 10
-49.536
 11
-49.719
 20
-51.427
 21
-51.473
  0
LINE
  8
0
 10
-49.719
 11
-49.906
 20
-51.473
 21
-51.497
  0
LINE
  8
0
 10
-49.906
 11
-50.094
 20
-51.497
 21
-51.497
  0
LINE
  8
0
 10
-50.094
 11
-50.281
 20
-51.497
 21
-51.473
  0
LINE
  8
0
 10
-50.281
 11
-50.464
 20
-51.473
 21
-51.427
  0
LINE
  8
0
 10
-50.464
 11
-50.639
 20
-51.427
 21
-51.357
  0
LINE
  8
0
 10
-50.639
 11
-50.804
 20
-51.357
 21
-51.266
  0
LINE
  8
0
 10
-50.804
 11
-50.956
 20
-51.266
 21
-51.156
  0
LINE
  8
0
 10
-50.956
 11
-51.093
 20
-51.156
 21
-51.027
  0
LINE
  8
0
 10
-51.093
 11
-51.214
 20
-51.027
 21
-50.882
  0
LINE
  8
0
 10
-51.214
 11
-51.314
 20
-50.882
 21
-50.723
  0
LINE
  8
0
 10
-51.314
 11
-51.395
 20
-50.723
 21
-50.552
  0
LINE
  8
0
 10
-51.395
 11
-51.453
 20
-50.552
 21
-50.373
  0
LINE
  8
0
 10
-51.453
 11
-51.488
 20
-50.373
 21
-50.188
  0
LINE
  8
0
 10
-51.488
 11
-51.5
 20
-50.188
 21
-50
  0
LINE
  8
0
 10
-51.497
 11
-51.497
 20
49.906
 21
50.094
  0
LINE
  8
0
 10
-51.497
 11
-51.473
 20
50.094
 21
50.281
  0
LINE
  8
0
 10
-51.473
 11
-51.427
 20
50.281
 21
50.464
  0
LINE
  8
0
 10
-51.427
 11
-51.357
 20
50.464
 21
50.639
  0
LINE
  8
0
 10
-51.357
 11
-51.266
 20
50.639
 21
50.804
  0
LINE
  8
0
 10
-51.266
 11
-51.156
 20
50.804
 21
50.956
  0
LINE
  8
0
 10
-51.156
 11
-51.027
 20
50.956
 21
51.093
  0
LINE
  8
0
 10
-51.027
 11
-50.882
 20
51.093
 21
51.214
  0
LINE
  8
0
 10
-50.882
 11
-50.723
 20
51.214
 21
51.314
  0
LINE
  8
0
 10
-50.723
 11
-50.552
 20
51.314
 21
51.395
  0
LINE
  8
0
 10
-50.552
 11
-50.373
 20
51.395
 21
51.453
  0
LINE
  8
0
 10
-50.373
 11
-50.188
 20
51.453
 21
51.488
  0
LINE
  8
0
 10
-50.188
 11
-50
 20
51.488
 21
51.5
  0
LINE
  8
0
 10
-50
 11
-49.812
 20
51.5
 21
51.488
  0
LINE
  8
0
 10
-49.812
 11
-49.627
 20
51.488
 21
51.453
  0
LINE
  8
0
 10
-49.627
 11
-49.448
 20
51.453
 21
51.395
  0
LINE
  8
0
 10
-49.448
 11
-49.277
 20
51.395
 21
51.314
  0
LINE
  8
0
 10
-49.277
 11
-49.118
 20
51.314
 21
51.214
  0
LINE
  8
0
 10
-49.118
 11
-48.973
 20
51.214
 21
51.093
  0
LINE
  8
0
 10
-48.973
 11
-48.844
 20
51.093
 21
50.956
  0
LINE
  8
0
 10
-48.844
 11
-48.734
 20
50.956
 21
50.804
  0
LINE
  8
0
 10
-48.734
 11
-48.643
 20
50.804
 21
50.639
  0
LINE
  8
0
 10
-48.643
 11
-48.573
 20
50.639
 21
50.464
  0
LINE
  8
0
 10
-48.573
 11
-48.527
 20
50.464
 21
50.281
  0
LINE
  8
0
 10
-48.527
 11
-48.503
 20
50.281
 21
50.094
  0
LINE
  8
0
 10
-48.503
 11
-48.503
 20
50.094
 21
49.906
  0
LINE
  8
0
 10
-48.503
 11
-48.527
 20
49.906
 21
49.719
  0
LINE
  8
0
 10
-48.527
 11
-48.573
 20
49.719
 21
49.536
  0
LINE
  8
0
 10
-48.573
 11
-48.643
 20
49.536
 21
49.361
  0
LINE
  8
0
 10
-48.643
 11
-48.734
 20
49.361
 21
49.196
  0
LINE
  8
0
 10
-48.734
 11
-48.844
 20
49.196
 21
49.044
  0
LINE
  8
0
 10
-48.844
 11
-48.973
 20
49.044
 21
48.907
  0
LINE
  8
0
 10
-48.973
 11
-49.118
 20
48.907
 21
48.786
  0
LINE
  8
0
 10
-49.118
 11
-49.277
 20
48.786
 21
48.686
  0
LINE
  8
0
 10
-49.277
 11
-49.448
 20
48.686
 21
48.605
  0
LINE
  8
0
 10
-49.448
 11
-49.627
 20
48.605
 21
48.547
  0
LINE
  8
0
 10
-49.627
 11
-49.812
 20
48.547
 21
48.512
  0
LINE
  8
0
 10
-49.812
 11
-50
 20
48.512
 21
48.5
  0
LINE
  8
0
 10
-50
 11
-50.188
 20
48.5
 21
48.512
  0
LINE
  8
0
 10
-50.188
 11
-50.373
 20
48.512
 21
48.547
  0
LINE
  8
0
 10
-50.373
 11
-50.552
 20
48.547
 21
48.605
  0
LINE
  8
0
 10
-50.552
 11
-50.723
 20
48.605
 21
48.686
  0
LINE
  8
0
 10
-50.723
 11
-50.882
 20
48.686
 21
48.786
  0
LINE
  8
0
 10
-50.882
 11
-51.027
 20
48.786
 21
48.907
  0
LINE
  8
0
 10
-51.027
 11
-51.156
 20
48.907
 21
49.044
  0
LINE
  8
0
 10
-51.156
 11
-51.266
 20
49.044
 21
49.196
  0
LINE
  8
0
 10
-51.266
 11
-51.357
 20
49.196
 21
49.361
  0
LINE
  8
0
 10
-51.357
 11
-51.427
 20
49.361
 21
49.536
  0
LINE
  8
0
 10
-51.427
 11
-51.473
 20
49.536
 21
49.719
  0
LINE
  8
0
 10
-51.473
 11
-51.497
 20
49.719
 21
49.906
  0
LINE
  8
0
 10
48.5
 11
48.512
 20
50
 21
50.188
  0
LINE
  8
0
 10
48.512
 11
48.547
 20
50.188
 21
50.373
  0
LINE
  8
0
 10
48.547
 11
48.605
 20
50.373
 21
50.552
  0
LINE
  8
0
 10
48.605
 11
48.686
 20
50.552
 21
50.723
  0
LINE
  8
0
 10
48.686
 11
48.786
 20
50.723
 21
50.882
  0
LINE
  8
0
 10
48.786
 11
48.907
 20
50.882
 21
51.027
  0
LINE
  8
0
 10
48.907
 11
49.044
 20
51.027
 21
51.156
  0
LINE
  8
0
 10
49.044
 11
49.196
 20
51.156
 21
51.266
  0
LINE
  8
0
 10
49.196
 11
49.361
 20
51.266
 21
51.357
  0
LINE
  8
0
 10
49.361
 11
49.536
 20
51.357
 21
51.427
  0
LINE
  8
0
 10
49.536
 11
49.719
 20
51.427
 21
51.473
  0
LINE
  8
0
 10
49.719
 11
49.906
 20
51.473
 21
51.497
  0
LINE
  8
0
 10
49.906
 11
50.094
 20
51.497
 21
51.497
  0
LINE
  8
0
 10
50.094
 11
50.281
 20
51.497
 21
51.473
  0
LINE
  8
0
 10
50.281
 11
50.464
 20
51.473
 21
51.427
  0
LINE
  8
0
 10
50.464
 11
50.639
 20
51.427
 21
51.357
  0
LINE
  8
0
 10
50.639
 11
50.804
 20
51.357
 21
51.266
  0
LINE
  8
0
 10
50.804
 11
50.956
 20
51.266
 21
51.156
  0
LINE
  8
0
 10
50.956
 11
51.093
 20
51.156
 21
51.027
  0
LINE
  8
0
 10
51.093
 11
51.214
 20
51.027
 21
50.882
  0
LINE
  8
0
 10
51.214
 11
51.314
 20
50.882
 21
50.723
  0
LINE
  8
0
 10
51.314
 11
51.395
 20
50.723
 21
50.552
  0
LINE
  8
0
 10
51.395
 11
51.453
 20
50.552
 21
50.373
  0
LINE
  8
0
 10
51.453
 11
51.488
 20
50.373
 21
50.188
  0
LINE
  8
0
 10
51.488
 11
51.5
 20
50.188
 21
50
  0
LINE
  8
0
 10
51.5
 11
51.488
 20
50
 21
49.812
  0
LINE
  8
0
 10
51.488
 11
51.453
 20
49.812
 21
49.627
  0
LINE
  8
0
 10
51.453
 11
51.395
 20
49.627
 21
49.448
  0
LINE
  8
0
 10
51.395
 11
51.314
 20
49.448
 21
49.277
  0
LINE
  8
0
 10
51.314
 11
51.214
 20
49.277
 21
49.118
  0
LINE
  8
0
 10
51.214
 11
51.093
 20
49.118
 21
48.973
  0
LINE
  8
0
 10
51.093
 11
50.956
 20
48.973
 21
48.844
  0
LINE
  8
0
 10
50.956
 11
50.804
 20
48.844
 21
48.734
  0
LINE
  8
0
 10
50.804
 11
50.639
 20
48.734
 21
48.643
  0
LINE
  8
0
 10
50.639
 11
50.464
 20
48.643
 21
48.573
  0
LINE
  8
0
 10
50.464
 11
50.281
 20
48.573
 21
48.527
  0
LINE
  8
0
 10
50.281
 11
50.094
 20
48.527
 21
48.503
  0
LINE
  8
0
 10
50.094
 11
49.906
 20
48.503
 21
48.503
  0
LINE
  8
0
 10
49.906
 11
49.719
 20
48.503
 21
48.527
  0
LINE
  8
0
 10
49.719
 11
49.536
 20
48.527
 21
48.573
  0
LINE
  8
0
 10
49.536
 11
49.361
 20
48.573
 21
48.643
  0
LINE
  8
0
 10
49.361
 11
49.196
 20
48.643
 21
48.734
  0
LINE
  8
0
 10
49.196
 11
49.044
 20
48.734
 21
48.844
  0
LINE
  8
0
 10
49.044
 11
48.907
 20
48.844
 21
48.973
  0
LINE
  8
0
 10
48.907
 11
48.786
 20
48.973
 21
49.118
  0
LINE
  8
0
 10
48.786
 11
48.686
 20
49.118
 21
49.277
  0
LINE
  8
0
 10
48.686
 11
48.605
 20
49.277
 21
49.448
  0
LINE
  8
0
 10
48.605
 11
48.547
 20
49.448
 21
49.627
  0
LINE
  8
0
 10
48.547
 11
48.512
 20
49.627
 21
49.812
  0
LINE
  8
0
 10
48.512
 11
48.5
 20
49.812
 21
50
  0
LINE
  8
0
 10
48.503
 11
48.503
 20
-50.094
 21
-49.906
  0
LINE
  8
0
 10
48.503
 11
48.527
 20
-49.906
 21
-49.719
  0
LINE
  8
0
 10
48.527
 11
48.573
 20
-49.719
 21
-49.536
  0
LINE
  8
0
 10
48.573
 11
48.643
 20
-49.536
 21
-49.361
  0
LINE
  8
0
 10
48.643
 11
48.734
 20
-49.361
 21
-49.196
  0
LINE
  8
0
 10
48.734
 11
48.844
 20
-49.196
 21
-49.044
  0
LINE
  8
0
 10
48.844
 11
48.973
 20
-49.044
 21
-48.907
  0
LINE
  8
0
 10
48.973
 11
49.118
 20
-48.907
 21
-48.786
  0
LINE
  8
0
 10
49.118
 11
49.277
 20
-48.786
 21
-48.686
  0
LINE
  8
0
 10
49.277
 11
49.448
 20
-48.686
 21
-48.605
  0
LINE
  8
0
 10
49.448
 11
49.627
 20
-48.605
 21
-48.547
  0
LINE
  8
0
 10
49.627
 11
49.812
 20
-48.547
 21
-48.512
  0
LINE
  8
0
 10
49.812
 11
50
 20
-48.512
 21
-48.5
  0
LINE
  8
0
 10
50
 11
50.188
 20
-48.5
 21
-48.512
  0
LINE
  8
0
 10
50.188
 11
50.373
 20
-48.512
 21
-48.547
  0
LINE
  8
0
 10
50.373
 11
50.552
 20
-48.547
 21
-48.605
  0
LINE
  8
0
 10
50.552
 11
50.723
 20
-48.605
 21
-48.686
  0
LINE
  8
0
 10
50.723
 11
50.882
 20
-48.686
 21
-48.786
  0
LINE
  8
0
 10
50.882
 11
51.027
 20
-48.786
 21
-48.907
  0
LINE
  8
0
 10
51.027
 11
51.156
 20
-48.907
 21
-49.044
  0
LINE
  8
0
 10
51.156
 11
51.266
 20
-49.044
 21
-49.196
  0
LINE
  8
0
 10
51.266
 11
51.357
 20
-49.196
 21
-49.361
  0
LINE
  8
0
 10
51.357
 11
51.427
 20
-49.361
 21
-49.536
  0
LINE
  8
0
 10
51.427
 11
51.473
 20
-49.536
 21
-49.719
  0
LINE
  8
0
 10
51.473
 11
51.497
 20
-49.719
 21
-49.906
  0
LINE
  8
0
 10
51.497
 11
51.497
 20
-49.906
 21
-50.094
  0
LINE
  8
0
 10
51.497
 11
51.473
 20
-50.094
 21
-50.281
  0
LINE
  8
0
 10
51.473
 11
51.427
 20
-50.281
 21
-50.464
  0
LINE
  8
0
 10
51.427
 11
51.357
 20
-50.464
 21
-50.639
  0
LINE
  8
0
 10
51.357
 11
51.266
 20
-50.639
 21
-50.804
  0
LINE
  8
0
 10
51.266
 11
51.156
 20
-50.804
 21
-50.956
  0
LINE
  8
0
 10
51.156
 11
51.027
 20
-50.956
 21
-51.093
  0
LINE
  8
0
 10
51.027
 11
50.882
 20
-51.093
 21
-51.214
  0
LINE
  8
0
 10
50.882
 11
50.723
 20
-51.214
 21
-51.314
  0
LINE
  8
0
 10
50.723
 11
50.552
 20
-51.314
 21
-51.395
  0
LINE
  8
0
 10
50.552
 11
50.373
 20
-51.395
 21
-51.453
  0
LINE
  8
0
 10
50.373
 11
50.188
 20
-51.453
 21
-51.488
  0
LINE
  8
0
 10
50.188
 11
50
 20
-51.488
 21
-51.5
  0
LINE
  8
0
 10
50
 11
49.812
 20
-51.5
 21
-51.488
  0
LINE
  8
0
 10
49.812
 11
49.627
 20
-51.488
 21
-51.453
  0
LINE
  8
0
 10
49.627
 11
49.448
 20
-51.453
 21
-51.395
  0
LINE
  8
0
 10
49.448
 11
49.277
 20
-51.395
 21
-51.314
  0
LINE
  8
0
 10
49.277
 11
49.118
 20
-51.314
 21
-51.214
  0
LINE
  8
0
 10
49.118
 11
48.973
 20
-51.214
 21
-51.093
  0
LINE
  8
0
 10
48.973
 11
48.844
 20
-51.093
 21
-50.956
  0
LINE
  8
0
 10
48.844
 11
48.734
 20
-50.956
 21
-50.804
  0
LINE
  8
0
 10
48.734
 11
48.643
 20
-50.804
 21
-50.639
  0
LINE
  8
0
 10
48.643
 11
48.573
 20
-50.639
 21
-50.464
  0
LINE
  8
0
 10
48.573
 11
48.527
 20
-50.464
 21
-50.281
  0
LINE
  8
0
 10
48.527
 11
48.503
 20
-50.281
 21
-50.094
  0
LINE
  8
0
 10
59.5
 11
59.512
 20
-12
 21
-11.812
  0
LINE
  8
0
 10
59.512
 11
59.547
 20
-11.812
 21
-11.627
  0
LINE
  8
0
 10
59.547
 11
59.605
 20
-11.627
 21
-11.448
  0
LINE
  8
0
 10
59.605
 11
59.686
 20
-11.448
 21
-11.277
  0
LINE
  8
0
 10
59.686
 11
59.786
 20
-11.277
 21
-11.118
  0
LINE
  8
0
 10
59.786
 11
59.907
 20
-11.118
 21
-10.973
  0
LINE
  8
0
 10
59.907
 11
60.044
 20
-10.973
 21
-10.844
  0
LINE
  8
0
 10
60.044
 11
60.196
 20
-10.844
 21
-10.734
  0
LINE
  8
0
 10
60.196
 11
60.361
 20
-10.734
 21
-10.643
  0
LINE
  8
0
 10
60.361
 11
60.536
 20
-10.643
 21
-10.573
  0
LINE
  8
0
 10
60.536
 11
60.719
 20
-10.573
 21
-10.527
  0
LINE
  8
0
 10
60.719
 11
60.906
 20
-10.527
 21
-10.503
  0
LINE
  8
0
 10
60.906
 11
61.094
 20
-10.503
 21
-10.503
  0
LINE
  8
0
 10
61.094
 11
61.281
 20
-10.503
 21
-10.527
  0
LINE
  8
0
 10
61.281
 11
61.464
 20
-10.527
 21
-10.573
  0
LINE
  8
0
 10
61.464
 11
61.639
 20
-10.573
 21
-10.643
  0
LINE
  8
0
 10
61.639
 11
61.804
 20
-10.643
 21
-10.734
  0
LINE
  8
0
 10
61.804
 11
61.956
 20
-10.734
 21
-10.844
  0
LINE
  8
0
 10
61.956
 11
62.093
 20
-10.844
 21
-10.973
  0
LINE
  8
0
 10
62.093
 11
62.214
 20
-10.973
 21
-11.118
  0
LINE
  8
0
 10
62.214
 11
62.314
 20
-11.118
 21
-11.277
  0
LINE
  8
0
 10
62.314
 11
62.395
 20
-11.277
 21
-11.448
  0
LINE
  8
0
 10
62.395
 11
62.453
 20
-11.448
 21
-11.627
  0
LINE
  8
0
 10
62.453
 11
62.488
 20
-11.627
 21
-11.812
  0
LINE
  8
0
 10
62.488
 11
62.5
 20
-11.812
 21
-12
  0
LINE
  8
0
 10
62.5
 11
62.488
 20
-12
 21
-12.188
  0
LINE
  8
0
 10
62.488
 11
62.453
 20
-12.188
 21
-12.373
  0
LINE
  8
0
 10
62.453
 11
62.395
 20
-12.373
 21
-12.552
  0
LINE
  8
0
 10
62.395
 11
62.314
 20
-12.552
 21
-12.723
  0
LINE
  8
0
 10
62.314
 11
62.214
 20
-12.723
 21
-12.882
  0
LINE
  8
0
 10
62.214
 11
62.093
 20
-12.882
 21
-13.027
  0
LINE
  8
0
 10
62.093
 11
61.956
 20
-13.027
 21
-13.156
  0
LINE
  8
0
 10
61.956
 11
61.804
 20
-13.156
 21
-13.266
  0
LINE
  8
0
 10
61.804
 11
61.639
 20
-13.266
 21
-13.357
  0
LINE
  8
0
 10
61.639
 11
61.464
 20
-13.357
 21
-13.427
  0
LINE
  8
0
 10
61.464
 11
61.281
 20
-13.427
 21
-13.473
  0
LINE
  8
0
 10
61.281
 11
61.094
 20
-13.473
 21
-13.497
  0
LINE
  8
0
 10
61.094
 11
60.906
 20
-13.497
 21
-13.497
  0
LINE
  8
0
 10
60.906
 11
60.719
 20
-13.497
 21
-13.473
  0
LINE
  8
0
 10
60.719
 11
60.536
 20
-13.473
 21
-13.427
  0
LINE
  8
0
 10
60.536
 11
60.361
 20
-13.427
 21
-13.357
  0
LINE
  8
0
 10
60.361
 11
60.196
 20
-13.357
 21
-13.266
  0
LINE
  8
0
 10
60.196
 11
60.044
 20
-13.266
 21
-13.156
  0
LINE
  8
0
 10
60.044
 11
59.907
 20
-13.156
 21
-13.027
  0
LINE
  8
0
 10
59.907
 11
59.786
 20
-13.027
 21
-12.882
  0
LINE
  8
0
 10
59.786
 11
59.686
 20
-12.882
 21
-12.723
  0
LINE
  8
0
 10
59.686
 11
59.605
 20
-12.723
 21
-12.552
  0
LINE
  8
0
 10
59.605
 11
59.547
 20
-12.552
 21
-12.373
  0
LINE
  8
0
 10
59.547
 11
59.512
 20
-12.373
 21
-12.188
  0
LINE
  8
0
 10
59.512
 11
59.5
 20
-12.188
 21
-12
  0
LINE
  8
0
 10
59.5
 11
59.512
 20
12
 21
12.188
  0
LINE
  8
0
 10
59.512
 11
59.547
 20
12.188
 21
12.373
  0
LINE
  8
0
 10
59.547
 11
59.605
 20
12.373
 21
12.552
  0
LINE
  8
0
 10
59.605
 11
59.686
 20
12.552
 21
12.723
  0
LINE
  8
0
 10
59.686
 11
59.786
 20
12.723
 21
12.882
  0
LINE
  8
0
 10
59.786
 11
59.907
 20
12.882
 21
13.027
  0
LINE
  8
0
 10
59.907
 11
60.044
 20
13.027
 21
13.156
  0
LINE
  8
0
 10
60.044
 11
60.196
 20
13.156
 21
13.266
  0
LINE
  8
0
 10
60.196
 11
60.361
 20
13.266
 21
13.357
  0
LINE
  8
0
 10
60.361
 11
60.536
 20
13.357
 21
13.427
  0
LINE
  8
0
 10
60.536
 11
60.719
 20
13.427
 21
13.473
  0
LINE
  8
0
 10
60.719
 11
60.906
 20
13.473
 21
13.497
  0
LINE
  8
0
 10
60.906
 11
61.094
 20
13.497
 21
13.497
  0
LINE
  8
0
 10
61.094
 11
61.281
 20
13.497
 21
13.473
  0
LINE
  8
0
 10
61.281
 11
61.464
 20
13.473
 21
13.427
  0
LINE
  8
0
 10
61.464
 11
61.639
 20
13.427
 21
13.357
  0
LINE
  8
0
 10
61.639
 11
61.804
 20
13.357
 21
13.266
  0
LINE
  8
0
 10
61.804
 11
61.956
 20
13.266
 21
13.156
  0
LINE
  8
0
 10
61.956
 11
62.093
 20
13.156
 21
13.027
  0
LINE
  8
0
 10
62.093
 11
62.214
 20
13.027
 21
12.882
  0
LINE
  8
0
 10
62.214
 11
62.314
 20
12.882
 21
12.723
  0
LINE
  8
0
 10
62.314
 11
62.395
 20
12.723
 21
12.552
  0
LINE
  8
0
 10
62.395
 11
62.453
 20
12.552
 21
12.373
  0
LINE
  8
0
 10
62.453
 11
62.488
 20
12.373
 21
12.188
  0
LINE
  8
0
 10
62.488
 11
62.5
 20
12.188
 21
12
  0
LINE
  8
0
 10
62.5
 11
62.488
 20
12
 21
11.812
  0
LINE
  8
0
 10
62.488
 11
62.453
 20
11.812
 21
11.627
  0
LINE
  8
0
 10
62.453
 11
62.395
 20
11.627
 21
11.448
  0
LINE
  8
0
 10
62.395
 11
62.314
 20
11.448
 21
11.277
  0
LINE
  8
0
 10
62.314
 11
62.214
 20
11.277
 21
11.118
  0
LINE
  8
0
 10
62.214
 11
62.093
 20
11.118
 21
10.973
  0
LINE
  8
0
 10
62.093
 11
61.956
 20
10.973
 21
10.844
  0
LINE
  8
0
 10
61.956
 11
61.804
 20
10.844
 21
10.734
  0
LINE
  8
0
 10
61.804
 11
61.639
 20
10.734
 21
10.643
  0
LINE
  8
0
 10
61.639
 11
61.464
 20
10.643
 21
10.573
  0
LINE
  8
0
 10
61.464
 11
61.281
 20
10.573
 21
10.527
  0
LINE
  8
0
 10
61.281
 11
61.094
 20
10.527
 21
10.503
  0
LINE
  8
0
 10
61.094
 11
60.906
 20
10.503
 21
10.503
  0
LINE
  8
0
 10
60.906
 11
60.719
 20
10.503
 21
10.527
  0
LINE
  8
0
 10
60.719
 11
60.536
 20
10.527
 21
10.573
  0
LINE
  8
0
 10
60.536
 11
60.361
 20
10.573
 21
10.643
  0
LINE
  8
0
 10
60.361
 11
60.196
 20
10.643
 21
10.734
  0
LINE
  8
0
 10
60.196
 11
60.044
 20
10.734
 21
10.844
  0
LINE
  8
0
 10
60.044
 11
59.907
 20
10.844
 21
10.973
  0
LINE
  8
0
 10
59.907
 11
59.786
 20
10.973
 21
11.118
  0
LINE
  8
0
 10
59.786
 11
59.686
 20
11.118
 21
11.277
  0
LINE
  8
0
 10
59.686
 11
59.605
 20
11.277
 21
11.448
  0
LINE
  8
0
 10
59.605
 11
59.547
 20
11.448
 21
11.627
  0
LINE
  8
0
 10
59.547
 11
59.512
 20
11.627
 21
11.812
  0
LINE
  8
0
 10
59.512
 11
59.5
 20
11.812
 21
12
  0
LINE
  8
0
 10
77.5
 11
77.512
 20
-12
 21
-11.812
  0
LINE
  8
0
 10
77.512
 11
77.547
 20
-11.812
 21
-11.627
  0
LINE
  8
0
 10
77.547
 11
77.605
 20
-11.627
 21
-11.448
  0
LINE
  8
0
 10
77.605
 11
77.686
 20
-11.448
 21
-11.277
  0
LINE
  8
0
 10
77.686
 11
77.786
 20
-11.277
 21
-11.118
  0
LINE
  8
0
 10
77.786
 11
77.907
 20
-11.118
 21
-10.973
  0
LINE
  8
0
 10
77.907
 11
78.044
 20
-10.973
 21
-10.844
  0
LINE
  8
0
 10
78.044
 11
78.196
 20
-10.844
 21
-10.734
  0
LINE
  8
0
 10
78.196
 11
78.361
 20
-10.734
 21
-10.643
  0
LINE
  8
0
 10
78.361
 11
78.536
 20
-10.643
 21
-10.573
  0
LINE
  8
0
 10
78.536
 11
78.719
 20
-10.573
 21
-10.527
  0
LINE
  8
0
 10
78.719
 11
78.906
 20
-10.527
 21
-10.503
  0
LINE
  8
0
 10
78.906
 11
79.094
 20
-10.503
 21
-10.503
  0
LINE
  8
0
 10
79.094
 11
79.281
 20
-10.503
 21
-10.527
  0
LINE
  8
0
 10
79.281
 11
79.464
 20
-10.527
 21
-10.573
  0
LINE
  8
0
 10
79.464
 11
79.639
 20
-10.573
 21
-10.643
  0
LINE
  8
0
 10
79.639
 11
79.804
 20
-10.643
 21
-10.734
  0
LINE
  8
0
 10
79.804
 11
79.956
 20
-10.734
 21
-10.844
  0
LINE
  8
0
 10
79.956
 11
80.093
 20
-10.844
 21
-10.973
  0
LINE
  8
0
 10
80.093
 11
80.214
 20
-10.973
 21
-11.118
  0
LINE
  8
0
 10
80.214
 11
80.314
 20
-11.118
 21
-11.277
  0
LINE
  8
0
 10
80.314
 11
80.395
 20
-11.277
 21
-11.448
  0
LINE
  8
0
 10
80.395
 11
80.453
 20
-11.448
 21
-11.627
  0
LINE
  8
0
 10
80.453
 11
80.488
 20
-11.627
 21
-11.812
  0
LINE
  8
0
 10
80.488
 11
80.5
 20
-11.812
 21
-12
  0
LINE
  8
0
 10
80.5
 11
80.488
 20
-12
 21
-12.188
  0
LINE
  8
0
 10
80.488
 11
80.453
 20
-12.188
 21
-12.373
  0
LINE
  8
0
 10
80.453
 11
80.395
 20
-12.373
 21
-12.552
  0
LINE
  8
0
 10
80.395
 11
80.314
 20
-12.552
 21
-12.723
  0
LINE
  8
0
 10
80.314
 11
80.214
 20
-12.723
 21
-12.882
  0
LINE
  8
0
 10
80.214
 11
80.093
 20
-12.882
 21
-13.027
  0
LINE
  8
0
 10
80.093
 11
79.956
 20
-13.027
 21
-13.156
  0
LINE
  8
0
 10
79.956
 11
79.804
 20
-13.156
 21
-13.266
  0
LINE
  8
0
 10
79.804
 11
79.639
 20
-13.266
 21
-13.357
  0
LINE
  8
0
 10
79.639
 11
79.464
 20
-13.357
 21
-13.427
  0
LINE
  8
0
 10
79.464
 11
79.281
 20
-13.427
 21
-13.473
  0
LINE
  8
0
 10
79.281
 11
79.094
 20
-13.473
 21
-13.497
  0
LINE
  8
0
 10
79.094
 11
78.906
 20
-13.497
 21
-13.497
  0
LINE
  8
0
 10
78.906
 11
78.719
 20
-13.497
 21
-13.473
  0
LINE
  8
0
 10
78.719
 11
78.536
 20
-13.473
 21
-13.427
  0
LINE
  8
0
 10
78.536
 11
78.361
 20
-13.427
 21
-13.357
  0
LINE
  8
0
 10
78.361
 11
78.196
 20
-13.357
 21
-13.266
  0
LINE
  8
0
 10
78.196
 11
78.044
 20
-13.266
 21
-13.156
  0
LINE
  8
0
 10
78.044
 11
77.907
 20
-13.156
 21
-13.027
  0
LINE
  8
0
 10
77.907
 11
77.786
 20
-13.027
 21
-12.882
  0
LINE
  8
0
 10
77.786
 11
77.686
 20
-12.882
 21
-12.723
  0
LINE
  8
0
 10
77.686
 11
77.605
 20
-12.723
 21
-12.552
  0
LINE
  8
0
 10
77.605
 11
77.547
 20
-12.552
 21
-12.373
  0
LINE
  8
0
 10
77.547
 11
77.512
 20
-12.373
 21
-12.188
  0
LINE
  8
0
 10
77.512
 11
77.5
 20
-12.188
 21
-12
  0
LINE
  8
0
 10
77.5
 11
77.512
 20
12
 21
12.188
  0
LINE
  8
0
 10
77.512
 11
77.547
 20
12.188
 21
12.373
  0
LINE
  8
0
 10
77.547
 11
77.605
 20
12.373
 21
12.552
  0
LINE
  8
0
 10
77.605
 11
77.686
 20
12.552
 21
12.723
  0
LINE
  8
0
 10
77.686
 11
77.786
 20
12.723
 21
12.882
  0
LINE
  8
0
 10
77.786
 11
77.907
 20
12.882
 21
13.027
  0
LINE
  8
0
 10
77.907
 11
78.044
 20
13.027
 21
13.156
  0
LINE
  8
0
 10
78.044
 11
78.196
 20
13.156
 21
13.266
  0
LINE
  8
0
 10
78.196
 11
78.361
 20
13.266
 21
13.357
  0
LINE
  8
0
 10
78.361
 11
78.536
 20
13.357
 21
13.427
  0
LINE
  8
0
 10
78.536
 11
78.719
 20
13.427
 21
13.473
  0
LINE
  8
0
 10
78.719
 11
78.906
 20
13.473
 21
13.497
  0
LINE
  8
0
 10
78.906
 11
79.094
 20
13.497
 21
13.497
  0
LINE
  8
0
 10
79.094
 11
79.281
 20
13.497
 21
13.473
  0
LINE
  8
0
 10
79.281
 11
79.464
 20
13.473
 21
13.427
  0
LINE
  8
0
 10
79.464
 11
79.639
 20
13.427
 21
13.357
  0
LINE
  8
0
 10
79.639
 11
79.804
 20
13.357
 21
13.266
  0
LINE
  8
0
 10
79.804
 11
79.956
 20
13.266
 21
13.156
  0
LINE
  8
0
 10
79.956
 11
80.093
 20
13.156
 21
13.027
  0
LINE
  8
0
 10
80.093
 11
80.214
 20
13.027
 21
12.882
  0
LINE
  8
0
 10
80.214
 11
80.314
 20
12.882
 21
12.723
  0
LINE
  8
0
 10
80.314
 11
80.395
 20
12.723
 21
12.552
  0
LINE
  8
0
 10
80.395
 11
80.453
 20
12.552
 21
12.373
  0
LINE
  8
0
 10
80.453
 11
80.488
 20
12.373
 21
12.188
  0
LINE
  8
0
 10
80.488
 11
80.5
 20
12.188
 21
12
  0
LINE
  8
0
 10
80.5
 11
80.488
 20
12
 21
11.812
  0
LINE
  8
0
 10
80.488
 11
80.453
 20
11.812
 21
11.627
  0
LINE
  8
0
 10
80.453
 11
80.395
 20
11.627
 21
11.448
  0
LINE
  8
0
 10
80.395
 11
80.314
 20
11.448
 21
11.277
  0
LINE
  8
0
 10
80.314
 11
80.214
 20
11.277
 21
11.118
  0
LINE
  8
0
 10
80.214
 11
80.093
 20
11.118
 21
10.973
  0
LINE
  8
0
 10
80.093
 11
79.956
 20
10.973
 21
10.844
  0
LINE
  8
0
 10
79.956
 11
79.804
 20
10.844
 21
10.734
  0
LINE
  8
0
 10
79.804
 11
79.639
 20
10.734
 21
10.643
  0
LINE
  8
0
 10
79.639
 11
79.464
 20
10.643
 21
10.573
  0
LINE
  8
0
 10
79.464
 11
79.281
 20
10.573
 21
10.527
  0
LINE
  8
0
 10
79.281
 11
79.094
 20
10.527
 21
10.503
  0
LINE
  8
0
 10
79.094
 11
78.906
 20
10.503
 21
10.503
  0
LINE
  8
0
 10
78.906
 11
78.719
 20
10.503
 21
10.527
  0
LINE
  8
0
 10
78.719
 11
78.536
 20
10.527
 21
10.573
  0
LINE
  8
0
 10
78.536
 11
78.361
 20
10.573
 21
10.643
  0
LINE
  8
0
 10
78.361
 11
78.196
 20
10.643
 21
10.734
  0
LINE
  8
0
 10
78.196
 11
78.044
 20
10.734
 21
10.844
  0
LINE
  8
0
 10
78.044
 11
77.907
 20
10.844
 21
10.973
  0
LINE
  8
0
 10
77.907
 11
77.786
 20
10.973
 21
11.118
  0
LINE
  8
0
 10
77.786
 11
77.686
 20
11.118
 21
11.277
  0
LINE
  8
0
 10
77.686
 11
77.605
 20
11.277
 21
11.448
  0
LINE
  8
0
 10
77.605
 11
77.547
 20
11.448
 21
11.627
  0
LINE
  8
0
 10
77.547
 11
77.512
 20
11.627
 21
11.812
  0
LINE
  8
0
 10
77.512
 11
77.5
 20
11.812
 21
12
  0
LINE
  8
0
 10
104.1
 11
104.116
 20
-60
 21
-59.749
  0
LINE
  8
0
 10
104.116
 11
104.163
 20
-59.749
 21
-59.503
  0
LINE
  8
0
 10
104.163
 11
104.24
 20
-59.503
 21
-59.264
  0
LINE
  8
0
 10
104.24
 11
104.347
 20
-59.264
 21
-59.036
  0
LINE
  8
0
 10
104.347
 11
104.482
 20
-59.036
 21
-58.824
  0
LINE
  8
0
 10
104.482
 11
104.642
 20
-58.824
 21
-58.631
  0
LINE
  8
0
 10
104.642
 11
104.825
 20
-58.631
 21
-58.459
  0
LINE
  8
0
 10
104.825
 11
105.028
 20
-58.459
 21
-58.311
  0
LINE
  8
0
 10
105.028
 11
105.248
 20
-58.311
 21
-58.19
  0
LINE
  8
0
 10
105.248
 11
105.482
 20
-58.19
 21
-58.098
  0
LINE
  8
0
 10
105.482
 11
105.725
 20
-58.098
 21
-58.035
  0
LINE
  8
0
 10
105.725
 11
105.974
 20
-58.035
 21
-58.004
  0
LINE
  8
0
 10
105.974
 11
106.226
 20
-58.004
 21
-58.004
  0
LINE
  8
0
 10
106.226
 11
106.475
 20
-58.004
 21
-58.035
  0
LINE
  8
0
 10
106.475
 11
106.718
 20
-58.035
 21
-58.098
  0
LINE
  8
0
 10
106.718
 11
106.952
 20
-58.098
 21
-58.19
  0
LINE
  8
0
 10
106.952
 11
107.172
 20
-58.19
 21
-58.311
  0
LINE
  8
0
 10
107.172
 11
107.375
 20
-58.311
 21
-58.459
  0
LINE
  8
0
 10
107.375
 11
107.558
 20
-58.459
 21
-58.631
  0
LINE
  8
0
 10
107.558
 11
107.718
 20
-58.631
 21
-58.824
  0
LINE
  8
0
 10
107.718
 11
107.853
 20
-58.824
 21
-59.036
  0
LINE
  8
0
 10
107.853
 11
107.96
 20
-59.036
 21
-59.264
  0
LINE
  8
0
 10
107.96
 11
108.037
 20
-59.264
 21
-59.503
  0
LINE
  8
0
 10
108.037
 11
108.084
 20
-59.503
 21
-59.749
  0
LINE
  8
0
 10
108.084
 11
108.1
 20
-59.749
 21
-60
  0
LINE
  8
0
 10
108.1
 11
108.084
 20
-60
 21
-60.251
  0
LINE
  8
0
 10
108.084
 11
108.037
 20
-60.251
 21
-60.497
  0
LINE
  8
0
 10
108.037
 11
107.96
 20
-60.497
 21
-60.736
  0
LINE
  8
0
 10
107.96
 11
107.853
 20
-60.736
 21
-60.964
  0
LINE
  8
0
 10
107.853
 11
107.718
 20
-60.964
 21
-61.176
  0
LINE
  8
0
 10
107.718
 11
107.558
 20
-61.176
 21
-61.369
  0
LINE
  8
0
 10
107.558
 11
107.375
 20
-61.369
 21
-61.541
  0
LINE
  8
0
 10
107.375
 11
107.172
 20
-61.541
 21
-61.689
  0
LINE
  8
0
 10
107.172
 11
106.952
 20
-61.689
 21
-61.81
  0
LINE
  8
0
 10
106.952
 11
106.718
 20
-61.81
 21
-61.902
  0
LINE
  8
0
 10
106.718
 11
106.475
 20
-61.902
 21
-61.965
  0
LINE
  8
0
 10
106.475
 11
106.226
 20
-61.965
 21
-61.996
  0
LINE
  8
0
 10
106.226
 11
105.974
 20
-61.996
 21
-61.996
  0
LINE
  8
0
 10
105.974
 11
105.725
 20
-61.996
 21
-61.965
  0
LINE
  8
0
 10
105.725
 11
105.482
 20
-61.965
 21
-61.902
  0
LINE
  8
0
 10
105.482
 11
105.248
 20
-61.902
 21
-61.81
  0
LINE
  8
0
 10
105.248
 11
105.028
 20
-61.81
 21
-61.689
  0
LINE
  8
0
 10
105.028
 11
104.825
 20
-61.689
 21
-61.541
  0
LINE
  8
0
 10
104.825
 11
104.642
 20
-61.541
 21
-61.369
  0
LINE
  8
0
 10
104.642
 11
104.482
 20
-61.369
 21
-61.176
  0
LINE
  8
0
 10
104.482
 11
104.347
 20
-61.176
 21
-60.964
  0
LINE
  8
0
 10
104.347
 11
104.24
 20
-60.964
 21
-60.736
  0
LINE
  8
0
 10
104.24
 11
104.163
 20
-60.736
 21
-60.497
  0
LINE
  8
0
 10
104.163
 11
104.116
 20
-60.497
 21
-60.251
  0
LINE
  8
0
 10
104.116
 11
104.1
 20
-60.251
 21
-60
  0
LINE
  8
0
 10
104.1
 11
104.116
 20
60
 21
60.251
  0
LINE
  8
0
 10
104.116
 11
104.163
 20
60.251
 21
60.497
  0
LINE
  8
0
 10
104.163
 11
104.24
 20
60.497
 21
60.736
  0
LINE
  8
0
 10
104.24
 11
104.347
 20
60.736
 21
60.964
  0
LINE
  8
0
 10
104.347
 11
104.482
 20
60.964
 21
61.176
  0
LINE
  8
0
 10
104.482
 11
104.642
 20
61.176
 21
61.369
  0
LINE
  8
0
 10
104.642
 11
104.825
 20
61.369
 21
61.541
  0
LINE
  8
0
 10
104.825
 11
105.028
 20
61.541
 21
61.689
  0
LINE
  8
0
 10
105.028
 11
105.248
 20
61.689
 21
61.81
  0
LINE
  8
0
 10
105.248
 11
105.482
 20
61.81
 21
61.902
  0
LINE
  8
0
 10
105.482
 11
105.725
 20
61.902
 21
61.965
  0
LINE
  8
0
 10
105.725
 11
105.974
 20
61.965
 21
61.996
  0
LINE
  8
0
 10
105.974
 11
106.226
 20
61.996
 21
61.996
  0
LINE
  8
0
 10
106.226
 11
106.475
 20
61.996
 21
61.965
  0
LINE
  8
0
 10
106.475
 11
106.718
 20
61.965
 21
61.902
  0
LINE
  8
0
 10
106.718
 11
106.952
 20
61.902
 21
61.81
  0
LINE
  8
0
 10
106.952
 11
107.172
 20
61.81
 21
61.689
  0
LINE
  8
0
 10
107.172
 11
107.375
 20
61.689
 21
61.541
  0
LINE
  8
0
 10
107.375
 11
107.558
 20
61.541
 21
61.369
  0
LINE
  8
0
 10
107.558
 11
107.718
 20
61.369
 21
61.176
  0
LINE
  8
0
 10
107.718
 11
107.853
 20
61.176
 21
60.964
  0
LINE
  8
0
 10
107.853
 11
107.96
 20
60.964
 21
60.736
  0
LINE
  8
0
 10
107.96
 11
108.037
 20
60.736
 21
60.497
  0
LINE
  8
0
 10
108.037
 11
108.084
 20
60.497
 21
60.251
  0
LINE
  8
0
 10
108.084
 11
108.1
 20
60.251
 21
60
  0
LINE
  8
0
 10
108.1
 11
108.084
 20
60
 21
59.749
  0
LINE
  8
0
 10
108.084
 11
108.037
 20
59.749
 21
59.503
  0
LINE
  8
0
 10
108.037
 11
107.96
 20
59.503
 21
59.264
  0
LINE
  8
0
 10
107.96
 11
107.853
 20
59.264
 21
59.036
  0
LINE
  8
0
 10
107.853
 11
107.718
 20
59.036
 21
58.824
  0
LINE
  8
0
 10
107.718
 11
107.558
 20
58.824
 21
58.631
  0
LINE
  8
0
 10
107.558
 11
107.375
 20
58.631
 21
58.459
  0
LINE
  8
0
 10
107.375
 11
107.172
 20
58.459
 21
58.311
  0
LINE
  8
0
 10
107.172
 11
106.952
 20
58.311
 21
58.19
  0
LINE
  8
0
 10
106.952
 11
106.718
 20
58.19
 21
58.098
  0
LINE
  8
0
 10
106.718
 11
106.475
 20
58.098
 21
58.035
  0
LINE
  8
0
 10
106.475
 11
106.226
 20
58.035
 21
58.004
  0
LINE
  8
0
 10
106.226
 11
105.974
 20
58.004
 21
58.004
  0
LINE
  8
0
 10
105.974
 11
105.725
 20
58.004
 21
58.035
  0
LINE
  8
0
 10
105.725
 11
105.482
 20
58.035
 21
58.098
  0
LINE
  8
0
 10
105.482
 11
105.248
 20
58.098
 21
58.19
  0
LINE
  8
0
 10
105.248
 11
105.028
 20
58.19
 21
58.311
  0
LINE
  8
0
 10
105.028
 11
104.825
 20
58.311
 21
58.459
  0
LINE
  8
0
 10
104.825
 11
104.642
 20
58.459
 21
58.631
  0
LINE
  8
0
 10
104.642
 11
104.482
 20
58.631
 21
58.824
  0
LINE
  8
0
 10
104.482
 11
104.347
 20
58.824
 21
59.036
  0
LINE
  8
0
 10
104.347
 11
104.24
 20
59.036
 21
59.264
  0
LINE
  8
0
 10
104.24
 11
104.163
 20
59.264
 21
59.503
  0
LINE
  8
0
 10
104.163
 11
104.116
 20
59.503
 21
59.749
  0
LINE
  8
0
 10
104.116
 11
104.1
 20
59.749
 21
60
  0
ENDSEC
  0
SECTION
  2
OBJECTS
  0
DICTIONARY
  0
ENDSEC
  0
EOF
