  0
SECTION
  2
HEADER
  9
$ACADVER
  1
AC1014
  9
$HANDSEED
  5
FFFF
  9
$MEASUREMENT
 70
     1
  0
ENDSEC
  0
SECTION
  2
TABLES
  0
TABLE
  2
VPORT
  5
8
330
0
100
AcDbSymbolTable
 70
     4
  0
VPORT
  5
2E
330
8
100
AcDbSymbolTableRecord
100
AcDbViewportTableRecord
  2
*ACTIVE
 70
     0
 10
0.0
 20
0.0
 11
1.0
 21
1.0
 12
210.0
 22
148.5
 13
0.0
 23
0.0
 14
10.0
 24
10.0
 15
10.0
 25
10.0
 16
0.0
 26
0.0
 36
1.0
 17
0.0
 27
0.0
 37
0.0
 40
341.0
 41
1.24
 42
50.0
 43
0.0
 44
0.0
 50
0.0
 51
0.0
 71
     0
 72
   100
 73
     1
 74
     3
 75
     0
 76
     0
 77
     0
 78
     0
  0
ENDTAB
  0
TABLE
  2
LTYPE
  5
5
330
0
100
AcDbSymbolTable
 70
     1
  0
LTYPE
  5
14
330
5
100
AcDbSymbolTableRecord
100
AcDbLinetypeTableRecord
  2
BYBLOCK
 70
     0
  3

 72
    65
 73
     0
 40
0.0
  0
LTYPE
  5
15
330
5
100
AcDbSymbolTableRecord
100
AcDbLinetypeTableRecord
  2
BYLAYER
 70
     0
  3

 72
    65
 73
     0
 40
0.0
  0
LTYPE
  5
16
330
5
100
AcDbSymbolTableRecord
100
AcDbLinetypeTableRecord
  2
CONTINUOUS
 70
     0
  3
Solid line
 72
    65
 73
     0
 40
0.0
  0
ENDTAB
  0
TABLE
  2
LAYER
  5
2
100
AcDbSymbolTable
 70
2
  0
LAYER
  5
50
100
AcDbSymbolTableRecord
100
AcDbLayerTableRecord
  2
0
 70
0
  6
CONTINUOUS
  0
LAYER
  5
51
100
AcDbSymbolTableRecord
100
AcDbLayerTableRecord
  2
AM_0
 70
0
  6
CONTINUOUS
  0
ENDTAB
  0
TABLE
  2
STYLE
  5
3
330
0
100
AcDbSymbolTable
 70
     1
  0
STYLE
  5
11
330
3
100
AcDbSymbolTableRecord
100
AcDbTextStyleTableRecord
  2
STANDARD
 70
     0
 40
0.0
 41
1.0
 50
0.0
 71
     0
 42
2.5
  3
txt
  4

  0
ENDTAB
  0
TABLE
  2
VIEW
  5
6
330
0
100
AcDbSymbolTable
 70
     0
  0
ENDTAB
  0
TABLE
  2
UCS
  5
7
330
0
100
AcDbSymbolTable
 70
     0
  0
ENDTAB
  0
TABLE
  2
APPID
  5
9
330
0
100
AcDbSymbolTable
 70
     2
  0
APPID
  5
12
330
9
100
AcDbSymbolTableRecord
100
AcDbRegAppTableRecord
  2
ACAD
 70
     0
  0
ENDTAB
  0
TABLE
  2
DIMSTYLE
  5
A
330
0
100
AcDbSymbolTable
 70
     1
  0
DIMSTYLE
105
27
330
A
100
AcDbSymbolTableRecord
100
AcDbDimStyleTableRecord
  2
ISO-25
 70
     0
  3

  4

  5

  6

  7

 40
1.0
 41
2.5
 42
0.625
 43
3.75
 44
1.25
 45
0.0
 46
0.0
 47
0.0
 48
0.0
140
2.5
141
2.5
142
0.0
143
0.03937007874016
144
1.0
145
0.0
146
1.0
147
0.625
 71
     0
 72
     0
 73
     0
 74
     0
 75
     0
 76
     0
 77
     1
 78
     8
170
     0
171
     3
172
     1
173
     0
174
     0
175
     0
176
     0
177
     0
178
     0
270
     2
271
     2
272
     2
273
     2
274
     3
340
11
275
     0
280
     0
281
     0
282
     0
283
     0
284
     8
285
     0
286
     0
287
     3
288
     0
  0
ENDTAB
  0
TABLE
  2
BLOCK_RECORD
  5
1
330
0
100
AcDbSymbolTable
 70
     1
  0
BLOCK_RECORD
  5
1F
330
1
100
AcDbSymbolTableRecord
100
AcDbBlockTableRecord
  2
*MODEL_SPACE
  0
BLOCK_RECORD
  5
1B
330
1
100
AcDbSymbolTableRecord
100
AcDbBlockTableRecord
  2
*PAPER_SPACE
  0
ENDTAB
  0
ENDSEC
  0
SECTION
  2
BLOCKS
  0
BLOCK
  5
20
330
1F
100
AcDbEntity
  8
0
100
AcDbBlockBegin
  2
*MODEL_SPACE
 70
     0
 10
0.0
 20
0.0
 30
0.0
  3
*MODEL_SPACE
  1

  0
ENDBLK
  5
21
330
1F
100
AcDbEntity
  8
0
100
AcDbBlockEnd
  0
BLOCK
  5
1C
330
1B
100
AcDbEntity
 67
     1
  8
0
100
AcDbBlockBegin
  2
*PAPER_SPACE
  1

  0
ENDBLK
  5
1D
330
1B
100
AcDbEntity
 67
     1
  8
0
100
AcDbBlockEnd
  0
ENDSEC
  0
SECTION
  2
ENTITIES
  0
SPLINE
  5
100
100
AcDbEntity
  8
AM_0
 62
7
100
AcDbSpline
 70
0
 71
3
 72
10
 73
6
 74
4
 40
0.000000
 40
0.000000
 40
0.000000
 40
0.000000
 40
0.418287
 40
0.824168
 40
1.242456
 40
1.242456
 40
1.242456
 40
1.242456
 10
-2.500000
 20
9.200000
 30
0.0
 10
-2.522004
 20
9.340181
 30
0.0
 10
-2.565360
 20
9.616384
 30
0.0
 10
-2.883616
 20
9.934640
 30
0.0
 10
-3.159819
 20
9.977996
 30
0.0
 10
-3.300000
 20
10.000000
 30
0.0
 11
-2.500000
 21
9.200000
 31
0.0
 11
-2.609223
 21
9.603775
 31
0.0
 11
-2.896225
 21
9.890776
 31
0.0
 11
-3.300000
 21
10.000000
 31
0.0
  0
LWPOLYLINE
  5
101
100
AcDbEntity
  8
AM_0
 62
7
100
AcDbPolyline
 90
2
 70
0
 10
-2.500000
 20
9.200000
 30
0.0
 10
-2.500000
 20
8.500000
 30
0.0
  0
SPLINE
  5
102
100
AcDbEntity
  8
AM_0
 62
7
100
AcDbSpline
 70
0
 71
3
 72
13
 73
9
 74
7
 40
0.000000
 40
0.000000
 40
0.000000
 40
0.000000
 40
0.078533
 40
0.156415
 40
0.234948
 40
0.313480
 40
0.391363
 40
0.469895
 40
0.469895
 40
0.469895
 40
0.469895
 10
-2.800000
 20
8.200000
 30
0.0
 10
-2.773746
 20
8.202000
 30
0.0
 10
-2.721455
 20
8.205983
 30
0.0
 10
-2.648303
 20
8.237461
 30
0.0
 10
-2.585351
 20
8.285351
 30
0.0
 10
-2.537461
 20
8.348303
 30
0.0
 10
-2.505983
 20
8.421455
 30
0.0
 10
-2.502000
 20
8.473746
 30
0.0
 10
-2.500000
 20
8.500000
 30
0.0
 11
-2.800000
 21
8.200000
 31
0.0
 11
-2.722143
 21
8.210278
 31
0.0
 11
-2.650189
 21
8.240082
 31
0.0
 11
-2.587868
 21
8.287868
 31
0.0
 11
-2.540083
 21
8.350189
 31
0.0
 11
-2.510278
 21
8.422143
 31
0.0
 11
-2.500000
 21
8.500000
 31
0.0
  0
LWPOLYLINE
  5
103
100
AcDbEntity
  8
AM_0
 62
7
100
AcDbPolyline
 90
2
 70
0
 10
-2.800000
 20
8.200000
 30
0.0
 10
-4.995837
 20
8.200000
 30
0.0
  0
SPLINE
  5
104
100
AcDbEntity
  8
AM_0
 62
7
100
AcDbSpline
 70
0
 71
3
 72
13
 73
9
 74
7
 40
0.000000
 40
0.000000
 40
0.000000
 40
0.000000
 40
0.314014
 40
0.622436
 40
0.936450
 40
1.250464
 40
1.558886
 40
1.872900
 40
1.872900
 40
1.872900
 40
1.872900
 10
-4.995837
 20
8.200000
 30
0.0
 10
-5.101191
 20
8.187837
 30
0.0
 10
-5.310022
 20
8.163729
 30
0.0
 10
-5.576036
 20
7.978981
 30
0.0
 10
-5.754703
 20
7.714332
 30
0.0
 10
-5.815501
 20
7.400861
 30
0.0
 10
-5.758037
 20
7.082124
 30
0.0
 10
-5.627419
 20
6.917411
 30
0.0
 10
-5.561523
 20
6.834314
 30
0.0
 11
-4.995837
 21
8.200000
 31
0.0
 11
-5.303749
 21
8.138395
 31
0.0
 11
-5.560193
 21
7.967045
 31
0.0
 11
-5.734941
 21
7.706147
 31
0.0
 11
-5.795858
 21
7.398098
 31
0.0
 11
-5.735688
 21
7.095602
 31
0.0
 11
-5.561523
 21
6.834314
 31
0.0
  0
LWPOLYLINE
  5
105
100
AcDbEntity
  8
AM_0
 62
7
100
AcDbPolyline
 90
2
 70
0
 10
-5.561523
 20
6.834314
 30
0.0
 10
-3.255886
 20
4.528679
 30
0.0
  0
SPLINE
  5
106
100
AcDbEntity
  8
AM_0
 62
7
100
AcDbSpline
 70
0
 71
3
 72
10
 73
6
 74
4
 40
0.000000
 40
0.000000
 40
0.000000
 40
0.000000
 40
0.785324
 40
1.564150
 40
2.349474
 40
2.349474
 40
2.349474
 40
2.349474
 10
-3.255886
 20
4.528679
 30
0.0
 10
-3.056101
 20
4.357967
 30
0.0
 10
-2.658185
 20
4.017957
 30
0.0
 10
-1.918340
 20
3.711503
 30
0.0
 10
-1.396547
 20
3.670558
 30
0.0
 10
-1.134566
 20
3.650000
 30
0.0
 11
-3.255886
 21
4.528679
 31
0.0
 11
-2.632677
 21
4.050825
 31
0.0
 11
-1.913136
 21
3.752782
 31
0.0
 11
-1.134566
 21
3.650000
 31
0.0
  0
LWPOLYLINE
  5
107
100
AcDbEntity
  8
AM_0
 62
7
100
AcDbPolyline
 90
2
 70
0
 10
-1.134566
 20
3.650000
 30
0.0
 10
1.134566
 20
3.650000
 30
0.0
  0
SPLINE
  5
108
100
AcDbEntity
  8
AM_0
 62
7
100
AcDbSpline
 70
0
 71
3
 72
10
 73
6
 74
4
 40
0.000000
 40
0.000000
 40
0.000000
 40
0.000000
 40
0.785324
 40
1.564150
 40
2.349474
 40
2.349474
 40
2.349474
 40
2.349474
 10
1.134566
 20
3.650000
 30
0.0
 10
1.396547
 20
3.670558
 30
0.0
 10
1.918340
 20
3.711503
 30
0.0
 10
2.658185
 20
4.017957
 30
0.0
 10
3.056101
 20
4.357967
 30
0.0
 10
3.255886
 20
4.528679
 30
0.0
 11
1.134566
 21
3.650000
 31
0.0
 11
1.913136
 21
3.752782
 31
0.0
 11
2.632677
 21
4.050825
 31
0.0
 11
3.255886
 21
4.528679
 31
0.0
  0
LWPOLYLINE
  5
109
100
AcDbEntity
  8
AM_0
 62
7
100
AcDbPolyline
 90
2
 70
0
 10
3.255886
 20
4.528679
 30
0.0
 10
5.561523
 20
6.834314
 30
0.0
  0
SPLINE
  5
10a
100
AcDbEntity
  8
AM_0
 62
7
100
AcDbSpline
 70
0
 71
3
 72
13
 73
9
 74
7
 40
0.000000
 40
0.000000
 40
0.000000
 40
0.000000
 40
0.314014
 40
0.622436
 40
0.936450
 40
1.250464
 40
1.558886
 40
1.872900
 40
1.872900
 40
1.872900
 40
1.872900
 10
5.561523
 20
6.834314
 30
0.0
 10
5.627419
 20
6.917411
 30
0.0
 10
5.758037
 20
7.082124
 30
0.0
 10
5.815501
 20
7.400861
 30
0.0
 10
5.754703
 20
7.714332
 30
0.0
 10
5.576036
 20
7.978981
 30
0.0
 10
5.310022
 20
8.163729
 30
0.0
 10
5.101191
 20
8.187837
 30
0.0
 10
4.995837
 20
8.200000
 30
0.0
 11
5.561523
 21
6.834314
 31
0.0
 11
5.735688
 21
7.095602
 31
0.0
 11
5.795858
 21
7.398098
 31
0.0
 11
5.734941
 21
7.706147
 31
0.0
 11
5.560193
 21
7.967045
 31
0.0
 11
5.303749
 21
8.138395
 31
0.0
 11
4.995837
 21
8.200000
 31
0.0
  0
LWPOLYLINE
  5
10b
100
AcDbEntity
  8
AM_0
 62
7
100
AcDbPolyline
 90
2
 70
0
 10
4.995837
 20
8.200000
 30
0.0
 10
2.800000
 20
8.200000
 30
0.0
  0
SPLINE
  5
10c
100
AcDbEntity
  8
AM_0
 62
7
100
AcDbSpline
 70
0
 71
3
 72
13
 73
9
 74
7
 40
0.000000
 40
0.000000
 40
0.000000
 40
0.000000
 40
0.078533
 40
0.156415
 40
0.234948
 40
0.313480
 40
0.391363
 40
0.469895
 40
0.469895
 40
0.469895
 40
0.469895
 10
2.500000
 20
8.500000
 30
0.0
 10
2.502000
 20
8.473746
 30
0.0
 10
2.505983
 20
8.421455
 30
0.0
 10
2.537461
 20
8.348303
 30
0.0
 10
2.585351
 20
8.285351
 30
0.0
 10
2.648303
 20
8.237461
 30
0.0
 10
2.721455
 20
8.205983
 30
0.0
 10
2.773746
 20
8.202000
 30
0.0
 10
2.800000
 20
8.200000
 30
0.0
 11
2.500000
 21
8.500000
 31
0.0
 11
2.510278
 21
8.422143
 31
0.0
 11
2.540083
 21
8.350189
 31
0.0
 11
2.587868
 21
8.287868
 31
0.0
 11
2.650189
 21
8.240082
 31
0.0
 11
2.722143
 21
8.210278
 31
0.0
 11
2.800000
 21
8.200000
 31
0.0
  0
LWPOLYLINE
  5
10d
100
AcDbEntity
  8
AM_0
 62
7
100
AcDbPolyline
 90
2
 70
0
 10
2.500000
 20
8.500000
 30
0.0
 10
2.500000
 20
9.200000
 30
0.0
  0
SPLINE
  5
10e
100
AcDbEntity
  8
AM_0
 62
7
100
AcDbSpline
 70
0
 71
3
 72
10
 73
6
 74
4
 40
0.000000
 40
0.000000
 40
0.000000
 40
0.000000
 40
0.418287
 40
0.824168
 40
1.242456
 40
1.242456
 40
1.242456
 40
1.242456
 10
3.300000
 20
10.000000
 30
0.0
 10
3.159819
 20
9.977996
 30
0.0
 10
2.883616
 20
9.934640
 30
0.0
 10
2.565360
 20
9.616384
 30
0.0
 10
2.522004
 20
9.340181
 30
0.0
 10
2.500000
 20
9.200000
 30
0.0
 11
3.300000
 21
10.000000
 31
0.0
 11
2.896225
 21
9.890776
 31
0.0
 11
2.609223
 21
9.603775
 31
0.0
 11
2.500000
 21
9.200000
 31
0.0
  0
LWPOLYLINE
  5
10f
100
AcDbEntity
  8
AM_0
 62
7
100
AcDbPolyline
 90
2
 70
0
 10
3.300000
 20
10.000000
 30
0.0
 10
8.000000
 20
10.000000
 30
0.0
  0
SPLINE
  5
110
100
AcDbEntity
  8
AM_0
 62
7
100
AcDbSpline
 70
0
 71
3
 72
10
 73
6
 74
4
 40
0.000000
 40
0.000000
 40
0.000000
 40
0.000000
 40
1.045718
 40
2.060421
 40
3.106139
 40
3.106139
 40
3.106139
 40
3.106139
 10
10.000000
 20
8.000000
 30
0.0
 10
9.944990
 20
8.350452
 30
0.0
 10
9.836601
 20
9.040961
 30
0.0
 10
9.040961
 20
9.836601
 30
0.0
 10
8.350452
 20
9.944990
 30
0.0
 10
8.000000
 20
10.000000
 30
0.0
 11
10.000000
 21
8.000000
 31
0.0
 11
9.726941
 21
9.009438
 31
0.0
 11
9.009438
 21
9.726941
 31
0.0
 11
8.000000
 21
10.000000
 31
0.0
  0
LWPOLYLINE
  5
111
100
AcDbEntity
  8
AM_0
 62
7
100
AcDbPolyline
 90
2
 70
0
 10
10.000000
 20
8.000000
 30
0.0
 10
10.000000
 20
3.300000
 30
0.0
  0
SPLINE
  5
112
100
AcDbEntity
  8
AM_0
 62
7
100
AcDbSpline
 70
0
 71
3
 72
13
 73
9
 74
7
 40
0.000000
 40
0.000000
 40
0.000000
 40
0.000000
 40
0.209420
 40
0.417107
 40
0.626527
 40
0.835947
 40
1.043634
 40
1.253054
 40
1.253054
 40
1.253054
 40
1.253054
 10
9.200000
 20
2.500000
 30
0.0
 10
9.270011
 20
2.505333
 30
0.0
 10
9.409452
 20
2.515955
 30
0.0
 10
9.604525
 20
2.599895
 30
0.0
 10
9.772398
 20
2.727602
 30
0.0
 10
9.900105
 20
2.895475
 30
0.0
 10
9.984045
 20
3.090548
 30
0.0
 10
9.994667
 20
3.229989
 30
0.0
 10
10.000000
 20
3.300000
 30
0.0
 11
9.200000
 21
2.500000
 31
0.0
 11
9.407619
 21
2.527408
 31
0.0
 11
9.599496
 21
2.606887
 31
0.0
 11
9.765685
 21
2.734315
 31
0.0
 11
9.893113
 21
2.900504
 31
0.0
 11
9.972592
 21
3.092381
 31
0.0
 11
10.000000
 21
3.300000
 31
0.0
  0
LWPOLYLINE
  5
113
100
AcDbEntity
  8
AM_0
 62
7
100
AcDbPolyline
 90
2
 70
0
 10
9.200000
 20
2.500000
 30
0.0
 10
8.500003
 20
2.500000
 30
0.0
  0
SPLINE
  5
114
100
AcDbEntity
  8
AM_0
 62
7
100
AcDbSpline
 70
0
 71
3
 72
13
 73
9
 74
7
 40
0.000000
 40
0.000000
 40
0.000000
 40
0.000000
 40
0.078532
 40
0.156415
 40
0.234947
 40
0.313480
 40
0.391363
 40
0.469895
 40
0.469895
 40
0.469895
 40
0.469895
 10
8.200003
 20
2.800000
 30
0.0
 10
8.202003
 20
2.773746
 30
0.0
 10
8.205986
 20
2.721455
 30
0.0
 10
8.237464
 20
2.648303
 30
0.0
 10
8.285354
 20
2.585351
 30
0.0
 10
8.348306
 20
2.537461
 30
0.0
 10
8.421459
 20
2.505983
 30
0.0
 10
8.473749
 20
2.502000
 30
0.0
 10
8.500003
 20
2.500000
 30
0.0
 11
8.200003
 21
2.800000
 31
0.0
 11
8.210282
 21
2.722143
 31
0.0
 11
8.240086
 21
2.650189
 31
0.0
 11
8.287871
 21
2.587868
 31
0.0
 11
8.350192
 21
2.540083
 31
0.0
 11
8.422146
 21
2.510278
 31
0.0
 11
8.500003
 21
2.500000
 31
0.0
  0
LWPOLYLINE
  5
115
100
AcDbEntity
  8
AM_0
 62
7
100
AcDbPolyline
 90
2
 70
0
 10
8.200003
 20
2.800000
 30
0.0
 10
8.200003
 20
4.995834
 30
0.0
  0
SPLINE
  5
116
100
AcDbEntity
  8
AM_0
 62
7
100
AcDbSpline
 70
0
 71
3
 72
13
 73
9
 74
7
 40
0.000000
 40
0.000000
 40
0.000000
 40
0.000000
 40
0.314014
 40
0.622436
 40
0.936450
 40
1.250464
 40
1.558886
 40
1.872900
 40
1.872900
 40
1.872900
 40
1.872900
 10
8.200003
 20
4.995834
 30
0.0
 10
8.187841
 20
5.101187
 30
0.0
 10
8.163732
 20
5.310018
 30
0.0
 10
7.978984
 20
5.576032
 30
0.0
 10
7.714336
 20
5.754699
 30
0.0
 10
7.400864
 20
5.815497
 30
0.0
 10
7.082128
 20
5.758034
 30
0.0
 10
6.917415
 20
5.627415
 30
0.0
 10
6.834318
 20
5.561519
 30
0.0
 11
8.200003
 21
4.995834
 31
0.0
 11
8.138398
 21
5.303745
 31
0.0
 11
7.967048
 21
5.560189
 31
0.0
 11
7.706150
 21
5.734937
 31
0.0
 11
7.398102
 21
5.795854
 31
0.0
 11
7.095606
 21
5.735684
 31
0.0
 11
6.834318
 21
5.561519
 31
0.0
  0
LWPOLYLINE
  5
117
100
AcDbEntity
  8
AM_0
 62
7
100
AcDbPolyline
 90
2
 70
0
 10
6.834318
 20
5.561519
 30
0.0
 10
4.528682
 20
3.255884
 30
0.0
  0
SPLINE
  5
118
100
AcDbEntity
  8
AM_0
 62
7
100
AcDbSpline
 70
0
 71
3
 72
10
 73
6
 74
4
 40
0.000000
 40
0.000000
 40
0.000000
 40
0.000000
 40
0.785325
 40
1.564151
 40
2.349476
 40
2.349476
 40
2.349476
 40
2.349476
 10
4.528682
 20
3.255884
 30
0.0
 10
4.357970
 20
3.056099
 30
0.0
 10
4.017959
 20
2.658183
 30
0.0
 10
3.711505
 20
1.918338
 30
0.0
 10
3.670560
 20
1.396544
 30
0.0
 10
3.650002
 20
1.134563
 30
0.0
 11
4.528682
 21
3.255884
 31
0.0
 11
4.050827
 21
2.632675
 31
0.0
 11
3.752783
 21
1.913133
 31
0.0
 11
3.650002
 21
1.134563
 31
0.0
  0
LWPOLYLINE
  5
119
100
AcDbEntity
  8
AM_0
 62
7
100
AcDbPolyline
 90
2
 70
0
 10
3.650002
 20
1.134563
 30
0.0
 10
3.650002
 20
-1.134563
 30
0.0
  0
SPLINE
  5
11a
100
AcDbEntity
  8
AM_0
 62
7
100
AcDbSpline
 70
0
 71
3
 72
10
 73
6
 74
4
 40
0.000000
 40
0.000000
 40
0.000000
 40
0.000000
 40
0.785325
 40
1.564151
 40
2.349476
 40
2.349476
 40
2.349476
 40
2.349476
 10
3.650002
 20
-1.134563
 30
0.0
 10
3.670560
 20
-1.396544
 30
0.0
 10
3.711505
 20
-1.918338
 30
0.0
 10
4.017959
 20
-2.658183
 30
0.0
 10
4.357970
 20
-3.056100
 30
0.0
 10
4.528682
 20
-3.255884
 30
0.0
 11
3.650002
 21
-1.134563
 31
0.0
 11
3.752783
 21
-1.913133
 31
0.0
 11
4.050827
 21
-2.632675
 31
0.0
 11
4.528682
 21
-3.255884
 31
0.0
  0
LWPOLYLINE
  5
11b
100
AcDbEntity
  8
AM_0
 62
7
100
AcDbPolyline
 90
2
 70
0
 10
4.528682
 20
-3.255884
 30
0.0
 10
6.834318
 20
-5.561519
 30
0.0
  0
SPLINE
  5
11c
100
AcDbEntity
  8
AM_0
 62
7
100
AcDbSpline
 70
0
 71
3
 72
13
 73
9
 74
7
 40
0.000000
 40
0.000000
 40
0.000000
 40
0.000000
 40
0.314014
 40
0.622436
 40
0.936450
 40
1.250464
 40
1.558886
 40
1.872900
 40
1.872900
 40
1.872900
 40
1.872900
 10
6.834318
 20
-5.561519
 30
0.0
 10
6.917415
 20
-5.627415
 30
0.0
 10
7.082128
 20
-5.758034
 30
0.0
 10
7.400864
 20
-5.815497
 30
0.0
 10
7.714336
 20
-5.754699
 30
0.0
 10
7.978984
 20
-5.576032
 30
0.0
 10
8.163732
 20
-5.310018
 30
0.0
 10
8.187841
 20
-5.101187
 30
0.0
 10
8.200003
 20
-4.995834
 30
0.0
 11
6.834318
 21
-5.561519
 31
0.0
 11
7.095606
 21
-5.735684
 31
0.0
 11
7.398102
 21
-5.795854
 31
0.0
 11
7.706150
 21
-5.734937
 31
0.0
 11
7.967048
 21
-5.560189
 31
0.0
 11
8.138398
 21
-5.303745
 31
0.0
 11
8.200003
 21
-4.995834
 31
0.0
  0
LWPOLYLINE
  5
11d
100
AcDbEntity
  8
AM_0
 62
7
100
AcDbPolyline
 90
2
 70
0
 10
8.200003
 20
-4.995834
 30
0.0
 10
8.200003
 20
-2.800000
 30
0.0
  0
SPLINE
  5
11e
100
AcDbEntity
  8
AM_0
 62
7
100
AcDbSpline
 70
0
 71
3
 72
13
 73
9
 74
7
 40
0.000000
 40
0.000000
 40
0.000000
 40
0.000000
 40
0.078533
 40
0.156415
 40
0.234948
 40
0.313480
 40
0.391363
 40
0.469895
 40
0.469895
 40
0.469895
 40
0.469895
 10
8.500003
 20
-2.500000
 30
0.0
 10
8.473749
 20
-2.502000
 30
0.0
 10
8.421459
 20
-2.505983
 30
0.0
 10
8.348306
 20
-2.537461
 30
0.0
 10
8.285354
 20
-2.585351
 30
0.0
 10
8.237464
 20
-2.648303
 30
0.0
 10
8.205986
 20
-2.721455
 30
0.0
 10
8.202003
 20
-2.773746
 30
0.0
 10
8.200003
 20
-2.800000
 30
0.0
 11
8.500003
 21
-2.500000
 31
0.0
 11
8.422146
 21
-2.510278
 31
0.0
 11
8.350192
 21
-2.540082
 31
0.0
 11
8.287871
 21
-2.587868
 31
0.0
 11
8.240086
 21
-2.650189
 31
0.0
 11
8.210281
 21
-2.722143
 31
0.0
 11
8.200003
 21
-2.800000
 31
0.0
  0
LWPOLYLINE
  5
11f
100
AcDbEntity
  8
AM_0
 62
7
100
AcDbPolyline
 90
2
 70
0
 10
8.500003
 20
-2.500000
 30
0.0
 10
9.200000
 20
-2.500000
 30
0.0
  0
SPLINE
  5
120
100
AcDbEntity
  8
AM_0
 62
7
100
AcDbSpline
 70
0
 71
3
 72
13
 73
9
 74
7
 40
0.000000
 40
0.000000
 40
0.000000
 40
0.000000
 40
0.209420
 40
0.417107
 40
0.626527
 40
0.835947
 40
1.043634
 40
1.253054
 40
1.253054
 40
1.253054
 40
1.253054
 10
10.000000
 20
-3.300000
 30
0.0
 10
9.994667
 20
-3.229989
 30
0.0
 10
9.984045
 20
-3.090548
 30
0.0
 10
9.900105
 20
-2.895475
 30
0.0
 10
9.772398
 20
-2.727602
 30
0.0
 10
9.604525
 20
-2.599895
 30
0.0
 10
9.409452
 20
-2.515955
 30
0.0
 10
9.270011
 20
-2.505333
 30
0.0
 10
9.200000
 20
-2.500000
 30
0.0
 11
10.000000
 21
-3.300000
 31
0.0
 11
9.972592
 21
-3.092381
 31
0.0
 11
9.893113
 21
-2.900504
 31
0.0
 11
9.765685
 21
-2.734314
 31
0.0
 11
9.599496
 21
-2.606887
 31
0.0
 11
9.407619
 21
-2.527408
 31
0.0
 11
9.200000
 21
-2.500000
 31
0.0
  0
LWPOLYLINE
  5
121
100
AcDbEntity
  8
AM_0
 62
7
100
AcDbPolyline
 90
2
 70
0
 10
10.000000
 20
-3.300000
 30
0.0
 10
10.000000
 20
-8.000000
 30
0.0
  0
SPLINE
  5
122
100
AcDbEntity
  8
AM_0
 62
7
100
AcDbSpline
 70
0
 71
3
 72
13
 73
9
 74
7
 40
0.000000
 40
0.000000
 40
0.000000
 40
0.000000
 40
0.523550
 40
1.042767
 40
1.566317
 40
2.089867
 40
2.609084
 40
3.132634
 40
3.132634
 40
3.132634
 40
3.132634
 10
8.000000
 20
-10.000000
 30
0.0
 10
8.175027
 20
-9.986668
 30
0.0
 10
8.523631
 20
-9.960113
 30
0.0
 10
9.011313
 20
-9.750263
 30
0.0
 10
9.430996
 20
-9.430996
 30
0.0
 10
9.750263
 20
-9.011313
 30
0.0
 10
9.960113
 20
-8.523631
 30
0.0
 10
9.986668
 20
-8.175026
 30
0.0
 10
10.000000
 20
-8.000000
 30
0.0
 11
8.000000
 21
-10.000000
 31
0.0
 11
8.519047
 21
-9.931479
 31
0.0
 11
8.998741
 21
-9.732783
 31
0.0
 11
9.414214
 21
-9.414214
 31
0.0
 11
9.732783
 21
-8.998741
 31
0.0
 11
9.931479
 21
-8.519046
 31
0.0
 11
10.000000
 21
-8.000000
 31
0.0
  0
LWPOLYLINE
  5
123
100
AcDbEntity
  8
AM_0
 62
7
100
AcDbPolyline
 90
2
 70
0
 10
8.000000
 20
-10.000000
 30
0.0
 10
3.300000
 20
-10.000000
 30
0.0
  0
SPLINE
  5
124
100
AcDbEntity
  8
AM_0
 62
7
100
AcDbSpline
 70
0
 71
3
 72
10
 73
6
 74
4
 40
0.000000
 40
0.000000
 40
0.000000
 40
0.000000
 40
0.418287
 40
0.824168
 40
1.242456
 40
1.242456
 40
1.242456
 40
1.242456
 10
2.500000
 20
-9.200000
 30
0.0
 10
2.522004
 20
-9.340181
 30
0.0
 10
2.565360
 20
-9.616384
 30
0.0
 10
2.883616
 20
-9.934640
 30
0.0
 10
3.159819
 20
-9.977996
 30
0.0
 10
3.300000
 20
-10.000000
 30
0.0
 11
2.500000
 21
-9.200000
 31
0.0
 11
2.609223
 21
-9.603775
 31
0.0
 11
2.896225
 21
-9.890777
 31
0.0
 11
3.300000
 21
-10.000000
 31
0.0
  0
LWPOLYLINE
  5
125
100
AcDbEntity
  8
AM_0
 62
7
100
AcDbPolyline
 90
2
 70
0
 10
2.500000
 20
-9.200000
 30
0.0
 10
2.500000
 20
-8.500000
 30
0.0
  0
SPLINE
  5
126
100
AcDbEntity
  8
AM_0
 62
7
100
AcDbSpline
 70
0
 71
3
 72
13
 73
9
 74
7
 40
0.000000
 40
0.000000
 40
0.000000
 40
0.000000
 40
0.078532
 40
0.156415
 40
0.234947
 40
0.313480
 40
0.391363
 40
0.469895
 40
0.469895
 40
0.469895
 40
0.469895
 10
2.800000
 20
-8.200000
 30
0.0
 10
2.773746
 20
-8.202000
 30
0.0
 10
2.721455
 20
-8.205983
 30
0.0
 10
2.648303
 20
-8.237461
 30
0.0
 10
2.585351
 20
-8.285351
 30
0.0
 10
2.537461
 20
-8.348303
 30
0.0
 10
2.505983
 20
-8.421455
 30
0.0
 10
2.502000
 20
-8.473746
 30
0.0
 10
2.500000
 20
-8.500000
 30
0.0
 11
2.800000
 21
-8.200000
 31
0.0
 11
2.722143
 21
-8.210278
 31
0.0
 11
2.650189
 21
-8.240083
 31
0.0
 11
2.587868
 21
-8.287868
 31
0.0
 11
2.540083
 21
-8.350189
 31
0.0
 11
2.510278
 21
-8.422143
 31
0.0
 11
2.500000
 21
-8.500000
 31
0.0
  0
LWPOLYLINE
  5
127
100
AcDbEntity
  8
AM_0
 62
7
100
AcDbPolyline
 90
2
 70
0
 10
2.800000
 20
-8.200000
 30
0.0
 10
4.995837
 20
-8.200000
 30
0.0
  0
SPLINE
  5
128
100
AcDbEntity
  8
AM_0
 62
7
100
AcDbSpline
 70
0
 71
3
 72
13
 73
9
 74
7
 40
0.000000
 40
0.000000
 40
0.000000
 40
0.000000
 40
0.314014
 40
0.622436
 40
0.936450
 40
1.250464
 40
1.558887
 40
1.872901
 40
1.872901
 40
1.872901
 40
1.872901
 10
4.995837
 20
-8.200000
 30
0.0
 10
5.101191
 20
-8.187838
 30
0.0
 10
5.310022
 20
-8.163729
 30
0.0
 10
5.576036
 20
-7.978981
 30
0.0
 10
5.754703
 20
-7.714332
 30
0.0
 10
5.815501
 20
-7.400861
 30
0.0
 10
5.758038
 20
-7.082124
 30
0.0
 10
5.627419
 20
-6.917411
 30
0.0
 10
5.561523
 20
-6.834314
 30
0.0
 11
4.995837
 21
-8.200000
 31
0.0
 11
5.303749
 21
-8.138395
 31
0.0
 11
5.560193
 21
-7.967045
 31
0.0
 11
5.734941
 21
-7.706147
 31
0.0
 11
5.795858
 21
-7.398098
 31
0.0
 11
5.735688
 21
-7.095602
 31
0.0
 11
5.561523
 21
-6.834314
 31
0.0
  0
LWPOLYLINE
  5
129
100
AcDbEntity
  8
AM_0
 62
7
100
AcDbPolyline
 90
2
 70
0
 10
5.561523
 20
-6.834314
 30
0.0
 10
3.255886
 20
-4.528679
 30
0.0
  0
SPLINE
  5
12a
100
AcDbEntity
  8
AM_0
 62
7
100
AcDbSpline
 70
0
 71
3
 72
10
 73
6
 74
4
 40
0.000000
 40
0.000000
 40
0.000000
 40
0.000000
 40
0.785324
 40
1.564150
 40
2.349474
 40
2.349474
 40
2.349474
 40
2.349474
 10
3.255886
 20
-4.528679
 30
0.0
 10
3.056101
 20
-4.357967
 30
0.0
 10
2.658185
 20
-4.017957
 30
0.0
 10
1.918340
 20
-3.711503
 30
0.0
 10
1.396547
 20
-3.670558
 30
0.0
 10
1.134566
 20
-3.650000
 30
0.0
 11
3.255886
 21
-4.528679
 31
0.0
 11
2.632677
 21
-4.050825
 31
0.0
 11
1.913136
 21
-3.752782
 31
0.0
 11
1.134566
 21
-3.650000
 31
0.0
  0
LWPOLYLINE
  5
12b
100
AcDbEntity
  8
AM_0
 62
7
100
AcDbPolyline
 90
2
 70
0
 10
1.134566
 20
-3.650000
 30
0.0
 10
-1.134566
 20
-3.650000
 30
0.0
  0
SPLINE
  5
12c
100
AcDbEntity
  8
AM_0
 62
7
100
AcDbSpline
 70
0
 71
3
 72
10
 73
6
 74
4
 40
0.000000
 40
0.000000
 40
0.000000
 40
0.000000
 40
0.785324
 40
1.564150
 40
2.349474
 40
2.349474
 40
2.349474
 40
2.349474
 10
-1.134566
 20
-3.650000
 30
0.0
 10
-1.396547
 20
-3.670558
 30
0.0
 10
-1.918340
 20
-3.711503
 30
0.0
 10
-2.658185
 20
-4.017957
 30
0.0
 10
-3.056101
 20
-4.357967
 30
0.0
 10
-3.255886
 20
-4.528679
 30
0.0
 11
-1.134566
 21
-3.650000
 31
0.0
 11
-1.913136
 21
-3.752782
 31
0.0
 11
-2.632677
 21
-4.050825
 31
0.0
 11
-3.255886
 21
-4.528679
 31
0.0
  0
LWPOLYLINE
  5
12d
100
AcDbEntity
  8
AM_0
 62
7
100
AcDbPolyline
 90
2
 70
0
 10
-3.255886
 20
-4.528679
 30
0.0
 10
-5.561523
 20
-6.834314
 30
0.0
  0
SPLINE
  5
12e
100
AcDbEntity
  8
AM_0
 62
7
100
AcDbSpline
 70
0
 71
3
 72
13
 73
9
 74
7
 40
0.000000
 40
0.000000
 40
0.000000
 40
0.000000
 40
0.314014
 40
0.622436
 40
0.936450
 40
1.250464
 40
1.558887
 40
1.872901
 40
1.872901
 40
1.872901
 40
1.872901
 10
-5.561523
 20
-6.834314
 30
0.0
 10
-5.627419
 20
-6.917411
 30
0.0
 10
-5.758038
 20
-7.082124
 30
0.0
 10
-5.815501
 20
-7.400861
 30
0.0
 10
-5.754703
 20
-7.714332
 30
0.0
 10
-5.576036
 20
-7.978981
 30
0.0
 10
-5.310022
 20
-8.163729
 30
0.0
 10
-5.101191
 20
-8.187838
 30
0.0
 10
-4.995837
 20
-8.200000
 30
0.0
 11
-5.561523
 21
-6.834314
 31
0.0
 11
-5.735688
 21
-7.095602
 31
0.0
 11
-5.795858
 21
-7.398098
 31
0.0
 11
-5.734941
 21
-7.706147
 31
0.0
 11
-5.560193
 21
-7.967045
 31
0.0
 11
-5.303749
 21
-8.138395
 31
0.0
 11
-4.995837
 21
-8.200000
 31
0.0
  0
LWPOLYLINE
  5
12f
100
AcDbEntity
  8
AM_0
 62
7
100
AcDbPolyline
 90
2
 70
0
 10
-4.995837
 20
-8.200000
 30
0.0
 10
-2.800000
 20
-8.200000
 30
0.0
  0
SPLINE
  5
130
100
AcDbEntity
  8
AM_0
 62
7
100
AcDbSpline
 70
0
 71
3
 72
13
 73
9
 74
7
 40
0.000000
 40
0.000000
 40
0.000000
 40
0.000000
 40
0.078532
 40
0.156415
 40
0.234947
 40
0.313480
 40
0.391363
 40
0.469895
 40
0.469895
 40
0.469895
 40
0.469895
 10
-2.500000
 20
-8.500000
 30
0.0
 10
-2.502000
 20
-8.473746
 30
0.0
 10
-2.505983
 20
-8.421455
 30
0.0
 10
-2.537461
 20
-8.348303
 30
0.0
 10
-2.585351
 20
-8.285351
 30
0.0
 10
-2.648303
 20
-8.237461
 30
0.0
 10
-2.721455
 20
-8.205983
 30
0.0
 10
-2.773746
 20
-8.202000
 30
0.0
 10
-2.800000
 20
-8.200000
 30
0.0
 11
-2.500000
 21
-8.500000
 31
0.0
 11
-2.510278
 21
-8.422143
 31
0.0
 11
-2.540083
 21
-8.350189
 31
0.0
 11
-2.587868
 21
-8.287868
 31
0.0
 11
-2.650189
 21
-8.240083
 31
0.0
 11
-2.722143
 21
-8.210278
 31
0.0
 11
-2.800000
 21
-8.200000
 31
0.0
  0
LWPOLYLINE
  5
131
100
AcDbEntity
  8
AM_0
 62
7
100
AcDbPolyline
 90
2
 70
0
 10
-2.500000
 20
-8.500000
 30
0.0
 10
-2.500000
 20
-9.200000
 30
0.0
  0
SPLINE
  5
132
100
AcDbEntity
  8
AM_0
 62
7
100
AcDbSpline
 70
0
 71
3
 72
10
 73
6
 74
4
 40
0.000000
 40
0.000000
 40
0.000000
 40
0.000000
 40
0.418287
 40
0.824168
 40
1.242456
 40
1.242456
 40
1.242456
 40
1.242456
 10
-3.300000
 20
-10.000000
 30
0.0
 10
-3.159819
 20
-9.977996
 30
0.0
 10
-2.883616
 20
-9.934640
 30
0.0
 10
-2.565360
 20
-9.616384
 30
0.0
 10
-2.522004
 20
-9.340181
 30
0.0
 10
-2.500000
 20
-9.200000
 30
0.0
 11
-3.300000
 21
-10.000000
 31
0.0
 11
-2.896225
 21
-9.890777
 31
0.0
 11
-2.609223
 21
-9.603775
 31
0.0
 11
-2.500000
 21
-9.200000
 31
0.0
  0
LWPOLYLINE
  5
133
100
AcDbEntity
  8
AM_0
 62
7
100
AcDbPolyline
 90
2
 70
0
 10
-3.300000
 20
-10.000000
 30
0.0
 10
-8.000000
 20
-10.000000
 30
0.0
  0
SPLINE
  5
134
100
AcDbEntity
  8
AM_0
 62
7
100
AcDbSpline
 70
0
 71
3
 72
13
 73
9
 74
7
 40
0.000000
 40
0.000000
 40
0.000000
 40
0.000000
 40
0.523550
 40
1.042767
 40
1.566317
 40
2.089867
 40
2.609084
 40
3.132634
 40
3.132634
 40
3.132634
 40
3.132634
 10
-10.000000
 20
-8.000000
 30
0.0
 10
-9.986668
 20
-8.175026
 30
0.0
 10
-9.960113
 20
-8.523631
 30
0.0
 10
-9.750263
 20
-9.011313
 30
0.0
 10
-9.430996
 20
-9.430996
 30
0.0
 10
-9.011313
 20
-9.750263
 30
0.0
 10
-8.523631
 20
-9.960113
 30
0.0
 10
-8.175027
 20
-9.986668
 30
0.0
 10
-8.000000
 20
-10.000000
 30
0.0
 11
-10.000000
 21
-8.000000
 31
0.0
 11
-9.931479
 21
-8.519046
 31
0.0
 11
-9.732783
 21
-8.998741
 31
0.0
 11
-9.414214
 21
-9.414214
 31
0.0
 11
-8.998741
 21
-9.732783
 31
0.0
 11
-8.519047
 21
-9.931479
 31
0.0
 11
-8.000000
 21
-10.000000
 31
0.0
  0
LWPOLYLINE
  5
135
100
AcDbEntity
  8
AM_0
 62
7
100
AcDbPolyline
 90
2
 70
0
 10
-10.000000
 20
-8.000000
 30
0.0
 10
-10.000000
 20
-3.300000
 30
0.0
  0
SPLINE
  5
136
100
AcDbEntity
  8
AM_0
 62
7
100
AcDbSpline
 70
0
 71
3
 72
13
 73
9
 74
7
 40
0.000000
 40
0.000000
 40
0.000000
 40
0.000000
 40
0.209420
 40
0.417107
 40
0.626527
 40
0.835947
 40
1.043634
 40
1.253054
 40
1.253054
 40
1.253054
 40
1.253054
 10
-9.200000
 20
-2.500000
 30
0.0
 10
-9.270011
 20
-2.505333
 30
0.0
 10
-9.409452
 20
-2.515955
 30
0.0
 10
-9.604525
 20
-2.599895
 30
0.0
 10
-9.772398
 20
-2.727602
 30
0.0
 10
-9.900105
 20
-2.895475
 30
0.0
 10
-9.984045
 20
-3.090548
 30
0.0
 10
-9.994667
 20
-3.229989
 30
0.0
 10
-10.000000
 20
-3.300000
 30
0.0
 11
-9.200000
 21
-2.500000
 31
0.0
 11
-9.407619
 21
-2.527408
 31
0.0
 11
-9.599496
 21
-2.606887
 31
0.0
 11
-9.765685
 21
-2.734314
 31
0.0
 11
-9.893113
 21
-2.900504
 31
0.0
 11
-9.972592
 21
-3.092381
 31
0.0
 11
-10.000000
 21
-3.300000
 31
0.0
  0
LWPOLYLINE
  5
137
100
AcDbEntity
  8
AM_0
 62
7
100
AcDbPolyline
 90
2
 70
0
 10
-9.200000
 20
-2.500000
 30
0.0
 10
-8.500003
 20
-2.500000
 30
0.0
  0
SPLINE
  5
138
100
AcDbEntity
  8
AM_0
 62
7
100
AcDbSpline
 70
0
 71
3
 72
13
 73
9
 74
7
 40
0.000000
 40
0.000000
 40
0.000000
 40
0.000000
 40
0.078533
 40
0.156415
 40
0.234948
 40
0.313480
 40
0.391363
 40
0.469895
 40
0.469895
 40
0.469895
 40
0.469895
 10
-8.200003
 20
-2.800000
 30
0.0
 10
-8.202003
 20
-2.773746
 30
0.0
 10
-8.205986
 20
-2.721455
 30
0.0
 10
-8.237464
 20
-2.648303
 30
0.0
 10
-8.285354
 20
-2.585351
 30
0.0
 10
-8.348306
 20
-2.537461
 30
0.0
 10
-8.421459
 20
-2.505983
 30
0.0
 10
-8.473749
 20
-2.502000
 30
0.0
 10
-8.500003
 20
-2.500000
 30
0.0
 11
-8.200003
 21
-2.800000
 31
0.0
 11
-8.210281
 21
-2.722143
 31
0.0
 11
-8.240086
 21
-2.650189
 31
0.0
 11
-8.287871
 21
-2.587868
 31
0.0
 11
-8.350192
 21
-2.540082
 31
0.0
 11
-8.422146
 21
-2.510278
 31
0.0
 11
-8.500003
 21
-2.500000
 31
0.0
  0
LWPOLYLINE
  5
139
100
AcDbEntity
  8
AM_0
 62
7
100
AcDbPolyline
 90
2
 70
0
 10
-8.200003
 20
-2.800000
 30
0.0
 10
-8.200003
 20
-4.995834
 30
0.0
  0
SPLINE
  5
13a
100
AcDbEntity
  8
AM_0
 62
7
100
AcDbSpline
 70
0
 71
3
 72
13
 73
9
 74
7
 40
0.000000
 40
0.000000
 40
0.000000
 40
0.000000
 40
0.314014
 40
0.622436
 40
0.936450
 40
1.250464
 40
1.558886
 40
1.872900
 40
1.872900
 40
1.872900
 40
1.872900
 10
-8.200003
 20
-4.995834
 30
0.0
 10
-8.187841
 20
-5.101187
 30
0.0
 10
-8.163732
 20
-5.310018
 30
0.0
 10
-7.978984
 20
-5.576032
 30
0.0
 10
-7.714336
 20
-5.754699
 30
0.0
 10
-7.400864
 20
-5.815497
 30
0.0
 10
-7.082128
 20
-5.758034
 30
0.0
 10
-6.917415
 20
-5.627415
 30
0.0
 10
-6.834318
 20
-5.561519
 30
0.0
 11
-8.200003
 21
-4.995834
 31
0.0
 11
-8.138398
 21
-5.303745
 31
0.0
 11
-7.967048
 21
-5.560189
 31
0.0
 11
-7.706150
 21
-5.734937
 31
0.0
 11
-7.398102
 21
-5.795854
 31
0.0
 11
-7.095606
 21
-5.735684
 31
0.0
 11
-6.834318
 21
-5.561519
 31
0.0
  0
LWPOLYLINE
  5
13b
100
AcDbEntity
  8
AM_0
 62
7
100
AcDbPolyline
 90
2
 70
0
 10
-6.834318
 20
-5.561519
 30
0.0
 10
-4.528682
 20
-3.255884
 30
0.0
  0
SPLINE
  5
13c
100
AcDbEntity
  8
AM_0
 62
7
100
AcDbSpline
 70
0
 71
3
 72
10
 73
6
 74
4
 40
0.000000
 40
0.000000
 40
0.000000
 40
0.000000
 40
0.785325
 40
1.564151
 40
2.349476
 40
2.349476
 40
2.349476
 40
2.349476
 10
-4.528682
 20
-3.255884
 30
0.0
 10
-4.357970
 20
-3.056100
 30
0.0
 10
-4.017959
 20
-2.658183
 30
0.0
 10
-3.711505
 20
-1.918338
 30
0.0
 10
-3.670560
 20
-1.396544
 30
0.0
 10
-3.650002
 20
-1.134563
 30
0.0
 11
-4.528682
 21
-3.255884
 31
0.0
 11
-4.050827
 21
-2.632675
 31
0.0
 11
-3.752783
 21
-1.913133
 31
0.0
 11
-3.650002
 21
-1.134563
 31
0.0
  0
LWPOLYLINE
  5
13d
100
AcDbEntity
  8
AM_0
 62
7
100
AcDbPolyline
 90
2
 70
0
 10
-3.650002
 20
-1.134563
 30
0.0
 10
-3.650002
 20
1.134563
 30
0.0
  0
SPLINE
  5
13e
100
AcDbEntity
  8
AM_0
 62
7
100
AcDbSpline
 70
0
 71
3
 72
10
 73
6
 74
4
 40
0.000000
 40
0.000000
 40
0.000000
 40
0.000000
 40
0.785325
 40
1.564151
 40
2.349476
 40
2.349476
 40
2.349476
 40
2.349476
 10
-3.650002
 20
1.134563
 30
0.0
 10
-3.670560
 20
1.396544
 30
0.0
 10
-3.711505
 20
1.918338
 30
0.0
 10
-4.017959
 20
2.658183
 30
0.0
 10
-4.357970
 20
3.056099
 30
0.0
 10
-4.528682
 20
3.255884
 30
0.0
 11
-3.650002
 21
1.134563
 31
0.0
 11
-3.752783
 21
1.913133
 31
0.0
 11
-4.050827
 21
2.632675
 31
0.0
 11
-4.528682
 21
3.255884
 31
0.0
  0
LWPOLYLINE
  5
13f
100
AcDbEntity
  8
AM_0
 62
7
100
AcDbPolyline
 90
2
 70
0
 10
-4.528682
 20
3.255884
 30
0.0
 10
-6.834318
 20
5.561519
 30
0.0
  0
SPLINE
  5
140
100
AcDbEntity
  8
AM_0
 62
7
100
AcDbSpline
 70
0
 71
3
 72
13
 73
9
 74
7
 40
0.000000
 40
0.000000
 40
0.000000
 40
0.000000
 40
0.314014
 40
0.622436
 40
0.936450
 40
1.250464
 40
1.558886
 40
1.872900
 40
1.872900
 40
1.872900
 40
1.872900
 10
-6.834318
 20
5.561519
 30
0.0
 10
-6.917415
 20
5.627415
 30
0.0
 10
-7.082128
 20
5.758034
 30
0.0
 10
-7.400864
 20
5.815497
 30
0.0
 10
-7.714336
 20
5.754699
 30
0.0
 10
-7.978984
 20
5.576032
 30
0.0
 10
-8.163732
 20
5.310018
 30
0.0
 10
-8.187841
 20
5.101187
 30
0.0
 10
-8.200003
 20
4.995834
 30
0.0
 11
-6.834318
 21
5.561519
 31
0.0
 11
-7.095606
 21
5.735684
 31
0.0
 11
-7.398102
 21
5.795854
 31
0.0
 11
-7.706150
 21
5.734937
 31
0.0
 11
-7.967048
 21
5.560189
 31
0.0
 11
-8.138398
 21
5.303745
 31
0.0
 11
-8.200003
 21
4.995834
 31
0.0
  0
LWPOLYLINE
  5
141
100
AcDbEntity
  8
AM_0
 62
7
100
AcDbPolyline
 90
2
 70
0
 10
-8.200003
 20
4.995834
 30
0.0
 10
-8.200003
 20
2.800000
 30
0.0
  0
SPLINE
  5
142
100
AcDbEntity
  8
AM_0
 62
7
100
AcDbSpline
 70
0
 71
3
 72
13
 73
9
 74
7
 40
0.000000
 40
0.000000
 40
0.000000
 40
0.000000
 40
0.078532
 40
0.156415
 40
0.234947
 40
0.313480
 40
0.391363
 40
0.469895
 40
0.469895
 40
0.469895
 40
0.469895
 10
-8.500003
 20
2.500000
 30
0.0
 10
-8.473749
 20
2.502000
 30
0.0
 10
-8.421459
 20
2.505983
 30
0.0
 10
-8.348306
 20
2.537461
 30
0.0
 10
-8.285354
 20
2.585351
 30
0.0
 10
-8.237464
 20
2.648303
 30
0.0
 10
-8.205986
 20
2.721455
 30
0.0
 10
-8.202003
 20
2.773746
 30
0.0
 10
-8.200003
 20
2.800000
 30
0.0
 11
-8.500003
 21
2.500000
 31
0.0
 11
-8.422146
 21
2.510278
 31
0.0
 11
-8.350192
 21
2.540083
 31
0.0
 11
-8.287871
 21
2.587868
 31
0.0
 11
-8.240086
 21
2.650189
 31
0.0
 11
-8.210282
 21
2.722143
 31
0.0
 11
-8.200003
 21
2.800000
 31
0.0
  0
LWPOLYLINE
  5
143
100
AcDbEntity
  8
AM_0
 62
7
100
AcDbPolyline
 90
2
 70
0
 10
-8.500003
 20
2.500000
 30
0.0
 10
-9.200000
 20
2.500000
 30
0.0
  0
SPLINE
  5
144
100
AcDbEntity
  8
AM_0
 62
7
100
AcDbSpline
 70
0
 71
3
 72
13
 73
9
 74
7
 40
0.000000
 40
0.000000
 40
0.000000
 40
0.000000
 40
0.209420
 40
0.417107
 40
0.626527
 40
0.835947
 40
1.043634
 40
1.253054
 40
1.253054
 40
1.253054
 40
1.253054
 10
-10.000000
 20
3.300000
 30
0.0
 10
-9.994667
 20
3.229989
 30
0.0
 10
-9.984045
 20
3.090548
 30
0.0
 10
-9.900105
 20
2.895475
 30
0.0
 10
-9.772398
 20
2.727602
 30
0.0
 10
-9.604525
 20
2.599895
 30
0.0
 10
-9.409452
 20
2.515955
 30
0.0
 10
-9.270011
 20
2.505333
 30
0.0
 10
-9.200000
 20
2.500000
 30
0.0
 11
-10.000000
 21
3.300000
 31
0.0
 11
-9.972592
 21
3.092381
 31
0.0
 11
-9.893113
 21
2.900504
 31
0.0
 11
-9.765685
 21
2.734315
 31
0.0
 11
-9.599496
 21
2.606887
 31
0.0
 11
-9.407619
 21
2.527408
 31
0.0
 11
-9.200000
 21
2.500000
 31
0.0
  0
LWPOLYLINE
  5
145
100
AcDbEntity
  8
AM_0
 62
7
100
AcDbPolyline
 90
2
 70
0
 10
-10.000000
 20
3.300000
 30
0.0
 10
-10.000000
 20
8.000000
 30
0.0
  0
SPLINE
  5
146
100
AcDbEntity
  8
AM_0
 62
7
100
AcDbSpline
 70
0
 71
3
 72
10
 73
6
 74
4
 40
0.000000
 40
0.000000
 40
0.000000
 40
0.000000
 40
1.045718
 40
2.060421
 40
3.106139
 40
3.106139
 40
3.106139
 40
3.106139
 10
-8.000000
 20
10.000000
 30
0.0
 10
-8.350452
 20
9.944990
 30
0.0
 10
-9.040961
 20
9.836601
 30
0.0
 10
-9.836601
 20
9.040961
 30
0.0
 10
-9.944990
 20
8.350452
 30
0.0
 10
-10.000000
 20
8.000000
 30
0.0
 11
-8.000000
 21
10.000000
 31
0.0
 11
-9.009438
 21
9.726941
 31
0.0
 11
-9.726941
 21
9.009438
 31
0.0
 11
-10.000000
 21
8.000000
 31
0.0
  0
LWPOLYLINE
  5
147
100
AcDbEntity
  8
AM_0
 62
7
100
AcDbPolyline
 90
2
 70
0
 10
-8.000000
 20
10.000000
 30
0.0
 10
-3.300000
 20
10.000000
 30
0.0
  0
ENDSEC
  0
SECTION
  2
OBJECTS
  0
DICTIONARY
  5
C
330
0
100
AcDbDictionary
  3
ACAD_GROUP
350
D
  3
ACAD_MLINESTYLE
350
17
  0
DICTIONARY
  5
D
330
C
100
AcDbDictionary
  0
DICTIONARY
  5
1A
330
C
100
AcDbDictionary
  0
DICTIONARY
  5
17
330
C
100
AcDbDictionary
  3
STANDARD
350
18
  0
DICTIONARY
  5
19
330
C
100
AcDbDictionary
  0
ENDSEC
  0
EOF
