  0
SECTION
  2
BLOCKS
  0
ENDSEC
  0
SECTION
  2
ENTITIES
  0
LINE
  8
0
 10
-33.997
 11
-33.997
 20
-10.094
 21
-9.906
  0
LINE
  8
0
 10
-33.997
 11
-33.973
 20
-9.906
 21
-9.719
  0
LINE
  8
0
 10
-33.973
 11
-33.927
 20
-9.719
 21
-9.536
  0
LINE
  8
0
 10
-33.927
 11
-33.857
 20
-9.536
 21
-9.361
  0
LINE
  8
0
 10
-33.857
 11
-33.766
 20
-9.361
 21
-9.196
  0
LINE
  8
0
 10
-33.766
 11
-33.656
 20
-9.196
 21
-9.044
  0
LINE
  8
0
 10
-33.656
 11
-33.527
 20
-9.044
 21
-8.907
  0
LINE
  8
0
 10
-33.527
 11
-33.382
 20
-8.907
 21
-8.786
  0
LINE
  8
0
 10
-33.382
 11
-33.223
 20
-8.786
 21
-8.686
  0
LINE
  8
0
 10
-33.223
 11
-33.052
 20
-8.686
 21
-8.605
  0
LINE
  8
0
 10
-33.052
 11
-32.873
 20
-8.605
 21
-8.547
  0
LINE
  8
0
 10
-32.873
 11
-32.688
 20
-8.547
 21
-8.512
  0
LINE
  8
0
 10
-32.688
 11
-32.5
 20
-8.512
 21
-8.5
  0
LINE
  8
0
 10
-32.5
 11
-29.5
 20
-8.5
 21
-8.5
  0
LINE
  8
0
 10
-29.5
 11
-29.312
 20
-8.5
 21
-8.512
  0
LINE
  8
0
 10
-29.312
 11
-29.127
 20
-8.512
 21
-8.547
  0
LINE
  8
0
 10
-29.127
 11
-28.948
 20
-8.547
 21
-8.605
  0
LINE
  8
0
 10
-28.948
 11
-28.777
 20
-8.605
 21
-8.686
  0
LINE
  8
0
 10
-28.777
 11
-28.618
 20
-8.686
 21
-8.786
  0
LINE
  8
0
 10
-28.618
 11
-28.473
 20
-8.786
 21
-8.907
  0
LINE
  8
0
 10
-28.473
 11
-28.344
 20
-8.907
 21
-9.044
  0
LINE
  8
0
 10
-28.344
 11
-28.234
 20
-9.044
 21
-9.196
  0
LINE
  8
0
 10
-28.234
 11
-28.143
 20
-9.196
 21
-9.361
  0
LINE
  8
0
 10
-28.143
 11
-28.073
 20
-9.361
 21
-9.536
  0
LINE
  8
0
 10
-28.073
 11
-28.027
 20
-9.536
 21
-9.719
  0
LINE
  8
0
 10
-28.027
 11
-28.003
 20
-9.719
 21
-9.906
  0
LINE
  8
0
 10
-28.003
 11
-28.003
 20
-9.906
 21
-10.094
  0
LINE
  8
0
 10
-28.003
 11
-28.027
 20
-10.094
 21
-10.281
  0
LINE
  8
0
 10
-28.027
 11
-28.073
 20
-10.281
 21
-10.464
  0
LINE
  8
0
 10
-28.073
 11
-28.143
 20
-10.464
 21
-10.639
  0
LINE
  8
0
 10
-28.143
 11
-28.234
 20
-10.639
 21
-10.804
  0
LINE
  8
0
 10
-28.234
 11
-28.344
 20
-10.804
 21
-10.956
  0
LINE
  8
0
 10
-28.344
 11
-28.473
 20
-10.956
 21
-11.093
  0
LINE
  8
0
 10
-28.473
 11
-28.618
 20
-11.093
 21
-11.214
  0
LINE
  8
0
 10
-28.618
 11
-28.777
 20
-11.214
 21
-11.314
  0
LINE
  8
0
 10
-28.777
 11
-28.948
 20
-11.314
 21
-11.395
  0
LINE
  8
0
 10
-28.948
 11
-29.127
 20
-11.395
 21
-11.453
  0
LINE
  8
0
 10
-29.127
 11
-29.312
 20
-11.453
 21
-11.488
  0
LINE
  8
0
 10
-29.312
 11
-29.5
 20
-11.488
 21
-11.5
  0
LINE
  8
0
 10
-29.5
 11
-32.5
 20
-11.5
 21
-11.5
  0
LINE
  8
0
 10
-32.5
 11
-32.688
 20
-11.5
 21
-11.488
  0
LINE
  8
0
 10
-32.688
 11
-32.873
 20
-11.488
 21
-11.453
  0
LINE
  8
0
 10
-32.873
 11
-33.052
 20
-11.453
 21
-11.395
  0
LINE
  8
0
 10
-33.052
 11
-33.223
 20
-11.395
 21
-11.314
  0
LINE
  8
0
 10
-33.223
 11
-33.382
 20
-11.314
 21
-11.214
  0
LINE
  8
0
 10
-33.382
 11
-33.527
 20
-11.214
 21
-11.093
  0
LINE
  8
0
 10
-33.527
 11
-33.656
 20
-11.093
 21
-10.956
  0
LINE
  8
0
 10
-33.656
 11
-33.766
 20
-10.956
 21
-10.804
  0
LINE
  8
0
 10
-33.766
 11
-33.857
 20
-10.804
 21
-10.639
  0
LINE
  8
0
 10
-33.857
 11
-33.927
 20
-10.639
 21
-10.464
  0
LINE
  8
0
 10
-33.927
 11
-33.973
 20
-10.464
 21
-10.281
  0
LINE
  8
0
 10
-33.973
 11
-33.997
 20
-10.281
 21
-10.094
  0
LINE
  8
0
 10
-33.997
 11
-33.997
 20
9.906
 21
10.094
  0
LINE
  8
0
 10
-33.997
 11
-33.973
 20
10.094
 21
10.281
  0
LINE
  8
0
 10
-33.973
 11
-33.927
 20
10.281
 21
10.464
  0
LINE
  8
0
 10
-33.927
 11
-33.857
 20
10.464
 21
10.639
  0
LINE
  8
0
 10
-33.857
 11
-33.766
 20
10.639
 21
10.804
  0
LINE
  8
0
 10
-33.766
 11
-33.656
 20
10.804
 21
10.956
  0
LINE
  8
0
 10
-33.656
 11
-33.527
 20
10.956
 21
11.093
  0
LINE
  8
0
 10
-33.527
 11
-33.382
 20
11.093
 21
11.214
  0
LINE
  8
0
 10
-33.382
 11
-33.223
 20
11.214
 21
11.314
  0
LINE
  8
0
 10
-33.223
 11
-33.052
 20
11.314
 21
11.395
  0
LINE
  8
0
 10
-33.052
 11
-32.873
 20
11.395
 21
11.453
  0
LINE
  8
0
 10
-32.873
 11
-32.688
 20
11.453
 21
11.488
  0
LINE
  8
0
 10
-32.688
 11
-32.5
 20
11.488
 21
11.5
  0
LINE
  8
0
 10
-32.5
 11
-29.5
 20
11.5
 21
11.5
  0
LINE
  8
0
 10
-29.5
 11
-29.312
 20
11.5
 21
11.488
  0
LINE
  8
0
 10
-29.312
 11
-29.127
 20
11.488
 21
11.453
  0
LINE
  8
0
 10
-29.127
 11
-28.948
 20
11.453
 21
11.395
  0
LINE
  8
0
 10
-28.948
 11
-28.777
 20
11.395
 21
11.314
  0
LINE
  8
0
 10
-28.777
 11
-28.618
 20
11.314
 21
11.214
  0
LINE
  8
0
 10
-28.618
 11
-28.473
 20
11.214
 21
11.093
  0
LINE
  8
0
 10
-28.473
 11
-28.344
 20
11.093
 21
10.956
  0
LINE
  8
0
 10
-28.344
 11
-28.234
 20
10.956
 21
10.804
  0
LINE
  8
0
 10
-28.234
 11
-28.143
 20
10.804
 21
10.639
  0
LINE
  8
0
 10
-28.143
 11
-28.073
 20
10.639
 21
10.464
  0
LINE
  8
0
 10
-28.073
 11
-28.027
 20
10.464
 21
10.281
  0
LINE
  8
0
 10
-28.027
 11
-28.003
 20
10.281
 21
10.094
  0
LINE
  8
0
 10
-28.003
 11
-28.003
 20
10.094
 21
9.906
  0
LINE
  8
0
 10
-28.003
 11
-28.027
 20
9.906
 21
9.719
  0
LINE
  8
0
 10
-28.027
 11
-28.073
 20
9.719
 21
9.536
  0
LINE
  8
0
 10
-28.073
 11
-28.143
 20
9.536
 21
9.361
  0
LINE
  8
0
 10
-28.143
 11
-28.234
 20
9.361
 21
9.196
  0
LINE
  8
0
 10
-28.234
 11
-28.344
 20
9.196
 21
9.044
  0
LINE
  8
0
 10
-28.344
 11
-28.473
 20
9.044
 21
8.907
  0
LINE
  8
0
 10
-28.473
 11
-28.618
 20
8.907
 21
8.786
  0
LINE
  8
0
 10
-28.618
 11
-28.777
 20
8.786
 21
8.686
  0
LINE
  8
0
 10
-28.777
 11
-28.948
 20
8.686
 21
8.605
  0
LINE
  8
0
 10
-28.948
 11
-29.127
 20
8.605
 21
8.547
  0
LINE
  8
0
 10
-29.127
 11
-29.312
 20
8.547
 21
8.512
  0
LINE
  8
0
 10
-29.312
 11
-29.5
 20
8.512
 21
8.5
  0
LINE
  8
0
 10
-29.5
 11
-32.5
 20
8.5
 21
8.5
  0
LINE
  8
0
 10
-32.5
 11
-32.688
 20
8.5
 21
8.512
  0
LINE
  8
0
 10
-32.688
 11
-32.873
 20
8.512
 21
8.547
  0
LINE
  8
0
 10
-32.873
 11
-33.052
 20
8.547
 21
8.605
  0
LINE
  8
0
 10
-33.052
 11
-33.223
 20
8.605
 21
8.686
  0
LINE
  8
0
 10
-33.223
 11
-33.382
 20
8.686
 21
8.786
  0
LINE
  8
0
 10
-33.382
 11
-33.527
 20
8.786
 21
8.907
  0
LINE
  8
0
 10
-33.527
 11
-33.656
 20
8.907
 21
9.044
  0
LINE
  8
0
 10
-33.656
 11
-33.766
 20
9.044
 21
9.196
  0
LINE
  8
0
 10
-33.766
 11
-33.857
 20
9.196
 21
9.361
  0
LINE
  8
0
 10
-33.857
 11
-33.927
 20
9.361
 21
9.536
  0
LINE
  8
0
 10
-33.927
 11
-33.973
 20
9.536
 21
9.719
  0
LINE
  8
0
 10
-33.973
 11
-33.997
 20
9.719
 21
9.906
  0
LINE
  8
0
 10
-27
 11
-26.953
 20
0
 21
0.752
  0
LINE
  8
0
 10
-26.953
 11
-26.811
 20
0.752
 21
1.492
  0
LINE
  8
0
 10
-26.811
 11
-26.579
 20
1.492
 21
2.209
  0
LINE
  8
0
 10
-26.579
 11
-26.258
 20
2.209
 21
2.891
  0
LINE
  8
0
 10
-26.258
 11
-25.854
 20
2.891
 21
3.527
  0
LINE
  8
0
 10
-25.854
 11
-25.374
 20
3.527
 21
4.107
  0
LINE
  8
0
 10
-25.374
 11
-24.825
 20
4.107
 21
4.623
  0
LINE
  8
0
 10
-24.825
 11
-24.215
 20
4.623
 21
5.066
  0
LINE
  8
0
 10
-24.215
 11
-23.555
 20
5.066
 21
5.429
  0
LINE
  8
0
 10
-23.555
 11
-22.854
 20
5.429
 21
5.706
  0
LINE
  8
0
 10
-22.854
 11
-22.124
 20
5.706
 21
5.894
  0
LINE
  8
0
 10
-22.124
 11
-21.377
 20
5.894
 21
5.988
  0
LINE
  8
0
 10
-21.377
 11
-20.623
 20
5.988
 21
5.988
  0
LINE
  8
0
 10
-20.623
 11
-19.876
 20
5.988
 21
5.894
  0
LINE
  8
0
 10
-19.876
 11
-19.146
 20
5.894
 21
5.706
  0
LINE
  8
0
 10
-19.146
 11
-18.445
 20
5.706
 21
5.429
  0
LINE
  8
0
 10
-18.445
 11
-17.785
 20
5.429
 21
5.066
  0
LINE
  8
0
 10
-17.785
 11
-17.175
 20
5.066
 21
4.623
  0
LINE
  8
0
 10
-17.175
 11
-16.626
 20
4.623
 21
4.107
  0
LINE
  8
0
 10
-16.626
 11
-16.146
 20
4.107
 21
3.527
  0
LINE
  8
0
 10
-16.146
 11
-15.742
 20
3.527
 21
2.891
  0
LINE
  8
0
 10
-15.742
 11
-15.421
 20
2.891
 21
2.209
  0
LINE
  8
0
 10
-15.421
 11
-15.189
 20
2.209
 21
1.492
  0
LINE
  8
0
 10
-15.189
 11
-15.047
 20
1.492
 21
0.752
  0
LINE
  8
0
 10
-15.047
 11
-15
 20
0.752
 21
0
  0
LINE
  8
0
 10
-15
 11
-15.047
 20
0
 21
-0.752
  0
LINE
  8
0
 10
-15.047
 11
-15.189
 20
-0.752
 21
-1.492
  0
LINE
  8
0
 10
-15.189
 11
-15.421
 20
-1.492
 21
-2.209
  0
LINE
  8
0
 10
-15.421
 11
-15.742
 20
-2.209
 21
-2.891
  0
LINE
  8
0
 10
-15.742
 11
-16.146
 20
-2.891
 21
-3.527
  0
LINE
  8
0
 10
-16.146
 11
-16.626
 20
-3.527
 21
-4.107
  0
LINE
  8
0
 10
-16.626
 11
-17.175
 20
-4.107
 21
-4.623
  0
LINE
  8
0
 10
-17.175
 11
-17.785
 20
-4.623
 21
-5.066
  0
LINE
  8
0
 10
-17.785
 11
-18.445
 20
-5.066
 21
-5.429
  0
LINE
  8
0
 10
-18.445
 11
-19.146
 20
-5.429
 21
-5.706
  0
LINE
  8
0
 10
-19.146
 11
-19.876
 20
-5.706
 21
-5.894
  0
LINE
  8
0
 10
-19.876
 11
-20.623
 20
-5.894
 21
-5.988
  0
LINE
  8
0
 10
-20.623
 11
-21.377
 20
-5.988
 21
-5.988
  0
LINE
  8
0
 10
-21.377
 11
-22.124
 20
-5.988
 21
-5.894
  0
LINE
  8
0
 10
-22.124
 11
-22.854
 20
-5.894
 21
-5.706
  0
LINE
  8
0
 10
-22.854
 11
-23.555
 20
-5.706
 21
-5.429
  0
LINE
  8
0
 10
-23.555
 11
-24.215
 20
-5.429
 21
-5.066
  0
LINE
  8
0
 10
-24.215
 11
-24.825
 20
-5.066
 21
-4.623
  0
LINE
  8
0
 10
-24.825
 11
-25.374
 20
-4.623
 21
-4.107
  0
LINE
  8
0
 10
-25.374
 11
-25.854
 20
-4.107
 21
-3.527
  0
LINE
  8
0
 10
-25.854
 11
-26.258
 20
-3.527
 21
-2.891
  0
LINE
  8
0
 10
-26.258
 11
-26.579
 20
-2.891
 21
-2.209
  0
LINE
  8
0
 10
-26.579
 11
-26.811
 20
-2.209
 21
-1.492
  0
LINE
  8
0
 10
-26.811
 11
-26.953
 20
-1.492
 21
-0.752
  0
LINE
  8
0
 10
-26.953
 11
-27
 20
-0.752
 21
0
  0
LINE
  8
0
 10
-13.997
 11
-13.997
 20
-10.094
 21
-9.906
  0
LINE
  8
0
 10
-13.997
 11
-13.973
 20
-9.906
 21
-9.719
  0
LINE
  8
0
 10
-13.973
 11
-13.927
 20
-9.719
 21
-9.536
  0
LINE
  8
0
 10
-13.927
 11
-13.857
 20
-9.536
 21
-9.361
  0
LINE
  8
0
 10
-13.857
 11
-13.766
 20
-9.361
 21
-9.196
  0
LINE
  8
0
 10
-13.766
 11
-13.656
 20
-9.196
 21
-9.044
  0
LINE
  8
0
 10
-13.656
 11
-13.527
 20
-9.044
 21
-8.907
  0
LINE
  8
0
 10
-13.527
 11
-13.382
 20
-8.907
 21
-8.786
  0
LINE
  8
0
 10
-13.382
 11
-13.223
 20
-8.786
 21
-8.686
  0
LINE
  8
0
 10
-13.223
 11
-13.052
 20
-8.686
 21
-8.605
  0
LINE
  8
0
 10
-13.052
 11
-12.873
 20
-8.605
 21
-8.547
  0
LINE
  8
0
 10
-12.873
 11
-12.688
 20
-8.547
 21
-8.512
  0
LINE
  8
0
 10
-12.688
 11
-12.5
 20
-8.512
 21
-8.5
  0
LINE
  8
0
 10
-12.5
 11
-9.5
 20
-8.5
 21
-8.5
  0
LINE
  8
0
 10
-9.5
 11
-9.312
 20
-8.5
 21
-8.512
  0
LINE
  8
0
 10
-9.312
 11
-9.127
 20
-8.512
 21
-8.547
  0
LINE
  8
0
 10
-9.127
 11
-8.948
 20
-8.547
 21
-8.605
  0
LINE
  8
0
 10
-8.948
 11
-8.777
 20
-8.605
 21
-8.686
  0
LINE
  8
0
 10
-8.777
 11
-8.618
 20
-8.686
 21
-8.786
  0
LINE
  8
0
 10
-8.618
 11
-8.473
 20
-8.786
 21
-8.907
  0
LINE
  8
0
 10
-8.473
 11
-8.344
 20
-8.907
 21
-9.044
  0
LINE
  8
0
 10
-8.344
 11
-8.234
 20
-9.044
 21
-9.196
  0
LINE
  8
0
 10
-8.234
 11
-8.143
 20
-9.196
 21
-9.361
  0
LINE
  8
0
 10
-8.143
 11
-8.073
 20
-9.361
 21
-9.536
  0
LINE
  8
0
 10
-8.073
 11
-8.027
 20
-9.536
 21
-9.719
  0
LINE
  8
0
 10
-8.027
 11
-8.003
 20
-9.719
 21
-9.906
  0
LINE
  8
0
 10
-8.003
 11
-8.003
 20
-9.906
 21
-10.094
  0
LINE
  8
0
 10
-8.003
 11
-8.027
 20
-10.094
 21
-10.281
  0
LINE
  8
0
 10
-8.027
 11
-8.073
 20
-10.281
 21
-10.464
  0
LINE
  8
0
 10
-8.073
 11
-8.143
 20
-10.464
 21
-10.639
  0
LINE
  8
0
 10
-8.143
 11
-8.234
 20
-10.639
 21
-10.804
  0
LINE
  8
0
 10
-8.234
 11
-8.344
 20
-10.804
 21
-10.956
  0
LINE
  8
0
 10
-8.344
 11
-8.473
 20
-10.956
 21
-11.093
  0
LINE
  8
0
 10
-8.473
 11
-8.618
 20
-11.093
 21
-11.214
  0
LINE
  8
0
 10
-8.618
 11
-8.777
 20
-11.214
 21
-11.314
  0
LINE
  8
0
 10
-8.777
 11
-8.948
 20
-11.314
 21
-11.395
  0
LINE
  8
0
 10
-8.948
 11
-9.127
 20
-11.395
 21
-11.453
  0
LINE
  8
0
 10
-9.127
 11
-9.312
 20
-11.453
 21
-11.488
  0
LINE
  8
0
 10
-9.312
 11
-9.5
 20
-11.488
 21
-11.5
  0
LINE
  8
0
 10
-9.5
 11
-12.5
 20
-11.5
 21
-11.5
  0
LINE
  8
0
 10
-12.5
 11
-12.688
 20
-11.5
 21
-11.488
  0
LINE
  8
0
 10
-12.688
 11
-12.873
 20
-11.488
 21
-11.453
  0
LINE
  8
0
 10
-12.873
 11
-13.052
 20
-11.453
 21
-11.395
  0
LINE
  8
0
 10
-13.052
 11
-13.223
 20
-11.395
 21
-11.314
  0
LINE
  8
0
 10
-13.223
 11
-13.382
 20
-11.314
 21
-11.214
  0
LINE
  8
0
 10
-13.382
 11
-13.527
 20
-11.214
 21
-11.093
  0
LINE
  8
0
 10
-13.527
 11
-13.656
 20
-11.093
 21
-10.956
  0
LINE
  8
0
 10
-13.656
 11
-13.766
 20
-10.956
 21
-10.804
  0
LINE
  8
0
 10
-13.766
 11
-13.857
 20
-10.804
 21
-10.639
  0
LINE
  8
0
 10
-13.857
 11
-13.927
 20
-10.639
 21
-10.464
  0
LINE
  8
0
 10
-13.927
 11
-13.973
 20
-10.464
 21
-10.281
  0
LINE
  8
0
 10
-13.973
 11
-13.997
 20
-10.281
 21
-10.094
  0
LINE
  8
0
 10
-13.997
 11
-13.997
 20
9.906
 21
10.094
  0
LINE
  8
0
 10
-13.997
 11
-13.973
 20
10.094
 21
10.281
  0
LINE
  8
0
 10
-13.973
 11
-13.927
 20
10.281
 21
10.464
  0
LINE
  8
0
 10
-13.927
 11
-13.857
 20
10.464
 21
10.639
  0
LINE
  8
0
 10
-13.857
 11
-13.766
 20
10.639
 21
10.804
  0
LINE
  8
0
 10
-13.766
 11
-13.656
 20
10.804
 21
10.956
  0
LINE
  8
0
 10
-13.656
 11
-13.527
 20
10.956
 21
11.093
  0
LINE
  8
0
 10
-13.527
 11
-13.382
 20
11.093
 21
11.214
  0
LINE
  8
0
 10
-13.382
 11
-13.223
 20
11.214
 21
11.314
  0
LINE
  8
0
 10
-13.223
 11
-13.052
 20
11.314
 21
11.395
  0
LINE
  8
0
 10
-13.052
 11
-12.873
 20
11.395
 21
11.453
  0
LINE
  8
0
 10
-12.873
 11
-12.688
 20
11.453
 21
11.488
  0
LINE
  8
0
 10
-12.688
 11
-12.5
 20
11.488
 21
11.5
  0
LINE
  8
0
 10
-12.5
 11
-9.5
 20
11.5
 21
11.5
  0
LINE
  8
0
 10
-9.5
 11
-9.312
 20
11.5
 21
11.488
  0
LINE
  8
0
 10
-9.312
 11
-9.127
 20
11.488
 21
11.453
  0
LINE
  8
0
 10
-9.127
 11
-8.948
 20
11.453
 21
11.395
  0
LINE
  8
0
 10
-8.948
 11
-8.777
 20
11.395
 21
11.314
  0
LINE
  8
0
 10
-8.777
 11
-8.618
 20
11.314
 21
11.214
  0
LINE
  8
0
 10
-8.618
 11
-8.473
 20
11.214
 21
11.093
  0
LINE
  8
0
 10
-8.473
 11
-8.344
 20
11.093
 21
10.956
  0
LINE
  8
0
 10
-8.344
 11
-8.234
 20
10.956
 21
10.804
  0
LINE
  8
0
 10
-8.234
 11
-8.143
 20
10.804
 21
10.639
  0
LINE
  8
0
 10
-8.143
 11
-8.073
 20
10.639
 21
10.464
  0
LINE
  8
0
 10
-8.073
 11
-8.027
 20
10.464
 21
10.281
  0
LINE
  8
0
 10
-8.027
 11
-8.003
 20
10.281
 21
10.094
  0
LINE
  8
0
 10
-8.003
 11
-8.003
 20
10.094
 21
9.906
  0
LINE
  8
0
 10
-8.003
 11
-8.027
 20
9.906
 21
9.719
  0
LINE
  8
0
 10
-8.027
 11
-8.073
 20
9.719
 21
9.536
  0
LINE
  8
0
 10
-8.073
 11
-8.143
 20
9.536
 21
9.361
  0
LINE
  8
0
 10
-8.143
 11
-8.234
 20
9.361
 21
9.196
  0
LINE
  8
0
 10
-8.234
 11
-8.344
 20
9.196
 21
9.044
  0
LINE
  8
0
 10
-8.344
 11
-8.473
 20
9.044
 21
8.907
  0
LINE
  8
0
 10
-8.473
 11
-8.618
 20
8.907
 21
8.786
  0
LINE
  8
0
 10
-8.618
 11
-8.777
 20
8.786
 21
8.686
  0
LINE
  8
0
 10
-8.777
 11
-8.948
 20
8.686
 21
8.605
  0
LINE
  8
0
 10
-8.948
 11
-9.127
 20
8.605
 21
8.547
  0
LINE
  8
0
 10
-9.127
 11
-9.312
 20
8.547
 21
8.512
  0
LINE
  8
0
 10
-9.312
 11
-9.5
 20
8.512
 21
8.5
  0
LINE
  8
0
 10
-9.5
 11
-12.5
 20
8.5
 21
8.5
  0
LINE
  8
0
 10
-12.5
 11
-12.688
 20
8.5
 21
8.512
  0
LINE
  8
0
 10
-12.688
 11
-12.873
 20
8.512
 21
8.547
  0
LINE
  8
0
 10
-12.873
 11
-13.052
 20
8.547
 21
8.605
  0
LINE
  8
0
 10
-13.052
 11
-13.223
 20
8.605
 21
8.686
  0
LINE
  8
0
 10
-13.223
 11
-13.382
 20
8.686
 21
8.786
  0
LINE
  8
0
 10
-13.382
 11
-13.527
 20
8.786
 21
8.907
  0
LINE
  8
0
 10
-13.527
 11
-13.656
 20
8.907
 21
9.044
  0
LINE
  8
0
 10
-13.656
 11
-13.766
 20
9.044
 21
9.196
  0
LINE
  8
0
 10
-13.766
 11
-13.857
 20
9.196
 21
9.361
  0
LINE
  8
0
 10
-13.857
 11
-13.927
 20
9.361
 21
9.536
  0
LINE
  8
0
 10
-13.927
 11
-13.973
 20
9.536
 21
9.719
  0
LINE
  8
0
 10
-13.973
 11
-13.997
 20
9.719
 21
9.906
  0
LINE
  8
0
 10
-37
 11
-37
 20
-16
 21
16
  0
LINE
  8
0
 10
-37
 11
-5
 20
16
 21
16
  0
LINE
  8
0
 10
-5
 11
-5
 20
16
 21
10
  0
LINE
  8
0
 10
-5
 11
55
 20
10
 21
10
  0
LINE
  8
0
 10
55
 11
55
 20
10
 21
-10
  0
LINE
  8
0
 10
55
 11
-5
 20
-10
 21
-10
  0
LINE
  8
0
 10
-5
 11
-5
 20
-10
 21
-16
  0
LINE
  8
0
 10
-5
 11
-37
 20
-16
 21
-16
  0
LINE
  8
0
 10
7.5
 11
7.52
 20
0
 21
0.313
  0
LINE
  8
0
 10
7.52
 11
7.579
 20
0.313
 21
0.622
  0
LINE
  8
0
 10
7.579
 11
7.676
 20
0.622
 21
0.92
  0
LINE
  8
0
 10
7.676
 11
7.809
 20
0.92
 21
1.204
  0
LINE
  8
0
 10
7.809
 11
7.977
 20
1.204
 21
1.469
  0
LINE
  8
0
 10
7.977
 11
8.178
 20
1.469
 21
1.711
  0
LINE
  8
0
 10
8.178
 11
8.406
 20
1.711
 21
1.926
  0
LINE
  8
0
 10
8.406
 11
8.66
 20
1.926
 21
2.111
  0
LINE
  8
0
 10
8.66
 11
8.936
 20
2.111
 21
2.262
  0
LINE
  8
0
 10
8.936
 11
9.227
 20
2.262
 21
2.378
  0
LINE
  8
0
 10
9.227
 11
9.532
 20
2.378
 21
2.456
  0
LINE
  8
0
 10
9.532
 11
9.843
 20
2.456
 21
2.495
  0
LINE
  8
0
 10
9.843
 11
10.157
 20
2.495
 21
2.495
  0
LINE
  8
0
 10
10.157
 11
10.468
 20
2.495
 21
2.456
  0
LINE
  8
0
 10
10.468
 11
10.773
 20
2.456
 21
2.378
  0
LINE
  8
0
 10
10.773
 11
11.064
 20
2.378
 21
2.262
  0
LINE
  8
0
 10
11.064
 11
11.34
 20
2.262
 21
2.111
  0
LINE
  8
0
 10
11.34
 11
11.594
 20
2.111
 21
1.926
  0
LINE
  8
0
 10
11.594
 11
11.822
 20
1.926
 21
1.711
  0
LINE
  8
0
 10
11.822
 11
12.023
 20
1.711
 21
1.469
  0
LINE
  8
0
 10
12.023
 11
12.191
 20
1.469
 21
1.204
  0
LINE
  8
0
 10
12.191
 11
12.324
 20
1.204
 21
0.92
  0
LINE
  8
0
 10
12.324
 11
12.421
 20
0.92
 21
0.622
  0
LINE
  8
0
 10
12.421
 11
12.48
 20
0.622
 21
0.313
  0
LINE
  8
0
 10
12.48
 11
12.5
 20
0.313
 21
0
  0
LINE
  8
0
 10
12.5
 11
12.48
 20
0
 21
-0.313
  0
LINE
  8
0
 10
12.48
 11
12.421
 20
-0.313
 21
-0.622
  0
LINE
  8
0
 10
12.421
 11
12.324
 20
-0.622
 21
-0.92
  0
LINE
  8
0
 10
12.324
 11
12.191
 20
-0.92
 21
-1.204
  0
LINE
  8
0
 10
12.191
 11
12.023
 20
-1.204
 21
-1.469
  0
LINE
  8
0
 10
12.023
 11
11.822
 20
-1.469
 21
-1.711
  0
LINE
  8
0
 10
11.822
 11
11.594
 20
-1.711
 21
-1.926
  0
LINE
  8
0
 10
11.594
 11
11.34
 20
-1.926
 21
-2.111
  0
LINE
  8
0
 10
11.34
 11
11.064
 20
-2.111
 21
-2.262
  0
LINE
  8
0
 10
11.064
 11
10.773
 20
-2.262
 21
-2.378
  0
LINE
  8
0
 10
10.773
 11
10.468
 20
-2.378
 21
-2.456
  0
LINE
  8
0
 10
10.468
 11
10.157
 20
-2.456
 21
-2.495
  0
LINE
  8
0
 10
10.157
 11
9.843
 20
-2.495
 21
-2.495
  0
LINE
  8
0
 10
9.843
 11
9.532
 20
-2.495
 21
-2.456
  0
LINE
  8
0
 10
9.532
 11
9.227
 20
-2.456
 21
-2.378
  0
LINE
  8
0
 10
9.227
 11
8.936
 20
-2.378
 21
-2.262
  0
LINE
  8
0
 10
8.936
 11
8.66
 20
-2.262
 21
-2.111
  0
LINE
  8
0
 10
8.66
 11
8.406
 20
-2.111
 21
-1.926
  0
LINE
  8
0
 10
8.406
 11
8.178
 20
-1.926
 21
-1.711
  0
LINE
  8
0
 10
8.178
 11
7.977
 20
-1.711
 21
-1.469
  0
LINE
  8
0
 10
7.977
 11
7.809
 20
-1.469
 21
-1.204
  0
LINE
  8
0
 10
7.809
 11
7.676
 20
-1.204
 21
-0.92
  0
LINE
  8
0
 10
7.676
 11
7.579
 20
-0.92
 21
-0.622
  0
LINE
  8
0
 10
7.579
 11
7.52
 20
-0.622
 21
-0.313
  0
LINE
  8
0
 10
7.52
 11
7.5
 20
-0.313
 21
0
  0
LINE
  8
0
 10
42.5
 11
42.52
 20
0
 21
0.313
  0
LINE
  8
0
 10
42.52
 11
42.579
 20
0.313
 21
0.622
  0
LINE
  8
0
 10
42.579
 11
42.676
 20
0.622
 21
0.92
  0
LINE
  8
0
 10
42.676
 11
42.809
 20
0.92
 21
1.204
  0
LINE
  8
0
 10
42.809
 11
42.977
 20
1.204
 21
1.469
  0
LINE
  8
0
 10
42.977
 11
43.178
 20
1.469
 21
1.711
  0
LINE
  8
0
 10
43.178
 11
43.406
 20
1.711
 21
1.926
  0
LINE
  8
0
 10
43.406
 11
43.66
 20
1.926
 21
2.111
  0
LINE
  8
0
 10
43.66
 11
43.936
 20
2.111
 21
2.262
  0
LINE
  8
0
 10
43.936
 11
44.227
 20
2.262
 21
2.378
  0
LINE
  8
0
 10
44.227
 11
44.532
 20
2.378
 21
2.456
  0
LINE
  8
0
 10
44.532
 11
44.843
 20
2.456
 21
2.495
  0
LINE
  8
0
 10
44.843
 11
45.157
 20
2.495
 21
2.495
  0
LINE
  8
0
 10
45.157
 11
45.468
 20
2.495
 21
2.456
  0
LINE
  8
0
 10
45.468
 11
45.773
 20
2.456
 21
2.378
  0
LINE
  8
0
 10
45.773
 11
46.064
 20
2.378
 21
2.262
  0
LINE
  8
0
 10
46.064
 11
46.34
 20
2.262
 21
2.111
  0
LINE
  8
0
 10
46.34
 11
46.594
 20
2.111
 21
1.926
  0
LINE
  8
0
 10
46.594
 11
46.822
 20
1.926
 21
1.711
  0
LINE
  8
0
 10
46.822
 11
47.023
 20
1.711
 21
1.469
  0
LINE
  8
0
 10
47.023
 11
47.191
 20
1.469
 21
1.204
  0
LINE
  8
0
 10
47.191
 11
47.324
 20
1.204
 21
0.92
  0
LINE
  8
0
 10
47.324
 11
47.421
 20
0.92
 21
0.622
  0
LINE
  8
0
 10
47.421
 11
47.48
 20
0.622
 21
0.313
  0
LINE
  8
0
 10
47.48
 11
47.5
 20
0.313
 21
0
  0
LINE
  8
0
 10
47.5
 11
47.48
 20
0
 21
-0.313
  0
LINE
  8
0
 10
47.48
 11
47.421
 20
-0.313
 21
-0.622
  0
LINE
  8
0
 10
47.421
 11
47.324
 20
-0.622
 21
-0.92
  0
LINE
  8
0
 10
47.324
 11
47.191
 20
-0.92
 21
-1.204
  0
LINE
  8
0
 10
47.191
 11
47.023
 20
-1.204
 21
-1.469
  0
LINE
  8
0
 10
47.023
 11
46.822
 20
-1.469
 21
-1.711
  0
LINE
  8
0
 10
46.822
 11
46.594
 20
-1.711
 21
-1.926
  0
LINE
  8
0
 10
46.594
 11
46.34
 20
-1.926
 21
-2.111
  0
LINE
  8
0
 10
46.34
 11
46.064
 20
-2.111
 21
-2.262
  0
LINE
  8
0
 10
46.064
 11
45.773
 20
-2.262
 21
-2.378
  0
LINE
  8
0
 10
45.773
 11
45.468
 20
-2.378
 21
-2.456
  0
LINE
  8
0
 10
45.468
 11
45.157
 20
-2.456
 21
-2.495
  0
LINE
  8
0
 10
45.157
 11
44.843
 20
-2.495
 21
-2.495
  0
LINE
  8
0
 10
44.843
 11
44.532
 20
-2.495
 21
-2.456
  0
LINE
  8
0
 10
44.532
 11
44.227
 20
-2.456
 21
-2.378
  0
LINE
  8
0
 10
44.227
 11
43.936
 20
-2.378
 21
-2.262
  0
LINE
  8
0
 10
43.936
 11
43.66
 20
-2.262
 21
-2.111
  0
LINE
  8
0
 10
43.66
 11
43.406
 20
-2.111
 21
-1.926
  0
LINE
  8
0
 10
43.406
 11
43.178
 20
-1.926
 21
-1.711
  0
LINE
  8
0
 10
43.178
 11
42.977
 20
-1.711
 21
-1.469
  0
LINE
  8
0
 10
42.977
 11
42.809
 20
-1.469
 21
-1.204
  0
LINE
  8
0
 10
42.809
 11
42.676
 20
-1.204
 21
-0.92
  0
LINE
  8
0
 10
42.676
 11
42.579
 20
-0.92
 21
-0.622
  0
LINE
  8
0
 10
42.579
 11
42.52
 20
-0.622
 21
-0.313
  0
LINE
  8
0
 10
42.52
 11
42.5
 20
-0.313
 21
0
  0
ENDSEC
  0
SECTION
  2
OBJECTS
  0
DICTIONARY
  0
ENDSEC
  0
EOF
