  0
SECTION
  2
BLOCKS
  0
ENDSEC
  0
SECTION
  2
ENTITIES
  0
LINE
  8
0
 10
20
 20
10
 11
90
 21
10
  0
LINE
  8
0
 10
90
 20
10
 11
90
 21
30
  0
LINE
  8
0
 10
90
 20
30
 11
-90
 21
30
  0
LINE
  8
0
 10
-90
 20
30
 11
-90
 21
10
  0
LINE
  8
0
 10
-90
 20
10
 11
-20
 21
10
  0
LINE
  8
0
 10
-20
 20
10
 11
-20
 21
-20
  0
LINE
  8
0
 10
-20
 20
-20
 11
20
 21
-20
  0
LINE
  8
0
 10
20
 20
-20
 11
20
 21
10
  0
LINE
  8
0
 10
-84
 20
25
 11
-84
 21
27
  0
LINE
  8
0
 10
-84
 20
27
 11
-80
 21
27
  0
LINE
  8
0
 10
-80
 20
27
 11
-80
 21
25
  0
LINE
  8
0
 10
-80
 20
25
 11
-84
 21
25
  0
LINE
  8
0
 10
64
 20
25
 11
64
 21
27
  0
LINE
  8
0
 10
64
 20
27
 11
68
 21
27
  0
LINE
  8
0
 10
68
 20
27
 11
68
 21
25
  0
LINE
  8
0
 10
68
 20
25
 11
64
 21
25
  0
LINE
  8
0
 10
-68
 20
25
 11
-68
 21
27
  0
LINE
  8
0
 10
-68
 20
27
 11
-64
 21
27
  0
LINE
  8
0
 10
-64
 20
27
 11
-64
 21
25
  0
LINE
  8
0
 10
-64
 20
25
 11
-68
 21
25
  0
LINE
  8
0
 10
80
 20
25
 11
80
 21
27
  0
LINE
  8
0
 10
80
 20
27
 11
84
 21
27
  0
LINE
  8
0
 10
84
 20
27
 11
84
 21
25
  0
LINE
  8
0
 10
84
 20
25
 11
80
 21
25
  0
LINE
  8
0
 10
-0.25116
 20
16.0079
 11
-0.749512
 21
16.0708
  0
LINE
  8
0
 10
-0.749512
 20
16.0708
 11
-1.23605
 21
16.1958
  0
LINE
  8
0
 10
-1.23605
 20
16.1958
 11
-1.70311
 21
16.3807
  0
LINE
  8
0
 10
-1.70311
 20
16.3807
 11
-2.1433
 21
16.6227
  0
LINE
  8
0
 10
-2.1433
 20
16.6227
 11
-2.54968
 21
16.9179
  0
LINE
  8
0
 10
-2.54968
 20
16.9179
 11
-2.91586
 21
17.2618
  0
LINE
  8
0
 10
-2.91586
 20
17.2618
 11
-3.23605
 21
17.6488
  0
LINE
  8
0
 10
-3.23605
 20
17.6488
 11
-3.50522
 21
18.073
  0
LINE
  8
0
 10
-3.50522
 20
18.073
 11
-3.7191
 21
18.5275
  0
LINE
  8
0
 10
-3.7191
 20
18.5275
 11
-3.87433
 21
19.0052
  0
LINE
  8
0
 10
-3.87433
 20
19.0052
 11
-3.96844
 21
19.4987
  0
LINE
  8
0
 10
-3.96844
 20
19.4987
 11
-4
 21
20
  0
LINE
  8
0
 10
-4
 20
20
 11
-3.96844
 21
20.5013
  0
LINE
  8
0
 10
-3.96844
 20
20.5013
 11
-3.87433
 21
20.9948
  0
LINE
  8
0
 10
-3.87433
 20
20.9948
 11
-3.7191
 21
21.4725
  0
LINE
  8
0
 10
-3.7191
 20
21.4725
 11
-3.50522
 21
21.927
  0
LINE
  8
0
 10
-3.50522
 20
21.927
 11
-3.23605
 21
22.3511
  0
LINE
  8
0
 10
-3.23605
 20
22.3511
 11
-2.91586
 21
22.7382
  0
LINE
  8
0
 10
-2.91586
 20
22.7382
 11
-2.54968
 21
23.082
  0
LINE
  8
0
 10
-2.54968
 20
23.082
 11
-2.1433
 21
23.3773
  0
LINE
  8
0
 10
-2.1433
 20
23.3773
 11
-1.70311
 21
23.6193
  0
LINE
  8
0
 10
-1.70311
 20
23.6193
 11
-1.23605
 21
23.8042
  0
LINE
  8
0
 10
-1.23605
 20
23.8042
 11
-0.749512
 21
23.9291
  0
LINE
  8
0
 10
-0.749512
 20
23.9291
 11
-0.25116
 21
23.9921
  0
LINE
  8
0
 10
-0.25116
 20
23.9921
 11
0.25116
 21
23.9921
  0
LINE
  8
0
 10
0.25116
 20
23.9921
 11
0.749512
 21
23.9291
  0
LINE
  8
0
 10
0.749512
 20
23.9291
 11
1.23605
 21
23.8042
  0
LINE
  8
0
 10
1.23605
 20
23.8042
 11
1.70311
 21
23.6193
  0
LINE
  8
0
 10
1.70311
 20
23.6193
 11
2.1433
 21
23.3773
  0
LINE
  8
0
 10
2.1433
 20
23.3773
 11
2.54968
 21
23.082
  0
LINE
  8
0
 10
2.54968
 20
23.082
 11
2.91586
 21
22.7382
  0
LINE
  8
0
 10
2.91586
 20
22.7382
 11
3.23605
 21
22.3511
  0
LINE
  8
0
 10
3.23605
 20
22.3511
 11
3.50522
 21
21.927
  0
LINE
  8
0
 10
3.50522
 20
21.927
 11
3.7191
 21
21.4725
  0
LINE
  8
0
 10
3.7191
 20
21.4725
 11
3.87433
 21
20.9948
  0
LINE
  8
0
 10
3.87433
 20
20.9948
 11
3.96844
 21
20.5013
  0
LINE
  8
0
 10
3.96844
 20
20.5013
 11
4
 21
20
  0
LINE
  8
0
 10
4
 20
20
 11
3.96844
 21
19.4987
  0
LINE
  8
0
 10
3.96844
 20
19.4987
 11
3.87433
 21
19.0052
  0
LINE
  8
0
 10
3.87433
 20
19.0052
 11
3.7191
 21
18.5275
  0
LINE
  8
0
 10
3.7191
 20
18.5275
 11
3.50522
 21
18.073
  0
LINE
  8
0
 10
3.50522
 20
18.073
 11
3.23605
 21
17.6488
  0
LINE
  8
0
 10
3.23605
 20
17.6488
 11
2.91586
 21
17.2618
  0
LINE
  8
0
 10
2.91586
 20
17.2618
 11
2.54968
 21
16.9179
  0
LINE
  8
0
 10
2.54968
 20
16.9179
 11
2.1433
 21
16.6227
  0
LINE
  8
0
 10
2.1433
 20
16.6227
 11
1.70311
 21
16.3807
  0
LINE
  8
0
 10
1.70311
 20
16.3807
 11
1.23605
 21
16.1958
  0
LINE
  8
0
 10
1.23605
 20
16.1958
 11
0.749512
 21
16.0708
  0
LINE
  8
0
 10
0.749512
 20
16.0708
 11
0.25116
 21
16.0079
  0
LINE
  8
0
 10
0.25116
 20
16.0079
 11
-0.25116
 21
16.0079
  0
LINE
  8
0
 10
-86
 20
17.5
 11
-86
 21
22.5
  0
LINE
  8
0
 10
-86
 20
22.5
 11
-78
 21
22.5
  0
LINE
  8
0
 10
-78
 20
22.5
 11
-78
 21
17.5
  0
LINE
  8
0
 10
-78
 20
17.5
 11
-86
 21
17.5
  0
LINE
  8
0
 10
78
 20
17.5
 11
78
 21
22.5
  0
LINE
  8
0
 10
78
 20
22.5
 11
86
 21
22.5
  0
LINE
  8
0
 10
86
 20
22.5
 11
86
 21
17.5
  0
LINE
  8
0
 10
86
 20
17.5
 11
78
 21
17.5
  0
LINE
  8
0
 10
-70
 20
17.5
 11
-70
 21
22.5
  0
LINE
  8
0
 10
-70
 20
22.5
 11
-62
 21
22.5
  0
LINE
  8
0
 10
-62
 20
22.5
 11
-62
 21
17.5
  0
LINE
  8
0
 10
-62
 20
17.5
 11
-70
 21
17.5
  0
LINE
  8
0
 10
62
 20
17.5
 11
62
 21
22.5
  0
LINE
  8
0
 10
62
 20
22.5
 11
70
 21
22.5
  0
LINE
  8
0
 10
70
 20
22.5
 11
70
 21
17.5
  0
LINE
  8
0
 10
70
 20
17.5
 11
62
 21
17.5
  0
LINE
  8
0
 10
-84
 20
13
 11
-84
 21
15
  0
LINE
  8
0
 10
-84
 20
15
 11
-80
 21
15
  0
LINE
  8
0
 10
-80
 20
15
 11
-80
 21
13
  0
LINE
  8
0
 10
-80
 20
13
 11
-84
 21
13
  0
LINE
  8
0
 10
64
 20
13
 11
64
 21
15
  0
LINE
  8
0
 10
64
 20
15
 11
68
 21
15
  0
LINE
  8
0
 10
68
 20
15
 11
68
 21
13
  0
LINE
  8
0
 10
68
 20
13
 11
64
 21
13
  0
LINE
  8
0
 10
-68
 20
13
 11
-68
 21
15
  0
LINE
  8
0
 10
-68
 20
15
 11
-64
 21
15
  0
LINE
  8
0
 10
-64
 20
15
 11
-64
 21
13
  0
LINE
  8
0
 10
-64
 20
13
 11
-68
 21
13
  0
LINE
  8
0
 10
80
 20
13
 11
80
 21
15
  0
LINE
  8
0
 10
80
 20
15
 11
84
 21
15
  0
LINE
  8
0
 10
84
 20
15
 11
84
 21
13
  0
LINE
  8
0
 10
84
 20
13
 11
80
 21
13
  0
LINE
  8
0
 10
9.84302
 20
7.50493
 11
9.53154
 21
7.54428
  0
LINE
  8
0
 10
9.53154
 20
7.54428
 11
9.22745
 21
7.62234
  0
LINE
  8
0
 10
9.22745
 20
7.62234
 11
8.93555
 21
7.73793
  0
LINE
  8
0
 10
8.93555
 20
7.73793
 11
8.66043
 21
7.88918
  0
LINE
  8
0
 10
8.66043
 20
7.88918
 11
8.40643
 21
8.07372
  0
LINE
  8
0
 10
8.40643
 20
8.07372
 11
8.17757
 21
8.28862
  0
LINE
  8
0
 10
8.17757
 20
8.28862
 11
7.97745
 21
8.53053
  0
LINE
  8
0
 10
7.97745
 20
8.53053
 11
7.80922
 21
8.79561
  0
LINE
  8
0
 10
7.80922
 20
8.79561
 11
7.67555
 21
9.07968
  0
LINE
  8
0
 10
7.67555
 20
9.07968
 11
7.57854
 21
9.37827
  0
LINE
  8
0
 10
7.57854
 20
9.37827
 11
7.5197
 21
9.68666
  0
LINE
  8
0
 10
7.5197
 20
9.68666
 11
7.5
 21
10
  0
LINE
  8
0
 10
7.5
 20
10
 11
7.5197
 21
10.3133
  0
LINE
  8
0
 10
7.5197
 20
10.3133
 11
7.57854
 21
10.6217
  0
LINE
  8
0
 10
7.57854
 20
10.6217
 11
7.67555
 21
10.9203
  0
LINE
  8
0
 10
7.67555
 20
10.9203
 11
7.80922
 21
11.2044
  0
LINE
  8
0
 10
7.80922
 20
11.2044
 11
7.97745
 21
11.4695
  0
LINE
  8
0
 10
7.97745
 20
11.4695
 11
8.17757
 21
11.7114
  0
LINE
  8
0
 10
8.17757
 20
11.7114
 11
8.40643
 21
11.9263
  0
LINE
  8
0
 10
8.40643
 20
11.9263
 11
8.66043
 21
12.1108
  0
LINE
  8
0
 10
8.66043
 20
12.1108
 11
8.93555
 21
12.2621
  0
LINE
  8
0
 10
8.93555
 20
12.2621
 11
9.22745
 21
12.3776
  0
LINE
  8
0
 10
9.22745
 20
12.3776
 11
9.53154
 21
12.4557
  0
LINE
  8
0
 10
9.53154
 20
12.4557
 11
9.84302
 21
12.4951
  0
LINE
  8
0
 10
9.84302
 20
12.4951
 11
10.157
 21
12.4951
  0
LINE
  8
0
 10
10.157
 20
12.4951
 11
10.4684
 21
12.4557
  0
LINE
  8
0
 10
10.4684
 20
12.4557
 11
10.7725
 21
12.3776
  0
LINE
  8
0
 10
10.7725
 20
12.3776
 11
11.0644
 21
12.2621
  0
LINE
  8
0
 10
11.0644
 20
12.2621
 11
11.3396
 21
12.1108
  0
LINE
  8
0
 10
11.3396
 20
12.1108
 11
11.5936
 21
11.9263
  0
LINE
  8
0
 10
11.5936
 20
11.9263
 11
11.8224
 21
11.7114
  0
LINE
  8
0
 10
11.8224
 20
11.7114
 11
12.0225
 21
11.4695
  0
LINE
  8
0
 10
12.0225
 20
11.4695
 11
12.1908
 21
11.2044
  0
LINE
  8
0
 10
12.1908
 20
11.2044
 11
12.3244
 21
10.9203
  0
LINE
  8
0
 10
12.3244
 20
10.9203
 11
12.4214
 21
10.6217
  0
LINE
  8
0
 10
12.4214
 20
10.6217
 11
12.4803
 21
10.3133
  0
LINE
  8
0
 10
12.4803
 20
10.3133
 11
12.5
 21
10
  0
LINE
  8
0
 10
12.5
 20
10
 11
12.4803
 21
9.68666
  0
LINE
  8
0
 10
12.4803
 20
9.68666
 11
12.4214
 21
9.37827
  0
LINE
  8
0
 10
12.4214
 20
9.37827
 11
12.3244
 21
9.07968
  0
LINE
  8
0
 10
12.3244
 20
9.07968
 11
12.1908
 21
8.79561
  0
LINE
  8
0
 10
12.1908
 20
8.79561
 11
12.0225
 21
8.53053
  0
LINE
  8
0
 10
12.0225
 20
8.53053
 11
11.8224
 21
8.28862
  0
LINE
  8
0
 10
11.8224
 20
8.28862
 11
11.5936
 21
8.07372
  0
LINE
  8
0
 10
11.5936
 20
8.07372
 11
11.3396
 21
7.88918
  0
LINE
  8
0
 10
11.3396
 20
7.88918
 11
11.0644
 21
7.73793
  0
LINE
  8
0
 10
11.0644
 20
7.73793
 11
10.7725
 21
7.62234
  0
LINE
  8
0
 10
10.7725
 20
7.62234
 11
10.4684
 21
7.54428
  0
LINE
  8
0
 10
10.4684
 20
7.54428
 11
10.157
 21
7.50493
  0
LINE
  8
0
 10
10.157
 20
7.50493
 11
9.84302
 21
7.50493
  0
LINE
  8
0
 10
-10.157
 20
7.50493
 11
-10.4684
 21
7.54428
  0
LINE
  8
0
 10
-10.4684
 20
7.54428
 11
-10.7725
 21
7.62234
  0
LINE
  8
0
 10
-10.7725
 20
7.62234
 11
-11.0644
 21
7.73793
  0
LINE
  8
0
 10
-11.0644
 20
7.73793
 11
-11.3396
 21
7.88918
  0
LINE
  8
0
 10
-11.3396
 20
7.88918
 11
-11.5936
 21
8.07372
  0
LINE
  8
0
 10
-11.5936
 20
8.07372
 11
-11.8224
 21
8.28862
  0
LINE
  8
0
 10
-11.8224
 20
8.28862
 11
-12.0225
 21
8.53053
  0
LINE
  8
0
 10
-12.0225
 20
8.53053
 11
-12.1908
 21
8.79561
  0
LINE
  8
0
 10
-12.1908
 20
8.79561
 11
-12.3244
 21
9.07968
  0
LINE
  8
0
 10
-12.3244
 20
9.07968
 11
-12.4214
 21
9.37827
  0
LINE
  8
0
 10
-12.4214
 20
9.37827
 11
-12.4803
 21
9.68666
  0
LINE
  8
0
 10
-12.4803
 20
9.68666
 11
-12.5
 21
10
  0
LINE
  8
0
 10
-12.5
 20
10
 11
-12.4803
 21
10.3133
  0
LINE
  8
0
 10
-12.4803
 20
10.3133
 11
-12.4214
 21
10.6217
  0
LINE
  8
0
 10
-12.4214
 20
10.6217
 11
-12.3244
 21
10.9203
  0
LINE
  8
0
 10
-12.3244
 20
10.9203
 11
-12.1908
 21
11.2044
  0
LINE
  8
0
 10
-12.1908
 20
11.2044
 11
-12.0225
 21
11.4695
  0
LINE
  8
0
 10
-12.0225
 20
11.4695
 11
-11.8224
 21
11.7114
  0
LINE
  8
0
 10
-11.8224
 20
11.7114
 11
-11.5936
 21
11.9263
  0
LINE
  8
0
 10
-11.5936
 20
11.9263
 11
-11.3396
 21
12.1108
  0
LINE
  8
0
 10
-11.3396
 20
12.1108
 11
-11.0644
 21
12.2621
  0
LINE
  8
0
 10
-11.0644
 20
12.2621
 11
-10.7725
 21
12.3776
  0
LINE
  8
0
 10
-10.7725
 20
12.3776
 11
-10.4684
 21
12.4557
  0
LINE
  8
0
 10
-10.4684
 20
12.4557
 11
-10.157
 21
12.4951
  0
LINE
  8
0
 10
-10.157
 20
12.4951
 11
-9.84302
 21
12.4951
  0
LINE
  8
0
 10
-9.84302
 20
12.4951
 11
-9.53154
 21
12.4557
  0
LINE
  8
0
 10
-9.53154
 20
12.4557
 11
-9.22745
 21
12.3776
  0
LINE
  8
0
 10
-9.22745
 20
12.3776
 11
-8.93555
 21
12.2621
  0
LINE
  8
0
 10
-8.93555
 20
12.2621
 11
-8.66043
 21
12.1108
  0
LINE
  8
0
 10
-8.66043
 20
12.1108
 11
-8.40643
 21
11.9263
  0
LINE
  8
0
 10
-8.40643
 20
11.9263
 11
-8.17757
 21
11.7114
  0
LINE
  8
0
 10
-8.17757
 20
11.7114
 11
-7.97745
 21
11.4695
  0
LINE
  8
0
 10
-7.97745
 20
11.4695
 11
-7.80922
 21
11.2044
  0
LINE
  8
0
 10
-7.80922
 20
11.2044
 11
-7.67555
 21
10.9203
  0
LINE
  8
0
 10
-7.67555
 20
10.9203
 11
-7.57854
 21
10.6217
  0
LINE
  8
0
 10
-7.57854
 20
10.6217
 11
-7.5197
 21
10.3133
  0
LINE
  8
0
 10
-7.5197
 20
10.3133
 11
-7.5
 21
10
  0
LINE
  8
0
 10
-7.5
 20
10
 11
-7.5197
 21
9.68666
  0
LINE
  8
0
 10
-7.5197
 20
9.68666
 11
-7.57854
 21
9.37827
  0
LINE
  8
0
 10
-7.57854
 20
9.37827
 11
-7.67555
 21
9.07968
  0
LINE
  8
0
 10
-7.67555
 20
9.07968
 11
-7.80922
 21
8.79561
  0
LINE
  8
0
 10
-7.80922
 20
8.79561
 11
-7.97745
 21
8.53053
  0
LINE
  8
0
 10
-7.97745
 20
8.53053
 11
-8.17757
 21
8.28862
  0
LINE
  8
0
 10
-8.17757
 20
8.28862
 11
-8.40643
 21
8.07372
  0
LINE
  8
0
 10
-8.40643
 20
8.07372
 11
-8.66043
 21
7.88918
  0
LINE
  8
0
 10
-8.66043
 20
7.88918
 11
-8.93555
 21
7.73793
  0
LINE
  8
0
 10
-8.93555
 20
7.73793
 11
-9.22745
 21
7.62234
  0
LINE
  8
0
 10
-9.22745
 20
7.62234
 11
-9.53154
 21
7.54428
  0
LINE
  8
0
 10
-9.53154
 20
7.54428
 11
-9.84302
 21
7.50493
  0
LINE
  8
0
 10
-9.84302
 20
7.50493
 11
-10.157
 21
7.50493
  0
LINE
  8
0
 10
9.84302
 20
-12.4951
 11
9.53154
 21
-12.4557
  0
LINE
  8
0
 10
9.53154
 20
-12.4557
 11
9.22745
 21
-12.3776
  0
LINE
  8
0
 10
9.22745
 20
-12.3776
 11
8.93555
 21
-12.2621
  0
LINE
  8
0
 10
8.93555
 20
-12.2621
 11
8.66043
 21
-12.1108
  0
LINE
  8
0
 10
8.66043
 20
-12.1108
 11
8.40643
 21
-11.9263
  0
LINE
  8
0
 10
8.40643
 20
-11.9263
 11
8.17757
 21
-11.7114
  0
LINE
  8
0
 10
8.17757
 20
-11.7114
 11
7.97745
 21
-11.4695
  0
LINE
  8
0
 10
7.97745
 20
-11.4695
 11
7.80922
 21
-11.2044
  0
LINE
  8
0
 10
7.80922
 20
-11.2044
 11
7.67555
 21
-10.9203
  0
LINE
  8
0
 10
7.67555
 20
-10.9203
 11
7.57854
 21
-10.6217
  0
LINE
  8
0
 10
7.57854
 20
-10.6217
 11
7.5197
 21
-10.3133
  0
LINE
  8
0
 10
7.5197
 20
-10.3133
 11
7.5
 21
-10
  0
LINE
  8
0
 10
7.5
 20
-10
 11
7.5197
 21
-9.68666
  0
LINE
  8
0
 10
7.5197
 20
-9.68666
 11
7.57854
 21
-9.37827
  0
LINE
  8
0
 10
7.57854
 20
-9.37827
 11
7.67555
 21
-9.07968
  0
LINE
  8
0
 10
7.67555
 20
-9.07968
 11
7.80922
 21
-8.79561
  0
LINE
  8
0
 10
7.80922
 20
-8.79561
 11
7.97745
 21
-8.53053
  0
LINE
  8
0
 10
7.97745
 20
-8.53053
 11
8.17757
 21
-8.28862
  0
LINE
  8
0
 10
8.17757
 20
-8.28862
 11
8.40643
 21
-8.07372
  0
LINE
  8
0
 10
8.40643
 20
-8.07372
 11
8.66043
 21
-7.88918
  0
LINE
  8
0
 10
8.66043
 20
-7.88918
 11
8.93555
 21
-7.73793
  0
LINE
  8
0
 10
8.93555
 20
-7.73793
 11
9.22745
 21
-7.62234
  0
LINE
  8
0
 10
9.22745
 20
-7.62234
 11
9.53154
 21
-7.54428
  0
LINE
  8
0
 10
9.53154
 20
-7.54428
 11
9.84302
 21
-7.50493
  0
LINE
  8
0
 10
9.84302
 20
-7.50493
 11
10.157
 21
-7.50493
  0
LINE
  8
0
 10
10.157
 20
-7.50493
 11
10.4684
 21
-7.54428
  0
LINE
  8
0
 10
10.4684
 20
-7.54428
 11
10.7725
 21
-7.62234
  0
LINE
  8
0
 10
10.7725
 20
-7.62234
 11
11.0644
 21
-7.73793
  0
LINE
  8
0
 10
11.0644
 20
-7.73793
 11
11.3396
 21
-7.88918
  0
LINE
  8
0
 10
11.3396
 20
-7.88918
 11
11.5936
 21
-8.07372
  0
LINE
  8
0
 10
11.5936
 20
-8.07372
 11
11.8224
 21
-8.28862
  0
LINE
  8
0
 10
11.8224
 20
-8.28862
 11
12.0225
 21
-8.53053
  0
LINE
  8
0
 10
12.0225
 20
-8.53053
 11
12.1908
 21
-8.79561
  0
LINE
  8
0
 10
12.1908
 20
-8.79561
 11
12.3244
 21
-9.07968
  0
LINE
  8
0
 10
12.3244
 20
-9.07968
 11
12.4214
 21
-9.37827
  0
LINE
  8
0
 10
12.4214
 20
-9.37827
 11
12.4803
 21
-9.68666
  0
LINE
  8
0
 10
12.4803
 20
-9.68666
 11
12.5
 21
-10
  0
LINE
  8
0
 10
12.5
 20
-10
 11
12.4803
 21
-10.3133
  0
LINE
  8
0
 10
12.4803
 20
-10.3133
 11
12.4214
 21
-10.6217
  0
LINE
  8
0
 10
12.4214
 20
-10.6217
 11
12.3244
 21
-10.9203
  0
LINE
  8
0
 10
12.3244
 20
-10.9203
 11
12.1908
 21
-11.2044
  0
LINE
  8
0
 10
12.1908
 20
-11.2044
 11
12.0225
 21
-11.4695
  0
LINE
  8
0
 10
12.0225
 20
-11.4695
 11
11.8224
 21
-11.7114
  0
LINE
  8
0
 10
11.8224
 20
-11.7114
 11
11.5936
 21
-11.9263
  0
LINE
  8
0
 10
11.5936
 20
-11.9263
 11
11.3396
 21
-12.1108
  0
LINE
  8
0
 10
11.3396
 20
-12.1108
 11
11.0644
 21
-12.2621
  0
LINE
  8
0
 10
11.0644
 20
-12.2621
 11
10.7725
 21
-12.3776
  0
LINE
  8
0
 10
10.7725
 20
-12.3776
 11
10.4684
 21
-12.4557
  0
LINE
  8
0
 10
10.4684
 20
-12.4557
 11
10.157
 21
-12.4951
  0
LINE
  8
0
 10
10.157
 20
-12.4951
 11
9.84302
 21
-12.4951
  0
LINE
  8
0
 10
-10.157
 20
-12.4951
 11
-10.4684
 21
-12.4557
  0
LINE
  8
0
 10
-10.4684
 20
-12.4557
 11
-10.7725
 21
-12.3776
  0
LINE
  8
0
 10
-10.7725
 20
-12.3776
 11
-11.0644
 21
-12.2621
  0
LINE
  8
0
 10
-11.0644
 20
-12.2621
 11
-11.3396
 21
-12.1108
  0
LINE
  8
0
 10
-11.3396
 20
-12.1108
 11
-11.5936
 21
-11.9263
  0
LINE
  8
0
 10
-11.5936
 20
-11.9263
 11
-11.8224
 21
-11.7114
  0
LINE
  8
0
 10
-11.8224
 20
-11.7114
 11
-12.0225
 21
-11.4695
  0
LINE
  8
0
 10
-12.0225
 20
-11.4695
 11
-12.1908
 21
-11.2044
  0
LINE
  8
0
 10
-12.1908
 20
-11.2044
 11
-12.3244
 21
-10.9203
  0
LINE
  8
0
 10
-12.3244
 20
-10.9203
 11
-12.4214
 21
-10.6217
  0
LINE
  8
0
 10
-12.4214
 20
-10.6217
 11
-12.4803
 21
-10.3133
  0
LINE
  8
0
 10
-12.4803
 20
-10.3133
 11
-12.5
 21
-10
  0
LINE
  8
0
 10
-12.5
 20
-10
 11
-12.4803
 21
-9.68666
  0
LINE
  8
0
 10
-12.4803
 20
-9.68666
 11
-12.4214
 21
-9.37827
  0
LINE
  8
0
 10
-12.4214
 20
-9.37827
 11
-12.3244
 21
-9.07968
  0
LINE
  8
0
 10
-12.3244
 20
-9.07968
 11
-12.1908
 21
-8.79561
  0
LINE
  8
0
 10
-12.1908
 20
-8.79561
 11
-12.0225
 21
-8.53053
  0
LINE
  8
0
 10
-12.0225
 20
-8.53053
 11
-11.8224
 21
-8.28862
  0
LINE
  8
0
 10
-11.8224
 20
-8.28862
 11
-11.5936
 21
-8.07372
  0
LINE
  8
0
 10
-11.5936
 20
-8.07372
 11
-11.3396
 21
-7.88918
  0
LINE
  8
0
 10
-11.3396
 20
-7.88918
 11
-11.0644
 21
-7.73793
  0
LINE
  8
0
 10
-11.0644
 20
-7.73793
 11
-10.7725
 21
-7.62234
  0
LINE
  8
0
 10
-10.7725
 20
-7.62234
 11
-10.4684
 21
-7.54428
  0
LINE
  8
0
 10
-10.4684
 20
-7.54428
 11
-10.157
 21
-7.50493
  0
LINE
  8
0
 10
-10.157
 20
-7.50493
 11
-9.84302
 21
-7.50493
  0
LINE
  8
0
 10
-9.84302
 20
-7.50493
 11
-9.53154
 21
-7.54428
  0
LINE
  8
0
 10
-9.53154
 20
-7.54428
 11
-9.22745
 21
-7.62234
  0
LINE
  8
0
 10
-9.22745
 20
-7.62234
 11
-8.93555
 21
-7.73793
  0
LINE
  8
0
 10
-8.93555
 20
-7.73793
 11
-8.66043
 21
-7.88918
  0
LINE
  8
0
 10
-8.66043
 20
-7.88918
 11
-8.40643
 21
-8.07372
  0
LINE
  8
0
 10
-8.40643
 20
-8.07372
 11
-8.17757
 21
-8.28862
  0
LINE
  8
0
 10
-8.17757
 20
-8.28862
 11
-7.97745
 21
-8.53053
  0
LINE
  8
0
 10
-7.97745
 20
-8.53053
 11
-7.80922
 21
-8.79561
  0
LINE
  8
0
 10
-7.80922
 20
-8.79561
 11
-7.67555
 21
-9.07968
  0
LINE
  8
0
 10
-7.67555
 20
-9.07968
 11
-7.57854
 21
-9.37827
  0
LINE
  8
0
 10
-7.57854
 20
-9.37827
 11
-7.5197
 21
-9.68666
  0
LINE
  8
0
 10
-7.5197
 20
-9.68666
 11
-7.5
 21
-10
  0
LINE
  8
0
 10
-7.5
 20
-10
 11
-7.5197
 21
-10.3133
  0
LINE
  8
0
 10
-7.5197
 20
-10.3133
 11
-7.57854
 21
-10.6217
  0
LINE
  8
0
 10
-7.57854
 20
-10.6217
 11
-7.67555
 21
-10.9203
  0
LINE
  8
0
 10
-7.67555
 20
-10.9203
 11
-7.80922
 21
-11.2044
  0
LINE
  8
0
 10
-7.80922
 20
-11.2044
 11
-7.97745
 21
-11.4695
  0
LINE
  8
0
 10
-7.97745
 20
-11.4695
 11
-8.17757
 21
-11.7114
  0
LINE
  8
0
 10
-8.17757
 20
-11.7114
 11
-8.40643
 21
-11.9263
  0
LINE
  8
0
 10
-8.40643
 20
-11.9263
 11
-8.66043
 21
-12.1108
  0
LINE
  8
0
 10
-8.66043
 20
-12.1108
 11
-8.93555
 21
-12.2621
  0
LINE
  8
0
 10
-8.93555
 20
-12.2621
 11
-9.22745
 21
-12.3776
  0
LINE
  8
0
 10
-9.22745
 20
-12.3776
 11
-9.53154
 21
-12.4557
  0
LINE
  8
0
 10
-9.53154
 20
-12.4557
 11
-9.84302
 21
-12.4951
  0
LINE
  8
0
 10
-9.84302
 20
-12.4951
 11
-10.157
 21
-12.4951
  0
ENDSEC
  0
SECTION
  2
OBJECTS
  0
DICTIONARY
  0
ENDSEC
  0
EOF
