  0
SECTION
  2
BLOCKS
  0
ENDSEC
  0
SECTION
  2
ENTITIES
  0
LINE
  8
0
 10
20
 20
16
 11
25
 21
16
  0
LINE
  8
0
 10
25
 20
16
 11
90
 21
20
  0
LINE
  8
0
 10
90
 20
20
 11
90
 21
40
  0
LINE
  8
0
 10
90
 20
40
 11
25
 21
66
  0
LINE
  8
0
 10
25
 20
66
 11
-25
 21
66
  0
LINE
  8
0
 10
-25
 20
66
 11
-90
 21
40
  0
LINE
  8
0
 10
-90
 20
40
 11
-90
 21
20
  0
LINE
  8
0
 10
-90
 20
20
 11
-25
 21
16
  0
LINE
  8
0
 10
-25
 20
16
 11
-20
 21
16
  0
LINE
  8
0
 10
-20
 20
16
 11
-20
 21
-20
  0
LINE
  8
0
 10
-20
 20
-20
 11
20
 21
-20
  0
LINE
  8
0
 10
20
 20
-20
 11
20
 21
16
  0
LINE
  8
0
 10
15.4058
 20
55.0029
 11
15.2189
 21
55.0266
  0
LINE
  8
0
 10
15.2189
 20
55.0266
 11
15.0365
 21
55.0734
  0
LINE
  8
0
 10
15.0365
 20
55.0734
 11
14.8613
 21
55.1427
  0
LINE
  8
0
 10
14.8613
 20
55.1427
 11
14.6963
 21
55.2335
  0
LINE
  8
0
 10
14.6963
 20
55.2335
 11
14.5439
 21
55.3442
  0
LINE
  8
0
 10
14.5439
 20
55.3442
 11
14.4065
 21
55.4732
  0
LINE
  8
0
 10
14.4065
 20
55.4732
 11
14.2865
 21
55.6183
  0
LINE
  8
0
 10
14.2865
 20
55.6183
 11
14.1855
 21
55.7774
  0
LINE
  8
0
 10
14.1855
 20
55.7774
 11
14.1053
 21
55.9478
  0
LINE
  8
0
 10
14.1053
 20
55.9478
 11
14.0471
 21
56.127
  0
LINE
  8
0
 10
14.0471
 20
56.127
 11
14.0118
 21
56.312
  0
LINE
  8
0
 10
14.0118
 20
56.312
 11
14
 21
56.5
  0
LINE
  8
0
 10
14
 20
56.5
 11
14.0118
 21
56.688
  0
LINE
  8
0
 10
14.0118
 20
56.688
 11
14.0471
 21
56.873
  0
LINE
  8
0
 10
14.0471
 20
56.873
 11
14.1053
 21
57.0522
  0
LINE
  8
0
 10
14.1053
 20
57.0522
 11
14.1855
 21
57.2226
  0
LINE
  8
0
 10
14.1855
 20
57.2226
 11
14.2865
 21
57.3817
  0
LINE
  8
0
 10
14.2865
 20
57.3817
 11
14.4065
 21
57.5268
  0
LINE
  8
0
 10
14.4065
 20
57.5268
 11
14.5439
 21
57.6558
  0
LINE
  8
0
 10
14.5439
 20
57.6558
 11
14.6963
 21
57.7665
  0
LINE
  8
0
 10
14.6963
 20
57.7665
 11
14.8613
 21
57.8572
  0
LINE
  8
0
 10
14.8613
 20
57.8572
 11
15.0365
 21
57.9266
  0
LINE
  8
0
 10
15.0365
 20
57.9266
 11
15.2189
 21
57.9734
  0
LINE
  8
0
 10
15.2189
 20
57.9734
 11
15.4058
 21
57.997
  0
LINE
  8
0
 10
15.4058
 20
57.997
 11
15.5942
 21
57.997
  0
LINE
  8
0
 10
15.5942
 20
57.997
 11
15.7811
 21
57.9734
  0
LINE
  8
0
 10
15.7811
 20
57.9734
 11
15.9635
 21
57.9266
  0
LINE
  8
0
 10
15.9635
 20
57.9266
 11
16.1387
 21
57.8572
  0
LINE
  8
0
 10
16.1387
 20
57.8572
 11
16.3037
 21
57.7665
  0
LINE
  8
0
 10
16.3037
 20
57.7665
 11
16.4561
 21
57.6558
  0
LINE
  8
0
 10
16.4561
 20
57.6558
 11
16.5934
 21
57.5268
  0
LINE
  8
0
 10
16.5934
 20
57.5268
 11
16.7135
 21
57.3817
  0
LINE
  8
0
 10
16.7135
 20
57.3817
 11
16.8145
 21
57.2226
  0
LINE
  8
0
 10
16.8145
 20
57.2226
 11
16.8947
 21
57.0522
  0
LINE
  8
0
 10
16.8947
 20
57.0522
 11
16.9529
 21
56.873
  0
LINE
  8
0
 10
16.9529
 20
56.873
 11
16.9882
 21
56.688
  0
LINE
  8
0
 10
16.9882
 20
56.688
 11
17
 21
56.5
  0
LINE
  8
0
 10
17
 20
56.5
 11
16.9882
 21
56.312
  0
LINE
  8
0
 10
16.9882
 20
56.312
 11
16.9529
 21
56.127
  0
LINE
  8
0
 10
16.9529
 20
56.127
 11
16.8947
 21
55.9478
  0
LINE
  8
0
 10
16.8947
 20
55.9478
 11
16.8145
 21
55.7774
  0
LINE
  8
0
 10
16.8145
 20
55.7774
 11
16.7135
 21
55.6183
  0
LINE
  8
0
 10
16.7135
 20
55.6183
 11
16.5934
 21
55.4732
  0
LINE
  8
0
 10
16.5934
 20
55.4732
 11
16.4561
 21
55.3442
  0
LINE
  8
0
 10
16.4561
 20
55.3442
 11
16.3037
 21
55.2335
  0
LINE
  8
0
 10
16.3037
 20
55.2335
 11
16.1387
 21
55.1427
  0
LINE
  8
0
 10
16.1387
 20
55.1427
 11
15.9635
 21
55.0734
  0
LINE
  8
0
 10
15.9635
 20
55.0734
 11
15.7811
 21
55.0266
  0
LINE
  8
0
 10
15.7811
 20
55.0266
 11
15.5942
 21
55.0029
  0
LINE
  8
0
 10
15.5942
 20
55.0029
 11
15.4058
 21
55.0029
  0
LINE
  8
0
 10
-15.5942
 20
55.0029
 11
-15.7811
 21
55.0266
  0
LINE
  8
0
 10
-15.7811
 20
55.0266
 11
-15.9635
 21
55.0734
  0
LINE
  8
0
 10
-15.9635
 20
55.0734
 11
-16.1387
 21
55.1427
  0
LINE
  8
0
 10
-16.1387
 20
55.1427
 11
-16.3037
 21
55.2335
  0
LINE
  8
0
 10
-16.3037
 20
55.2335
 11
-16.4561
 21
55.3442
  0
LINE
  8
0
 10
-16.4561
 20
55.3442
 11
-16.5934
 21
55.4732
  0
LINE
  8
0
 10
-16.5934
 20
55.4732
 11
-16.7135
 21
55.6183
  0
LINE
  8
0
 10
-16.7135
 20
55.6183
 11
-16.8145
 21
55.7774
  0
LINE
  8
0
 10
-16.8145
 20
55.7774
 11
-16.8947
 21
55.9478
  0
LINE
  8
0
 10
-16.8947
 20
55.9478
 11
-16.9529
 21
56.127
  0
LINE
  8
0
 10
-16.9529
 20
56.127
 11
-16.9882
 21
56.312
  0
LINE
  8
0
 10
-16.9882
 20
56.312
 11
-17
 21
56.5
  0
LINE
  8
0
 10
-17
 20
56.5
 11
-16.9882
 21
56.688
  0
LINE
  8
0
 10
-16.9882
 20
56.688
 11
-16.9529
 21
56.873
  0
LINE
  8
0
 10
-16.9529
 20
56.873
 11
-16.8947
 21
57.0522
  0
LINE
  8
0
 10
-16.8947
 20
57.0522
 11
-16.8145
 21
57.2226
  0
LINE
  8
0
 10
-16.8145
 20
57.2226
 11
-16.7135
 21
57.3817
  0
LINE
  8
0
 10
-16.7135
 20
57.3817
 11
-16.5934
 21
57.5268
  0
LINE
  8
0
 10
-16.5934
 20
57.5268
 11
-16.4561
 21
57.6558
  0
LINE
  8
0
 10
-16.4561
 20
57.6558
 11
-16.3037
 21
57.7665
  0
LINE
  8
0
 10
-16.3037
 20
57.7665
 11
-16.1387
 21
57.8572
  0
LINE
  8
0
 10
-16.1387
 20
57.8572
 11
-15.9635
 21
57.9266
  0
LINE
  8
0
 10
-15.9635
 20
57.9266
 11
-15.7811
 21
57.9734
  0
LINE
  8
0
 10
-15.7811
 20
57.9734
 11
-15.5942
 21
57.997
  0
LINE
  8
0
 10
-15.5942
 20
57.997
 11
-15.4058
 21
57.997
  0
LINE
  8
0
 10
-15.4058
 20
57.997
 11
-15.2189
 21
57.9734
  0
LINE
  8
0
 10
-15.2189
 20
57.9734
 11
-15.0365
 21
57.9266
  0
LINE
  8
0
 10
-15.0365
 20
57.9266
 11
-14.8613
 21
57.8572
  0
LINE
  8
0
 10
-14.8613
 20
57.8572
 11
-14.6963
 21
57.7665
  0
LINE
  8
0
 10
-14.6963
 20
57.7665
 11
-14.5439
 21
57.6558
  0
LINE
  8
0
 10
-14.5439
 20
57.6558
 11
-14.4065
 21
57.5268
  0
LINE
  8
0
 10
-14.4065
 20
57.5268
 11
-14.2865
 21
57.3817
  0
LINE
  8
0
 10
-14.2865
 20
57.3817
 11
-14.1855
 21
57.2226
  0
LINE
  8
0
 10
-14.1855
 20
57.2226
 11
-14.1053
 21
57.0522
  0
LINE
  8
0
 10
-14.1053
 20
57.0522
 11
-14.0471
 21
56.873
  0
LINE
  8
0
 10
-14.0471
 20
56.873
 11
-14.0118
 21
56.688
  0
LINE
  8
0
 10
-14.0118
 20
56.688
 11
-14
 21
56.5
  0
LINE
  8
0
 10
-14
 20
56.5
 11
-14.0118
 21
56.312
  0
LINE
  8
0
 10
-14.0118
 20
56.312
 11
-14.0471
 21
56.127
  0
LINE
  8
0
 10
-14.0471
 20
56.127
 11
-14.1053
 21
55.9478
  0
LINE
  8
0
 10
-14.1053
 20
55.9478
 11
-14.1855
 21
55.7774
  0
LINE
  8
0
 10
-14.1855
 20
55.7774
 11
-14.2865
 21
55.6183
  0
LINE
  8
0
 10
-14.2865
 20
55.6183
 11
-14.4065
 21
55.4732
  0
LINE
  8
0
 10
-14.4065
 20
55.4732
 11
-14.5439
 21
55.3442
  0
LINE
  8
0
 10
-14.5439
 20
55.3442
 11
-14.6963
 21
55.2335
  0
LINE
  8
0
 10
-14.6963
 20
55.2335
 11
-14.8613
 21
55.1427
  0
LINE
  8
0
 10
-14.8613
 20
55.1427
 11
-15.0365
 21
55.0734
  0
LINE
  8
0
 10
-15.0365
 20
55.0734
 11
-15.2189
 21
55.0266
  0
LINE
  8
0
 10
-15.2189
 20
55.0266
 11
-15.4058
 21
55.0029
  0
LINE
  8
0
 10
-15.4058
 20
55.0029
 11
-15.5942
 21
55.0029
  0
LINE
  8
0
 10
-0.69696
 20
29.9219
 11
-2.07993
 21
30.0966
  0
LINE
  8
0
 10
-2.07993
 20
30.0966
 11
-3.43008
 21
30.4433
  0
LINE
  8
0
 10
-3.43008
 20
30.4433
 11
-4.72614
 21
30.9564
  0
LINE
  8
0
 10
-4.72614
 20
30.9564
 11
-5.94766
 21
31.628
  0
LINE
  8
0
 10
-5.94766
 20
31.628
 11
-7.07539
 21
32.4473
  0
LINE
  8
0
 10
-7.07539
 20
32.4473
 11
-8.09154
 21
33.4015
  0
LINE
  8
0
 10
-8.09154
 20
33.4015
 11
-8.98009
 21
34.4756
  0
LINE
  8
0
 10
-8.98009
 20
34.4756
 11
-9.72699
 21
35.6525
  0
LINE
  8
0
 10
-9.72699
 20
35.6525
 11
-10.3205
 21
36.9138
  0
LINE
  8
0
 10
-10.3205
 20
36.9138
 11
-10.7513
 21
38.2395
  0
LINE
  8
0
 10
-10.7513
 20
38.2395
 11
-11.0125
 21
39.6088
  0
LINE
  8
0
 10
-11.0125
 20
39.6088
 11
-11.1
 21
41
  0
LINE
  8
0
 10
-11.1
 20
41
 11
-11.0125
 21
42.3912
  0
LINE
  8
0
 10
-11.0125
 20
42.3912
 11
-10.7513
 21
43.7605
  0
LINE
  8
0
 10
-10.7513
 20
43.7605
 11
-10.3205
 21
45.0862
  0
LINE
  8
0
 10
-10.3205
 20
45.0862
 11
-9.72699
 21
46.3475
  0
LINE
  8
0
 10
-9.72699
 20
46.3475
 11
-8.98009
 21
47.5244
  0
LINE
  8
0
 10
-8.98009
 20
47.5244
 11
-8.09154
 21
48.5985
  0
LINE
  8
0
 10
-8.09154
 20
48.5985
 11
-7.07539
 21
49.5527
  0
LINE
  8
0
 10
-7.07539
 20
49.5527
 11
-5.94766
 21
50.372
  0
LINE
  8
0
 10
-5.94766
 20
50.372
 11
-4.72614
 21
51.0436
  0
LINE
  8
0
 10
-4.72614
 20
51.0436
 11
-3.43008
 21
51.5567
  0
LINE
  8
0
 10
-3.43008
 20
51.5567
 11
-2.07993
 21
51.9034
  0
LINE
  8
0
 10
-2.07993
 20
51.9034
 11
-0.69696
 21
52.0781
  0
LINE
  8
0
 10
-0.69696
 20
52.0781
 11
0.69696
 21
52.0781
  0
LINE
  8
0
 10
0.69696
 20
52.0781
 11
2.07993
 21
51.9034
  0
LINE
  8
0
 10
2.07993
 20
51.9034
 11
3.43008
 21
51.5567
  0
LINE
  8
0
 10
3.43008
 20
51.5567
 11
4.72614
 21
51.0436
  0
LINE
  8
0
 10
4.72614
 20
51.0436
 11
5.94766
 21
50.372
  0
LINE
  8
0
 10
5.94766
 20
50.372
 11
7.07539
 21
49.5527
  0
LINE
  8
0
 10
7.07539
 20
49.5527
 11
8.09154
 21
48.5985
  0
LINE
  8
0
 10
8.09154
 20
48.5985
 11
8.98009
 21
47.5244
  0
LINE
  8
0
 10
8.98009
 20
47.5244
 11
9.72699
 21
46.3475
  0
LINE
  8
0
 10
9.72699
 20
46.3475
 11
10.3205
 21
45.0862
  0
LINE
  8
0
 10
10.3205
 20
45.0862
 11
10.7513
 21
43.7605
  0
LINE
  8
0
 10
10.7513
 20
43.7605
 11
11.0125
 21
42.3912
  0
LINE
  8
0
 10
11.0125
 20
42.3912
 11
11.1
 21
41
  0
LINE
  8
0
 10
11.1
 20
41
 11
11.0125
 21
39.6088
  0
LINE
  8
0
 10
11.0125
 20
39.6088
 11
10.7513
 21
38.2395
  0
LINE
  8
0
 10
10.7513
 20
38.2395
 11
10.3205
 21
36.9138
  0
LINE
  8
0
 10
10.3205
 20
36.9138
 11
9.72699
 21
35.6525
  0
LINE
  8
0
 10
9.72699
 20
35.6525
 11
8.98009
 21
34.4756
  0
LINE
  8
0
 10
8.98009
 20
34.4756
 11
8.09154
 21
33.4015
  0
LINE
  8
0
 10
8.09154
 20
33.4015
 11
7.07539
 21
32.4473
  0
LINE
  8
0
 10
7.07539
 20
32.4473
 11
5.94766
 21
31.628
  0
LINE
  8
0
 10
5.94766
 20
31.628
 11
4.72614
 21
30.9564
  0
LINE
  8
0
 10
4.72614
 20
30.9564
 11
3.43008
 21
30.4433
  0
LINE
  8
0
 10
3.43008
 20
30.4433
 11
2.07993
 21
30.0966
  0
LINE
  8
0
 10
2.07993
 20
30.0966
 11
0.69696
 21
29.9219
  0
LINE
  8
0
 10
0.69696
 20
29.9219
 11
-0.69696
 21
29.9219
  0
LINE
  8
0
 10
-84
 20
35
 11
-84
 21
37
  0
LINE
  8
0
 10
-84
 20
37
 11
-80
 21
37
  0
LINE
  8
0
 10
-80
 20
37
 11
-80
 21
35
  0
LINE
  8
0
 10
-80
 20
35
 11
-84
 21
35
  0
LINE
  8
0
 10
64
 20
35
 11
64
 21
37
  0
LINE
  8
0
 10
64
 20
37
 11
68
 21
37
  0
LINE
  8
0
 10
68
 20
37
 11
68
 21
35
  0
LINE
  8
0
 10
68
 20
35
 11
64
 21
35
  0
LINE
  8
0
 10
-68
 20
35
 11
-68
 21
37
  0
LINE
  8
0
 10
-68
 20
37
 11
-64
 21
37
  0
LINE
  8
0
 10
-64
 20
37
 11
-64
 21
35
  0
LINE
  8
0
 10
-64
 20
35
 11
-68
 21
35
  0
LINE
  8
0
 10
80
 20
35
 11
80
 21
37
  0
LINE
  8
0
 10
80
 20
37
 11
84
 21
37
  0
LINE
  8
0
 10
84
 20
37
 11
84
 21
35
  0
LINE
  8
0
 10
84
 20
35
 11
80
 21
35
  0
LINE
  8
0
 10
-86
 20
27.5
 11
-86
 21
32.5
  0
LINE
  8
0
 10
-86
 20
32.5
 11
-78
 21
32.5
  0
LINE
  8
0
 10
-78
 20
32.5
 11
-78
 21
27.5
  0
LINE
  8
0
 10
-78
 20
27.5
 11
-86
 21
27.5
  0
LINE
  8
0
 10
62
 20
27.5
 11
62
 21
32.5
  0
LINE
  8
0
 10
62
 20
32.5
 11
70
 21
32.5
  0
LINE
  8
0
 10
70
 20
32.5
 11
70
 21
27.5
  0
LINE
  8
0
 10
70
 20
27.5
 11
62
 21
27.5
  0
LINE
  8
0
 10
-70
 20
27.5
 11
-70
 21
32.5
  0
LINE
  8
0
 10
-70
 20
32.5
 11
-62
 21
32.5
  0
LINE
  8
0
 10
-62
 20
32.5
 11
-62
 21
27.5
  0
LINE
  8
0
 10
-62
 20
27.5
 11
-70
 21
27.5
  0
LINE
  8
0
 10
78
 20
27.5
 11
78
 21
32.5
  0
LINE
  8
0
 10
78
 20
32.5
 11
86
 21
32.5
  0
LINE
  8
0
 10
86
 20
32.5
 11
86
 21
27.5
  0
LINE
  8
0
 10
86
 20
27.5
 11
78
 21
27.5
  0
LINE
  8
0
 10
15.4058
 20
24.003
 11
15.2189
 21
24.0266
  0
LINE
  8
0
 10
15.2189
 20
24.0266
 11
15.0365
 21
24.0734
  0
LINE
  8
0
 10
15.0365
 20
24.0734
 11
14.8613
 21
24.1428
  0
LINE
  8
0
 10
14.8613
 20
24.1428
 11
14.6963
 21
24.2335
  0
LINE
  8
0
 10
14.6963
 20
24.2335
 11
14.5439
 21
24.3442
  0
LINE
  8
0
 10
14.5439
 20
24.3442
 11
14.4065
 21
24.4732
  0
LINE
  8
0
 10
14.4065
 20
24.4732
 11
14.2865
 21
24.6183
  0
LINE
  8
0
 10
14.2865
 20
24.6183
 11
14.1855
 21
24.7774
  0
LINE
  8
0
 10
14.1855
 20
24.7774
 11
14.1053
 21
24.9478
  0
LINE
  8
0
 10
14.1053
 20
24.9478
 11
14.0471
 21
25.127
  0
LINE
  8
0
 10
14.0471
 20
25.127
 11
14.0118
 21
25.312
  0
LINE
  8
0
 10
14.0118
 20
25.312
 11
14
 21
25.5
  0
LINE
  8
0
 10
14
 20
25.5
 11
14.0118
 21
25.688
  0
LINE
  8
0
 10
14.0118
 20
25.688
 11
14.0471
 21
25.873
  0
LINE
  8
0
 10
14.0471
 20
25.873
 11
14.1053
 21
26.0522
  0
LINE
  8
0
 10
14.1053
 20
26.0522
 11
14.1855
 21
26.2226
  0
LINE
  8
0
 10
14.1855
 20
26.2226
 11
14.2865
 21
26.3817
  0
LINE
  8
0
 10
14.2865
 20
26.3817
 11
14.4065
 21
26.5268
  0
LINE
  8
0
 10
14.4065
 20
26.5268
 11
14.5439
 21
26.6558
  0
LINE
  8
0
 10
14.5439
 20
26.6558
 11
14.6963
 21
26.7665
  0
LINE
  8
0
 10
14.6963
 20
26.7665
 11
14.8613
 21
26.8573
  0
LINE
  8
0
 10
14.8613
 20
26.8573
 11
15.0365
 21
26.9266
  0
LINE
  8
0
 10
15.0365
 20
26.9266
 11
15.2189
 21
26.9734
  0
LINE
  8
0
 10
15.2189
 20
26.9734
 11
15.4058
 21
26.9971
  0
LINE
  8
0
 10
15.4058
 20
26.9971
 11
15.5942
 21
26.9971
  0
LINE
  8
0
 10
15.5942
 20
26.9971
 11
15.7811
 21
26.9734
  0
LINE
  8
0
 10
15.7811
 20
26.9734
 11
15.9635
 21
26.9266
  0
LINE
  8
0
 10
15.9635
 20
26.9266
 11
16.1387
 21
26.8573
  0
LINE
  8
0
 10
16.1387
 20
26.8573
 11
16.3037
 21
26.7665
  0
LINE
  8
0
 10
16.3037
 20
26.7665
 11
16.4561
 21
26.6558
  0
LINE
  8
0
 10
16.4561
 20
26.6558
 11
16.5934
 21
26.5268
  0
LINE
  8
0
 10
16.5934
 20
26.5268
 11
16.7135
 21
26.3817
  0
LINE
  8
0
 10
16.7135
 20
26.3817
 11
16.8145
 21
26.2226
  0
LINE
  8
0
 10
16.8145
 20
26.2226
 11
16.8947
 21
26.0522
  0
LINE
  8
0
 10
16.8947
 20
26.0522
 11
16.9529
 21
25.873
  0
LINE
  8
0
 10
16.9529
 20
25.873
 11
16.9882
 21
25.688
  0
LINE
  8
0
 10
16.9882
 20
25.688
 11
17
 21
25.5
  0
LINE
  8
0
 10
17
 20
25.5
 11
16.9882
 21
25.312
  0
LINE
  8
0
 10
16.9882
 20
25.312
 11
16.9529
 21
25.127
  0
LINE
  8
0
 10
16.9529
 20
25.127
 11
16.8947
 21
24.9478
  0
LINE
  8
0
 10
16.8947
 20
24.9478
 11
16.8145
 21
24.7774
  0
LINE
  8
0
 10
16.8145
 20
24.7774
 11
16.7135
 21
24.6183
  0
LINE
  8
0
 10
16.7135
 20
24.6183
 11
16.5934
 21
24.4732
  0
LINE
  8
0
 10
16.5934
 20
24.4732
 11
16.4561
 21
24.3442
  0
LINE
  8
0
 10
16.4561
 20
24.3442
 11
16.3037
 21
24.2335
  0
LINE
  8
0
 10
16.3037
 20
24.2335
 11
16.1387
 21
24.1428
  0
LINE
  8
0
 10
16.1387
 20
24.1428
 11
15.9635
 21
24.0734
  0
LINE
  8
0
 10
15.9635
 20
24.0734
 11
15.7811
 21
24.0266
  0
LINE
  8
0
 10
15.7811
 20
24.0266
 11
15.5942
 21
24.003
  0
LINE
  8
0
 10
15.5942
 20
24.003
 11
15.4058
 21
24.003
  0
LINE
  8
0
 10
-15.5942
 20
24.003
 11
-15.7811
 21
24.0266
  0
LINE
  8
0
 10
-15.7811
 20
24.0266
 11
-15.9635
 21
24.0734
  0
LINE
  8
0
 10
-15.9635
 20
24.0734
 11
-16.1387
 21
24.1428
  0
LINE
  8
0
 10
-16.1387
 20
24.1428
 11
-16.3037
 21
24.2335
  0
LINE
  8
0
 10
-16.3037
 20
24.2335
 11
-16.4561
 21
24.3442
  0
LINE
  8
0
 10
-16.4561
 20
24.3442
 11
-16.5934
 21
24.4732
  0
LINE
  8
0
 10
-16.5934
 20
24.4732
 11
-16.7135
 21
24.6183
  0
LINE
  8
0
 10
-16.7135
 20
24.6183
 11
-16.8145
 21
24.7774
  0
LINE
  8
0
 10
-16.8145
 20
24.7774
 11
-16.8947
 21
24.9478
  0
LINE
  8
0
 10
-16.8947
 20
24.9478
 11
-16.9529
 21
25.127
  0
LINE
  8
0
 10
-16.9529
 20
25.127
 11
-16.9882
 21
25.312
  0
LINE
  8
0
 10
-16.9882
 20
25.312
 11
-17
 21
25.5
  0
LINE
  8
0
 10
-17
 20
25.5
 11
-16.9882
 21
25.688
  0
LINE
  8
0
 10
-16.9882
 20
25.688
 11
-16.9529
 21
25.873
  0
LINE
  8
0
 10
-16.9529
 20
25.873
 11
-16.8947
 21
26.0522
  0
LINE
  8
0
 10
-16.8947
 20
26.0522
 11
-16.8145
 21
26.2226
  0
LINE
  8
0
 10
-16.8145
 20
26.2226
 11
-16.7135
 21
26.3817
  0
LINE
  8
0
 10
-16.7135
 20
26.3817
 11
-16.5934
 21
26.5268
  0
LINE
  8
0
 10
-16.5934
 20
26.5268
 11
-16.4561
 21
26.6558
  0
LINE
  8
0
 10
-16.4561
 20
26.6558
 11
-16.3037
 21
26.7665
  0
LINE
  8
0
 10
-16.3037
 20
26.7665
 11
-16.1387
 21
26.8573
  0
LINE
  8
0
 10
-16.1387
 20
26.8573
 11
-15.9635
 21
26.9266
  0
LINE
  8
0
 10
-15.9635
 20
26.9266
 11
-15.7811
 21
26.9734
  0
LINE
  8
0
 10
-15.7811
 20
26.9734
 11
-15.5942
 21
26.9971
  0
LINE
  8
0
 10
-15.5942
 20
26.9971
 11
-15.4058
 21
26.9971
  0
LINE
  8
0
 10
-15.4058
 20
26.9971
 11
-15.2189
 21
26.9734
  0
LINE
  8
0
 10
-15.2189
 20
26.9734
 11
-15.0365
 21
26.9266
  0
LINE
  8
0
 10
-15.0365
 20
26.9266
 11
-14.8613
 21
26.8573
  0
LINE
  8
0
 10
-14.8613
 20
26.8573
 11
-14.6963
 21
26.7665
  0
LINE
  8
0
 10
-14.6963
 20
26.7665
 11
-14.5439
 21
26.6558
  0
LINE
  8
0
 10
-14.5439
 20
26.6558
 11
-14.4065
 21
26.5268
  0
LINE
  8
0
 10
-14.4065
 20
26.5268
 11
-14.2865
 21
26.3817
  0
LINE
  8
0
 10
-14.2865
 20
26.3817
 11
-14.1855
 21
26.2226
  0
LINE
  8
0
 10
-14.1855
 20
26.2226
 11
-14.1053
 21
26.0522
  0
LINE
  8
0
 10
-14.1053
 20
26.0522
 11
-14.0471
 21
25.873
  0
LINE
  8
0
 10
-14.0471
 20
25.873
 11
-14.0118
 21
25.688
  0
LINE
  8
0
 10
-14.0118
 20
25.688
 11
-14
 21
25.5
  0
LINE
  8
0
 10
-14
 20
25.5
 11
-14.0118
 21
25.312
  0
LINE
  8
0
 10
-14.0118
 20
25.312
 11
-14.0471
 21
25.127
  0
LINE
  8
0
 10
-14.0471
 20
25.127
 11
-14.1053
 21
24.9478
  0
LINE
  8
0
 10
-14.1053
 20
24.9478
 11
-14.1855
 21
24.7774
  0
LINE
  8
0
 10
-14.1855
 20
24.7774
 11
-14.2865
 21
24.6183
  0
LINE
  8
0
 10
-14.2865
 20
24.6183
 11
-14.4065
 21
24.4732
  0
LINE
  8
0
 10
-14.4065
 20
24.4732
 11
-14.5439
 21
24.3442
  0
LINE
  8
0
 10
-14.5439
 20
24.3442
 11
-14.6963
 21
24.2335
  0
LINE
  8
0
 10
-14.6963
 20
24.2335
 11
-14.8613
 21
24.1428
  0
LINE
  8
0
 10
-14.8613
 20
24.1428
 11
-15.0365
 21
24.0734
  0
LINE
  8
0
 10
-15.0365
 20
24.0734
 11
-15.2189
 21
24.0266
  0
LINE
  8
0
 10
-15.2189
 20
24.0266
 11
-15.4058
 21
24.003
  0
LINE
  8
0
 10
-15.4058
 20
24.003
 11
-15.5942
 21
24.003
  0
LINE
  8
0
 10
64
 20
23
 11
64
 21
25
  0
LINE
  8
0
 10
64
 20
25
 11
68
 21
25
  0
LINE
  8
0
 10
68
 20
25
 11
68
 21
23
  0
LINE
  8
0
 10
68
 20
23
 11
64
 21
23
  0
LINE
  8
0
 10
-68
 20
23
 11
-68
 21
25
  0
LINE
  8
0
 10
-68
 20
25
 11
-64
 21
25
  0
LINE
  8
0
 10
-64
 20
25
 11
-64
 21
23
  0
LINE
  8
0
 10
-64
 20
23
 11
-68
 21
23
  0
LINE
  8
0
 10
80
 20
23
 11
80
 21
25
  0
LINE
  8
0
 10
80
 20
25
 11
84
 21
25
  0
LINE
  8
0
 10
84
 20
25
 11
84
 21
23
  0
LINE
  8
0
 10
84
 20
23
 11
80
 21
23
  0
LINE
  8
0
 10
-84
 20
23
 11
-84
 21
25
  0
LINE
  8
0
 10
-84
 20
25
 11
-80
 21
25
  0
LINE
  8
0
 10
-80
 20
25
 11
-80
 21
23
  0
LINE
  8
0
 10
-80
 20
23
 11
-84
 21
23
  0
LINE
  8
0
 10
9.84302
 20
7.50493
 11
9.53154
 21
7.54428
  0
LINE
  8
0
 10
9.53154
 20
7.54428
 11
9.22745
 21
7.62234
  0
LINE
  8
0
 10
9.22745
 20
7.62234
 11
8.93555
 21
7.73793
  0
LINE
  8
0
 10
8.93555
 20
7.73793
 11
8.66043
 21
7.88918
  0
LINE
  8
0
 10
8.66043
 20
7.88918
 11
8.40643
 21
8.07372
  0
LINE
  8
0
 10
8.40643
 20
8.07372
 11
8.17757
 21
8.28862
  0
LINE
  8
0
 10
8.17757
 20
8.28862
 11
7.97745
 21
8.53053
  0
LINE
  8
0
 10
7.97745
 20
8.53053
 11
7.80922
 21
8.79561
  0
LINE
  8
0
 10
7.80922
 20
8.79561
 11
7.67555
 21
9.07968
  0
LINE
  8
0
 10
7.67555
 20
9.07968
 11
7.57854
 21
9.37827
  0
LINE
  8
0
 10
7.57854
 20
9.37827
 11
7.5197
 21
9.68666
  0
LINE
  8
0
 10
7.5197
 20
9.68666
 11
7.5
 21
10
  0
LINE
  8
0
 10
7.5
 20
10
 11
7.5197
 21
10.3133
  0
LINE
  8
0
 10
7.5197
 20
10.3133
 11
7.57854
 21
10.6217
  0
LINE
  8
0
 10
7.57854
 20
10.6217
 11
7.67555
 21
10.9203
  0
LINE
  8
0
 10
7.67555
 20
10.9203
 11
7.80922
 21
11.2044
  0
LINE
  8
0
 10
7.80922
 20
11.2044
 11
7.97745
 21
11.4695
  0
LINE
  8
0
 10
7.97745
 20
11.4695
 11
8.17757
 21
11.7114
  0
LINE
  8
0
 10
8.17757
 20
11.7114
 11
8.40643
 21
11.9263
  0
LINE
  8
0
 10
8.40643
 20
11.9263
 11
8.66043
 21
12.1108
  0
LINE
  8
0
 10
8.66043
 20
12.1108
 11
8.93555
 21
12.2621
  0
LINE
  8
0
 10
8.93555
 20
12.2621
 11
9.22745
 21
12.3776
  0
LINE
  8
0
 10
9.22745
 20
12.3776
 11
9.53154
 21
12.4557
  0
LINE
  8
0
 10
9.53154
 20
12.4557
 11
9.84302
 21
12.4951
  0
LINE
  8
0
 10
9.84302
 20
12.4951
 11
10.157
 21
12.4951
  0
LINE
  8
0
 10
10.157
 20
12.4951
 11
10.4684
 21
12.4557
  0
LINE
  8
0
 10
10.4684
 20
12.4557
 11
10.7725
 21
12.3776
  0
LINE
  8
0
 10
10.7725
 20
12.3776
 11
11.0644
 21
12.2621
  0
LINE
  8
0
 10
11.0644
 20
12.2621
 11
11.3396
 21
12.1108
  0
LINE
  8
0
 10
11.3396
 20
12.1108
 11
11.5936
 21
11.9263
  0
LINE
  8
0
 10
11.5936
 20
11.9263
 11
11.8224
 21
11.7114
  0
LINE
  8
0
 10
11.8224
 20
11.7114
 11
12.0225
 21
11.4695
  0
LINE
  8
0
 10
12.0225
 20
11.4695
 11
12.1908
 21
11.2044
  0
LINE
  8
0
 10
12.1908
 20
11.2044
 11
12.3244
 21
10.9203
  0
LINE
  8
0
 10
12.3244
 20
10.9203
 11
12.4214
 21
10.6217
  0
LINE
  8
0
 10
12.4214
 20
10.6217
 11
12.4803
 21
10.3133
  0
LINE
  8
0
 10
12.4803
 20
10.3133
 11
12.5
 21
10
  0
LINE
  8
0
 10
12.5
 20
10
 11
12.4803
 21
9.68666
  0
LINE
  8
0
 10
12.4803
 20
9.68666
 11
12.4214
 21
9.37827
  0
LINE
  8
0
 10
12.4214
 20
9.37827
 11
12.3244
 21
9.07968
  0
LINE
  8
0
 10
12.3244
 20
9.07968
 11
12.1908
 21
8.79561
  0
LINE
  8
0
 10
12.1908
 20
8.79561
 11
12.0225
 21
8.53053
  0
LINE
  8
0
 10
12.0225
 20
8.53053
 11
11.8224
 21
8.28862
  0
LINE
  8
0
 10
11.8224
 20
8.28862
 11
11.5936
 21
8.07372
  0
LINE
  8
0
 10
11.5936
 20
8.07372
 11
11.3396
 21
7.88918
  0
LINE
  8
0
 10
11.3396
 20
7.88918
 11
11.0644
 21
7.73793
  0
LINE
  8
0
 10
11.0644
 20
7.73793
 11
10.7725
 21
7.62234
  0
LINE
  8
0
 10
10.7725
 20
7.62234
 11
10.4684
 21
7.54428
  0
LINE
  8
0
 10
10.4684
 20
7.54428
 11
10.157
 21
7.50493
  0
LINE
  8
0
 10
10.157
 20
7.50493
 11
9.84302
 21
7.50493
  0
LINE
  8
0
 10
-10.157
 20
7.50493
 11
-10.4684
 21
7.54428
  0
LINE
  8
0
 10
-10.4684
 20
7.54428
 11
-10.7725
 21
7.62234
  0
LINE
  8
0
 10
-10.7725
 20
7.62234
 11
-11.0644
 21
7.73793
  0
LINE
  8
0
 10
-11.0644
 20
7.73793
 11
-11.3396
 21
7.88918
  0
LINE
  8
0
 10
-11.3396
 20
7.88918
 11
-11.5936
 21
8.07372
  0
LINE
  8
0
 10
-11.5936
 20
8.07372
 11
-11.8224
 21
8.28862
  0
LINE
  8
0
 10
-11.8224
 20
8.28862
 11
-12.0225
 21
8.53053
  0
LINE
  8
0
 10
-12.0225
 20
8.53053
 11
-12.1908
 21
8.79561
  0
LINE
  8
0
 10
-12.1908
 20
8.79561
 11
-12.3244
 21
9.07968
  0
LINE
  8
0
 10
-12.3244
 20
9.07968
 11
-12.4214
 21
9.37827
  0
LINE
  8
0
 10
-12.4214
 20
9.37827
 11
-12.4803
 21
9.68666
  0
LINE
  8
0
 10
-12.4803
 20
9.68666
 11
-12.5
 21
10
  0
LINE
  8
0
 10
-12.5
 20
10
 11
-12.4803
 21
10.3133
  0
LINE
  8
0
 10
-12.4803
 20
10.3133
 11
-12.4214
 21
10.6217
  0
LINE
  8
0
 10
-12.4214
 20
10.6217
 11
-12.3244
 21
10.9203
  0
LINE
  8
0
 10
-12.3244
 20
10.9203
 11
-12.1908
 21
11.2044
  0
LINE
  8
0
 10
-12.1908
 20
11.2044
 11
-12.0225
 21
11.4695
  0
LINE
  8
0
 10
-12.0225
 20
11.4695
 11
-11.8224
 21
11.7114
  0
LINE
  8
0
 10
-11.8224
 20
11.7114
 11
-11.5936
 21
11.9263
  0
LINE
  8
0
 10
-11.5936
 20
11.9263
 11
-11.3396
 21
12.1108
  0
LINE
  8
0
 10
-11.3396
 20
12.1108
 11
-11.0644
 21
12.2621
  0
LINE
  8
0
 10
-11.0644
 20
12.2621
 11
-10.7725
 21
12.3776
  0
LINE
  8
0
 10
-10.7725
 20
12.3776
 11
-10.4684
 21
12.4557
  0
LINE
  8
0
 10
-10.4684
 20
12.4557
 11
-10.157
 21
12.4951
  0
LINE
  8
0
 10
-10.157
 20
12.4951
 11
-9.84302
 21
12.4951
  0
LINE
  8
0
 10
-9.84302
 20
12.4951
 11
-9.53154
 21
12.4557
  0
LINE
  8
0
 10
-9.53154
 20
12.4557
 11
-9.22745
 21
12.3776
  0
LINE
  8
0
 10
-9.22745
 20
12.3776
 11
-8.93555
 21
12.2621
  0
LINE
  8
0
 10
-8.93555
 20
12.2621
 11
-8.66043
 21
12.1108
  0
LINE
  8
0
 10
-8.66043
 20
12.1108
 11
-8.40643
 21
11.9263
  0
LINE
  8
0
 10
-8.40643
 20
11.9263
 11
-8.17757
 21
11.7114
  0
LINE
  8
0
 10
-8.17757
 20
11.7114
 11
-7.97745
 21
11.4695
  0
LINE
  8
0
 10
-7.97745
 20
11.4695
 11
-7.80922
 21
11.2044
  0
LINE
  8
0
 10
-7.80922
 20
11.2044
 11
-7.67555
 21
10.9203
  0
LINE
  8
0
 10
-7.67555
 20
10.9203
 11
-7.57854
 21
10.6217
  0
LINE
  8
0
 10
-7.57854
 20
10.6217
 11
-7.5197
 21
10.3133
  0
LINE
  8
0
 10
-7.5197
 20
10.3133
 11
-7.5
 21
10
  0
LINE
  8
0
 10
-7.5
 20
10
 11
-7.5197
 21
9.68666
  0
LINE
  8
0
 10
-7.5197
 20
9.68666
 11
-7.57854
 21
9.37827
  0
LINE
  8
0
 10
-7.57854
 20
9.37827
 11
-7.67555
 21
9.07968
  0
LINE
  8
0
 10
-7.67555
 20
9.07968
 11
-7.80922
 21
8.79561
  0
LINE
  8
0
 10
-7.80922
 20
8.79561
 11
-7.97745
 21
8.53053
  0
LINE
  8
0
 10
-7.97745
 20
8.53053
 11
-8.17757
 21
8.28862
  0
LINE
  8
0
 10
-8.17757
 20
8.28862
 11
-8.40643
 21
8.07372
  0
LINE
  8
0
 10
-8.40643
 20
8.07372
 11
-8.66043
 21
7.88918
  0
LINE
  8
0
 10
-8.66043
 20
7.88918
 11
-8.93555
 21
7.73793
  0
LINE
  8
0
 10
-8.93555
 20
7.73793
 11
-9.22745
 21
7.62234
  0
LINE
  8
0
 10
-9.22745
 20
7.62234
 11
-9.53154
 21
7.54428
  0
LINE
  8
0
 10
-9.53154
 20
7.54428
 11
-9.84302
 21
7.50493
  0
LINE
  8
0
 10
-9.84302
 20
7.50493
 11
-10.157
 21
7.50493
  0
LINE
  8
0
 10
9.84302
 20
-12.4951
 11
9.53154
 21
-12.4557
  0
LINE
  8
0
 10
9.53154
 20
-12.4557
 11
9.22745
 21
-12.3776
  0
LINE
  8
0
 10
9.22745
 20
-12.3776
 11
8.93555
 21
-12.2621
  0
LINE
  8
0
 10
8.93555
 20
-12.2621
 11
8.66043
 21
-12.1108
  0
LINE
  8
0
 10
8.66043
 20
-12.1108
 11
8.40643
 21
-11.9263
  0
LINE
  8
0
 10
8.40643
 20
-11.9263
 11
8.17757
 21
-11.7114
  0
LINE
  8
0
 10
8.17757
 20
-11.7114
 11
7.97745
 21
-11.4695
  0
LINE
  8
0
 10
7.97745
 20
-11.4695
 11
7.80922
 21
-11.2044
  0
LINE
  8
0
 10
7.80922
 20
-11.2044
 11
7.67555
 21
-10.9203
  0
LINE
  8
0
 10
7.67555
 20
-10.9203
 11
7.57854
 21
-10.6217
  0
LINE
  8
0
 10
7.57854
 20
-10.6217
 11
7.5197
 21
-10.3133
  0
LINE
  8
0
 10
7.5197
 20
-10.3133
 11
7.5
 21
-10
  0
LINE
  8
0
 10
7.5
 20
-10
 11
7.5197
 21
-9.68666
  0
LINE
  8
0
 10
7.5197
 20
-9.68666
 11
7.57854
 21
-9.37827
  0
LINE
  8
0
 10
7.57854
 20
-9.37827
 11
7.67555
 21
-9.07968
  0
LINE
  8
0
 10
7.67555
 20
-9.07968
 11
7.80922
 21
-8.79561
  0
LINE
  8
0
 10
7.80922
 20
-8.79561
 11
7.97745
 21
-8.53053
  0
LINE
  8
0
 10
7.97745
 20
-8.53053
 11
8.17757
 21
-8.28862
  0
LINE
  8
0
 10
8.17757
 20
-8.28862
 11
8.40643
 21
-8.07372
  0
LINE
  8
0
 10
8.40643
 20
-8.07372
 11
8.66043
 21
-7.88918
  0
LINE
  8
0
 10
8.66043
 20
-7.88918
 11
8.93555
 21
-7.73793
  0
LINE
  8
0
 10
8.93555
 20
-7.73793
 11
9.22745
 21
-7.62234
  0
LINE
  8
0
 10
9.22745
 20
-7.62234
 11
9.53154
 21
-7.54428
  0
LINE
  8
0
 10
9.53154
 20
-7.54428
 11
9.84302
 21
-7.50493
  0
LINE
  8
0
 10
9.84302
 20
-7.50493
 11
10.157
 21
-7.50493
  0
LINE
  8
0
 10
10.157
 20
-7.50493
 11
10.4684
 21
-7.54428
  0
LINE
  8
0
 10
10.4684
 20
-7.54428
 11
10.7725
 21
-7.62234
  0
LINE
  8
0
 10
10.7725
 20
-7.62234
 11
11.0644
 21
-7.73793
  0
LINE
  8
0
 10
11.0644
 20
-7.73793
 11
11.3396
 21
-7.88918
  0
LINE
  8
0
 10
11.3396
 20
-7.88918
 11
11.5936
 21
-8.07372
  0
LINE
  8
0
 10
11.5936
 20
-8.07372
 11
11.8224
 21
-8.28862
  0
LINE
  8
0
 10
11.8224
 20
-8.28862
 11
12.0225
 21
-8.53053
  0
LINE
  8
0
 10
12.0225
 20
-8.53053
 11
12.1908
 21
-8.79561
  0
LINE
  8
0
 10
12.1908
 20
-8.79561
 11
12.3244
 21
-9.07968
  0
LINE
  8
0
 10
12.3244
 20
-9.07968
 11
12.4214
 21
-9.37827
  0
LINE
  8
0
 10
12.4214
 20
-9.37827
 11
12.4803
 21
-9.68666
  0
LINE
  8
0
 10
12.4803
 20
-9.68666
 11
12.5
 21
-10
  0
LINE
  8
0
 10
12.5
 20
-10
 11
12.4803
 21
-10.3133
  0
LINE
  8
0
 10
12.4803
 20
-10.3133
 11
12.4214
 21
-10.6217
  0
LINE
  8
0
 10
12.4214
 20
-10.6217
 11
12.3244
 21
-10.9203
  0
LINE
  8
0
 10
12.3244
 20
-10.9203
 11
12.1908
 21
-11.2044
  0
LINE
  8
0
 10
12.1908
 20
-11.2044
 11
12.0225
 21
-11.4695
  0
LINE
  8
0
 10
12.0225
 20
-11.4695
 11
11.8224
 21
-11.7114
  0
LINE
  8
0
 10
11.8224
 20
-11.7114
 11
11.5936
 21
-11.9263
  0
LINE
  8
0
 10
11.5936
 20
-11.9263
 11
11.3396
 21
-12.1108
  0
LINE
  8
0
 10
11.3396
 20
-12.1108
 11
11.0644
 21
-12.2621
  0
LINE
  8
0
 10
11.0644
 20
-12.2621
 11
10.7725
 21
-12.3776
  0
LINE
  8
0
 10
10.7725
 20
-12.3776
 11
10.4684
 21
-12.4557
  0
LINE
  8
0
 10
10.4684
 20
-12.4557
 11
10.157
 21
-12.4951
  0
LINE
  8
0
 10
10.157
 20
-12.4951
 11
9.84302
 21
-12.4951
  0
LINE
  8
0
 10
-10.157
 20
-12.4951
 11
-10.4684
 21
-12.4557
  0
LINE
  8
0
 10
-10.4684
 20
-12.4557
 11
-10.7725
 21
-12.3776
  0
LINE
  8
0
 10
-10.7725
 20
-12.3776
 11
-11.0644
 21
-12.2621
  0
LINE
  8
0
 10
-11.0644
 20
-12.2621
 11
-11.3396
 21
-12.1108
  0
LINE
  8
0
 10
-11.3396
 20
-12.1108
 11
-11.5936
 21
-11.9263
  0
LINE
  8
0
 10
-11.5936
 20
-11.9263
 11
-11.8224
 21
-11.7114
  0
LINE
  8
0
 10
-11.8224
 20
-11.7114
 11
-12.0225
 21
-11.4695
  0
LINE
  8
0
 10
-12.0225
 20
-11.4695
 11
-12.1908
 21
-11.2044
  0
LINE
  8
0
 10
-12.1908
 20
-11.2044
 11
-12.3244
 21
-10.9203
  0
LINE
  8
0
 10
-12.3244
 20
-10.9203
 11
-12.4214
 21
-10.6217
  0
LINE
  8
0
 10
-12.4214
 20
-10.6217
 11
-12.4803
 21
-10.3133
  0
LINE
  8
0
 10
-12.4803
 20
-10.3133
 11
-12.5
 21
-10
  0
LINE
  8
0
 10
-12.5
 20
-10
 11
-12.4803
 21
-9.68666
  0
LINE
  8
0
 10
-12.4803
 20
-9.68666
 11
-12.4214
 21
-9.37827
  0
LINE
  8
0
 10
-12.4214
 20
-9.37827
 11
-12.3244
 21
-9.07968
  0
LINE
  8
0
 10
-12.3244
 20
-9.07968
 11
-12.1908
 21
-8.79561
  0
LINE
  8
0
 10
-12.1908
 20
-8.79561
 11
-12.0225
 21
-8.53053
  0
LINE
  8
0
 10
-12.0225
 20
-8.53053
 11
-11.8224
 21
-8.28862
  0
LINE
  8
0
 10
-11.8224
 20
-8.28862
 11
-11.5936
 21
-8.07372
  0
LINE
  8
0
 10
-11.5936
 20
-8.07372
 11
-11.3396
 21
-7.88918
  0
LINE
  8
0
 10
-11.3396
 20
-7.88918
 11
-11.0644
 21
-7.73793
  0
LINE
  8
0
 10
-11.0644
 20
-7.73793
 11
-10.7725
 21
-7.62234
  0
LINE
  8
0
 10
-10.7725
 20
-7.62234
 11
-10.4684
 21
-7.54428
  0
LINE
  8
0
 10
-10.4684
 20
-7.54428
 11
-10.157
 21
-7.50493
  0
LINE
  8
0
 10
-10.157
 20
-7.50493
 11
-9.84302
 21
-7.50493
  0
LINE
  8
0
 10
-9.84302
 20
-7.50493
 11
-9.53154
 21
-7.54428
  0
LINE
  8
0
 10
-9.53154
 20
-7.54428
 11
-9.22745
 21
-7.62234
  0
LINE
  8
0
 10
-9.22745
 20
-7.62234
 11
-8.93555
 21
-7.73793
  0
LINE
  8
0
 10
-8.93555
 20
-7.73793
 11
-8.66043
 21
-7.88918
  0
LINE
  8
0
 10
-8.66043
 20
-7.88918
 11
-8.40643
 21
-8.07372
  0
LINE
  8
0
 10
-8.40643
 20
-8.07372
 11
-8.17757
 21
-8.28862
  0
LINE
  8
0
 10
-8.17757
 20
-8.28862
 11
-7.97745
 21
-8.53053
  0
LINE
  8
0
 10
-7.97745
 20
-8.53053
 11
-7.80922
 21
-8.79561
  0
LINE
  8
0
 10
-7.80922
 20
-8.79561
 11
-7.67555
 21
-9.07968
  0
LINE
  8
0
 10
-7.67555
 20
-9.07968
 11
-7.57854
 21
-9.37827
  0
LINE
  8
0
 10
-7.57854
 20
-9.37827
 11
-7.5197
 21
-9.68666
  0
LINE
  8
0
 10
-7.5197
 20
-9.68666
 11
-7.5
 21
-10
  0
LINE
  8
0
 10
-7.5
 20
-10
 11
-7.5197
 21
-10.3133
  0
LINE
  8
0
 10
-7.5197
 20
-10.3133
 11
-7.57854
 21
-10.6217
  0
LINE
  8
0
 10
-7.57854
 20
-10.6217
 11
-7.67555
 21
-10.9203
  0
LINE
  8
0
 10
-7.67555
 20
-10.9203
 11
-7.80922
 21
-11.2044
  0
LINE
  8
0
 10
-7.80922
 20
-11.2044
 11
-7.97745
 21
-11.4695
  0
LINE
  8
0
 10
-7.97745
 20
-11.4695
 11
-8.17757
 21
-11.7114
  0
LINE
  8
0
 10
-8.17757
 20
-11.7114
 11
-8.40643
 21
-11.9263
  0
LINE
  8
0
 10
-8.40643
 20
-11.9263
 11
-8.66043
 21
-12.1108
  0
LINE
  8
0
 10
-8.66043
 20
-12.1108
 11
-8.93555
 21
-12.2621
  0
LINE
  8
0
 10
-8.93555
 20
-12.2621
 11
-9.22745
 21
-12.3776
  0
LINE
  8
0
 10
-9.22745
 20
-12.3776
 11
-9.53154
 21
-12.4557
  0
LINE
  8
0
 10
-9.53154
 20
-12.4557
 11
-9.84302
 21
-12.4951
  0
LINE
  8
0
 10
-9.84302
 20
-12.4951
 11
-10.157
 21
-12.4951
  0
ENDSEC
  0
SECTION
  2
OBJECTS
  0
DICTIONARY
  0
ENDSEC
  0
EOF
