  0
SECTION
  2
BLOCKS
  0
ENDSEC
  0
SECTION
  2
ENTITIES
  0
LINE
  8
0
 10
-15
 11
-15
 20
-30
 21
30
  0
LINE
  8
0
 10
-15
 11
15
 20
30
 21
30
  0
LINE
  8
0
 10
15
 11
15
 20
30
 21
-30
  0
LINE
  8
0
 10
15
 11
-15
 20
-30
 21
-30
  0
LINE
  8
0
 10
-12
 11
-12
 20
-22
 21
-14
  0
LINE
  8
0
 10
-12
 11
12
 20
-14
 21
-14
  0
LINE
  8
0
 10
12
 11
12
 20
-14
 21
-22
  0
LINE
  8
0
 10
12
 11
-12
 20
-22
 21
-22
  0
LINE
  8
0
 10
-12
 11
-12
 20
14
 21
22
  0
LINE
  8
0
 10
-12
 11
12
 20
22
 21
22
  0
LINE
  8
0
 10
12
 11
12
 20
22
 21
14
  0
LINE
  8
0
 10
12
 11
-12
 20
14
 21
14
  0
LINE
  8
0
 10
-11.5
 11
-11.5
 20
-26.25
 21
-24.75
  0
LINE
  8
0
 10
-11.5
 11
-8.5
 20
-24.75
 21
-24.75
  0
LINE
  8
0
 10
-8.5
 11
-8.5
 20
-24.75
 21
-26.25
  0
LINE
  8
0
 10
-8.5
 11
-11.5
 20
-26.25
 21
-26.25
  0
LINE
  8
0
 10
-11.5
 11
-11.5
 20
-11.25
 21
-9.75
  0
LINE
  8
0
 10
-11.5
 11
-8.5
 20
-9.75
 21
-9.75
  0
LINE
  8
0
 10
-8.5
 11
-8.5
 20
-9.75
 21
-11.25
  0
LINE
  8
0
 10
-8.5
 11
-11.5
 20
-11.25
 21
-11.25
  0
LINE
  8
0
 10
-11.5
 11
-11.5
 20
9.75
 21
11.25
  0
LINE
  8
0
 10
-11.5
 11
-8.5
 20
11.25
 21
11.25
  0
LINE
  8
0
 10
-8.5
 11
-8.5
 20
11.25
 21
9.75
  0
LINE
  8
0
 10
-8.5
 11
-11.5
 20
9.75
 21
9.75
  0
LINE
  8
0
 10
-11.5
 11
-11.5
 20
24.75
 21
26.25
  0
LINE
  8
0
 10
-11.5
 11
-8.5
 20
26.25
 21
26.25
  0
LINE
  8
0
 10
-8.5
 11
-8.5
 20
26.25
 21
24.75
  0
LINE
  8
0
 10
-8.5
 11
-11.5
 20
24.75
 21
24.75
  0
LINE
  8
0
 10
8.5
 11
8.5
 20
-26.25
 21
-24.75
  0
LINE
  8
0
 10
8.5
 11
11.5
 20
-24.75
 21
-24.75
  0
LINE
  8
0
 10
11.5
 11
11.5
 20
-24.75
 21
-26.25
  0
LINE
  8
0
 10
11.5
 11
8.5
 20
-26.25
 21
-26.25
  0
LINE
  8
0
 10
8.5
 11
8.5
 20
-11.25
 21
-9.75
  0
LINE
  8
0
 10
8.5
 11
11.5
 20
-9.75
 21
-9.75
  0
LINE
  8
0
 10
11.5
 11
11.5
 20
-9.75
 21
-11.25
  0
LINE
  8
0
 10
11.5
 11
8.5
 20
-11.25
 21
-11.25
  0
LINE
  8
0
 10
8.5
 11
8.5
 20
9.75
 21
11.25
  0
LINE
  8
0
 10
8.5
 11
11.5
 20
11.25
 21
11.25
  0
LINE
  8
0
 10
11.5
 11
11.5
 20
11.25
 21
9.75
  0
LINE
  8
0
 10
11.5
 11
8.5
 20
9.75
 21
9.75
  0
LINE
  8
0
 10
8.5
 11
8.5
 20
24.75
 21
26.25
  0
LINE
  8
0
 10
8.5
 11
11.5
 20
26.25
 21
26.25
  0
LINE
  8
0
 10
11.5
 11
11.5
 20
26.25
 21
24.75
  0
LINE
  8
0
 10
11.5
 11
8.5
 20
24.75
 21
24.75
  0
ENDSEC
  0
SECTION
  2
OBJECTS
  0
DICTIONARY
  0
ENDSEC
  0
EOF
