  0
SECTION
  2
BLOCKS
  0
ENDSEC
  0
SECTION
  2
ENTITIES
  0
LINE
  8
0
 10
-12.5
 11
-12.5
 20
-22.5
 21
-17.5
  0
LINE
  8
0
 10
-12.5
 11
-7.75
 20
-17.5
 21
-17.5
  0
LINE
  8
0
 10
-7.75
 11
-7.75
 20
-17.5
 21
17.5
  0
LINE
  8
0
 10
-7.75
 11
-12.5
 20
17.5
 21
17.5
  0
LINE
  8
0
 10
-12.5
 11
-12.5
 20
17.5
 21
22.5
  0
LINE
  8
0
 10
-12.5
 11
12.5
 20
22.5
 21
22.5
  0
LINE
  8
0
 10
12.5
 11
12.5
 20
22.5
 21
17.5
  0
LINE
  8
0
 10
12.5
 11
7.75
 20
17.5
 21
17.5
  0
LINE
  8
0
 10
7.75
 11
7.75
 20
17.5
 21
-17.5
  0
LINE
  8
0
 10
7.75
 11
12.5
 20
-17.5
 21
-17.5
  0
LINE
  8
0
 10
12.5
 11
12.5
 20
-17.5
 21
-22.5
  0
LINE
  8
0
 10
12.5
 11
-12.5
 20
-22.5
 21
-22.5
  0
LINE
  8
0
 10
-4
 11
-3.968
 20
-16
 21
-15.499
  0
LINE
  8
0
 10
-3.968
 11
-3.874
 20
-15.499
 21
-15.005
  0
LINE
  8
0
 10
-3.874
 11
-3.719
 20
-15.005
 21
-14.528
  0
LINE
  8
0
 10
-3.719
 11
-3.505
 20
-14.528
 21
-14.073
  0
LINE
  8
0
 10
-3.505
 11
-3.236
 20
-14.073
 21
-13.649
  0
LINE
  8
0
 10
-3.236
 11
-2.916
 20
-13.649
 21
-13.262
  0
LINE
  8
0
 10
-2.916
 11
-2.55
 20
-13.262
 21
-12.918
  0
LINE
  8
0
 10
-2.55
 11
-2.143
 20
-12.918
 21
-12.623
  0
LINE
  8
0
 10
-2.143
 11
-1.703
 20
-12.623
 21
-12.381
  0
LINE
  8
0
 10
-1.703
 11
-1.236
 20
-12.381
 21
-12.196
  0
LINE
  8
0
 10
-1.236
 11
-0.75
 20
-12.196
 21
-12.071
  0
LINE
  8
0
 10
-0.75
 11
-0.251
 20
-12.071
 21
-12.008
  0
LINE
  8
0
 10
-0.251
 11
0.251
 20
-12.008
 21
-12.008
  0
LINE
  8
0
 10
0.251
 11
0.75
 20
-12.008
 21
-12.071
  0
LINE
  8
0
 10
0.75
 11
1.236
 20
-12.071
 21
-12.196
  0
LINE
  8
0
 10
1.236
 11
1.703
 20
-12.196
 21
-12.381
  0
LINE
  8
0
 10
1.703
 11
2.143
 20
-12.381
 21
-12.623
  0
LINE
  8
0
 10
2.143
 11
2.55
 20
-12.623
 21
-12.918
  0
LINE
  8
0
 10
2.55
 11
2.916
 20
-12.918
 21
-13.262
  0
LINE
  8
0
 10
2.916
 11
3.236
 20
-13.262
 21
-13.649
  0
LINE
  8
0
 10
3.236
 11
3.505
 20
-13.649
 21
-14.073
  0
LINE
  8
0
 10
3.505
 11
3.719
 20
-14.073
 21
-14.528
  0
LINE
  8
0
 10
3.719
 11
3.874
 20
-14.528
 21
-15.005
  0
LINE
  8
0
 10
3.874
 11
3.968
 20
-15.005
 21
-15.499
  0
LINE
  8
0
 10
3.968
 11
4
 20
-15.499
 21
-16
  0
LINE
  8
0
 10
4
 11
3.968
 20
-16
 21
-16.501
  0
LINE
  8
0
 10
3.968
 11
3.874
 20
-16.501
 21
-16.995
  0
LINE
  8
0
 10
3.874
 11
3.719
 20
-16.995
 21
-17.472
  0
LINE
  8
0
 10
3.719
 11
3.505
 20
-17.472
 21
-17.927
  0
LINE
  8
0
 10
3.505
 11
3.236
 20
-17.927
 21
-18.351
  0
LINE
  8
0
 10
3.236
 11
2.916
 20
-18.351
 21
-18.738
  0
LINE
  8
0
 10
2.916
 11
2.55
 20
-18.738
 21
-19.082
  0
LINE
  8
0
 10
2.55
 11
2.143
 20
-19.082
 21
-19.377
  0
LINE
  8
0
 10
2.143
 11
1.703
 20
-19.377
 21
-19.619
  0
LINE
  8
0
 10
1.703
 11
1.236
 20
-19.619
 21
-19.804
  0
LINE
  8
0
 10
1.236
 11
0.75
 20
-19.804
 21
-19.929
  0
LINE
  8
0
 10
0.75
 11
0.251
 20
-19.929
 21
-19.992
  0
LINE
  8
0
 10
0.251
 11
-0.251
 20
-19.992
 21
-19.992
  0
LINE
  8
0
 10
-0.251
 11
-0.75
 20
-19.992
 21
-19.929
  0
LINE
  8
0
 10
-0.75
 11
-1.236
 20
-19.929
 21
-19.804
  0
LINE
  8
0
 10
-1.236
 11
-1.703
 20
-19.804
 21
-19.619
  0
LINE
  8
0
 10
-1.703
 11
-2.143
 20
-19.619
 21
-19.377
  0
LINE
  8
0
 10
-2.143
 11
-2.55
 20
-19.377
 21
-19.082
  0
LINE
  8
0
 10
-2.55
 11
-2.916
 20
-19.082
 21
-18.738
  0
LINE
  8
0
 10
-2.916
 11
-3.236
 20
-18.738
 21
-18.351
  0
LINE
  8
0
 10
-3.236
 11
-3.505
 20
-18.351
 21
-17.927
  0
LINE
  8
0
 10
-3.505
 11
-3.719
 20
-17.927
 21
-17.472
  0
LINE
  8
0
 10
-3.719
 11
-3.874
 20
-17.472
 21
-16.995
  0
LINE
  8
0
 10
-3.874
 11
-3.968
 20
-16.995
 21
-16.501
  0
LINE
  8
0
 10
-3.968
 11
-4
 20
-16.501
 21
-16
  0
LINE
  8
0
 10
-4
 11
-3.968
 20
16
 21
16.501
  0
LINE
  8
0
 10
-3.968
 11
-3.874
 20
16.501
 21
16.995
  0
LINE
  8
0
 10
-3.874
 11
-3.719
 20
16.995
 21
17.472
  0
LINE
  8
0
 10
-3.719
 11
-3.505
 20
17.472
 21
17.927
  0
LINE
  8
0
 10
-3.505
 11
-3.236
 20
17.927
 21
18.351
  0
LINE
  8
0
 10
-3.236
 11
-2.916
 20
18.351
 21
18.738
  0
LINE
  8
0
 10
-2.916
 11
-2.55
 20
18.738
 21
19.082
  0
LINE
  8
0
 10
-2.55
 11
-2.143
 20
19.082
 21
19.377
  0
LINE
  8
0
 10
-2.143
 11
-1.703
 20
19.377
 21
19.619
  0
LINE
  8
0
 10
-1.703
 11
-1.236
 20
19.619
 21
19.804
  0
LINE
  8
0
 10
-1.236
 11
-0.75
 20
19.804
 21
19.929
  0
LINE
  8
0
 10
-0.75
 11
-0.251
 20
19.929
 21
19.992
  0
LINE
  8
0
 10
-0.251
 11
0.251
 20
19.992
 21
19.992
  0
LINE
  8
0
 10
0.251
 11
0.75
 20
19.992
 21
19.929
  0
LINE
  8
0
 10
0.75
 11
1.236
 20
19.929
 21
19.804
  0
LINE
  8
0
 10
1.236
 11
1.703
 20
19.804
 21
19.619
  0
LINE
  8
0
 10
1.703
 11
2.143
 20
19.619
 21
19.377
  0
LINE
  8
0
 10
2.143
 11
2.55
 20
19.377
 21
19.082
  0
LINE
  8
0
 10
2.55
 11
2.916
 20
19.082
 21
18.738
  0
LINE
  8
0
 10
2.916
 11
3.236
 20
18.738
 21
18.351
  0
LINE
  8
0
 10
3.236
 11
3.505
 20
18.351
 21
17.927
  0
LINE
  8
0
 10
3.505
 11
3.719
 20
17.927
 21
17.472
  0
LINE
  8
0
 10
3.719
 11
3.874
 20
17.472
 21
16.995
  0
LINE
  8
0
 10
3.874
 11
3.968
 20
16.995
 21
16.501
  0
LINE
  8
0
 10
3.968
 11
4
 20
16.501
 21
16
  0
LINE
  8
0
 10
4
 11
3.968
 20
16
 21
15.499
  0
LINE
  8
0
 10
3.968
 11
3.874
 20
15.499
 21
15.005
  0
LINE
  8
0
 10
3.874
 11
3.719
 20
15.005
 21
14.528
  0
LINE
  8
0
 10
3.719
 11
3.505
 20
14.528
 21
14.073
  0
LINE
  8
0
 10
3.505
 11
3.236
 20
14.073
 21
13.649
  0
LINE
  8
0
 10
3.236
 11
2.916
 20
13.649
 21
13.262
  0
LINE
  8
0
 10
2.916
 11
2.55
 20
13.262
 21
12.918
  0
LINE
  8
0
 10
2.55
 11
2.143
 20
12.918
 21
12.623
  0
LINE
  8
0
 10
2.143
 11
1.703
 20
12.623
 21
12.381
  0
LINE
  8
0
 10
1.703
 11
1.236
 20
12.381
 21
12.196
  0
LINE
  8
0
 10
1.236
 11
0.75
 20
12.196
 21
12.071
  0
LINE
  8
0
 10
0.75
 11
0.251
 20
12.071
 21
12.008
  0
LINE
  8
0
 10
0.251
 11
-0.251
 20
12.008
 21
12.008
  0
LINE
  8
0
 10
-0.251
 11
-0.75
 20
12.008
 21
12.071
  0
LINE
  8
0
 10
-0.75
 11
-1.236
 20
12.071
 21
12.196
  0
LINE
  8
0
 10
-1.236
 11
-1.703
 20
12.196
 21
12.381
  0
LINE
  8
0
 10
-1.703
 11
-2.143
 20
12.381
 21
12.623
  0
LINE
  8
0
 10
-2.143
 11
-2.55
 20
12.623
 21
12.918
  0
LINE
  8
0
 10
-2.55
 11
-2.916
 20
12.918
 21
13.262
  0
LINE
  8
0
 10
-2.916
 11
-3.236
 20
13.262
 21
13.649
  0
LINE
  8
0
 10
-3.236
 11
-3.505
 20
13.649
 21
14.073
  0
LINE
  8
0
 10
-3.505
 11
-3.719
 20
14.073
 21
14.528
  0
LINE
  8
0
 10
-3.719
 11
-3.874
 20
14.528
 21
15.005
  0
LINE
  8
0
 10
-3.874
 11
-3.968
 20
15.005
 21
15.499
  0
LINE
  8
0
 10
-3.968
 11
-4
 20
15.499
 21
16
  0
ENDSEC
  0
SECTION
  2
OBJECTS
  0
DICTIONARY
  0
ENDSEC
  0
EOF
