  0
SECTION
  2
BLOCKS
  0
ENDSEC
  0
SECTION
  2
ENTITIES
  0
LINE
  8
0
 10
-10
 11
-10
 20
-10
 21
10
  0
LINE
  8
0
 10
-10
 11
-5
 20
10
 21
10
  0
LINE
  8
0
 10
-5
 11
-5
 20
10
 21
-10
  0
LINE
  8
0
 10
-5
 11
-10
 20
-10
 21
-10
  0
LINE
  8
0
 10
7.5
 11
7.52
 20
-30
 21
-29.687
  0
LINE
  8
0
 10
7.52
 11
7.579
 20
-29.687
 21
-29.378
  0
LINE
  8
0
 10
7.579
 11
7.676
 20
-29.378
 21
-29.08
  0
LINE
  8
0
 10
7.676
 11
7.809
 20
-29.08
 21
-28.796
  0
LINE
  8
0
 10
7.809
 11
7.977
 20
-28.796
 21
-28.531
  0
LINE
  8
0
 10
7.977
 11
8.178
 20
-28.531
 21
-28.289
  0
LINE
  8
0
 10
8.178
 11
8.406
 20
-28.289
 21
-28.074
  0
LINE
  8
0
 10
8.406
 11
8.66
 20
-28.074
 21
-27.889
  0
LINE
  8
0
 10
8.66
 11
8.936
 20
-27.889
 21
-27.738
  0
LINE
  8
0
 10
8.936
 11
9.227
 20
-27.738
 21
-27.622
  0
LINE
  8
0
 10
9.227
 11
9.532
 20
-27.622
 21
-27.544
  0
LINE
  8
0
 10
9.532
 11
9.843
 20
-27.544
 21
-27.505
  0
LINE
  8
0
 10
9.843
 11
10.157
 20
-27.505
 21
-27.505
  0
LINE
  8
0
 10
10.157
 11
10.468
 20
-27.505
 21
-27.544
  0
LINE
  8
0
 10
10.468
 11
10.773
 20
-27.544
 21
-27.622
  0
LINE
  8
0
 10
10.773
 11
11.064
 20
-27.622
 21
-27.738
  0
LINE
  8
0
 10
11.064
 11
11.34
 20
-27.738
 21
-27.889
  0
LINE
  8
0
 10
11.34
 11
11.594
 20
-27.889
 21
-28.074
  0
LINE
  8
0
 10
11.594
 11
11.822
 20
-28.074
 21
-28.289
  0
LINE
  8
0
 10
11.822
 11
12.023
 20
-28.289
 21
-28.531
  0
LINE
  8
0
 10
12.023
 11
12.191
 20
-28.531
 21
-28.796
  0
LINE
  8
0
 10
12.191
 11
12.324
 20
-28.796
 21
-29.08
  0
LINE
  8
0
 10
12.324
 11
12.421
 20
-29.08
 21
-29.378
  0
LINE
  8
0
 10
12.421
 11
12.48
 20
-29.378
 21
-29.687
  0
LINE
  8
0
 10
12.48
 11
12.5
 20
-29.687
 21
-30
  0
LINE
  8
0
 10
12.5
 11
12.48
 20
-30
 21
-30.313
  0
LINE
  8
0
 10
12.48
 11
12.421
 20
-30.313
 21
-30.622
  0
LINE
  8
0
 10
12.421
 11
12.324
 20
-30.622
 21
-30.92
  0
LINE
  8
0
 10
12.324
 11
12.191
 20
-30.92
 21
-31.204
  0
LINE
  8
0
 10
12.191
 11
12.023
 20
-31.204
 21
-31.469
  0
LINE
  8
0
 10
12.023
 11
11.822
 20
-31.469
 21
-31.711
  0
LINE
  8
0
 10
11.822
 11
11.594
 20
-31.711
 21
-31.926
  0
LINE
  8
0
 10
11.594
 11
11.34
 20
-31.926
 21
-32.111
  0
LINE
  8
0
 10
11.34
 11
11.064
 20
-32.111
 21
-32.262
  0
LINE
  8
0
 10
11.064
 11
10.773
 20
-32.262
 21
-32.378
  0
LINE
  8
0
 10
10.773
 11
10.468
 20
-32.378
 21
-32.456
  0
LINE
  8
0
 10
10.468
 11
10.157
 20
-32.456
 21
-32.495
  0
LINE
  8
0
 10
10.157
 11
9.843
 20
-32.495
 21
-32.495
  0
LINE
  8
0
 10
9.843
 11
9.532
 20
-32.495
 21
-32.456
  0
LINE
  8
0
 10
9.532
 11
9.227
 20
-32.456
 21
-32.378
  0
LINE
  8
0
 10
9.227
 11
8.936
 20
-32.378
 21
-32.262
  0
LINE
  8
0
 10
8.936
 11
8.66
 20
-32.262
 21
-32.111
  0
LINE
  8
0
 10
8.66
 11
8.406
 20
-32.111
 21
-31.926
  0
LINE
  8
0
 10
8.406
 11
8.178
 20
-31.926
 21
-31.711
  0
LINE
  8
0
 10
8.178
 11
7.977
 20
-31.711
 21
-31.469
  0
LINE
  8
0
 10
7.977
 11
7.809
 20
-31.469
 21
-31.204
  0
LINE
  8
0
 10
7.809
 11
7.676
 20
-31.204
 21
-30.92
  0
LINE
  8
0
 10
7.676
 11
7.579
 20
-30.92
 21
-30.622
  0
LINE
  8
0
 10
7.579
 11
7.52
 20
-30.622
 21
-30.313
  0
LINE
  8
0
 10
7.52
 11
7.5
 20
-30.313
 21
-30
  0
LINE
  8
0
 10
7.5
 11
7.52
 20
30
 21
30.313
  0
LINE
  8
0
 10
7.52
 11
7.579
 20
30.313
 21
30.622
  0
LINE
  8
0
 10
7.579
 11
7.676
 20
30.622
 21
30.92
  0
LINE
  8
0
 10
7.676
 11
7.809
 20
30.92
 21
31.204
  0
LINE
  8
0
 10
7.809
 11
7.977
 20
31.204
 21
31.469
  0
LINE
  8
0
 10
7.977
 11
8.178
 20
31.469
 21
31.711
  0
LINE
  8
0
 10
8.178
 11
8.406
 20
31.711
 21
31.926
  0
LINE
  8
0
 10
8.406
 11
8.66
 20
31.926
 21
32.111
  0
LINE
  8
0
 10
8.66
 11
8.936
 20
32.111
 21
32.262
  0
LINE
  8
0
 10
8.936
 11
9.227
 20
32.262
 21
32.378
  0
LINE
  8
0
 10
9.227
 11
9.532
 20
32.378
 21
32.456
  0
LINE
  8
0
 10
9.532
 11
9.843
 20
32.456
 21
32.495
  0
LINE
  8
0
 10
9.843
 11
10.157
 20
32.495
 21
32.495
  0
LINE
  8
0
 10
10.157
 11
10.468
 20
32.495
 21
32.456
  0
LINE
  8
0
 10
10.468
 11
10.773
 20
32.456
 21
32.378
  0
LINE
  8
0
 10
10.773
 11
11.064
 20
32.378
 21
32.262
  0
LINE
  8
0
 10
11.064
 11
11.34
 20
32.262
 21
32.111
  0
LINE
  8
0
 10
11.34
 11
11.594
 20
32.111
 21
31.926
  0
LINE
  8
0
 10
11.594
 11
11.822
 20
31.926
 21
31.711
  0
LINE
  8
0
 10
11.822
 11
12.023
 20
31.711
 21
31.469
  0
LINE
  8
0
 10
12.023
 11
12.191
 20
31.469
 21
31.204
  0
LINE
  8
0
 10
12.191
 11
12.324
 20
31.204
 21
30.92
  0
LINE
  8
0
 10
12.324
 11
12.421
 20
30.92
 21
30.622
  0
LINE
  8
0
 10
12.421
 11
12.48
 20
30.622
 21
30.313
  0
LINE
  8
0
 10
12.48
 11
12.5
 20
30.313
 21
30
  0
LINE
  8
0
 10
12.5
 11
12.48
 20
30
 21
29.687
  0
LINE
  8
0
 10
12.48
 11
12.421
 20
29.687
 21
29.378
  0
LINE
  8
0
 10
12.421
 11
12.324
 20
29.378
 21
29.08
  0
LINE
  8
0
 10
12.324
 11
12.191
 20
29.08
 21
28.796
  0
LINE
  8
0
 10
12.191
 11
12.023
 20
28.796
 21
28.531
  0
LINE
  8
0
 10
12.023
 11
11.822
 20
28.531
 21
28.289
  0
LINE
  8
0
 10
11.822
 11
11.594
 20
28.289
 21
28.074
  0
LINE
  8
0
 10
11.594
 11
11.34
 20
28.074
 21
27.889
  0
LINE
  8
0
 10
11.34
 11
11.064
 20
27.889
 21
27.738
  0
LINE
  8
0
 10
11.064
 11
10.773
 20
27.738
 21
27.622
  0
LINE
  8
0
 10
10.773
 11
10.468
 20
27.622
 21
27.544
  0
LINE
  8
0
 10
10.468
 11
10.157
 20
27.544
 21
27.505
  0
LINE
  8
0
 10
10.157
 11
9.843
 20
27.505
 21
27.505
  0
LINE
  8
0
 10
9.843
 11
9.532
 20
27.505
 21
27.544
  0
LINE
  8
0
 10
9.532
 11
9.227
 20
27.544
 21
27.622
  0
LINE
  8
0
 10
9.227
 11
8.936
 20
27.622
 21
27.738
  0
LINE
  8
0
 10
8.936
 11
8.66
 20
27.738
 21
27.889
  0
LINE
  8
0
 10
8.66
 11
8.406
 20
27.889
 21
28.074
  0
LINE
  8
0
 10
8.406
 11
8.178
 20
28.074
 21
28.289
  0
LINE
  8
0
 10
8.178
 11
7.977
 20
28.289
 21
28.531
  0
LINE
  8
0
 10
7.977
 11
7.809
 20
28.531
 21
28.796
  0
LINE
  8
0
 10
7.809
 11
7.676
 20
28.796
 21
29.08
  0
LINE
  8
0
 10
7.676
 11
7.579
 20
29.08
 21
29.378
  0
LINE
  8
0
 10
7.579
 11
7.52
 20
29.378
 21
29.687
  0
LINE
  8
0
 10
7.52
 11
7.5
 20
29.687
 21
30
  0
LINE
  8
0
 10
-20
 11
-20
 20
-50
 21
50
  0
LINE
  8
0
 10
-20
 11
25
 20
50
 21
50
  0
LINE
  8
0
 10
25
 11
25
 20
50
 21
45
  0
LINE
  8
0
 10
25
 11
20
 20
45
 21
45
  0
LINE
  8
0
 10
20
 11
20
 20
45
 21
15
  0
LINE
  8
0
 10
20
 11
25
 20
15
 21
15
  0
LINE
  8
0
 10
25
 11
25
 20
15
 21
10
  0
LINE
  8
0
 10
25
 11
20
 20
10
 21
10
  0
LINE
  8
0
 10
20
 11
0
 20
10
 21
10
  0
LINE
  8
0
 10
0
 11
0
 20
10
 21
-10
  0
LINE
  8
0
 10
0
 11
20
 20
-10
 21
-10
  0
LINE
  8
0
 10
20
 11
25
 20
-10
 21
-10
  0
LINE
  8
0
 10
25
 11
25
 20
-10
 21
-15
  0
LINE
  8
0
 10
25
 11
20
 20
-15
 21
-15
  0
LINE
  8
0
 10
20
 11
20
 20
-15
 21
-45
  0
LINE
  8
0
 10
20
 11
25
 20
-45
 21
-45
  0
LINE
  8
0
 10
25
 11
25
 20
-45
 21
-50
  0
LINE
  8
0
 10
25
 11
-20
 20
-50
 21
-50
  0
ENDSEC
  0
SECTION
  2
OBJECTS
  0
DICTIONARY
  0
ENDSEC
  0
EOF
