  0
SECTION
  2
BLOCKS
  0
ENDSEC
  0
SECTION
  2
ENTITIES
  0
LINE
  8
0
 10
10
 20
-20
 11
12.5
 21
-20
  0
LINE
  8
0
 10
12.5
 20
-20
 11
12.5
 21
20
  0
LINE
  8
0
 10
12.5
 20
20
 11
10
 21
20
  0
LINE
  8
0
 10
10
 20
20
 11
10
 21
45
  0
LINE
  8
0
 10
10
 20
45
 11
-10
 21
45
  0
LINE
  8
0
 10
-10
 20
45
 11
-10
 21
20
  0
LINE
  8
0
 10
-10
 20
20
 11
-12.5
 21
20
  0
LINE
  8
0
 10
-12.5
 20
20
 11
-12.5
 21
-20
  0
LINE
  8
0
 10
-12.5
 20
-20
 11
-10
 21
-20
  0
LINE
  8
0
 10
-10
 20
-20
 11
-10
 21
-45
  0
LINE
  8
0
 10
-10
 20
-45
 11
10
 21
-45
  0
LINE
  8
0
 10
10
 20
-45
 11
10
 21
-20
  0
LINE
  8
0
 10
-0.156967
 20
32.5049
 11
-0.468445
 21
32.5443
  0
LINE
  8
0
 10
-0.468445
 20
32.5443
 11
-0.772537
 21
32.6223
  0
LINE
  8
0
 10
-0.772537
 20
32.6223
 11
-1.06444
 21
32.7379
  0
LINE
  8
0
 10
-1.06444
 20
32.7379
 11
-1.33955
 21
32.8892
  0
LINE
  8
0
 10
-1.33955
 20
32.8892
 11
-1.59355
 21
33.0737
  0
LINE
  8
0
 10
-1.59355
 20
33.0737
 11
-1.82242
 21
33.2886
  0
LINE
  8
0
 10
-1.82242
 20
33.2886
 11
-2.02254
 21
33.5305
  0
LINE
  8
0
 10
-2.02254
 20
33.5305
 11
-2.19077
 21
33.7956
  0
LINE
  8
0
 10
-2.19077
 20
33.7956
 11
-2.32443
 21
34.0797
  0
LINE
  8
0
 10
-2.32443
 20
34.0797
 11
-2.42145
 21
34.3783
  0
LINE
  8
0
 10
-2.42145
 20
34.3783
 11
-2.48029
 21
34.6867
  0
LINE
  8
0
 10
-2.48029
 20
34.6867
 11
-2.5
 21
35
  0
LINE
  8
0
 10
-2.5
 20
35
 11
-2.48029
 21
35.3133
  0
LINE
  8
0
 10
-2.48029
 20
35.3133
 11
-2.42145
 21
35.6217
  0
LINE
  8
0
 10
-2.42145
 20
35.6217
 11
-2.32443
 21
35.9203
  0
LINE
  8
0
 10
-2.32443
 20
35.9203
 11
-2.19077
 21
36.2044
  0
LINE
  8
0
 10
-2.19077
 20
36.2044
 11
-2.02254
 21
36.4695
  0
LINE
  8
0
 10
-2.02254
 20
36.4695
 11
-1.82242
 21
36.7114
  0
LINE
  8
0
 10
-1.82242
 20
36.7114
 11
-1.59355
 21
36.9263
  0
LINE
  8
0
 10
-1.59355
 20
36.9263
 11
-1.33955
 21
37.1108
  0
LINE
  8
0
 10
-1.33955
 20
37.1108
 11
-1.06444
 21
37.2621
  0
LINE
  8
0
 10
-1.06444
 20
37.2621
 11
-0.772537
 21
37.3776
  0
LINE
  8
0
 10
-0.772537
 20
37.3776
 11
-0.468445
 21
37.4557
  0
LINE
  8
0
 10
-0.468445
 20
37.4557
 11
-0.156967
 21
37.4951
  0
LINE
  8
0
 10
-0.156967
 20
37.4951
 11
0.156967
 21
37.4951
  0
LINE
  8
0
 10
0.156967
 20
37.4951
 11
0.468445
 21
37.4557
  0
LINE
  8
0
 10
0.468445
 20
37.4557
 11
0.772537
 21
37.3776
  0
LINE
  8
0
 10
0.772537
 20
37.3776
 11
1.06444
 21
37.2621
  0
LINE
  8
0
 10
1.06444
 20
37.2621
 11
1.33955
 21
37.1108
  0
LINE
  8
0
 10
1.33955
 20
37.1108
 11
1.59355
 21
36.9263
  0
LINE
  8
0
 10
1.59355
 20
36.9263
 11
1.82242
 21
36.7114
  0
LINE
  8
0
 10
1.82242
 20
36.7114
 11
2.02254
 21
36.4695
  0
LINE
  8
0
 10
2.02254
 20
36.4695
 11
2.19077
 21
36.2044
  0
LINE
  8
0
 10
2.19077
 20
36.2044
 11
2.32443
 21
35.9203
  0
LINE
  8
0
 10
2.32443
 20
35.9203
 11
2.42145
 21
35.6217
  0
LINE
  8
0
 10
2.42145
 20
35.6217
 11
2.48029
 21
35.3133
  0
LINE
  8
0
 10
2.48029
 20
35.3133
 11
2.5
 21
35
  0
LINE
  8
0
 10
2.5
 20
35
 11
2.48029
 21
34.6867
  0
LINE
  8
0
 10
2.48029
 20
34.6867
 11
2.42145
 21
34.3783
  0
LINE
  8
0
 10
2.42145
 20
34.3783
 11
2.32443
 21
34.0797
  0
LINE
  8
0
 10
2.32443
 20
34.0797
 11
2.19077
 21
33.7956
  0
LINE
  8
0
 10
2.19077
 20
33.7956
 11
2.02254
 21
33.5305
  0
LINE
  8
0
 10
2.02254
 20
33.5305
 11
1.82242
 21
33.2886
  0
LINE
  8
0
 10
1.82242
 20
33.2886
 11
1.59355
 21
33.0737
  0
LINE
  8
0
 10
1.59355
 20
33.0737
 11
1.33955
 21
32.8892
  0
LINE
  8
0
 10
1.33955
 20
32.8892
 11
1.06444
 21
32.7379
  0
LINE
  8
0
 10
1.06444
 20
32.7379
 11
0.772537
 21
32.6223
  0
LINE
  8
0
 10
0.772537
 20
32.6223
 11
0.468445
 21
32.5443
  0
LINE
  8
0
 10
0.468445
 20
32.5443
 11
0.156967
 21
32.5049
  0
LINE
  8
0
 10
0.156967
 20
32.5049
 11
-0.156967
 21
32.5049
  0
LINE
  8
0
 10
-0.156967
 20
-2.49506
 11
-0.468445
 21
-2.4557
  0
LINE
  8
0
 10
-0.468445
 20
-2.4557
 11
-0.772537
 21
-2.37764
  0
LINE
  8
0
 10
-0.772537
 20
-2.37764
 11
-1.06444
 21
-2.26205
  0
LINE
  8
0
 10
-1.06444
 20
-2.26205
 11
-1.33955
 21
-2.11081
  0
LINE
  8
0
 10
-1.33955
 20
-2.11081
 11
-1.59355
 21
-1.92627
  0
LINE
  8
0
 10
-1.59355
 20
-1.92627
 11
-1.82242
 21
-1.71136
  0
LINE
  8
0
 10
-1.82242
 20
-1.71136
 11
-2.02254
 21
-1.46945
  0
LINE
  8
0
 10
-2.02254
 20
-1.46945
 11
-2.19077
 21
-1.20438
  0
LINE
  8
0
 10
-2.19077
 20
-1.20438
 11
-2.32443
 21
-0.920303
  0
LINE
  8
0
 10
-2.32443
 20
-0.920303
 11
-2.42145
 21
-0.621719
  0
LINE
  8
0
 10
-2.42145
 20
-0.621719
 11
-2.48029
 21
-0.313324
  0
LINE
  8
0
 10
-2.48029
 20
-0.313324
 11
-2.5
 21
0
  0
LINE
  8
0
 10
-2.5
 20
0
 11
-2.48029
 21
0.313324
  0
LINE
  8
0
 10
-2.48029
 20
0.313324
 11
-2.42145
 21
0.621719
  0
LINE
  8
0
 10
-2.42145
 20
0.621719
 11
-2.32443
 21
0.920303
  0
LINE
  8
0
 10
-2.32443
 20
0.920303
 11
-2.19077
 21
1.20438
  0
LINE
  8
0
 10
-2.19077
 20
1.20438
 11
-2.02254
 21
1.46945
  0
LINE
  8
0
 10
-2.02254
 20
1.46945
 11
-1.82242
 21
1.71136
  0
LINE
  8
0
 10
-1.82242
 20
1.71136
 11
-1.59355
 21
1.92627
  0
LINE
  8
0
 10
-1.59355
 20
1.92627
 11
-1.33955
 21
2.11081
  0
LINE
  8
0
 10
-1.33955
 20
2.11081
 11
-1.06444
 21
2.26205
  0
LINE
  8
0
 10
-1.06444
 20
2.26205
 11
-0.772537
 21
2.37764
  0
LINE
  8
0
 10
-0.772537
 20
2.37764
 11
-0.468445
 21
2.4557
  0
LINE
  8
0
 10
-0.468445
 20
2.4557
 11
-0.156967
 21
2.49506
  0
LINE
  8
0
 10
-0.156967
 20
2.49506
 11
0.156967
 21
2.49506
  0
LINE
  8
0
 10
0.156967
 20
2.49506
 11
0.468445
 21
2.4557
  0
LINE
  8
0
 10
0.468445
 20
2.4557
 11
0.772537
 21
2.37764
  0
LINE
  8
0
 10
0.772537
 20
2.37764
 11
1.06444
 21
2.26205
  0
LINE
  8
0
 10
1.06444
 20
2.26205
 11
1.33955
 21
2.11081
  0
LINE
  8
0
 10
1.33955
 20
2.11081
 11
1.59355
 21
1.92627
  0
LINE
  8
0
 10
1.59355
 20
1.92627
 11
1.82242
 21
1.71136
  0
LINE
  8
0
 10
1.82242
 20
1.71136
 11
2.02254
 21
1.46945
  0
LINE
  8
0
 10
2.02254
 20
1.46945
 11
2.19077
 21
1.20438
  0
LINE
  8
0
 10
2.19077
 20
1.20438
 11
2.32443
 21
0.920303
  0
LINE
  8
0
 10
2.32443
 20
0.920303
 11
2.42145
 21
0.621719
  0
LINE
  8
0
 10
2.42145
 20
0.621719
 11
2.48029
 21
0.313324
  0
LINE
  8
0
 10
2.48029
 20
0.313324
 11
2.5
 21
0
  0
LINE
  8
0
 10
2.5
 20
0
 11
2.48029
 21
-0.313324
  0
LINE
  8
0
 10
2.48029
 20
-0.313324
 11
2.42145
 21
-0.621719
  0
LINE
  8
0
 10
2.42145
 20
-0.621719
 11
2.32443
 21
-0.920303
  0
LINE
  8
0
 10
2.32443
 20
-0.920303
 11
2.19077
 21
-1.20438
  0
LINE
  8
0
 10
2.19077
 20
-1.20438
 11
2.02254
 21
-1.46945
  0
LINE
  8
0
 10
2.02254
 20
-1.46945
 11
1.82242
 21
-1.71136
  0
LINE
  8
0
 10
1.82242
 20
-1.71136
 11
1.59355
 21
-1.92627
  0
LINE
  8
0
 10
1.59355
 20
-1.92627
 11
1.33955
 21
-2.11081
  0
LINE
  8
0
 10
1.33955
 20
-2.11081
 11
1.06444
 21
-2.26205
  0
LINE
  8
0
 10
1.06444
 20
-2.26205
 11
0.772537
 21
-2.37764
  0
LINE
  8
0
 10
0.772537
 20
-2.37764
 11
0.468445
 21
-2.4557
  0
LINE
  8
0
 10
0.468445
 20
-2.4557
 11
0.156967
 21
-2.49506
  0
LINE
  8
0
 10
0.156967
 20
-2.49506
 11
-0.156967
 21
-2.49506
  0
LINE
  8
0
 10
-0.156967
 20
-37.4951
 11
-0.468445
 21
-37.4557
  0
LINE
  8
0
 10
-0.468445
 20
-37.4557
 11
-0.772537
 21
-37.3776
  0
LINE
  8
0
 10
-0.772537
 20
-37.3776
 11
-1.06444
 21
-37.2621
  0
LINE
  8
0
 10
-1.06444
 20
-37.2621
 11
-1.33955
 21
-37.1108
  0
LINE
  8
0
 10
-1.33955
 20
-37.1108
 11
-1.59355
 21
-36.9263
  0
LINE
  8
0
 10
-1.59355
 20
-36.9263
 11
-1.82242
 21
-36.7114
  0
LINE
  8
0
 10
-1.82242
 20
-36.7114
 11
-2.02254
 21
-36.4695
  0
LINE
  8
0
 10
-2.02254
 20
-36.4695
 11
-2.19077
 21
-36.2044
  0
LINE
  8
0
 10
-2.19077
 20
-36.2044
 11
-2.32443
 21
-35.9203
  0
LINE
  8
0
 10
-2.32443
 20
-35.9203
 11
-2.42145
 21
-35.6217
  0
LINE
  8
0
 10
-2.42145
 20
-35.6217
 11
-2.48029
 21
-35.3133
  0
LINE
  8
0
 10
-2.48029
 20
-35.3133
 11
-2.5
 21
-35
  0
LINE
  8
0
 10
-2.5
 20
-35
 11
-2.48029
 21
-34.6867
  0
LINE
  8
0
 10
-2.48029
 20
-34.6867
 11
-2.42145
 21
-34.3783
  0
LINE
  8
0
 10
-2.42145
 20
-34.3783
 11
-2.32443
 21
-34.0797
  0
LINE
  8
0
 10
-2.32443
 20
-34.0797
 11
-2.19077
 21
-33.7956
  0
LINE
  8
0
 10
-2.19077
 20
-33.7956
 11
-2.02254
 21
-33.5305
  0
LINE
  8
0
 10
-2.02254
 20
-33.5305
 11
-1.82242
 21
-33.2886
  0
LINE
  8
0
 10
-1.82242
 20
-33.2886
 11
-1.59355
 21
-33.0737
  0
LINE
  8
0
 10
-1.59355
 20
-33.0737
 11
-1.33955
 21
-32.8892
  0
LINE
  8
0
 10
-1.33955
 20
-32.8892
 11
-1.06444
 21
-32.7379
  0
LINE
  8
0
 10
-1.06444
 20
-32.7379
 11
-0.772537
 21
-32.6223
  0
LINE
  8
0
 10
-0.772537
 20
-32.6223
 11
-0.468445
 21
-32.5443
  0
LINE
  8
0
 10
-0.468445
 20
-32.5443
 11
-0.156967
 21
-32.5049
  0
LINE
  8
0
 10
-0.156967
 20
-32.5049
 11
0.156967
 21
-32.5049
  0
LINE
  8
0
 10
0.156967
 20
-32.5049
 11
0.468445
 21
-32.5443
  0
LINE
  8
0
 10
0.468445
 20
-32.5443
 11
0.772537
 21
-32.6223
  0
LINE
  8
0
 10
0.772537
 20
-32.6223
 11
1.06444
 21
-32.7379
  0
LINE
  8
0
 10
1.06444
 20
-32.7379
 11
1.33955
 21
-32.8892
  0
LINE
  8
0
 10
1.33955
 20
-32.8892
 11
1.59355
 21
-33.0737
  0
LINE
  8
0
 10
1.59355
 20
-33.0737
 11
1.82242
 21
-33.2886
  0
LINE
  8
0
 10
1.82242
 20
-33.2886
 11
2.02254
 21
-33.5305
  0
LINE
  8
0
 10
2.02254
 20
-33.5305
 11
2.19077
 21
-33.7956
  0
LINE
  8
0
 10
2.19077
 20
-33.7956
 11
2.32443
 21
-34.0797
  0
LINE
  8
0
 10
2.32443
 20
-34.0797
 11
2.42145
 21
-34.3783
  0
LINE
  8
0
 10
2.42145
 20
-34.3783
 11
2.48029
 21
-34.6867
  0
LINE
  8
0
 10
2.48029
 20
-34.6867
 11
2.5
 21
-35
  0
LINE
  8
0
 10
2.5
 20
-35
 11
2.48029
 21
-35.3133
  0
LINE
  8
0
 10
2.48029
 20
-35.3133
 11
2.42145
 21
-35.6217
  0
LINE
  8
0
 10
2.42145
 20
-35.6217
 11
2.32443
 21
-35.9203
  0
LINE
  8
0
 10
2.32443
 20
-35.9203
 11
2.19077
 21
-36.2044
  0
LINE
  8
0
 10
2.19077
 20
-36.2044
 11
2.02254
 21
-36.4695
  0
LINE
  8
0
 10
2.02254
 20
-36.4695
 11
1.82242
 21
-36.7114
  0
LINE
  8
0
 10
1.82242
 20
-36.7114
 11
1.59355
 21
-36.9263
  0
LINE
  8
0
 10
1.59355
 20
-36.9263
 11
1.33955
 21
-37.1108
  0
LINE
  8
0
 10
1.33955
 20
-37.1108
 11
1.06444
 21
-37.2621
  0
LINE
  8
0
 10
1.06444
 20
-37.2621
 11
0.772537
 21
-37.3776
  0
LINE
  8
0
 10
0.772537
 20
-37.3776
 11
0.468445
 21
-37.4557
  0
LINE
  8
0
 10
0.468445
 20
-37.4557
 11
0.156967
 21
-37.4951
  0
LINE
  8
0
 10
0.156967
 20
-37.4951
 11
-0.156967
 21
-37.4951
  0
ENDSEC
  0
SECTION
  2
OBJECTS
  0
DICTIONARY
  0
ENDSEC
  0
EOF
