  0
SECTION
  2
BLOCKS
  0
ENDSEC
  0
SECTION
  2
ENTITIES
  0
LINE
  8
0
 10
50
 20
-10
 11
50
 21
10
  0
LINE
  8
0
 10
50
 20
10
 11
25
 21
55
  0
LINE
  8
0
 10
25
 20
55
 11
-25
 21
55
  0
LINE
  8
0
 10
-25
 20
55
 11
-50
 21
10
  0
LINE
  8
0
 10
-50
 20
10
 11
-50
 21
-10
  0
LINE
  8
0
 10
-50
 20
-10
 11
-25
 21
-55
  0
LINE
  8
0
 10
-25
 20
-55
 11
25
 21
-55
  0
LINE
  8
0
 10
25
 20
-55
 11
50
 21
-10
  0
LINE
  8
0
 10
-25
 20
45
 11
-25
 21
50
  0
LINE
  8
0
 10
-25
 20
50
 11
-20
 21
50
  0
LINE
  8
0
 10
-20
 20
50
 11
-20
 21
45
  0
LINE
  8
0
 10
-20
 20
45
 11
-25
 21
45
  0
LINE
  8
0
 10
20
 20
45
 11
20
 21
50
  0
LINE
  8
0
 10
20
 20
50
 11
25
 21
50
  0
LINE
  8
0
 10
25
 20
50
 11
25
 21
45
  0
LINE
  8
0
 10
25
 20
45
 11
20
 21
45
  0
LINE
  8
0
 10
-10.157
 20
37.5049
 11
-10.4684
 21
37.5443
  0
LINE
  8
0
 10
-10.4684
 20
37.5443
 11
-10.7725
 21
37.6223
  0
LINE
  8
0
 10
-10.7725
 20
37.6223
 11
-11.0644
 21
37.7379
  0
LINE
  8
0
 10
-11.0644
 20
37.7379
 11
-11.3396
 21
37.8892
  0
LINE
  8
0
 10
-11.3396
 20
37.8892
 11
-11.5936
 21
38.0737
  0
LINE
  8
0
 10
-11.5936
 20
38.0737
 11
-11.8224
 21
38.2886
  0
LINE
  8
0
 10
-11.8224
 20
38.2886
 11
-12.0225
 21
38.5305
  0
LINE
  8
0
 10
-12.0225
 20
38.5305
 11
-12.1908
 21
38.7956
  0
LINE
  8
0
 10
-12.1908
 20
38.7956
 11
-12.3244
 21
39.0797
  0
LINE
  8
0
 10
-12.3244
 20
39.0797
 11
-12.4214
 21
39.3783
  0
LINE
  8
0
 10
-12.4214
 20
39.3783
 11
-12.4803
 21
39.6867
  0
LINE
  8
0
 10
-12.4803
 20
39.6867
 11
-12.5
 21
40
  0
LINE
  8
0
 10
-12.5
 20
40
 11
-12.4803
 21
40.3133
  0
LINE
  8
0
 10
-12.4803
 20
40.3133
 11
-12.4214
 21
40.6217
  0
LINE
  8
0
 10
-12.4214
 20
40.6217
 11
-12.3244
 21
40.9203
  0
LINE
  8
0
 10
-12.3244
 20
40.9203
 11
-12.1908
 21
41.2044
  0
LINE
  8
0
 10
-12.1908
 20
41.2044
 11
-12.0225
 21
41.4695
  0
LINE
  8
0
 10
-12.0225
 20
41.4695
 11
-11.8224
 21
41.7114
  0
LINE
  8
0
 10
-11.8224
 20
41.7114
 11
-11.5936
 21
41.9263
  0
LINE
  8
0
 10
-11.5936
 20
41.9263
 11
-11.3396
 21
42.1108
  0
LINE
  8
0
 10
-11.3396
 20
42.1108
 11
-11.0644
 21
42.2621
  0
LINE
  8
0
 10
-11.0644
 20
42.2621
 11
-10.7725
 21
42.3776
  0
LINE
  8
0
 10
-10.7725
 20
42.3776
 11
-10.4684
 21
42.4557
  0
LINE
  8
0
 10
-10.4684
 20
42.4557
 11
-10.157
 21
42.4951
  0
LINE
  8
0
 10
-10.157
 20
42.4951
 11
-9.84302
 21
42.4951
  0
LINE
  8
0
 10
-9.84302
 20
42.4951
 11
-9.53154
 21
42.4557
  0
LINE
  8
0
 10
-9.53154
 20
42.4557
 11
-9.22745
 21
42.3776
  0
LINE
  8
0
 10
-9.22745
 20
42.3776
 11
-8.93555
 21
42.2621
  0
LINE
  8
0
 10
-8.93555
 20
42.2621
 11
-8.66043
 21
42.1108
  0
LINE
  8
0
 10
-8.66043
 20
42.1108
 11
-8.40643
 21
41.9263
  0
LINE
  8
0
 10
-8.40643
 20
41.9263
 11
-8.17757
 21
41.7114
  0
LINE
  8
0
 10
-8.17757
 20
41.7114
 11
-7.97745
 21
41.4695
  0
LINE
  8
0
 10
-7.97745
 20
41.4695
 11
-7.80922
 21
41.2044
  0
LINE
  8
0
 10
-7.80922
 20
41.2044
 11
-7.67555
 21
40.9203
  0
LINE
  8
0
 10
-7.67555
 20
40.9203
 11
-7.57854
 21
40.6217
  0
LINE
  8
0
 10
-7.57854
 20
40.6217
 11
-7.5197
 21
40.3133
  0
LINE
  8
0
 10
-7.5197
 20
40.3133
 11
-7.5
 21
40
  0
LINE
  8
0
 10
-7.5
 20
40
 11
-7.5197
 21
39.6867
  0
LINE
  8
0
 10
-7.5197
 20
39.6867
 11
-7.57854
 21
39.3783
  0
LINE
  8
0
 10
-7.57854
 20
39.3783
 11
-7.67555
 21
39.0797
  0
LINE
  8
0
 10
-7.67555
 20
39.0797
 11
-7.80922
 21
38.7956
  0
LINE
  8
0
 10
-7.80922
 20
38.7956
 11
-7.97745
 21
38.5305
  0
LINE
  8
0
 10
-7.97745
 20
38.5305
 11
-8.17757
 21
38.2886
  0
LINE
  8
0
 10
-8.17757
 20
38.2886
 11
-8.40643
 21
38.0737
  0
LINE
  8
0
 10
-8.40643
 20
38.0737
 11
-8.66043
 21
37.8892
  0
LINE
  8
0
 10
-8.66043
 20
37.8892
 11
-8.93555
 21
37.7379
  0
LINE
  8
0
 10
-8.93555
 20
37.7379
 11
-9.22745
 21
37.6223
  0
LINE
  8
0
 10
-9.22745
 20
37.6223
 11
-9.53154
 21
37.5443
  0
LINE
  8
0
 10
-9.53154
 20
37.5443
 11
-9.84302
 21
37.5049
  0
LINE
  8
0
 10
-9.84302
 20
37.5049
 11
-10.157
 21
37.5049
  0
LINE
  8
0
 10
9.84302
 20
37.5049
 11
9.53154
 21
37.5443
  0
LINE
  8
0
 10
9.53154
 20
37.5443
 11
9.22745
 21
37.6223
  0
LINE
  8
0
 10
9.22745
 20
37.6223
 11
8.93555
 21
37.7379
  0
LINE
  8
0
 10
8.93555
 20
37.7379
 11
8.66043
 21
37.8892
  0
LINE
  8
0
 10
8.66043
 20
37.8892
 11
8.40643
 21
38.0737
  0
LINE
  8
0
 10
8.40643
 20
38.0737
 11
8.17757
 21
38.2886
  0
LINE
  8
0
 10
8.17757
 20
38.2886
 11
7.97745
 21
38.5305
  0
LINE
  8
0
 10
7.97745
 20
38.5305
 11
7.80922
 21
38.7956
  0
LINE
  8
0
 10
7.80922
 20
38.7956
 11
7.67555
 21
39.0797
  0
LINE
  8
0
 10
7.67555
 20
39.0797
 11
7.57854
 21
39.3783
  0
LINE
  8
0
 10
7.57854
 20
39.3783
 11
7.5197
 21
39.6867
  0
LINE
  8
0
 10
7.5197
 20
39.6867
 11
7.5
 21
40
  0
LINE
  8
0
 10
7.5
 20
40
 11
7.5197
 21
40.3133
  0
LINE
  8
0
 10
7.5197
 20
40.3133
 11
7.57854
 21
40.6217
  0
LINE
  8
0
 10
7.57854
 20
40.6217
 11
7.67555
 21
40.9203
  0
LINE
  8
0
 10
7.67555
 20
40.9203
 11
7.80922
 21
41.2044
  0
LINE
  8
0
 10
7.80922
 20
41.2044
 11
7.97745
 21
41.4695
  0
LINE
  8
0
 10
7.97745
 20
41.4695
 11
8.17757
 21
41.7114
  0
LINE
  8
0
 10
8.17757
 20
41.7114
 11
8.40643
 21
41.9263
  0
LINE
  8
0
 10
8.40643
 20
41.9263
 11
8.66043
 21
42.1108
  0
LINE
  8
0
 10
8.66043
 20
42.1108
 11
8.93555
 21
42.2621
  0
LINE
  8
0
 10
8.93555
 20
42.2621
 11
9.22745
 21
42.3776
  0
LINE
  8
0
 10
9.22745
 20
42.3776
 11
9.53154
 21
42.4557
  0
LINE
  8
0
 10
9.53154
 20
42.4557
 11
9.84302
 21
42.4951
  0
LINE
  8
0
 10
9.84302
 20
42.4951
 11
10.157
 21
42.4951
  0
LINE
  8
0
 10
10.157
 20
42.4951
 11
10.4684
 21
42.4557
  0
LINE
  8
0
 10
10.4684
 20
42.4557
 11
10.7725
 21
42.3776
  0
LINE
  8
0
 10
10.7725
 20
42.3776
 11
11.0644
 21
42.2621
  0
LINE
  8
0
 10
11.0644
 20
42.2621
 11
11.3396
 21
42.1108
  0
LINE
  8
0
 10
11.3396
 20
42.1108
 11
11.5936
 21
41.9263
  0
LINE
  8
0
 10
11.5936
 20
41.9263
 11
11.8224
 21
41.7114
  0
LINE
  8
0
 10
11.8224
 20
41.7114
 11
12.0225
 21
41.4695
  0
LINE
  8
0
 10
12.0225
 20
41.4695
 11
12.1908
 21
41.2044
  0
LINE
  8
0
 10
12.1908
 20
41.2044
 11
12.3244
 21
40.9203
  0
LINE
  8
0
 10
12.3244
 20
40.9203
 11
12.4214
 21
40.6217
  0
LINE
  8
0
 10
12.4214
 20
40.6217
 11
12.4803
 21
40.3133
  0
LINE
  8
0
 10
12.4803
 20
40.3133
 11
12.5
 21
40
  0
LINE
  8
0
 10
12.5
 20
40
 11
12.4803
 21
39.6867
  0
LINE
  8
0
 10
12.4803
 20
39.6867
 11
12.4214
 21
39.3783
  0
LINE
  8
0
 10
12.4214
 20
39.3783
 11
12.3244
 21
39.0797
  0
LINE
  8
0
 10
12.3244
 20
39.0797
 11
12.1908
 21
38.7956
  0
LINE
  8
0
 10
12.1908
 20
38.7956
 11
12.0225
 21
38.5305
  0
LINE
  8
0
 10
12.0225
 20
38.5305
 11
11.8224
 21
38.2886
  0
LINE
  8
0
 10
11.8224
 20
38.2886
 11
11.5936
 21
38.0737
  0
LINE
  8
0
 10
11.5936
 20
38.0737
 11
11.3396
 21
37.8892
  0
LINE
  8
0
 10
11.3396
 20
37.8892
 11
11.0644
 21
37.7379
  0
LINE
  8
0
 10
11.0644
 20
37.7379
 11
10.7725
 21
37.6223
  0
LINE
  8
0
 10
10.7725
 20
37.6223
 11
10.4684
 21
37.5443
  0
LINE
  8
0
 10
10.4684
 20
37.5443
 11
10.157
 21
37.5049
  0
LINE
  8
0
 10
10.157
 20
37.5049
 11
9.84302
 21
37.5049
  0
LINE
  8
0
 10
-25
 20
10
 11
-25
 21
15
  0
LINE
  8
0
 10
-25
 20
15
 11
-20
 21
15
  0
LINE
  8
0
 10
-20
 20
15
 11
-20
 21
10
  0
LINE
  8
0
 10
-20
 20
10
 11
-25
 21
10
  0
LINE
  8
0
 10
20
 20
10
 11
20
 21
15
  0
LINE
  8
0
 10
20
 20
15
 11
25
 21
15
  0
LINE
  8
0
 10
25
 20
15
 11
25
 21
10
  0
LINE
  8
0
 10
25
 20
10
 11
20
 21
10
  0
LINE
  8
0
 10
-40.157
 20
-2.49506
 11
-40.4684
 21
-2.4557
  0
LINE
  8
0
 10
-40.4684
 20
-2.4557
 11
-40.7725
 21
-2.37764
  0
LINE
  8
0
 10
-40.7725
 20
-2.37764
 11
-41.0644
 21
-2.26205
  0
LINE
  8
0
 10
-41.0644
 20
-2.26205
 11
-41.3396
 21
-2.11081
  0
LINE
  8
0
 10
-41.3396
 20
-2.11081
 11
-41.5936
 21
-1.92627
  0
LINE
  8
0
 10
-41.5936
 20
-1.92627
 11
-41.8224
 21
-1.71136
  0
LINE
  8
0
 10
-41.8224
 20
-1.71136
 11
-42.0225
 21
-1.46945
  0
LINE
  8
0
 10
-42.0225
 20
-1.46945
 11
-42.1908
 21
-1.20438
  0
LINE
  8
0
 10
-42.1908
 20
-1.20438
 11
-42.3244
 21
-0.920303
  0
LINE
  8
0
 10
-42.3244
 20
-0.920303
 11
-42.4214
 21
-0.621719
  0
LINE
  8
0
 10
-42.4214
 20
-0.621719
 11
-42.4803
 21
-0.313324
  0
LINE
  8
0
 10
-42.4803
 20
-0.313324
 11
-42.5
 21
0
  0
LINE
  8
0
 10
-42.5
 20
0
 11
-42.4803
 21
0.313324
  0
LINE
  8
0
 10
-42.4803
 20
0.313324
 11
-42.4214
 21
0.621719
  0
LINE
  8
0
 10
-42.4214
 20
0.621719
 11
-42.3244
 21
0.920303
  0
LINE
  8
0
 10
-42.3244
 20
0.920303
 11
-42.1908
 21
1.20438
  0
LINE
  8
0
 10
-42.1908
 20
1.20438
 11
-42.0225
 21
1.46945
  0
LINE
  8
0
 10
-42.0225
 20
1.46945
 11
-41.8224
 21
1.71136
  0
LINE
  8
0
 10
-41.8224
 20
1.71136
 11
-41.5936
 21
1.92627
  0
LINE
  8
0
 10
-41.5936
 20
1.92627
 11
-41.3396
 21
2.11081
  0
LINE
  8
0
 10
-41.3396
 20
2.11081
 11
-41.0644
 21
2.26205
  0
LINE
  8
0
 10
-41.0644
 20
2.26205
 11
-40.7725
 21
2.37764
  0
LINE
  8
0
 10
-40.7725
 20
2.37764
 11
-40.4684
 21
2.4557
  0
LINE
  8
0
 10
-40.4684
 20
2.4557
 11
-40.157
 21
2.49506
  0
LINE
  8
0
 10
-40.157
 20
2.49506
 11
-39.843
 21
2.49506
  0
LINE
  8
0
 10
-39.843
 20
2.49506
 11
-39.5315
 21
2.4557
  0
LINE
  8
0
 10
-39.5315
 20
2.4557
 11
-39.2274
 21
2.37764
  0
LINE
  8
0
 10
-39.2274
 20
2.37764
 11
-38.9355
 21
2.26205
  0
LINE
  8
0
 10
-38.9355
 20
2.26205
 11
-38.6604
 21
2.11081
  0
LINE
  8
0
 10
-38.6604
 20
2.11081
 11
-38.4064
 21
1.92627
  0
LINE
  8
0
 10
-38.4064
 20
1.92627
 11
-38.1776
 21
1.71136
  0
LINE
  8
0
 10
-38.1776
 20
1.71136
 11
-37.9774
 21
1.46945
  0
LINE
  8
0
 10
-37.9774
 20
1.46945
 11
-37.8092
 21
1.20438
  0
LINE
  8
0
 10
-37.8092
 20
1.20438
 11
-37.6756
 21
0.920303
  0
LINE
  8
0
 10
-37.6756
 20
0.920303
 11
-37.5785
 21
0.621719
  0
LINE
  8
0
 10
-37.5785
 20
0.621719
 11
-37.5197
 21
0.313324
  0
LINE
  8
0
 10
-37.5197
 20
0.313324
 11
-37.5
 21
0
  0
LINE
  8
0
 10
-37.5
 20
0
 11
-37.5197
 21
-0.313324
  0
LINE
  8
0
 10
-37.5197
 20
-0.313324
 11
-37.5785
 21
-0.621719
  0
LINE
  8
0
 10
-37.5785
 20
-0.621719
 11
-37.6756
 21
-0.920303
  0
LINE
  8
0
 10
-37.6756
 20
-0.920303
 11
-37.8092
 21
-1.20438
  0
LINE
  8
0
 10
-37.8092
 20
-1.20438
 11
-37.9774
 21
-1.46945
  0
LINE
  8
0
 10
-37.9774
 20
-1.46945
 11
-38.1776
 21
-1.71136
  0
LINE
  8
0
 10
-38.1776
 20
-1.71136
 11
-38.4064
 21
-1.92627
  0
LINE
  8
0
 10
-38.4064
 20
-1.92627
 11
-38.6604
 21
-2.11081
  0
LINE
  8
0
 10
-38.6604
 20
-2.11081
 11
-38.9355
 21
-2.26205
  0
LINE
  8
0
 10
-38.9355
 20
-2.26205
 11
-39.2274
 21
-2.37764
  0
LINE
  8
0
 10
-39.2274
 20
-2.37764
 11
-39.5315
 21
-2.4557
  0
LINE
  8
0
 10
-39.5315
 20
-2.4557
 11
-39.843
 21
-2.49506
  0
LINE
  8
0
 10
-39.843
 20
-2.49506
 11
-40.157
 21
-2.49506
  0
LINE
  8
0
 10
39.843
 20
-2.49506
 11
39.5315
 21
-2.4557
  0
LINE
  8
0
 10
39.5315
 20
-2.4557
 11
39.2274
 21
-2.37764
  0
LINE
  8
0
 10
39.2274
 20
-2.37764
 11
38.9355
 21
-2.26205
  0
LINE
  8
0
 10
38.9355
 20
-2.26205
 11
38.6604
 21
-2.11081
  0
LINE
  8
0
 10
38.6604
 20
-2.11081
 11
38.4064
 21
-1.92627
  0
LINE
  8
0
 10
38.4064
 20
-1.92627
 11
38.1776
 21
-1.71136
  0
LINE
  8
0
 10
38.1776
 20
-1.71136
 11
37.9774
 21
-1.46945
  0
LINE
  8
0
 10
37.9774
 20
-1.46945
 11
37.8092
 21
-1.20438
  0
LINE
  8
0
 10
37.8092
 20
-1.20438
 11
37.6756
 21
-0.920303
  0
LINE
  8
0
 10
37.6756
 20
-0.920303
 11
37.5785
 21
-0.621719
  0
LINE
  8
0
 10
37.5785
 20
-0.621719
 11
37.5197
 21
-0.313324
  0
LINE
  8
0
 10
37.5197
 20
-0.313324
 11
37.5
 21
0
  0
LINE
  8
0
 10
37.5
 20
0
 11
37.5197
 21
0.313324
  0
LINE
  8
0
 10
37.5197
 20
0.313324
 11
37.5785
 21
0.621719
  0
LINE
  8
0
 10
37.5785
 20
0.621719
 11
37.6756
 21
0.920303
  0
LINE
  8
0
 10
37.6756
 20
0.920303
 11
37.8092
 21
1.20438
  0
LINE
  8
0
 10
37.8092
 20
1.20438
 11
37.9774
 21
1.46945
  0
LINE
  8
0
 10
37.9774
 20
1.46945
 11
38.1776
 21
1.71136
  0
LINE
  8
0
 10
38.1776
 20
1.71136
 11
38.4064
 21
1.92627
  0
LINE
  8
0
 10
38.4064
 20
1.92627
 11
38.6604
 21
2.11081
  0
LINE
  8
0
 10
38.6604
 20
2.11081
 11
38.9355
 21
2.26205
  0
LINE
  8
0
 10
38.9355
 20
2.26205
 11
39.2274
 21
2.37764
  0
LINE
  8
0
 10
39.2274
 20
2.37764
 11
39.5315
 21
2.4557
  0
LINE
  8
0
 10
39.5315
 20
2.4557
 11
39.843
 21
2.49506
  0
LINE
  8
0
 10
39.843
 20
2.49506
 11
40.157
 21
2.49506
  0
LINE
  8
0
 10
40.157
 20
2.49506
 11
40.4684
 21
2.4557
  0
LINE
  8
0
 10
40.4684
 20
2.4557
 11
40.7725
 21
2.37764
  0
LINE
  8
0
 10
40.7725
 20
2.37764
 11
41.0644
 21
2.26205
  0
LINE
  8
0
 10
41.0644
 20
2.26205
 11
41.3396
 21
2.11081
  0
LINE
  8
0
 10
41.3396
 20
2.11081
 11
41.5936
 21
1.92627
  0
LINE
  8
0
 10
41.5936
 20
1.92627
 11
41.8224
 21
1.71136
  0
LINE
  8
0
 10
41.8224
 20
1.71136
 11
42.0225
 21
1.46945
  0
LINE
  8
0
 10
42.0225
 20
1.46945
 11
42.1908
 21
1.20438
  0
LINE
  8
0
 10
42.1908
 20
1.20438
 11
42.3244
 21
0.920303
  0
LINE
  8
0
 10
42.3244
 20
0.920303
 11
42.4214
 21
0.621719
  0
LINE
  8
0
 10
42.4214
 20
0.621719
 11
42.4803
 21
0.313324
  0
LINE
  8
0
 10
42.4803
 20
0.313324
 11
42.5
 21
0
  0
LINE
  8
0
 10
42.5
 20
0
 11
42.4803
 21
-0.313324
  0
LINE
  8
0
 10
42.4803
 20
-0.313324
 11
42.4214
 21
-0.621719
  0
LINE
  8
0
 10
42.4214
 20
-0.621719
 11
42.3244
 21
-0.920303
  0
LINE
  8
0
 10
42.3244
 20
-0.920303
 11
42.1908
 21
-1.20438
  0
LINE
  8
0
 10
42.1908
 20
-1.20438
 11
42.0225
 21
-1.46945
  0
LINE
  8
0
 10
42.0225
 20
-1.46945
 11
41.8224
 21
-1.71136
  0
LINE
  8
0
 10
41.8224
 20
-1.71136
 11
41.5936
 21
-1.92627
  0
LINE
  8
0
 10
41.5936
 20
-1.92627
 11
41.3396
 21
-2.11081
  0
LINE
  8
0
 10
41.3396
 20
-2.11081
 11
41.0644
 21
-2.26205
  0
LINE
  8
0
 10
41.0644
 20
-2.26205
 11
40.7725
 21
-2.37764
  0
LINE
  8
0
 10
40.7725
 20
-2.37764
 11
40.4684
 21
-2.4557
  0
LINE
  8
0
 10
40.4684
 20
-2.4557
 11
40.157
 21
-2.49506
  0
LINE
  8
0
 10
40.157
 20
-2.49506
 11
39.843
 21
-2.49506
  0
LINE
  8
0
 10
-25
 20
-15
 11
-25
 21
-10
  0
LINE
  8
0
 10
-25
 20
-10
 11
-20
 21
-10
  0
LINE
  8
0
 10
-20
 20
-10
 11
-20
 21
-15
  0
LINE
  8
0
 10
-20
 20
-15
 11
-25
 21
-15
  0
LINE
  8
0
 10
20
 20
-15
 11
20
 21
-10
  0
LINE
  8
0
 10
20
 20
-10
 11
25
 21
-10
  0
LINE
  8
0
 10
25
 20
-10
 11
25
 21
-15
  0
LINE
  8
0
 10
25
 20
-15
 11
20
 21
-15
  0
LINE
  8
0
 10
-10.157
 20
-42.4951
 11
-10.4684
 21
-42.4557
  0
LINE
  8
0
 10
-10.4684
 20
-42.4557
 11
-10.7725
 21
-42.3776
  0
LINE
  8
0
 10
-10.7725
 20
-42.3776
 11
-11.0644
 21
-42.2621
  0
LINE
  8
0
 10
-11.0644
 20
-42.2621
 11
-11.3396
 21
-42.1108
  0
LINE
  8
0
 10
-11.3396
 20
-42.1108
 11
-11.5936
 21
-41.9263
  0
LINE
  8
0
 10
-11.5936
 20
-41.9263
 11
-11.8224
 21
-41.7114
  0
LINE
  8
0
 10
-11.8224
 20
-41.7114
 11
-12.0225
 21
-41.4695
  0
LINE
  8
0
 10
-12.0225
 20
-41.4695
 11
-12.1908
 21
-41.2044
  0
LINE
  8
0
 10
-12.1908
 20
-41.2044
 11
-12.3244
 21
-40.9203
  0
LINE
  8
0
 10
-12.3244
 20
-40.9203
 11
-12.4214
 21
-40.6217
  0
LINE
  8
0
 10
-12.4214
 20
-40.6217
 11
-12.4803
 21
-40.3133
  0
LINE
  8
0
 10
-12.4803
 20
-40.3133
 11
-12.5
 21
-40
  0
LINE
  8
0
 10
-12.5
 20
-40
 11
-12.4803
 21
-39.6867
  0
LINE
  8
0
 10
-12.4803
 20
-39.6867
 11
-12.4214
 21
-39.3783
  0
LINE
  8
0
 10
-12.4214
 20
-39.3783
 11
-12.3244
 21
-39.0797
  0
LINE
  8
0
 10
-12.3244
 20
-39.0797
 11
-12.1908
 21
-38.7956
  0
LINE
  8
0
 10
-12.1908
 20
-38.7956
 11
-12.0225
 21
-38.5305
  0
LINE
  8
0
 10
-12.0225
 20
-38.5305
 11
-11.8224
 21
-38.2886
  0
LINE
  8
0
 10
-11.8224
 20
-38.2886
 11
-11.5936
 21
-38.0737
  0
LINE
  8
0
 10
-11.5936
 20
-38.0737
 11
-11.3396
 21
-37.8892
  0
LINE
  8
0
 10
-11.3396
 20
-37.8892
 11
-11.0644
 21
-37.7379
  0
LINE
  8
0
 10
-11.0644
 20
-37.7379
 11
-10.7725
 21
-37.6223
  0
LINE
  8
0
 10
-10.7725
 20
-37.6223
 11
-10.4684
 21
-37.5443
  0
LINE
  8
0
 10
-10.4684
 20
-37.5443
 11
-10.157
 21
-37.5049
  0
LINE
  8
0
 10
-10.157
 20
-37.5049
 11
-9.84302
 21
-37.5049
  0
LINE
  8
0
 10
-9.84302
 20
-37.5049
 11
-9.53154
 21
-37.5443
  0
LINE
  8
0
 10
-9.53154
 20
-37.5443
 11
-9.22745
 21
-37.6223
  0
LINE
  8
0
 10
-9.22745
 20
-37.6223
 11
-8.93555
 21
-37.7379
  0
LINE
  8
0
 10
-8.93555
 20
-37.7379
 11
-8.66043
 21
-37.8892
  0
LINE
  8
0
 10
-8.66043
 20
-37.8892
 11
-8.40643
 21
-38.0737
  0
LINE
  8
0
 10
-8.40643
 20
-38.0737
 11
-8.17757
 21
-38.2886
  0
LINE
  8
0
 10
-8.17757
 20
-38.2886
 11
-7.97745
 21
-38.5305
  0
LINE
  8
0
 10
-7.97745
 20
-38.5305
 11
-7.80922
 21
-38.7956
  0
LINE
  8
0
 10
-7.80922
 20
-38.7956
 11
-7.67555
 21
-39.0797
  0
LINE
  8
0
 10
-7.67555
 20
-39.0797
 11
-7.57854
 21
-39.3783
  0
LINE
  8
0
 10
-7.57854
 20
-39.3783
 11
-7.5197
 21
-39.6867
  0
LINE
  8
0
 10
-7.5197
 20
-39.6867
 11
-7.5
 21
-40
  0
LINE
  8
0
 10
-7.5
 20
-40
 11
-7.5197
 21
-40.3133
  0
LINE
  8
0
 10
-7.5197
 20
-40.3133
 11
-7.57854
 21
-40.6217
  0
LINE
  8
0
 10
-7.57854
 20
-40.6217
 11
-7.67555
 21
-40.9203
  0
LINE
  8
0
 10
-7.67555
 20
-40.9203
 11
-7.80922
 21
-41.2044
  0
LINE
  8
0
 10
-7.80922
 20
-41.2044
 11
-7.97745
 21
-41.4695
  0
LINE
  8
0
 10
-7.97745
 20
-41.4695
 11
-8.17757
 21
-41.7114
  0
LINE
  8
0
 10
-8.17757
 20
-41.7114
 11
-8.40643
 21
-41.9263
  0
LINE
  8
0
 10
-8.40643
 20
-41.9263
 11
-8.66043
 21
-42.1108
  0
LINE
  8
0
 10
-8.66043
 20
-42.1108
 11
-8.93555
 21
-42.2621
  0
LINE
  8
0
 10
-8.93555
 20
-42.2621
 11
-9.22745
 21
-42.3776
  0
LINE
  8
0
 10
-9.22745
 20
-42.3776
 11
-9.53154
 21
-42.4557
  0
LINE
  8
0
 10
-9.53154
 20
-42.4557
 11
-9.84302
 21
-42.4951
  0
LINE
  8
0
 10
-9.84302
 20
-42.4951
 11
-10.157
 21
-42.4951
  0
LINE
  8
0
 10
9.84302
 20
-42.4951
 11
9.53154
 21
-42.4557
  0
LINE
  8
0
 10
9.53154
 20
-42.4557
 11
9.22745
 21
-42.3776
  0
LINE
  8
0
 10
9.22745
 20
-42.3776
 11
8.93555
 21
-42.2621
  0
LINE
  8
0
 10
8.93555
 20
-42.2621
 11
8.66043
 21
-42.1108
  0
LINE
  8
0
 10
8.66043
 20
-42.1108
 11
8.40643
 21
-41.9263
  0
LINE
  8
0
 10
8.40643
 20
-41.9263
 11
8.17757
 21
-41.7114
  0
LINE
  8
0
 10
8.17757
 20
-41.7114
 11
7.97745
 21
-41.4695
  0
LINE
  8
0
 10
7.97745
 20
-41.4695
 11
7.80922
 21
-41.2044
  0
LINE
  8
0
 10
7.80922
 20
-41.2044
 11
7.67555
 21
-40.9203
  0
LINE
  8
0
 10
7.67555
 20
-40.9203
 11
7.57854
 21
-40.6217
  0
LINE
  8
0
 10
7.57854
 20
-40.6217
 11
7.5197
 21
-40.3133
  0
LINE
  8
0
 10
7.5197
 20
-40.3133
 11
7.5
 21
-40
  0
LINE
  8
0
 10
7.5
 20
-40
 11
7.5197
 21
-39.6867
  0
LINE
  8
0
 10
7.5197
 20
-39.6867
 11
7.57854
 21
-39.3783
  0
LINE
  8
0
 10
7.57854
 20
-39.3783
 11
7.67555
 21
-39.0797
  0
LINE
  8
0
 10
7.67555
 20
-39.0797
 11
7.80922
 21
-38.7956
  0
LINE
  8
0
 10
7.80922
 20
-38.7956
 11
7.97745
 21
-38.5305
  0
LINE
  8
0
 10
7.97745
 20
-38.5305
 11
8.17757
 21
-38.2886
  0
LINE
  8
0
 10
8.17757
 20
-38.2886
 11
8.40643
 21
-38.0737
  0
LINE
  8
0
 10
8.40643
 20
-38.0737
 11
8.66043
 21
-37.8892
  0
LINE
  8
0
 10
8.66043
 20
-37.8892
 11
8.93555
 21
-37.7379
  0
LINE
  8
0
 10
8.93555
 20
-37.7379
 11
9.22745
 21
-37.6223
  0
LINE
  8
0
 10
9.22745
 20
-37.6223
 11
9.53154
 21
-37.5443
  0
LINE
  8
0
 10
9.53154
 20
-37.5443
 11
9.84302
 21
-37.5049
  0
LINE
  8
0
 10
9.84302
 20
-37.5049
 11
10.157
 21
-37.5049
  0
LINE
  8
0
 10
10.157
 20
-37.5049
 11
10.4684
 21
-37.5443
  0
LINE
  8
0
 10
10.4684
 20
-37.5443
 11
10.7725
 21
-37.6223
  0
LINE
  8
0
 10
10.7725
 20
-37.6223
 11
11.0644
 21
-37.7379
  0
LINE
  8
0
 10
11.0644
 20
-37.7379
 11
11.3396
 21
-37.8892
  0
LINE
  8
0
 10
11.3396
 20
-37.8892
 11
11.5936
 21
-38.0737
  0
LINE
  8
0
 10
11.5936
 20
-38.0737
 11
11.8224
 21
-38.2886
  0
LINE
  8
0
 10
11.8224
 20
-38.2886
 11
12.0225
 21
-38.5305
  0
LINE
  8
0
 10
12.0225
 20
-38.5305
 11
12.1908
 21
-38.7956
  0
LINE
  8
0
 10
12.1908
 20
-38.7956
 11
12.3244
 21
-39.0797
  0
LINE
  8
0
 10
12.3244
 20
-39.0797
 11
12.4214
 21
-39.3783
  0
LINE
  8
0
 10
12.4214
 20
-39.3783
 11
12.4803
 21
-39.6867
  0
LINE
  8
0
 10
12.4803
 20
-39.6867
 11
12.5
 21
-40
  0
LINE
  8
0
 10
12.5
 20
-40
 11
12.4803
 21
-40.3133
  0
LINE
  8
0
 10
12.4803
 20
-40.3133
 11
12.4214
 21
-40.6217
  0
LINE
  8
0
 10
12.4214
 20
-40.6217
 11
12.3244
 21
-40.9203
  0
LINE
  8
0
 10
12.3244
 20
-40.9203
 11
12.1908
 21
-41.2044
  0
LINE
  8
0
 10
12.1908
 20
-41.2044
 11
12.0225
 21
-41.4695
  0
LINE
  8
0
 10
12.0225
 20
-41.4695
 11
11.8224
 21
-41.7114
  0
LINE
  8
0
 10
11.8224
 20
-41.7114
 11
11.5936
 21
-41.9263
  0
LINE
  8
0
 10
11.5936
 20
-41.9263
 11
11.3396
 21
-42.1108
  0
LINE
  8
0
 10
11.3396
 20
-42.1108
 11
11.0644
 21
-42.2621
  0
LINE
  8
0
 10
11.0644
 20
-42.2621
 11
10.7725
 21
-42.3776
  0
LINE
  8
0
 10
10.7725
 20
-42.3776
 11
10.4684
 21
-42.4557
  0
LINE
  8
0
 10
10.4684
 20
-42.4557
 11
10.157
 21
-42.4951
  0
LINE
  8
0
 10
10.157
 20
-42.4951
 11
9.84302
 21
-42.4951
  0
LINE
  8
0
 10
-25
 20
-50
 11
-25
 21
-45
  0
LINE
  8
0
 10
-25
 20
-45
 11
-20
 21
-45
  0
LINE
  8
0
 10
-20
 20
-45
 11
-20
 21
-50
  0
LINE
  8
0
 10
-20
 20
-50
 11
-25
 21
-50
  0
LINE
  8
0
 10
20
 20
-50
 11
20
 21
-45
  0
LINE
  8
0
 10
20
 20
-45
 11
25
 21
-45
  0
LINE
  8
0
 10
25
 20
-45
 11
25
 21
-50
  0
LINE
  8
0
 10
25
 20
-50
 11
20
 21
-50
  0
ENDSEC
  0
SECTION
  2
OBJECTS
  0
DICTIONARY
  0
ENDSEC
  0
EOF
