  0
SECTION
  2
BLOCKS
  0
ENDSEC
  0
SECTION
  2
ENTITIES
  0
LINE
  8
0
 10
-50
 11
-50
 20
-10
 21
10
  0
LINE
  8
0
 10
-50
 11
-20
 20
10
 21
10
  0
LINE
  8
0
 10
-20
 11
-20
 20
10
 21
30
  0
LINE
  8
0
 10
-20
 11
20
 20
30
 21
30
  0
LINE
  8
0
 10
20
 11
20
 20
30
 21
10
  0
LINE
  8
0
 10
20
 11
50
 20
10
 21
10
  0
LINE
  8
0
 10
50
 11
50
 20
10
 21
-10
  0
LINE
  8
0
 10
50
 11
20
 20
-10
 21
-10
  0
LINE
  8
0
 10
20
 11
20
 20
-10
 21
-30
  0
LINE
  8
0
 10
20
 11
-20
 20
-30
 21
-30
  0
LINE
  8
0
 10
-20
 11
-20
 20
-30
 21
-10
  0
LINE
  8
0
 10
-20
 11
-50
 20
-10
 21
-10
  0
LINE
  8
0
 10
-42.5
 11
-42.48
 20
0
 21
0.313
  0
LINE
  8
0
 10
-42.48
 11
-42.421
 20
0.313
 21
0.622
  0
LINE
  8
0
 10
-42.421
 11
-42.324
 20
0.622
 21
0.92
  0
LINE
  8
0
 10
-42.324
 11
-42.191
 20
0.92
 21
1.204
  0
LINE
  8
0
 10
-42.191
 11
-42.023
 20
1.204
 21
1.469
  0
LINE
  8
0
 10
-42.023
 11
-41.822
 20
1.469
 21
1.711
  0
LINE
  8
0
 10
-41.822
 11
-41.594
 20
1.711
 21
1.926
  0
LINE
  8
0
 10
-41.594
 11
-41.34
 20
1.926
 21
2.111
  0
LINE
  8
0
 10
-41.34
 11
-41.064
 20
2.111
 21
2.262
  0
LINE
  8
0
 10
-41.064
 11
-40.773
 20
2.262
 21
2.378
  0
LINE
  8
0
 10
-40.773
 11
-40.468
 20
2.378
 21
2.456
  0
LINE
  8
0
 10
-40.468
 11
-40.157
 20
2.456
 21
2.495
  0
LINE
  8
0
 10
-40.157
 11
-39.843
 20
2.495
 21
2.495
  0
LINE
  8
0
 10
-39.843
 11
-39.532
 20
2.495
 21
2.456
  0
LINE
  8
0
 10
-39.532
 11
-39.227
 20
2.456
 21
2.378
  0
LINE
  8
0
 10
-39.227
 11
-38.936
 20
2.378
 21
2.262
  0
LINE
  8
0
 10
-38.936
 11
-38.66
 20
2.262
 21
2.111
  0
LINE
  8
0
 10
-38.66
 11
-38.406
 20
2.111
 21
1.926
  0
LINE
  8
0
 10
-38.406
 11
-38.178
 20
1.926
 21
1.711
  0
LINE
  8
0
 10
-38.178
 11
-37.977
 20
1.711
 21
1.469
  0
LINE
  8
0
 10
-37.977
 11
-37.809
 20
1.469
 21
1.204
  0
LINE
  8
0
 10
-37.809
 11
-37.676
 20
1.204
 21
0.92
  0
LINE
  8
0
 10
-37.676
 11
-37.579
 20
0.92
 21
0.622
  0
LINE
  8
0
 10
-37.579
 11
-37.52
 20
0.622
 21
0.313
  0
LINE
  8
0
 10
-37.52
 11
-37.5
 20
0.313
 21
0
  0
LINE
  8
0
 10
-37.5
 11
-37.52
 20
0
 21
-0.313
  0
LINE
  8
0
 10
-37.52
 11
-37.579
 20
-0.313
 21
-0.622
  0
LINE
  8
0
 10
-37.579
 11
-37.676
 20
-0.622
 21
-0.92
  0
LINE
  8
0
 10
-37.676
 11
-37.809
 20
-0.92
 21
-1.204
  0
LINE
  8
0
 10
-37.809
 11
-37.977
 20
-1.204
 21
-1.469
  0
LINE
  8
0
 10
-37.977
 11
-38.178
 20
-1.469
 21
-1.711
  0
LINE
  8
0
 10
-38.178
 11
-38.406
 20
-1.711
 21
-1.926
  0
LINE
  8
0
 10
-38.406
 11
-38.66
 20
-1.926
 21
-2.111
  0
LINE
  8
0
 10
-38.66
 11
-38.936
 20
-2.111
 21
-2.262
  0
LINE
  8
0
 10
-38.936
 11
-39.227
 20
-2.262
 21
-2.378
  0
LINE
  8
0
 10
-39.227
 11
-39.532
 20
-2.378
 21
-2.456
  0
LINE
  8
0
 10
-39.532
 11
-39.843
 20
-2.456
 21
-2.495
  0
LINE
  8
0
 10
-39.843
 11
-40.157
 20
-2.495
 21
-2.495
  0
LINE
  8
0
 10
-40.157
 11
-40.468
 20
-2.495
 21
-2.456
  0
LINE
  8
0
 10
-40.468
 11
-40.773
 20
-2.456
 21
-2.378
  0
LINE
  8
0
 10
-40.773
 11
-41.064
 20
-2.378
 21
-2.262
  0
LINE
  8
0
 10
-41.064
 11
-41.34
 20
-2.262
 21
-2.111
  0
LINE
  8
0
 10
-41.34
 11
-41.594
 20
-2.111
 21
-1.926
  0
LINE
  8
0
 10
-41.594
 11
-41.822
 20
-1.926
 21
-1.711
  0
LINE
  8
0
 10
-41.822
 11
-42.023
 20
-1.711
 21
-1.469
  0
LINE
  8
0
 10
-42.023
 11
-42.191
 20
-1.469
 21
-1.204
  0
LINE
  8
0
 10
-42.191
 11
-42.324
 20
-1.204
 21
-0.92
  0
LINE
  8
0
 10
-42.324
 11
-42.421
 20
-0.92
 21
-0.622
  0
LINE
  8
0
 10
-42.421
 11
-42.48
 20
-0.622
 21
-0.313
  0
LINE
  8
0
 10
-42.48
 11
-42.5
 20
-0.313
 21
0
  0
LINE
  8
0
 10
-12.5
 11
-12.48
 20
-20
 21
-19.687
  0
LINE
  8
0
 10
-12.48
 11
-12.421
 20
-19.687
 21
-19.378
  0
LINE
  8
0
 10
-12.421
 11
-12.324
 20
-19.378
 21
-19.08
  0
LINE
  8
0
 10
-12.324
 11
-12.191
 20
-19.08
 21
-18.796
  0
LINE
  8
0
 10
-12.191
 11
-12.023
 20
-18.796
 21
-18.531
  0
LINE
  8
0
 10
-12.023
 11
-11.822
 20
-18.531
 21
-18.289
  0
LINE
  8
0
 10
-11.822
 11
-11.594
 20
-18.289
 21
-18.074
  0
LINE
  8
0
 10
-11.594
 11
-11.34
 20
-18.074
 21
-17.889
  0
LINE
  8
0
 10
-11.34
 11
-11.064
 20
-17.889
 21
-17.738
  0
LINE
  8
0
 10
-11.064
 11
-10.773
 20
-17.738
 21
-17.622
  0
LINE
  8
0
 10
-10.773
 11
-10.468
 20
-17.622
 21
-17.544
  0
LINE
  8
0
 10
-10.468
 11
-10.157
 20
-17.544
 21
-17.505
  0
LINE
  8
0
 10
-10.157
 11
-9.843
 20
-17.505
 21
-17.505
  0
LINE
  8
0
 10
-9.843
 11
-9.532
 20
-17.505
 21
-17.544
  0
LINE
  8
0
 10
-9.532
 11
-9.227
 20
-17.544
 21
-17.622
  0
LINE
  8
0
 10
-9.227
 11
-8.936
 20
-17.622
 21
-17.738
  0
LINE
  8
0
 10
-8.936
 11
-8.66
 20
-17.738
 21
-17.889
  0
LINE
  8
0
 10
-8.66
 11
-8.406
 20
-17.889
 21
-18.074
  0
LINE
  8
0
 10
-8.406
 11
-8.178
 20
-18.074
 21
-18.289
  0
LINE
  8
0
 10
-8.178
 11
-7.977
 20
-18.289
 21
-18.531
  0
LINE
  8
0
 10
-7.977
 11
-7.809
 20
-18.531
 21
-18.796
  0
LINE
  8
0
 10
-7.809
 11
-7.676
 20
-18.796
 21
-19.08
  0
LINE
  8
0
 10
-7.676
 11
-7.579
 20
-19.08
 21
-19.378
  0
LINE
  8
0
 10
-7.579
 11
-7.52
 20
-19.378
 21
-19.687
  0
LINE
  8
0
 10
-7.52
 11
-7.5
 20
-19.687
 21
-20
  0
LINE
  8
0
 10
-7.5
 11
-7.52
 20
-20
 21
-20.313
  0
LINE
  8
0
 10
-7.52
 11
-7.579
 20
-20.313
 21
-20.622
  0
LINE
  8
0
 10
-7.579
 11
-7.676
 20
-20.622
 21
-20.92
  0
LINE
  8
0
 10
-7.676
 11
-7.809
 20
-20.92
 21
-21.204
  0
LINE
  8
0
 10
-7.809
 11
-7.977
 20
-21.204
 21
-21.469
  0
LINE
  8
0
 10
-7.977
 11
-8.178
 20
-21.469
 21
-21.711
  0
LINE
  8
0
 10
-8.178
 11
-8.406
 20
-21.711
 21
-21.926
  0
LINE
  8
0
 10
-8.406
 11
-8.66
 20
-21.926
 21
-22.111
  0
LINE
  8
0
 10
-8.66
 11
-8.936
 20
-22.111
 21
-22.262
  0
LINE
  8
0
 10
-8.936
 11
-9.227
 20
-22.262
 21
-22.378
  0
LINE
  8
0
 10
-9.227
 11
-9.532
 20
-22.378
 21
-22.456
  0
LINE
  8
0
 10
-9.532
 11
-9.843
 20
-22.456
 21
-22.495
  0
LINE
  8
0
 10
-9.843
 11
-10.157
 20
-22.495
 21
-22.495
  0
LINE
  8
0
 10
-10.157
 11
-10.468
 20
-22.495
 21
-22.456
  0
LINE
  8
0
 10
-10.468
 11
-10.773
 20
-22.456
 21
-22.378
  0
LINE
  8
0
 10
-10.773
 11
-11.064
 20
-22.378
 21
-22.262
  0
LINE
  8
0
 10
-11.064
 11
-11.34
 20
-22.262
 21
-22.111
  0
LINE
  8
0
 10
-11.34
 11
-11.594
 20
-22.111
 21
-21.926
  0
LINE
  8
0
 10
-11.594
 11
-11.822
 20
-21.926
 21
-21.711
  0
LINE
  8
0
 10
-11.822
 11
-12.023
 20
-21.711
 21
-21.469
  0
LINE
  8
0
 10
-12.023
 11
-12.191
 20
-21.469
 21
-21.204
  0
LINE
  8
0
 10
-12.191
 11
-12.324
 20
-21.204
 21
-20.92
  0
LINE
  8
0
 10
-12.324
 11
-12.421
 20
-20.92
 21
-20.622
  0
LINE
  8
0
 10
-12.421
 11
-12.48
 20
-20.622
 21
-20.313
  0
LINE
  8
0
 10
-12.48
 11
-12.5
 20
-20.313
 21
-20
  0
LINE
  8
0
 10
-12.5
 11
-12.48
 20
20
 21
20.313
  0
LINE
  8
0
 10
-12.48
 11
-12.421
 20
20.313
 21
20.622
  0
LINE
  8
0
 10
-12.421
 11
-12.324
 20
20.622
 21
20.92
  0
LINE
  8
0
 10
-12.324
 11
-12.191
 20
20.92
 21
21.204
  0
LINE
  8
0
 10
-12.191
 11
-12.023
 20
21.204
 21
21.469
  0
LINE
  8
0
 10
-12.023
 11
-11.822
 20
21.469
 21
21.711
  0
LINE
  8
0
 10
-11.822
 11
-11.594
 20
21.711
 21
21.926
  0
LINE
  8
0
 10
-11.594
 11
-11.34
 20
21.926
 21
22.111
  0
LINE
  8
0
 10
-11.34
 11
-11.064
 20
22.111
 21
22.262
  0
LINE
  8
0
 10
-11.064
 11
-10.773
 20
22.262
 21
22.378
  0
LINE
  8
0
 10
-10.773
 11
-10.468
 20
22.378
 21
22.456
  0
LINE
  8
0
 10
-10.468
 11
-10.157
 20
22.456
 21
22.495
  0
LINE
  8
0
 10
-10.157
 11
-9.843
 20
22.495
 21
22.495
  0
LINE
  8
0
 10
-9.843
 11
-9.532
 20
22.495
 21
22.456
  0
LINE
  8
0
 10
-9.532
 11
-9.227
 20
22.456
 21
22.378
  0
LINE
  8
0
 10
-9.227
 11
-8.936
 20
22.378
 21
22.262
  0
LINE
  8
0
 10
-8.936
 11
-8.66
 20
22.262
 21
22.111
  0
LINE
  8
0
 10
-8.66
 11
-8.406
 20
22.111
 21
21.926
  0
LINE
  8
0
 10
-8.406
 11
-8.178
 20
21.926
 21
21.711
  0
LINE
  8
0
 10
-8.178
 11
-7.977
 20
21.711
 21
21.469
  0
LINE
  8
0
 10
-7.977
 11
-7.809
 20
21.469
 21
21.204
  0
LINE
  8
0
 10
-7.809
 11
-7.676
 20
21.204
 21
20.92
  0
LINE
  8
0
 10
-7.676
 11
-7.579
 20
20.92
 21
20.622
  0
LINE
  8
0
 10
-7.579
 11
-7.52
 20
20.622
 21
20.313
  0
LINE
  8
0
 10
-7.52
 11
-7.5
 20
20.313
 21
20
  0
LINE
  8
0
 10
-7.5
 11
-7.52
 20
20
 21
19.687
  0
LINE
  8
0
 10
-7.52
 11
-7.579
 20
19.687
 21
19.378
  0
LINE
  8
0
 10
-7.579
 11
-7.676
 20
19.378
 21
19.08
  0
LINE
  8
0
 10
-7.676
 11
-7.809
 20
19.08
 21
18.796
  0
LINE
  8
0
 10
-7.809
 11
-7.977
 20
18.796
 21
18.531
  0
LINE
  8
0
 10
-7.977
 11
-8.178
 20
18.531
 21
18.289
  0
LINE
  8
0
 10
-8.178
 11
-8.406
 20
18.289
 21
18.074
  0
LINE
  8
0
 10
-8.406
 11
-8.66
 20
18.074
 21
17.889
  0
LINE
  8
0
 10
-8.66
 11
-8.936
 20
17.889
 21
17.738
  0
LINE
  8
0
 10
-8.936
 11
-9.227
 20
17.738
 21
17.622
  0
LINE
  8
0
 10
-9.227
 11
-9.532
 20
17.622
 21
17.544
  0
LINE
  8
0
 10
-9.532
 11
-9.843
 20
17.544
 21
17.505
  0
LINE
  8
0
 10
-9.843
 11
-10.157
 20
17.505
 21
17.505
  0
LINE
  8
0
 10
-10.157
 11
-10.468
 20
17.505
 21
17.544
  0
LINE
  8
0
 10
-10.468
 11
-10.773
 20
17.544
 21
17.622
  0
LINE
  8
0
 10
-10.773
 11
-11.064
 20
17.622
 21
17.738
  0
LINE
  8
0
 10
-11.064
 11
-11.34
 20
17.738
 21
17.889
  0
LINE
  8
0
 10
-11.34
 11
-11.594
 20
17.889
 21
18.074
  0
LINE
  8
0
 10
-11.594
 11
-11.822
 20
18.074
 21
18.289
  0
LINE
  8
0
 10
-11.822
 11
-12.023
 20
18.289
 21
18.531
  0
LINE
  8
0
 10
-12.023
 11
-12.191
 20
18.531
 21
18.796
  0
LINE
  8
0
 10
-12.191
 11
-12.324
 20
18.796
 21
19.08
  0
LINE
  8
0
 10
-12.324
 11
-12.421
 20
19.08
 21
19.378
  0
LINE
  8
0
 10
-12.421
 11
-12.48
 20
19.378
 21
19.687
  0
LINE
  8
0
 10
-12.48
 11
-12.5
 20
19.687
 21
20
  0
LINE
  8
0
 10
7.5
 11
7.52
 20
-20
 21
-19.687
  0
LINE
  8
0
 10
7.52
 11
7.579
 20
-19.687
 21
-19.378
  0
LINE
  8
0
 10
7.579
 11
7.676
 20
-19.378
 21
-19.08
  0
LINE
  8
0
 10
7.676
 11
7.809
 20
-19.08
 21
-18.796
  0
LINE
  8
0
 10
7.809
 11
7.977
 20
-18.796
 21
-18.531
  0
LINE
  8
0
 10
7.977
 11
8.178
 20
-18.531
 21
-18.289
  0
LINE
  8
0
 10
8.178
 11
8.406
 20
-18.289
 21
-18.074
  0
LINE
  8
0
 10
8.406
 11
8.66
 20
-18.074
 21
-17.889
  0
LINE
  8
0
 10
8.66
 11
8.936
 20
-17.889
 21
-17.738
  0
LINE
  8
0
 10
8.936
 11
9.227
 20
-17.738
 21
-17.622
  0
LINE
  8
0
 10
9.227
 11
9.532
 20
-17.622
 21
-17.544
  0
LINE
  8
0
 10
9.532
 11
9.843
 20
-17.544
 21
-17.505
  0
LINE
  8
0
 10
9.843
 11
10.157
 20
-17.505
 21
-17.505
  0
LINE
  8
0
 10
10.157
 11
10.468
 20
-17.505
 21
-17.544
  0
LINE
  8
0
 10
10.468
 11
10.773
 20
-17.544
 21
-17.622
  0
LINE
  8
0
 10
10.773
 11
11.064
 20
-17.622
 21
-17.738
  0
LINE
  8
0
 10
11.064
 11
11.34
 20
-17.738
 21
-17.889
  0
LINE
  8
0
 10
11.34
 11
11.594
 20
-17.889
 21
-18.074
  0
LINE
  8
0
 10
11.594
 11
11.822
 20
-18.074
 21
-18.289
  0
LINE
  8
0
 10
11.822
 11
12.023
 20
-18.289
 21
-18.531
  0
LINE
  8
0
 10
12.023
 11
12.191
 20
-18.531
 21
-18.796
  0
LINE
  8
0
 10
12.191
 11
12.324
 20
-18.796
 21
-19.08
  0
LINE
  8
0
 10
12.324
 11
12.421
 20
-19.08
 21
-19.378
  0
LINE
  8
0
 10
12.421
 11
12.48
 20
-19.378
 21
-19.687
  0
LINE
  8
0
 10
12.48
 11
12.5
 20
-19.687
 21
-20
  0
LINE
  8
0
 10
12.5
 11
12.48
 20
-20
 21
-20.313
  0
LINE
  8
0
 10
12.48
 11
12.421
 20
-20.313
 21
-20.622
  0
LINE
  8
0
 10
12.421
 11
12.324
 20
-20.622
 21
-20.92
  0
LINE
  8
0
 10
12.324
 11
12.191
 20
-20.92
 21
-21.204
  0
LINE
  8
0
 10
12.191
 11
12.023
 20
-21.204
 21
-21.469
  0
LINE
  8
0
 10
12.023
 11
11.822
 20
-21.469
 21
-21.711
  0
LINE
  8
0
 10
11.822
 11
11.594
 20
-21.711
 21
-21.926
  0
LINE
  8
0
 10
11.594
 11
11.34
 20
-21.926
 21
-22.111
  0
LINE
  8
0
 10
11.34
 11
11.064
 20
-22.111
 21
-22.262
  0
LINE
  8
0
 10
11.064
 11
10.773
 20
-22.262
 21
-22.378
  0
LINE
  8
0
 10
10.773
 11
10.468
 20
-22.378
 21
-22.456
  0
LINE
  8
0
 10
10.468
 11
10.157
 20
-22.456
 21
-22.495
  0
LINE
  8
0
 10
10.157
 11
9.843
 20
-22.495
 21
-22.495
  0
LINE
  8
0
 10
9.843
 11
9.532
 20
-22.495
 21
-22.456
  0
LINE
  8
0
 10
9.532
 11
9.227
 20
-22.456
 21
-22.378
  0
LINE
  8
0
 10
9.227
 11
8.936
 20
-22.378
 21
-22.262
  0
LINE
  8
0
 10
8.936
 11
8.66
 20
-22.262
 21
-22.111
  0
LINE
  8
0
 10
8.66
 11
8.406
 20
-22.111
 21
-21.926
  0
LINE
  8
0
 10
8.406
 11
8.178
 20
-21.926
 21
-21.711
  0
LINE
  8
0
 10
8.178
 11
7.977
 20
-21.711
 21
-21.469
  0
LINE
  8
0
 10
7.977
 11
7.809
 20
-21.469
 21
-21.204
  0
LINE
  8
0
 10
7.809
 11
7.676
 20
-21.204
 21
-20.92
  0
LINE
  8
0
 10
7.676
 11
7.579
 20
-20.92
 21
-20.622
  0
LINE
  8
0
 10
7.579
 11
7.52
 20
-20.622
 21
-20.313
  0
LINE
  8
0
 10
7.52
 11
7.5
 20
-20.313
 21
-20
  0
LINE
  8
0
 10
7.5
 11
7.52
 20
20
 21
20.313
  0
LINE
  8
0
 10
7.52
 11
7.579
 20
20.313
 21
20.622
  0
LINE
  8
0
 10
7.579
 11
7.676
 20
20.622
 21
20.92
  0
LINE
  8
0
 10
7.676
 11
7.809
 20
20.92
 21
21.204
  0
LINE
  8
0
 10
7.809
 11
7.977
 20
21.204
 21
21.469
  0
LINE
  8
0
 10
7.977
 11
8.178
 20
21.469
 21
21.711
  0
LINE
  8
0
 10
8.178
 11
8.406
 20
21.711
 21
21.926
  0
LINE
  8
0
 10
8.406
 11
8.66
 20
21.926
 21
22.111
  0
LINE
  8
0
 10
8.66
 11
8.936
 20
22.111
 21
22.262
  0
LINE
  8
0
 10
8.936
 11
9.227
 20
22.262
 21
22.378
  0
LINE
  8
0
 10
9.227
 11
9.532
 20
22.378
 21
22.456
  0
LINE
  8
0
 10
9.532
 11
9.843
 20
22.456
 21
22.495
  0
LINE
  8
0
 10
9.843
 11
10.157
 20
22.495
 21
22.495
  0
LINE
  8
0
 10
10.157
 11
10.468
 20
22.495
 21
22.456
  0
LINE
  8
0
 10
10.468
 11
10.773
 20
22.456
 21
22.378
  0
LINE
  8
0
 10
10.773
 11
11.064
 20
22.378
 21
22.262
  0
LINE
  8
0
 10
11.064
 11
11.34
 20
22.262
 21
22.111
  0
LINE
  8
0
 10
11.34
 11
11.594
 20
22.111
 21
21.926
  0
LINE
  8
0
 10
11.594
 11
11.822
 20
21.926
 21
21.711
  0
LINE
  8
0
 10
11.822
 11
12.023
 20
21.711
 21
21.469
  0
LINE
  8
0
 10
12.023
 11
12.191
 20
21.469
 21
21.204
  0
LINE
  8
0
 10
12.191
 11
12.324
 20
21.204
 21
20.92
  0
LINE
  8
0
 10
12.324
 11
12.421
 20
20.92
 21
20.622
  0
LINE
  8
0
 10
12.421
 11
12.48
 20
20.622
 21
20.313
  0
LINE
  8
0
 10
12.48
 11
12.5
 20
20.313
 21
20
  0
LINE
  8
0
 10
12.5
 11
12.48
 20
20
 21
19.687
  0
LINE
  8
0
 10
12.48
 11
12.421
 20
19.687
 21
19.378
  0
LINE
  8
0
 10
12.421
 11
12.324
 20
19.378
 21
19.08
  0
LINE
  8
0
 10
12.324
 11
12.191
 20
19.08
 21
18.796
  0
LINE
  8
0
 10
12.191
 11
12.023
 20
18.796
 21
18.531
  0
LINE
  8
0
 10
12.023
 11
11.822
 20
18.531
 21
18.289
  0
LINE
  8
0
 10
11.822
 11
11.594
 20
18.289
 21
18.074
  0
LINE
  8
0
 10
11.594
 11
11.34
 20
18.074
 21
17.889
  0
LINE
  8
0
 10
11.34
 11
11.064
 20
17.889
 21
17.738
  0
LINE
  8
0
 10
11.064
 11
10.773
 20
17.738
 21
17.622
  0
LINE
  8
0
 10
10.773
 11
10.468
 20
17.622
 21
17.544
  0
LINE
  8
0
 10
10.468
 11
10.157
 20
17.544
 21
17.505
  0
LINE
  8
0
 10
10.157
 11
9.843
 20
17.505
 21
17.505
  0
LINE
  8
0
 10
9.843
 11
9.532
 20
17.505
 21
17.544
  0
LINE
  8
0
 10
9.532
 11
9.227
 20
17.544
 21
17.622
  0
LINE
  8
0
 10
9.227
 11
8.936
 20
17.622
 21
17.738
  0
LINE
  8
0
 10
8.936
 11
8.66
 20
17.738
 21
17.889
  0
LINE
  8
0
 10
8.66
 11
8.406
 20
17.889
 21
18.074
  0
LINE
  8
0
 10
8.406
 11
8.178
 20
18.074
 21
18.289
  0
LINE
  8
0
 10
8.178
 11
7.977
 20
18.289
 21
18.531
  0
LINE
  8
0
 10
7.977
 11
7.809
 20
18.531
 21
18.796
  0
LINE
  8
0
 10
7.809
 11
7.676
 20
18.796
 21
19.08
  0
LINE
  8
0
 10
7.676
 11
7.579
 20
19.08
 21
19.378
  0
LINE
  8
0
 10
7.579
 11
7.52
 20
19.378
 21
19.687
  0
LINE
  8
0
 10
7.52
 11
7.5
 20
19.687
 21
20
  0
LINE
  8
0
 10
37.5
 11
37.52
 20
0
 21
0.313
  0
LINE
  8
0
 10
37.52
 11
37.579
 20
0.313
 21
0.622
  0
LINE
  8
0
 10
37.579
 11
37.676
 20
0.622
 21
0.92
  0
LINE
  8
0
 10
37.676
 11
37.809
 20
0.92
 21
1.204
  0
LINE
  8
0
 10
37.809
 11
37.977
 20
1.204
 21
1.469
  0
LINE
  8
0
 10
37.977
 11
38.178
 20
1.469
 21
1.711
  0
LINE
  8
0
 10
38.178
 11
38.406
 20
1.711
 21
1.926
  0
LINE
  8
0
 10
38.406
 11
38.66
 20
1.926
 21
2.111
  0
LINE
  8
0
 10
38.66
 11
38.936
 20
2.111
 21
2.262
  0
LINE
  8
0
 10
38.936
 11
39.227
 20
2.262
 21
2.378
  0
LINE
  8
0
 10
39.227
 11
39.532
 20
2.378
 21
2.456
  0
LINE
  8
0
 10
39.532
 11
39.843
 20
2.456
 21
2.495
  0
LINE
  8
0
 10
39.843
 11
40.157
 20
2.495
 21
2.495
  0
LINE
  8
0
 10
40.157
 11
40.468
 20
2.495
 21
2.456
  0
LINE
  8
0
 10
40.468
 11
40.773
 20
2.456
 21
2.378
  0
LINE
  8
0
 10
40.773
 11
41.064
 20
2.378
 21
2.262
  0
LINE
  8
0
 10
41.064
 11
41.34
 20
2.262
 21
2.111
  0
LINE
  8
0
 10
41.34
 11
41.594
 20
2.111
 21
1.926
  0
LINE
  8
0
 10
41.594
 11
41.822
 20
1.926
 21
1.711
  0
LINE
  8
0
 10
41.822
 11
42.023
 20
1.711
 21
1.469
  0
LINE
  8
0
 10
42.023
 11
42.191
 20
1.469
 21
1.204
  0
LINE
  8
0
 10
42.191
 11
42.324
 20
1.204
 21
0.92
  0
LINE
  8
0
 10
42.324
 11
42.421
 20
0.92
 21
0.622
  0
LINE
  8
0
 10
42.421
 11
42.48
 20
0.622
 21
0.313
  0
LINE
  8
0
 10
42.48
 11
42.5
 20
0.313
 21
0
  0
LINE
  8
0
 10
42.5
 11
42.48
 20
0
 21
-0.313
  0
LINE
  8
0
 10
42.48
 11
42.421
 20
-0.313
 21
-0.622
  0
LINE
  8
0
 10
42.421
 11
42.324
 20
-0.622
 21
-0.92
  0
LINE
  8
0
 10
42.324
 11
42.191
 20
-0.92
 21
-1.204
  0
LINE
  8
0
 10
42.191
 11
42.023
 20
-1.204
 21
-1.469
  0
LINE
  8
0
 10
42.023
 11
41.822
 20
-1.469
 21
-1.711
  0
LINE
  8
0
 10
41.822
 11
41.594
 20
-1.711
 21
-1.926
  0
LINE
  8
0
 10
41.594
 11
41.34
 20
-1.926
 21
-2.111
  0
LINE
  8
0
 10
41.34
 11
41.064
 20
-2.111
 21
-2.262
  0
LINE
  8
0
 10
41.064
 11
40.773
 20
-2.262
 21
-2.378
  0
LINE
  8
0
 10
40.773
 11
40.468
 20
-2.378
 21
-2.456
  0
LINE
  8
0
 10
40.468
 11
40.157
 20
-2.456
 21
-2.495
  0
LINE
  8
0
 10
40.157
 11
39.843
 20
-2.495
 21
-2.495
  0
LINE
  8
0
 10
39.843
 11
39.532
 20
-2.495
 21
-2.456
  0
LINE
  8
0
 10
39.532
 11
39.227
 20
-2.456
 21
-2.378
  0
LINE
  8
0
 10
39.227
 11
38.936
 20
-2.378
 21
-2.262
  0
LINE
  8
0
 10
38.936
 11
38.66
 20
-2.262
 21
-2.111
  0
LINE
  8
0
 10
38.66
 11
38.406
 20
-2.111
 21
-1.926
  0
LINE
  8
0
 10
38.406
 11
38.178
 20
-1.926
 21
-1.711
  0
LINE
  8
0
 10
38.178
 11
37.977
 20
-1.711
 21
-1.469
  0
LINE
  8
0
 10
37.977
 11
37.809
 20
-1.469
 21
-1.204
  0
LINE
  8
0
 10
37.809
 11
37.676
 20
-1.204
 21
-0.92
  0
LINE
  8
0
 10
37.676
 11
37.579
 20
-0.92
 21
-0.622
  0
LINE
  8
0
 10
37.579
 11
37.52
 20
-0.622
 21
-0.313
  0
LINE
  8
0
 10
37.52
 11
37.5
 20
-0.313
 21
0
  0
ENDSEC
  0
SECTION
  2
OBJECTS
  0
DICTIONARY
  0
ENDSEC
  0
EOF
