  0
SECTION
  2
BLOCKS
  0
ENDSEC
  0
SECTION
  2
ENTITIES
  0
LINE
  8
0
 10
-55
 11
-55
 20
-10
 21
10
  0
LINE
  8
0
 10
-55
 11
-25
 20
10
 21
55
  0
LINE
  8
0
 10
-25
 11
25
 20
55
 21
55
  0
LINE
  8
0
 10
25
 11
55
 20
55
 21
10
  0
LINE
  8
0
 10
55
 11
55
 20
10
 21
-10
  0
LINE
  8
0
 10
55
 11
25
 20
-10
 21
-55
  0
LINE
  8
0
 10
25
 11
-25
 20
-55
 21
-55
  0
LINE
  8
0
 10
-25
 11
-55
 20
-55
 21
-10
  0
LINE
  8
0
 10
-47.5
 11
-47.48
 20
0
 21
0.313
  0
LINE
  8
0
 10
-47.48
 11
-47.421
 20
0.313
 21
0.622
  0
LINE
  8
0
 10
-47.421
 11
-47.324
 20
0.622
 21
0.92
  0
LINE
  8
0
 10
-47.324
 11
-47.191
 20
0.92
 21
1.204
  0
LINE
  8
0
 10
-47.191
 11
-47.023
 20
1.204
 21
1.469
  0
LINE
  8
0
 10
-47.023
 11
-46.822
 20
1.469
 21
1.711
  0
LINE
  8
0
 10
-46.822
 11
-46.594
 20
1.711
 21
1.926
  0
LINE
  8
0
 10
-46.594
 11
-46.34
 20
1.926
 21
2.111
  0
LINE
  8
0
 10
-46.34
 11
-46.064
 20
2.111
 21
2.262
  0
LINE
  8
0
 10
-46.064
 11
-45.773
 20
2.262
 21
2.378
  0
LINE
  8
0
 10
-45.773
 11
-45.468
 20
2.378
 21
2.456
  0
LINE
  8
0
 10
-45.468
 11
-45.157
 20
2.456
 21
2.495
  0
LINE
  8
0
 10
-45.157
 11
-44.843
 20
2.495
 21
2.495
  0
LINE
  8
0
 10
-44.843
 11
-44.532
 20
2.495
 21
2.456
  0
LINE
  8
0
 10
-44.532
 11
-44.227
 20
2.456
 21
2.378
  0
LINE
  8
0
 10
-44.227
 11
-43.936
 20
2.378
 21
2.262
  0
LINE
  8
0
 10
-43.936
 11
-43.66
 20
2.262
 21
2.111
  0
LINE
  8
0
 10
-43.66
 11
-43.406
 20
2.111
 21
1.926
  0
LINE
  8
0
 10
-43.406
 11
-43.178
 20
1.926
 21
1.711
  0
LINE
  8
0
 10
-43.178
 11
-42.977
 20
1.711
 21
1.469
  0
LINE
  8
0
 10
-42.977
 11
-42.809
 20
1.469
 21
1.204
  0
LINE
  8
0
 10
-42.809
 11
-42.676
 20
1.204
 21
0.92
  0
LINE
  8
0
 10
-42.676
 11
-42.579
 20
0.92
 21
0.622
  0
LINE
  8
0
 10
-42.579
 11
-42.52
 20
0.622
 21
0.313
  0
LINE
  8
0
 10
-42.52
 11
-42.5
 20
0.313
 21
0
  0
LINE
  8
0
 10
-42.5
 11
-42.52
 20
0
 21
-0.313
  0
LINE
  8
0
 10
-42.52
 11
-42.579
 20
-0.313
 21
-0.622
  0
LINE
  8
0
 10
-42.579
 11
-42.676
 20
-0.622
 21
-0.92
  0
LINE
  8
0
 10
-42.676
 11
-42.809
 20
-0.92
 21
-1.204
  0
LINE
  8
0
 10
-42.809
 11
-42.977
 20
-1.204
 21
-1.469
  0
LINE
  8
0
 10
-42.977
 11
-43.178
 20
-1.469
 21
-1.711
  0
LINE
  8
0
 10
-43.178
 11
-43.406
 20
-1.711
 21
-1.926
  0
LINE
  8
0
 10
-43.406
 11
-43.66
 20
-1.926
 21
-2.111
  0
LINE
  8
0
 10
-43.66
 11
-43.936
 20
-2.111
 21
-2.262
  0
LINE
  8
0
 10
-43.936
 11
-44.227
 20
-2.262
 21
-2.378
  0
LINE
  8
0
 10
-44.227
 11
-44.532
 20
-2.378
 21
-2.456
  0
LINE
  8
0
 10
-44.532
 11
-44.843
 20
-2.456
 21
-2.495
  0
LINE
  8
0
 10
-44.843
 11
-45.157
 20
-2.495
 21
-2.495
  0
LINE
  8
0
 10
-45.157
 11
-45.468
 20
-2.495
 21
-2.456
  0
LINE
  8
0
 10
-45.468
 11
-45.773
 20
-2.456
 21
-2.378
  0
LINE
  8
0
 10
-45.773
 11
-46.064
 20
-2.378
 21
-2.262
  0
LINE
  8
0
 10
-46.064
 11
-46.34
 20
-2.262
 21
-2.111
  0
LINE
  8
0
 10
-46.34
 11
-46.594
 20
-2.111
 21
-1.926
  0
LINE
  8
0
 10
-46.594
 11
-46.822
 20
-1.926
 21
-1.711
  0
LINE
  8
0
 10
-46.822
 11
-47.023
 20
-1.711
 21
-1.469
  0
LINE
  8
0
 10
-47.023
 11
-47.191
 20
-1.469
 21
-1.204
  0
LINE
  8
0
 10
-47.191
 11
-47.324
 20
-1.204
 21
-0.92
  0
LINE
  8
0
 10
-47.324
 11
-47.421
 20
-0.92
 21
-0.622
  0
LINE
  8
0
 10
-47.421
 11
-47.48
 20
-0.622
 21
-0.313
  0
LINE
  8
0
 10
-47.48
 11
-47.5
 20
-0.313
 21
0
  0
LINE
  8
0
 10
-25
 11
-25
 20
-50
 21
-45
  0
LINE
  8
0
 10
-25
 11
-20
 20
-45
 21
-45
  0
LINE
  8
0
 10
-20
 11
-20
 20
-45
 21
-50
  0
LINE
  8
0
 10
-20
 11
-25
 20
-50
 21
-50
  0
LINE
  8
0
 10
-25
 11
-25
 20
-15
 21
-10
  0
LINE
  8
0
 10
-25
 11
-20
 20
-10
 21
-10
  0
LINE
  8
0
 10
-20
 11
-20
 20
-10
 21
-15
  0
LINE
  8
0
 10
-20
 11
-25
 20
-15
 21
-15
  0
LINE
  8
0
 10
-25
 11
-25
 20
10
 21
15
  0
LINE
  8
0
 10
-25
 11
-20
 20
15
 21
15
  0
LINE
  8
0
 10
-20
 11
-20
 20
15
 21
10
  0
LINE
  8
0
 10
-20
 11
-25
 20
10
 21
10
  0
LINE
  8
0
 10
-25
 11
-25
 20
45
 21
50
  0
LINE
  8
0
 10
-25
 11
-20
 20
50
 21
50
  0
LINE
  8
0
 10
-20
 11
-20
 20
50
 21
45
  0
LINE
  8
0
 10
-20
 11
-25
 20
45
 21
45
  0
LINE
  8
0
 10
-12.5
 11
-12.48
 20
-40
 21
-39.687
  0
LINE
  8
0
 10
-12.48
 11
-12.421
 20
-39.687
 21
-39.378
  0
LINE
  8
0
 10
-12.421
 11
-12.324
 20
-39.378
 21
-39.08
  0
LINE
  8
0
 10
-12.324
 11
-12.191
 20
-39.08
 21
-38.796
  0
LINE
  8
0
 10
-12.191
 11
-12.023
 20
-38.796
 21
-38.531
  0
LINE
  8
0
 10
-12.023
 11
-11.822
 20
-38.531
 21
-38.289
  0
LINE
  8
0
 10
-11.822
 11
-11.594
 20
-38.289
 21
-38.074
  0
LINE
  8
0
 10
-11.594
 11
-11.34
 20
-38.074
 21
-37.889
  0
LINE
  8
0
 10
-11.34
 11
-11.064
 20
-37.889
 21
-37.738
  0
LINE
  8
0
 10
-11.064
 11
-10.773
 20
-37.738
 21
-37.622
  0
LINE
  8
0
 10
-10.773
 11
-10.468
 20
-37.622
 21
-37.544
  0
LINE
  8
0
 10
-10.468
 11
-10.157
 20
-37.544
 21
-37.505
  0
LINE
  8
0
 10
-10.157
 11
-9.843
 20
-37.505
 21
-37.505
  0
LINE
  8
0
 10
-9.843
 11
-9.532
 20
-37.505
 21
-37.544
  0
LINE
  8
0
 10
-9.532
 11
-9.227
 20
-37.544
 21
-37.622
  0
LINE
  8
0
 10
-9.227
 11
-8.936
 20
-37.622
 21
-37.738
  0
LINE
  8
0
 10
-8.936
 11
-8.66
 20
-37.738
 21
-37.889
  0
LINE
  8
0
 10
-8.66
 11
-8.406
 20
-37.889
 21
-38.074
  0
LINE
  8
0
 10
-8.406
 11
-8.178
 20
-38.074
 21
-38.289
  0
LINE
  8
0
 10
-8.178
 11
-7.977
 20
-38.289
 21
-38.531
  0
LINE
  8
0
 10
-7.977
 11
-7.809
 20
-38.531
 21
-38.796
  0
LINE
  8
0
 10
-7.809
 11
-7.676
 20
-38.796
 21
-39.08
  0
LINE
  8
0
 10
-7.676
 11
-7.579
 20
-39.08
 21
-39.378
  0
LINE
  8
0
 10
-7.579
 11
-7.52
 20
-39.378
 21
-39.687
  0
LINE
  8
0
 10
-7.52
 11
-7.5
 20
-39.687
 21
-40
  0
LINE
  8
0
 10
-7.5
 11
-7.52
 20
-40
 21
-40.313
  0
LINE
  8
0
 10
-7.52
 11
-7.579
 20
-40.313
 21
-40.622
  0
LINE
  8
0
 10
-7.579
 11
-7.676
 20
-40.622
 21
-40.92
  0
LINE
  8
0
 10
-7.676
 11
-7.809
 20
-40.92
 21
-41.204
  0
LINE
  8
0
 10
-7.809
 11
-7.977
 20
-41.204
 21
-41.469
  0
LINE
  8
0
 10
-7.977
 11
-8.178
 20
-41.469
 21
-41.711
  0
LINE
  8
0
 10
-8.178
 11
-8.406
 20
-41.711
 21
-41.926
  0
LINE
  8
0
 10
-8.406
 11
-8.66
 20
-41.926
 21
-42.111
  0
LINE
  8
0
 10
-8.66
 11
-8.936
 20
-42.111
 21
-42.262
  0
LINE
  8
0
 10
-8.936
 11
-9.227
 20
-42.262
 21
-42.378
  0
LINE
  8
0
 10
-9.227
 11
-9.532
 20
-42.378
 21
-42.456
  0
LINE
  8
0
 10
-9.532
 11
-9.843
 20
-42.456
 21
-42.495
  0
LINE
  8
0
 10
-9.843
 11
-10.157
 20
-42.495
 21
-42.495
  0
LINE
  8
0
 10
-10.157
 11
-10.468
 20
-42.495
 21
-42.456
  0
LINE
  8
0
 10
-10.468
 11
-10.773
 20
-42.456
 21
-42.378
  0
LINE
  8
0
 10
-10.773
 11
-11.064
 20
-42.378
 21
-42.262
  0
LINE
  8
0
 10
-11.064
 11
-11.34
 20
-42.262
 21
-42.111
  0
LINE
  8
0
 10
-11.34
 11
-11.594
 20
-42.111
 21
-41.926
  0
LINE
  8
0
 10
-11.594
 11
-11.822
 20
-41.926
 21
-41.711
  0
LINE
  8
0
 10
-11.822
 11
-12.023
 20
-41.711
 21
-41.469
  0
LINE
  8
0
 10
-12.023
 11
-12.191
 20
-41.469
 21
-41.204
  0
LINE
  8
0
 10
-12.191
 11
-12.324
 20
-41.204
 21
-40.92
  0
LINE
  8
0
 10
-12.324
 11
-12.421
 20
-40.92
 21
-40.622
  0
LINE
  8
0
 10
-12.421
 11
-12.48
 20
-40.622
 21
-40.313
  0
LINE
  8
0
 10
-12.48
 11
-12.5
 20
-40.313
 21
-40
  0
LINE
  8
0
 10
-12.5
 11
-12.48
 20
40
 21
40.313
  0
LINE
  8
0
 10
-12.48
 11
-12.421
 20
40.313
 21
40.622
  0
LINE
  8
0
 10
-12.421
 11
-12.324
 20
40.622
 21
40.92
  0
LINE
  8
0
 10
-12.324
 11
-12.191
 20
40.92
 21
41.204
  0
LINE
  8
0
 10
-12.191
 11
-12.023
 20
41.204
 21
41.469
  0
LINE
  8
0
 10
-12.023
 11
-11.822
 20
41.469
 21
41.711
  0
LINE
  8
0
 10
-11.822
 11
-11.594
 20
41.711
 21
41.926
  0
LINE
  8
0
 10
-11.594
 11
-11.34
 20
41.926
 21
42.111
  0
LINE
  8
0
 10
-11.34
 11
-11.064
 20
42.111
 21
42.262
  0
LINE
  8
0
 10
-11.064
 11
-10.773
 20
42.262
 21
42.378
  0
LINE
  8
0
 10
-10.773
 11
-10.468
 20
42.378
 21
42.456
  0
LINE
  8
0
 10
-10.468
 11
-10.157
 20
42.456
 21
42.495
  0
LINE
  8
0
 10
-10.157
 11
-9.843
 20
42.495
 21
42.495
  0
LINE
  8
0
 10
-9.843
 11
-9.532
 20
42.495
 21
42.456
  0
LINE
  8
0
 10
-9.532
 11
-9.227
 20
42.456
 21
42.378
  0
LINE
  8
0
 10
-9.227
 11
-8.936
 20
42.378
 21
42.262
  0
LINE
  8
0
 10
-8.936
 11
-8.66
 20
42.262
 21
42.111
  0
LINE
  8
0
 10
-8.66
 11
-8.406
 20
42.111
 21
41.926
  0
LINE
  8
0
 10
-8.406
 11
-8.178
 20
41.926
 21
41.711
  0
LINE
  8
0
 10
-8.178
 11
-7.977
 20
41.711
 21
41.469
  0
LINE
  8
0
 10
-7.977
 11
-7.809
 20
41.469
 21
41.204
  0
LINE
  8
0
 10
-7.809
 11
-7.676
 20
41.204
 21
40.92
  0
LINE
  8
0
 10
-7.676
 11
-7.579
 20
40.92
 21
40.622
  0
LINE
  8
0
 10
-7.579
 11
-7.52
 20
40.622
 21
40.313
  0
LINE
  8
0
 10
-7.52
 11
-7.5
 20
40.313
 21
40
  0
LINE
  8
0
 10
-7.5
 11
-7.52
 20
40
 21
39.687
  0
LINE
  8
0
 10
-7.52
 11
-7.579
 20
39.687
 21
39.378
  0
LINE
  8
0
 10
-7.579
 11
-7.676
 20
39.378
 21
39.08
  0
LINE
  8
0
 10
-7.676
 11
-7.809
 20
39.08
 21
38.796
  0
LINE
  8
0
 10
-7.809
 11
-7.977
 20
38.796
 21
38.531
  0
LINE
  8
0
 10
-7.977
 11
-8.178
 20
38.531
 21
38.289
  0
LINE
  8
0
 10
-8.178
 11
-8.406
 20
38.289
 21
38.074
  0
LINE
  8
0
 10
-8.406
 11
-8.66
 20
38.074
 21
37.889
  0
LINE
  8
0
 10
-8.66
 11
-8.936
 20
37.889
 21
37.738
  0
LINE
  8
0
 10
-8.936
 11
-9.227
 20
37.738
 21
37.622
  0
LINE
  8
0
 10
-9.227
 11
-9.532
 20
37.622
 21
37.544
  0
LINE
  8
0
 10
-9.532
 11
-9.843
 20
37.544
 21
37.505
  0
LINE
  8
0
 10
-9.843
 11
-10.157
 20
37.505
 21
37.505
  0
LINE
  8
0
 10
-10.157
 11
-10.468
 20
37.505
 21
37.544
  0
LINE
  8
0
 10
-10.468
 11
-10.773
 20
37.544
 21
37.622
  0
LINE
  8
0
 10
-10.773
 11
-11.064
 20
37.622
 21
37.738
  0
LINE
  8
0
 10
-11.064
 11
-11.34
 20
37.738
 21
37.889
  0
LINE
  8
0
 10
-11.34
 11
-11.594
 20
37.889
 21
38.074
  0
LINE
  8
0
 10
-11.594
 11
-11.822
 20
38.074
 21
38.289
  0
LINE
  8
0
 10
-11.822
 11
-12.023
 20
38.289
 21
38.531
  0
LINE
  8
0
 10
-12.023
 11
-12.191
 20
38.531
 21
38.796
  0
LINE
  8
0
 10
-12.191
 11
-12.324
 20
38.796
 21
39.08
  0
LINE
  8
0
 10
-12.324
 11
-12.421
 20
39.08
 21
39.378
  0
LINE
  8
0
 10
-12.421
 11
-12.48
 20
39.378
 21
39.687
  0
LINE
  8
0
 10
-12.48
 11
-12.5
 20
39.687
 21
40
  0
LINE
  8
0
 10
7.5
 11
7.52
 20
-40
 21
-39.687
  0
LINE
  8
0
 10
7.52
 11
7.579
 20
-39.687
 21
-39.378
  0
LINE
  8
0
 10
7.579
 11
7.676
 20
-39.378
 21
-39.08
  0
LINE
  8
0
 10
7.676
 11
7.809
 20
-39.08
 21
-38.796
  0
LINE
  8
0
 10
7.809
 11
7.977
 20
-38.796
 21
-38.531
  0
LINE
  8
0
 10
7.977
 11
8.178
 20
-38.531
 21
-38.289
  0
LINE
  8
0
 10
8.178
 11
8.406
 20
-38.289
 21
-38.074
  0
LINE
  8
0
 10
8.406
 11
8.66
 20
-38.074
 21
-37.889
  0
LINE
  8
0
 10
8.66
 11
8.936
 20
-37.889
 21
-37.738
  0
LINE
  8
0
 10
8.936
 11
9.227
 20
-37.738
 21
-37.622
  0
LINE
  8
0
 10
9.227
 11
9.532
 20
-37.622
 21
-37.544
  0
LINE
  8
0
 10
9.532
 11
9.843
 20
-37.544
 21
-37.505
  0
LINE
  8
0
 10
9.843
 11
10.157
 20
-37.505
 21
-37.505
  0
LINE
  8
0
 10
10.157
 11
10.468
 20
-37.505
 21
-37.544
  0
LINE
  8
0
 10
10.468
 11
10.773
 20
-37.544
 21
-37.622
  0
LINE
  8
0
 10
10.773
 11
11.064
 20
-37.622
 21
-37.738
  0
LINE
  8
0
 10
11.064
 11
11.34
 20
-37.738
 21
-37.889
  0
LINE
  8
0
 10
11.34
 11
11.594
 20
-37.889
 21
-38.074
  0
LINE
  8
0
 10
11.594
 11
11.822
 20
-38.074
 21
-38.289
  0
LINE
  8
0
 10
11.822
 11
12.023
 20
-38.289
 21
-38.531
  0
LINE
  8
0
 10
12.023
 11
12.191
 20
-38.531
 21
-38.796
  0
LINE
  8
0
 10
12.191
 11
12.324
 20
-38.796
 21
-39.08
  0
LINE
  8
0
 10
12.324
 11
12.421
 20
-39.08
 21
-39.378
  0
LINE
  8
0
 10
12.421
 11
12.48
 20
-39.378
 21
-39.687
  0
LINE
  8
0
 10
12.48
 11
12.5
 20
-39.687
 21
-40
  0
LINE
  8
0
 10
12.5
 11
12.48
 20
-40
 21
-40.313
  0
LINE
  8
0
 10
12.48
 11
12.421
 20
-40.313
 21
-40.622
  0
LINE
  8
0
 10
12.421
 11
12.324
 20
-40.622
 21
-40.92
  0
LINE
  8
0
 10
12.324
 11
12.191
 20
-40.92
 21
-41.204
  0
LINE
  8
0
 10
12.191
 11
12.023
 20
-41.204
 21
-41.469
  0
LINE
  8
0
 10
12.023
 11
11.822
 20
-41.469
 21
-41.711
  0
LINE
  8
0
 10
11.822
 11
11.594
 20
-41.711
 21
-41.926
  0
LINE
  8
0
 10
11.594
 11
11.34
 20
-41.926
 21
-42.111
  0
LINE
  8
0
 10
11.34
 11
11.064
 20
-42.111
 21
-42.262
  0
LINE
  8
0
 10
11.064
 11
10.773
 20
-42.262
 21
-42.378
  0
LINE
  8
0
 10
10.773
 11
10.468
 20
-42.378
 21
-42.456
  0
LINE
  8
0
 10
10.468
 11
10.157
 20
-42.456
 21
-42.495
  0
LINE
  8
0
 10
10.157
 11
9.843
 20
-42.495
 21
-42.495
  0
LINE
  8
0
 10
9.843
 11
9.532
 20
-42.495
 21
-42.456
  0
LINE
  8
0
 10
9.532
 11
9.227
 20
-42.456
 21
-42.378
  0
LINE
  8
0
 10
9.227
 11
8.936
 20
-42.378
 21
-42.262
  0
LINE
  8
0
 10
8.936
 11
8.66
 20
-42.262
 21
-42.111
  0
LINE
  8
0
 10
8.66
 11
8.406
 20
-42.111
 21
-41.926
  0
LINE
  8
0
 10
8.406
 11
8.178
 20
-41.926
 21
-41.711
  0
LINE
  8
0
 10
8.178
 11
7.977
 20
-41.711
 21
-41.469
  0
LINE
  8
0
 10
7.977
 11
7.809
 20
-41.469
 21
-41.204
  0
LINE
  8
0
 10
7.809
 11
7.676
 20
-41.204
 21
-40.92
  0
LINE
  8
0
 10
7.676
 11
7.579
 20
-40.92
 21
-40.622
  0
LINE
  8
0
 10
7.579
 11
7.52
 20
-40.622
 21
-40.313
  0
LINE
  8
0
 10
7.52
 11
7.5
 20
-40.313
 21
-40
  0
LINE
  8
0
 10
7.5
 11
7.52
 20
40
 21
40.313
  0
LINE
  8
0
 10
7.52
 11
7.579
 20
40.313
 21
40.622
  0
LINE
  8
0
 10
7.579
 11
7.676
 20
40.622
 21
40.92
  0
LINE
  8
0
 10
7.676
 11
7.809
 20
40.92
 21
41.204
  0
LINE
  8
0
 10
7.809
 11
7.977
 20
41.204
 21
41.469
  0
LINE
  8
0
 10
7.977
 11
8.178
 20
41.469
 21
41.711
  0
LINE
  8
0
 10
8.178
 11
8.406
 20
41.711
 21
41.926
  0
LINE
  8
0
 10
8.406
 11
8.66
 20
41.926
 21
42.111
  0
LINE
  8
0
 10
8.66
 11
8.936
 20
42.111
 21
42.262
  0
LINE
  8
0
 10
8.936
 11
9.227
 20
42.262
 21
42.378
  0
LINE
  8
0
 10
9.227
 11
9.532
 20
42.378
 21
42.456
  0
LINE
  8
0
 10
9.532
 11
9.843
 20
42.456
 21
42.495
  0
LINE
  8
0
 10
9.843
 11
10.157
 20
42.495
 21
42.495
  0
LINE
  8
0
 10
10.157
 11
10.468
 20
42.495
 21
42.456
  0
LINE
  8
0
 10
10.468
 11
10.773
 20
42.456
 21
42.378
  0
LINE
  8
0
 10
10.773
 11
11.064
 20
42.378
 21
42.262
  0
LINE
  8
0
 10
11.064
 11
11.34
 20
42.262
 21
42.111
  0
LINE
  8
0
 10
11.34
 11
11.594
 20
42.111
 21
41.926
  0
LINE
  8
0
 10
11.594
 11
11.822
 20
41.926
 21
41.711
  0
LINE
  8
0
 10
11.822
 11
12.023
 20
41.711
 21
41.469
  0
LINE
  8
0
 10
12.023
 11
12.191
 20
41.469
 21
41.204
  0
LINE
  8
0
 10
12.191
 11
12.324
 20
41.204
 21
40.92
  0
LINE
  8
0
 10
12.324
 11
12.421
 20
40.92
 21
40.622
  0
LINE
  8
0
 10
12.421
 11
12.48
 20
40.622
 21
40.313
  0
LINE
  8
0
 10
12.48
 11
12.5
 20
40.313
 21
40
  0
LINE
  8
0
 10
12.5
 11
12.48
 20
40
 21
39.687
  0
LINE
  8
0
 10
12.48
 11
12.421
 20
39.687
 21
39.378
  0
LINE
  8
0
 10
12.421
 11
12.324
 20
39.378
 21
39.08
  0
LINE
  8
0
 10
12.324
 11
12.191
 20
39.08
 21
38.796
  0
LINE
  8
0
 10
12.191
 11
12.023
 20
38.796
 21
38.531
  0
LINE
  8
0
 10
12.023
 11
11.822
 20
38.531
 21
38.289
  0
LINE
  8
0
 10
11.822
 11
11.594
 20
38.289
 21
38.074
  0
LINE
  8
0
 10
11.594
 11
11.34
 20
38.074
 21
37.889
  0
LINE
  8
0
 10
11.34
 11
11.064
 20
37.889
 21
37.738
  0
LINE
  8
0
 10
11.064
 11
10.773
 20
37.738
 21
37.622
  0
LINE
  8
0
 10
10.773
 11
10.468
 20
37.622
 21
37.544
  0
LINE
  8
0
 10
10.468
 11
10.157
 20
37.544
 21
37.505
  0
LINE
  8
0
 10
10.157
 11
9.843
 20
37.505
 21
37.505
  0
LINE
  8
0
 10
9.843
 11
9.532
 20
37.505
 21
37.544
  0
LINE
  8
0
 10
9.532
 11
9.227
 20
37.544
 21
37.622
  0
LINE
  8
0
 10
9.227
 11
8.936
 20
37.622
 21
37.738
  0
LINE
  8
0
 10
8.936
 11
8.66
 20
37.738
 21
37.889
  0
LINE
  8
0
 10
8.66
 11
8.406
 20
37.889
 21
38.074
  0
LINE
  8
0
 10
8.406
 11
8.178
 20
38.074
 21
38.289
  0
LINE
  8
0
 10
8.178
 11
7.977
 20
38.289
 21
38.531
  0
LINE
  8
0
 10
7.977
 11
7.809
 20
38.531
 21
38.796
  0
LINE
  8
0
 10
7.809
 11
7.676
 20
38.796
 21
39.08
  0
LINE
  8
0
 10
7.676
 11
7.579
 20
39.08
 21
39.378
  0
LINE
  8
0
 10
7.579
 11
7.52
 20
39.378
 21
39.687
  0
LINE
  8
0
 10
7.52
 11
7.5
 20
39.687
 21
40
  0
LINE
  8
0
 10
20
 11
20
 20
-50
 21
-45
  0
LINE
  8
0
 10
20
 11
25
 20
-45
 21
-45
  0
LINE
  8
0
 10
25
 11
25
 20
-45
 21
-50
  0
LINE
  8
0
 10
25
 11
20
 20
-50
 21
-50
  0
LINE
  8
0
 10
20
 11
20
 20
-15
 21
-10
  0
LINE
  8
0
 10
20
 11
25
 20
-10
 21
-10
  0
LINE
  8
0
 10
25
 11
25
 20
-10
 21
-15
  0
LINE
  8
0
 10
25
 11
20
 20
-15
 21
-15
  0
LINE
  8
0
 10
20
 11
20
 20
10
 21
15
  0
LINE
  8
0
 10
20
 11
25
 20
15
 21
15
  0
LINE
  8
0
 10
25
 11
25
 20
15
 21
10
  0
LINE
  8
0
 10
25
 11
20
 20
10
 21
10
  0
LINE
  8
0
 10
20
 11
20
 20
45
 21
50
  0
LINE
  8
0
 10
20
 11
25
 20
50
 21
50
  0
LINE
  8
0
 10
25
 11
25
 20
50
 21
45
  0
LINE
  8
0
 10
25
 11
20
 20
45
 21
45
  0
LINE
  8
0
 10
42.5
 11
42.52
 20
0
 21
0.313
  0
LINE
  8
0
 10
42.52
 11
42.579
 20
0.313
 21
0.622
  0
LINE
  8
0
 10
42.579
 11
42.676
 20
0.622
 21
0.92
  0
LINE
  8
0
 10
42.676
 11
42.809
 20
0.92
 21
1.204
  0
LINE
  8
0
 10
42.809
 11
42.977
 20
1.204
 21
1.469
  0
LINE
  8
0
 10
42.977
 11
43.178
 20
1.469
 21
1.711
  0
LINE
  8
0
 10
43.178
 11
43.406
 20
1.711
 21
1.926
  0
LINE
  8
0
 10
43.406
 11
43.66
 20
1.926
 21
2.111
  0
LINE
  8
0
 10
43.66
 11
43.936
 20
2.111
 21
2.262
  0
LINE
  8
0
 10
43.936
 11
44.227
 20
2.262
 21
2.378
  0
LINE
  8
0
 10
44.227
 11
44.532
 20
2.378
 21
2.456
  0
LINE
  8
0
 10
44.532
 11
44.843
 20
2.456
 21
2.495
  0
LINE
  8
0
 10
44.843
 11
45.157
 20
2.495
 21
2.495
  0
LINE
  8
0
 10
45.157
 11
45.468
 20
2.495
 21
2.456
  0
LINE
  8
0
 10
45.468
 11
45.773
 20
2.456
 21
2.378
  0
LINE
  8
0
 10
45.773
 11
46.064
 20
2.378
 21
2.262
  0
LINE
  8
0
 10
46.064
 11
46.34
 20
2.262
 21
2.111
  0
LINE
  8
0
 10
46.34
 11
46.594
 20
2.111
 21
1.926
  0
LINE
  8
0
 10
46.594
 11
46.822
 20
1.926
 21
1.711
  0
LINE
  8
0
 10
46.822
 11
47.023
 20
1.711
 21
1.469
  0
LINE
  8
0
 10
47.023
 11
47.191
 20
1.469
 21
1.204
  0
LINE
  8
0
 10
47.191
 11
47.324
 20
1.204
 21
0.92
  0
LINE
  8
0
 10
47.324
 11
47.421
 20
0.92
 21
0.622
  0
LINE
  8
0
 10
47.421
 11
47.48
 20
0.622
 21
0.313
  0
LINE
  8
0
 10
47.48
 11
47.5
 20
0.313
 21
0
  0
LINE
  8
0
 10
47.5
 11
47.48
 20
0
 21
-0.313
  0
LINE
  8
0
 10
47.48
 11
47.421
 20
-0.313
 21
-0.622
  0
LINE
  8
0
 10
47.421
 11
47.324
 20
-0.622
 21
-0.92
  0
LINE
  8
0
 10
47.324
 11
47.191
 20
-0.92
 21
-1.204
  0
LINE
  8
0
 10
47.191
 11
47.023
 20
-1.204
 21
-1.469
  0
LINE
  8
0
 10
47.023
 11
46.822
 20
-1.469
 21
-1.711
  0
LINE
  8
0
 10
46.822
 11
46.594
 20
-1.711
 21
-1.926
  0
LINE
  8
0
 10
46.594
 11
46.34
 20
-1.926
 21
-2.111
  0
LINE
  8
0
 10
46.34
 11
46.064
 20
-2.111
 21
-2.262
  0
LINE
  8
0
 10
46.064
 11
45.773
 20
-2.262
 21
-2.378
  0
LINE
  8
0
 10
45.773
 11
45.468
 20
-2.378
 21
-2.456
  0
LINE
  8
0
 10
45.468
 11
45.157
 20
-2.456
 21
-2.495
  0
LINE
  8
0
 10
45.157
 11
44.843
 20
-2.495
 21
-2.495
  0
LINE
  8
0
 10
44.843
 11
44.532
 20
-2.495
 21
-2.456
  0
LINE
  8
0
 10
44.532
 11
44.227
 20
-2.456
 21
-2.378
  0
LINE
  8
0
 10
44.227
 11
43.936
 20
-2.378
 21
-2.262
  0
LINE
  8
0
 10
43.936
 11
43.66
 20
-2.262
 21
-2.111
  0
LINE
  8
0
 10
43.66
 11
43.406
 20
-2.111
 21
-1.926
  0
LINE
  8
0
 10
43.406
 11
43.178
 20
-1.926
 21
-1.711
  0
LINE
  8
0
 10
43.178
 11
42.977
 20
-1.711
 21
-1.469
  0
LINE
  8
0
 10
42.977
 11
42.809
 20
-1.469
 21
-1.204
  0
LINE
  8
0
 10
42.809
 11
42.676
 20
-1.204
 21
-0.92
  0
LINE
  8
0
 10
42.676
 11
42.579
 20
-0.92
 21
-0.622
  0
LINE
  8
0
 10
42.579
 11
42.52
 20
-0.622
 21
-0.313
  0
LINE
  8
0
 10
42.52
 11
42.5
 20
-0.313
 21
0
  0
ENDSEC
  0
SECTION
  2
OBJECTS
  0
DICTIONARY
  0
ENDSEC
  0
EOF
