  0
SECTION
  2
HEADER
  9
$ACADVER
  1
AC1014
  9
$HANDSEED
  5
FFFF
  9
$MEASUREMENT
 70
     1
  0
ENDSEC
  0
SECTION
  2
TABLES
  0
TABLE
  2
VPORT
  5
8
330
0
100
AcDbSymbolTable
 70
     4
  0
VPORT
  5
2E
330
8
100
AcDbSymbolTableRecord
100
AcDbViewportTableRecord
  2
*ACTIVE
 70
     0
 10
0.0
 20
0.0
 11
1.0
 21
1.0
 12
210.0
 22
148.5
 13
0.0
 23
0.0
 14
10.0
 24
10.0
 15
10.0
 25
10.0
 16
0.0
 26
0.0
 36
1.0
 17
0.0
 27
0.0
 37
0.0
 40
341.0
 41
1.24
 42
50.0
 43
0.0
 44
0.0
 50
0.0
 51
0.0
 71
     0
 72
   100
 73
     1
 74
     3
 75
     0
 76
     0
 77
     0
 78
     0
  0
ENDTAB
  0
TABLE
  2
LTYPE
  5
5
330
0
100
AcDbSymbolTable
 70
     1
  0
LTYPE
  5
14
330
5
100
AcDbSymbolTableRecord
100
AcDbLinetypeTableRecord
  2
BYBLOCK
 70
     0
  3

 72
    65
 73
     0
 40
0.0
  0
LTYPE
  5
15
330
5
100
AcDbSymbolTableRecord
100
AcDbLinetypeTableRecord
  2
BYLAYER
 70
     0
  3

 72
    65
 73
     0
 40
0.0
  0
LTYPE
  5
16
330
5
100
AcDbSymbolTableRecord
100
AcDbLinetypeTableRecord
  2
CONTINUOUS
 70
     0
  3
Solid line
 72
    65
 73
     0
 40
0.0
  0
ENDTAB
  0
TABLE
  2
LAYER
  5
2
100
AcDbSymbolTable
 70
2
  0
LAYER
  5
50
100
AcDbSymbolTableRecord
100
AcDbLayerTableRecord
  2
0
 70
0
  6
CONTINUOUS
  0
LAYER
  5
51
100
AcDbSymbolTableRecord
100
AcDbLayerTableRecord
  2
Layer_1
 70
0
  6
CONTINUOUS
  0
ENDTAB
  0
TABLE
  2
STYLE
  5
3
330
0
100
AcDbSymbolTable
 70
     1
  0
STYLE
  5
11
330
3
100
AcDbSymbolTableRecord
100
AcDbTextStyleTableRecord
  2
STANDARD
 70
     0
 40
0.0
 41
1.0
 50
0.0
 71
     0
 42
2.5
  3
txt
  4

  0
ENDTAB
  0
TABLE
  2
VIEW
  5
6
330
0
100
AcDbSymbolTable
 70
     0
  0
ENDTAB
  0
TABLE
  2
UCS
  5
7
330
0
100
AcDbSymbolTable
 70
     0
  0
ENDTAB
  0
TABLE
  2
APPID
  5
9
330
0
100
AcDbSymbolTable
 70
     2
  0
APPID
  5
12
330
9
100
AcDbSymbolTableRecord
100
AcDbRegAppTableRecord
  2
ACAD
 70
     0
  0
ENDTAB
  0
TABLE
  2
DIMSTYLE
  5
A
330
0
100
AcDbSymbolTable
 70
     1
  0
DIMSTYLE
105
27
330
A
100
AcDbSymbolTableRecord
100
AcDbDimStyleTableRecord
  2
ISO-25
 70
     0
  3

  4

  5

  6

  7

 40
1.0
 41
2.5
 42
0.625
 43
3.75
 44
1.25
 45
0.0
 46
0.0
 47
0.0
 48
0.0
140
2.5
141
2.5
142
0.0
143
0.03937007874016
144
1.0
145
0.0
146
1.0
147
0.625
 71
     0
 72
     0
 73
     0
 74
     0
 75
     0
 76
     0
 77
     1
 78
     8
170
     0
171
     3
172
     1
173
     0
174
     0
175
     0
176
     0
177
     0
178
     0
270
     2
271
     2
272
     2
273
     2
274
     3
340
11
275
     0
280
     0
281
     0
282
     0
283
     0
284
     8
285
     0
286
     0
287
     3
288
     0
  0
ENDTAB
  0
TABLE
  2
BLOCK_RECORD
  5
1
330
0
100
AcDbSymbolTable
 70
     1
  0
BLOCK_RECORD
  5
1F
330
1
100
AcDbSymbolTableRecord
100
AcDbBlockTableRecord
  2
*MODEL_SPACE
  0
BLOCK_RECORD
  5
1B
330
1
100
AcDbSymbolTableRecord
100
AcDbBlockTableRecord
  2
*PAPER_SPACE
  0
ENDTAB
  0
ENDSEC
  0
SECTION
  2
BLOCKS
  0
BLOCK
  5
20
330
1F
100
AcDbEntity
  8
0
100
AcDbBlockBegin
  2
*MODEL_SPACE
 70
     0
 10
0.0
 20
0.0
 30
0.0
  3
*MODEL_SPACE
  1

  0
ENDBLK
  5
21
330
1F
100
AcDbEntity
  8
0
100
AcDbBlockEnd
  0
BLOCK
  5
1C
330
1B
100
AcDbEntity
 67
     1
  8
0
100
AcDbBlockBegin
  2
*PAPER_SPACE
  1

  0
ENDBLK
  5
1D
330
1B
100
AcDbEntity
 67
     1
  8
0
100
AcDbBlockEnd
  0
ENDSEC
  0
SECTION
  2
ENTITIES
  0
SPLINE
  5
100
100
AcDbEntity
  8
Layer_1
 62
7
100
AcDbSpline
 70
8
 71
3
 72
8
 73
4
 74
0
 40
0
 40
0
 40
0
 40
0
 40
1
 40
1
 40
1
 40
1
 10
11.388113
 20
40.099127
 30
0.0
 10
45.223445
 20
40.099127
 30
0.0
 10
79.058778
 20
40.099127
 30
0.0
 10
112.894110
 20
40.099127
 30
0.0
  0
LWPOLYLINE
  5
101
100
AcDbEntity
  8
Layer_1
 62
7
100
AcDbPolyline
 90
13
 70
0
 10
0.141111
 20
28.123140
 30
0.0
 10
0.236113
 20
29.627131
 30
0.0
 10
0.518112
 20
31.107132
 30
0.0
 10
0.984112
 20
32.540115
 30
0.0
 10
1.625112
 20
33.904124
 30
0.0
 10
2.433111
 20
35.176127
 30
0.0
 10
3.393113
 20
36.338127
 30
0.0
 10
4.492111
 20
37.369127
 30
0.0
 10
5.711111
 20
38.255127
 30
0.0
 10
7.032111
 20
38.981126
 30
0.0
 10
8.433110
 20
39.536128
 30
0.0
 10
9.892112
 20
39.910126
 30
0.0
 10
11.388113
 20
40.099127
 30
0.0
  0
LWPOLYLINE
  5
102
100
AcDbEntity
  8
Layer_1
 62
7
100
AcDbPolyline
 90
40
 70
0
 10
112.894110
 20
40.099127
 30
0.0
 10
114.390111
 20
39.910126
 30
0.0
 10
115.849112
 20
39.536128
 30
0.0
 10
117.250111
 20
38.981126
 30
0.0
 10
118.571112
 20
38.255127
 30
0.0
 10
119.790111
 20
37.369127
 30
0.0
 10
120.889110
 20
36.338127
 30
0.0
 10
121.849111
 20
35.176127
 30
0.0
 10
122.657111
 20
33.904124
 30
0.0
 10
123.298111
 20
32.540115
 30
0.0
 10
123.764111
 20
31.107132
 30
0.0
 10
124.046110
 20
29.627131
 30
0.0
 10
124.141111
 20
28.123140
 30
0.0
 10
124.046110
 20
26.619121
 30
0.0
 10
123.764111
 20
25.139120
 30
0.0
 10
123.298111
 20
23.706137
 30
0.0
 10
122.657111
 20
22.342128
 30
0.0
 10
121.849111
 20
21.070125
 30
0.0
 10
120.889110
 20
19.908131
 30
0.0
 10
119.790111
 20
18.877117
 30
0.0
 10
118.571112
 20
17.991137
 30
0.0
 10
117.250111
 20
17.265120
 30
0.0
 10
85.973111
 20
0.980136
 30
0.0
 10
84.922111
 20
0.563124
 30
0.0
 10
83.827111
 20
0.282115
 30
0.0
 10
82.706111
 20
0.141117
 30
0.0
 10
41.576111
 20
0.141117
 30
0.0
 10
40.455111
 20
0.282115
 30
0.0
 10
39.360111
 20
0.563124
 30
0.0
 10
38.309111
 20
0.980136
 30
0.0
 10
7.032111
 20
17.265120
 30
0.0
 10
5.711111
 20
17.991137
 30
0.0
 10
4.492111
 20
18.877117
 30
0.0
 10
3.393113
 20
19.908131
 30
0.0
 10
2.433111
 20
21.070125
 30
0.0
 10
1.625112
 20
22.342128
 30
0.0
 10
0.984112
 20
23.706137
 30
0.0
 10
0.518112
 20
25.139120
 30
0.0
 10
0.236113
 20
26.619121
 30
0.0
 10
0.141111
 20
28.123140
 30
0.0
  0
LWPOLYLINE
  5
103
100
AcDbEntity
  8
Layer_1
 62
7
100
AcDbPolyline
 90
51
 70
0
 10
4.641111
 20
22.123124
 30
0.0
 10
4.653105
 20
22.311140
 30
0.0
 10
4.688112
 20
22.496137
 30
0.0
 10
4.746111
 20
22.675122
 30
0.0
 10
4.827112
 20
22.846121
 30
0.0
 10
4.927112
 20
23.005125
 30
0.0
 10
5.048112
 20
23.150131
 30
0.0
 10
5.185111
 20
23.279134
 30
0.0
 10
5.337110
 20
23.389116
 30
0.0
 10
5.502111
 20
23.480133
 30
0.0
 10
5.677112
 20
23.550124
 30
0.0
 10
5.860110
 20
23.596126
 30
0.0
 10
6.047111
 20
23.620115
 30
0.0
 10
6.235110
 20
23.620115
 30
0.0
 10
6.422111
 20
23.596126
 30
0.0
 10
6.605112
 20
23.550124
 30
0.0
 10
6.780112
 20
23.480133
 30
0.0
 10
6.945111
 20
23.389116
 30
0.0
 10
7.097113
 20
23.279134
 30
0.0
 10
7.234112
 20
23.150131
 30
0.0
 10
7.355112
 20
23.005125
 30
0.0
 10
7.455112
 20
22.846121
 30
0.0
 10
7.536112
 20
22.675122
 30
0.0
 10
7.594112
 20
22.496137
 30
0.0
 10
7.629110
 20
22.311140
 30
0.0
 10
7.641105
 20
22.123124
 30
0.0
 10
7.629116
 20
21.935136
 30
0.0
 10
7.594112
 20
21.750139
 30
0.0
 10
7.536112
 20
21.571125
 30
0.0
 10
7.455112
 20
21.400127
 30
0.0
 10
7.355112
 20
21.241123
 30
0.0
 10
7.234112
 20
21.096117
 30
0.0
 10
7.097113
 20
20.967113
 30
0.0
 10
6.945111
 20
20.857131
 30
0.0
 10
6.780112
 20
20.766115
 30
0.0
 10
6.605112
 20
20.696124
 30
0.0
 10
6.422111
 20
20.650121
 30
0.0
 10
6.235110
 20
20.626133
 30
0.0
 10
6.047111
 20
20.626133
 30
0.0
 10
5.860110
 20
20.650121
 30
0.0
 10
5.677112
 20
20.696124
 30
0.0
 10
5.502111
 20
20.766115
 30
0.0
 10
5.337110
 20
20.857131
 30
0.0
 10
5.185111
 20
20.967113
 30
0.0
 10
5.048112
 20
21.096117
 30
0.0
 10
4.927112
 20
21.241123
 30
0.0
 10
4.827112
 20
21.400127
 30
0.0
 10
4.746111
 20
21.571125
 30
0.0
 10
4.688112
 20
21.750139
 30
0.0
 10
4.653111
 20
21.935136
 30
0.0
 10
4.641116
 20
22.123124
 30
0.0
  0
LWPOLYLINE
  5
104
100
AcDbEntity
  8
Layer_1
 62
7
100
AcDbPolyline
 90
39
 70
0
 10
4.644111
 20
34.029120
 30
0.0
 10
4.644111
 20
34.217136
 30
0.0
 10
4.668099
 20
34.404137
 30
0.0
 10
4.714110
 20
34.587130
 30
0.0
 10
4.784113
 20
34.762136
 30
0.0
 10
4.875112
 20
34.927126
 30
0.0
 10
4.985111
 20
35.079128
 30
0.0
 10
5.114112
 20
35.216127
 30
0.0
 10
5.259112
 20
35.337127
 30
0.0
 10
5.418111
 20
35.437127
 30
0.0
 10
5.589112
 20
35.518127
 30
0.0
 10
5.768111
 20
35.576127
 30
0.0
 10
5.953111
 20
35.611125
 30
0.0
 10
6.141110
 20
35.623119
 30
0.0
 10
6.329113
 20
35.611131
 30
0.0
 10
6.514112
 20
35.576127
 30
0.0
 10
6.693112
 20
35.518127
 30
0.0
 10
6.864110
 20
35.437127
 30
0.0
 10
7.023111
 20
35.337127
 30
0.0
 10
7.168111
 20
35.216127
 30
0.0
 10
7.297112
 20
35.079128
 30
0.0
 10
7.407111
 20
34.927126
 30
0.0
 10
7.498111
 20
34.762136
 30
0.0
 10
7.568111
 20
34.587130
 30
0.0
 10
7.614110
 20
34.404137
 30
0.0
 10
7.638099
 20
34.217136
 30
0.0
 10
7.638110
 20
34.029120
 30
0.0
 10
7.614121
 20
33.842119
 30
0.0
 10
7.568111
 20
33.659127
 30
0.0
 10
7.498111
 20
33.484121
 30
0.0
 10
7.407111
 20
33.319133
 30
0.0
 10
7.297112
 20
33.167129
 30
0.0
 10
7.168111
 20
33.030138
 30
0.0
 10
7.023111
 20
32.909121
 30
0.0
 10
6.864110
 20
32.809130
 30
0.0
 10
6.693112
 20
32.728132
 30
0.0
 10
6.514112
 20
32.670135
 30
0.0
 10
6.329113
 20
32.635140
 30
0.0
 10
6.141110
 20
32.623004
 30
0.0
  0
LWPOLYLINE
  5
105
100
AcDbEntity
  8
Layer_1
 62
7
100
AcDbPolyline
 90
2
 70
0
 10
6.141110
 20
32.623117
 30
0.0
 10
5.953111
 20
32.635253
 30
0.0
  0
LWPOLYLINE
  5
106
100
AcDbEntity
  8
Layer_1
 62
7
100
AcDbPolyline
 90
12
 70
0
 10
5.953111
 20
32.635140
 30
0.0
 10
5.768111
 20
32.670135
 30
0.0
 10
5.589112
 20
32.728132
 30
0.0
 10
5.418111
 20
32.809130
 30
0.0
 10
5.259112
 20
32.909121
 30
0.0
 10
5.114112
 20
33.030138
 30
0.0
 10
4.985111
 20
33.167129
 30
0.0
 10
4.875112
 20
33.319133
 30
0.0
 10
4.784113
 20
33.484121
 30
0.0
 10
4.714110
 20
33.659127
 30
0.0
 10
4.668111
 20
33.842119
 30
0.0
 10
4.644122
 20
34.029120
 30
0.0
  0
LWPOLYLINE
  5
107
100
AcDbEntity
  8
Layer_1
 62
7
100
AcDbPolyline
 90
51
 70
0
 10
8.141112
 20
28.123140
 30
0.0
 10
8.173110
 20
28.624113
 30
0.0
 10
8.267110
 20
29.118115
 30
0.0
 10
8.422112
 20
29.595127
 30
0.0
 10
8.636110
 20
30.050125
 30
0.0
 10
8.905110
 20
30.474136
 30
0.0
 10
9.225111
 20
30.861119
 30
0.0
 10
9.591111
 20
31.205120
 30
0.0
 10
9.998112
 20
31.500127
 30
0.0
 10
10.438110
 20
31.742132
 30
0.0
 10
10.905112
 20
31.927129
 30
0.0
 10
11.391113
 20
32.052125
 30
0.0
 10
11.890113
 20
32.115117
 30
0.0
 10
12.392112
 20
32.115117
 30
0.0
 10
12.891112
 20
32.052125
 30
0.0
 10
13.377110
 20
31.927129
 30
0.0
 10
13.844112
 20
31.742132
 30
0.0
 10
14.284111
 20
31.500127
 30
0.0
 10
14.691112
 20
31.205120
 30
0.0
 10
15.057112
 20
30.861119
 30
0.0
 10
15.377112
 20
30.474136
 30
0.0
 10
15.646112
 20
30.050125
 30
0.0
 10
15.860113
 20
29.595127
 30
0.0
 10
16.015112
 20
29.118115
 30
0.0
 10
16.109112
 20
28.624113
 30
0.0
 10
16.141110
 20
28.123140
 30
0.0
 10
16.109112
 20
27.622139
 30
0.0
 10
16.015112
 20
27.128137
 30
0.0
 10
15.860113
 20
26.651125
 30
0.0
 10
15.646112
 20
26.196127
 30
0.0
 10
15.377112
 20
25.772116
 30
0.0
 10
15.057112
 20
25.385133
 30
0.0
 10
14.691112
 20
25.041132
 30
0.0
 10
14.284111
 20
24.746125
 30
0.0
 10
13.844112
 20
24.504120
 30
0.0
 10
13.377110
 20
24.319123
 30
0.0
 10
12.891112
 20
24.194127
 30
0.0
 10
12.392112
 20
24.131135
 30
0.0
 10
11.890113
 20
24.131135
 30
0.0
 10
11.391113
 20
24.194127
 30
0.0
 10
10.905112
 20
24.319123
 30
0.0
 10
10.438110
 20
24.504120
 30
0.0
 10
9.998112
 20
24.746125
 30
0.0
 10
9.591111
 20
25.041132
 30
0.0
 10
9.225111
 20
25.385133
 30
0.0
 10
8.905110
 20
25.772116
 30
0.0
 10
8.636110
 20
26.196127
 30
0.0
 10
8.422112
 20
26.651125
 30
0.0
 10
8.267110
 20
27.128137
 30
0.0
 10
8.173110
 20
27.622139
 30
0.0
 10
8.141112
 20
28.123140
 30
0.0
  0
LWPOLYLINE
  5
108
100
AcDbEntity
  8
Layer_1
 62
7
100
AcDbPolyline
 90
51
 70
0
 10
16.641112
 20
34.123128
 30
0.0
 10
16.653106
 20
34.311116
 30
0.0
 10
16.688110
 20
34.496113
 30
0.0
 10
16.746113
 20
34.675127
 30
0.0
 10
16.827111
 20
34.846125
 30
0.0
 10
16.927110
 20
35.005126
 30
0.0
 10
17.048110
 20
35.150126
 30
0.0
 10
17.185112
 20
35.279127
 30
0.0
 10
17.337111
 20
35.389126
 30
0.0
 10
17.502113
 20
35.480126
 30
0.0
 10
17.677110
 20
35.550126
 30
0.0
 10
17.860112
 20
35.596128
 30
0.0
 10
18.047112
 20
35.620117
 30
0.0
 10
18.235112
 20
35.620125
 30
0.0
 10
18.422112
 20
35.596136
 30
0.0
 10
18.605111
 20
35.550126
 30
0.0
 10
18.780111
 20
35.480126
 30
0.0
 10
18.945112
 20
35.389126
 30
0.0
 10
19.097111
 20
35.279127
 30
0.0
 10
19.234110
 20
35.150126
 30
0.0
 10
19.355110
 20
35.005126
 30
0.0
 10
19.455110
 20
34.846125
 30
0.0
 10
19.536111
 20
34.675127
 30
0.0
 10
19.594110
 20
34.496113
 30
0.0
 10
19.629112
 20
34.311116
 30
0.0
 10
19.641106
 20
34.123128
 30
0.0
 10
19.629117
 20
33.935140
 30
0.0
 10
19.594110
 20
33.750115
 30
0.0
 10
19.536111
 20
33.571130
 30
0.0
 10
19.455110
 20
33.400131
 30
0.0
 10
19.355110
 20
33.241127
 30
0.0
 10
19.234110
 20
33.096121
 30
0.0
 10
19.097111
 20
32.967118
 30
0.0
 10
18.945112
 20
32.857136
 30
0.0
 10
18.780111
 20
32.766119
 30
0.0
 10
18.605111
 20
32.696128
 30
0.0
 10
18.422112
 20
32.650126
 30
0.0
 10
18.235112
 20
32.626137
 30
0.0
 10
18.047112
 20
32.626137
 30
0.0
 10
17.860112
 20
32.650126
 30
0.0
 10
17.677110
 20
32.696128
 30
0.0
 10
17.502113
 20
32.766119
 30
0.0
 10
17.337111
 20
32.857136
 30
0.0
 10
17.185112
 20
32.967118
 30
0.0
 10
17.048110
 20
33.096121
 30
0.0
 10
16.927110
 20
33.241127
 30
0.0
 10
16.827111
 20
33.400131
 30
0.0
 10
16.746113
 20
33.571130
 30
0.0
 10
16.688110
 20
33.750115
 30
0.0
 10
16.653112
 20
33.935140
 30
0.0
 10
16.641118
 20
34.123128
 30
0.0
  0
LWPOLYLINE
  5
109
100
AcDbEntity
  8
Layer_1
 62
7
100
AcDbPolyline
 90
14
 70
0
 10
16.644112
 20
22.029116
 30
0.0
 10
16.644112
 20
22.217132
 30
0.0
 10
16.668101
 20
22.404133
 30
0.0
 10
16.714112
 20
22.587125
 30
0.0
 10
16.784111
 20
22.762131
 30
0.0
 10
16.875111
 20
22.927119
 30
0.0
 10
16.985113
 20
23.079123
 30
0.0
 10
17.114111
 20
23.216114
 30
0.0
 10
17.259111
 20
23.337131
 30
0.0
 10
17.418112
 20
23.437122
 30
0.0
 10
17.589111
 20
23.518120
 30
0.0
 10
17.768110
 20
23.576117
 30
0.0
 10
17.953112
 20
23.611112
 30
0.0
 10
18.141112
 20
23.623248
 30
0.0
  0
LWPOLYLINE
  5
10a
100
AcDbEntity
  8
Layer_1
 62
7
100
AcDbPolyline
 90
2
 70
0
 10
18.141112
 20
23.623135
 30
0.0
 10
18.329111
 20
23.610999
 30
0.0
  0
LWPOLYLINE
  5
10b
100
AcDbEntity
  8
Layer_1
 62
7
100
AcDbPolyline
 90
25
 70
0
 10
18.329111
 20
23.611112
 30
0.0
 10
18.514111
 20
23.576117
 30
0.0
 10
18.693110
 20
23.518120
 30
0.0
 10
18.864112
 20
23.437122
 30
0.0
 10
19.023113
 20
23.337131
 30
0.0
 10
19.168113
 20
23.216114
 30
0.0
 10
19.297111
 20
23.079123
 30
0.0
 10
19.407113
 20
22.927119
 30
0.0
 10
19.498112
 20
22.762131
 30
0.0
 10
19.568112
 20
22.587125
 30
0.0
 10
19.614111
 20
22.404133
 30
0.0
 10
19.638100
 20
22.217132
 30
0.0
 10
19.638112
 20
22.029116
 30
0.0
 10
19.614123
 20
21.842115
 30
0.0
 10
19.568112
 20
21.659122
 30
0.0
 10
19.498112
 20
21.484116
 30
0.0
 10
19.407113
 20
21.319129
 30
0.0
 10
19.297111
 20
21.167124
 30
0.0
 10
19.168113
 20
21.030134
 30
0.0
 10
19.023113
 20
20.909117
 30
0.0
 10
18.864112
 20
20.809125
 30
0.0
 10
18.693110
 20
20.728128
 30
0.0
 10
18.514111
 20
20.670131
 30
0.0
 10
18.329111
 20
20.635135
 30
0.0
 10
18.141112
 20
20.623000
 30
0.0
  0
LWPOLYLINE
  5
10c
100
AcDbEntity
  8
Layer_1
 62
7
100
AcDbPolyline
 90
2
 70
0
 10
18.141112
 20
20.623113
 30
0.0
 10
17.953112
 20
20.635248
 30
0.0
  0
LWPOLYLINE
  5
10d
100
AcDbEntity
  8
Layer_1
 62
7
100
AcDbPolyline
 90
12
 70
0
 10
17.953112
 20
20.635135
 30
0.0
 10
17.768110
 20
20.670131
 30
0.0
 10
17.589111
 20
20.728128
 30
0.0
 10
17.418112
 20
20.809125
 30
0.0
 10
17.259111
 20
20.909117
 30
0.0
 10
17.114111
 20
21.030134
 30
0.0
 10
16.985113
 20
21.167124
 30
0.0
 10
16.875111
 20
21.319129
 30
0.0
 10
16.784111
 20
21.484116
 30
0.0
 10
16.714112
 20
21.659122
 30
0.0
 10
16.668112
 20
21.842115
 30
0.0
 10
16.644123
 20
22.029116
 30
0.0
  0
LWPOLYLINE
  5
10e
100
AcDbEntity
  8
Layer_1
 62
7
100
AcDbPolyline
 90
51
 70
0
 10
49.641111
 20
10.123120
 30
0.0
 10
49.661112
 20
10.436132
 30
0.0
 10
49.720111
 20
10.745137
 30
0.0
 10
49.817111
 20
11.043136
 30
0.0
 10
49.950111
 20
11.327136
 30
0.0
 10
50.118111
 20
11.592115
 30
0.0
 10
50.319111
 20
11.834120
 30
0.0
 10
50.547111
 20
12.049117
 30
0.0
 10
50.801111
 20
12.234114
 30
0.0
 10
51.077111
 20
12.385131
 30
0.0
 10
51.368111
 20
12.501124
 30
0.0
 10
51.673111
 20
12.579130
 30
0.0
 10
51.984111
 20
12.618133
 30
0.0
 10
52.298111
 20
12.618133
 30
0.0
 10
52.609111
 20
12.579130
 30
0.0
 10
52.914111
 20
12.501124
 30
0.0
 10
53.205111
 20
12.385131
 30
0.0
 10
53.481111
 20
12.234114
 30
0.0
 10
53.735111
 20
12.049117
 30
0.0
 10
53.963111
 20
11.834120
 30
0.0
 10
54.164111
 20
11.592115
 30
0.0
 10
54.332111
 20
11.327136
 30
0.0
 10
54.465111
 20
11.043136
 30
0.0
 10
54.562111
 20
10.745137
 30
0.0
 10
54.621111
 20
10.436132
 30
0.0
 10
54.641112
 20
10.123120
 30
0.0
 10
54.621110
 20
9.810135
 30
0.0
 10
54.562111
 20
9.501130
 30
0.0
 10
54.465111
 20
9.203132
 30
0.0
 10
54.332111
 20
8.919131
 30
0.0
 10
54.164111
 20
8.654125
 30
0.0
 10
53.963111
 20
8.412119
 30
0.0
 10
53.735111
 20
8.197122
 30
0.0
 10
53.481111
 20
8.012126
 30
0.0
 10
53.205111
 20
7.861137
 30
0.0
 10
52.914111
 20
7.745115
 30
0.0
 10
52.609111
 20
7.667137
 30
0.0
 10
52.298111
 20
7.628134
 30
0.0
 10
51.984111
 20
7.628134
 30
0.0
 10
51.673111
 20
7.667137
 30
0.0
 10
51.368111
 20
7.745115
 30
0.0
 10
51.077111
 20
7.861137
 30
0.0
 10
50.801111
 20
8.012126
 30
0.0
 10
50.547111
 20
8.197122
 30
0.0
 10
50.319111
 20
8.412119
 30
0.0
 10
50.118111
 20
8.654125
 30
0.0
 10
49.950111
 20
8.919131
 30
0.0
 10
49.817111
 20
9.203132
 30
0.0
 10
49.720111
 20
9.501130
 30
0.0
 10
49.661111
 20
9.810135
 30
0.0
 10
49.641110
 20
10.123120
 30
0.0
  0
LWPOLYLINE
  5
10f
100
AcDbEntity
  8
Layer_1
 62
7
100
AcDbPolyline
 90
51
 70
0
 10
69.641111
 20
10.123120
 30
0.0
 10
69.661112
 20
10.436132
 30
0.0
 10
69.720111
 20
10.745137
 30
0.0
 10
69.817111
 20
11.043136
 30
0.0
 10
69.950111
 20
11.327136
 30
0.0
 10
70.118111
 20
11.592115
 30
0.0
 10
70.319111
 20
11.834120
 30
0.0
 10
70.547111
 20
12.049117
 30
0.0
 10
70.801111
 20
12.234114
 30
0.0
 10
71.077111
 20
12.385131
 30
0.0
 10
71.368111
 20
12.501124
 30
0.0
 10
71.673111
 20
12.579130
 30
0.0
 10
71.984111
 20
12.618133
 30
0.0
 10
72.298111
 20
12.618133
 30
0.0
 10
72.609111
 20
12.579130
 30
0.0
 10
72.914111
 20
12.501124
 30
0.0
 10
73.205111
 20
12.385131
 30
0.0
 10
73.481111
 20
12.234114
 30
0.0
 10
73.735111
 20
12.049117
 30
0.0
 10
73.963111
 20
11.834120
 30
0.0
 10
74.164111
 20
11.592115
 30
0.0
 10
74.332111
 20
11.327136
 30
0.0
 10
74.465111
 20
11.043136
 30
0.0
 10
74.562111
 20
10.745137
 30
0.0
 10
74.621111
 20
10.436132
 30
0.0
 10
74.641112
 20
10.123120
 30
0.0
 10
74.621110
 20
9.810135
 30
0.0
 10
74.562111
 20
9.501130
 30
0.0
 10
74.465111
 20
9.203132
 30
0.0
 10
74.332111
 20
8.919131
 30
0.0
 10
74.164111
 20
8.654125
 30
0.0
 10
73.963111
 20
8.412119
 30
0.0
 10
73.735111
 20
8.197122
 30
0.0
 10
73.481111
 20
8.012126
 30
0.0
 10
73.205111
 20
7.861137
 30
0.0
 10
72.914111
 20
7.745115
 30
0.0
 10
72.609111
 20
7.667137
 30
0.0
 10
72.298111
 20
7.628134
 30
0.0
 10
71.984111
 20
7.628134
 30
0.0
 10
71.673111
 20
7.667137
 30
0.0
 10
71.368111
 20
7.745115
 30
0.0
 10
71.077111
 20
7.861137
 30
0.0
 10
70.801111
 20
8.012126
 30
0.0
 10
70.547111
 20
8.197122
 30
0.0
 10
70.319111
 20
8.412119
 30
0.0
 10
70.118111
 20
8.654125
 30
0.0
 10
69.950111
 20
8.919131
 30
0.0
 10
69.817111
 20
9.203132
 30
0.0
 10
69.720111
 20
9.501130
 30
0.0
 10
69.661111
 20
9.810135
 30
0.0
 10
69.641110
 20
10.123120
 30
0.0
  0
LWPOLYLINE
  5
110
100
AcDbEntity
  8
Layer_1
 62
7
100
AcDbPolyline
 90
51
 70
0
 10
104.641111
 20
22.123124
 30
0.0
 10
104.653105
 20
22.311140
 30
0.0
 10
104.688112
 20
22.496137
 30
0.0
 10
104.746112
 20
22.675122
 30
0.0
 10
104.827112
 20
22.846121
 30
0.0
 10
104.927112
 20
23.005125
 30
0.0
 10
105.048112
 20
23.150131
 30
0.0
 10
105.185111
 20
23.279134
 30
0.0
 10
105.337110
 20
23.389116
 30
0.0
 10
105.502112
 20
23.480133
 30
0.0
 10
105.677112
 20
23.550124
 30
0.0
 10
105.860111
 20
23.596126
 30
0.0
 10
106.047111
 20
23.620115
 30
0.0
 10
106.235111
 20
23.620115
 30
0.0
 10
106.422111
 20
23.596126
 30
0.0
 10
106.605112
 20
23.550124
 30
0.0
 10
106.780110
 20
23.480133
 30
0.0
 10
106.945111
 20
23.389116
 30
0.0
 10
107.097110
 20
23.279134
 30
0.0
 10
107.234112
 20
23.150131
 30
0.0
 10
107.355112
 20
23.005125
 30
0.0
 10
107.455112
 20
22.846121
 30
0.0
 10
107.536110
 20
22.675122
 30
0.0
 10
107.594112
 20
22.496137
 30
0.0
 10
107.629111
 20
22.311140
 30
0.0
 10
107.641105
 20
22.123124
 30
0.0
 10
107.629116
 20
21.935136
 30
0.0
 10
107.594112
 20
21.750139
 30
0.0
 10
107.536110
 20
21.571125
 30
0.0
 10
107.455112
 20
21.400127
 30
0.0
 10
107.355112
 20
21.241123
 30
0.0
 10
107.234112
 20
21.096117
 30
0.0
 10
107.097110
 20
20.967113
 30
0.0
 10
106.945111
 20
20.857131
 30
0.0
 10
106.780110
 20
20.766115
 30
0.0
 10
106.605112
 20
20.696124
 30
0.0
 10
106.422111
 20
20.650121
 30
0.0
 10
106.235111
 20
20.626133
 30
0.0
 10
106.047111
 20
20.626133
 30
0.0
 10
105.860111
 20
20.650121
 30
0.0
 10
105.677112
 20
20.696124
 30
0.0
 10
105.502112
 20
20.766115
 30
0.0
 10
105.337110
 20
20.857131
 30
0.0
 10
105.185111
 20
20.967113
 30
0.0
 10
105.048112
 20
21.096117
 30
0.0
 10
104.927112
 20
21.241123
 30
0.0
 10
104.827112
 20
21.400127
 30
0.0
 10
104.746112
 20
21.571125
 30
0.0
 10
104.688112
 20
21.750139
 30
0.0
 10
104.653111
 20
21.935136
 30
0.0
 10
104.641117
 20
22.123124
 30
0.0
  0
LWPOLYLINE
  5
111
100
AcDbEntity
  8
Layer_1
 62
7
100
AcDbPolyline
 90
39
 70
0
 10
104.644111
 20
34.029120
 30
0.0
 10
104.644111
 20
34.217136
 30
0.0
 10
104.668100
 20
34.404137
 30
0.0
 10
104.714111
 20
34.587130
 30
0.0
 10
104.784110
 20
34.762136
 30
0.0
 10
104.875110
 20
34.927126
 30
0.0
 10
104.985112
 20
35.079128
 30
0.0
 10
105.114110
 20
35.216127
 30
0.0
 10
105.259110
 20
35.337127
 30
0.0
 10
105.418111
 20
35.437127
 30
0.0
 10
105.589112
 20
35.518127
 30
0.0
 10
105.768112
 20
35.576127
 30
0.0
 10
105.953111
 20
35.611125
 30
0.0
 10
106.141111
 20
35.623119
 30
0.0
 10
106.329110
 20
35.611131
 30
0.0
 10
106.514113
 20
35.576127
 30
0.0
 10
106.693112
 20
35.518127
 30
0.0
 10
106.864110
 20
35.437127
 30
0.0
 10
107.023112
 20
35.337127
 30
0.0
 10
107.168112
 20
35.216127
 30
0.0
 10
107.297110
 20
35.079128
 30
0.0
 10
107.407112
 20
34.927126
 30
0.0
 10
107.498111
 20
34.762136
 30
0.0
 10
107.568111
 20
34.587130
 30
0.0
 10
107.614110
 20
34.404137
 30
0.0
 10
107.638099
 20
34.217136
 30
0.0
 10
107.638111
 20
34.029120
 30
0.0
 10
107.614122
 20
33.842119
 30
0.0
 10
107.568111
 20
33.659127
 30
0.0
 10
107.498111
 20
33.484121
 30
0.0
 10
107.407112
 20
33.319133
 30
0.0
 10
107.297110
 20
33.167129
 30
0.0
 10
107.168112
 20
33.030138
 30
0.0
 10
107.023112
 20
32.909121
 30
0.0
 10
106.864110
 20
32.809130
 30
0.0
 10
106.693112
 20
32.728132
 30
0.0
 10
106.514113
 20
32.670135
 30
0.0
 10
106.329110
 20
32.635140
 30
0.0
 10
106.141111
 20
32.623004
 30
0.0
  0
LWPOLYLINE
  5
112
100
AcDbEntity
  8
Layer_1
 62
7
100
AcDbPolyline
 90
2
 70
0
 10
106.141111
 20
32.623117
 30
0.0
 10
105.953111
 20
32.635253
 30
0.0
  0
LWPOLYLINE
  5
113
100
AcDbEntity
  8
Layer_1
 62
7
100
AcDbPolyline
 90
12
 70
0
 10
105.953111
 20
32.635140
 30
0.0
 10
105.768112
 20
32.670135
 30
0.0
 10
105.589112
 20
32.728132
 30
0.0
 10
105.418111
 20
32.809130
 30
0.0
 10
105.259110
 20
32.909121
 30
0.0
 10
105.114110
 20
33.030138
 30
0.0
 10
104.985112
 20
33.167129
 30
0.0
 10
104.875110
 20
33.319133
 30
0.0
 10
104.784110
 20
33.484121
 30
0.0
 10
104.714111
 20
33.659127
 30
0.0
 10
104.668111
 20
33.842119
 30
0.0
 10
104.644122
 20
34.029120
 30
0.0
  0
LWPOLYLINE
  5
114
100
AcDbEntity
  8
Layer_1
 62
7
100
AcDbPolyline
 90
51
 70
0
 10
108.141112
 20
28.123140
 30
0.0
 10
108.173111
 20
28.624113
 30
0.0
 10
108.267111
 20
29.118115
 30
0.0
 10
108.422110
 20
29.595127
 30
0.0
 10
108.636110
 20
30.050125
 30
0.0
 10
108.905111
 20
30.474136
 30
0.0
 10
109.225111
 20
30.861119
 30
0.0
 10
109.591111
 20
31.205120
 30
0.0
 10
109.998112
 20
31.500127
 30
0.0
 10
110.438111
 20
31.742132
 30
0.0
 10
110.905112
 20
31.927129
 30
0.0
 10
111.391110
 20
32.052125
 30
0.0
 10
111.890110
 20
32.115117
 30
0.0
 10
112.392110
 20
32.115117
 30
0.0
 10
112.891110
 20
32.052125
 30
0.0
 10
113.377111
 20
31.927129
 30
0.0
 10
113.844112
 20
31.742132
 30
0.0
 10
114.284111
 20
31.500127
 30
0.0
 10
114.691112
 20
31.205120
 30
0.0
 10
115.057112
 20
30.861119
 30
0.0
 10
115.377112
 20
30.474136
 30
0.0
 10
115.646113
 20
30.050125
 30
0.0
 10
115.860110
 20
29.595127
 30
0.0
 10
116.015112
 20
29.118115
 30
0.0
 10
116.109112
 20
28.624113
 30
0.0
 10
116.141111
 20
28.123140
 30
0.0
 10
116.109112
 20
27.622139
 30
0.0
 10
116.015112
 20
27.128137
 30
0.0
 10
115.860110
 20
26.651125
 30
0.0
 10
115.646113
 20
26.196127
 30
0.0
 10
115.377112
 20
25.772116
 30
0.0
 10
115.057112
 20
25.385133
 30
0.0
 10
114.691112
 20
25.041132
 30
0.0
 10
114.284111
 20
24.746125
 30
0.0
 10
113.844112
 20
24.504120
 30
0.0
 10
113.377111
 20
24.319123
 30
0.0
 10
112.891110
 20
24.194127
 30
0.0
 10
112.392110
 20
24.131135
 30
0.0
 10
111.890110
 20
24.131135
 30
0.0
 10
111.391110
 20
24.194127
 30
0.0
 10
110.905112
 20
24.319123
 30
0.0
 10
110.438111
 20
24.504120
 30
0.0
 10
109.998112
 20
24.746125
 30
0.0
 10
109.591111
 20
25.041132
 30
0.0
 10
109.225111
 20
25.385133
 30
0.0
 10
108.905111
 20
25.772116
 30
0.0
 10
108.636110
 20
26.196127
 30
0.0
 10
108.422110
 20
26.651125
 30
0.0
 10
108.267111
 20
27.128137
 30
0.0
 10
108.173111
 20
27.622139
 30
0.0
 10
108.141112
 20
28.123140
 30
0.0
  0
LWPOLYLINE
  5
115
100
AcDbEntity
  8
Layer_1
 62
7
100
AcDbPolyline
 90
51
 70
0
 10
116.641112
 20
34.123128
 30
0.0
 10
116.653107
 20
34.311116
 30
0.0
 10
116.688111
 20
34.496113
 30
0.0
 10
116.746110
 20
34.675127
 30
0.0
 10
116.827111
 20
34.846125
 30
0.0
 10
116.927111
 20
35.005126
 30
0.0
 10
117.048111
 20
35.150126
 30
0.0
 10
117.185110
 20
35.279127
 30
0.0
 10
117.337112
 20
35.389126
 30
0.0
 10
117.502110
 20
35.480126
 30
0.0
 10
117.677111
 20
35.550126
 30
0.0
 10
117.860112
 20
35.596128
 30
0.0
 10
118.047112
 20
35.620117
 30
0.0
 10
118.235112
 20
35.620125
 30
0.0
 10
118.422112
 20
35.596136
 30
0.0
 10
118.605111
 20
35.550126
 30
0.0
 10
118.780111
 20
35.480126
 30
0.0
 10
118.945112
 20
35.389126
 30
0.0
 10
119.097112
 20
35.279127
 30
0.0
 10
119.234111
 20
35.150126
 30
0.0
 10
119.355111
 20
35.005126
 30
0.0
 10
119.455111
 20
34.846125
 30
0.0
 10
119.536111
 20
34.675127
 30
0.0
 10
119.594111
 20
34.496113
 30
0.0
 10
119.629112
 20
34.311116
 30
0.0
 10
119.641106
 20
34.123128
 30
0.0
 10
119.629118
 20
33.935140
 30
0.0
 10
119.594111
 20
33.750115
 30
0.0
 10
119.536111
 20
33.571130
 30
0.0
 10
119.455111
 20
33.400131
 30
0.0
 10
119.355111
 20
33.241127
 30
0.0
 10
119.234111
 20
33.096121
 30
0.0
 10
119.097112
 20
32.967118
 30
0.0
 10
118.945112
 20
32.857136
 30
0.0
 10
118.780111
 20
32.766119
 30
0.0
 10
118.605111
 20
32.696128
 30
0.0
 10
118.422112
 20
32.650126
 30
0.0
 10
118.235112
 20
32.626137
 30
0.0
 10
118.047112
 20
32.626137
 30
0.0
 10
117.860112
 20
32.650126
 30
0.0
 10
117.677111
 20
32.696128
 30
0.0
 10
117.502110
 20
32.766119
 30
0.0
 10
117.337112
 20
32.857136
 30
0.0
 10
117.185110
 20
32.967118
 30
0.0
 10
117.048111
 20
33.096121
 30
0.0
 10
116.927111
 20
33.241127
 30
0.0
 10
116.827111
 20
33.400131
 30
0.0
 10
116.746110
 20
33.571130
 30
0.0
 10
116.688111
 20
33.750115
 30
0.0
 10
116.653112
 20
33.935140
 30
0.0
 10
116.641118
 20
34.123128
 30
0.0
  0
LWPOLYLINE
  5
116
100
AcDbEntity
  8
Layer_1
 62
7
100
AcDbPolyline
 90
14
 70
0
 10
116.644112
 20
22.029116
 30
0.0
 10
116.644112
 20
22.217132
 30
0.0
 10
116.668101
 20
22.404133
 30
0.0
 10
116.714112
 20
22.587125
 30
0.0
 10
116.784112
 20
22.762131
 30
0.0
 10
116.875111
 20
22.927119
 30
0.0
 10
116.985110
 20
23.079123
 30
0.0
 10
117.114111
 20
23.216114
 30
0.0
 10
117.259111
 20
23.337131
 30
0.0
 10
117.418112
 20
23.437122
 30
0.0
 10
117.589111
 20
23.518120
 30
0.0
 10
117.768110
 20
23.576117
 30
0.0
 10
117.953110
 20
23.611112
 30
0.0
 10
118.141112
 20
23.623248
 30
0.0
  0
LWPOLYLINE
  5
117
100
AcDbEntity
  8
Layer_1
 62
7
100
AcDbPolyline
 90
2
 70
0
 10
118.141112
 20
23.623135
 30
0.0
 10
118.329112
 20
23.610999
 30
0.0
  0
LWPOLYLINE
  5
118
100
AcDbEntity
  8
Layer_1
 62
7
100
AcDbPolyline
 90
25
 70
0
 10
118.329112
 20
23.611112
 30
0.0
 10
118.514111
 20
23.576117
 30
0.0
 10
118.693111
 20
23.518120
 30
0.0
 10
118.864112
 20
23.437122
 30
0.0
 10
119.023110
 20
23.337131
 30
0.0
 10
119.168110
 20
23.216114
 30
0.0
 10
119.297111
 20
23.079123
 30
0.0
 10
119.407110
 20
22.927119
 30
0.0
 10
119.498110
 20
22.762131
 30
0.0
 10
119.568112
 20
22.587125
 30
0.0
 10
119.614112
 20
22.404133
 30
0.0
 10
119.638101
 20
22.217132
 30
0.0
 10
119.638112
 20
22.029116
 30
0.0
 10
119.614123
 20
21.842115
 30
0.0
 10
119.568112
 20
21.659122
 30
0.0
 10
119.498110
 20
21.484116
 30
0.0
 10
119.407110
 20
21.319129
 30
0.0
 10
119.297111
 20
21.167124
 30
0.0
 10
119.168110
 20
21.030134
 30
0.0
 10
119.023110
 20
20.909117
 30
0.0
 10
118.864112
 20
20.809125
 30
0.0
 10
118.693111
 20
20.728128
 30
0.0
 10
118.514111
 20
20.670131
 30
0.0
 10
118.329112
 20
20.635135
 30
0.0
 10
118.141112
 20
20.623000
 30
0.0
  0
LWPOLYLINE
  5
119
100
AcDbEntity
  8
Layer_1
 62
7
100
AcDbPolyline
 90
2
 70
0
 10
118.141112
 20
20.623113
 30
0.0
 10
117.953110
 20
20.635248
 30
0.0
  0
LWPOLYLINE
  5
11a
100
AcDbEntity
  8
Layer_1
 62
7
100
AcDbPolyline
 90
12
 70
0
 10
117.953110
 20
20.635135
 30
0.0
 10
117.768110
 20
20.670131
 30
0.0
 10
117.589111
 20
20.728128
 30
0.0
 10
117.418112
 20
20.809125
 30
0.0
 10
117.259111
 20
20.909117
 30
0.0
 10
117.114111
 20
21.030134
 30
0.0
 10
116.985110
 20
21.167124
 30
0.0
 10
116.875111
 20
21.319129
 30
0.0
 10
116.784112
 20
21.484116
 30
0.0
 10
116.714112
 20
21.659122
 30
0.0
 10
116.668113
 20
21.842115
 30
0.0
 10
116.644124
 20
22.029116
 30
0.0
  0
LWPOLYLINE
  5
11b
100
AcDbEntity
  8
Layer_1
 62
7
100
AcDbPolyline
 90
13
 70
0
 10
0.141111
 20
52.075110
 30
0.0
 10
0.236113
 20
50.571119
 30
0.0
 10
0.518112
 20
49.091118
 30
0.0
 10
0.984112
 20
47.658134
 30
0.0
 10
1.625112
 20
46.294126
 30
0.0
 10
2.433111
 20
45.022122
 30
0.0
 10
3.393113
 20
43.860123
 30
0.0
 10
4.492111
 20
42.829123
 30
0.0
 10
5.711111
 20
41.943123
 30
0.0
 10
7.032111
 20
41.217123
 30
0.0
 10
8.433110
 20
40.662122
 30
0.0
 10
9.892112
 20
40.288124
 30
0.0
 10
11.388113
 20
40.099122
 30
0.0
  0
LWPOLYLINE
  5
11c
100
AcDbEntity
  8
Layer_1
 62
7
100
AcDbPolyline
 90
40
 70
0
 10
112.894110
 20
40.099122
 30
0.0
 10
114.390111
 20
40.288124
 30
0.0
 10
115.849112
 20
40.662122
 30
0.0
 10
117.250111
 20
41.217123
 30
0.0
 10
118.571112
 20
41.943123
 30
0.0
 10
119.790111
 20
42.829123
 30
0.0
 10
120.889110
 20
43.860123
 30
0.0
 10
121.849111
 20
45.022122
 30
0.0
 10
122.657111
 20
46.294126
 30
0.0
 10
123.298111
 20
47.658134
 30
0.0
 10
123.764111
 20
49.091118
 30
0.0
 10
124.046110
 20
50.571119
 30
0.0
 10
124.141111
 20
52.075110
 30
0.0
 10
124.046110
 20
53.579128
 30
0.0
 10
123.764111
 20
55.059130
 30
0.0
 10
123.298111
 20
56.492113
 30
0.0
 10
122.657111
 20
57.856121
 30
0.0
 10
121.849111
 20
59.128125
 30
0.0
 10
120.889110
 20
60.290119
 30
0.0
 10
119.790111
 20
61.321133
 30
0.0
 10
118.571112
 20
62.207113
 30
0.0
 10
117.250111
 20
62.933130
 30
0.0
 10
85.973111
 20
79.218114
 30
0.0
 10
84.922111
 20
79.635126
 30
0.0
 10
83.827111
 20
79.916134
 30
0.0
 10
82.706111
 20
80.057132
 30
0.0
 10
41.576111
 20
80.057132
 30
0.0
 10
40.455111
 20
79.916134
 30
0.0
 10
39.360111
 20
79.635126
 30
0.0
 10
38.309111
 20
79.218114
 30
0.0
 10
7.032111
 20
62.933130
 30
0.0
 10
5.711111
 20
62.207113
 30
0.0
 10
4.492111
 20
61.321133
 30
0.0
 10
3.393113
 20
60.290119
 30
0.0
 10
2.433111
 20
59.128125
 30
0.0
 10
1.625112
 20
57.856121
 30
0.0
 10
0.984112
 20
56.492113
 30
0.0
 10
0.518112
 20
55.059130
 30
0.0
 10
0.236113
 20
53.579128
 30
0.0
 10
0.141111
 20
52.075110
 30
0.0
  0
LWPOLYLINE
  5
11d
100
AcDbEntity
  8
Layer_1
 62
7
100
AcDbPolyline
 90
51
 70
0
 10
4.641111
 20
58.075126
 30
0.0
 10
4.653105
 20
57.887109
 30
0.0
 10
4.688112
 20
57.702113
 30
0.0
 10
4.746111
 20
57.523127
 30
0.0
 10
4.827112
 20
57.352129
 30
0.0
 10
4.927112
 20
57.193125
 30
0.0
 10
5.048112
 20
57.048119
 30
0.0
 10
5.185111
 20
56.919115
 30
0.0
 10
5.337110
 20
56.809133
 30
0.0
 10
5.502111
 20
56.718117
 30
0.0
 10
5.677112
 20
56.648126
 30
0.0
 10
5.860110
 20
56.602123
 30
0.0
 10
6.047111
 20
56.578134
 30
0.0
 10
6.235110
 20
56.578134
 30
0.0
 10
6.422111
 20
56.602123
 30
0.0
 10
6.605112
 20
56.648126
 30
0.0
 10
6.780112
 20
56.718117
 30
0.0
 10
6.945111
 20
56.809133
 30
0.0
 10
7.097113
 20
56.919115
 30
0.0
 10
7.234112
 20
57.048119
 30
0.0
 10
7.355112
 20
57.193125
 30
0.0
 10
7.455112
 20
57.352129
 30
0.0
 10
7.536112
 20
57.523127
 30
0.0
 10
7.594112
 20
57.702113
 30
0.0
 10
7.629110
 20
57.887109
 30
0.0
 10
7.641105
 20
58.075126
 30
0.0
 10
7.629116
 20
58.263114
 30
0.0
 10
7.594112
 20
58.448111
 30
0.0
 10
7.536112
 20
58.627124
 30
0.0
 10
7.455112
 20
58.798123
 30
0.0
 10
7.355112
 20
58.957127
 30
0.0
 10
7.234112
 20
59.102132
 30
0.0
 10
7.097113
 20
59.231136
 30
0.0
 10
6.945111
 20
59.341118
 30
0.0
 10
6.780112
 20
59.432135
 30
0.0
 10
6.605112
 20
59.502126
 30
0.0
 10
6.422111
 20
59.548128
 30
0.0
 10
6.235110
 20
59.572117
 30
0.0
 10
6.047111
 20
59.572117
 30
0.0
 10
5.860110
 20
59.548128
 30
0.0
 10
5.677112
 20
59.502126
 30
0.0
 10
5.502111
 20
59.432135
 30
0.0
 10
5.337110
 20
59.341118
 30
0.0
 10
5.185111
 20
59.231136
 30
0.0
 10
5.048112
 20
59.102132
 30
0.0
 10
4.927112
 20
58.957127
 30
0.0
 10
4.827112
 20
58.798123
 30
0.0
 10
4.746111
 20
58.627124
 30
0.0
 10
4.688112
 20
58.448111
 30
0.0
 10
4.653111
 20
58.263114
 30
0.0
 10
4.641116
 20
58.075126
 30
0.0
  0
LWPOLYLINE
  5
11e
100
AcDbEntity
  8
Layer_1
 62
7
100
AcDbPolyline
 90
39
 70
0
 10
4.644111
 20
46.169130
 30
0.0
 10
4.644111
 20
45.981113
 30
0.0
 10
4.668099
 20
45.794113
 30
0.0
 10
4.714110
 20
45.611120
 30
0.0
 10
4.784113
 20
45.436114
 30
0.0
 10
4.875112
 20
45.271124
 30
0.0
 10
4.985111
 20
45.119122
 30
0.0
 10
5.114112
 20
44.982123
 30
0.0
 10
5.259112
 20
44.861123
 30
0.0
 10
5.418111
 20
44.761123
 30
0.0
 10
5.589112
 20
44.680123
 30
0.0
 10
5.768111
 20
44.622123
 30
0.0
 10
5.953111
 20
44.587125
 30
0.0
 10
6.141110
 20
44.575130
 30
0.0
 10
6.329113
 20
44.587119
 30
0.0
 10
6.514112
 20
44.622123
 30
0.0
 10
6.693112
 20
44.680123
 30
0.0
 10
6.864110
 20
44.761123
 30
0.0
 10
7.023111
 20
44.861123
 30
0.0
 10
7.168111
 20
44.982123
 30
0.0
 10
7.297112
 20
45.119122
 30
0.0
 10
7.407111
 20
45.271124
 30
0.0
 10
7.498111
 20
45.436114
 30
0.0
 10
7.568111
 20
45.611120
 30
0.0
 10
7.614110
 20
45.794113
 30
0.0
 10
7.638099
 20
45.981113
 30
0.0
 10
7.638110
 20
46.169130
 30
0.0
 10
7.614121
 20
46.356130
 30
0.0
 10
7.568111
 20
46.539123
 30
0.0
 10
7.498111
 20
46.714129
 30
0.0
 10
7.407111
 20
46.879116
 30
0.0
 10
7.297112
 20
47.031121
 30
0.0
 10
7.168111
 20
47.168112
 30
0.0
 10
7.023111
 20
47.289129
 30
0.0
 10
6.864110
 20
47.389120
 30
0.0
 10
6.693112
 20
47.470118
 30
0.0
 10
6.514112
 20
47.528114
 30
0.0
 10
6.329113
 20
47.563110
 30
0.0
 10
6.141110
 20
47.575246
 30
0.0
  0
LWPOLYLINE
  5
11f
100
AcDbEntity
  8
Layer_1
 62
7
100
AcDbPolyline
 90
2
 70
0
 10
6.141110
 20
47.575133
 30
0.0
 10
5.953111
 20
47.562997
 30
0.0
  0
LWPOLYLINE
  5
120
100
AcDbEntity
  8
Layer_1
 62
7
100
AcDbPolyline
 90
12
 70
0
 10
5.953111
 20
47.563110
 30
0.0
 10
5.768111
 20
47.528114
 30
0.0
 10
5.589112
 20
47.470118
 30
0.0
 10
5.418111
 20
47.389120
 30
0.0
 10
5.259112
 20
47.289129
 30
0.0
 10
5.114112
 20
47.168112
 30
0.0
 10
4.985111
 20
47.031121
 30
0.0
 10
4.875112
 20
46.879116
 30
0.0
 10
4.784113
 20
46.714129
 30
0.0
 10
4.714110
 20
46.539123
 30
0.0
 10
4.668111
 20
46.356130
 30
0.0
 10
4.644122
 20
46.169130
 30
0.0
  0
LWPOLYLINE
  5
121
100
AcDbEntity
  8
Layer_1
 62
7
100
AcDbPolyline
 90
51
 70
0
 10
8.141112
 20
52.075110
 30
0.0
 10
8.173110
 20
51.574137
 30
0.0
 10
8.267110
 20
51.080135
 30
0.0
 10
8.422112
 20
50.603123
 30
0.0
 10
8.636110
 20
50.148124
 30
0.0
 10
8.905110
 20
49.724114
 30
0.0
 10
9.225111
 20
49.337131
 30
0.0
 10
9.591111
 20
48.993130
 30
0.0
 10
9.998112
 20
48.698123
 30
0.0
 10
10.438110
 20
48.456118
 30
0.0
 10
10.905112
 20
48.271121
 30
0.0
 10
11.391113
 20
48.146125
 30
0.0
 10
11.890113
 20
48.083133
 30
0.0
 10
12.392112
 20
48.083133
 30
0.0
 10
12.891112
 20
48.146125
 30
0.0
 10
13.377110
 20
48.271121
 30
0.0
 10
13.844112
 20
48.456118
 30
0.0
 10
14.284111
 20
48.698123
 30
0.0
 10
14.691112
 20
48.993130
 30
0.0
 10
15.057112
 20
49.337131
 30
0.0
 10
15.377112
 20
49.724114
 30
0.0
 10
15.646112
 20
50.148124
 30
0.0
 10
15.860113
 20
50.603123
 30
0.0
 10
16.015112
 20
51.080135
 30
0.0
 10
16.109112
 20
51.574137
 30
0.0
 10
16.141110
 20
52.075110
 30
0.0
 10
16.109112
 20
52.576110
 30
0.0
 10
16.015112
 20
53.070112
 30
0.0
 10
15.860113
 20
53.547124
 30
0.0
 10
15.646112
 20
54.002123
 30
0.0
 10
15.377112
 20
54.426134
 30
0.0
 10
15.057112
 20
54.813117
 30
0.0
 10
14.691112
 20
55.157117
 30
0.0
 10
14.284111
 20
55.452124
 30
0.0
 10
13.844112
 20
55.694130
 30
0.0
 10
13.377110
 20
55.879126
 30
0.0
 10
12.891112
 20
56.004123
 30
0.0
 10
12.392112
 20
56.067115
 30
0.0
 10
11.890113
 20
56.067115
 30
0.0
 10
11.391113
 20
56.004123
 30
0.0
 10
10.905112
 20
55.879126
 30
0.0
 10
10.438110
 20
55.694130
 30
0.0
 10
9.998112
 20
55.452124
 30
0.0
 10
9.591111
 20
55.157117
 30
0.0
 10
9.225111
 20
54.813117
 30
0.0
 10
8.905110
 20
54.426134
 30
0.0
 10
8.636110
 20
54.002123
 30
0.0
 10
8.422112
 20
53.547124
 30
0.0
 10
8.267110
 20
53.070112
 30
0.0
 10
8.173110
 20
52.576110
 30
0.0
 10
8.141112
 20
52.075110
 30
0.0
  0
LWPOLYLINE
  5
122
100
AcDbEntity
  8
Layer_1
 62
7
100
AcDbPolyline
 90
51
 70
0
 10
16.641112
 20
46.075122
 30
0.0
 10
16.653106
 20
45.887133
 30
0.0
 10
16.688110
 20
45.702137
 30
0.0
 10
16.746113
 20
45.523123
 30
0.0
 10
16.827111
 20
45.352125
 30
0.0
 10
16.927110
 20
45.193123
 30
0.0
 10
17.048110
 20
45.048123
 30
0.0
 10
17.185112
 20
44.919122
 30
0.0
 10
17.337111
 20
44.809123
 30
0.0
 10
17.502113
 20
44.718124
 30
0.0
 10
17.677110
 20
44.648124
 30
0.0
 10
17.860112
 20
44.602122
 30
0.0
 10
18.047112
 20
44.578133
 30
0.0
 10
18.235112
 20
44.578125
 30
0.0
 10
18.422112
 20
44.602113
 30
0.0
 10
18.605111
 20
44.648124
 30
0.0
 10
18.780111
 20
44.718124
 30
0.0
 10
18.945112
 20
44.809123
 30
0.0
 10
19.097111
 20
44.919122
 30
0.0
 10
19.234110
 20
45.048123
 30
0.0
 10
19.355110
 20
45.193123
 30
0.0
 10
19.455110
 20
45.352125
 30
0.0
 10
19.536111
 20
45.523123
 30
0.0
 10
19.594110
 20
45.702137
 30
0.0
 10
19.629112
 20
45.887133
 30
0.0
 10
19.641106
 20
46.075122
 30
0.0
 10
19.629117
 20
46.263110
 30
0.0
 10
19.594110
 20
46.448135
 30
0.0
 10
19.536111
 20
46.627120
 30
0.0
 10
19.455110
 20
46.798118
 30
0.0
 10
19.355110
 20
46.957122
 30
0.0
 10
19.234110
 20
47.102128
 30
0.0
 10
19.097111
 20
47.231132
 30
0.0
 10
18.945112
 20
47.341114
 30
0.0
 10
18.780111
 20
47.432131
 30
0.0
 10
18.605111
 20
47.502122
 30
0.0
 10
18.422112
 20
47.548124
 30
0.0
 10
18.235112
 20
47.572113
 30
0.0
 10
18.047112
 20
47.572113
 30
0.0
 10
17.860112
 20
47.548124
 30
0.0
 10
17.677110
 20
47.502122
 30
0.0
 10
17.502113
 20
47.432131
 30
0.0
 10
17.337111
 20
47.341114
 30
0.0
 10
17.185112
 20
47.231132
 30
0.0
 10
17.048110
 20
47.102128
 30
0.0
 10
16.927110
 20
46.957122
 30
0.0
 10
16.827111
 20
46.798118
 30
0.0
 10
16.746113
 20
46.627120
 30
0.0
 10
16.688110
 20
46.448135
 30
0.0
 10
16.653112
 20
46.263110
 30
0.0
 10
16.641118
 20
46.075122
 30
0.0
  0
LWPOLYLINE
  5
123
100
AcDbEntity
  8
Layer_1
 62
7
100
AcDbPolyline
 90
14
 70
0
 10
16.644112
 20
58.169134
 30
0.0
 10
16.644112
 20
57.981118
 30
0.0
 10
16.668101
 20
57.794117
 30
0.0
 10
16.714112
 20
57.611124
 30
0.0
 10
16.784111
 20
57.436118
 30
0.0
 10
16.875111
 20
57.271131
 30
0.0
 10
16.985113
 20
57.119126
 30
0.0
 10
17.114111
 20
56.982136
 30
0.0
 10
17.259111
 20
56.861119
 30
0.0
 10
17.418112
 20
56.761127
 30
0.0
 10
17.589111
 20
56.680130
 30
0.0
 10
17.768110
 20
56.622133
 30
0.0
 10
17.953112
 20
56.587137
 30
0.0
 10
18.141112
 20
56.575002
 30
0.0
  0
LWPOLYLINE
  5
124
100
AcDbEntity
  8
Layer_1
 62
7
100
AcDbPolyline
 90
2
 70
0
 10
18.141112
 20
56.575115
 30
0.0
 10
18.329111
 20
56.587250
 30
0.0
  0
LWPOLYLINE
  5
125
100
AcDbEntity
  8
Layer_1
 62
7
100
AcDbPolyline
 90
25
 70
0
 10
18.329111
 20
56.587137
 30
0.0
 10
18.514111
 20
56.622133
 30
0.0
 10
18.693110
 20
56.680130
 30
0.0
 10
18.864112
 20
56.761127
 30
0.0
 10
19.023113
 20
56.861119
 30
0.0
 10
19.168113
 20
56.982136
 30
0.0
 10
19.297111
 20
57.119126
 30
0.0
 10
19.407113
 20
57.271131
 30
0.0
 10
19.498112
 20
57.436118
 30
0.0
 10
19.568112
 20
57.611124
 30
0.0
 10
19.614111
 20
57.794117
 30
0.0
 10
19.638100
 20
57.981118
 30
0.0
 10
19.638112
 20
58.169134
 30
0.0
 10
19.614123
 20
58.356134
 30
0.0
 10
19.568112
 20
58.539127
 30
0.0
 10
19.498112
 20
58.714133
 30
0.0
 10
19.407113
 20
58.879120
 30
0.0
 10
19.297111
 20
59.031125
 30
0.0
 10
19.168113
 20
59.168116
 30
0.0
 10
19.023113
 20
59.289133
 30
0.0
 10
18.864112
 20
59.389124
 30
0.0
 10
18.693110
 20
59.470122
 30
0.0
 10
18.514111
 20
59.528119
 30
0.0
 10
18.329111
 20
59.563114
 30
0.0
 10
18.141112
 20
59.575250
 30
0.0
  0
LWPOLYLINE
  5
126
100
AcDbEntity
  8
Layer_1
 62
7
100
AcDbPolyline
 90
2
 70
0
 10
18.141112
 20
59.575137
 30
0.0
 10
17.953112
 20
59.563001
 30
0.0
  0
LWPOLYLINE
  5
127
100
AcDbEntity
  8
Layer_1
 62
7
100
AcDbPolyline
 90
12
 70
0
 10
17.953112
 20
59.563114
 30
0.0
 10
17.768110
 20
59.528119
 30
0.0
 10
17.589111
 20
59.470122
 30
0.0
 10
17.418112
 20
59.389124
 30
0.0
 10
17.259111
 20
59.289133
 30
0.0
 10
17.114111
 20
59.168116
 30
0.0
 10
16.985113
 20
59.031125
 30
0.0
 10
16.875111
 20
58.879120
 30
0.0
 10
16.784111
 20
58.714133
 30
0.0
 10
16.714112
 20
58.539127
 30
0.0
 10
16.668112
 20
58.356134
 30
0.0
 10
16.644123
 20
58.169134
 30
0.0
  0
LWPOLYLINE
  5
128
100
AcDbEntity
  8
Layer_1
 62
7
100
AcDbPolyline
 90
51
 70
0
 10
49.641111
 20
70.075130
 30
0.0
 10
49.661112
 20
69.762117
 30
0.0
 10
49.720111
 20
69.453112
 30
0.0
 10
49.817111
 20
69.155114
 30
0.0
 10
49.950111
 20
68.871114
 30
0.0
 10
50.118111
 20
68.606135
 30
0.0
 10
50.319111
 20
68.364130
 30
0.0
 10
50.547111
 20
68.149133
 30
0.0
 10
50.801111
 20
67.964136
 30
0.0
 10
51.077111
 20
67.813119
 30
0.0
 10
51.368111
 20
67.697126
 30
0.0
 10
51.673111
 20
67.619119
 30
0.0
 10
51.984111
 20
67.580116
 30
0.0
 10
52.298111
 20
67.580116
 30
0.0
 10
52.609111
 20
67.619119
 30
0.0
 10
52.914111
 20
67.697126
 30
0.0
 10
53.205111
 20
67.813119
 30
0.0
 10
53.481111
 20
67.964136
 30
0.0
 10
53.735111
 20
68.149133
 30
0.0
 10
53.963111
 20
68.364130
 30
0.0
 10
54.164111
 20
68.606135
 30
0.0
 10
54.332111
 20
68.871114
 30
0.0
 10
54.465111
 20
69.155114
 30
0.0
 10
54.562111
 20
69.453112
 30
0.0
 10
54.621111
 20
69.762117
 30
0.0
 10
54.641112
 20
70.075130
 30
0.0
 10
54.621110
 20
70.388114
 30
0.0
 10
54.562111
 20
70.697120
 30
0.0
 10
54.465111
 20
70.995118
 30
0.0
 10
54.332111
 20
71.279118
 30
0.0
 10
54.164111
 20
71.544125
 30
0.0
 10
53.963111
 20
71.786130
 30
0.0
 10
53.735111
 20
72.001127
 30
0.0
 10
53.481111
 20
72.186124
 30
0.0
 10
53.205111
 20
72.337113
 30
0.0
 10
52.914111
 20
72.453134
 30
0.0
 10
52.609111
 20
72.531112
 30
0.0
 10
52.298111
 20
72.570116
 30
0.0
 10
51.984111
 20
72.570116
 30
0.0
 10
51.673111
 20
72.531112
 30
0.0
 10
51.368111
 20
72.453134
 30
0.0
 10
51.077111
 20
72.337113
 30
0.0
 10
50.801111
 20
72.186124
 30
0.0
 10
50.547111
 20
72.001127
 30
0.0
 10
50.319111
 20
71.786130
 30
0.0
 10
50.118111
 20
71.544125
 30
0.0
 10
49.950111
 20
71.279118
 30
0.0
 10
49.817111
 20
70.995118
 30
0.0
 10
49.720111
 20
70.697120
 30
0.0
 10
49.661111
 20
70.388114
 30
0.0
 10
49.641110
 20
70.075130
 30
0.0
  0
LWPOLYLINE
  5
129
100
AcDbEntity
  8
Layer_1
 62
7
100
AcDbPolyline
 90
51
 70
0
 10
69.641111
 20
70.075130
 30
0.0
 10
69.661112
 20
69.762117
 30
0.0
 10
69.720111
 20
69.453112
 30
0.0
 10
69.817111
 20
69.155114
 30
0.0
 10
69.950111
 20
68.871114
 30
0.0
 10
70.118111
 20
68.606135
 30
0.0
 10
70.319111
 20
68.364130
 30
0.0
 10
70.547111
 20
68.149133
 30
0.0
 10
70.801111
 20
67.964136
 30
0.0
 10
71.077111
 20
67.813119
 30
0.0
 10
71.368111
 20
67.697126
 30
0.0
 10
71.673111
 20
67.619119
 30
0.0
 10
71.984111
 20
67.580116
 30
0.0
 10
72.298111
 20
67.580116
 30
0.0
 10
72.609111
 20
67.619119
 30
0.0
 10
72.914111
 20
67.697126
 30
0.0
 10
73.205111
 20
67.813119
 30
0.0
 10
73.481111
 20
67.964136
 30
0.0
 10
73.735111
 20
68.149133
 30
0.0
 10
73.963111
 20
68.364130
 30
0.0
 10
74.164111
 20
68.606135
 30
0.0
 10
74.332111
 20
68.871114
 30
0.0
 10
74.465111
 20
69.155114
 30
0.0
 10
74.562111
 20
69.453112
 30
0.0
 10
74.621111
 20
69.762117
 30
0.0
 10
74.641112
 20
70.075130
 30
0.0
 10
74.621110
 20
70.388114
 30
0.0
 10
74.562111
 20
70.697120
 30
0.0
 10
74.465111
 20
70.995118
 30
0.0
 10
74.332111
 20
71.279118
 30
0.0
 10
74.164111
 20
71.544125
 30
0.0
 10
73.963111
 20
71.786130
 30
0.0
 10
73.735111
 20
72.001127
 30
0.0
 10
73.481111
 20
72.186124
 30
0.0
 10
73.205111
 20
72.337113
 30
0.0
 10
72.914111
 20
72.453134
 30
0.0
 10
72.609111
 20
72.531112
 30
0.0
 10
72.298111
 20
72.570116
 30
0.0
 10
71.984111
 20
72.570116
 30
0.0
 10
71.673111
 20
72.531112
 30
0.0
 10
71.368111
 20
72.453134
 30
0.0
 10
71.077111
 20
72.337113
 30
0.0
 10
70.801111
 20
72.186124
 30
0.0
 10
70.547111
 20
72.001127
 30
0.0
 10
70.319111
 20
71.786130
 30
0.0
 10
70.118111
 20
71.544125
 30
0.0
 10
69.950111
 20
71.279118
 30
0.0
 10
69.817111
 20
70.995118
 30
0.0
 10
69.720111
 20
70.697120
 30
0.0
 10
69.661111
 20
70.388114
 30
0.0
 10
69.641110
 20
70.075130
 30
0.0
  0
LWPOLYLINE
  5
12a
100
AcDbEntity
  8
Layer_1
 62
7
100
AcDbPolyline
 90
51
 70
0
 10
104.641111
 20
58.075126
 30
0.0
 10
104.653105
 20
57.887109
 30
0.0
 10
104.688112
 20
57.702113
 30
0.0
 10
104.746112
 20
57.523127
 30
0.0
 10
104.827112
 20
57.352129
 30
0.0
 10
104.927112
 20
57.193125
 30
0.0
 10
105.048112
 20
57.048119
 30
0.0
 10
105.185111
 20
56.919115
 30
0.0
 10
105.337110
 20
56.809133
 30
0.0
 10
105.502112
 20
56.718117
 30
0.0
 10
105.677112
 20
56.648126
 30
0.0
 10
105.860111
 20
56.602123
 30
0.0
 10
106.047111
 20
56.578134
 30
0.0
 10
106.235111
 20
56.578134
 30
0.0
 10
106.422111
 20
56.602123
 30
0.0
 10
106.605112
 20
56.648126
 30
0.0
 10
106.780110
 20
56.718117
 30
0.0
 10
106.945111
 20
56.809133
 30
0.0
 10
107.097110
 20
56.919115
 30
0.0
 10
107.234112
 20
57.048119
 30
0.0
 10
107.355112
 20
57.193125
 30
0.0
 10
107.455112
 20
57.352129
 30
0.0
 10
107.536110
 20
57.523127
 30
0.0
 10
107.594112
 20
57.702113
 30
0.0
 10
107.629111
 20
57.887109
 30
0.0
 10
107.641105
 20
58.075126
 30
0.0
 10
107.629116
 20
58.263114
 30
0.0
 10
107.594112
 20
58.448111
 30
0.0
 10
107.536110
 20
58.627124
 30
0.0
 10
107.455112
 20
58.798123
 30
0.0
 10
107.355112
 20
58.957127
 30
0.0
 10
107.234112
 20
59.102132
 30
0.0
 10
107.097110
 20
59.231136
 30
0.0
 10
106.945111
 20
59.341118
 30
0.0
 10
106.780110
 20
59.432135
 30
0.0
 10
106.605112
 20
59.502126
 30
0.0
 10
106.422111
 20
59.548128
 30
0.0
 10
106.235111
 20
59.572117
 30
0.0
 10
106.047111
 20
59.572117
 30
0.0
 10
105.860111
 20
59.548128
 30
0.0
 10
105.677112
 20
59.502126
 30
0.0
 10
105.502112
 20
59.432135
 30
0.0
 10
105.337110
 20
59.341118
 30
0.0
 10
105.185111
 20
59.231136
 30
0.0
 10
105.048112
 20
59.102132
 30
0.0
 10
104.927112
 20
58.957127
 30
0.0
 10
104.827112
 20
58.798123
 30
0.0
 10
104.746112
 20
58.627124
 30
0.0
 10
104.688112
 20
58.448111
 30
0.0
 10
104.653111
 20
58.263114
 30
0.0
 10
104.641117
 20
58.075126
 30
0.0
  0
LWPOLYLINE
  5
12b
100
AcDbEntity
  8
Layer_1
 62
7
100
AcDbPolyline
 90
39
 70
0
 10
104.644111
 20
46.169130
 30
0.0
 10
104.644111
 20
45.981113
 30
0.0
 10
104.668100
 20
45.794113
 30
0.0
 10
104.714111
 20
45.611120
 30
0.0
 10
104.784110
 20
45.436114
 30
0.0
 10
104.875110
 20
45.271124
 30
0.0
 10
104.985112
 20
45.119122
 30
0.0
 10
105.114110
 20
44.982123
 30
0.0
 10
105.259110
 20
44.861123
 30
0.0
 10
105.418111
 20
44.761123
 30
0.0
 10
105.589112
 20
44.680123
 30
0.0
 10
105.768112
 20
44.622123
 30
0.0
 10
105.953111
 20
44.587125
 30
0.0
 10
106.141111
 20
44.575130
 30
0.0
 10
106.329110
 20
44.587119
 30
0.0
 10
106.514113
 20
44.622123
 30
0.0
 10
106.693112
 20
44.680123
 30
0.0
 10
106.864110
 20
44.761123
 30
0.0
 10
107.023112
 20
44.861123
 30
0.0
 10
107.168112
 20
44.982123
 30
0.0
 10
107.297110
 20
45.119122
 30
0.0
 10
107.407112
 20
45.271124
 30
0.0
 10
107.498111
 20
45.436114
 30
0.0
 10
107.568111
 20
45.611120
 30
0.0
 10
107.614110
 20
45.794113
 30
0.0
 10
107.638099
 20
45.981113
 30
0.0
 10
107.638111
 20
46.169130
 30
0.0
 10
107.614122
 20
46.356130
 30
0.0
 10
107.568111
 20
46.539123
 30
0.0
 10
107.498111
 20
46.714129
 30
0.0
 10
107.407112
 20
46.879116
 30
0.0
 10
107.297110
 20
47.031121
 30
0.0
 10
107.168112
 20
47.168112
 30
0.0
 10
107.023112
 20
47.289129
 30
0.0
 10
106.864110
 20
47.389120
 30
0.0
 10
106.693112
 20
47.470118
 30
0.0
 10
106.514113
 20
47.528114
 30
0.0
 10
106.329110
 20
47.563110
 30
0.0
 10
106.141111
 20
47.575246
 30
0.0
  0
LWPOLYLINE
  5
12c
100
AcDbEntity
  8
Layer_1
 62
7
100
AcDbPolyline
 90
2
 70
0
 10
106.141111
 20
47.575133
 30
0.0
 10
105.953111
 20
47.562997
 30
0.0
  0
LWPOLYLINE
  5
12d
100
AcDbEntity
  8
Layer_1
 62
7
100
AcDbPolyline
 90
12
 70
0
 10
105.953111
 20
47.563110
 30
0.0
 10
105.768112
 20
47.528114
 30
0.0
 10
105.589112
 20
47.470118
 30
0.0
 10
105.418111
 20
47.389120
 30
0.0
 10
105.259110
 20
47.289129
 30
0.0
 10
105.114110
 20
47.168112
 30
0.0
 10
104.985112
 20
47.031121
 30
0.0
 10
104.875110
 20
46.879116
 30
0.0
 10
104.784110
 20
46.714129
 30
0.0
 10
104.714111
 20
46.539123
 30
0.0
 10
104.668111
 20
46.356130
 30
0.0
 10
104.644122
 20
46.169130
 30
0.0
  0
LWPOLYLINE
  5
12e
100
AcDbEntity
  8
Layer_1
 62
7
100
AcDbPolyline
 90
51
 70
0
 10
108.141112
 20
52.075110
 30
0.0
 10
108.173111
 20
51.574137
 30
0.0
 10
108.267111
 20
51.080135
 30
0.0
 10
108.422110
 20
50.603123
 30
0.0
 10
108.636110
 20
50.148124
 30
0.0
 10
108.905111
 20
49.724114
 30
0.0
 10
109.225111
 20
49.337131
 30
0.0
 10
109.591111
 20
48.993130
 30
0.0
 10
109.998112
 20
48.698123
 30
0.0
 10
110.438111
 20
48.456118
 30
0.0
 10
110.905112
 20
48.271121
 30
0.0
 10
111.391110
 20
48.146125
 30
0.0
 10
111.890110
 20
48.083133
 30
0.0
 10
112.392110
 20
48.083133
 30
0.0
 10
112.891110
 20
48.146125
 30
0.0
 10
113.377111
 20
48.271121
 30
0.0
 10
113.844112
 20
48.456118
 30
0.0
 10
114.284111
 20
48.698123
 30
0.0
 10
114.691112
 20
48.993130
 30
0.0
 10
115.057112
 20
49.337131
 30
0.0
 10
115.377112
 20
49.724114
 30
0.0
 10
115.646113
 20
50.148124
 30
0.0
 10
115.860110
 20
50.603123
 30
0.0
 10
116.015112
 20
51.080135
 30
0.0
 10
116.109112
 20
51.574137
 30
0.0
 10
116.141111
 20
52.075110
 30
0.0
 10
116.109112
 20
52.576110
 30
0.0
 10
116.015112
 20
53.070112
 30
0.0
 10
115.860110
 20
53.547124
 30
0.0
 10
115.646113
 20
54.002123
 30
0.0
 10
115.377112
 20
54.426134
 30
0.0
 10
115.057112
 20
54.813117
 30
0.0
 10
114.691112
 20
55.157117
 30
0.0
 10
114.284111
 20
55.452124
 30
0.0
 10
113.844112
 20
55.694130
 30
0.0
 10
113.377111
 20
55.879126
 30
0.0
 10
112.891110
 20
56.004123
 30
0.0
 10
112.392110
 20
56.067115
 30
0.0
 10
111.890110
 20
56.067115
 30
0.0
 10
111.391110
 20
56.004123
 30
0.0
 10
110.905112
 20
55.879126
 30
0.0
 10
110.438111
 20
55.694130
 30
0.0
 10
109.998112
 20
55.452124
 30
0.0
 10
109.591111
 20
55.157117
 30
0.0
 10
109.225111
 20
54.813117
 30
0.0
 10
108.905111
 20
54.426134
 30
0.0
 10
108.636110
 20
54.002123
 30
0.0
 10
108.422110
 20
53.547124
 30
0.0
 10
108.267111
 20
53.070112
 30
0.0
 10
108.173111
 20
52.576110
 30
0.0
 10
108.141112
 20
52.075110
 30
0.0
  0
LWPOLYLINE
  5
12f
100
AcDbEntity
  8
Layer_1
 62
7
100
AcDbPolyline
 90
51
 70
0
 10
116.641112
 20
46.075122
 30
0.0
 10
116.653107
 20
45.887133
 30
0.0
 10
116.688111
 20
45.702137
 30
0.0
 10
116.746110
 20
45.523123
 30
0.0
 10
116.827111
 20
45.352125
 30
0.0
 10
116.927111
 20
45.193123
 30
0.0
 10
117.048111
 20
45.048123
 30
0.0
 10
117.185110
 20
44.919122
 30
0.0
 10
117.337112
 20
44.809123
 30
0.0
 10
117.502110
 20
44.718124
 30
0.0
 10
117.677111
 20
44.648124
 30
0.0
 10
117.860112
 20
44.602122
 30
0.0
 10
118.047112
 20
44.578133
 30
0.0
 10
118.235112
 20
44.578125
 30
0.0
 10
118.422112
 20
44.602113
 30
0.0
 10
118.605111
 20
44.648124
 30
0.0
 10
118.780111
 20
44.718124
 30
0.0
 10
118.945112
 20
44.809123
 30
0.0
 10
119.097112
 20
44.919122
 30
0.0
 10
119.234111
 20
45.048123
 30
0.0
 10
119.355111
 20
45.193123
 30
0.0
 10
119.455111
 20
45.352125
 30
0.0
 10
119.536111
 20
45.523123
 30
0.0
 10
119.594111
 20
45.702137
 30
0.0
 10
119.629112
 20
45.887133
 30
0.0
 10
119.641106
 20
46.075122
 30
0.0
 10
119.629118
 20
46.263110
 30
0.0
 10
119.594111
 20
46.448135
 30
0.0
 10
119.536111
 20
46.627120
 30
0.0
 10
119.455111
 20
46.798118
 30
0.0
 10
119.355111
 20
46.957122
 30
0.0
 10
119.234111
 20
47.102128
 30
0.0
 10
119.097112
 20
47.231132
 30
0.0
 10
118.945112
 20
47.341114
 30
0.0
 10
118.780111
 20
47.432131
 30
0.0
 10
118.605111
 20
47.502122
 30
0.0
 10
118.422112
 20
47.548124
 30
0.0
 10
118.235112
 20
47.572113
 30
0.0
 10
118.047112
 20
47.572113
 30
0.0
 10
117.860112
 20
47.548124
 30
0.0
 10
117.677111
 20
47.502122
 30
0.0
 10
117.502110
 20
47.432131
 30
0.0
 10
117.337112
 20
47.341114
 30
0.0
 10
117.185110
 20
47.231132
 30
0.0
 10
117.048111
 20
47.102128
 30
0.0
 10
116.927111
 20
46.957122
 30
0.0
 10
116.827111
 20
46.798118
 30
0.0
 10
116.746110
 20
46.627120
 30
0.0
 10
116.688111
 20
46.448135
 30
0.0
 10
116.653112
 20
46.263110
 30
0.0
 10
116.641118
 20
46.075122
 30
0.0
  0
LWPOLYLINE
  5
130
100
AcDbEntity
  8
Layer_1
 62
7
100
AcDbPolyline
 90
14
 70
0
 10
116.644112
 20
58.169134
 30
0.0
 10
116.644112
 20
57.981118
 30
0.0
 10
116.668101
 20
57.794117
 30
0.0
 10
116.714112
 20
57.611124
 30
0.0
 10
116.784112
 20
57.436118
 30
0.0
 10
116.875111
 20
57.271131
 30
0.0
 10
116.985110
 20
57.119126
 30
0.0
 10
117.114111
 20
56.982136
 30
0.0
 10
117.259111
 20
56.861119
 30
0.0
 10
117.418112
 20
56.761127
 30
0.0
 10
117.589111
 20
56.680130
 30
0.0
 10
117.768110
 20
56.622133
 30
0.0
 10
117.953110
 20
56.587137
 30
0.0
 10
118.141112
 20
56.575002
 30
0.0
  0
LWPOLYLINE
  5
131
100
AcDbEntity
  8
Layer_1
 62
7
100
AcDbPolyline
 90
2
 70
0
 10
118.141112
 20
56.575115
 30
0.0
 10
118.329112
 20
56.587250
 30
0.0
  0
LWPOLYLINE
  5
132
100
AcDbEntity
  8
Layer_1
 62
7
100
AcDbPolyline
 90
25
 70
0
 10
118.329112
 20
56.587137
 30
0.0
 10
118.514111
 20
56.622133
 30
0.0
 10
118.693111
 20
56.680130
 30
0.0
 10
118.864112
 20
56.761127
 30
0.0
 10
119.023110
 20
56.861119
 30
0.0
 10
119.168110
 20
56.982136
 30
0.0
 10
119.297111
 20
57.119126
 30
0.0
 10
119.407110
 20
57.271131
 30
0.0
 10
119.498110
 20
57.436118
 30
0.0
 10
119.568112
 20
57.611124
 30
0.0
 10
119.614112
 20
57.794117
 30
0.0
 10
119.638101
 20
57.981118
 30
0.0
 10
119.638112
 20
58.169134
 30
0.0
 10
119.614123
 20
58.356134
 30
0.0
 10
119.568112
 20
58.539127
 30
0.0
 10
119.498110
 20
58.714133
 30
0.0
 10
119.407110
 20
58.879120
 30
0.0
 10
119.297111
 20
59.031125
 30
0.0
 10
119.168110
 20
59.168116
 30
0.0
 10
119.023110
 20
59.289133
 30
0.0
 10
118.864112
 20
59.389124
 30
0.0
 10
118.693111
 20
59.470122
 30
0.0
 10
118.514111
 20
59.528119
 30
0.0
 10
118.329112
 20
59.563114
 30
0.0
 10
118.141112
 20
59.575250
 30
0.0
  0
LWPOLYLINE
  5
133
100
AcDbEntity
  8
Layer_1
 62
7
100
AcDbPolyline
 90
2
 70
0
 10
118.141112
 20
59.575137
 30
0.0
 10
117.953110
 20
59.563001
 30
0.0
  0
LWPOLYLINE
  5
134
100
AcDbEntity
  8
Layer_1
 62
7
100
AcDbPolyline
 90
12
 70
0
 10
117.953110
 20
59.563114
 30
0.0
 10
117.768110
 20
59.528119
 30
0.0
 10
117.589111
 20
59.470122
 30
0.0
 10
117.418112
 20
59.389124
 30
0.0
 10
117.259111
 20
59.289133
 30
0.0
 10
117.114111
 20
59.168116
 30
0.0
 10
116.985110
 20
59.031125
 30
0.0
 10
116.875111
 20
58.879120
 30
0.0
 10
116.784112
 20
58.714133
 30
0.0
 10
116.714112
 20
58.539127
 30
0.0
 10
116.668113
 20
58.356134
 30
0.0
 10
116.644124
 20
58.169134
 30
0.0
  0
ENDSEC
  0
SECTION
  2
OBJECTS
  0
DICTIONARY
  5
C
330
0
100
AcDbDictionary
  3
ACAD_GROUP
350
D
  3
ACAD_MLINESTYLE
350
17
  0
DICTIONARY
  5
D
330
C
100
AcDbDictionary
  0
DICTIONARY
  5
1A
330
C
100
AcDbDictionary
  0
DICTIONARY
  5
17
330
C
100
AcDbDictionary
  3
STANDARD
350
18
  0
DICTIONARY
  5
19
330
C
100
AcDbDictionary
  0
ENDSEC
  0
EOF
