  0
SECTION
  2
BLOCKS
  0
ENDSEC
  0
SECTION
  2
ENTITIES
  0
LINE
  8
0
 10
-62
 11
-61.905
 20
8
 21
9.504
  0
LINE
  8
0
 10
-61.905
 11
-61.623
 20
9.504
 21
10.984
  0
LINE
  8
0
 10
-61.623
 11
-61.157
 20
10.984
 21
12.417
  0
LINE
  8
0
 10
-61.157
 11
-60.516
 20
12.417
 21
13.781
  0
LINE
  8
0
 10
-60.516
 11
-59.708
 20
13.781
 21
15.053
  0
LINE
  8
0
 10
-59.708
 11
-58.748
 20
15.053
 21
16.215
  0
LINE
  8
0
 10
-58.748
 11
-57.649
 20
16.215
 21
17.246
  0
LINE
  8
0
 10
-57.649
 11
-56.43
 20
17.246
 21
18.132
  0
LINE
  8
0
 10
-56.43
 11
-55.109
 20
18.132
 21
18.858
  0
LINE
  8
0
 10
-55.109
 11
-53.708
 20
18.858
 21
19.413
  0
LINE
  8
0
 10
-53.708
 11
-52.249
 20
19.413
 21
19.787
  0
LINE
  8
0
 10
-52.249
 11
-50.753
 20
19.787
 21
19.976
  0
LINE
  8
0
 10
-50.753
 11
50.753
 20
19.976
 21
19.976
  0
LINE
  8
0
 10
50.753
 11
52.249
 20
19.976
 21
19.787
  0
LINE
  8
0
 10
52.249
 11
53.708
 20
19.787
 21
19.413
  0
LINE
  8
0
 10
53.708
 11
55.109
 20
19.413
 21
18.858
  0
LINE
  8
0
 10
55.109
 11
56.43
 20
18.858
 21
18.132
  0
LINE
  8
0
 10
56.43
 11
57.649
 20
18.132
 21
17.246
  0
LINE
  8
0
 10
57.649
 11
58.748
 20
17.246
 21
16.215
  0
LINE
  8
0
 10
58.748
 11
59.708
 20
16.215
 21
15.053
  0
LINE
  8
0
 10
59.708
 11
60.516
 20
15.053
 21
13.781
  0
LINE
  8
0
 10
60.516
 11
61.157
 20
13.781
 21
12.417
  0
LINE
  8
0
 10
61.157
 11
61.623
 20
12.417
 21
10.984
  0
LINE
  8
0
 10
61.623
 11
61.905
 20
10.984
 21
9.504
  0
LINE
  8
0
 10
61.905
 11
62
 20
9.504
 21
8
  0
LINE
  8
0
 10
62
 11
61.905
 20
8
 21
6.496
  0
LINE
  8
0
 10
61.905
 11
61.623
 20
6.496
 21
5.016
  0
LINE
  8
0
 10
61.623
 11
61.157
 20
5.016
 21
3.583
  0
LINE
  8
0
 10
61.157
 11
60.516
 20
3.583
 21
2.219
  0
LINE
  8
0
 10
60.516
 11
59.708
 20
2.219
 21
0.947
  0
LINE
  8
0
 10
59.708
 11
58.748
 20
0.947
 21
-0.215
  0
LINE
  8
0
 10
58.748
 11
57.649
 20
-0.215
 21
-1.246
  0
LINE
  8
0
 10
57.649
 11
56.43
 20
-1.246
 21
-2.132
  0
LINE
  8
0
 10
56.43
 11
55.109
 20
-2.132
 21
-2.858
  0
LINE
  8
0
 10
55.109
 11
23.832
 20
-2.858
 21
-19.143
  0
LINE
  8
0
 10
23.832
 11
22.781
 20
-19.143
 21
-19.56
  0
LINE
  8
0
 10
22.781
 11
21.686
 20
-19.56
 21
-19.841
  0
LINE
  8
0
 10
21.686
 11
20.565
 20
-19.841
 21
-19.982
  0
LINE
  8
0
 10
20.565
 11
-20.565
 20
-19.982
 21
-19.982
  0
LINE
  8
0
 10
-20.565
 11
-21.686
 20
-19.982
 21
-19.841
  0
LINE
  8
0
 10
-21.686
 11
-22.781
 20
-19.841
 21
-19.56
  0
LINE
  8
0
 10
-22.781
 11
-23.832
 20
-19.56
 21
-19.143
  0
LINE
  8
0
 10
-23.832
 11
-55.109
 20
-19.143
 21
-2.858
  0
LINE
  8
0
 10
-55.109
 11
-56.43
 20
-2.858
 21
-2.132
  0
LINE
  8
0
 10
-56.43
 11
-57.649
 20
-2.132
 21
-1.246
  0
LINE
  8
0
 10
-57.649
 11
-58.748
 20
-1.246
 21
-0.215
  0
LINE
  8
0
 10
-58.748
 11
-59.708
 20
-0.215
 21
0.947
  0
LINE
  8
0
 10
-59.708
 11
-60.516
 20
0.947
 21
2.219
  0
LINE
  8
0
 10
-60.516
 11
-61.157
 20
2.219
 21
3.583
  0
LINE
  8
0
 10
-61.157
 11
-61.623
 20
3.583
 21
5.016
  0
LINE
  8
0
 10
-61.623
 11
-61.905
 20
5.016
 21
6.496
  0
LINE
  8
0
 10
-61.905
 11
-62
 20
6.496
 21
8
  0
LINE
  8
0
 10
-57.5
 11
-57.488
 20
2
 21
2.188
  0
LINE
  8
0
 10
-57.488
 11
-57.453
 20
2.188
 21
2.373
  0
LINE
  8
0
 10
-57.453
 11
-57.395
 20
2.373
 21
2.552
  0
LINE
  8
0
 10
-57.395
 11
-57.314
 20
2.552
 21
2.723
  0
LINE
  8
0
 10
-57.314
 11
-57.214
 20
2.723
 21
2.882
  0
LINE
  8
0
 10
-57.214
 11
-57.093
 20
2.882
 21
3.027
  0
LINE
  8
0
 10
-57.093
 11
-56.956
 20
3.027
 21
3.156
  0
LINE
  8
0
 10
-56.956
 11
-56.804
 20
3.156
 21
3.266
  0
LINE
  8
0
 10
-56.804
 11
-56.639
 20
3.266
 21
3.357
  0
LINE
  8
0
 10
-56.639
 11
-56.464
 20
3.357
 21
3.427
  0
LINE
  8
0
 10
-56.464
 11
-56.281
 20
3.427
 21
3.473
  0
LINE
  8
0
 10
-56.281
 11
-56.094
 20
3.473
 21
3.497
  0
LINE
  8
0
 10
-56.094
 11
-55.906
 20
3.497
 21
3.497
  0
LINE
  8
0
 10
-55.906
 11
-55.719
 20
3.497
 21
3.473
  0
LINE
  8
0
 10
-55.719
 11
-55.536
 20
3.473
 21
3.427
  0
LINE
  8
0
 10
-55.536
 11
-55.361
 20
3.427
 21
3.357
  0
LINE
  8
0
 10
-55.361
 11
-55.196
 20
3.357
 21
3.266
  0
LINE
  8
0
 10
-55.196
 11
-55.044
 20
3.266
 21
3.156
  0
LINE
  8
0
 10
-55.044
 11
-54.907
 20
3.156
 21
3.027
  0
LINE
  8
0
 10
-54.907
 11
-54.786
 20
3.027
 21
2.882
  0
LINE
  8
0
 10
-54.786
 11
-54.686
 20
2.882
 21
2.723
  0
LINE
  8
0
 10
-54.686
 11
-54.605
 20
2.723
 21
2.552
  0
LINE
  8
0
 10
-54.605
 11
-54.547
 20
2.552
 21
2.373
  0
LINE
  8
0
 10
-54.547
 11
-54.512
 20
2.373
 21
2.188
  0
LINE
  8
0
 10
-54.512
 11
-54.5
 20
2.188
 21
2
  0
LINE
  8
0
 10
-54.5
 11
-54.512
 20
2
 21
1.812
  0
LINE
  8
0
 10
-54.512
 11
-54.547
 20
1.812
 21
1.627
  0
LINE
  8
0
 10
-54.547
 11
-54.605
 20
1.627
 21
1.448
  0
LINE
  8
0
 10
-54.605
 11
-54.686
 20
1.448
 21
1.277
  0
LINE
  8
0
 10
-54.686
 11
-54.786
 20
1.277
 21
1.118
  0
LINE
  8
0
 10
-54.786
 11
-54.907
 20
1.118
 21
0.973
  0
LINE
  8
0
 10
-54.907
 11
-55.044
 20
0.973
 21
0.844
  0
LINE
  8
0
 10
-55.044
 11
-55.196
 20
0.844
 21
0.734
  0
LINE
  8
0
 10
-55.196
 11
-55.361
 20
0.734
 21
0.643
  0
LINE
  8
0
 10
-55.361
 11
-55.536
 20
0.643
 21
0.573
  0
LINE
  8
0
 10
-55.536
 11
-55.719
 20
0.573
 21
0.527
  0
LINE
  8
0
 10
-55.719
 11
-55.906
 20
0.527
 21
0.503
  0
LINE
  8
0
 10
-55.906
 11
-56.094
 20
0.503
 21
0.503
  0
LINE
  8
0
 10
-56.094
 11
-56.281
 20
0.503
 21
0.527
  0
LINE
  8
0
 10
-56.281
 11
-56.464
 20
0.527
 21
0.573
  0
LINE
  8
0
 10
-56.464
 11
-56.639
 20
0.573
 21
0.643
  0
LINE
  8
0
 10
-56.639
 11
-56.804
 20
0.643
 21
0.734
  0
LINE
  8
0
 10
-56.804
 11
-56.956
 20
0.734
 21
0.844
  0
LINE
  8
0
 10
-56.956
 11
-57.093
 20
0.844
 21
0.973
  0
LINE
  8
0
 10
-57.093
 11
-57.214
 20
0.973
 21
1.118
  0
LINE
  8
0
 10
-57.214
 11
-57.314
 20
1.118
 21
1.277
  0
LINE
  8
0
 10
-57.314
 11
-57.395
 20
1.277
 21
1.448
  0
LINE
  8
0
 10
-57.395
 11
-57.453
 20
1.448
 21
1.627
  0
LINE
  8
0
 10
-57.453
 11
-57.488
 20
1.627
 21
1.812
  0
LINE
  8
0
 10
-57.488
 11
-57.5
 20
1.812
 21
2
  0
LINE
  8
0
 10
-57.497
 11
-57.497
 20
13.906
 21
14.094
  0
LINE
  8
0
 10
-57.497
 11
-57.473
 20
14.094
 21
14.281
  0
LINE
  8
0
 10
-57.473
 11
-57.427
 20
14.281
 21
14.464
  0
LINE
  8
0
 10
-57.427
 11
-57.357
 20
14.464
 21
14.639
  0
LINE
  8
0
 10
-57.357
 11
-57.266
 20
14.639
 21
14.804
  0
LINE
  8
0
 10
-57.266
 11
-57.156
 20
14.804
 21
14.956
  0
LINE
  8
0
 10
-57.156
 11
-57.027
 20
14.956
 21
15.093
  0
LINE
  8
0
 10
-57.027
 11
-56.882
 20
15.093
 21
15.214
  0
LINE
  8
0
 10
-56.882
 11
-56.723
 20
15.214
 21
15.314
  0
LINE
  8
0
 10
-56.723
 11
-56.552
 20
15.314
 21
15.395
  0
LINE
  8
0
 10
-56.552
 11
-56.373
 20
15.395
 21
15.453
  0
LINE
  8
0
 10
-56.373
 11
-56.188
 20
15.453
 21
15.488
  0
LINE
  8
0
 10
-56.188
 11
-56
 20
15.488
 21
15.5
  0
LINE
  8
0
 10
-56
 11
-55.812
 20
15.5
 21
15.488
  0
LINE
  8
0
 10
-55.812
 11
-55.627
 20
15.488
 21
15.453
  0
LINE
  8
0
 10
-55.627
 11
-55.448
 20
15.453
 21
15.395
  0
LINE
  8
0
 10
-55.448
 11
-55.277
 20
15.395
 21
15.314
  0
LINE
  8
0
 10
-55.277
 11
-55.118
 20
15.314
 21
15.214
  0
LINE
  8
0
 10
-55.118
 11
-54.973
 20
15.214
 21
15.093
  0
LINE
  8
0
 10
-54.973
 11
-54.844
 20
15.093
 21
14.956
  0
LINE
  8
0
 10
-54.844
 11
-54.734
 20
14.956
 21
14.804
  0
LINE
  8
0
 10
-54.734
 11
-54.643
 20
14.804
 21
14.639
  0
LINE
  8
0
 10
-54.643
 11
-54.573
 20
14.639
 21
14.464
  0
LINE
  8
0
 10
-54.573
 11
-54.527
 20
14.464
 21
14.281
  0
LINE
  8
0
 10
-54.527
 11
-54.503
 20
14.281
 21
14.094
  0
LINE
  8
0
 10
-54.503
 11
-54.503
 20
14.094
 21
13.906
  0
LINE
  8
0
 10
-54.503
 11
-54.527
 20
13.906
 21
13.719
  0
LINE
  8
0
 10
-54.527
 11
-54.573
 20
13.719
 21
13.536
  0
LINE
  8
0
 10
-54.573
 11
-54.643
 20
13.536
 21
13.361
  0
LINE
  8
0
 10
-54.643
 11
-54.734
 20
13.361
 21
13.196
  0
LINE
  8
0
 10
-54.734
 11
-54.844
 20
13.196
 21
13.044
  0
LINE
  8
0
 10
-54.844
 11
-54.973
 20
13.044
 21
12.907
  0
LINE
  8
0
 10
-54.973
 11
-55.118
 20
12.907
 21
12.786
  0
LINE
  8
0
 10
-55.118
 11
-55.277
 20
12.786
 21
12.686
  0
LINE
  8
0
 10
-55.277
 11
-55.448
 20
12.686
 21
12.605
  0
LINE
  8
0
 10
-55.448
 11
-55.627
 20
12.605
 21
12.547
  0
LINE
  8
0
 10
-55.627
 11
-55.812
 20
12.547
 21
12.512
  0
LINE
  8
0
 10
-55.812
 11
-56
 20
12.512
 21
12.5
  0
LINE
  8
0
 10
-56
 11
-56.188
 20
12.5
 21
12.512
  0
LINE
  8
0
 10
-56.188
 11
-56.373
 20
12.512
 21
12.547
  0
LINE
  8
0
 10
-56.373
 11
-56.552
 20
12.547
 21
12.605
  0
LINE
  8
0
 10
-56.552
 11
-56.723
 20
12.605
 21
12.686
  0
LINE
  8
0
 10
-56.723
 11
-56.882
 20
12.686
 21
12.786
  0
LINE
  8
0
 10
-56.882
 11
-57.027
 20
12.786
 21
12.907
  0
LINE
  8
0
 10
-57.027
 11
-57.156
 20
12.907
 21
13.044
  0
LINE
  8
0
 10
-57.156
 11
-57.266
 20
13.044
 21
13.196
  0
LINE
  8
0
 10
-57.266
 11
-57.357
 20
13.196
 21
13.361
  0
LINE
  8
0
 10
-57.357
 11
-57.427
 20
13.361
 21
13.536
  0
LINE
  8
0
 10
-57.427
 11
-57.473
 20
13.536
 21
13.719
  0
LINE
  8
0
 10
-57.473
 11
-57.497
 20
13.719
 21
13.906
  0
LINE
  8
0
 10
-54
 11
-53.968
 20
8
 21
8.501
  0
LINE
  8
0
 10
-53.968
 11
-53.874
 20
8.501
 21
8.995
  0
LINE
  8
0
 10
-53.874
 11
-53.719
 20
8.995
 21
9.472
  0
LINE
  8
0
 10
-53.719
 11
-53.505
 20
9.472
 21
9.927
  0
LINE
  8
0
 10
-53.505
 11
-53.236
 20
9.927
 21
10.351
  0
LINE
  8
0
 10
-53.236
 11
-52.916
 20
10.351
 21
10.738
  0
LINE
  8
0
 10
-52.916
 11
-52.55
 20
10.738
 21
11.082
  0
LINE
  8
0
 10
-52.55
 11
-52.143
 20
11.082
 21
11.377
  0
LINE
  8
0
 10
-52.143
 11
-51.703
 20
11.377
 21
11.619
  0
LINE
  8
0
 10
-51.703
 11
-51.236
 20
11.619
 21
11.804
  0
LINE
  8
0
 10
-51.236
 11
-50.75
 20
11.804
 21
11.929
  0
LINE
  8
0
 10
-50.75
 11
-50.251
 20
11.929
 21
11.992
  0
LINE
  8
0
 10
-50.251
 11
-49.749
 20
11.992
 21
11.992
  0
LINE
  8
0
 10
-49.749
 11
-49.25
 20
11.992
 21
11.929
  0
LINE
  8
0
 10
-49.25
 11
-48.764
 20
11.929
 21
11.804
  0
LINE
  8
0
 10
-48.764
 11
-48.297
 20
11.804
 21
11.619
  0
LINE
  8
0
 10
-48.297
 11
-47.857
 20
11.619
 21
11.377
  0
LINE
  8
0
 10
-47.857
 11
-47.45
 20
11.377
 21
11.082
  0
LINE
  8
0
 10
-47.45
 11
-47.084
 20
11.082
 21
10.738
  0
LINE
  8
0
 10
-47.084
 11
-46.764
 20
10.738
 21
10.351
  0
LINE
  8
0
 10
-46.764
 11
-46.495
 20
10.351
 21
9.927
  0
LINE
  8
0
 10
-46.495
 11
-46.281
 20
9.927
 21
9.472
  0
LINE
  8
0
 10
-46.281
 11
-46.126
 20
9.472
 21
8.995
  0
LINE
  8
0
 10
-46.126
 11
-46.032
 20
8.995
 21
8.501
  0
LINE
  8
0
 10
-46.032
 11
-46
 20
8.501
 21
8
  0
LINE
  8
0
 10
-46
 11
-46.032
 20
8
 21
7.499
  0
LINE
  8
0
 10
-46.032
 11
-46.126
 20
7.499
 21
7.005
  0
LINE
  8
0
 10
-46.126
 11
-46.281
 20
7.005
 21
6.528
  0
LINE
  8
0
 10
-46.281
 11
-46.495
 20
6.528
 21
6.073
  0
LINE
  8
0
 10
-46.495
 11
-46.764
 20
6.073
 21
5.649
  0
LINE
  8
0
 10
-46.764
 11
-47.084
 20
5.649
 21
5.262
  0
LINE
  8
0
 10
-47.084
 11
-47.45
 20
5.262
 21
4.918
  0
LINE
  8
0
 10
-47.45
 11
-47.857
 20
4.918
 21
4.623
  0
LINE
  8
0
 10
-47.857
 11
-48.297
 20
4.623
 21
4.381
  0
LINE
  8
0
 10
-48.297
 11
-48.764
 20
4.381
 21
4.196
  0
LINE
  8
0
 10
-48.764
 11
-49.25
 20
4.196
 21
4.071
  0
LINE
  8
0
 10
-49.25
 11
-49.749
 20
4.071
 21
4.008
  0
LINE
  8
0
 10
-49.749
 11
-50.251
 20
4.008
 21
4.008
  0
LINE
  8
0
 10
-50.251
 11
-50.75
 20
4.008
 21
4.071
  0
LINE
  8
0
 10
-50.75
 11
-51.236
 20
4.071
 21
4.196
  0
LINE
  8
0
 10
-51.236
 11
-51.703
 20
4.196
 21
4.381
  0
LINE
  8
0
 10
-51.703
 11
-52.143
 20
4.381
 21
4.623
  0
LINE
  8
0
 10
-52.143
 11
-52.55
 20
4.623
 21
4.918
  0
LINE
  8
0
 10
-52.55
 11
-52.916
 20
4.918
 21
5.262
  0
LINE
  8
0
 10
-52.916
 11
-53.236
 20
5.262
 21
5.649
  0
LINE
  8
0
 10
-53.236
 11
-53.505
 20
5.649
 21
6.073
  0
LINE
  8
0
 10
-53.505
 11
-53.719
 20
6.073
 21
6.528
  0
LINE
  8
0
 10
-53.719
 11
-53.874
 20
6.528
 21
7.005
  0
LINE
  8
0
 10
-53.874
 11
-53.968
 20
7.005
 21
7.499
  0
LINE
  8
0
 10
-53.968
 11
-54
 20
7.499
 21
8
  0
LINE
  8
0
 10
-45.5
 11
-45.488
 20
14
 21
14.188
  0
LINE
  8
0
 10
-45.488
 11
-45.453
 20
14.188
 21
14.373
  0
LINE
  8
0
 10
-45.453
 11
-45.395
 20
14.373
 21
14.552
  0
LINE
  8
0
 10
-45.395
 11
-45.314
 20
14.552
 21
14.723
  0
LINE
  8
0
 10
-45.314
 11
-45.214
 20
14.723
 21
14.882
  0
LINE
  8
0
 10
-45.214
 11
-45.093
 20
14.882
 21
15.027
  0
LINE
  8
0
 10
-45.093
 11
-44.956
 20
15.027
 21
15.156
  0
LINE
  8
0
 10
-44.956
 11
-44.804
 20
15.156
 21
15.266
  0
LINE
  8
0
 10
-44.804
 11
-44.639
 20
15.266
 21
15.357
  0
LINE
  8
0
 10
-44.639
 11
-44.464
 20
15.357
 21
15.427
  0
LINE
  8
0
 10
-44.464
 11
-44.281
 20
15.427
 21
15.473
  0
LINE
  8
0
 10
-44.281
 11
-44.094
 20
15.473
 21
15.497
  0
LINE
  8
0
 10
-44.094
 11
-43.906
 20
15.497
 21
15.497
  0
LINE
  8
0
 10
-43.906
 11
-43.719
 20
15.497
 21
15.473
  0
LINE
  8
0
 10
-43.719
 11
-43.536
 20
15.473
 21
15.427
  0
LINE
  8
0
 10
-43.536
 11
-43.361
 20
15.427
 21
15.357
  0
LINE
  8
0
 10
-43.361
 11
-43.196
 20
15.357
 21
15.266
  0
LINE
  8
0
 10
-43.196
 11
-43.044
 20
15.266
 21
15.156
  0
LINE
  8
0
 10
-43.044
 11
-42.907
 20
15.156
 21
15.027
  0
LINE
  8
0
 10
-42.907
 11
-42.786
 20
15.027
 21
14.882
  0
LINE
  8
0
 10
-42.786
 11
-42.686
 20
14.882
 21
14.723
  0
LINE
  8
0
 10
-42.686
 11
-42.605
 20
14.723
 21
14.552
  0
LINE
  8
0
 10
-42.605
 11
-42.547
 20
14.552
 21
14.373
  0
LINE
  8
0
 10
-42.547
 11
-42.512
 20
14.373
 21
14.188
  0
LINE
  8
0
 10
-42.512
 11
-42.5
 20
14.188
 21
14
  0
LINE
  8
0
 10
-42.5
 11
-42.512
 20
14
 21
13.812
  0
LINE
  8
0
 10
-42.512
 11
-42.547
 20
13.812
 21
13.627
  0
LINE
  8
0
 10
-42.547
 11
-42.605
 20
13.627
 21
13.448
  0
LINE
  8
0
 10
-42.605
 11
-42.686
 20
13.448
 21
13.277
  0
LINE
  8
0
 10
-42.686
 11
-42.786
 20
13.277
 21
13.118
  0
LINE
  8
0
 10
-42.786
 11
-42.907
 20
13.118
 21
12.973
  0
LINE
  8
0
 10
-42.907
 11
-43.044
 20
12.973
 21
12.844
  0
LINE
  8
0
 10
-43.044
 11
-43.196
 20
12.844
 21
12.734
  0
LINE
  8
0
 10
-43.196
 11
-43.361
 20
12.734
 21
12.643
  0
LINE
  8
0
 10
-43.361
 11
-43.536
 20
12.643
 21
12.573
  0
LINE
  8
0
 10
-43.536
 11
-43.719
 20
12.573
 21
12.527
  0
LINE
  8
0
 10
-43.719
 11
-43.906
 20
12.527
 21
12.503
  0
LINE
  8
0
 10
-43.906
 11
-44.094
 20
12.503
 21
12.503
  0
LINE
  8
0
 10
-44.094
 11
-44.281
 20
12.503
 21
12.527
  0
LINE
  8
0
 10
-44.281
 11
-44.464
 20
12.527
 21
12.573
  0
LINE
  8
0
 10
-44.464
 11
-44.639
 20
12.573
 21
12.643
  0
LINE
  8
0
 10
-44.639
 11
-44.804
 20
12.643
 21
12.734
  0
LINE
  8
0
 10
-44.804
 11
-44.956
 20
12.734
 21
12.844
  0
LINE
  8
0
 10
-44.956
 11
-45.093
 20
12.844
 21
12.973
  0
LINE
  8
0
 10
-45.093
 11
-45.214
 20
12.973
 21
13.118
  0
LINE
  8
0
 10
-45.214
 11
-45.314
 20
13.118
 21
13.277
  0
LINE
  8
0
 10
-45.314
 11
-45.395
 20
13.277
 21
13.448
  0
LINE
  8
0
 10
-45.395
 11
-45.453
 20
13.448
 21
13.627
  0
LINE
  8
0
 10
-45.453
 11
-45.488
 20
13.627
 21
13.812
  0
LINE
  8
0
 10
-45.488
 11
-45.5
 20
13.812
 21
14
  0
LINE
  8
0
 10
-45.497
 11
-45.497
 20
1.906
 21
2.094
  0
LINE
  8
0
 10
-45.497
 11
-45.473
 20
2.094
 21
2.281
  0
LINE
  8
0
 10
-45.473
 11
-45.427
 20
2.281
 21
2.464
  0
LINE
  8
0
 10
-45.427
 11
-45.357
 20
2.464
 21
2.639
  0
LINE
  8
0
 10
-45.357
 11
-45.266
 20
2.639
 21
2.804
  0
LINE
  8
0
 10
-45.266
 11
-45.156
 20
2.804
 21
2.956
  0
LINE
  8
0
 10
-45.156
 11
-45.027
 20
2.956
 21
3.093
  0
LINE
  8
0
 10
-45.027
 11
-44.882
 20
3.093
 21
3.214
  0
LINE
  8
0
 10
-44.882
 11
-44.723
 20
3.214
 21
3.314
  0
LINE
  8
0
 10
-44.723
 11
-44.552
 20
3.314
 21
3.395
  0
LINE
  8
0
 10
-44.552
 11
-44.373
 20
3.395
 21
3.453
  0
LINE
  8
0
 10
-44.373
 11
-44.188
 20
3.453
 21
3.488
  0
LINE
  8
0
 10
-44.188
 11
-44
 20
3.488
 21
3.5
  0
LINE
  8
0
 10
-44
 11
-43.812
 20
3.5
 21
3.488
  0
LINE
  8
0
 10
-43.812
 11
-43.627
 20
3.488
 21
3.453
  0
LINE
  8
0
 10
-43.627
 11
-43.448
 20
3.453
 21
3.395
  0
LINE
  8
0
 10
-43.448
 11
-43.277
 20
3.395
 21
3.314
  0
LINE
  8
0
 10
-43.277
 11
-43.118
 20
3.314
 21
3.214
  0
LINE
  8
0
 10
-43.118
 11
-42.973
 20
3.214
 21
3.093
  0
LINE
  8
0
 10
-42.973
 11
-42.844
 20
3.093
 21
2.956
  0
LINE
  8
0
 10
-42.844
 11
-42.734
 20
2.956
 21
2.804
  0
LINE
  8
0
 10
-42.734
 11
-42.643
 20
2.804
 21
2.639
  0
LINE
  8
0
 10
-42.643
 11
-42.573
 20
2.639
 21
2.464
  0
LINE
  8
0
 10
-42.573
 11
-42.527
 20
2.464
 21
2.281
  0
LINE
  8
0
 10
-42.527
 11
-42.503
 20
2.281
 21
2.094
  0
LINE
  8
0
 10
-42.503
 11
-42.503
 20
2.094
 21
1.906
  0
LINE
  8
0
 10
-42.503
 11
-42.527
 20
1.906
 21
1.719
  0
LINE
  8
0
 10
-42.527
 11
-42.573
 20
1.719
 21
1.536
  0
LINE
  8
0
 10
-42.573
 11
-42.643
 20
1.536
 21
1.361
  0
LINE
  8
0
 10
-42.643
 11
-42.734
 20
1.361
 21
1.196
  0
LINE
  8
0
 10
-42.734
 11
-42.844
 20
1.196
 21
1.044
  0
LINE
  8
0
 10
-42.844
 11
-42.973
 20
1.044
 21
0.907
  0
LINE
  8
0
 10
-42.973
 11
-43.118
 20
0.907
 21
0.786
  0
LINE
  8
0
 10
-43.118
 11
-43.277
 20
0.786
 21
0.686
  0
LINE
  8
0
 10
-43.277
 11
-43.448
 20
0.686
 21
0.605
  0
LINE
  8
0
 10
-43.448
 11
-43.627
 20
0.605
 21
0.547
  0
LINE
  8
0
 10
-43.627
 11
-43.812
 20
0.547
 21
0.512
  0
LINE
  8
0
 10
-43.812
 11
-44
 20
0.512
 21
0.5
  0
LINE
  8
0
 10
-44
 11
-44.188
 20
0.5
 21
0.512
  0
LINE
  8
0
 10
-44.188
 11
-44.373
 20
0.512
 21
0.547
  0
LINE
  8
0
 10
-44.373
 11
-44.552
 20
0.547
 21
0.605
  0
LINE
  8
0
 10
-44.552
 11
-44.723
 20
0.605
 21
0.686
  0
LINE
  8
0
 10
-44.723
 11
-44.882
 20
0.686
 21
0.786
  0
LINE
  8
0
 10
-44.882
 11
-45.027
 20
0.786
 21
0.907
  0
LINE
  8
0
 10
-45.027
 11
-45.156
 20
0.907
 21
1.044
  0
LINE
  8
0
 10
-45.156
 11
-45.266
 20
1.044
 21
1.196
  0
LINE
  8
0
 10
-45.266
 11
-45.357
 20
1.196
 21
1.361
  0
LINE
  8
0
 10
-45.357
 11
-45.427
 20
1.361
 21
1.536
  0
LINE
  8
0
 10
-45.427
 11
-45.473
 20
1.536
 21
1.719
  0
LINE
  8
0
 10
-45.473
 11
-45.497
 20
1.719
 21
1.906
  0
LINE
  8
0
 10
-12.5
 11
-12.48
 20
-10
 21
-9.687
  0
LINE
  8
0
 10
-12.48
 11
-12.421
 20
-9.687
 21
-9.378
  0
LINE
  8
0
 10
-12.421
 11
-12.324
 20
-9.378
 21
-9.08
  0
LINE
  8
0
 10
-12.324
 11
-12.191
 20
-9.08
 21
-8.796
  0
LINE
  8
0
 10
-12.191
 11
-12.023
 20
-8.796
 21
-8.531
  0
LINE
  8
0
 10
-12.023
 11
-11.822
 20
-8.531
 21
-8.289
  0
LINE
  8
0
 10
-11.822
 11
-11.594
 20
-8.289
 21
-8.074
  0
LINE
  8
0
 10
-11.594
 11
-11.34
 20
-8.074
 21
-7.889
  0
LINE
  8
0
 10
-11.34
 11
-11.064
 20
-7.889
 21
-7.738
  0
LINE
  8
0
 10
-11.064
 11
-10.773
 20
-7.738
 21
-7.622
  0
LINE
  8
0
 10
-10.773
 11
-10.468
 20
-7.622
 21
-7.544
  0
LINE
  8
0
 10
-10.468
 11
-10.157
 20
-7.544
 21
-7.505
  0
LINE
  8
0
 10
-10.157
 11
-9.843
 20
-7.505
 21
-7.505
  0
LINE
  8
0
 10
-9.843
 11
-9.532
 20
-7.505
 21
-7.544
  0
LINE
  8
0
 10
-9.532
 11
-9.227
 20
-7.544
 21
-7.622
  0
LINE
  8
0
 10
-9.227
 11
-8.936
 20
-7.622
 21
-7.738
  0
LINE
  8
0
 10
-8.936
 11
-8.66
 20
-7.738
 21
-7.889
  0
LINE
  8
0
 10
-8.66
 11
-8.406
 20
-7.889
 21
-8.074
  0
LINE
  8
0
 10
-8.406
 11
-8.178
 20
-8.074
 21
-8.289
  0
LINE
  8
0
 10
-8.178
 11
-7.977
 20
-8.289
 21
-8.531
  0
LINE
  8
0
 10
-7.977
 11
-7.809
 20
-8.531
 21
-8.796
  0
LINE
  8
0
 10
-7.809
 11
-7.676
 20
-8.796
 21
-9.08
  0
LINE
  8
0
 10
-7.676
 11
-7.579
 20
-9.08
 21
-9.378
  0
LINE
  8
0
 10
-7.579
 11
-7.52
 20
-9.378
 21
-9.687
  0
LINE
  8
0
 10
-7.52
 11
-7.5
 20
-9.687
 21
-10
  0
LINE
  8
0
 10
-7.5
 11
-7.52
 20
-10
 21
-10.313
  0
LINE
  8
0
 10
-7.52
 11
-7.579
 20
-10.313
 21
-10.622
  0
LINE
  8
0
 10
-7.579
 11
-7.676
 20
-10.622
 21
-10.92
  0
LINE
  8
0
 10
-7.676
 11
-7.809
 20
-10.92
 21
-11.204
  0
LINE
  8
0
 10
-7.809
 11
-7.977
 20
-11.204
 21
-11.469
  0
LINE
  8
0
 10
-7.977
 11
-8.178
 20
-11.469
 21
-11.711
  0
LINE
  8
0
 10
-8.178
 11
-8.406
 20
-11.711
 21
-11.926
  0
LINE
  8
0
 10
-8.406
 11
-8.66
 20
-11.926
 21
-12.111
  0
LINE
  8
0
 10
-8.66
 11
-8.936
 20
-12.111
 21
-12.262
  0
LINE
  8
0
 10
-8.936
 11
-9.227
 20
-12.262
 21
-12.378
  0
LINE
  8
0
 10
-9.227
 11
-9.532
 20
-12.378
 21
-12.456
  0
LINE
  8
0
 10
-9.532
 11
-9.843
 20
-12.456
 21
-12.495
  0
LINE
  8
0
 10
-9.843
 11
-10.157
 20
-12.495
 21
-12.495
  0
LINE
  8
0
 10
-10.157
 11
-10.468
 20
-12.495
 21
-12.456
  0
LINE
  8
0
 10
-10.468
 11
-10.773
 20
-12.456
 21
-12.378
  0
LINE
  8
0
 10
-10.773
 11
-11.064
 20
-12.378
 21
-12.262
  0
LINE
  8
0
 10
-11.064
 11
-11.34
 20
-12.262
 21
-12.111
  0
LINE
  8
0
 10
-11.34
 11
-11.594
 20
-12.111
 21
-11.926
  0
LINE
  8
0
 10
-11.594
 11
-11.822
 20
-11.926
 21
-11.711
  0
LINE
  8
0
 10
-11.822
 11
-12.023
 20
-11.711
 21
-11.469
  0
LINE
  8
0
 10
-12.023
 11
-12.191
 20
-11.469
 21
-11.204
  0
LINE
  8
0
 10
-12.191
 11
-12.324
 20
-11.204
 21
-10.92
  0
LINE
  8
0
 10
-12.324
 11
-12.421
 20
-10.92
 21
-10.622
  0
LINE
  8
0
 10
-12.421
 11
-12.48
 20
-10.622
 21
-10.313
  0
LINE
  8
0
 10
-12.48
 11
-12.5
 20
-10.313
 21
-10
  0
LINE
  8
0
 10
7.5
 11
7.52
 20
-10
 21
-9.687
  0
LINE
  8
0
 10
7.52
 11
7.579
 20
-9.687
 21
-9.378
  0
LINE
  8
0
 10
7.579
 11
7.676
 20
-9.378
 21
-9.08
  0
LINE
  8
0
 10
7.676
 11
7.809
 20
-9.08
 21
-8.796
  0
LINE
  8
0
 10
7.809
 11
7.977
 20
-8.796
 21
-8.531
  0
LINE
  8
0
 10
7.977
 11
8.178
 20
-8.531
 21
-8.289
  0
LINE
  8
0
 10
8.178
 11
8.406
 20
-8.289
 21
-8.074
  0
LINE
  8
0
 10
8.406
 11
8.66
 20
-8.074
 21
-7.889
  0
LINE
  8
0
 10
8.66
 11
8.936
 20
-7.889
 21
-7.738
  0
LINE
  8
0
 10
8.936
 11
9.227
 20
-7.738
 21
-7.622
  0
LINE
  8
0
 10
9.227
 11
9.532
 20
-7.622
 21
-7.544
  0
LINE
  8
0
 10
9.532
 11
9.843
 20
-7.544
 21
-7.505
  0
LINE
  8
0
 10
9.843
 11
10.157
 20
-7.505
 21
-7.505
  0
LINE
  8
0
 10
10.157
 11
10.468
 20
-7.505
 21
-7.544
  0
LINE
  8
0
 10
10.468
 11
10.773
 20
-7.544
 21
-7.622
  0
LINE
  8
0
 10
10.773
 11
11.064
 20
-7.622
 21
-7.738
  0
LINE
  8
0
 10
11.064
 11
11.34
 20
-7.738
 21
-7.889
  0
LINE
  8
0
 10
11.34
 11
11.594
 20
-7.889
 21
-8.074
  0
LINE
  8
0
 10
11.594
 11
11.822
 20
-8.074
 21
-8.289
  0
LINE
  8
0
 10
11.822
 11
12.023
 20
-8.289
 21
-8.531
  0
LINE
  8
0
 10
12.023
 11
12.191
 20
-8.531
 21
-8.796
  0
LINE
  8
0
 10
12.191
 11
12.324
 20
-8.796
 21
-9.08
  0
LINE
  8
0
 10
12.324
 11
12.421
 20
-9.08
 21
-9.378
  0
LINE
  8
0
 10
12.421
 11
12.48
 20
-9.378
 21
-9.687
  0
LINE
  8
0
 10
12.48
 11
12.5
 20
-9.687
 21
-10
  0
LINE
  8
0
 10
12.5
 11
12.48
 20
-10
 21
-10.313
  0
LINE
  8
0
 10
12.48
 11
12.421
 20
-10.313
 21
-10.622
  0
LINE
  8
0
 10
12.421
 11
12.324
 20
-10.622
 21
-10.92
  0
LINE
  8
0
 10
12.324
 11
12.191
 20
-10.92
 21
-11.204
  0
LINE
  8
0
 10
12.191
 11
12.023
 20
-11.204
 21
-11.469
  0
LINE
  8
0
 10
12.023
 11
11.822
 20
-11.469
 21
-11.711
  0
LINE
  8
0
 10
11.822
 11
11.594
 20
-11.711
 21
-11.926
  0
LINE
  8
0
 10
11.594
 11
11.34
 20
-11.926
 21
-12.111
  0
LINE
  8
0
 10
11.34
 11
11.064
 20
-12.111
 21
-12.262
  0
LINE
  8
0
 10
11.064
 11
10.773
 20
-12.262
 21
-12.378
  0
LINE
  8
0
 10
10.773
 11
10.468
 20
-12.378
 21
-12.456
  0
LINE
  8
0
 10
10.468
 11
10.157
 20
-12.456
 21
-12.495
  0
LINE
  8
0
 10
10.157
 11
9.843
 20
-12.495
 21
-12.495
  0
LINE
  8
0
 10
9.843
 11
9.532
 20
-12.495
 21
-12.456
  0
LINE
  8
0
 10
9.532
 11
9.227
 20
-12.456
 21
-12.378
  0
LINE
  8
0
 10
9.227
 11
8.936
 20
-12.378
 21
-12.262
  0
LINE
  8
0
 10
8.936
 11
8.66
 20
-12.262
 21
-12.111
  0
LINE
  8
0
 10
8.66
 11
8.406
 20
-12.111
 21
-11.926
  0
LINE
  8
0
 10
8.406
 11
8.178
 20
-11.926
 21
-11.711
  0
LINE
  8
0
 10
8.178
 11
7.977
 20
-11.711
 21
-11.469
  0
LINE
  8
0
 10
7.977
 11
7.809
 20
-11.469
 21
-11.204
  0
LINE
  8
0
 10
7.809
 11
7.676
 20
-11.204
 21
-10.92
  0
LINE
  8
0
 10
7.676
 11
7.579
 20
-10.92
 21
-10.622
  0
LINE
  8
0
 10
7.579
 11
7.52
 20
-10.622
 21
-10.313
  0
LINE
  8
0
 10
7.52
 11
7.5
 20
-10.313
 21
-10
  0
LINE
  8
0
 10
42.5
 11
42.512
 20
2
 21
2.188
  0
LINE
  8
0
 10
42.512
 11
42.547
 20
2.188
 21
2.373
  0
LINE
  8
0
 10
42.547
 11
42.605
 20
2.373
 21
2.552
  0
LINE
  8
0
 10
42.605
 11
42.686
 20
2.552
 21
2.723
  0
LINE
  8
0
 10
42.686
 11
42.786
 20
2.723
 21
2.882
  0
LINE
  8
0
 10
42.786
 11
42.907
 20
2.882
 21
3.027
  0
LINE
  8
0
 10
42.907
 11
43.044
 20
3.027
 21
3.156
  0
LINE
  8
0
 10
43.044
 11
43.196
 20
3.156
 21
3.266
  0
LINE
  8
0
 10
43.196
 11
43.361
 20
3.266
 21
3.357
  0
LINE
  8
0
 10
43.361
 11
43.536
 20
3.357
 21
3.427
  0
LINE
  8
0
 10
43.536
 11
43.719
 20
3.427
 21
3.473
  0
LINE
  8
0
 10
43.719
 11
43.906
 20
3.473
 21
3.497
  0
LINE
  8
0
 10
43.906
 11
44.094
 20
3.497
 21
3.497
  0
LINE
  8
0
 10
44.094
 11
44.281
 20
3.497
 21
3.473
  0
LINE
  8
0
 10
44.281
 11
44.464
 20
3.473
 21
3.427
  0
LINE
  8
0
 10
44.464
 11
44.639
 20
3.427
 21
3.357
  0
LINE
  8
0
 10
44.639
 11
44.804
 20
3.357
 21
3.266
  0
LINE
  8
0
 10
44.804
 11
44.956
 20
3.266
 21
3.156
  0
LINE
  8
0
 10
44.956
 11
45.093
 20
3.156
 21
3.027
  0
LINE
  8
0
 10
45.093
 11
45.214
 20
3.027
 21
2.882
  0
LINE
  8
0
 10
45.214
 11
45.314
 20
2.882
 21
2.723
  0
LINE
  8
0
 10
45.314
 11
45.395
 20
2.723
 21
2.552
  0
LINE
  8
0
 10
45.395
 11
45.453
 20
2.552
 21
2.373
  0
LINE
  8
0
 10
45.453
 11
45.488
 20
2.373
 21
2.188
  0
LINE
  8
0
 10
45.488
 11
45.5
 20
2.188
 21
2
  0
LINE
  8
0
 10
45.5
 11
45.488
 20
2
 21
1.812
  0
LINE
  8
0
 10
45.488
 11
45.453
 20
1.812
 21
1.627
  0
LINE
  8
0
 10
45.453
 11
45.395
 20
1.627
 21
1.448
  0
LINE
  8
0
 10
45.395
 11
45.314
 20
1.448
 21
1.277
  0
LINE
  8
0
 10
45.314
 11
45.214
 20
1.277
 21
1.118
  0
LINE
  8
0
 10
45.214
 11
45.093
 20
1.118
 21
0.973
  0
LINE
  8
0
 10
45.093
 11
44.956
 20
0.973
 21
0.844
  0
LINE
  8
0
 10
44.956
 11
44.804
 20
0.844
 21
0.734
  0
LINE
  8
0
 10
44.804
 11
44.639
 20
0.734
 21
0.643
  0
LINE
  8
0
 10
44.639
 11
44.464
 20
0.643
 21
0.573
  0
LINE
  8
0
 10
44.464
 11
44.281
 20
0.573
 21
0.527
  0
LINE
  8
0
 10
44.281
 11
44.094
 20
0.527
 21
0.503
  0
LINE
  8
0
 10
44.094
 11
43.906
 20
0.503
 21
0.503
  0
LINE
  8
0
 10
43.906
 11
43.719
 20
0.503
 21
0.527
  0
LINE
  8
0
 10
43.719
 11
43.536
 20
0.527
 21
0.573
  0
LINE
  8
0
 10
43.536
 11
43.361
 20
0.573
 21
0.643
  0
LINE
  8
0
 10
43.361
 11
43.196
 20
0.643
 21
0.734
  0
LINE
  8
0
 10
43.196
 11
43.044
 20
0.734
 21
0.844
  0
LINE
  8
0
 10
43.044
 11
42.907
 20
0.844
 21
0.973
  0
LINE
  8
0
 10
42.907
 11
42.786
 20
0.973
 21
1.118
  0
LINE
  8
0
 10
42.786
 11
42.686
 20
1.118
 21
1.277
  0
LINE
  8
0
 10
42.686
 11
42.605
 20
1.277
 21
1.448
  0
LINE
  8
0
 10
42.605
 11
42.547
 20
1.448
 21
1.627
  0
LINE
  8
0
 10
42.547
 11
42.512
 20
1.627
 21
1.812
  0
LINE
  8
0
 10
42.512
 11
42.5
 20
1.812
 21
2
  0
LINE
  8
0
 10
42.503
 11
42.503
 20
13.906
 21
14.094
  0
LINE
  8
0
 10
42.503
 11
42.527
 20
14.094
 21
14.281
  0
LINE
  8
0
 10
42.527
 11
42.573
 20
14.281
 21
14.464
  0
LINE
  8
0
 10
42.573
 11
42.643
 20
14.464
 21
14.639
  0
LINE
  8
0
 10
42.643
 11
42.734
 20
14.639
 21
14.804
  0
LINE
  8
0
 10
42.734
 11
42.844
 20
14.804
 21
14.956
  0
LINE
  8
0
 10
42.844
 11
42.973
 20
14.956
 21
15.093
  0
LINE
  8
0
 10
42.973
 11
43.118
 20
15.093
 21
15.214
  0
LINE
  8
0
 10
43.118
 11
43.277
 20
15.214
 21
15.314
  0
LINE
  8
0
 10
43.277
 11
43.448
 20
15.314
 21
15.395
  0
LINE
  8
0
 10
43.448
 11
43.627
 20
15.395
 21
15.453
  0
LINE
  8
0
 10
43.627
 11
43.812
 20
15.453
 21
15.488
  0
LINE
  8
0
 10
43.812
 11
44
 20
15.488
 21
15.5
  0
LINE
  8
0
 10
44
 11
44.188
 20
15.5
 21
15.488
  0
LINE
  8
0
 10
44.188
 11
44.373
 20
15.488
 21
15.453
  0
LINE
  8
0
 10
44.373
 11
44.552
 20
15.453
 21
15.395
  0
LINE
  8
0
 10
44.552
 11
44.723
 20
15.395
 21
15.314
  0
LINE
  8
0
 10
44.723
 11
44.882
 20
15.314
 21
15.214
  0
LINE
  8
0
 10
44.882
 11
45.027
 20
15.214
 21
15.093
  0
LINE
  8
0
 10
45.027
 11
45.156
 20
15.093
 21
14.956
  0
LINE
  8
0
 10
45.156
 11
45.266
 20
14.956
 21
14.804
  0
LINE
  8
0
 10
45.266
 11
45.357
 20
14.804
 21
14.639
  0
LINE
  8
0
 10
45.357
 11
45.427
 20
14.639
 21
14.464
  0
LINE
  8
0
 10
45.427
 11
45.473
 20
14.464
 21
14.281
  0
LINE
  8
0
 10
45.473
 11
45.497
 20
14.281
 21
14.094
  0
LINE
  8
0
 10
45.497
 11
45.497
 20
14.094
 21
13.906
  0
LINE
  8
0
 10
45.497
 11
45.473
 20
13.906
 21
13.719
  0
LINE
  8
0
 10
45.473
 11
45.427
 20
13.719
 21
13.536
  0
LINE
  8
0
 10
45.427
 11
45.357
 20
13.536
 21
13.361
  0
LINE
  8
0
 10
45.357
 11
45.266
 20
13.361
 21
13.196
  0
LINE
  8
0
 10
45.266
 11
45.156
 20
13.196
 21
13.044
  0
LINE
  8
0
 10
45.156
 11
45.027
 20
13.044
 21
12.907
  0
LINE
  8
0
 10
45.027
 11
44.882
 20
12.907
 21
12.786
  0
LINE
  8
0
 10
44.882
 11
44.723
 20
12.786
 21
12.686
  0
LINE
  8
0
 10
44.723
 11
44.552
 20
12.686
 21
12.605
  0
LINE
  8
0
 10
44.552
 11
44.373
 20
12.605
 21
12.547
  0
LINE
  8
0
 10
44.373
 11
44.188
 20
12.547
 21
12.512
  0
LINE
  8
0
 10
44.188
 11
44
 20
12.512
 21
12.5
  0
LINE
  8
0
 10
44
 11
43.812
 20
12.5
 21
12.512
  0
LINE
  8
0
 10
43.812
 11
43.627
 20
12.512
 21
12.547
  0
LINE
  8
0
 10
43.627
 11
43.448
 20
12.547
 21
12.605
  0
LINE
  8
0
 10
43.448
 11
43.277
 20
12.605
 21
12.686
  0
LINE
  8
0
 10
43.277
 11
43.118
 20
12.686
 21
12.786
  0
LINE
  8
0
 10
43.118
 11
42.973
 20
12.786
 21
12.907
  0
LINE
  8
0
 10
42.973
 11
42.844
 20
12.907
 21
13.044
  0
LINE
  8
0
 10
42.844
 11
42.734
 20
13.044
 21
13.196
  0
LINE
  8
0
 10
42.734
 11
42.643
 20
13.196
 21
13.361
  0
LINE
  8
0
 10
42.643
 11
42.573
 20
13.361
 21
13.536
  0
LINE
  8
0
 10
42.573
 11
42.527
 20
13.536
 21
13.719
  0
LINE
  8
0
 10
42.527
 11
42.503
 20
13.719
 21
13.906
  0
LINE
  8
0
 10
46
 11
46.032
 20
8
 21
8.501
  0
LINE
  8
0
 10
46.032
 11
46.126
 20
8.501
 21
8.995
  0
LINE
  8
0
 10
46.126
 11
46.281
 20
8.995
 21
9.472
  0
LINE
  8
0
 10
46.281
 11
46.495
 20
9.472
 21
9.927
  0
LINE
  8
0
 10
46.495
 11
46.764
 20
9.927
 21
10.351
  0
LINE
  8
0
 10
46.764
 11
47.084
 20
10.351
 21
10.738
  0
LINE
  8
0
 10
47.084
 11
47.45
 20
10.738
 21
11.082
  0
LINE
  8
0
 10
47.45
 11
47.857
 20
11.082
 21
11.377
  0
LINE
  8
0
 10
47.857
 11
48.297
 20
11.377
 21
11.619
  0
LINE
  8
0
 10
48.297
 11
48.764
 20
11.619
 21
11.804
  0
LINE
  8
0
 10
48.764
 11
49.25
 20
11.804
 21
11.929
  0
LINE
  8
0
 10
49.25
 11
49.749
 20
11.929
 21
11.992
  0
LINE
  8
0
 10
49.749
 11
50.251
 20
11.992
 21
11.992
  0
LINE
  8
0
 10
50.251
 11
50.75
 20
11.992
 21
11.929
  0
LINE
  8
0
 10
50.75
 11
51.236
 20
11.929
 21
11.804
  0
LINE
  8
0
 10
51.236
 11
51.703
 20
11.804
 21
11.619
  0
LINE
  8
0
 10
51.703
 11
52.143
 20
11.619
 21
11.377
  0
LINE
  8
0
 10
52.143
 11
52.55
 20
11.377
 21
11.082
  0
LINE
  8
0
 10
52.55
 11
52.916
 20
11.082
 21
10.738
  0
LINE
  8
0
 10
52.916
 11
53.236
 20
10.738
 21
10.351
  0
LINE
  8
0
 10
53.236
 11
53.505
 20
10.351
 21
9.927
  0
LINE
  8
0
 10
53.505
 11
53.719
 20
9.927
 21
9.472
  0
LINE
  8
0
 10
53.719
 11
53.874
 20
9.472
 21
8.995
  0
LINE
  8
0
 10
53.874
 11
53.968
 20
8.995
 21
8.501
  0
LINE
  8
0
 10
53.968
 11
54
 20
8.501
 21
8
  0
LINE
  8
0
 10
54
 11
53.968
 20
8
 21
7.499
  0
LINE
  8
0
 10
53.968
 11
53.874
 20
7.499
 21
7.005
  0
LINE
  8
0
 10
53.874
 11
53.719
 20
7.005
 21
6.528
  0
LINE
  8
0
 10
53.719
 11
53.505
 20
6.528
 21
6.073
  0
LINE
  8
0
 10
53.505
 11
53.236
 20
6.073
 21
5.649
  0
LINE
  8
0
 10
53.236
 11
52.916
 20
5.649
 21
5.262
  0
LINE
  8
0
 10
52.916
 11
52.55
 20
5.262
 21
4.918
  0
LINE
  8
0
 10
52.55
 11
52.143
 20
4.918
 21
4.623
  0
LINE
  8
0
 10
52.143
 11
51.703
 20
4.623
 21
4.381
  0
LINE
  8
0
 10
51.703
 11
51.236
 20
4.381
 21
4.196
  0
LINE
  8
0
 10
51.236
 11
50.75
 20
4.196
 21
4.071
  0
LINE
  8
0
 10
50.75
 11
50.251
 20
4.071
 21
4.008
  0
LINE
  8
0
 10
50.251
 11
49.749
 20
4.008
 21
4.008
  0
LINE
  8
0
 10
49.749
 11
49.25
 20
4.008
 21
4.071
  0
LINE
  8
0
 10
49.25
 11
48.764
 20
4.071
 21
4.196
  0
LINE
  8
0
 10
48.764
 11
48.297
 20
4.196
 21
4.381
  0
LINE
  8
0
 10
48.297
 11
47.857
 20
4.381
 21
4.623
  0
LINE
  8
0
 10
47.857
 11
47.45
 20
4.623
 21
4.918
  0
LINE
  8
0
 10
47.45
 11
47.084
 20
4.918
 21
5.262
  0
LINE
  8
0
 10
47.084
 11
46.764
 20
5.262
 21
5.649
  0
LINE
  8
0
 10
46.764
 11
46.495
 20
5.649
 21
6.073
  0
LINE
  8
0
 10
46.495
 11
46.281
 20
6.073
 21
6.528
  0
LINE
  8
0
 10
46.281
 11
46.126
 20
6.528
 21
7.005
  0
LINE
  8
0
 10
46.126
 11
46.032
 20
7.005
 21
7.499
  0
LINE
  8
0
 10
46.032
 11
46
 20
7.499
 21
8
  0
LINE
  8
0
 10
54.5
 11
54.512
 20
14
 21
14.188
  0
LINE
  8
0
 10
54.512
 11
54.547
 20
14.188
 21
14.373
  0
LINE
  8
0
 10
54.547
 11
54.605
 20
14.373
 21
14.552
  0
LINE
  8
0
 10
54.605
 11
54.686
 20
14.552
 21
14.723
  0
LINE
  8
0
 10
54.686
 11
54.786
 20
14.723
 21
14.882
  0
LINE
  8
0
 10
54.786
 11
54.907
 20
14.882
 21
15.027
  0
LINE
  8
0
 10
54.907
 11
55.044
 20
15.027
 21
15.156
  0
LINE
  8
0
 10
55.044
 11
55.196
 20
15.156
 21
15.266
  0
LINE
  8
0
 10
55.196
 11
55.361
 20
15.266
 21
15.357
  0
LINE
  8
0
 10
55.361
 11
55.536
 20
15.357
 21
15.427
  0
LINE
  8
0
 10
55.536
 11
55.719
 20
15.427
 21
15.473
  0
LINE
  8
0
 10
55.719
 11
55.906
 20
15.473
 21
15.497
  0
LINE
  8
0
 10
55.906
 11
56.094
 20
15.497
 21
15.497
  0
LINE
  8
0
 10
56.094
 11
56.281
 20
15.497
 21
15.473
  0
LINE
  8
0
 10
56.281
 11
56.464
 20
15.473
 21
15.427
  0
LINE
  8
0
 10
56.464
 11
56.639
 20
15.427
 21
15.357
  0
LINE
  8
0
 10
56.639
 11
56.804
 20
15.357
 21
15.266
  0
LINE
  8
0
 10
56.804
 11
56.956
 20
15.266
 21
15.156
  0
LINE
  8
0
 10
56.956
 11
57.093
 20
15.156
 21
15.027
  0
LINE
  8
0
 10
57.093
 11
57.214
 20
15.027
 21
14.882
  0
LINE
  8
0
 10
57.214
 11
57.314
 20
14.882
 21
14.723
  0
LINE
  8
0
 10
57.314
 11
57.395
 20
14.723
 21
14.552
  0
LINE
  8
0
 10
57.395
 11
57.453
 20
14.552
 21
14.373
  0
LINE
  8
0
 10
57.453
 11
57.488
 20
14.373
 21
14.188
  0
LINE
  8
0
 10
57.488
 11
57.5
 20
14.188
 21
14
  0
LINE
  8
0
 10
57.5
 11
57.488
 20
14
 21
13.812
  0
LINE
  8
0
 10
57.488
 11
57.453
 20
13.812
 21
13.627
  0
LINE
  8
0
 10
57.453
 11
57.395
 20
13.627
 21
13.448
  0
LINE
  8
0
 10
57.395
 11
57.314
 20
13.448
 21
13.277
  0
LINE
  8
0
 10
57.314
 11
57.214
 20
13.277
 21
13.118
  0
LINE
  8
0
 10
57.214
 11
57.093
 20
13.118
 21
12.973
  0
LINE
  8
0
 10
57.093
 11
56.956
 20
12.973
 21
12.844
  0
LINE
  8
0
 10
56.956
 11
56.804
 20
12.844
 21
12.734
  0
LINE
  8
0
 10
56.804
 11
56.639
 20
12.734
 21
12.643
  0
LINE
  8
0
 10
56.639
 11
56.464
 20
12.643
 21
12.573
  0
LINE
  8
0
 10
56.464
 11
56.281
 20
12.573
 21
12.527
  0
LINE
  8
0
 10
56.281
 11
56.094
 20
12.527
 21
12.503
  0
LINE
  8
0
 10
56.094
 11
55.906
 20
12.503
 21
12.503
  0
LINE
  8
0
 10
55.906
 11
55.719
 20
12.503
 21
12.527
  0
LINE
  8
0
 10
55.719
 11
55.536
 20
12.527
 21
12.573
  0
LINE
  8
0
 10
55.536
 11
55.361
 20
12.573
 21
12.643
  0
LINE
  8
0
 10
55.361
 11
55.196
 20
12.643
 21
12.734
  0
LINE
  8
0
 10
55.196
 11
55.044
 20
12.734
 21
12.844
  0
LINE
  8
0
 10
55.044
 11
54.907
 20
12.844
 21
12.973
  0
LINE
  8
0
 10
54.907
 11
54.786
 20
12.973
 21
13.118
  0
LINE
  8
0
 10
54.786
 11
54.686
 20
13.118
 21
13.277
  0
LINE
  8
0
 10
54.686
 11
54.605
 20
13.277
 21
13.448
  0
LINE
  8
0
 10
54.605
 11
54.547
 20
13.448
 21
13.627
  0
LINE
  8
0
 10
54.547
 11
54.512
 20
13.627
 21
13.812
  0
LINE
  8
0
 10
54.512
 11
54.5
 20
13.812
 21
14
  0
LINE
  8
0
 10
54.503
 11
54.503
 20
1.906
 21
2.094
  0
LINE
  8
0
 10
54.503
 11
54.527
 20
2.094
 21
2.281
  0
LINE
  8
0
 10
54.527
 11
54.573
 20
2.281
 21
2.464
  0
LINE
  8
0
 10
54.573
 11
54.643
 20
2.464
 21
2.639
  0
LINE
  8
0
 10
54.643
 11
54.734
 20
2.639
 21
2.804
  0
LINE
  8
0
 10
54.734
 11
54.844
 20
2.804
 21
2.956
  0
LINE
  8
0
 10
54.844
 11
54.973
 20
2.956
 21
3.093
  0
LINE
  8
0
 10
54.973
 11
55.118
 20
3.093
 21
3.214
  0
LINE
  8
0
 10
55.118
 11
55.277
 20
3.214
 21
3.314
  0
LINE
  8
0
 10
55.277
 11
55.448
 20
3.314
 21
3.395
  0
LINE
  8
0
 10
55.448
 11
55.627
 20
3.395
 21
3.453
  0
LINE
  8
0
 10
55.627
 11
55.812
 20
3.453
 21
3.488
  0
LINE
  8
0
 10
55.812
 11
56
 20
3.488
 21
3.5
  0
LINE
  8
0
 10
56
 11
56.188
 20
3.5
 21
3.488
  0
LINE
  8
0
 10
56.188
 11
56.373
 20
3.488
 21
3.453
  0
LINE
  8
0
 10
56.373
 11
56.552
 20
3.453
 21
3.395
  0
LINE
  8
0
 10
56.552
 11
56.723
 20
3.395
 21
3.314
  0
LINE
  8
0
 10
56.723
 11
56.882
 20
3.314
 21
3.214
  0
LINE
  8
0
 10
56.882
 11
57.027
 20
3.214
 21
3.093
  0
LINE
  8
0
 10
57.027
 11
57.156
 20
3.093
 21
2.956
  0
LINE
  8
0
 10
57.156
 11
57.266
 20
2.956
 21
2.804
  0
LINE
  8
0
 10
57.266
 11
57.357
 20
2.804
 21
2.639
  0
LINE
  8
0
 10
57.357
 11
57.427
 20
2.639
 21
2.464
  0
LINE
  8
0
 10
57.427
 11
57.473
 20
2.464
 21
2.281
  0
LINE
  8
0
 10
57.473
 11
57.497
 20
2.281
 21
2.094
  0
LINE
  8
0
 10
57.497
 11
57.497
 20
2.094
 21
1.906
  0
LINE
  8
0
 10
57.497
 11
57.473
 20
1.906
 21
1.719
  0
LINE
  8
0
 10
57.473
 11
57.427
 20
1.719
 21
1.536
  0
LINE
  8
0
 10
57.427
 11
57.357
 20
1.536
 21
1.361
  0
LINE
  8
0
 10
57.357
 11
57.266
 20
1.361
 21
1.196
  0
LINE
  8
0
 10
57.266
 11
57.156
 20
1.196
 21
1.044
  0
LINE
  8
0
 10
57.156
 11
57.027
 20
1.044
 21
0.907
  0
LINE
  8
0
 10
57.027
 11
56.882
 20
0.907
 21
0.786
  0
LINE
  8
0
 10
56.882
 11
56.723
 20
0.786
 21
0.686
  0
LINE
  8
0
 10
56.723
 11
56.552
 20
0.686
 21
0.605
  0
LINE
  8
0
 10
56.552
 11
56.373
 20
0.605
 21
0.547
  0
LINE
  8
0
 10
56.373
 11
56.188
 20
0.547
 21
0.512
  0
LINE
  8
0
 10
56.188
 11
56
 20
0.512
 21
0.5
  0
LINE
  8
0
 10
56
 11
55.812
 20
0.5
 21
0.512
  0
LINE
  8
0
 10
55.812
 11
55.627
 20
0.512
 21
0.547
  0
LINE
  8
0
 10
55.627
 11
55.448
 20
0.547
 21
0.605
  0
LINE
  8
0
 10
55.448
 11
55.277
 20
0.605
 21
0.686
  0
LINE
  8
0
 10
55.277
 11
55.118
 20
0.686
 21
0.786
  0
LINE
  8
0
 10
55.118
 11
54.973
 20
0.786
 21
0.907
  0
LINE
  8
0
 10
54.973
 11
54.844
 20
0.907
 21
1.044
  0
LINE
  8
0
 10
54.844
 11
54.734
 20
1.044
 21
1.196
  0
LINE
  8
0
 10
54.734
 11
54.643
 20
1.196
 21
1.361
  0
LINE
  8
0
 10
54.643
 11
54.573
 20
1.361
 21
1.536
  0
LINE
  8
0
 10
54.573
 11
54.527
 20
1.536
 21
1.719
  0
LINE
  8
0
 10
54.527
 11
54.503
 20
1.719
 21
1.906
  0
ENDSEC
  0
SECTION
  2
OBJECTS
  0
DICTIONARY
  0
ENDSEC
  0
EOF
