  0
SECTION
  2
BLOCKS
  0
ENDSEC
  0
SECTION
  2
ENTITIES
  0
LINE
  8
0
 10
-12
 11
-11.905
 20
0
 21
1.504
  0
LINE
  8
0
 10
-11.905
 11
-11.623
 20
1.504
 21
2.984
  0
LINE
  8
0
 10
-11.623
 11
-11.157
 20
2.984
 21
4.417
  0
LINE
  8
0
 10
-11.157
 11
-10.516
 20
4.417
 21
5.781
  0
LINE
  8
0
 10
-10.516
 11
-9.708
 20
5.781
 21
7.053
  0
LINE
  8
0
 10
-9.708
 11
-8.748
 20
7.053
 21
8.215
  0
LINE
  8
0
 10
-8.748
 11
-7.649
 20
8.215
 21
9.246
  0
LINE
  8
0
 10
-7.649
 11
-6.43
 20
9.246
 21
10.132
  0
LINE
  8
0
 10
-6.43
 11
-5.109
 20
10.132
 21
10.858
  0
LINE
  8
0
 10
-5.109
 11
-3.708
 20
10.858
 21
11.413
  0
LINE
  8
0
 10
-3.708
 11
-2.249
 20
11.413
 21
11.787
  0
LINE
  8
0
 10
-2.249
 11
-0.753
 20
11.787
 21
11.976
  0
LINE
  8
0
 10
-0.753
 11
0.753
 20
11.976
 21
11.976
  0
LINE
  8
0
 10
0.753
 11
2.249
 20
11.976
 21
11.787
  0
LINE
  8
0
 10
2.249
 11
3.708
 20
11.787
 21
11.413
  0
LINE
  8
0
 10
3.708
 11
5.109
 20
11.413
 21
10.858
  0
LINE
  8
0
 10
5.109
 11
6.43
 20
10.858
 21
10.132
  0
LINE
  8
0
 10
6.43
 11
7.649
 20
10.132
 21
9.246
  0
LINE
  8
0
 10
7.649
 11
8.748
 20
9.246
 21
8.215
  0
LINE
  8
0
 10
8.748
 11
9.708
 20
8.215
 21
7.053
  0
LINE
  8
0
 10
9.708
 11
10.516
 20
7.053
 21
5.781
  0
LINE
  8
0
 10
10.516
 11
11.157
 20
5.781
 21
4.417
  0
LINE
  8
0
 10
11.157
 11
11.623
 20
4.417
 21
2.984
  0
LINE
  8
0
 10
11.623
 11
11.905
 20
2.984
 21
1.504
  0
LINE
  8
0
 10
11.905
 11
12
 20
1.504
 21
0
  0
LINE
  8
0
 10
12
 11
11.905
 20
0
 21
-1.504
  0
LINE
  8
0
 10
11.905
 11
11.623
 20
-1.504
 21
-2.984
  0
LINE
  8
0
 10
11.623
 11
11.157
 20
-2.984
 21
-4.417
  0
LINE
  8
0
 10
11.157
 11
10.516
 20
-4.417
 21
-5.781
  0
LINE
  8
0
 10
10.516
 11
9.708
 20
-5.781
 21
-7.053
  0
LINE
  8
0
 10
9.708
 11
8.748
 20
-7.053
 21
-8.215
  0
LINE
  8
0
 10
8.748
 11
7.649
 20
-8.215
 21
-9.246
  0
LINE
  8
0
 10
7.649
 11
6.43
 20
-9.246
 21
-10.132
  0
LINE
  8
0
 10
6.43
 11
5.109
 20
-10.132
 21
-10.858
  0
LINE
  8
0
 10
5.109
 11
3.708
 20
-10.858
 21
-11.413
  0
LINE
  8
0
 10
3.708
 11
2.249
 20
-11.413
 21
-11.787
  0
LINE
  8
0
 10
2.249
 11
0.753
 20
-11.787
 21
-11.976
  0
LINE
  8
0
 10
0.753
 11
-0.753
 20
-11.976
 21
-11.976
  0
LINE
  8
0
 10
-0.753
 11
-2.249
 20
-11.976
 21
-11.787
  0
LINE
  8
0
 10
-2.249
 11
-3.708
 20
-11.787
 21
-11.413
  0
LINE
  8
0
 10
-3.708
 11
-5.109
 20
-11.413
 21
-10.858
  0
LINE
  8
0
 10
-5.109
 11
-6.43
 20
-10.858
 21
-10.132
  0
LINE
  8
0
 10
-6.43
 11
-7.649
 20
-10.132
 21
-9.246
  0
LINE
  8
0
 10
-7.649
 11
-8.748
 20
-9.246
 21
-8.215
  0
LINE
  8
0
 10
-8.748
 11
-9.708
 20
-8.215
 21
-7.053
  0
LINE
  8
0
 10
-9.708
 11
-10.516
 20
-7.053
 21
-5.781
  0
LINE
  8
0
 10
-10.516
 11
-11.157
 20
-5.781
 21
-4.417
  0
LINE
  8
0
 10
-11.157
 11
-11.623
 20
-4.417
 21
-2.984
  0
LINE
  8
0
 10
-11.623
 11
-11.905
 20
-2.984
 21
-1.504
  0
LINE
  8
0
 10
-11.905
 11
-12
 20
-1.504
 21
0
  0
LINE
  8
0
 10
-6.5
 11
-6.488
 20
-5
 21
-4.812
  0
LINE
  8
0
 10
-6.488
 11
-6.453
 20
-4.812
 21
-4.627
  0
LINE
  8
0
 10
-6.453
 11
-6.395
 20
-4.627
 21
-4.448
  0
LINE
  8
0
 10
-6.395
 11
-6.314
 20
-4.448
 21
-4.277
  0
LINE
  8
0
 10
-6.314
 11
-6.214
 20
-4.277
 21
-4.118
  0
LINE
  8
0
 10
-6.214
 11
-6.093
 20
-4.118
 21
-3.973
  0
LINE
  8
0
 10
-6.093
 11
-5.956
 20
-3.973
 21
-3.844
  0
LINE
  8
0
 10
-5.956
 11
-5.804
 20
-3.844
 21
-3.734
  0
LINE
  8
0
 10
-5.804
 11
-5.639
 20
-3.734
 21
-3.643
  0
LINE
  8
0
 10
-5.639
 11
-5.464
 20
-3.643
 21
-3.573
  0
LINE
  8
0
 10
-5.464
 11
-5.281
 20
-3.573
 21
-3.527
  0
LINE
  8
0
 10
-5.281
 11
-5.094
 20
-3.527
 21
-3.503
  0
LINE
  8
0
 10
-5.094
 11
-4.906
 20
-3.503
 21
-3.503
  0
LINE
  8
0
 10
-4.906
 11
-4.719
 20
-3.503
 21
-3.527
  0
LINE
  8
0
 10
-4.719
 11
-4.536
 20
-3.527
 21
-3.573
  0
LINE
  8
0
 10
-4.536
 11
-4.361
 20
-3.573
 21
-3.643
  0
LINE
  8
0
 10
-4.361
 11
-4.196
 20
-3.643
 21
-3.734
  0
LINE
  8
0
 10
-4.196
 11
-4.044
 20
-3.734
 21
-3.844
  0
LINE
  8
0
 10
-4.044
 11
-3.907
 20
-3.844
 21
-3.973
  0
LINE
  8
0
 10
-3.907
 11
-3.786
 20
-3.973
 21
-4.118
  0
LINE
  8
0
 10
-3.786
 11
-3.686
 20
-4.118
 21
-4.277
  0
LINE
  8
0
 10
-3.686
 11
-3.605
 20
-4.277
 21
-4.448
  0
LINE
  8
0
 10
-3.605
 11
-3.547
 20
-4.448
 21
-4.627
  0
LINE
  8
0
 10
-3.547
 11
-3.512
 20
-4.627
 21
-4.812
  0
LINE
  8
0
 10
-3.512
 11
-3.5
 20
-4.812
 21
-5
  0
LINE
  8
0
 10
-3.5
 11
-3.512
 20
-5
 21
-5.188
  0
LINE
  8
0
 10
-3.512
 11
-3.547
 20
-5.188
 21
-5.373
  0
LINE
  8
0
 10
-3.547
 11
-3.605
 20
-5.373
 21
-5.552
  0
LINE
  8
0
 10
-3.605
 11
-3.686
 20
-5.552
 21
-5.723
  0
LINE
  8
0
 10
-3.686
 11
-3.786
 20
-5.723
 21
-5.882
  0
LINE
  8
0
 10
-3.786
 11
-3.907
 20
-5.882
 21
-6.027
  0
LINE
  8
0
 10
-3.907
 11
-4.044
 20
-6.027
 21
-6.156
  0
LINE
  8
0
 10
-4.044
 11
-4.196
 20
-6.156
 21
-6.266
  0
LINE
  8
0
 10
-4.196
 11
-4.361
 20
-6.266
 21
-6.357
  0
LINE
  8
0
 10
-4.361
 11
-4.536
 20
-6.357
 21
-6.427
  0
LINE
  8
0
 10
-4.536
 11
-4.719
 20
-6.427
 21
-6.473
  0
LINE
  8
0
 10
-4.719
 11
-4.906
 20
-6.473
 21
-6.497
  0
LINE
  8
0
 10
-4.906
 11
-5.094
 20
-6.497
 21
-6.497
  0
LINE
  8
0
 10
-5.094
 11
-5.281
 20
-6.497
 21
-6.473
  0
LINE
  8
0
 10
-5.281
 11
-5.464
 20
-6.473
 21
-6.427
  0
LINE
  8
0
 10
-5.464
 11
-5.639
 20
-6.427
 21
-6.357
  0
LINE
  8
0
 10
-5.639
 11
-5.804
 20
-6.357
 21
-6.266
  0
LINE
  8
0
 10
-5.804
 11
-5.956
 20
-6.266
 21
-6.156
  0
LINE
  8
0
 10
-5.956
 11
-6.093
 20
-6.156
 21
-6.027
  0
LINE
  8
0
 10
-6.093
 11
-6.214
 20
-6.027
 21
-5.882
  0
LINE
  8
0
 10
-6.214
 11
-6.314
 20
-5.882
 21
-5.723
  0
LINE
  8
0
 10
-6.314
 11
-6.395
 20
-5.723
 21
-5.552
  0
LINE
  8
0
 10
-6.395
 11
-6.453
 20
-5.552
 21
-5.373
  0
LINE
  8
0
 10
-6.453
 11
-6.488
 20
-5.373
 21
-5.188
  0
LINE
  8
0
 10
-6.488
 11
-6.5
 20
-5.188
 21
-5
  0
LINE
  8
0
 10
-6.497
 11
-6.497
 20
4.906
 21
5.094
  0
LINE
  8
0
 10
-6.497
 11
-6.473
 20
5.094
 21
5.281
  0
LINE
  8
0
 10
-6.473
 11
-6.427
 20
5.281
 21
5.464
  0
LINE
  8
0
 10
-6.427
 11
-6.357
 20
5.464
 21
5.639
  0
LINE
  8
0
 10
-6.357
 11
-6.266
 20
5.639
 21
5.804
  0
LINE
  8
0
 10
-6.266
 11
-6.156
 20
5.804
 21
5.956
  0
LINE
  8
0
 10
-6.156
 11
-6.027
 20
5.956
 21
6.093
  0
LINE
  8
0
 10
-6.027
 11
-5.882
 20
6.093
 21
6.214
  0
LINE
  8
0
 10
-5.882
 11
-5.723
 20
6.214
 21
6.314
  0
LINE
  8
0
 10
-5.723
 11
-5.552
 20
6.314
 21
6.395
  0
LINE
  8
0
 10
-5.552
 11
-5.373
 20
6.395
 21
6.453
  0
LINE
  8
0
 10
-5.373
 11
-5.188
 20
6.453
 21
6.488
  0
LINE
  8
0
 10
-5.188
 11
-5
 20
6.488
 21
6.5
  0
LINE
  8
0
 10
-5
 11
-4.812
 20
6.5
 21
6.488
  0
LINE
  8
0
 10
-4.812
 11
-4.627
 20
6.488
 21
6.453
  0
LINE
  8
0
 10
-4.627
 11
-4.448
 20
6.453
 21
6.395
  0
LINE
  8
0
 10
-4.448
 11
-4.277
 20
6.395
 21
6.314
  0
LINE
  8
0
 10
-4.277
 11
-4.118
 20
6.314
 21
6.214
  0
LINE
  8
0
 10
-4.118
 11
-3.973
 20
6.214
 21
6.093
  0
LINE
  8
0
 10
-3.973
 11
-3.844
 20
6.093
 21
5.956
  0
LINE
  8
0
 10
-3.844
 11
-3.734
 20
5.956
 21
5.804
  0
LINE
  8
0
 10
-3.734
 11
-3.643
 20
5.804
 21
5.639
  0
LINE
  8
0
 10
-3.643
 11
-3.573
 20
5.639
 21
5.464
  0
LINE
  8
0
 10
-3.573
 11
-3.527
 20
5.464
 21
5.281
  0
LINE
  8
0
 10
-3.527
 11
-3.503
 20
5.281
 21
5.094
  0
LINE
  8
0
 10
-3.503
 11
-3.503
 20
5.094
 21
4.906
  0
LINE
  8
0
 10
-3.503
 11
-3.527
 20
4.906
 21
4.719
  0
LINE
  8
0
 10
-3.527
 11
-3.573
 20
4.719
 21
4.536
  0
LINE
  8
0
 10
-3.573
 11
-3.643
 20
4.536
 21
4.361
  0
LINE
  8
0
 10
-3.643
 11
-3.734
 20
4.361
 21
4.196
  0
LINE
  8
0
 10
-3.734
 11
-3.844
 20
4.196
 21
4.044
  0
LINE
  8
0
 10
-3.844
 11
-3.973
 20
4.044
 21
3.907
  0
LINE
  8
0
 10
-3.973
 11
-4.118
 20
3.907
 21
3.786
  0
LINE
  8
0
 10
-4.118
 11
-4.277
 20
3.786
 21
3.686
  0
LINE
  8
0
 10
-4.277
 11
-4.448
 20
3.686
 21
3.605
  0
LINE
  8
0
 10
-4.448
 11
-4.627
 20
3.605
 21
3.547
  0
LINE
  8
0
 10
-4.627
 11
-4.812
 20
3.547
 21
3.512
  0
LINE
  8
0
 10
-4.812
 11
-5
 20
3.512
 21
3.5
  0
LINE
  8
0
 10
-5
 11
-5.188
 20
3.5
 21
3.512
  0
LINE
  8
0
 10
-5.188
 11
-5.373
 20
3.512
 21
3.547
  0
LINE
  8
0
 10
-5.373
 11
-5.552
 20
3.547
 21
3.605
  0
LINE
  8
0
 10
-5.552
 11
-5.723
 20
3.605
 21
3.686
  0
LINE
  8
0
 10
-5.723
 11
-5.882
 20
3.686
 21
3.786
  0
LINE
  8
0
 10
-5.882
 11
-6.027
 20
3.786
 21
3.907
  0
LINE
  8
0
 10
-6.027
 11
-6.156
 20
3.907
 21
4.044
  0
LINE
  8
0
 10
-6.156
 11
-6.266
 20
4.044
 21
4.196
  0
LINE
  8
0
 10
-6.266
 11
-6.357
 20
4.196
 21
4.361
  0
LINE
  8
0
 10
-6.357
 11
-6.427
 20
4.361
 21
4.536
  0
LINE
  8
0
 10
-6.427
 11
-6.473
 20
4.536
 21
4.719
  0
LINE
  8
0
 10
-6.473
 11
-6.497
 20
4.719
 21
4.906
  0
LINE
  8
0
 10
3.5
 11
3.512
 20
5
 21
5.188
  0
LINE
  8
0
 10
3.512
 11
3.547
 20
5.188
 21
5.373
  0
LINE
  8
0
 10
3.547
 11
3.605
 20
5.373
 21
5.552
  0
LINE
  8
0
 10
3.605
 11
3.686
 20
5.552
 21
5.723
  0
LINE
  8
0
 10
3.686
 11
3.786
 20
5.723
 21
5.882
  0
LINE
  8
0
 10
3.786
 11
3.907
 20
5.882
 21
6.027
  0
LINE
  8
0
 10
3.907
 11
4.044
 20
6.027
 21
6.156
  0
LINE
  8
0
 10
4.044
 11
4.196
 20
6.156
 21
6.266
  0
LINE
  8
0
 10
4.196
 11
4.361
 20
6.266
 21
6.357
  0
LINE
  8
0
 10
4.361
 11
4.536
 20
6.357
 21
6.427
  0
LINE
  8
0
 10
4.536
 11
4.719
 20
6.427
 21
6.473
  0
LINE
  8
0
 10
4.719
 11
4.906
 20
6.473
 21
6.497
  0
LINE
  8
0
 10
4.906
 11
5.094
 20
6.497
 21
6.497
  0
LINE
  8
0
 10
5.094
 11
5.281
 20
6.497
 21
6.473
  0
LINE
  8
0
 10
5.281
 11
5.464
 20
6.473
 21
6.427
  0
LINE
  8
0
 10
5.464
 11
5.639
 20
6.427
 21
6.357
  0
LINE
  8
0
 10
5.639
 11
5.804
 20
6.357
 21
6.266
  0
LINE
  8
0
 10
5.804
 11
5.956
 20
6.266
 21
6.156
  0
LINE
  8
0
 10
5.956
 11
6.093
 20
6.156
 21
6.027
  0
LINE
  8
0
 10
6.093
 11
6.214
 20
6.027
 21
5.882
  0
LINE
  8
0
 10
6.214
 11
6.314
 20
5.882
 21
5.723
  0
LINE
  8
0
 10
6.314
 11
6.395
 20
5.723
 21
5.552
  0
LINE
  8
0
 10
6.395
 11
6.453
 20
5.552
 21
5.373
  0
LINE
  8
0
 10
6.453
 11
6.488
 20
5.373
 21
5.188
  0
LINE
  8
0
 10
6.488
 11
6.5
 20
5.188
 21
5
  0
LINE
  8
0
 10
6.5
 11
6.488
 20
5
 21
4.812
  0
LINE
  8
0
 10
6.488
 11
6.453
 20
4.812
 21
4.627
  0
LINE
  8
0
 10
6.453
 11
6.395
 20
4.627
 21
4.448
  0
LINE
  8
0
 10
6.395
 11
6.314
 20
4.448
 21
4.277
  0
LINE
  8
0
 10
6.314
 11
6.214
 20
4.277
 21
4.118
  0
LINE
  8
0
 10
6.214
 11
6.093
 20
4.118
 21
3.973
  0
LINE
  8
0
 10
6.093
 11
5.956
 20
3.973
 21
3.844
  0
LINE
  8
0
 10
5.956
 11
5.804
 20
3.844
 21
3.734
  0
LINE
  8
0
 10
5.804
 11
5.639
 20
3.734
 21
3.643
  0
LINE
  8
0
 10
5.639
 11
5.464
 20
3.643
 21
3.573
  0
LINE
  8
0
 10
5.464
 11
5.281
 20
3.573
 21
3.527
  0
LINE
  8
0
 10
5.281
 11
5.094
 20
3.527
 21
3.503
  0
LINE
  8
0
 10
5.094
 11
4.906
 20
3.503
 21
3.503
  0
LINE
  8
0
 10
4.906
 11
4.719
 20
3.503
 21
3.527
  0
LINE
  8
0
 10
4.719
 11
4.536
 20
3.527
 21
3.573
  0
LINE
  8
0
 10
4.536
 11
4.361
 20
3.573
 21
3.643
  0
LINE
  8
0
 10
4.361
 11
4.196
 20
3.643
 21
3.734
  0
LINE
  8
0
 10
4.196
 11
4.044
 20
3.734
 21
3.844
  0
LINE
  8
0
 10
4.044
 11
3.907
 20
3.844
 21
3.973
  0
LINE
  8
0
 10
3.907
 11
3.786
 20
3.973
 21
4.118
  0
LINE
  8
0
 10
3.786
 11
3.686
 20
4.118
 21
4.277
  0
LINE
  8
0
 10
3.686
 11
3.605
 20
4.277
 21
4.448
  0
LINE
  8
0
 10
3.605
 11
3.547
 20
4.448
 21
4.627
  0
LINE
  8
0
 10
3.547
 11
3.512
 20
4.627
 21
4.812
  0
LINE
  8
0
 10
3.512
 11
3.5
 20
4.812
 21
5
  0
LINE
  8
0
 10
3.503
 11
3.503
 20
-5.094
 21
-4.906
  0
LINE
  8
0
 10
3.503
 11
3.527
 20
-4.906
 21
-4.719
  0
LINE
  8
0
 10
3.527
 11
3.573
 20
-4.719
 21
-4.536
  0
LINE
  8
0
 10
3.573
 11
3.643
 20
-4.536
 21
-4.361
  0
LINE
  8
0
 10
3.643
 11
3.734
 20
-4.361
 21
-4.196
  0
LINE
  8
0
 10
3.734
 11
3.844
 20
-4.196
 21
-4.044
  0
LINE
  8
0
 10
3.844
 11
3.973
 20
-4.044
 21
-3.907
  0
LINE
  8
0
 10
3.973
 11
4.118
 20
-3.907
 21
-3.786
  0
LINE
  8
0
 10
4.118
 11
4.277
 20
-3.786
 21
-3.686
  0
LINE
  8
0
 10
4.277
 11
4.448
 20
-3.686
 21
-3.605
  0
LINE
  8
0
 10
4.448
 11
4.627
 20
-3.605
 21
-3.547
  0
LINE
  8
0
 10
4.627
 11
4.812
 20
-3.547
 21
-3.512
  0
LINE
  8
0
 10
4.812
 11
5
 20
-3.512
 21
-3.5
  0
LINE
  8
0
 10
5
 11
5.188
 20
-3.5
 21
-3.512
  0
LINE
  8
0
 10
5.188
 11
5.373
 20
-3.512
 21
-3.547
  0
LINE
  8
0
 10
5.373
 11
5.552
 20
-3.547
 21
-3.605
  0
LINE
  8
0
 10
5.552
 11
5.723
 20
-3.605
 21
-3.686
  0
LINE
  8
0
 10
5.723
 11
5.882
 20
-3.686
 21
-3.786
  0
LINE
  8
0
 10
5.882
 11
6.027
 20
-3.786
 21
-3.907
  0
LINE
  8
0
 10
6.027
 11
6.156
 20
-3.907
 21
-4.044
  0
LINE
  8
0
 10
6.156
 11
6.266
 20
-4.044
 21
-4.196
  0
LINE
  8
0
 10
6.266
 11
6.357
 20
-4.196
 21
-4.361
  0
LINE
  8
0
 10
6.357
 11
6.427
 20
-4.361
 21
-4.536
  0
LINE
  8
0
 10
6.427
 11
6.473
 20
-4.536
 21
-4.719
  0
LINE
  8
0
 10
6.473
 11
6.497
 20
-4.719
 21
-4.906
  0
LINE
  8
0
 10
6.497
 11
6.497
 20
-4.906
 21
-5.094
  0
LINE
  8
0
 10
6.497
 11
6.473
 20
-5.094
 21
-5.281
  0
LINE
  8
0
 10
6.473
 11
6.427
 20
-5.281
 21
-5.464
  0
LINE
  8
0
 10
6.427
 11
6.357
 20
-5.464
 21
-5.639
  0
LINE
  8
0
 10
6.357
 11
6.266
 20
-5.639
 21
-5.804
  0
LINE
  8
0
 10
6.266
 11
6.156
 20
-5.804
 21
-5.956
  0
LINE
  8
0
 10
6.156
 11
6.027
 20
-5.956
 21
-6.093
  0
LINE
  8
0
 10
6.027
 11
5.882
 20
-6.093
 21
-6.214
  0
LINE
  8
0
 10
5.882
 11
5.723
 20
-6.214
 21
-6.314
  0
LINE
  8
0
 10
5.723
 11
5.552
 20
-6.314
 21
-6.395
  0
LINE
  8
0
 10
5.552
 11
5.373
 20
-6.395
 21
-6.453
  0
LINE
  8
0
 10
5.373
 11
5.188
 20
-6.453
 21
-6.488
  0
LINE
  8
0
 10
5.188
 11
5
 20
-6.488
 21
-6.5
  0
LINE
  8
0
 10
5
 11
4.812
 20
-6.5
 21
-6.488
  0
LINE
  8
0
 10
4.812
 11
4.627
 20
-6.488
 21
-6.453
  0
LINE
  8
0
 10
4.627
 11
4.448
 20
-6.453
 21
-6.395
  0
LINE
  8
0
 10
4.448
 11
4.277
 20
-6.395
 21
-6.314
  0
LINE
  8
0
 10
4.277
 11
4.118
 20
-6.314
 21
-6.214
  0
LINE
  8
0
 10
4.118
 11
3.973
 20
-6.214
 21
-6.093
  0
LINE
  8
0
 10
3.973
 11
3.844
 20
-6.093
 21
-5.956
  0
LINE
  8
0
 10
3.844
 11
3.734
 20
-5.956
 21
-5.804
  0
LINE
  8
0
 10
3.734
 11
3.643
 20
-5.804
 21
-5.639
  0
LINE
  8
0
 10
3.643
 11
3.573
 20
-5.639
 21
-5.464
  0
LINE
  8
0
 10
3.573
 11
3.527
 20
-5.464
 21
-5.281
  0
LINE
  8
0
 10
3.527
 11
3.503
 20
-5.281
 21
-5.094
  0
ENDSEC
  0
SECTION
  2
OBJECTS
  0
DICTIONARY
  0
ENDSEC
  0
EOF
