  0
SECTION
  2
BLOCKS
  0
ENDSEC
  0
SECTION
  2
ENTITIES
  0
LINE
  8
0
 10
-83
 11
-82.897
 20
8
 21
9.629
  0
LINE
  8
0
 10
-82.897
 11
-82.592
 20
9.629
 21
11.233
  0
LINE
  8
0
 10
-82.592
 11
-82.087
 20
11.233
 21
12.786
  0
LINE
  8
0
 10
-82.087
 11
-81.392
 20
12.786
 21
14.263
  0
LINE
  8
0
 10
-81.392
 11
-80.517
 20
14.263
 21
15.641
  0
LINE
  8
0
 10
-80.517
 11
-79.477
 20
15.641
 21
16.899
  0
LINE
  8
0
 10
-79.477
 11
-78.287
 20
16.899
 21
18.017
  0
LINE
  8
0
 10
-78.287
 11
-76.966
 20
18.017
 21
18.976
  0
LINE
  8
0
 10
-76.966
 11
-75.535
 20
18.976
 21
19.763
  0
LINE
  8
0
 10
-75.535
 11
-74.017
 20
19.763
 21
20.364
  0
LINE
  8
0
 10
-74.017
 11
-72.436
 20
20.364
 21
20.77
  0
LINE
  8
0
 10
-72.436
 11
-70.816
 20
20.77
 21
20.974
  0
LINE
  8
0
 10
-70.816
 11
70.816
 20
20.974
 21
20.974
  0
LINE
  8
0
 10
70.816
 11
72.436
 20
20.974
 21
20.77
  0
LINE
  8
0
 10
72.436
 11
74.017
 20
20.77
 21
20.364
  0
LINE
  8
0
 10
74.017
 11
75.535
 20
20.364
 21
19.763
  0
LINE
  8
0
 10
75.535
 11
76.966
 20
19.763
 21
18.976
  0
LINE
  8
0
 10
76.966
 11
78.287
 20
18.976
 21
18.017
  0
LINE
  8
0
 10
78.287
 11
79.477
 20
18.017
 21
16.899
  0
LINE
  8
0
 10
79.477
 11
80.517
 20
16.899
 21
15.641
  0
LINE
  8
0
 10
80.517
 11
81.392
 20
15.641
 21
14.263
  0
LINE
  8
0
 10
81.392
 11
82.087
 20
14.263
 21
12.786
  0
LINE
  8
0
 10
82.087
 11
82.592
 20
12.786
 21
11.233
  0
LINE
  8
0
 10
82.592
 11
82.897
 20
11.233
 21
9.629
  0
LINE
  8
0
 10
82.897
 11
83
 20
9.629
 21
8
  0
LINE
  8
0
 10
83
 11
82.897
 20
8
 21
6.371
  0
LINE
  8
0
 10
82.897
 11
82.592
 20
6.371
 21
4.767
  0
LINE
  8
0
 10
82.592
 11
82.087
 20
4.767
 21
3.214
  0
LINE
  8
0
 10
82.087
 11
81.392
 20
3.214
 21
1.737
  0
LINE
  8
0
 10
81.392
 11
80.517
 20
1.737
 21
0.359
  0
LINE
  8
0
 10
80.517
 11
79.477
 20
0.359
 21
-0.899
  0
LINE
  8
0
 10
79.477
 11
78.287
 20
-0.899
 21
-2.017
  0
LINE
  8
0
 10
78.287
 11
76.966
 20
-2.017
 21
-2.976
  0
LINE
  8
0
 10
76.966
 11
75.535
 20
-2.976
 21
-3.763
  0
LINE
  8
0
 10
75.535
 11
74.017
 20
-3.763
 21
-4.364
  0
LINE
  8
0
 10
74.017
 11
72.436
 20
-4.364
 21
-4.77
  0
LINE
  8
0
 10
72.436
 11
70.816
 20
-4.77
 21
-4.974
  0
LINE
  8
0
 10
70.816
 11
20.628
 20
-4.974
 21
-9.98
  0
LINE
  8
0
 10
20.628
 11
-20.628
 20
-9.98
 21
-9.98
  0
LINE
  8
0
 10
-20.628
 11
-70.816
 20
-9.98
 21
-4.974
  0
LINE
  8
0
 10
-70.816
 11
-72.436
 20
-4.974
 21
-4.77
  0
LINE
  8
0
 10
-72.436
 11
-74.017
 20
-4.77
 21
-4.364
  0
LINE
  8
0
 10
-74.017
 11
-75.535
 20
-4.364
 21
-3.763
  0
LINE
  8
0
 10
-75.535
 11
-76.966
 20
-3.763
 21
-2.976
  0
LINE
  8
0
 10
-76.966
 11
-78.287
 20
-2.976
 21
-2.017
  0
LINE
  8
0
 10
-78.287
 11
-79.477
 20
-2.017
 21
-0.899
  0
LINE
  8
0
 10
-79.477
 11
-80.517
 20
-0.899
 21
0.359
  0
LINE
  8
0
 10
-80.517
 11
-81.392
 20
0.359
 21
1.737
  0
LINE
  8
0
 10
-81.392
 11
-82.087
 20
1.737
 21
3.214
  0
LINE
  8
0
 10
-82.087
 11
-82.592
 20
3.214
 21
4.767
  0
LINE
  8
0
 10
-82.592
 11
-82.897
 20
4.767
 21
6.371
  0
LINE
  8
0
 10
-82.897
 11
-83
 20
6.371
 21
8
  0
LINE
  8
0
 10
-77.5
 11
-77.488
 20
2
 21
2.188
  0
LINE
  8
0
 10
-77.488
 11
-77.453
 20
2.188
 21
2.373
  0
LINE
  8
0
 10
-77.453
 11
-77.395
 20
2.373
 21
2.552
  0
LINE
  8
0
 10
-77.395
 11
-77.314
 20
2.552
 21
2.723
  0
LINE
  8
0
 10
-77.314
 11
-77.214
 20
2.723
 21
2.882
  0
LINE
  8
0
 10
-77.214
 11
-77.093
 20
2.882
 21
3.027
  0
LINE
  8
0
 10
-77.093
 11
-76.956
 20
3.027
 21
3.156
  0
LINE
  8
0
 10
-76.956
 11
-76.804
 20
3.156
 21
3.266
  0
LINE
  8
0
 10
-76.804
 11
-76.639
 20
3.266
 21
3.357
  0
LINE
  8
0
 10
-76.639
 11
-76.464
 20
3.357
 21
3.427
  0
LINE
  8
0
 10
-76.464
 11
-76.281
 20
3.427
 21
3.473
  0
LINE
  8
0
 10
-76.281
 11
-76.094
 20
3.473
 21
3.497
  0
LINE
  8
0
 10
-76.094
 11
-75.906
 20
3.497
 21
3.497
  0
LINE
  8
0
 10
-75.906
 11
-75.719
 20
3.497
 21
3.473
  0
LINE
  8
0
 10
-75.719
 11
-75.536
 20
3.473
 21
3.427
  0
LINE
  8
0
 10
-75.536
 11
-75.361
 20
3.427
 21
3.357
  0
LINE
  8
0
 10
-75.361
 11
-75.196
 20
3.357
 21
3.266
  0
LINE
  8
0
 10
-75.196
 11
-75.044
 20
3.266
 21
3.156
  0
LINE
  8
0
 10
-75.044
 11
-74.907
 20
3.156
 21
3.027
  0
LINE
  8
0
 10
-74.907
 11
-74.786
 20
3.027
 21
2.882
  0
LINE
  8
0
 10
-74.786
 11
-74.686
 20
2.882
 21
2.723
  0
LINE
  8
0
 10
-74.686
 11
-74.605
 20
2.723
 21
2.552
  0
LINE
  8
0
 10
-74.605
 11
-74.547
 20
2.552
 21
2.373
  0
LINE
  8
0
 10
-74.547
 11
-74.512
 20
2.373
 21
2.188
  0
LINE
  8
0
 10
-74.512
 11
-74.5
 20
2.188
 21
2
  0
LINE
  8
0
 10
-74.5
 11
-74.512
 20
2
 21
1.812
  0
LINE
  8
0
 10
-74.512
 11
-74.547
 20
1.812
 21
1.627
  0
LINE
  8
0
 10
-74.547
 11
-74.605
 20
1.627
 21
1.448
  0
LINE
  8
0
 10
-74.605
 11
-74.686
 20
1.448
 21
1.277
  0
LINE
  8
0
 10
-74.686
 11
-74.786
 20
1.277
 21
1.118
  0
LINE
  8
0
 10
-74.786
 11
-74.907
 20
1.118
 21
0.973
  0
LINE
  8
0
 10
-74.907
 11
-75.044
 20
0.973
 21
0.844
  0
LINE
  8
0
 10
-75.044
 11
-75.196
 20
0.844
 21
0.734
  0
LINE
  8
0
 10
-75.196
 11
-75.361
 20
0.734
 21
0.643
  0
LINE
  8
0
 10
-75.361
 11
-75.536
 20
0.643
 21
0.573
  0
LINE
  8
0
 10
-75.536
 11
-75.719
 20
0.573
 21
0.527
  0
LINE
  8
0
 10
-75.719
 11
-75.906
 20
0.527
 21
0.503
  0
LINE
  8
0
 10
-75.906
 11
-76.094
 20
0.503
 21
0.503
  0
LINE
  8
0
 10
-76.094
 11
-76.281
 20
0.503
 21
0.527
  0
LINE
  8
0
 10
-76.281
 11
-76.464
 20
0.527
 21
0.573
  0
LINE
  8
0
 10
-76.464
 11
-76.639
 20
0.573
 21
0.643
  0
LINE
  8
0
 10
-76.639
 11
-76.804
 20
0.643
 21
0.734
  0
LINE
  8
0
 10
-76.804
 11
-76.956
 20
0.734
 21
0.844
  0
LINE
  8
0
 10
-76.956
 11
-77.093
 20
0.844
 21
0.973
  0
LINE
  8
0
 10
-77.093
 11
-77.214
 20
0.973
 21
1.118
  0
LINE
  8
0
 10
-77.214
 11
-77.314
 20
1.118
 21
1.277
  0
LINE
  8
0
 10
-77.314
 11
-77.395
 20
1.277
 21
1.448
  0
LINE
  8
0
 10
-77.395
 11
-77.453
 20
1.448
 21
1.627
  0
LINE
  8
0
 10
-77.453
 11
-77.488
 20
1.627
 21
1.812
  0
LINE
  8
0
 10
-77.488
 11
-77.5
 20
1.812
 21
2
  0
LINE
  8
0
 10
-77.497
 11
-77.497
 20
13.906
 21
14.094
  0
LINE
  8
0
 10
-77.497
 11
-77.473
 20
14.094
 21
14.281
  0
LINE
  8
0
 10
-77.473
 11
-77.427
 20
14.281
 21
14.464
  0
LINE
  8
0
 10
-77.427
 11
-77.357
 20
14.464
 21
14.639
  0
LINE
  8
0
 10
-77.357
 11
-77.266
 20
14.639
 21
14.804
  0
LINE
  8
0
 10
-77.266
 11
-77.156
 20
14.804
 21
14.956
  0
LINE
  8
0
 10
-77.156
 11
-77.027
 20
14.956
 21
15.093
  0
LINE
  8
0
 10
-77.027
 11
-76.882
 20
15.093
 21
15.214
  0
LINE
  8
0
 10
-76.882
 11
-76.723
 20
15.214
 21
15.314
  0
LINE
  8
0
 10
-76.723
 11
-76.552
 20
15.314
 21
15.395
  0
LINE
  8
0
 10
-76.552
 11
-76.373
 20
15.395
 21
15.453
  0
LINE
  8
0
 10
-76.373
 11
-76.188
 20
15.453
 21
15.488
  0
LINE
  8
0
 10
-76.188
 11
-76
 20
15.488
 21
15.5
  0
LINE
  8
0
 10
-76
 11
-75.812
 20
15.5
 21
15.488
  0
LINE
  8
0
 10
-75.812
 11
-75.627
 20
15.488
 21
15.453
  0
LINE
  8
0
 10
-75.627
 11
-75.448
 20
15.453
 21
15.395
  0
LINE
  8
0
 10
-75.448
 11
-75.277
 20
15.395
 21
15.314
  0
LINE
  8
0
 10
-75.277
 11
-75.118
 20
15.314
 21
15.214
  0
LINE
  8
0
 10
-75.118
 11
-74.973
 20
15.214
 21
15.093
  0
LINE
  8
0
 10
-74.973
 11
-74.844
 20
15.093
 21
14.956
  0
LINE
  8
0
 10
-74.844
 11
-74.734
 20
14.956
 21
14.804
  0
LINE
  8
0
 10
-74.734
 11
-74.643
 20
14.804
 21
14.639
  0
LINE
  8
0
 10
-74.643
 11
-74.573
 20
14.639
 21
14.464
  0
LINE
  8
0
 10
-74.573
 11
-74.527
 20
14.464
 21
14.281
  0
LINE
  8
0
 10
-74.527
 11
-74.503
 20
14.281
 21
14.094
  0
LINE
  8
0
 10
-74.503
 11
-74.503
 20
14.094
 21
13.906
  0
LINE
  8
0
 10
-74.503
 11
-74.527
 20
13.906
 21
13.719
  0
LINE
  8
0
 10
-74.527
 11
-74.573
 20
13.719
 21
13.536
  0
LINE
  8
0
 10
-74.573
 11
-74.643
 20
13.536
 21
13.361
  0
LINE
  8
0
 10
-74.643
 11
-74.734
 20
13.361
 21
13.196
  0
LINE
  8
0
 10
-74.734
 11
-74.844
 20
13.196
 21
13.044
  0
LINE
  8
0
 10
-74.844
 11
-74.973
 20
13.044
 21
12.907
  0
LINE
  8
0
 10
-74.973
 11
-75.118
 20
12.907
 21
12.786
  0
LINE
  8
0
 10
-75.118
 11
-75.277
 20
12.786
 21
12.686
  0
LINE
  8
0
 10
-75.277
 11
-75.448
 20
12.686
 21
12.605
  0
LINE
  8
0
 10
-75.448
 11
-75.627
 20
12.605
 21
12.547
  0
LINE
  8
0
 10
-75.627
 11
-75.812
 20
12.547
 21
12.512
  0
LINE
  8
0
 10
-75.812
 11
-76
 20
12.512
 21
12.5
  0
LINE
  8
0
 10
-76
 11
-76.188
 20
12.5
 21
12.512
  0
LINE
  8
0
 10
-76.188
 11
-76.373
 20
12.512
 21
12.547
  0
LINE
  8
0
 10
-76.373
 11
-76.552
 20
12.547
 21
12.605
  0
LINE
  8
0
 10
-76.552
 11
-76.723
 20
12.605
 21
12.686
  0
LINE
  8
0
 10
-76.723
 11
-76.882
 20
12.686
 21
12.786
  0
LINE
  8
0
 10
-76.882
 11
-77.027
 20
12.786
 21
12.907
  0
LINE
  8
0
 10
-77.027
 11
-77.156
 20
12.907
 21
13.044
  0
LINE
  8
0
 10
-77.156
 11
-77.266
 20
13.044
 21
13.196
  0
LINE
  8
0
 10
-77.266
 11
-77.357
 20
13.196
 21
13.361
  0
LINE
  8
0
 10
-77.357
 11
-77.427
 20
13.361
 21
13.536
  0
LINE
  8
0
 10
-77.427
 11
-77.473
 20
13.536
 21
13.719
  0
LINE
  8
0
 10
-77.473
 11
-77.497
 20
13.719
 21
13.906
  0
LINE
  8
0
 10
-74
 11
-73.968
 20
8
 21
8.501
  0
LINE
  8
0
 10
-73.968
 11
-73.874
 20
8.501
 21
8.995
  0
LINE
  8
0
 10
-73.874
 11
-73.719
 20
8.995
 21
9.472
  0
LINE
  8
0
 10
-73.719
 11
-73.505
 20
9.472
 21
9.927
  0
LINE
  8
0
 10
-73.505
 11
-73.236
 20
9.927
 21
10.351
  0
LINE
  8
0
 10
-73.236
 11
-72.916
 20
10.351
 21
10.738
  0
LINE
  8
0
 10
-72.916
 11
-72.55
 20
10.738
 21
11.082
  0
LINE
  8
0
 10
-72.55
 11
-72.143
 20
11.082
 21
11.377
  0
LINE
  8
0
 10
-72.143
 11
-71.703
 20
11.377
 21
11.619
  0
LINE
  8
0
 10
-71.703
 11
-71.236
 20
11.619
 21
11.804
  0
LINE
  8
0
 10
-71.236
 11
-70.75
 20
11.804
 21
11.929
  0
LINE
  8
0
 10
-70.75
 11
-70.251
 20
11.929
 21
11.992
  0
LINE
  8
0
 10
-70.251
 11
-69.749
 20
11.992
 21
11.992
  0
LINE
  8
0
 10
-69.749
 11
-69.25
 20
11.992
 21
11.929
  0
LINE
  8
0
 10
-69.25
 11
-68.764
 20
11.929
 21
11.804
  0
LINE
  8
0
 10
-68.764
 11
-68.297
 20
11.804
 21
11.619
  0
LINE
  8
0
 10
-68.297
 11
-67.857
 20
11.619
 21
11.377
  0
LINE
  8
0
 10
-67.857
 11
-67.45
 20
11.377
 21
11.082
  0
LINE
  8
0
 10
-67.45
 11
-67.084
 20
11.082
 21
10.738
  0
LINE
  8
0
 10
-67.084
 11
-66.764
 20
10.738
 21
10.351
  0
LINE
  8
0
 10
-66.764
 11
-66.495
 20
10.351
 21
9.927
  0
LINE
  8
0
 10
-66.495
 11
-66.281
 20
9.927
 21
9.472
  0
LINE
  8
0
 10
-66.281
 11
-66.126
 20
9.472
 21
8.995
  0
LINE
  8
0
 10
-66.126
 11
-66.032
 20
8.995
 21
8.501
  0
LINE
  8
0
 10
-66.032
 11
-66
 20
8.501
 21
8
  0
LINE
  8
0
 10
-66
 11
-66.032
 20
8
 21
7.499
  0
LINE
  8
0
 10
-66.032
 11
-66.126
 20
7.499
 21
7.005
  0
LINE
  8
0
 10
-66.126
 11
-66.281
 20
7.005
 21
6.528
  0
LINE
  8
0
 10
-66.281
 11
-66.495
 20
6.528
 21
6.073
  0
LINE
  8
0
 10
-66.495
 11
-66.764
 20
6.073
 21
5.649
  0
LINE
  8
0
 10
-66.764
 11
-67.084
 20
5.649
 21
5.262
  0
LINE
  8
0
 10
-67.084
 11
-67.45
 20
5.262
 21
4.918
  0
LINE
  8
0
 10
-67.45
 11
-67.857
 20
4.918
 21
4.623
  0
LINE
  8
0
 10
-67.857
 11
-68.297
 20
4.623
 21
4.381
  0
LINE
  8
0
 10
-68.297
 11
-68.764
 20
4.381
 21
4.196
  0
LINE
  8
0
 10
-68.764
 11
-69.25
 20
4.196
 21
4.071
  0
LINE
  8
0
 10
-69.25
 11
-69.749
 20
4.071
 21
4.008
  0
LINE
  8
0
 10
-69.749
 11
-70.251
 20
4.008
 21
4.008
  0
LINE
  8
0
 10
-70.251
 11
-70.75
 20
4.008
 21
4.071
  0
LINE
  8
0
 10
-70.75
 11
-71.236
 20
4.071
 21
4.196
  0
LINE
  8
0
 10
-71.236
 11
-71.703
 20
4.196
 21
4.381
  0
LINE
  8
0
 10
-71.703
 11
-72.143
 20
4.381
 21
4.623
  0
LINE
  8
0
 10
-72.143
 11
-72.55
 20
4.623
 21
4.918
  0
LINE
  8
0
 10
-72.55
 11
-72.916
 20
4.918
 21
5.262
  0
LINE
  8
0
 10
-72.916
 11
-73.236
 20
5.262
 21
5.649
  0
LINE
  8
0
 10
-73.236
 11
-73.505
 20
5.649
 21
6.073
  0
LINE
  8
0
 10
-73.505
 11
-73.719
 20
6.073
 21
6.528
  0
LINE
  8
0
 10
-73.719
 11
-73.874
 20
6.528
 21
7.005
  0
LINE
  8
0
 10
-73.874
 11
-73.968
 20
7.005
 21
7.499
  0
LINE
  8
0
 10
-73.968
 11
-74
 20
7.499
 21
8
  0
LINE
  8
0
 10
-65.5
 11
-65.488
 20
14
 21
14.188
  0
LINE
  8
0
 10
-65.488
 11
-65.453
 20
14.188
 21
14.373
  0
LINE
  8
0
 10
-65.453
 11
-65.395
 20
14.373
 21
14.552
  0
LINE
  8
0
 10
-65.395
 11
-65.314
 20
14.552
 21
14.723
  0
LINE
  8
0
 10
-65.314
 11
-65.214
 20
14.723
 21
14.882
  0
LINE
  8
0
 10
-65.214
 11
-65.093
 20
14.882
 21
15.027
  0
LINE
  8
0
 10
-65.093
 11
-64.956
 20
15.027
 21
15.156
  0
LINE
  8
0
 10
-64.956
 11
-64.804
 20
15.156
 21
15.266
  0
LINE
  8
0
 10
-64.804
 11
-64.639
 20
15.266
 21
15.357
  0
LINE
  8
0
 10
-64.639
 11
-64.464
 20
15.357
 21
15.427
  0
LINE
  8
0
 10
-64.464
 11
-64.281
 20
15.427
 21
15.473
  0
LINE
  8
0
 10
-64.281
 11
-64.094
 20
15.473
 21
15.497
  0
LINE
  8
0
 10
-64.094
 11
-63.906
 20
15.497
 21
15.497
  0
LINE
  8
0
 10
-63.906
 11
-63.719
 20
15.497
 21
15.473
  0
LINE
  8
0
 10
-63.719
 11
-63.536
 20
15.473
 21
15.427
  0
LINE
  8
0
 10
-63.536
 11
-63.361
 20
15.427
 21
15.357
  0
LINE
  8
0
 10
-63.361
 11
-63.196
 20
15.357
 21
15.266
  0
LINE
  8
0
 10
-63.196
 11
-63.044
 20
15.266
 21
15.156
  0
LINE
  8
0
 10
-63.044
 11
-62.907
 20
15.156
 21
15.027
  0
LINE
  8
0
 10
-62.907
 11
-62.786
 20
15.027
 21
14.882
  0
LINE
  8
0
 10
-62.786
 11
-62.686
 20
14.882
 21
14.723
  0
LINE
  8
0
 10
-62.686
 11
-62.605
 20
14.723
 21
14.552
  0
LINE
  8
0
 10
-62.605
 11
-62.547
 20
14.552
 21
14.373
  0
LINE
  8
0
 10
-62.547
 11
-62.512
 20
14.373
 21
14.188
  0
LINE
  8
0
 10
-62.512
 11
-62.5
 20
14.188
 21
14
  0
LINE
  8
0
 10
-62.5
 11
-62.512
 20
14
 21
13.812
  0
LINE
  8
0
 10
-62.512
 11
-62.547
 20
13.812
 21
13.627
  0
LINE
  8
0
 10
-62.547
 11
-62.605
 20
13.627
 21
13.448
  0
LINE
  8
0
 10
-62.605
 11
-62.686
 20
13.448
 21
13.277
  0
LINE
  8
0
 10
-62.686
 11
-62.786
 20
13.277
 21
13.118
  0
LINE
  8
0
 10
-62.786
 11
-62.907
 20
13.118
 21
12.973
  0
LINE
  8
0
 10
-62.907
 11
-63.044
 20
12.973
 21
12.844
  0
LINE
  8
0
 10
-63.044
 11
-63.196
 20
12.844
 21
12.734
  0
LINE
  8
0
 10
-63.196
 11
-63.361
 20
12.734
 21
12.643
  0
LINE
  8
0
 10
-63.361
 11
-63.536
 20
12.643
 21
12.573
  0
LINE
  8
0
 10
-63.536
 11
-63.719
 20
12.573
 21
12.527
  0
LINE
  8
0
 10
-63.719
 11
-63.906
 20
12.527
 21
12.503
  0
LINE
  8
0
 10
-63.906
 11
-64.094
 20
12.503
 21
12.503
  0
LINE
  8
0
 10
-64.094
 11
-64.281
 20
12.503
 21
12.527
  0
LINE
  8
0
 10
-64.281
 11
-64.464
 20
12.527
 21
12.573
  0
LINE
  8
0
 10
-64.464
 11
-64.639
 20
12.573
 21
12.643
  0
LINE
  8
0
 10
-64.639
 11
-64.804
 20
12.643
 21
12.734
  0
LINE
  8
0
 10
-64.804
 11
-64.956
 20
12.734
 21
12.844
  0
LINE
  8
0
 10
-64.956
 11
-65.093
 20
12.844
 21
12.973
  0
LINE
  8
0
 10
-65.093
 11
-65.214
 20
12.973
 21
13.118
  0
LINE
  8
0
 10
-65.214
 11
-65.314
 20
13.118
 21
13.277
  0
LINE
  8
0
 10
-65.314
 11
-65.395
 20
13.277
 21
13.448
  0
LINE
  8
0
 10
-65.395
 11
-65.453
 20
13.448
 21
13.627
  0
LINE
  8
0
 10
-65.453
 11
-65.488
 20
13.627
 21
13.812
  0
LINE
  8
0
 10
-65.488
 11
-65.5
 20
13.812
 21
14
  0
LINE
  8
0
 10
-65.497
 11
-65.497
 20
1.906
 21
2.094
  0
LINE
  8
0
 10
-65.497
 11
-65.473
 20
2.094
 21
2.281
  0
LINE
  8
0
 10
-65.473
 11
-65.427
 20
2.281
 21
2.464
  0
LINE
  8
0
 10
-65.427
 11
-65.357
 20
2.464
 21
2.639
  0
LINE
  8
0
 10
-65.357
 11
-65.266
 20
2.639
 21
2.804
  0
LINE
  8
0
 10
-65.266
 11
-65.156
 20
2.804
 21
2.956
  0
LINE
  8
0
 10
-65.156
 11
-65.027
 20
2.956
 21
3.093
  0
LINE
  8
0
 10
-65.027
 11
-64.882
 20
3.093
 21
3.214
  0
LINE
  8
0
 10
-64.882
 11
-64.723
 20
3.214
 21
3.314
  0
LINE
  8
0
 10
-64.723
 11
-64.552
 20
3.314
 21
3.395
  0
LINE
  8
0
 10
-64.552
 11
-64.373
 20
3.395
 21
3.453
  0
LINE
  8
0
 10
-64.373
 11
-64.188
 20
3.453
 21
3.488
  0
LINE
  8
0
 10
-64.188
 11
-64
 20
3.488
 21
3.5
  0
LINE
  8
0
 10
-64
 11
-63.812
 20
3.5
 21
3.488
  0
LINE
  8
0
 10
-63.812
 11
-63.627
 20
3.488
 21
3.453
  0
LINE
  8
0
 10
-63.627
 11
-63.448
 20
3.453
 21
3.395
  0
LINE
  8
0
 10
-63.448
 11
-63.277
 20
3.395
 21
3.314
  0
LINE
  8
0
 10
-63.277
 11
-63.118
 20
3.314
 21
3.214
  0
LINE
  8
0
 10
-63.118
 11
-62.973
 20
3.214
 21
3.093
  0
LINE
  8
0
 10
-62.973
 11
-62.844
 20
3.093
 21
2.956
  0
LINE
  8
0
 10
-62.844
 11
-62.734
 20
2.956
 21
2.804
  0
LINE
  8
0
 10
-62.734
 11
-62.643
 20
2.804
 21
2.639
  0
LINE
  8
0
 10
-62.643
 11
-62.573
 20
2.639
 21
2.464
  0
LINE
  8
0
 10
-62.573
 11
-62.527
 20
2.464
 21
2.281
  0
LINE
  8
0
 10
-62.527
 11
-62.503
 20
2.281
 21
2.094
  0
LINE
  8
0
 10
-62.503
 11
-62.503
 20
2.094
 21
1.906
  0
LINE
  8
0
 10
-62.503
 11
-62.527
 20
1.906
 21
1.719
  0
LINE
  8
0
 10
-62.527
 11
-62.573
 20
1.719
 21
1.536
  0
LINE
  8
0
 10
-62.573
 11
-62.643
 20
1.536
 21
1.361
  0
LINE
  8
0
 10
-62.643
 11
-62.734
 20
1.361
 21
1.196
  0
LINE
  8
0
 10
-62.734
 11
-62.844
 20
1.196
 21
1.044
  0
LINE
  8
0
 10
-62.844
 11
-62.973
 20
1.044
 21
0.907
  0
LINE
  8
0
 10
-62.973
 11
-63.118
 20
0.907
 21
0.786
  0
LINE
  8
0
 10
-63.118
 11
-63.277
 20
0.786
 21
0.686
  0
LINE
  8
0
 10
-63.277
 11
-63.448
 20
0.686
 21
0.605
  0
LINE
  8
0
 10
-63.448
 11
-63.627
 20
0.605
 21
0.547
  0
LINE
  8
0
 10
-63.627
 11
-63.812
 20
0.547
 21
0.512
  0
LINE
  8
0
 10
-63.812
 11
-64
 20
0.512
 21
0.5
  0
LINE
  8
0
 10
-64
 11
-64.188
 20
0.5
 21
0.512
  0
LINE
  8
0
 10
-64.188
 11
-64.373
 20
0.512
 21
0.547
  0
LINE
  8
0
 10
-64.373
 11
-64.552
 20
0.547
 21
0.605
  0
LINE
  8
0
 10
-64.552
 11
-64.723
 20
0.605
 21
0.686
  0
LINE
  8
0
 10
-64.723
 11
-64.882
 20
0.686
 21
0.786
  0
LINE
  8
0
 10
-64.882
 11
-65.027
 20
0.786
 21
0.907
  0
LINE
  8
0
 10
-65.027
 11
-65.156
 20
0.907
 21
1.044
  0
LINE
  8
0
 10
-65.156
 11
-65.266
 20
1.044
 21
1.196
  0
LINE
  8
0
 10
-65.266
 11
-65.357
 20
1.196
 21
1.361
  0
LINE
  8
0
 10
-65.357
 11
-65.427
 20
1.361
 21
1.536
  0
LINE
  8
0
 10
-65.427
 11
-65.473
 20
1.536
 21
1.719
  0
LINE
  8
0
 10
-65.473
 11
-65.497
 20
1.719
 21
1.906
  0
LINE
  8
0
 10
-12.5
 11
-12.48
 20
0
 21
0.313
  0
LINE
  8
0
 10
-12.48
 11
-12.421
 20
0.313
 21
0.622
  0
LINE
  8
0
 10
-12.421
 11
-12.324
 20
0.622
 21
0.92
  0
LINE
  8
0
 10
-12.324
 11
-12.191
 20
0.92
 21
1.204
  0
LINE
  8
0
 10
-12.191
 11
-12.023
 20
1.204
 21
1.469
  0
LINE
  8
0
 10
-12.023
 11
-11.822
 20
1.469
 21
1.711
  0
LINE
  8
0
 10
-11.822
 11
-11.594
 20
1.711
 21
1.926
  0
LINE
  8
0
 10
-11.594
 11
-11.34
 20
1.926
 21
2.111
  0
LINE
  8
0
 10
-11.34
 11
-11.064
 20
2.111
 21
2.262
  0
LINE
  8
0
 10
-11.064
 11
-10.773
 20
2.262
 21
2.378
  0
LINE
  8
0
 10
-10.773
 11
-10.468
 20
2.378
 21
2.456
  0
LINE
  8
0
 10
-10.468
 11
-10.157
 20
2.456
 21
2.495
  0
LINE
  8
0
 10
-10.157
 11
-9.843
 20
2.495
 21
2.495
  0
LINE
  8
0
 10
-9.843
 11
-9.532
 20
2.495
 21
2.456
  0
LINE
  8
0
 10
-9.532
 11
-9.227
 20
2.456
 21
2.378
  0
LINE
  8
0
 10
-9.227
 11
-8.936
 20
2.378
 21
2.262
  0
LINE
  8
0
 10
-8.936
 11
-8.66
 20
2.262
 21
2.111
  0
LINE
  8
0
 10
-8.66
 11
-8.406
 20
2.111
 21
1.926
  0
LINE
  8
0
 10
-8.406
 11
-8.178
 20
1.926
 21
1.711
  0
LINE
  8
0
 10
-8.178
 11
-7.977
 20
1.711
 21
1.469
  0
LINE
  8
0
 10
-7.977
 11
-7.809
 20
1.469
 21
1.204
  0
LINE
  8
0
 10
-7.809
 11
-7.676
 20
1.204
 21
0.92
  0
LINE
  8
0
 10
-7.676
 11
-7.579
 20
0.92
 21
0.622
  0
LINE
  8
0
 10
-7.579
 11
-7.52
 20
0.622
 21
0.313
  0
LINE
  8
0
 10
-7.52
 11
-7.5
 20
0.313
 21
0
  0
LINE
  8
0
 10
-7.5
 11
-7.52
 20
0
 21
-0.313
  0
LINE
  8
0
 10
-7.52
 11
-7.579
 20
-0.313
 21
-0.622
  0
LINE
  8
0
 10
-7.579
 11
-7.676
 20
-0.622
 21
-0.92
  0
LINE
  8
0
 10
-7.676
 11
-7.809
 20
-0.92
 21
-1.204
  0
LINE
  8
0
 10
-7.809
 11
-7.977
 20
-1.204
 21
-1.469
  0
LINE
  8
0
 10
-7.977
 11
-8.178
 20
-1.469
 21
-1.711
  0
LINE
  8
0
 10
-8.178
 11
-8.406
 20
-1.711
 21
-1.926
  0
LINE
  8
0
 10
-8.406
 11
-8.66
 20
-1.926
 21
-2.111
  0
LINE
  8
0
 10
-8.66
 11
-8.936
 20
-2.111
 21
-2.262
  0
LINE
  8
0
 10
-8.936
 11
-9.227
 20
-2.262
 21
-2.378
  0
LINE
  8
0
 10
-9.227
 11
-9.532
 20
-2.378
 21
-2.456
  0
LINE
  8
0
 10
-9.532
 11
-9.843
 20
-2.456
 21
-2.495
  0
LINE
  8
0
 10
-9.843
 11
-10.157
 20
-2.495
 21
-2.495
  0
LINE
  8
0
 10
-10.157
 11
-10.468
 20
-2.495
 21
-2.456
  0
LINE
  8
0
 10
-10.468
 11
-10.773
 20
-2.456
 21
-2.378
  0
LINE
  8
0
 10
-10.773
 11
-11.064
 20
-2.378
 21
-2.262
  0
LINE
  8
0
 10
-11.064
 11
-11.34
 20
-2.262
 21
-2.111
  0
LINE
  8
0
 10
-11.34
 11
-11.594
 20
-2.111
 21
-1.926
  0
LINE
  8
0
 10
-11.594
 11
-11.822
 20
-1.926
 21
-1.711
  0
LINE
  8
0
 10
-11.822
 11
-12.023
 20
-1.711
 21
-1.469
  0
LINE
  8
0
 10
-12.023
 11
-12.191
 20
-1.469
 21
-1.204
  0
LINE
  8
0
 10
-12.191
 11
-12.324
 20
-1.204
 21
-0.92
  0
LINE
  8
0
 10
-12.324
 11
-12.421
 20
-0.92
 21
-0.622
  0
LINE
  8
0
 10
-12.421
 11
-12.48
 20
-0.622
 21
-0.313
  0
LINE
  8
0
 10
-12.48
 11
-12.5
 20
-0.313
 21
0
  0
LINE
  8
0
 10
7.5
 11
7.52
 20
0
 21
0.313
  0
LINE
  8
0
 10
7.52
 11
7.579
 20
0.313
 21
0.622
  0
LINE
  8
0
 10
7.579
 11
7.676
 20
0.622
 21
0.92
  0
LINE
  8
0
 10
7.676
 11
7.809
 20
0.92
 21
1.204
  0
LINE
  8
0
 10
7.809
 11
7.977
 20
1.204
 21
1.469
  0
LINE
  8
0
 10
7.977
 11
8.178
 20
1.469
 21
1.711
  0
LINE
  8
0
 10
8.178
 11
8.406
 20
1.711
 21
1.926
  0
LINE
  8
0
 10
8.406
 11
8.66
 20
1.926
 21
2.111
  0
LINE
  8
0
 10
8.66
 11
8.936
 20
2.111
 21
2.262
  0
LINE
  8
0
 10
8.936
 11
9.227
 20
2.262
 21
2.378
  0
LINE
  8
0
 10
9.227
 11
9.532
 20
2.378
 21
2.456
  0
LINE
  8
0
 10
9.532
 11
9.843
 20
2.456
 21
2.495
  0
LINE
  8
0
 10
9.843
 11
10.157
 20
2.495
 21
2.495
  0
LINE
  8
0
 10
10.157
 11
10.468
 20
2.495
 21
2.456
  0
LINE
  8
0
 10
10.468
 11
10.773
 20
2.456
 21
2.378
  0
LINE
  8
0
 10
10.773
 11
11.064
 20
2.378
 21
2.262
  0
LINE
  8
0
 10
11.064
 11
11.34
 20
2.262
 21
2.111
  0
LINE
  8
0
 10
11.34
 11
11.594
 20
2.111
 21
1.926
  0
LINE
  8
0
 10
11.594
 11
11.822
 20
1.926
 21
1.711
  0
LINE
  8
0
 10
11.822
 11
12.023
 20
1.711
 21
1.469
  0
LINE
  8
0
 10
12.023
 11
12.191
 20
1.469
 21
1.204
  0
LINE
  8
0
 10
12.191
 11
12.324
 20
1.204
 21
0.92
  0
LINE
  8
0
 10
12.324
 11
12.421
 20
0.92
 21
0.622
  0
LINE
  8
0
 10
12.421
 11
12.48
 20
0.622
 21
0.313
  0
LINE
  8
0
 10
12.48
 11
12.5
 20
0.313
 21
0
  0
LINE
  8
0
 10
12.5
 11
12.48
 20
0
 21
-0.313
  0
LINE
  8
0
 10
12.48
 11
12.421
 20
-0.313
 21
-0.622
  0
LINE
  8
0
 10
12.421
 11
12.324
 20
-0.622
 21
-0.92
  0
LINE
  8
0
 10
12.324
 11
12.191
 20
-0.92
 21
-1.204
  0
LINE
  8
0
 10
12.191
 11
12.023
 20
-1.204
 21
-1.469
  0
LINE
  8
0
 10
12.023
 11
11.822
 20
-1.469
 21
-1.711
  0
LINE
  8
0
 10
11.822
 11
11.594
 20
-1.711
 21
-1.926
  0
LINE
  8
0
 10
11.594
 11
11.34
 20
-1.926
 21
-2.111
  0
LINE
  8
0
 10
11.34
 11
11.064
 20
-2.111
 21
-2.262
  0
LINE
  8
0
 10
11.064
 11
10.773
 20
-2.262
 21
-2.378
  0
LINE
  8
0
 10
10.773
 11
10.468
 20
-2.378
 21
-2.456
  0
LINE
  8
0
 10
10.468
 11
10.157
 20
-2.456
 21
-2.495
  0
LINE
  8
0
 10
10.157
 11
9.843
 20
-2.495
 21
-2.495
  0
LINE
  8
0
 10
9.843
 11
9.532
 20
-2.495
 21
-2.456
  0
LINE
  8
0
 10
9.532
 11
9.227
 20
-2.456
 21
-2.378
  0
LINE
  8
0
 10
9.227
 11
8.936
 20
-2.378
 21
-2.262
  0
LINE
  8
0
 10
8.936
 11
8.66
 20
-2.262
 21
-2.111
  0
LINE
  8
0
 10
8.66
 11
8.406
 20
-2.111
 21
-1.926
  0
LINE
  8
0
 10
8.406
 11
8.178
 20
-1.926
 21
-1.711
  0
LINE
  8
0
 10
8.178
 11
7.977
 20
-1.711
 21
-1.469
  0
LINE
  8
0
 10
7.977
 11
7.809
 20
-1.469
 21
-1.204
  0
LINE
  8
0
 10
7.809
 11
7.676
 20
-1.204
 21
-0.92
  0
LINE
  8
0
 10
7.676
 11
7.579
 20
-0.92
 21
-0.622
  0
LINE
  8
0
 10
7.579
 11
7.52
 20
-0.622
 21
-0.313
  0
LINE
  8
0
 10
7.52
 11
7.5
 20
-0.313
 21
0
  0
LINE
  8
0
 10
62.5
 11
62.512
 20
2
 21
2.188
  0
LINE
  8
0
 10
62.512
 11
62.547
 20
2.188
 21
2.373
  0
LINE
  8
0
 10
62.547
 11
62.605
 20
2.373
 21
2.552
  0
LINE
  8
0
 10
62.605
 11
62.686
 20
2.552
 21
2.723
  0
LINE
  8
0
 10
62.686
 11
62.786
 20
2.723
 21
2.882
  0
LINE
  8
0
 10
62.786
 11
62.907
 20
2.882
 21
3.027
  0
LINE
  8
0
 10
62.907
 11
63.044
 20
3.027
 21
3.156
  0
LINE
  8
0
 10
63.044
 11
63.196
 20
3.156
 21
3.266
  0
LINE
  8
0
 10
63.196
 11
63.361
 20
3.266
 21
3.357
  0
LINE
  8
0
 10
63.361
 11
63.536
 20
3.357
 21
3.427
  0
LINE
  8
0
 10
63.536
 11
63.719
 20
3.427
 21
3.473
  0
LINE
  8
0
 10
63.719
 11
63.906
 20
3.473
 21
3.497
  0
LINE
  8
0
 10
63.906
 11
64.094
 20
3.497
 21
3.497
  0
LINE
  8
0
 10
64.094
 11
64.281
 20
3.497
 21
3.473
  0
LINE
  8
0
 10
64.281
 11
64.464
 20
3.473
 21
3.427
  0
LINE
  8
0
 10
64.464
 11
64.639
 20
3.427
 21
3.357
  0
LINE
  8
0
 10
64.639
 11
64.804
 20
3.357
 21
3.266
  0
LINE
  8
0
 10
64.804
 11
64.956
 20
3.266
 21
3.156
  0
LINE
  8
0
 10
64.956
 11
65.093
 20
3.156
 21
3.027
  0
LINE
  8
0
 10
65.093
 11
65.214
 20
3.027
 21
2.882
  0
LINE
  8
0
 10
65.214
 11
65.314
 20
2.882
 21
2.723
  0
LINE
  8
0
 10
65.314
 11
65.395
 20
2.723
 21
2.552
  0
LINE
  8
0
 10
65.395
 11
65.453
 20
2.552
 21
2.373
  0
LINE
  8
0
 10
65.453
 11
65.488
 20
2.373
 21
2.188
  0
LINE
  8
0
 10
65.488
 11
65.5
 20
2.188
 21
2
  0
LINE
  8
0
 10
65.5
 11
65.488
 20
2
 21
1.812
  0
LINE
  8
0
 10
65.488
 11
65.453
 20
1.812
 21
1.627
  0
LINE
  8
0
 10
65.453
 11
65.395
 20
1.627
 21
1.448
  0
LINE
  8
0
 10
65.395
 11
65.314
 20
1.448
 21
1.277
  0
LINE
  8
0
 10
65.314
 11
65.214
 20
1.277
 21
1.118
  0
LINE
  8
0
 10
65.214
 11
65.093
 20
1.118
 21
0.973
  0
LINE
  8
0
 10
65.093
 11
64.956
 20
0.973
 21
0.844
  0
LINE
  8
0
 10
64.956
 11
64.804
 20
0.844
 21
0.734
  0
LINE
  8
0
 10
64.804
 11
64.639
 20
0.734
 21
0.643
  0
LINE
  8
0
 10
64.639
 11
64.464
 20
0.643
 21
0.573
  0
LINE
  8
0
 10
64.464
 11
64.281
 20
0.573
 21
0.527
  0
LINE
  8
0
 10
64.281
 11
64.094
 20
0.527
 21
0.503
  0
LINE
  8
0
 10
64.094
 11
63.906
 20
0.503
 21
0.503
  0
LINE
  8
0
 10
63.906
 11
63.719
 20
0.503
 21
0.527
  0
LINE
  8
0
 10
63.719
 11
63.536
 20
0.527
 21
0.573
  0
LINE
  8
0
 10
63.536
 11
63.361
 20
0.573
 21
0.643
  0
LINE
  8
0
 10
63.361
 11
63.196
 20
0.643
 21
0.734
  0
LINE
  8
0
 10
63.196
 11
63.044
 20
0.734
 21
0.844
  0
LINE
  8
0
 10
63.044
 11
62.907
 20
0.844
 21
0.973
  0
LINE
  8
0
 10
62.907
 11
62.786
 20
0.973
 21
1.118
  0
LINE
  8
0
 10
62.786
 11
62.686
 20
1.118
 21
1.277
  0
LINE
  8
0
 10
62.686
 11
62.605
 20
1.277
 21
1.448
  0
LINE
  8
0
 10
62.605
 11
62.547
 20
1.448
 21
1.627
  0
LINE
  8
0
 10
62.547
 11
62.512
 20
1.627
 21
1.812
  0
LINE
  8
0
 10
62.512
 11
62.5
 20
1.812
 21
2
  0
LINE
  8
0
 10
62.503
 11
62.503
 20
13.906
 21
14.094
  0
LINE
  8
0
 10
62.503
 11
62.527
 20
14.094
 21
14.281
  0
LINE
  8
0
 10
62.527
 11
62.573
 20
14.281
 21
14.464
  0
LINE
  8
0
 10
62.573
 11
62.643
 20
14.464
 21
14.639
  0
LINE
  8
0
 10
62.643
 11
62.734
 20
14.639
 21
14.804
  0
LINE
  8
0
 10
62.734
 11
62.844
 20
14.804
 21
14.956
  0
LINE
  8
0
 10
62.844
 11
62.973
 20
14.956
 21
15.093
  0
LINE
  8
0
 10
62.973
 11
63.118
 20
15.093
 21
15.214
  0
LINE
  8
0
 10
63.118
 11
63.277
 20
15.214
 21
15.314
  0
LINE
  8
0
 10
63.277
 11
63.448
 20
15.314
 21
15.395
  0
LINE
  8
0
 10
63.448
 11
63.627
 20
15.395
 21
15.453
  0
LINE
  8
0
 10
63.627
 11
63.812
 20
15.453
 21
15.488
  0
LINE
  8
0
 10
63.812
 11
64
 20
15.488
 21
15.5
  0
LINE
  8
0
 10
64
 11
64.188
 20
15.5
 21
15.488
  0
LINE
  8
0
 10
64.188
 11
64.373
 20
15.488
 21
15.453
  0
LINE
  8
0
 10
64.373
 11
64.552
 20
15.453
 21
15.395
  0
LINE
  8
0
 10
64.552
 11
64.723
 20
15.395
 21
15.314
  0
LINE
  8
0
 10
64.723
 11
64.882
 20
15.314
 21
15.214
  0
LINE
  8
0
 10
64.882
 11
65.027
 20
15.214
 21
15.093
  0
LINE
  8
0
 10
65.027
 11
65.156
 20
15.093
 21
14.956
  0
LINE
  8
0
 10
65.156
 11
65.266
 20
14.956
 21
14.804
  0
LINE
  8
0
 10
65.266
 11
65.357
 20
14.804
 21
14.639
  0
LINE
  8
0
 10
65.357
 11
65.427
 20
14.639
 21
14.464
  0
LINE
  8
0
 10
65.427
 11
65.473
 20
14.464
 21
14.281
  0
LINE
  8
0
 10
65.473
 11
65.497
 20
14.281
 21
14.094
  0
LINE
  8
0
 10
65.497
 11
65.497
 20
14.094
 21
13.906
  0
LINE
  8
0
 10
65.497
 11
65.473
 20
13.906
 21
13.719
  0
LINE
  8
0
 10
65.473
 11
65.427
 20
13.719
 21
13.536
  0
LINE
  8
0
 10
65.427
 11
65.357
 20
13.536
 21
13.361
  0
LINE
  8
0
 10
65.357
 11
65.266
 20
13.361
 21
13.196
  0
LINE
  8
0
 10
65.266
 11
65.156
 20
13.196
 21
13.044
  0
LINE
  8
0
 10
65.156
 11
65.027
 20
13.044
 21
12.907
  0
LINE
  8
0
 10
65.027
 11
64.882
 20
12.907
 21
12.786
  0
LINE
  8
0
 10
64.882
 11
64.723
 20
12.786
 21
12.686
  0
LINE
  8
0
 10
64.723
 11
64.552
 20
12.686
 21
12.605
  0
LINE
  8
0
 10
64.552
 11
64.373
 20
12.605
 21
12.547
  0
LINE
  8
0
 10
64.373
 11
64.188
 20
12.547
 21
12.512
  0
LINE
  8
0
 10
64.188
 11
64
 20
12.512
 21
12.5
  0
LINE
  8
0
 10
64
 11
63.812
 20
12.5
 21
12.512
  0
LINE
  8
0
 10
63.812
 11
63.627
 20
12.512
 21
12.547
  0
LINE
  8
0
 10
63.627
 11
63.448
 20
12.547
 21
12.605
  0
LINE
  8
0
 10
63.448
 11
63.277
 20
12.605
 21
12.686
  0
LINE
  8
0
 10
63.277
 11
63.118
 20
12.686
 21
12.786
  0
LINE
  8
0
 10
63.118
 11
62.973
 20
12.786
 21
12.907
  0
LINE
  8
0
 10
62.973
 11
62.844
 20
12.907
 21
13.044
  0
LINE
  8
0
 10
62.844
 11
62.734
 20
13.044
 21
13.196
  0
LINE
  8
0
 10
62.734
 11
62.643
 20
13.196
 21
13.361
  0
LINE
  8
0
 10
62.643
 11
62.573
 20
13.361
 21
13.536
  0
LINE
  8
0
 10
62.573
 11
62.527
 20
13.536
 21
13.719
  0
LINE
  8
0
 10
62.527
 11
62.503
 20
13.719
 21
13.906
  0
LINE
  8
0
 10
66
 11
66.032
 20
8
 21
8.501
  0
LINE
  8
0
 10
66.032
 11
66.126
 20
8.501
 21
8.995
  0
LINE
  8
0
 10
66.126
 11
66.281
 20
8.995
 21
9.472
  0
LINE
  8
0
 10
66.281
 11
66.495
 20
9.472
 21
9.927
  0
LINE
  8
0
 10
66.495
 11
66.764
 20
9.927
 21
10.351
  0
LINE
  8
0
 10
66.764
 11
67.084
 20
10.351
 21
10.738
  0
LINE
  8
0
 10
67.084
 11
67.45
 20
10.738
 21
11.082
  0
LINE
  8
0
 10
67.45
 11
67.857
 20
11.082
 21
11.377
  0
LINE
  8
0
 10
67.857
 11
68.297
 20
11.377
 21
11.619
  0
LINE
  8
0
 10
68.297
 11
68.764
 20
11.619
 21
11.804
  0
LINE
  8
0
 10
68.764
 11
69.25
 20
11.804
 21
11.929
  0
LINE
  8
0
 10
69.25
 11
69.749
 20
11.929
 21
11.992
  0
LINE
  8
0
 10
69.749
 11
70.251
 20
11.992
 21
11.992
  0
LINE
  8
0
 10
70.251
 11
70.75
 20
11.992
 21
11.929
  0
LINE
  8
0
 10
70.75
 11
71.236
 20
11.929
 21
11.804
  0
LINE
  8
0
 10
71.236
 11
71.703
 20
11.804
 21
11.619
  0
LINE
  8
0
 10
71.703
 11
72.143
 20
11.619
 21
11.377
  0
LINE
  8
0
 10
72.143
 11
72.55
 20
11.377
 21
11.082
  0
LINE
  8
0
 10
72.55
 11
72.916
 20
11.082
 21
10.738
  0
LINE
  8
0
 10
72.916
 11
73.236
 20
10.738
 21
10.351
  0
LINE
  8
0
 10
73.236
 11
73.505
 20
10.351
 21
9.927
  0
LINE
  8
0
 10
73.505
 11
73.719
 20
9.927
 21
9.472
  0
LINE
  8
0
 10
73.719
 11
73.874
 20
9.472
 21
8.995
  0
LINE
  8
0
 10
73.874
 11
73.968
 20
8.995
 21
8.501
  0
LINE
  8
0
 10
73.968
 11
74
 20
8.501
 21
8
  0
LINE
  8
0
 10
74
 11
73.968
 20
8
 21
7.499
  0
LINE
  8
0
 10
73.968
 11
73.874
 20
7.499
 21
7.005
  0
LINE
  8
0
 10
73.874
 11
73.719
 20
7.005
 21
6.528
  0
LINE
  8
0
 10
73.719
 11
73.505
 20
6.528
 21
6.073
  0
LINE
  8
0
 10
73.505
 11
73.236
 20
6.073
 21
5.649
  0
LINE
  8
0
 10
73.236
 11
72.916
 20
5.649
 21
5.262
  0
LINE
  8
0
 10
72.916
 11
72.55
 20
5.262
 21
4.918
  0
LINE
  8
0
 10
72.55
 11
72.143
 20
4.918
 21
4.623
  0
LINE
  8
0
 10
72.143
 11
71.703
 20
4.623
 21
4.381
  0
LINE
  8
0
 10
71.703
 11
71.236
 20
4.381
 21
4.196
  0
LINE
  8
0
 10
71.236
 11
70.75
 20
4.196
 21
4.071
  0
LINE
  8
0
 10
70.75
 11
70.251
 20
4.071
 21
4.008
  0
LINE
  8
0
 10
70.251
 11
69.749
 20
4.008
 21
4.008
  0
LINE
  8
0
 10
69.749
 11
69.25
 20
4.008
 21
4.071
  0
LINE
  8
0
 10
69.25
 11
68.764
 20
4.071
 21
4.196
  0
LINE
  8
0
 10
68.764
 11
68.297
 20
4.196
 21
4.381
  0
LINE
  8
0
 10
68.297
 11
67.857
 20
4.381
 21
4.623
  0
LINE
  8
0
 10
67.857
 11
67.45
 20
4.623
 21
4.918
  0
LINE
  8
0
 10
67.45
 11
67.084
 20
4.918
 21
5.262
  0
LINE
  8
0
 10
67.084
 11
66.764
 20
5.262
 21
5.649
  0
LINE
  8
0
 10
66.764
 11
66.495
 20
5.649
 21
6.073
  0
LINE
  8
0
 10
66.495
 11
66.281
 20
6.073
 21
6.528
  0
LINE
  8
0
 10
66.281
 11
66.126
 20
6.528
 21
7.005
  0
LINE
  8
0
 10
66.126
 11
66.032
 20
7.005
 21
7.499
  0
LINE
  8
0
 10
66.032
 11
66
 20
7.499
 21
8
  0
LINE
  8
0
 10
74.5
 11
74.512
 20
14
 21
14.188
  0
LINE
  8
0
 10
74.512
 11
74.547
 20
14.188
 21
14.373
  0
LINE
  8
0
 10
74.547
 11
74.605
 20
14.373
 21
14.552
  0
LINE
  8
0
 10
74.605
 11
74.686
 20
14.552
 21
14.723
  0
LINE
  8
0
 10
74.686
 11
74.786
 20
14.723
 21
14.882
  0
LINE
  8
0
 10
74.786
 11
74.907
 20
14.882
 21
15.027
  0
LINE
  8
0
 10
74.907
 11
75.044
 20
15.027
 21
15.156
  0
LINE
  8
0
 10
75.044
 11
75.196
 20
15.156
 21
15.266
  0
LINE
  8
0
 10
75.196
 11
75.361
 20
15.266
 21
15.357
  0
LINE
  8
0
 10
75.361
 11
75.536
 20
15.357
 21
15.427
  0
LINE
  8
0
 10
75.536
 11
75.719
 20
15.427
 21
15.473
  0
LINE
  8
0
 10
75.719
 11
75.906
 20
15.473
 21
15.497
  0
LINE
  8
0
 10
75.906
 11
76.094
 20
15.497
 21
15.497
  0
LINE
  8
0
 10
76.094
 11
76.281
 20
15.497
 21
15.473
  0
LINE
  8
0
 10
76.281
 11
76.464
 20
15.473
 21
15.427
  0
LINE
  8
0
 10
76.464
 11
76.639
 20
15.427
 21
15.357
  0
LINE
  8
0
 10
76.639
 11
76.804
 20
15.357
 21
15.266
  0
LINE
  8
0
 10
76.804
 11
76.956
 20
15.266
 21
15.156
  0
LINE
  8
0
 10
76.956
 11
77.093
 20
15.156
 21
15.027
  0
LINE
  8
0
 10
77.093
 11
77.214
 20
15.027
 21
14.882
  0
LINE
  8
0
 10
77.214
 11
77.314
 20
14.882
 21
14.723
  0
LINE
  8
0
 10
77.314
 11
77.395
 20
14.723
 21
14.552
  0
LINE
  8
0
 10
77.395
 11
77.453
 20
14.552
 21
14.373
  0
LINE
  8
0
 10
77.453
 11
77.488
 20
14.373
 21
14.188
  0
LINE
  8
0
 10
77.488
 11
77.5
 20
14.188
 21
14
  0
LINE
  8
0
 10
77.5
 11
77.488
 20
14
 21
13.812
  0
LINE
  8
0
 10
77.488
 11
77.453
 20
13.812
 21
13.627
  0
LINE
  8
0
 10
77.453
 11
77.395
 20
13.627
 21
13.448
  0
LINE
  8
0
 10
77.395
 11
77.314
 20
13.448
 21
13.277
  0
LINE
  8
0
 10
77.314
 11
77.214
 20
13.277
 21
13.118
  0
LINE
  8
0
 10
77.214
 11
77.093
 20
13.118
 21
12.973
  0
LINE
  8
0
 10
77.093
 11
76.956
 20
12.973
 21
12.844
  0
LINE
  8
0
 10
76.956
 11
76.804
 20
12.844
 21
12.734
  0
LINE
  8
0
 10
76.804
 11
76.639
 20
12.734
 21
12.643
  0
LINE
  8
0
 10
76.639
 11
76.464
 20
12.643
 21
12.573
  0
LINE
  8
0
 10
76.464
 11
76.281
 20
12.573
 21
12.527
  0
LINE
  8
0
 10
76.281
 11
76.094
 20
12.527
 21
12.503
  0
LINE
  8
0
 10
76.094
 11
75.906
 20
12.503
 21
12.503
  0
LINE
  8
0
 10
75.906
 11
75.719
 20
12.503
 21
12.527
  0
LINE
  8
0
 10
75.719
 11
75.536
 20
12.527
 21
12.573
  0
LINE
  8
0
 10
75.536
 11
75.361
 20
12.573
 21
12.643
  0
LINE
  8
0
 10
75.361
 11
75.196
 20
12.643
 21
12.734
  0
LINE
  8
0
 10
75.196
 11
75.044
 20
12.734
 21
12.844
  0
LINE
  8
0
 10
75.044
 11
74.907
 20
12.844
 21
12.973
  0
LINE
  8
0
 10
74.907
 11
74.786
 20
12.973
 21
13.118
  0
LINE
  8
0
 10
74.786
 11
74.686
 20
13.118
 21
13.277
  0
LINE
  8
0
 10
74.686
 11
74.605
 20
13.277
 21
13.448
  0
LINE
  8
0
 10
74.605
 11
74.547
 20
13.448
 21
13.627
  0
LINE
  8
0
 10
74.547
 11
74.512
 20
13.627
 21
13.812
  0
LINE
  8
0
 10
74.512
 11
74.5
 20
13.812
 21
14
  0
LINE
  8
0
 10
74.503
 11
74.503
 20
1.906
 21
2.094
  0
LINE
  8
0
 10
74.503
 11
74.527
 20
2.094
 21
2.281
  0
LINE
  8
0
 10
74.527
 11
74.573
 20
2.281
 21
2.464
  0
LINE
  8
0
 10
74.573
 11
74.643
 20
2.464
 21
2.639
  0
LINE
  8
0
 10
74.643
 11
74.734
 20
2.639
 21
2.804
  0
LINE
  8
0
 10
74.734
 11
74.844
 20
2.804
 21
2.956
  0
LINE
  8
0
 10
74.844
 11
74.973
 20
2.956
 21
3.093
  0
LINE
  8
0
 10
74.973
 11
75.118
 20
3.093
 21
3.214
  0
LINE
  8
0
 10
75.118
 11
75.277
 20
3.214
 21
3.314
  0
LINE
  8
0
 10
75.277
 11
75.448
 20
3.314
 21
3.395
  0
LINE
  8
0
 10
75.448
 11
75.627
 20
3.395
 21
3.453
  0
LINE
  8
0
 10
75.627
 11
75.812
 20
3.453
 21
3.488
  0
LINE
  8
0
 10
75.812
 11
76
 20
3.488
 21
3.5
  0
LINE
  8
0
 10
76
 11
76.188
 20
3.5
 21
3.488
  0
LINE
  8
0
 10
76.188
 11
76.373
 20
3.488
 21
3.453
  0
LINE
  8
0
 10
76.373
 11
76.552
 20
3.453
 21
3.395
  0
LINE
  8
0
 10
76.552
 11
76.723
 20
3.395
 21
3.314
  0
LINE
  8
0
 10
76.723
 11
76.882
 20
3.314
 21
3.214
  0
LINE
  8
0
 10
76.882
 11
77.027
 20
3.214
 21
3.093
  0
LINE
  8
0
 10
77.027
 11
77.156
 20
3.093
 21
2.956
  0
LINE
  8
0
 10
77.156
 11
77.266
 20
2.956
 21
2.804
  0
LINE
  8
0
 10
77.266
 11
77.357
 20
2.804
 21
2.639
  0
LINE
  8
0
 10
77.357
 11
77.427
 20
2.639
 21
2.464
  0
LINE
  8
0
 10
77.427
 11
77.473
 20
2.464
 21
2.281
  0
LINE
  8
0
 10
77.473
 11
77.497
 20
2.281
 21
2.094
  0
LINE
  8
0
 10
77.497
 11
77.497
 20
2.094
 21
1.906
  0
LINE
  8
0
 10
77.497
 11
77.473
 20
1.906
 21
1.719
  0
LINE
  8
0
 10
77.473
 11
77.427
 20
1.719
 21
1.536
  0
LINE
  8
0
 10
77.427
 11
77.357
 20
1.536
 21
1.361
  0
LINE
  8
0
 10
77.357
 11
77.266
 20
1.361
 21
1.196
  0
LINE
  8
0
 10
77.266
 11
77.156
 20
1.196
 21
1.044
  0
LINE
  8
0
 10
77.156
 11
77.027
 20
1.044
 21
0.907
  0
LINE
  8
0
 10
77.027
 11
76.882
 20
0.907
 21
0.786
  0
LINE
  8
0
 10
76.882
 11
76.723
 20
0.786
 21
0.686
  0
LINE
  8
0
 10
76.723
 11
76.552
 20
0.686
 21
0.605
  0
LINE
  8
0
 10
76.552
 11
76.373
 20
0.605
 21
0.547
  0
LINE
  8
0
 10
76.373
 11
76.188
 20
0.547
 21
0.512
  0
LINE
  8
0
 10
76.188
 11
76
 20
0.512
 21
0.5
  0
LINE
  8
0
 10
76
 11
75.812
 20
0.5
 21
0.512
  0
LINE
  8
0
 10
75.812
 11
75.627
 20
0.512
 21
0.547
  0
LINE
  8
0
 10
75.627
 11
75.448
 20
0.547
 21
0.605
  0
LINE
  8
0
 10
75.448
 11
75.277
 20
0.605
 21
0.686
  0
LINE
  8
0
 10
75.277
 11
75.118
 20
0.686
 21
0.786
  0
LINE
  8
0
 10
75.118
 11
74.973
 20
0.786
 21
0.907
  0
LINE
  8
0
 10
74.973
 11
74.844
 20
0.907
 21
1.044
  0
LINE
  8
0
 10
74.844
 11
74.734
 20
1.044
 21
1.196
  0
LINE
  8
0
 10
74.734
 11
74.643
 20
1.196
 21
1.361
  0
LINE
  8
0
 10
74.643
 11
74.573
 20
1.361
 21
1.536
  0
LINE
  8
0
 10
74.573
 11
74.527
 20
1.536
 21
1.719
  0
LINE
  8
0
 10
74.527
 11
74.503
 20
1.719
 21
1.906
  0
ENDSEC
  0
SECTION
  2
OBJECTS
  0
DICTIONARY
  0
ENDSEC
  0
EOF
