  0
SECTION
  2
BLOCKS
  0
ENDSEC
  0
SECTION
  2
ENTITIES
  0
LINE
  8
0
 10
-58
 11
-57.937
 20
8
 21
9.003
  0
LINE
  8
0
 10
-57.937
 11
-57.749
 20
9.003
 21
9.99
  0
LINE
  8
0
 10
-57.749
 11
-57.438
 20
9.99
 21
10.945
  0
LINE
  8
0
 10
-57.438
 11
-57.01
 20
10.945
 21
11.854
  0
LINE
  8
0
 10
-57.01
 11
-56.472
 20
11.854
 21
12.702
  0
LINE
  8
0
 10
-56.472
 11
-55.832
 20
12.702
 21
13.476
  0
LINE
  8
0
 10
-55.832
 11
-55.099
 20
13.476
 21
14.164
  0
LINE
  8
0
 10
-55.099
 11
-54.287
 20
14.164
 21
14.755
  0
LINE
  8
0
 10
-54.287
 11
-53.406
 20
14.755
 21
15.239
  0
LINE
  8
0
 10
-53.406
 11
-52.472
 20
15.239
 21
15.608
  0
LINE
  8
0
 10
-52.472
 11
-51.499
 20
15.608
 21
15.858
  0
LINE
  8
0
 10
-51.499
 11
-50.502
 20
15.858
 21
15.984
  0
LINE
  8
0
 10
-50.502
 11
50.502
 20
15.984
 21
15.984
  0
LINE
  8
0
 10
50.502
 11
51.499
 20
15.984
 21
15.858
  0
LINE
  8
0
 10
51.499
 11
52.472
 20
15.858
 21
15.608
  0
LINE
  8
0
 10
52.472
 11
53.406
 20
15.608
 21
15.239
  0
LINE
  8
0
 10
53.406
 11
54.287
 20
15.239
 21
14.755
  0
LINE
  8
0
 10
54.287
 11
55.099
 20
14.755
 21
14.164
  0
LINE
  8
0
 10
55.099
 11
55.832
 20
14.164
 21
13.476
  0
LINE
  8
0
 10
55.832
 11
56.472
 20
13.476
 21
12.702
  0
LINE
  8
0
 10
56.472
 11
57.01
 20
12.702
 21
11.854
  0
LINE
  8
0
 10
57.01
 11
57.438
 20
11.854
 21
10.945
  0
LINE
  8
0
 10
57.438
 11
57.749
 20
10.945
 21
9.99
  0
LINE
  8
0
 10
57.749
 11
57.937
 20
9.99
 21
9.003
  0
LINE
  8
0
 10
57.937
 11
58
 20
9.003
 21
8
  0
LINE
  8
0
 10
58
 11
57.937
 20
8
 21
6.997
  0
LINE
  8
0
 10
57.937
 11
57.749
 20
6.997
 21
6.01
  0
LINE
  8
0
 10
57.749
 11
57.438
 20
6.01
 21
5.055
  0
LINE
  8
0
 10
57.438
 11
57.01
 20
5.055
 21
4.146
  0
LINE
  8
0
 10
57.01
 11
56.472
 20
4.146
 21
3.298
  0
LINE
  8
0
 10
56.472
 11
55.832
 20
3.298
 21
2.524
  0
LINE
  8
0
 10
55.832
 11
55.099
 20
2.524
 21
1.836
  0
LINE
  8
0
 10
55.099
 11
54.287
 20
1.836
 21
1.245
  0
LINE
  8
0
 10
54.287
 11
24.287
 20
1.245
 21
-17.755
  0
LINE
  8
0
 10
24.287
 11
23.406
 20
-17.755
 21
-18.239
  0
LINE
  8
0
 10
23.406
 11
22.472
 20
-18.239
 21
-18.608
  0
LINE
  8
0
 10
22.472
 11
21.499
 20
-18.608
 21
-18.858
  0
LINE
  8
0
 10
21.499
 11
20.502
 20
-18.858
 21
-18.984
  0
LINE
  8
0
 10
20.502
 11
-20.502
 20
-18.984
 21
-18.984
  0
LINE
  8
0
 10
-20.502
 11
-21.499
 20
-18.984
 21
-18.858
  0
LINE
  8
0
 10
-21.499
 11
-22.472
 20
-18.858
 21
-18.608
  0
LINE
  8
0
 10
-22.472
 11
-23.406
 20
-18.608
 21
-18.239
  0
LINE
  8
0
 10
-23.406
 11
-24.287
 20
-18.239
 21
-17.755
  0
LINE
  8
0
 10
-24.287
 11
-54.287
 20
-17.755
 21
1.245
  0
LINE
  8
0
 10
-54.287
 11
-55.099
 20
1.245
 21
1.836
  0
LINE
  8
0
 10
-55.099
 11
-55.832
 20
1.836
 21
2.524
  0
LINE
  8
0
 10
-55.832
 11
-56.472
 20
2.524
 21
3.298
  0
LINE
  8
0
 10
-56.472
 11
-57.01
 20
3.298
 21
4.146
  0
LINE
  8
0
 10
-57.01
 11
-57.438
 20
4.146
 21
5.055
  0
LINE
  8
0
 10
-57.438
 11
-57.749
 20
5.055
 21
6.01
  0
LINE
  8
0
 10
-57.749
 11
-57.937
 20
6.01
 21
6.997
  0
LINE
  8
0
 10
-57.937
 11
-58
 20
6.997
 21
8
  0
LINE
  8
0
 10
-54
 11
-53.968
 20
8
 21
8.501
  0
LINE
  8
0
 10
-53.968
 11
-53.874
 20
8.501
 21
8.995
  0
LINE
  8
0
 10
-53.874
 11
-53.719
 20
8.995
 21
9.472
  0
LINE
  8
0
 10
-53.719
 11
-53.505
 20
9.472
 21
9.927
  0
LINE
  8
0
 10
-53.505
 11
-53.236
 20
9.927
 21
10.351
  0
LINE
  8
0
 10
-53.236
 11
-52.916
 20
10.351
 21
10.738
  0
LINE
  8
0
 10
-52.916
 11
-52.55
 20
10.738
 21
11.082
  0
LINE
  8
0
 10
-52.55
 11
-52.143
 20
11.082
 21
11.377
  0
LINE
  8
0
 10
-52.143
 11
-51.703
 20
11.377
 21
11.619
  0
LINE
  8
0
 10
-51.703
 11
-51.236
 20
11.619
 21
11.804
  0
LINE
  8
0
 10
-51.236
 11
-50.75
 20
11.804
 21
11.929
  0
LINE
  8
0
 10
-50.75
 11
-50.251
 20
11.929
 21
11.992
  0
LINE
  8
0
 10
-50.251
 11
-49.749
 20
11.992
 21
11.992
  0
LINE
  8
0
 10
-49.749
 11
-49.25
 20
11.992
 21
11.929
  0
LINE
  8
0
 10
-49.25
 11
-48.764
 20
11.929
 21
11.804
  0
LINE
  8
0
 10
-48.764
 11
-48.297
 20
11.804
 21
11.619
  0
LINE
  8
0
 10
-48.297
 11
-47.857
 20
11.619
 21
11.377
  0
LINE
  8
0
 10
-47.857
 11
-47.45
 20
11.377
 21
11.082
  0
LINE
  8
0
 10
-47.45
 11
-47.084
 20
11.082
 21
10.738
  0
LINE
  8
0
 10
-47.084
 11
-46.764
 20
10.738
 21
10.351
  0
LINE
  8
0
 10
-46.764
 11
-46.495
 20
10.351
 21
9.927
  0
LINE
  8
0
 10
-46.495
 11
-46.281
 20
9.927
 21
9.472
  0
LINE
  8
0
 10
-46.281
 11
-46.126
 20
9.472
 21
8.995
  0
LINE
  8
0
 10
-46.126
 11
-46.032
 20
8.995
 21
8.501
  0
LINE
  8
0
 10
-46.032
 11
-46
 20
8.501
 21
8
  0
LINE
  8
0
 10
-46
 11
-46.032
 20
8
 21
7.499
  0
LINE
  8
0
 10
-46.032
 11
-46.126
 20
7.499
 21
7.005
  0
LINE
  8
0
 10
-46.126
 11
-46.281
 20
7.005
 21
6.528
  0
LINE
  8
0
 10
-46.281
 11
-46.495
 20
6.528
 21
6.073
  0
LINE
  8
0
 10
-46.495
 11
-46.764
 20
6.073
 21
5.649
  0
LINE
  8
0
 10
-46.764
 11
-47.084
 20
5.649
 21
5.262
  0
LINE
  8
0
 10
-47.084
 11
-47.45
 20
5.262
 21
4.918
  0
LINE
  8
0
 10
-47.45
 11
-47.857
 20
4.918
 21
4.623
  0
LINE
  8
0
 10
-47.857
 11
-48.297
 20
4.623
 21
4.381
  0
LINE
  8
0
 10
-48.297
 11
-48.764
 20
4.381
 21
4.196
  0
LINE
  8
0
 10
-48.764
 11
-49.25
 20
4.196
 21
4.071
  0
LINE
  8
0
 10
-49.25
 11
-49.749
 20
4.071
 21
4.008
  0
LINE
  8
0
 10
-49.749
 11
-50.251
 20
4.008
 21
4.008
  0
LINE
  8
0
 10
-50.251
 11
-50.75
 20
4.008
 21
4.071
  0
LINE
  8
0
 10
-50.75
 11
-51.236
 20
4.071
 21
4.196
  0
LINE
  8
0
 10
-51.236
 11
-51.703
 20
4.196
 21
4.381
  0
LINE
  8
0
 10
-51.703
 11
-52.143
 20
4.381
 21
4.623
  0
LINE
  8
0
 10
-52.143
 11
-52.55
 20
4.623
 21
4.918
  0
LINE
  8
0
 10
-52.55
 11
-52.916
 20
4.918
 21
5.262
  0
LINE
  8
0
 10
-52.916
 11
-53.236
 20
5.262
 21
5.649
  0
LINE
  8
0
 10
-53.236
 11
-53.505
 20
5.649
 21
6.073
  0
LINE
  8
0
 10
-53.505
 11
-53.719
 20
6.073
 21
6.528
  0
LINE
  8
0
 10
-53.719
 11
-53.874
 20
6.528
 21
7.005
  0
LINE
  8
0
 10
-53.874
 11
-53.968
 20
7.005
 21
7.499
  0
LINE
  8
0
 10
-53.968
 11
-54
 20
7.499
 21
8
  0
LINE
  8
0
 10
-12.5
 11
-12.48
 20
-10
 21
-9.687
  0
LINE
  8
0
 10
-12.48
 11
-12.421
 20
-9.687
 21
-9.378
  0
LINE
  8
0
 10
-12.421
 11
-12.324
 20
-9.378
 21
-9.08
  0
LINE
  8
0
 10
-12.324
 11
-12.191
 20
-9.08
 21
-8.796
  0
LINE
  8
0
 10
-12.191
 11
-12.023
 20
-8.796
 21
-8.531
  0
LINE
  8
0
 10
-12.023
 11
-11.822
 20
-8.531
 21
-8.289
  0
LINE
  8
0
 10
-11.822
 11
-11.594
 20
-8.289
 21
-8.074
  0
LINE
  8
0
 10
-11.594
 11
-11.34
 20
-8.074
 21
-7.889
  0
LINE
  8
0
 10
-11.34
 11
-11.064
 20
-7.889
 21
-7.738
  0
LINE
  8
0
 10
-11.064
 11
-10.773
 20
-7.738
 21
-7.622
  0
LINE
  8
0
 10
-10.773
 11
-10.468
 20
-7.622
 21
-7.544
  0
LINE
  8
0
 10
-10.468
 11
-10.157
 20
-7.544
 21
-7.505
  0
LINE
  8
0
 10
-10.157
 11
-9.843
 20
-7.505
 21
-7.505
  0
LINE
  8
0
 10
-9.843
 11
-9.532
 20
-7.505
 21
-7.544
  0
LINE
  8
0
 10
-9.532
 11
-9.227
 20
-7.544
 21
-7.622
  0
LINE
  8
0
 10
-9.227
 11
-8.936
 20
-7.622
 21
-7.738
  0
LINE
  8
0
 10
-8.936
 11
-8.66
 20
-7.738
 21
-7.889
  0
LINE
  8
0
 10
-8.66
 11
-8.406
 20
-7.889
 21
-8.074
  0
LINE
  8
0
 10
-8.406
 11
-8.178
 20
-8.074
 21
-8.289
  0
LINE
  8
0
 10
-8.178
 11
-7.977
 20
-8.289
 21
-8.531
  0
LINE
  8
0
 10
-7.977
 11
-7.809
 20
-8.531
 21
-8.796
  0
LINE
  8
0
 10
-7.809
 11
-7.676
 20
-8.796
 21
-9.08
  0
LINE
  8
0
 10
-7.676
 11
-7.579
 20
-9.08
 21
-9.378
  0
LINE
  8
0
 10
-7.579
 11
-7.52
 20
-9.378
 21
-9.687
  0
LINE
  8
0
 10
-7.52
 11
-7.5
 20
-9.687
 21
-10
  0
LINE
  8
0
 10
-7.5
 11
-7.52
 20
-10
 21
-10.313
  0
LINE
  8
0
 10
-7.52
 11
-7.579
 20
-10.313
 21
-10.622
  0
LINE
  8
0
 10
-7.579
 11
-7.676
 20
-10.622
 21
-10.92
  0
LINE
  8
0
 10
-7.676
 11
-7.809
 20
-10.92
 21
-11.204
  0
LINE
  8
0
 10
-7.809
 11
-7.977
 20
-11.204
 21
-11.469
  0
LINE
  8
0
 10
-7.977
 11
-8.178
 20
-11.469
 21
-11.711
  0
LINE
  8
0
 10
-8.178
 11
-8.406
 20
-11.711
 21
-11.926
  0
LINE
  8
0
 10
-8.406
 11
-8.66
 20
-11.926
 21
-12.111
  0
LINE
  8
0
 10
-8.66
 11
-8.936
 20
-12.111
 21
-12.262
  0
LINE
  8
0
 10
-8.936
 11
-9.227
 20
-12.262
 21
-12.378
  0
LINE
  8
0
 10
-9.227
 11
-9.532
 20
-12.378
 21
-12.456
  0
LINE
  8
0
 10
-9.532
 11
-9.843
 20
-12.456
 21
-12.495
  0
LINE
  8
0
 10
-9.843
 11
-10.157
 20
-12.495
 21
-12.495
  0
LINE
  8
0
 10
-10.157
 11
-10.468
 20
-12.495
 21
-12.456
  0
LINE
  8
0
 10
-10.468
 11
-10.773
 20
-12.456
 21
-12.378
  0
LINE
  8
0
 10
-10.773
 11
-11.064
 20
-12.378
 21
-12.262
  0
LINE
  8
0
 10
-11.064
 11
-11.34
 20
-12.262
 21
-12.111
  0
LINE
  8
0
 10
-11.34
 11
-11.594
 20
-12.111
 21
-11.926
  0
LINE
  8
0
 10
-11.594
 11
-11.822
 20
-11.926
 21
-11.711
  0
LINE
  8
0
 10
-11.822
 11
-12.023
 20
-11.711
 21
-11.469
  0
LINE
  8
0
 10
-12.023
 11
-12.191
 20
-11.469
 21
-11.204
  0
LINE
  8
0
 10
-12.191
 11
-12.324
 20
-11.204
 21
-10.92
  0
LINE
  8
0
 10
-12.324
 11
-12.421
 20
-10.92
 21
-10.622
  0
LINE
  8
0
 10
-12.421
 11
-12.48
 20
-10.622
 21
-10.313
  0
LINE
  8
0
 10
-12.48
 11
-12.5
 20
-10.313
 21
-10
  0
LINE
  8
0
 10
7.5
 11
7.52
 20
-10
 21
-9.687
  0
LINE
  8
0
 10
7.52
 11
7.579
 20
-9.687
 21
-9.378
  0
LINE
  8
0
 10
7.579
 11
7.676
 20
-9.378
 21
-9.08
  0
LINE
  8
0
 10
7.676
 11
7.809
 20
-9.08
 21
-8.796
  0
LINE
  8
0
 10
7.809
 11
7.977
 20
-8.796
 21
-8.531
  0
LINE
  8
0
 10
7.977
 11
8.178
 20
-8.531
 21
-8.289
  0
LINE
  8
0
 10
8.178
 11
8.406
 20
-8.289
 21
-8.074
  0
LINE
  8
0
 10
8.406
 11
8.66
 20
-8.074
 21
-7.889
  0
LINE
  8
0
 10
8.66
 11
8.936
 20
-7.889
 21
-7.738
  0
LINE
  8
0
 10
8.936
 11
9.227
 20
-7.738
 21
-7.622
  0
LINE
  8
0
 10
9.227
 11
9.532
 20
-7.622
 21
-7.544
  0
LINE
  8
0
 10
9.532
 11
9.843
 20
-7.544
 21
-7.505
  0
LINE
  8
0
 10
9.843
 11
10.157
 20
-7.505
 21
-7.505
  0
LINE
  8
0
 10
10.157
 11
10.468
 20
-7.505
 21
-7.544
  0
LINE
  8
0
 10
10.468
 11
10.773
 20
-7.544
 21
-7.622
  0
LINE
  8
0
 10
10.773
 11
11.064
 20
-7.622
 21
-7.738
  0
LINE
  8
0
 10
11.064
 11
11.34
 20
-7.738
 21
-7.889
  0
LINE
  8
0
 10
11.34
 11
11.594
 20
-7.889
 21
-8.074
  0
LINE
  8
0
 10
11.594
 11
11.822
 20
-8.074
 21
-8.289
  0
LINE
  8
0
 10
11.822
 11
12.023
 20
-8.289
 21
-8.531
  0
LINE
  8
0
 10
12.023
 11
12.191
 20
-8.531
 21
-8.796
  0
LINE
  8
0
 10
12.191
 11
12.324
 20
-8.796
 21
-9.08
  0
LINE
  8
0
 10
12.324
 11
12.421
 20
-9.08
 21
-9.378
  0
LINE
  8
0
 10
12.421
 11
12.48
 20
-9.378
 21
-9.687
  0
LINE
  8
0
 10
12.48
 11
12.5
 20
-9.687
 21
-10
  0
LINE
  8
0
 10
12.5
 11
12.48
 20
-10
 21
-10.313
  0
LINE
  8
0
 10
12.48
 11
12.421
 20
-10.313
 21
-10.622
  0
LINE
  8
0
 10
12.421
 11
12.324
 20
-10.622
 21
-10.92
  0
LINE
  8
0
 10
12.324
 11
12.191
 20
-10.92
 21
-11.204
  0
LINE
  8
0
 10
12.191
 11
12.023
 20
-11.204
 21
-11.469
  0
LINE
  8
0
 10
12.023
 11
11.822
 20
-11.469
 21
-11.711
  0
LINE
  8
0
 10
11.822
 11
11.594
 20
-11.711
 21
-11.926
  0
LINE
  8
0
 10
11.594
 11
11.34
 20
-11.926
 21
-12.111
  0
LINE
  8
0
 10
11.34
 11
11.064
 20
-12.111
 21
-12.262
  0
LINE
  8
0
 10
11.064
 11
10.773
 20
-12.262
 21
-12.378
  0
LINE
  8
0
 10
10.773
 11
10.468
 20
-12.378
 21
-12.456
  0
LINE
  8
0
 10
10.468
 11
10.157
 20
-12.456
 21
-12.495
  0
LINE
  8
0
 10
10.157
 11
9.843
 20
-12.495
 21
-12.495
  0
LINE
  8
0
 10
9.843
 11
9.532
 20
-12.495
 21
-12.456
  0
LINE
  8
0
 10
9.532
 11
9.227
 20
-12.456
 21
-12.378
  0
LINE
  8
0
 10
9.227
 11
8.936
 20
-12.378
 21
-12.262
  0
LINE
  8
0
 10
8.936
 11
8.66
 20
-12.262
 21
-12.111
  0
LINE
  8
0
 10
8.66
 11
8.406
 20
-12.111
 21
-11.926
  0
LINE
  8
0
 10
8.406
 11
8.178
 20
-11.926
 21
-11.711
  0
LINE
  8
0
 10
8.178
 11
7.977
 20
-11.711
 21
-11.469
  0
LINE
  8
0
 10
7.977
 11
7.809
 20
-11.469
 21
-11.204
  0
LINE
  8
0
 10
7.809
 11
7.676
 20
-11.204
 21
-10.92
  0
LINE
  8
0
 10
7.676
 11
7.579
 20
-10.92
 21
-10.622
  0
LINE
  8
0
 10
7.579
 11
7.52
 20
-10.622
 21
-10.313
  0
LINE
  8
0
 10
7.52
 11
7.5
 20
-10.313
 21
-10
  0
LINE
  8
0
 10
46
 11
46.032
 20
8
 21
8.501
  0
LINE
  8
0
 10
46.032
 11
46.126
 20
8.501
 21
8.995
  0
LINE
  8
0
 10
46.126
 11
46.281
 20
8.995
 21
9.472
  0
LINE
  8
0
 10
46.281
 11
46.495
 20
9.472
 21
9.927
  0
LINE
  8
0
 10
46.495
 11
46.764
 20
9.927
 21
10.351
  0
LINE
  8
0
 10
46.764
 11
47.084
 20
10.351
 21
10.738
  0
LINE
  8
0
 10
47.084
 11
47.45
 20
10.738
 21
11.082
  0
LINE
  8
0
 10
47.45
 11
47.857
 20
11.082
 21
11.377
  0
LINE
  8
0
 10
47.857
 11
48.297
 20
11.377
 21
11.619
  0
LINE
  8
0
 10
48.297
 11
48.764
 20
11.619
 21
11.804
  0
LINE
  8
0
 10
48.764
 11
49.25
 20
11.804
 21
11.929
  0
LINE
  8
0
 10
49.25
 11
49.749
 20
11.929
 21
11.992
  0
LINE
  8
0
 10
49.749
 11
50.251
 20
11.992
 21
11.992
  0
LINE
  8
0
 10
50.251
 11
50.75
 20
11.992
 21
11.929
  0
LINE
  8
0
 10
50.75
 11
51.236
 20
11.929
 21
11.804
  0
LINE
  8
0
 10
51.236
 11
51.703
 20
11.804
 21
11.619
  0
LINE
  8
0
 10
51.703
 11
52.143
 20
11.619
 21
11.377
  0
LINE
  8
0
 10
52.143
 11
52.55
 20
11.377
 21
11.082
  0
LINE
  8
0
 10
52.55
 11
52.916
 20
11.082
 21
10.738
  0
LINE
  8
0
 10
52.916
 11
53.236
 20
10.738
 21
10.351
  0
LINE
  8
0
 10
53.236
 11
53.505
 20
10.351
 21
9.927
  0
LINE
  8
0
 10
53.505
 11
53.719
 20
9.927
 21
9.472
  0
LINE
  8
0
 10
53.719
 11
53.874
 20
9.472
 21
8.995
  0
LINE
  8
0
 10
53.874
 11
53.968
 20
8.995
 21
8.501
  0
LINE
  8
0
 10
53.968
 11
54
 20
8.501
 21
8
  0
LINE
  8
0
 10
54
 11
53.968
 20
8
 21
7.499
  0
LINE
  8
0
 10
53.968
 11
53.874
 20
7.499
 21
7.005
  0
LINE
  8
0
 10
53.874
 11
53.719
 20
7.005
 21
6.528
  0
LINE
  8
0
 10
53.719
 11
53.505
 20
6.528
 21
6.073
  0
LINE
  8
0
 10
53.505
 11
53.236
 20
6.073
 21
5.649
  0
LINE
  8
0
 10
53.236
 11
52.916
 20
5.649
 21
5.262
  0
LINE
  8
0
 10
52.916
 11
52.55
 20
5.262
 21
4.918
  0
LINE
  8
0
 10
52.55
 11
52.143
 20
4.918
 21
4.623
  0
LINE
  8
0
 10
52.143
 11
51.703
 20
4.623
 21
4.381
  0
LINE
  8
0
 10
51.703
 11
51.236
 20
4.381
 21
4.196
  0
LINE
  8
0
 10
51.236
 11
50.75
 20
4.196
 21
4.071
  0
LINE
  8
0
 10
50.75
 11
50.251
 20
4.071
 21
4.008
  0
LINE
  8
0
 10
50.251
 11
49.749
 20
4.008
 21
4.008
  0
LINE
  8
0
 10
49.749
 11
49.25
 20
4.008
 21
4.071
  0
LINE
  8
0
 10
49.25
 11
48.764
 20
4.071
 21
4.196
  0
LINE
  8
0
 10
48.764
 11
48.297
 20
4.196
 21
4.381
  0
LINE
  8
0
 10
48.297
 11
47.857
 20
4.381
 21
4.623
  0
LINE
  8
0
 10
47.857
 11
47.45
 20
4.623
 21
4.918
  0
LINE
  8
0
 10
47.45
 11
47.084
 20
4.918
 21
5.262
  0
LINE
  8
0
 10
47.084
 11
46.764
 20
5.262
 21
5.649
  0
LINE
  8
0
 10
46.764
 11
46.495
 20
5.649
 21
6.073
  0
LINE
  8
0
 10
46.495
 11
46.281
 20
6.073
 21
6.528
  0
LINE
  8
0
 10
46.281
 11
46.126
 20
6.528
 21
7.005
  0
LINE
  8
0
 10
46.126
 11
46.032
 20
7.005
 21
7.499
  0
LINE
  8
0
 10
46.032
 11
46
 20
7.499
 21
8
  0
ENDSEC
  0
SECTION
  2
OBJECTS
  0
DICTIONARY
  0
ENDSEC
  0
EOF
