  0
SECTION
  2
BLOCKS
  0
ENDSEC
  0
SECTION
  2
ENTITIES
  0
LINE
  8
0
 10
-11.4
 20
-20
 11
11.4
 21
-20
  0
LINE
  8
0
 10
11.4
 20
-20
 11
11.4
 21
20
  0
LINE
  8
0
 10
11.4
 20
20
 11
-11.4
 21
20
  0
LINE
  8
0
 10
-11.4
 20
20
 11
-11.4
 21
-20
  0
LINE
  8
0
 10
-8.2
 20
-15
 11
-8.18659
 21
-14.7869
  0
LINE
  8
0
 10
-8.18659
 20
-14.7869
 11
-8.14659
 21
-14.5772
  0
LINE
  8
0
 10
-8.14659
 20
-14.5772
 11
-8.08062
 21
-14.3742
  0
LINE
  8
0
 10
-8.08062
 20
-14.3742
 11
-7.98972
 21
-14.181
  0
LINE
  8
0
 10
-7.98972
 20
-14.181
 11
-7.87533
 21
-14.0008
  0
LINE
  8
0
 10
-7.87533
 20
-14.0008
 11
-7.73925
 21
-13.8363
  0
LINE
  8
0
 10
-7.73925
 20
-13.8363
 11
-7.58362
 21
-13.6901
  0
LINE
  8
0
 10
-7.58362
 20
-13.6901
 11
-7.4109
 21
-13.5646
  0
LINE
  8
0
 10
-7.4109
 20
-13.5646
 11
-7.22382
 21
-13.4618
  0
LINE
  8
0
 10
-7.22382
 20
-13.4618
 11
-7.02533
 21
-13.3832
  0
LINE
  8
0
 10
-7.02533
 20
-13.3832
 11
-6.81855
 21
-13.3301
  0
LINE
  8
0
 10
-6.81855
 20
-13.3301
 11
-6.60674
 21
-13.3034
  0
LINE
  8
0
 10
-6.60674
 20
-13.3034
 11
-6.39326
 21
-13.3034
  0
LINE
  8
0
 10
-6.39326
 20
-13.3034
 11
-6.18145
 21
-13.3301
  0
LINE
  8
0
 10
-6.18145
 20
-13.3301
 11
-5.97467
 21
-13.3832
  0
LINE
  8
0
 10
-5.97467
 20
-13.3832
 11
-5.77617
 21
-13.4618
  0
LINE
  8
0
 10
-5.77617
 20
-13.4618
 11
-5.58909
 21
-13.5646
  0
LINE
  8
0
 10
-5.58909
 20
-13.5646
 11
-5.41638
 21
-13.6901
  0
LINE
  8
0
 10
-5.41638
 20
-13.6901
 11
-5.26075
 21
-13.8363
  0
LINE
  8
0
 10
-5.26075
 20
-13.8363
 11
-5.12467
 21
-14.0008
  0
LINE
  8
0
 10
-5.12467
 20
-14.0008
 11
-5.01028
 21
-14.181
  0
LINE
  8
0
 10
-5.01028
 20
-14.181
 11
-4.91938
 21
-14.3742
  0
LINE
  8
0
 10
-4.91938
 20
-14.3742
 11
-4.85341
 21
-14.5772
  0
LINE
  8
0
 10
-4.85341
 20
-14.5772
 11
-4.8134
 21
-14.7869
  0
LINE
  8
0
 10
-4.8134
 20
-14.7869
 11
-4.8
 21
-15
  0
LINE
  8
0
 10
-4.8
 20
-15
 11
-4.8134
 21
-15.2131
  0
LINE
  8
0
 10
-4.8134
 20
-15.2131
 11
-4.85341
 21
-15.4228
  0
LINE
  8
0
 10
-4.85341
 20
-15.4228
 11
-4.91938
 21
-15.6258
  0
LINE
  8
0
 10
-4.91938
 20
-15.6258
 11
-5.01028
 21
-15.819
  0
LINE
  8
0
 10
-5.01028
 20
-15.819
 11
-5.12467
 21
-15.9992
  0
LINE
  8
0
 10
-5.12467
 20
-15.9992
 11
-5.26075
 21
-16.1637
  0
LINE
  8
0
 10
-5.26075
 20
-16.1637
 11
-5.41638
 21
-16.3099
  0
LINE
  8
0
 10
-5.41638
 20
-16.3099
 11
-5.58909
 21
-16.4354
  0
LINE
  8
0
 10
-5.58909
 20
-16.4354
 11
-5.77617
 21
-16.5382
  0
LINE
  8
0
 10
-5.77617
 20
-16.5382
 11
-5.97467
 21
-16.6168
  0
LINE
  8
0
 10
-5.97467
 20
-16.6168
 11
-6.18145
 21
-16.6699
  0
LINE
  8
0
 10
-6.18145
 20
-16.6699
 11
-6.39326
 21
-16.6966
  0
LINE
  8
0
 10
-6.39326
 20
-16.6966
 11
-6.60674
 21
-16.6966
  0
LINE
  8
0
 10
-6.60674
 20
-16.6966
 11
-6.81855
 21
-16.6699
  0
LINE
  8
0
 10
-6.81855
 20
-16.6699
 11
-7.02533
 21
-16.6168
  0
LINE
  8
0
 10
-7.02533
 20
-16.6168
 11
-7.22382
 21
-16.5382
  0
LINE
  8
0
 10
-7.22382
 20
-16.5382
 11
-7.4109
 21
-16.4354
  0
LINE
  8
0
 10
-7.4109
 20
-16.4354
 11
-7.58362
 21
-16.3099
  0
LINE
  8
0
 10
-7.58362
 20
-16.3099
 11
-7.73925
 21
-16.1637
  0
LINE
  8
0
 10
-7.73925
 20
-16.1637
 11
-7.87533
 21
-15.9992
  0
LINE
  8
0
 10
-7.87533
 20
-15.9992
 11
-7.98972
 21
-15.819
  0
LINE
  8
0
 10
-7.98972
 20
-15.819
 11
-8.08062
 21
-15.6258
  0
LINE
  8
0
 10
-8.08062
 20
-15.6258
 11
-8.14659
 21
-15.4228
  0
LINE
  8
0
 10
-8.14659
 20
-15.4228
 11
-8.18659
 21
-15.2131
  0
LINE
  8
0
 10
-8.18659
 20
-15.2131
 11
-8.2
 21
-15
  0
LINE
  8
0
 10
-8.2
 20
15
 11
-8.18659
 21
15.2131
  0
LINE
  8
0
 10
-8.18659
 20
15.2131
 11
-8.14659
 21
15.4228
  0
LINE
  8
0
 10
-8.14659
 20
15.4228
 11
-8.08062
 21
15.6258
  0
LINE
  8
0
 10
-8.08062
 20
15.6258
 11
-7.98972
 21
15.819
  0
LINE
  8
0
 10
-7.98972
 20
15.819
 11
-7.87533
 21
15.9992
  0
LINE
  8
0
 10
-7.87533
 20
15.9992
 11
-7.73925
 21
16.1637
  0
LINE
  8
0
 10
-7.73925
 20
16.1637
 11
-7.58362
 21
16.3099
  0
LINE
  8
0
 10
-7.58362
 20
16.3099
 11
-7.4109
 21
16.4354
  0
LINE
  8
0
 10
-7.4109
 20
16.4354
 11
-7.22382
 21
16.5382
  0
LINE
  8
0
 10
-7.22382
 20
16.5382
 11
-7.02533
 21
16.6168
  0
LINE
  8
0
 10
-7.02533
 20
16.6168
 11
-6.81855
 21
16.6699
  0
LINE
  8
0
 10
-6.81855
 20
16.6699
 11
-6.60674
 21
16.6966
  0
LINE
  8
0
 10
-6.60674
 20
16.6966
 11
-6.39326
 21
16.6966
  0
LINE
  8
0
 10
-6.39326
 20
16.6966
 11
-6.18145
 21
16.6699
  0
LINE
  8
0
 10
-6.18145
 20
16.6699
 11
-5.97467
 21
16.6168
  0
LINE
  8
0
 10
-5.97467
 20
16.6168
 11
-5.77617
 21
16.5382
  0
LINE
  8
0
 10
-5.77617
 20
16.5382
 11
-5.58909
 21
16.4354
  0
LINE
  8
0
 10
-5.58909
 20
16.4354
 11
-5.41638
 21
16.3099
  0
LINE
  8
0
 10
-5.41638
 20
16.3099
 11
-5.26075
 21
16.1637
  0
LINE
  8
0
 10
-5.26075
 20
16.1637
 11
-5.12467
 21
15.9992
  0
LINE
  8
0
 10
-5.12467
 20
15.9992
 11
-5.01028
 21
15.819
  0
LINE
  8
0
 10
-5.01028
 20
15.819
 11
-4.91938
 21
15.6258
  0
LINE
  8
0
 10
-4.91938
 20
15.6258
 11
-4.85341
 21
15.4228
  0
LINE
  8
0
 10
-4.85341
 20
15.4228
 11
-4.8134
 21
15.2131
  0
LINE
  8
0
 10
-4.8134
 20
15.2131
 11
-4.8
 21
15
  0
LINE
  8
0
 10
-4.8
 20
15
 11
-4.8134
 21
14.7869
  0
LINE
  8
0
 10
-4.8134
 20
14.7869
 11
-4.85341
 21
14.5772
  0
LINE
  8
0
 10
-4.85341
 20
14.5772
 11
-4.91938
 21
14.3742
  0
LINE
  8
0
 10
-4.91938
 20
14.3742
 11
-5.01028
 21
14.181
  0
LINE
  8
0
 10
-5.01028
 20
14.181
 11
-5.12467
 21
14.0008
  0
LINE
  8
0
 10
-5.12467
 20
14.0008
 11
-5.26075
 21
13.8363
  0
LINE
  8
0
 10
-5.26075
 20
13.8363
 11
-5.41638
 21
13.6901
  0
LINE
  8
0
 10
-5.41638
 20
13.6901
 11
-5.58909
 21
13.5646
  0
LINE
  8
0
 10
-5.58909
 20
13.5646
 11
-5.77617
 21
13.4618
  0
LINE
  8
0
 10
-5.77617
 20
13.4618
 11
-5.97467
 21
13.3832
  0
LINE
  8
0
 10
-5.97467
 20
13.3832
 11
-6.18145
 21
13.3301
  0
LINE
  8
0
 10
-6.18145
 20
13.3301
 11
-6.39326
 21
13.3034
  0
LINE
  8
0
 10
-6.39326
 20
13.3034
 11
-6.60674
 21
13.3034
  0
LINE
  8
0
 10
-6.60674
 20
13.3034
 11
-6.81855
 21
13.3301
  0
LINE
  8
0
 10
-6.81855
 20
13.3301
 11
-7.02533
 21
13.3832
  0
LINE
  8
0
 10
-7.02533
 20
13.3832
 11
-7.22382
 21
13.4618
  0
LINE
  8
0
 10
-7.22382
 20
13.4618
 11
-7.4109
 21
13.5646
  0
LINE
  8
0
 10
-7.4109
 20
13.5646
 11
-7.58362
 21
13.6901
  0
LINE
  8
0
 10
-7.58362
 20
13.6901
 11
-7.73925
 21
13.8363
  0
LINE
  8
0
 10
-7.73925
 20
13.8363
 11
-7.87533
 21
14.0008
  0
LINE
  8
0
 10
-7.87533
 20
14.0008
 11
-7.98972
 21
14.181
  0
LINE
  8
0
 10
-7.98972
 20
14.181
 11
-8.08062
 21
14.3742
  0
LINE
  8
0
 10
-8.08062
 20
14.3742
 11
-8.14659
 21
14.5772
  0
LINE
  8
0
 10
-8.14659
 20
14.5772
 11
-8.18659
 21
14.7869
  0
LINE
  8
0
 10
-8.18659
 20
14.7869
 11
-8.2
 21
15
  0
LINE
  8
0
 10
4.8
 20
-15
 11
4.8134
 21
-14.7869
  0
LINE
  8
0
 10
4.8134
 20
-14.7869
 11
4.85341
 21
-14.5772
  0
LINE
  8
0
 10
4.85341
 20
-14.5772
 11
4.91938
 21
-14.3742
  0
LINE
  8
0
 10
4.91938
 20
-14.3742
 11
5.01028
 21
-14.181
  0
LINE
  8
0
 10
5.01028
 20
-14.181
 11
5.12467
 21
-14.0008
  0
LINE
  8
0
 10
5.12467
 20
-14.0008
 11
5.26075
 21
-13.8363
  0
LINE
  8
0
 10
5.26075
 20
-13.8363
 11
5.41638
 21
-13.6901
  0
LINE
  8
0
 10
5.41638
 20
-13.6901
 11
5.58909
 21
-13.5646
  0
LINE
  8
0
 10
5.58909
 20
-13.5646
 11
5.77617
 21
-13.4618
  0
LINE
  8
0
 10
5.77617
 20
-13.4618
 11
5.97467
 21
-13.3832
  0
LINE
  8
0
 10
5.97467
 20
-13.3832
 11
6.18145
 21
-13.3301
  0
LINE
  8
0
 10
6.18145
 20
-13.3301
 11
6.39326
 21
-13.3034
  0
LINE
  8
0
 10
6.39326
 20
-13.3034
 11
6.60674
 21
-13.3034
  0
LINE
  8
0
 10
6.60674
 20
-13.3034
 11
6.81855
 21
-13.3301
  0
LINE
  8
0
 10
6.81855
 20
-13.3301
 11
7.02533
 21
-13.3832
  0
LINE
  8
0
 10
7.02533
 20
-13.3832
 11
7.22382
 21
-13.4618
  0
LINE
  8
0
 10
7.22382
 20
-13.4618
 11
7.4109
 21
-13.5646
  0
LINE
  8
0
 10
7.4109
 20
-13.5646
 11
7.58362
 21
-13.6901
  0
LINE
  8
0
 10
7.58362
 20
-13.6901
 11
7.73925
 21
-13.8363
  0
LINE
  8
0
 10
7.73925
 20
-13.8363
 11
7.87533
 21
-14.0008
  0
LINE
  8
0
 10
7.87533
 20
-14.0008
 11
7.98972
 21
-14.181
  0
LINE
  8
0
 10
7.98972
 20
-14.181
 11
8.08062
 21
-14.3742
  0
LINE
  8
0
 10
8.08062
 20
-14.3742
 11
8.14659
 21
-14.5772
  0
LINE
  8
0
 10
8.14659
 20
-14.5772
 11
8.18659
 21
-14.7869
  0
LINE
  8
0
 10
8.18659
 20
-14.7869
 11
8.2
 21
-15
  0
LINE
  8
0
 10
8.2
 20
-15
 11
8.18659
 21
-15.2131
  0
LINE
  8
0
 10
8.18659
 20
-15.2131
 11
8.14659
 21
-15.4228
  0
LINE
  8
0
 10
8.14659
 20
-15.4228
 11
8.08062
 21
-15.6258
  0
LINE
  8
0
 10
8.08062
 20
-15.6258
 11
7.98972
 21
-15.819
  0
LINE
  8
0
 10
7.98972
 20
-15.819
 11
7.87533
 21
-15.9992
  0
LINE
  8
0
 10
7.87533
 20
-15.9992
 11
7.73925
 21
-16.1637
  0
LINE
  8
0
 10
7.73925
 20
-16.1637
 11
7.58362
 21
-16.3099
  0
LINE
  8
0
 10
7.58362
 20
-16.3099
 11
7.4109
 21
-16.4354
  0
LINE
  8
0
 10
7.4109
 20
-16.4354
 11
7.22382
 21
-16.5382
  0
LINE
  8
0
 10
7.22382
 20
-16.5382
 11
7.02533
 21
-16.6168
  0
LINE
  8
0
 10
7.02533
 20
-16.6168
 11
6.81855
 21
-16.6699
  0
LINE
  8
0
 10
6.81855
 20
-16.6699
 11
6.60674
 21
-16.6966
  0
LINE
  8
0
 10
6.60674
 20
-16.6966
 11
6.39326
 21
-16.6966
  0
LINE
  8
0
 10
6.39326
 20
-16.6966
 11
6.18145
 21
-16.6699
  0
LINE
  8
0
 10
6.18145
 20
-16.6699
 11
5.97467
 21
-16.6168
  0
LINE
  8
0
 10
5.97467
 20
-16.6168
 11
5.77617
 21
-16.5382
  0
LINE
  8
0
 10
5.77617
 20
-16.5382
 11
5.58909
 21
-16.4354
  0
LINE
  8
0
 10
5.58909
 20
-16.4354
 11
5.41638
 21
-16.3099
  0
LINE
  8
0
 10
5.41638
 20
-16.3099
 11
5.26075
 21
-16.1637
  0
LINE
  8
0
 10
5.26075
 20
-16.1637
 11
5.12467
 21
-15.9992
  0
LINE
  8
0
 10
5.12467
 20
-15.9992
 11
5.01028
 21
-15.819
  0
LINE
  8
0
 10
5.01028
 20
-15.819
 11
4.91938
 21
-15.6258
  0
LINE
  8
0
 10
4.91938
 20
-15.6258
 11
4.85341
 21
-15.4228
  0
LINE
  8
0
 10
4.85341
 20
-15.4228
 11
4.8134
 21
-15.2131
  0
LINE
  8
0
 10
4.8134
 20
-15.2131
 11
4.8
 21
-15
  0
LINE
  8
0
 10
4.8
 20
15
 11
4.8134
 21
15.2131
  0
LINE
  8
0
 10
4.8134
 20
15.2131
 11
4.85341
 21
15.4228
  0
LINE
  8
0
 10
4.85341
 20
15.4228
 11
4.91938
 21
15.6258
  0
LINE
  8
0
 10
4.91938
 20
15.6258
 11
5.01028
 21
15.819
  0
LINE
  8
0
 10
5.01028
 20
15.819
 11
5.12467
 21
15.9992
  0
LINE
  8
0
 10
5.12467
 20
15.9992
 11
5.26075
 21
16.1637
  0
LINE
  8
0
 10
5.26075
 20
16.1637
 11
5.41638
 21
16.3099
  0
LINE
  8
0
 10
5.41638
 20
16.3099
 11
5.58909
 21
16.4354
  0
LINE
  8
0
 10
5.58909
 20
16.4354
 11
5.77617
 21
16.5382
  0
LINE
  8
0
 10
5.77617
 20
16.5382
 11
5.97467
 21
16.6168
  0
LINE
  8
0
 10
5.97467
 20
16.6168
 11
6.18145
 21
16.6699
  0
LINE
  8
0
 10
6.18145
 20
16.6699
 11
6.39326
 21
16.6966
  0
LINE
  8
0
 10
6.39326
 20
16.6966
 11
6.60674
 21
16.6966
  0
LINE
  8
0
 10
6.60674
 20
16.6966
 11
6.81855
 21
16.6699
  0
LINE
  8
0
 10
6.81855
 20
16.6699
 11
7.02533
 21
16.6168
  0
LINE
  8
0
 10
7.02533
 20
16.6168
 11
7.22382
 21
16.5382
  0
LINE
  8
0
 10
7.22382
 20
16.5382
 11
7.4109
 21
16.4354
  0
LINE
  8
0
 10
7.4109
 20
16.4354
 11
7.58362
 21
16.3099
  0
LINE
  8
0
 10
7.58362
 20
16.3099
 11
7.73925
 21
16.1637
  0
LINE
  8
0
 10
7.73925
 20
16.1637
 11
7.87533
 21
15.9992
  0
LINE
  8
0
 10
7.87533
 20
15.9992
 11
7.98972
 21
15.819
  0
LINE
  8
0
 10
7.98972
 20
15.819
 11
8.08062
 21
15.6258
  0
LINE
  8
0
 10
8.08062
 20
15.6258
 11
8.14659
 21
15.4228
  0
LINE
  8
0
 10
8.14659
 20
15.4228
 11
8.18659
 21
15.2131
  0
LINE
  8
0
 10
8.18659
 20
15.2131
 11
8.2
 21
15
  0
LINE
  8
0
 10
8.2
 20
15
 11
8.18659
 21
14.7869
  0
LINE
  8
0
 10
8.18659
 20
14.7869
 11
8.14659
 21
14.5772
  0
LINE
  8
0
 10
8.14659
 20
14.5772
 11
8.08062
 21
14.3742
  0
LINE
  8
0
 10
8.08062
 20
14.3742
 11
7.98972
 21
14.181
  0
LINE
  8
0
 10
7.98972
 20
14.181
 11
7.87533
 21
14.0008
  0
LINE
  8
0
 10
7.87533
 20
14.0008
 11
7.73925
 21
13.8363
  0
LINE
  8
0
 10
7.73925
 20
13.8363
 11
7.58362
 21
13.6901
  0
LINE
  8
0
 10
7.58362
 20
13.6901
 11
7.4109
 21
13.5646
  0
LINE
  8
0
 10
7.4109
 20
13.5646
 11
7.22382
 21
13.4618
  0
LINE
  8
0
 10
7.22382
 20
13.4618
 11
7.02533
 21
13.3832
  0
LINE
  8
0
 10
7.02533
 20
13.3832
 11
6.81855
 21
13.3301
  0
LINE
  8
0
 10
6.81855
 20
13.3301
 11
6.60674
 21
13.3034
  0
LINE
  8
0
 10
6.60674
 20
13.3034
 11
6.39326
 21
13.3034
  0
LINE
  8
0
 10
6.39326
 20
13.3034
 11
6.18145
 21
13.3301
  0
LINE
  8
0
 10
6.18145
 20
13.3301
 11
5.97467
 21
13.3832
  0
LINE
  8
0
 10
5.97467
 20
13.3832
 11
5.77617
 21
13.4618
  0
LINE
  8
0
 10
5.77617
 20
13.4618
 11
5.58909
 21
13.5646
  0
LINE
  8
0
 10
5.58909
 20
13.5646
 11
5.41638
 21
13.6901
  0
LINE
  8
0
 10
5.41638
 20
13.6901
 11
5.26075
 21
13.8363
  0
LINE
  8
0
 10
5.26075
 20
13.8363
 11
5.12467
 21
14.0008
  0
LINE
  8
0
 10
5.12467
 20
14.0008
 11
5.01028
 21
14.181
  0
LINE
  8
0
 10
5.01028
 20
14.181
 11
4.91938
 21
14.3742
  0
LINE
  8
0
 10
4.91938
 20
14.3742
 11
4.85341
 21
14.5772
  0
LINE
  8
0
 10
4.85341
 20
14.5772
 11
4.8134
 21
14.7869
  0
LINE
  8
0
 10
4.8134
 20
14.7869
 11
4.8
 21
15
  0
ENDSEC
  0
SECTION
  2
OBJECTS
  0
DICTIONARY
  0
ENDSEC
  0
EOF
