  0
SECTION
  2
BLOCKS
  0
ENDSEC
  0
SECTION
  2
ENTITIES
  0
LINE
  8
0
 10
-33.997
 11
-33.997
 20
-10.094
 21
-9.906
  0
LINE
  8
0
 10
-33.997
 11
-33.973
 20
-9.906
 21
-9.719
  0
LINE
  8
0
 10
-33.973
 11
-33.927
 20
-9.719
 21
-9.536
  0
LINE
  8
0
 10
-33.927
 11
-33.857
 20
-9.536
 21
-9.361
  0
LINE
  8
0
 10
-33.857
 11
-33.766
 20
-9.361
 21
-9.196
  0
LINE
  8
0
 10
-33.766
 11
-33.656
 20
-9.196
 21
-9.044
  0
LINE
  8
0
 10
-33.656
 11
-33.527
 20
-9.044
 21
-8.907
  0
LINE
  8
0
 10
-33.527
 11
-33.382
 20
-8.907
 21
-8.786
  0
LINE
  8
0
 10
-33.382
 11
-33.223
 20
-8.786
 21
-8.686
  0
LINE
  8
0
 10
-33.223
 11
-33.052
 20
-8.686
 21
-8.605
  0
LINE
  8
0
 10
-33.052
 11
-32.873
 20
-8.605
 21
-8.547
  0
LINE
  8
0
 10
-32.873
 11
-32.688
 20
-8.547
 21
-8.512
  0
LINE
  8
0
 10
-32.688
 11
-32.5
 20
-8.512
 21
-8.5
  0
LINE
  8
0
 10
-32.5
 11
-29.5
 20
-8.5
 21
-8.5
  0
LINE
  8
0
 10
-29.5
 11
-29.312
 20
-8.5
 21
-8.512
  0
LINE
  8
0
 10
-29.312
 11
-29.127
 20
-8.512
 21
-8.547
  0
LINE
  8
0
 10
-29.127
 11
-28.948
 20
-8.547
 21
-8.605
  0
LINE
  8
0
 10
-28.948
 11
-28.777
 20
-8.605
 21
-8.686
  0
LINE
  8
0
 10
-28.777
 11
-28.618
 20
-8.686
 21
-8.786
  0
LINE
  8
0
 10
-28.618
 11
-28.473
 20
-8.786
 21
-8.907
  0
LINE
  8
0
 10
-28.473
 11
-28.344
 20
-8.907
 21
-9.044
  0
LINE
  8
0
 10
-28.344
 11
-28.234
 20
-9.044
 21
-9.196
  0
LINE
  8
0
 10
-28.234
 11
-28.143
 20
-9.196
 21
-9.361
  0
LINE
  8
0
 10
-28.143
 11
-28.073
 20
-9.361
 21
-9.536
  0
LINE
  8
0
 10
-28.073
 11
-28.027
 20
-9.536
 21
-9.719
  0
LINE
  8
0
 10
-28.027
 11
-28.003
 20
-9.719
 21
-9.906
  0
LINE
  8
0
 10
-28.003
 11
-28.003
 20
-9.906
 21
-10.094
  0
LINE
  8
0
 10
-28.003
 11
-28.027
 20
-10.094
 21
-10.281
  0
LINE
  8
0
 10
-28.027
 11
-28.073
 20
-10.281
 21
-10.464
  0
LINE
  8
0
 10
-28.073
 11
-28.143
 20
-10.464
 21
-10.639
  0
LINE
  8
0
 10
-28.143
 11
-28.234
 20
-10.639
 21
-10.804
  0
LINE
  8
0
 10
-28.234
 11
-28.344
 20
-10.804
 21
-10.956
  0
LINE
  8
0
 10
-28.344
 11
-28.473
 20
-10.956
 21
-11.093
  0
LINE
  8
0
 10
-28.473
 11
-28.618
 20
-11.093
 21
-11.214
  0
LINE
  8
0
 10
-28.618
 11
-28.777
 20
-11.214
 21
-11.314
  0
LINE
  8
0
 10
-28.777
 11
-28.948
 20
-11.314
 21
-11.395
  0
LINE
  8
0
 10
-28.948
 11
-29.127
 20
-11.395
 21
-11.453
  0
LINE
  8
0
 10
-29.127
 11
-29.312
 20
-11.453
 21
-11.488
  0
LINE
  8
0
 10
-29.312
 11
-29.5
 20
-11.488
 21
-11.5
  0
LINE
  8
0
 10
-29.5
 11
-32.5
 20
-11.5
 21
-11.5
  0
LINE
  8
0
 10
-32.5
 11
-32.688
 20
-11.5
 21
-11.488
  0
LINE
  8
0
 10
-32.688
 11
-32.873
 20
-11.488
 21
-11.453
  0
LINE
  8
0
 10
-32.873
 11
-33.052
 20
-11.453
 21
-11.395
  0
LINE
  8
0
 10
-33.052
 11
-33.223
 20
-11.395
 21
-11.314
  0
LINE
  8
0
 10
-33.223
 11
-33.382
 20
-11.314
 21
-11.214
  0
LINE
  8
0
 10
-33.382
 11
-33.527
 20
-11.214
 21
-11.093
  0
LINE
  8
0
 10
-33.527
 11
-33.656
 20
-11.093
 21
-10.956
  0
LINE
  8
0
 10
-33.656
 11
-33.766
 20
-10.956
 21
-10.804
  0
LINE
  8
0
 10
-33.766
 11
-33.857
 20
-10.804
 21
-10.639
  0
LINE
  8
0
 10
-33.857
 11
-33.927
 20
-10.639
 21
-10.464
  0
LINE
  8
0
 10
-33.927
 11
-33.973
 20
-10.464
 21
-10.281
  0
LINE
  8
0
 10
-33.973
 11
-33.997
 20
-10.281
 21
-10.094
  0
LINE
  8
0
 10
-33.997
 11
-33.997
 20
9.906
 21
10.094
  0
LINE
  8
0
 10
-33.997
 11
-33.973
 20
10.094
 21
10.281
  0
LINE
  8
0
 10
-33.973
 11
-33.927
 20
10.281
 21
10.464
  0
LINE
  8
0
 10
-33.927
 11
-33.857
 20
10.464
 21
10.639
  0
LINE
  8
0
 10
-33.857
 11
-33.766
 20
10.639
 21
10.804
  0
LINE
  8
0
 10
-33.766
 11
-33.656
 20
10.804
 21
10.956
  0
LINE
  8
0
 10
-33.656
 11
-33.527
 20
10.956
 21
11.093
  0
LINE
  8
0
 10
-33.527
 11
-33.382
 20
11.093
 21
11.214
  0
LINE
  8
0
 10
-33.382
 11
-33.223
 20
11.214
 21
11.314
  0
LINE
  8
0
 10
-33.223
 11
-33.052
 20
11.314
 21
11.395
  0
LINE
  8
0
 10
-33.052
 11
-32.873
 20
11.395
 21
11.453
  0
LINE
  8
0
 10
-32.873
 11
-32.688
 20
11.453
 21
11.488
  0
LINE
  8
0
 10
-32.688
 11
-32.5
 20
11.488
 21
11.5
  0
LINE
  8
0
 10
-32.5
 11
-29.5
 20
11.5
 21
11.5
  0
LINE
  8
0
 10
-29.5
 11
-29.312
 20
11.5
 21
11.488
  0
LINE
  8
0
 10
-29.312
 11
-29.127
 20
11.488
 21
11.453
  0
LINE
  8
0
 10
-29.127
 11
-28.948
 20
11.453
 21
11.395
  0
LINE
  8
0
 10
-28.948
 11
-28.777
 20
11.395
 21
11.314
  0
LINE
  8
0
 10
-28.777
 11
-28.618
 20
11.314
 21
11.214
  0
LINE
  8
0
 10
-28.618
 11
-28.473
 20
11.214
 21
11.093
  0
LINE
  8
0
 10
-28.473
 11
-28.344
 20
11.093
 21
10.956
  0
LINE
  8
0
 10
-28.344
 11
-28.234
 20
10.956
 21
10.804
  0
LINE
  8
0
 10
-28.234
 11
-28.143
 20
10.804
 21
10.639
  0
LINE
  8
0
 10
-28.143
 11
-28.073
 20
10.639
 21
10.464
  0
LINE
  8
0
 10
-28.073
 11
-28.027
 20
10.464
 21
10.281
  0
LINE
  8
0
 10
-28.027
 11
-28.003
 20
10.281
 21
10.094
  0
LINE
  8
0
 10
-28.003
 11
-28.003
 20
10.094
 21
9.906
  0
LINE
  8
0
 10
-28.003
 11
-28.027
 20
9.906
 21
9.719
  0
LINE
  8
0
 10
-28.027
 11
-28.073
 20
9.719
 21
9.536
  0
LINE
  8
0
 10
-28.073
 11
-28.143
 20
9.536
 21
9.361
  0
LINE
  8
0
 10
-28.143
 11
-28.234
 20
9.361
 21
9.196
  0
LINE
  8
0
 10
-28.234
 11
-28.344
 20
9.196
 21
9.044
  0
LINE
  8
0
 10
-28.344
 11
-28.473
 20
9.044
 21
8.907
  0
LINE
  8
0
 10
-28.473
 11
-28.618
 20
8.907
 21
8.786
  0
LINE
  8
0
 10
-28.618
 11
-28.777
 20
8.786
 21
8.686
  0
LINE
  8
0
 10
-28.777
 11
-28.948
 20
8.686
 21
8.605
  0
LINE
  8
0
 10
-28.948
 11
-29.127
 20
8.605
 21
8.547
  0
LINE
  8
0
 10
-29.127
 11
-29.312
 20
8.547
 21
8.512
  0
LINE
  8
0
 10
-29.312
 11
-29.5
 20
8.512
 21
8.5
  0
LINE
  8
0
 10
-29.5
 11
-32.5
 20
8.5
 21
8.5
  0
LINE
  8
0
 10
-32.5
 11
-32.688
 20
8.5
 21
8.512
  0
LINE
  8
0
 10
-32.688
 11
-32.873
 20
8.512
 21
8.547
  0
LINE
  8
0
 10
-32.873
 11
-33.052
 20
8.547
 21
8.605
  0
LINE
  8
0
 10
-33.052
 11
-33.223
 20
8.605
 21
8.686
  0
LINE
  8
0
 10
-33.223
 11
-33.382
 20
8.686
 21
8.786
  0
LINE
  8
0
 10
-33.382
 11
-33.527
 20
8.786
 21
8.907
  0
LINE
  8
0
 10
-33.527
 11
-33.656
 20
8.907
 21
9.044
  0
LINE
  8
0
 10
-33.656
 11
-33.766
 20
9.044
 21
9.196
  0
LINE
  8
0
 10
-33.766
 11
-33.857
 20
9.196
 21
9.361
  0
LINE
  8
0
 10
-33.857
 11
-33.927
 20
9.361
 21
9.536
  0
LINE
  8
0
 10
-33.927
 11
-33.973
 20
9.536
 21
9.719
  0
LINE
  8
0
 10
-33.973
 11
-33.997
 20
9.719
 21
9.906
  0
LINE
  8
0
 10
-27
 11
-26.953
 20
0
 21
0.752
  0
LINE
  8
0
 10
-26.953
 11
-26.811
 20
0.752
 21
1.492
  0
LINE
  8
0
 10
-26.811
 11
-26.579
 20
1.492
 21
2.209
  0
LINE
  8
0
 10
-26.579
 11
-26.258
 20
2.209
 21
2.891
  0
LINE
  8
0
 10
-26.258
 11
-25.854
 20
2.891
 21
3.527
  0
LINE
  8
0
 10
-25.854
 11
-25.374
 20
3.527
 21
4.107
  0
LINE
  8
0
 10
-25.374
 11
-24.825
 20
4.107
 21
4.623
  0
LINE
  8
0
 10
-24.825
 11
-24.215
 20
4.623
 21
5.066
  0
LINE
  8
0
 10
-24.215
 11
-23.555
 20
5.066
 21
5.429
  0
LINE
  8
0
 10
-23.555
 11
-22.854
 20
5.429
 21
5.706
  0
LINE
  8
0
 10
-22.854
 11
-22.124
 20
5.706
 21
5.894
  0
LINE
  8
0
 10
-22.124
 11
-21.377
 20
5.894
 21
5.988
  0
LINE
  8
0
 10
-21.377
 11
-20.623
 20
5.988
 21
5.988
  0
LINE
  8
0
 10
-20.623
 11
-19.876
 20
5.988
 21
5.894
  0
LINE
  8
0
 10
-19.876
 11
-19.146
 20
5.894
 21
5.706
  0
LINE
  8
0
 10
-19.146
 11
-18.445
 20
5.706
 21
5.429
  0
LINE
  8
0
 10
-18.445
 11
-17.785
 20
5.429
 21
5.066
  0
LINE
  8
0
 10
-17.785
 11
-17.175
 20
5.066
 21
4.623
  0
LINE
  8
0
 10
-17.175
 11
-16.626
 20
4.623
 21
4.107
  0
LINE
  8
0
 10
-16.626
 11
-16.146
 20
4.107
 21
3.527
  0
LINE
  8
0
 10
-16.146
 11
-15.742
 20
3.527
 21
2.891
  0
LINE
  8
0
 10
-15.742
 11
-15.421
 20
2.891
 21
2.209
  0
LINE
  8
0
 10
-15.421
 11
-15.189
 20
2.209
 21
1.492
  0
LINE
  8
0
 10
-15.189
 11
-15.047
 20
1.492
 21
0.752
  0
LINE
  8
0
 10
-15.047
 11
-15
 20
0.752
 21
0
  0
LINE
  8
0
 10
-15
 11
-15.047
 20
0
 21
-0.752
  0
LINE
  8
0
 10
-15.047
 11
-15.189
 20
-0.752
 21
-1.492
  0
LINE
  8
0
 10
-15.189
 11
-15.421
 20
-1.492
 21
-2.209
  0
LINE
  8
0
 10
-15.421
 11
-15.742
 20
-2.209
 21
-2.891
  0
LINE
  8
0
 10
-15.742
 11
-16.146
 20
-2.891
 21
-3.527
  0
LINE
  8
0
 10
-16.146
 11
-16.626
 20
-3.527
 21
-4.107
  0
LINE
  8
0
 10
-16.626
 11
-17.175
 20
-4.107
 21
-4.623
  0
LINE
  8
0
 10
-17.175
 11
-17.785
 20
-4.623
 21
-5.066
  0
LINE
  8
0
 10
-17.785
 11
-18.445
 20
-5.066
 21
-5.429
  0
LINE
  8
0
 10
-18.445
 11
-19.146
 20
-5.429
 21
-5.706
  0
LINE
  8
0
 10
-19.146
 11
-19.876
 20
-5.706
 21
-5.894
  0
LINE
  8
0
 10
-19.876
 11
-20.623
 20
-5.894
 21
-5.988
  0
LINE
  8
0
 10
-20.623
 11
-21.377
 20
-5.988
 21
-5.988
  0
LINE
  8
0
 10
-21.377
 11
-22.124
 20
-5.988
 21
-5.894
  0
LINE
  8
0
 10
-22.124
 11
-22.854
 20
-5.894
 21
-5.706
  0
LINE
  8
0
 10
-22.854
 11
-23.555
 20
-5.706
 21
-5.429
  0
LINE
  8
0
 10
-23.555
 11
-24.215
 20
-5.429
 21
-5.066
  0
LINE
  8
0
 10
-24.215
 11
-24.825
 20
-5.066
 21
-4.623
  0
LINE
  8
0
 10
-24.825
 11
-25.374
 20
-4.623
 21
-4.107
  0
LINE
  8
0
 10
-25.374
 11
-25.854
 20
-4.107
 21
-3.527
  0
LINE
  8
0
 10
-25.854
 11
-26.258
 20
-3.527
 21
-2.891
  0
LINE
  8
0
 10
-26.258
 11
-26.579
 20
-2.891
 21
-2.209
  0
LINE
  8
0
 10
-26.579
 11
-26.811
 20
-2.209
 21
-1.492
  0
LINE
  8
0
 10
-26.811
 11
-26.953
 20
-1.492
 21
-0.752
  0
LINE
  8
0
 10
-26.953
 11
-27
 20
-0.752
 21
0
  0
LINE
  8
0
 10
-13.997
 11
-13.997
 20
-10.094
 21
-9.906
  0
LINE
  8
0
 10
-13.997
 11
-13.973
 20
-9.906
 21
-9.719
  0
LINE
  8
0
 10
-13.973
 11
-13.927
 20
-9.719
 21
-9.536
  0
LINE
  8
0
 10
-13.927
 11
-13.857
 20
-9.536
 21
-9.361
  0
LINE
  8
0
 10
-13.857
 11
-13.766
 20
-9.361
 21
-9.196
  0
LINE
  8
0
 10
-13.766
 11
-13.656
 20
-9.196
 21
-9.044
  0
LINE
  8
0
 10
-13.656
 11
-13.527
 20
-9.044
 21
-8.907
  0
LINE
  8
0
 10
-13.527
 11
-13.382
 20
-8.907
 21
-8.786
  0
LINE
  8
0
 10
-13.382
 11
-13.223
 20
-8.786
 21
-8.686
  0
LINE
  8
0
 10
-13.223
 11
-13.052
 20
-8.686
 21
-8.605
  0
LINE
  8
0
 10
-13.052
 11
-12.873
 20
-8.605
 21
-8.547
  0
LINE
  8
0
 10
-12.873
 11
-12.688
 20
-8.547
 21
-8.512
  0
LINE
  8
0
 10
-12.688
 11
-12.5
 20
-8.512
 21
-8.5
  0
LINE
  8
0
 10
-12.5
 11
-9.5
 20
-8.5
 21
-8.5
  0
LINE
  8
0
 10
-9.5
 11
-9.312
 20
-8.5
 21
-8.512
  0
LINE
  8
0
 10
-9.312
 11
-9.127
 20
-8.512
 21
-8.547
  0
LINE
  8
0
 10
-9.127
 11
-8.948
 20
-8.547
 21
-8.605
  0
LINE
  8
0
 10
-8.948
 11
-8.777
 20
-8.605
 21
-8.686
  0
LINE
  8
0
 10
-8.777
 11
-8.618
 20
-8.686
 21
-8.786
  0
LINE
  8
0
 10
-8.618
 11
-8.473
 20
-8.786
 21
-8.907
  0
LINE
  8
0
 10
-8.473
 11
-8.344
 20
-8.907
 21
-9.044
  0
LINE
  8
0
 10
-8.344
 11
-8.234
 20
-9.044
 21
-9.196
  0
LINE
  8
0
 10
-8.234
 11
-8.143
 20
-9.196
 21
-9.361
  0
LINE
  8
0
 10
-8.143
 11
-8.073
 20
-9.361
 21
-9.536
  0
LINE
  8
0
 10
-8.073
 11
-8.027
 20
-9.536
 21
-9.719
  0
LINE
  8
0
 10
-8.027
 11
-8.003
 20
-9.719
 21
-9.906
  0
LINE
  8
0
 10
-8.003
 11
-8.003
 20
-9.906
 21
-10.094
  0
LINE
  8
0
 10
-8.003
 11
-8.027
 20
-10.094
 21
-10.281
  0
LINE
  8
0
 10
-8.027
 11
-8.073
 20
-10.281
 21
-10.464
  0
LINE
  8
0
 10
-8.073
 11
-8.143
 20
-10.464
 21
-10.639
  0
LINE
  8
0
 10
-8.143
 11
-8.234
 20
-10.639
 21
-10.804
  0
LINE
  8
0
 10
-8.234
 11
-8.344
 20
-10.804
 21
-10.956
  0
LINE
  8
0
 10
-8.344
 11
-8.473
 20
-10.956
 21
-11.093
  0
LINE
  8
0
 10
-8.473
 11
-8.618
 20
-11.093
 21
-11.214
  0
LINE
  8
0
 10
-8.618
 11
-8.777
 20
-11.214
 21
-11.314
  0
LINE
  8
0
 10
-8.777
 11
-8.948
 20
-11.314
 21
-11.395
  0
LINE
  8
0
 10
-8.948
 11
-9.127
 20
-11.395
 21
-11.453
  0
LINE
  8
0
 10
-9.127
 11
-9.312
 20
-11.453
 21
-11.488
  0
LINE
  8
0
 10
-9.312
 11
-9.5
 20
-11.488
 21
-11.5
  0
LINE
  8
0
 10
-9.5
 11
-12.5
 20
-11.5
 21
-11.5
  0
LINE
  8
0
 10
-12.5
 11
-12.688
 20
-11.5
 21
-11.488
  0
LINE
  8
0
 10
-12.688
 11
-12.873
 20
-11.488
 21
-11.453
  0
LINE
  8
0
 10
-12.873
 11
-13.052
 20
-11.453
 21
-11.395
  0
LINE
  8
0
 10
-13.052
 11
-13.223
 20
-11.395
 21
-11.314
  0
LINE
  8
0
 10
-13.223
 11
-13.382
 20
-11.314
 21
-11.214
  0
LINE
  8
0
 10
-13.382
 11
-13.527
 20
-11.214
 21
-11.093
  0
LINE
  8
0
 10
-13.527
 11
-13.656
 20
-11.093
 21
-10.956
  0
LINE
  8
0
 10
-13.656
 11
-13.766
 20
-10.956
 21
-10.804
  0
LINE
  8
0
 10
-13.766
 11
-13.857
 20
-10.804
 21
-10.639
  0
LINE
  8
0
 10
-13.857
 11
-13.927
 20
-10.639
 21
-10.464
  0
LINE
  8
0
 10
-13.927
 11
-13.973
 20
-10.464
 21
-10.281
  0
LINE
  8
0
 10
-13.973
 11
-13.997
 20
-10.281
 21
-10.094
  0
LINE
  8
0
 10
-13.997
 11
-13.997
 20
9.906
 21
10.094
  0
LINE
  8
0
 10
-13.997
 11
-13.973
 20
10.094
 21
10.281
  0
LINE
  8
0
 10
-13.973
 11
-13.927
 20
10.281
 21
10.464
  0
LINE
  8
0
 10
-13.927
 11
-13.857
 20
10.464
 21
10.639
  0
LINE
  8
0
 10
-13.857
 11
-13.766
 20
10.639
 21
10.804
  0
LINE
  8
0
 10
-13.766
 11
-13.656
 20
10.804
 21
10.956
  0
LINE
  8
0
 10
-13.656
 11
-13.527
 20
10.956
 21
11.093
  0
LINE
  8
0
 10
-13.527
 11
-13.382
 20
11.093
 21
11.214
  0
LINE
  8
0
 10
-13.382
 11
-13.223
 20
11.214
 21
11.314
  0
LINE
  8
0
 10
-13.223
 11
-13.052
 20
11.314
 21
11.395
  0
LINE
  8
0
 10
-13.052
 11
-12.873
 20
11.395
 21
11.453
  0
LINE
  8
0
 10
-12.873
 11
-12.688
 20
11.453
 21
11.488
  0
LINE
  8
0
 10
-12.688
 11
-12.5
 20
11.488
 21
11.5
  0
LINE
  8
0
 10
-12.5
 11
-9.5
 20
11.5
 21
11.5
  0
LINE
  8
0
 10
-9.5
 11
-9.312
 20
11.5
 21
11.488
  0
LINE
  8
0
 10
-9.312
 11
-9.127
 20
11.488
 21
11.453
  0
LINE
  8
0
 10
-9.127
 11
-8.948
 20
11.453
 21
11.395
  0
LINE
  8
0
 10
-8.948
 11
-8.777
 20
11.395
 21
11.314
  0
LINE
  8
0
 10
-8.777
 11
-8.618
 20
11.314
 21
11.214
  0
LINE
  8
0
 10
-8.618
 11
-8.473
 20
11.214
 21
11.093
  0
LINE
  8
0
 10
-8.473
 11
-8.344
 20
11.093
 21
10.956
  0
LINE
  8
0
 10
-8.344
 11
-8.234
 20
10.956
 21
10.804
  0
LINE
  8
0
 10
-8.234
 11
-8.143
 20
10.804
 21
10.639
  0
LINE
  8
0
 10
-8.143
 11
-8.073
 20
10.639
 21
10.464
  0
LINE
  8
0
 10
-8.073
 11
-8.027
 20
10.464
 21
10.281
  0
LINE
  8
0
 10
-8.027
 11
-8.003
 20
10.281
 21
10.094
  0
LINE
  8
0
 10
-8.003
 11
-8.003
 20
10.094
 21
9.906
  0
LINE
  8
0
 10
-8.003
 11
-8.027
 20
9.906
 21
9.719
  0
LINE
  8
0
 10
-8.027
 11
-8.073
 20
9.719
 21
9.536
  0
LINE
  8
0
 10
-8.073
 11
-8.143
 20
9.536
 21
9.361
  0
LINE
  8
0
 10
-8.143
 11
-8.234
 20
9.361
 21
9.196
  0
LINE
  8
0
 10
-8.234
 11
-8.344
 20
9.196
 21
9.044
  0
LINE
  8
0
 10
-8.344
 11
-8.473
 20
9.044
 21
8.907
  0
LINE
  8
0
 10
-8.473
 11
-8.618
 20
8.907
 21
8.786
  0
LINE
  8
0
 10
-8.618
 11
-8.777
 20
8.786
 21
8.686
  0
LINE
  8
0
 10
-8.777
 11
-8.948
 20
8.686
 21
8.605
  0
LINE
  8
0
 10
-8.948
 11
-9.127
 20
8.605
 21
8.547
  0
LINE
  8
0
 10
-9.127
 11
-9.312
 20
8.547
 21
8.512
  0
LINE
  8
0
 10
-9.312
 11
-9.5
 20
8.512
 21
8.5
  0
LINE
  8
0
 10
-9.5
 11
-12.5
 20
8.5
 21
8.5
  0
LINE
  8
0
 10
-12.5
 11
-12.688
 20
8.5
 21
8.512
  0
LINE
  8
0
 10
-12.688
 11
-12.873
 20
8.512
 21
8.547
  0
LINE
  8
0
 10
-12.873
 11
-13.052
 20
8.547
 21
8.605
  0
LINE
  8
0
 10
-13.052
 11
-13.223
 20
8.605
 21
8.686
  0
LINE
  8
0
 10
-13.223
 11
-13.382
 20
8.686
 21
8.786
  0
LINE
  8
0
 10
-13.382
 11
-13.527
 20
8.786
 21
8.907
  0
LINE
  8
0
 10
-13.527
 11
-13.656
 20
8.907
 21
9.044
  0
LINE
  8
0
 10
-13.656
 11
-13.766
 20
9.044
 21
9.196
  0
LINE
  8
0
 10
-13.766
 11
-13.857
 20
9.196
 21
9.361
  0
LINE
  8
0
 10
-13.857
 11
-13.927
 20
9.361
 21
9.536
  0
LINE
  8
0
 10
-13.927
 11
-13.973
 20
9.536
 21
9.719
  0
LINE
  8
0
 10
-13.973
 11
-13.997
 20
9.719
 21
9.906
  0
LINE
  8
0
 10
-37
 11
-37
 20
-17.5
 21
17.5
  0
LINE
  8
0
 10
-37
 11
-7.5
 20
17.5
 21
17.5
  0
LINE
  8
0
 10
-7.5
 11
-7.5
 20
17.5
 21
25
  0
LINE
  8
0
 10
-7.5
 11
42.5
 20
25
 21
25
  0
LINE
  8
0
 10
42.5
 11
42.5
 20
25
 21
-25
  0
LINE
  8
0
 10
42.5
 11
-7.5
 20
-25
 21
-25
  0
LINE
  8
0
 10
-7.5
 11
-7.5
 20
-25
 21
-17.5
  0
LINE
  8
0
 10
-7.5
 11
-37
 20
-17.5
 21
-17.5
  0
LINE
  8
0
 10
-5
 11
-5
 20
-22.5
 21
-17.5
  0
LINE
  8
0
 10
-5
 11
0
 20
-17.5
 21
-17.5
  0
LINE
  8
0
 10
0
 11
0
 20
-17.5
 21
-22.5
  0
LINE
  8
0
 10
0
 11
-5
 20
-22.5
 21
-22.5
  0
LINE
  8
0
 10
-5
 11
-5
 20
17.5
 21
22.5
  0
LINE
  8
0
 10
-5
 11
0
 20
22.5
 21
22.5
  0
LINE
  8
0
 10
0
 11
0
 20
22.5
 21
17.5
  0
LINE
  8
0
 10
0
 11
-5
 20
17.5
 21
17.5
  0
LINE
  8
0
 10
3.5
 11
3.508
 20
-13
 21
-12.875
  0
LINE
  8
0
 10
3.508
 11
3.531
 20
-12.875
 21
-12.751
  0
LINE
  8
0
 10
3.531
 11
3.57
 20
-12.751
 21
-12.632
  0
LINE
  8
0
 10
3.57
 11
3.624
 20
-12.632
 21
-12.518
  0
LINE
  8
0
 10
3.624
 11
3.691
 20
-12.518
 21
-12.412
  0
LINE
  8
0
 10
3.691
 11
3.771
 20
-12.412
 21
-12.315
  0
LINE
  8
0
 10
3.771
 11
3.863
 20
-12.315
 21
-12.229
  0
LINE
  8
0
 10
3.863
 11
3.964
 20
-12.229
 21
-12.156
  0
LINE
  8
0
 10
3.964
 11
4.074
 20
-12.156
 21
-12.095
  0
LINE
  8
0
 10
4.074
 11
4.191
 20
-12.095
 21
-12.049
  0
LINE
  8
0
 10
4.191
 11
4.313
 20
-12.049
 21
-12.018
  0
LINE
  8
0
 10
4.313
 11
4.437
 20
-12.018
 21
-12.002
  0
LINE
  8
0
 10
4.437
 11
4.563
 20
-12.002
 21
-12.002
  0
LINE
  8
0
 10
4.563
 11
4.687
 20
-12.002
 21
-12.018
  0
LINE
  8
0
 10
4.687
 11
4.809
 20
-12.018
 21
-12.049
  0
LINE
  8
0
 10
4.809
 11
4.926
 20
-12.049
 21
-12.095
  0
LINE
  8
0
 10
4.926
 11
5.036
 20
-12.095
 21
-12.156
  0
LINE
  8
0
 10
5.036
 11
5.137
 20
-12.156
 21
-12.229
  0
LINE
  8
0
 10
5.137
 11
5.229
 20
-12.229
 21
-12.315
  0
LINE
  8
0
 10
5.229
 11
5.309
 20
-12.315
 21
-12.412
  0
LINE
  8
0
 10
5.309
 11
5.376
 20
-12.412
 21
-12.518
  0
LINE
  8
0
 10
5.376
 11
5.43
 20
-12.518
 21
-12.632
  0
LINE
  8
0
 10
5.43
 11
5.469
 20
-12.632
 21
-12.751
  0
LINE
  8
0
 10
5.469
 11
5.492
 20
-12.751
 21
-12.875
  0
LINE
  8
0
 10
5.492
 11
5.5
 20
-12.875
 21
-13
  0
LINE
  8
0
 10
5.5
 11
5.492
 20
-13
 21
-13.125
  0
LINE
  8
0
 10
5.492
 11
5.469
 20
-13.125
 21
-13.249
  0
LINE
  8
0
 10
5.469
 11
5.43
 20
-13.249
 21
-13.368
  0
LINE
  8
0
 10
5.43
 11
5.376
 20
-13.368
 21
-13.482
  0
LINE
  8
0
 10
5.376
 11
5.309
 20
-13.482
 21
-13.588
  0
LINE
  8
0
 10
5.309
 11
5.229
 20
-13.588
 21
-13.685
  0
LINE
  8
0
 10
5.229
 11
5.137
 20
-13.685
 21
-13.771
  0
LINE
  8
0
 10
5.137
 11
5.036
 20
-13.771
 21
-13.844
  0
LINE
  8
0
 10
5.036
 11
4.926
 20
-13.844
 21
-13.905
  0
LINE
  8
0
 10
4.926
 11
4.809
 20
-13.905
 21
-13.951
  0
LINE
  8
0
 10
4.809
 11
4.687
 20
-13.951
 21
-13.982
  0
LINE
  8
0
 10
4.687
 11
4.563
 20
-13.982
 21
-13.998
  0
LINE
  8
0
 10
4.563
 11
4.437
 20
-13.998
 21
-13.998
  0
LINE
  8
0
 10
4.437
 11
4.313
 20
-13.998
 21
-13.982
  0
LINE
  8
0
 10
4.313
 11
4.191
 20
-13.982
 21
-13.951
  0
LINE
  8
0
 10
4.191
 11
4.074
 20
-13.951
 21
-13.905
  0
LINE
  8
0
 10
4.074
 11
3.964
 20
-13.905
 21
-13.844
  0
LINE
  8
0
 10
3.964
 11
3.863
 20
-13.844
 21
-13.771
  0
LINE
  8
0
 10
3.863
 11
3.771
 20
-13.771
 21
-13.685
  0
LINE
  8
0
 10
3.771
 11
3.691
 20
-13.685
 21
-13.588
  0
LINE
  8
0
 10
3.691
 11
3.624
 20
-13.588
 21
-13.482
  0
LINE
  8
0
 10
3.624
 11
3.57
 20
-13.482
 21
-13.368
  0
LINE
  8
0
 10
3.57
 11
3.531
 20
-13.368
 21
-13.249
  0
LINE
  8
0
 10
3.531
 11
3.508
 20
-13.249
 21
-13.125
  0
LINE
  8
0
 10
3.508
 11
3.5
 20
-13.125
 21
-13
  0
LINE
  8
0
 10
3.502
 11
3.502
 20
12.937
 21
13.063
  0
LINE
  8
0
 10
3.502
 11
3.518
 20
13.063
 21
13.187
  0
LINE
  8
0
 10
3.518
 11
3.549
 20
13.187
 21
13.309
  0
LINE
  8
0
 10
3.549
 11
3.595
 20
13.309
 21
13.426
  0
LINE
  8
0
 10
3.595
 11
3.656
 20
13.426
 21
13.536
  0
LINE
  8
0
 10
3.656
 11
3.729
 20
13.536
 21
13.637
  0
LINE
  8
0
 10
3.729
 11
3.815
 20
13.637
 21
13.729
  0
LINE
  8
0
 10
3.815
 11
3.912
 20
13.729
 21
13.809
  0
LINE
  8
0
 10
3.912
 11
4.018
 20
13.809
 21
13.876
  0
LINE
  8
0
 10
4.018
 11
4.132
 20
13.876
 21
13.93
  0
LINE
  8
0
 10
4.132
 11
4.251
 20
13.93
 21
13.969
  0
LINE
  8
0
 10
4.251
 11
4.375
 20
13.969
 21
13.992
  0
LINE
  8
0
 10
4.375
 11
4.5
 20
13.992
 21
14
  0
LINE
  8
0
 10
4.5
 11
4.625
 20
14
 21
13.992
  0
LINE
  8
0
 10
4.625
 11
4.749
 20
13.992
 21
13.969
  0
LINE
  8
0
 10
4.749
 11
4.868
 20
13.969
 21
13.93
  0
LINE
  8
0
 10
4.868
 11
4.982
 20
13.93
 21
13.876
  0
LINE
  8
0
 10
4.982
 11
5.088
 20
13.876
 21
13.809
  0
LINE
  8
0
 10
5.088
 11
5.185
 20
13.809
 21
13.729
  0
LINE
  8
0
 10
5.185
 11
5.271
 20
13.729
 21
13.637
  0
LINE
  8
0
 10
5.271
 11
5.344
 20
13.637
 21
13.536
  0
LINE
  8
0
 10
5.344
 11
5.405
 20
13.536
 21
13.426
  0
LINE
  8
0
 10
5.405
 11
5.451
 20
13.426
 21
13.309
  0
LINE
  8
0
 10
5.451
 11
5.482
 20
13.309
 21
13.187
  0
LINE
  8
0
 10
5.482
 11
5.498
 20
13.187
 21
13.063
  0
LINE
  8
0
 10
5.498
 11
5.498
 20
13.063
 21
12.937
  0
LINE
  8
0
 10
5.498
 11
5.482
 20
12.937
 21
12.813
  0
LINE
  8
0
 10
5.482
 11
5.451
 20
12.813
 21
12.691
  0
LINE
  8
0
 10
5.451
 11
5.405
 20
12.691
 21
12.574
  0
LINE
  8
0
 10
5.405
 11
5.344
 20
12.574
 21
12.464
  0
LINE
  8
0
 10
5.344
 11
5.271
 20
12.464
 21
12.363
  0
LINE
  8
0
 10
5.271
 11
5.185
 20
12.363
 21
12.271
  0
LINE
  8
0
 10
5.185
 11
5.088
 20
12.271
 21
12.191
  0
LINE
  8
0
 10
5.088
 11
4.982
 20
12.191
 21
12.124
  0
LINE
  8
0
 10
4.982
 11
4.868
 20
12.124
 21
12.07
  0
LINE
  8
0
 10
4.868
 11
4.749
 20
12.07
 21
12.031
  0
LINE
  8
0
 10
4.749
 11
4.625
 20
12.031
 21
12.008
  0
LINE
  8
0
 10
4.625
 11
4.5
 20
12.008
 21
12
  0
LINE
  8
0
 10
4.5
 11
4.375
 20
12
 21
12.008
  0
LINE
  8
0
 10
4.375
 11
4.251
 20
12.008
 21
12.031
  0
LINE
  8
0
 10
4.251
 11
4.132
 20
12.031
 21
12.07
  0
LINE
  8
0
 10
4.132
 11
4.018
 20
12.07
 21
12.124
  0
LINE
  8
0
 10
4.018
 11
3.912
 20
12.124
 21
12.191
  0
LINE
  8
0
 10
3.912
 11
3.815
 20
12.191
 21
12.271
  0
LINE
  8
0
 10
3.815
 11
3.729
 20
12.271
 21
12.363
  0
LINE
  8
0
 10
3.729
 11
3.656
 20
12.363
 21
12.464
  0
LINE
  8
0
 10
3.656
 11
3.595
 20
12.464
 21
12.574
  0
LINE
  8
0
 10
3.595
 11
3.549
 20
12.574
 21
12.691
  0
LINE
  8
0
 10
3.549
 11
3.518
 20
12.691
 21
12.813
  0
LINE
  8
0
 10
3.518
 11
3.502
 20
12.813
 21
12.937
  0
LINE
  8
0
 10
7.3
 11
7.3
 20
-8
 21
-3.3
  0
LINE
  8
0
 10
7.3
 11
7.306
 20
-3.3
 21
-3.204
  0
LINE
  8
0
 10
7.306
 11
7.323
 20
-3.204
 21
-3.109
  0
LINE
  8
0
 10
7.323
 11
7.353
 20
-3.109
 21
-3.016
  0
LINE
  8
0
 10
7.353
 11
7.394
 20
-3.016
 21
-2.928
  0
LINE
  8
0
 10
7.394
 11
7.445
 20
-2.928
 21
-2.846
  0
LINE
  8
0
 10
7.445
 11
7.505
 20
-2.846
 21
-2.77
  0
LINE
  8
0
 10
7.505
 11
7.575
 20
-2.77
 21
-2.701
  0
LINE
  8
0
 10
7.575
 11
7.653
 20
-2.701
 21
-2.642
  0
LINE
  8
0
 10
7.653
 11
7.737
 20
-2.642
 21
-2.592
  0
LINE
  8
0
 10
7.737
 11
7.826
 20
-2.592
 21
-2.552
  0
LINE
  8
0
 10
7.826
 11
7.921
 20
-2.552
 21
-2.523
  0
LINE
  8
0
 10
7.921
 11
7.996
 20
-2.523
 21
-2.51
  0
LINE
  8
0
 10
7.996
 11
8.016
 20
-2.51
 21
-2.501
  0
LINE
  8
0
 10
8.016
 11
8.109
 20
-2.501
 21
-2.473
  0
LINE
  8
0
 10
8.109
 11
8.204
 20
-2.473
 21
-2.456
  0
LINE
  8
0
 10
8.204
 11
8.3
 20
-2.456
 21
-2.45
  0
LINE
  8
0
 10
8.3
 11
9
 20
-2.45
 21
-2.45
  0
LINE
  8
0
 10
9
 11
9.036
 20
-2.45
 21
-2.452
  0
LINE
  8
0
 10
9.036
 11
9.072
 20
-2.452
 21
-2.459
  0
LINE
  8
0
 10
9.072
 11
9.106
 20
-2.459
 21
-2.469
  0
LINE
  8
0
 10
9.106
 11
9.139
 20
-2.469
 21
-2.483
  0
LINE
  8
0
 10
9.139
 11
9.167
 20
-2.483
 21
-2.5
  0
LINE
  8
0
 10
9.167
 11
9.17
 20
-2.5
 21
-2.5
  0
LINE
  8
0
 10
9.17
 11
9.205
 20
-2.5
 21
-2.502
  0
LINE
  8
0
 10
9.205
 11
9.241
 20
-2.502
 21
-2.509
  0
LINE
  8
0
 10
9.241
 11
9.274
 20
-2.509
 21
-2.519
  0
LINE
  8
0
 10
9.274
 11
9.306
 20
-2.519
 21
-2.534
  0
LINE
  8
0
 10
9.306
 11
9.337
 20
-2.534
 21
-2.553
  0
LINE
  8
0
 10
9.337
 11
9.365
 20
-2.553
 21
-2.575
  0
LINE
  8
0
 10
9.365
 11
9.391
 20
-2.575
 21
-2.601
  0
LINE
  8
0
 10
9.391
 11
9.412
 20
-2.601
 21
-2.63
  0
LINE
  8
0
 10
9.412
 11
9.431
 20
-2.63
 21
-2.661
  0
LINE
  8
0
 10
9.431
 11
9.445
 20
-2.661
 21
-2.694
  0
LINE
  8
0
 10
9.445
 11
9.455
 20
-2.694
 21
-2.728
  0
LINE
  8
0
 10
9.455
 11
9.462
 20
-2.728
 21
-2.764
  0
LINE
  8
0
 10
9.462
 11
9.464
 20
-2.764
 21
-2.8
  0
LINE
  8
0
 10
9.464
 11
9.464
 20
-2.8
 21
-4.996
  0
LINE
  8
0
 10
9.464
 11
9.47
 20
-4.996
 21
-5.095
  0
LINE
  8
0
 10
9.47
 11
9.488
 20
-5.095
 21
-5.192
  0
LINE
  8
0
 10
9.488
 11
9.518
 20
-5.192
 21
-5.287
  0
LINE
  8
0
 10
9.518
 11
9.558
 20
-5.287
 21
-5.377
  0
LINE
  8
0
 10
9.558
 11
9.61
 20
-5.377
 21
-5.461
  0
LINE
  8
0
 10
9.61
 11
9.671
 20
-5.461
 21
-5.538
  0
LINE
  8
0
 10
9.671
 11
9.719
 20
-5.538
 21
-5.584
  0
LINE
  8
0
 10
9.719
 11
9.749
 20
-5.584
 21
-5.601
  0
LINE
  8
0
 10
9.749
 11
9.84
 20
-5.601
 21
-5.637
  0
LINE
  8
0
 10
9.84
 11
9.936
 20
-5.637
 21
-5.663
  0
LINE
  8
0
 10
9.936
 11
10.034
 20
-5.663
 21
-5.677
  0
LINE
  8
0
 10
10.034
 11
10.133
 20
-5.677
 21
-5.679
  0
LINE
  8
0
 10
10.133
 11
10.232
 20
-5.679
 21
-5.669
  0
LINE
  8
0
 10
10.232
 11
10.328
 20
-5.669
 21
-5.648
  0
LINE
  8
0
 10
10.328
 11
10.421
 20
-5.648
 21
-5.613
  0
LINE
  8
0
 10
10.421
 11
10.51
 20
-5.613
 21
-5.569
  0
LINE
  8
0
 10
10.51
 11
10.549
 20
-5.569
 21
-5.543
  0
LINE
  8
0
 10
10.549
 11
12.88
 20
-5.543
 21
-3.256
  0
LINE
  8
0
 10
12.88
 11
13.109
 20
-3.256
 21
-3.005
  0
LINE
  8
0
 10
13.109
 11
13.308
 20
-3.005
 21
-2.731
  0
LINE
  8
0
 10
13.308
 11
13.474
 20
-2.731
 21
-2.436
  0
LINE
  8
0
 10
13.474
 11
13.606
 20
-2.436
 21
-2.125
  0
LINE
  8
0
 10
13.606
 11
13.701
 20
-2.125
 21
-1.802
  0
LINE
  8
0
 10
13.701
 11
13.758
 20
-1.802
 21
-1.47
  0
LINE
  8
0
 10
13.758
 11
13.777
 20
-1.47
 21
-1.135
  0
LINE
  8
0
 10
13.777
 11
13.777
 20
-1.135
 21
1.135
  0
LINE
  8
0
 10
13.777
 11
13.758
 20
1.135
 21
1.47
  0
LINE
  8
0
 10
13.758
 11
13.701
 20
1.47
 21
1.802
  0
LINE
  8
0
 10
13.701
 11
13.606
 20
1.802
 21
2.125
  0
LINE
  8
0
 10
13.606
 11
13.474
 20
2.125
 21
2.436
  0
LINE
  8
0
 10
13.474
 11
13.308
 20
2.436
 21
2.731
  0
LINE
  8
0
 10
13.308
 11
13.109
 20
2.731
 21
3.005
  0
LINE
  8
0
 10
13.109
 11
12.88
 20
3.005
 21
3.256
  0
LINE
  8
0
 10
12.88
 11
10.549
 20
3.256
 21
5.543
  0
LINE
  8
0
 10
10.549
 11
10.51
 20
5.543
 21
5.569
  0
LINE
  8
0
 10
10.51
 11
10.421
 20
5.569
 21
5.613
  0
LINE
  8
0
 10
10.421
 11
10.328
 20
5.613
 21
5.648
  0
LINE
  8
0
 10
10.328
 11
10.232
 20
5.648
 21
5.669
  0
LINE
  8
0
 10
10.232
 11
10.133
 20
5.669
 21
5.679
  0
LINE
  8
0
 10
10.133
 11
10.034
 20
5.679
 21
5.677
  0
LINE
  8
0
 10
10.034
 11
9.936
 20
5.677
 21
5.663
  0
LINE
  8
0
 10
9.936
 11
9.84
 20
5.663
 21
5.637
  0
LINE
  8
0
 10
9.84
 11
9.749
 20
5.637
 21
5.601
  0
LINE
  8
0
 10
9.749
 11
9.719
 20
5.601
 21
5.584
  0
LINE
  8
0
 10
9.719
 11
9.671
 20
5.584
 21
5.538
  0
LINE
  8
0
 10
9.671
 11
9.61
 20
5.538
 21
5.461
  0
LINE
  8
0
 10
9.61
 11
9.558
 20
5.461
 21
5.377
  0
LINE
  8
0
 10
9.558
 11
9.518
 20
5.377
 21
5.287
  0
LINE
  8
0
 10
9.518
 11
9.488
 20
5.287
 21
5.192
  0
LINE
  8
0
 10
9.488
 11
9.47
 20
5.192
 21
5.095
  0
LINE
  8
0
 10
9.47
 11
9.464
 20
5.095
 21
4.996
  0
LINE
  8
0
 10
9.464
 11
9.464
 20
4.996
 21
2.8
  0
LINE
  8
0
 10
9.464
 11
9.462
 20
2.8
 21
2.764
  0
LINE
  8
0
 10
9.462
 11
9.455
 20
2.764
 21
2.728
  0
LINE
  8
0
 10
9.455
 11
9.445
 20
2.728
 21
2.694
  0
LINE
  8
0
 10
9.445
 11
9.431
 20
2.694
 21
2.661
  0
LINE
  8
0
 10
9.431
 11
9.412
 20
2.661
 21
2.63
  0
LINE
  8
0
 10
9.412
 11
9.391
 20
2.63
 21
2.601
  0
LINE
  8
0
 10
9.391
 11
9.365
 20
2.601
 21
2.575
  0
LINE
  8
0
 10
9.365
 11
9.337
 20
2.575
 21
2.553
  0
LINE
  8
0
 10
9.337
 11
9.306
 20
2.553
 21
2.534
  0
LINE
  8
0
 10
9.306
 11
9.274
 20
2.534
 21
2.519
  0
LINE
  8
0
 10
9.274
 11
9.241
 20
2.519
 21
2.509
  0
LINE
  8
0
 10
9.241
 11
9.205
 20
2.509
 21
2.502
  0
LINE
  8
0
 10
9.205
 11
9.17
 20
2.502
 21
2.5
  0
LINE
  8
0
 10
9.17
 11
9.167
 20
2.5
 21
2.5
  0
LINE
  8
0
 10
9.167
 11
9.139
 20
2.5
 21
2.483
  0
LINE
  8
0
 10
9.139
 11
9.106
 20
2.483
 21
2.469
  0
LINE
  8
0
 10
9.106
 11
9.072
 20
2.469
 21
2.459
  0
LINE
  8
0
 10
9.072
 11
9.036
 20
2.459
 21
2.452
  0
LINE
  8
0
 10
9.036
 11
9
 20
2.452
 21
2.45
  0
LINE
  8
0
 10
9
 11
8.3
 20
2.45
 21
2.45
  0
LINE
  8
0
 10
8.3
 11
8.204
 20
2.45
 21
2.456
  0
LINE
  8
0
 10
8.204
 11
8.109
 20
2.456
 21
2.473
  0
LINE
  8
0
 10
8.109
 11
8.016
 20
2.473
 21
2.501
  0
LINE
  8
0
 10
8.016
 11
7.996
 20
2.501
 21
2.51
  0
LINE
  8
0
 10
7.996
 11
7.921
 20
2.51
 21
2.523
  0
LINE
  8
0
 10
7.921
 11
7.826
 20
2.523
 21
2.552
  0
LINE
  8
0
 10
7.826
 11
7.737
 20
2.552
 21
2.592
  0
LINE
  8
0
 10
7.737
 11
7.653
 20
2.592
 21
2.642
  0
LINE
  8
0
 10
7.653
 11
7.575
 20
2.642
 21
2.701
  0
LINE
  8
0
 10
7.575
 11
7.505
 20
2.701
 21
2.77
  0
LINE
  8
0
 10
7.505
 11
7.445
 20
2.77
 21
2.846
  0
LINE
  8
0
 10
7.445
 11
7.394
 20
2.846
 21
2.928
  0
LINE
  8
0
 10
7.394
 11
7.353
 20
2.928
 21
3.016
  0
LINE
  8
0
 10
7.353
 11
7.323
 20
3.016
 21
3.109
  0
LINE
  8
0
 10
7.323
 11
7.306
 20
3.109
 21
3.204
  0
LINE
  8
0
 10
7.306
 11
7.3
 20
3.204
 21
3.3
  0
LINE
  8
0
 10
7.3
 11
7.3
 20
3.3
 21
8
  0
LINE
  8
0
 10
7.3
 11
7.315
 20
8
 21
8.241
  0
LINE
  8
0
 10
7.315
 11
7.359
 20
8.241
 21
8.479
  0
LINE
  8
0
 10
7.359
 11
7.433
 20
8.479
 21
8.709
  0
LINE
  8
0
 10
7.433
 11
7.534
 20
8.709
 21
8.929
  0
LINE
  8
0
 10
7.534
 11
7.661
 20
8.929
 21
9.136
  0
LINE
  8
0
 10
7.661
 11
7.813
 20
9.136
 21
9.326
  0
LINE
  8
0
 10
7.813
 11
7.987
 20
9.326
 21
9.497
  0
LINE
  8
0
 10
7.987
 11
7.996
 20
9.497
 21
9.504
  0
LINE
  8
0
 10
7.996
 11
8.003
 20
9.504
 21
9.513
  0
LINE
  8
0
 10
8.003
 11
8.174
 20
9.513
 21
9.687
  0
LINE
  8
0
 10
8.174
 11
8.364
 20
9.687
 21
9.839
  0
LINE
  8
0
 10
8.364
 11
8.571
 20
9.839
 21
9.966
  0
LINE
  8
0
 10
8.571
 11
8.791
 20
9.966
 21
10.067
  0
LINE
  8
0
 10
8.791
 11
9.021
 20
10.067
 21
10.141
  0
LINE
  8
0
 10
9.021
 11
9.259
 20
10.141
 21
10.185
  0
LINE
  8
0
 10
9.259
 11
9.5
 20
10.185
 21
10.2
  0
LINE
  8
0
 10
9.5
 11
14.2
 20
10.2
 21
10.2
  0
LINE
  8
0
 10
14.2
 11
14.296
 20
10.2
 21
10.194
  0
LINE
  8
0
 10
14.296
 11
14.391
 20
10.194
 21
10.177
  0
LINE
  8
0
 10
14.391
 11
14.484
 20
10.177
 21
10.147
  0
LINE
  8
0
 10
14.484
 11
14.572
 20
10.147
 21
10.106
  0
LINE
  8
0
 10
14.572
 11
14.654
 20
10.106
 21
10.055
  0
LINE
  8
0
 10
14.654
 11
14.73
 20
10.055
 21
9.995
  0
LINE
  8
0
 10
14.73
 11
14.799
 20
9.995
 21
9.925
  0
LINE
  8
0
 10
14.799
 11
14.858
 20
9.925
 21
9.847
  0
LINE
  8
0
 10
14.858
 11
14.908
 20
9.847
 21
9.763
  0
LINE
  8
0
 10
14.908
 11
14.948
 20
9.763
 21
9.674
  0
LINE
  8
0
 10
14.948
 11
14.977
 20
9.674
 21
9.579
  0
LINE
  8
0
 10
14.977
 11
14.99
 20
9.579
 21
9.504
  0
LINE
  8
0
 10
14.99
 11
14.999
 20
9.504
 21
9.484
  0
LINE
  8
0
 10
14.999
 11
15.027
 20
9.484
 21
9.391
  0
LINE
  8
0
 10
15.027
 11
15.044
 20
9.391
 21
9.296
  0
LINE
  8
0
 10
15.044
 11
15.05
 20
9.296
 21
9.2
  0
LINE
  8
0
 10
15.05
 11
15.05
 20
9.2
 21
8.5
  0
LINE
  8
0
 10
15.05
 11
15.048
 20
8.5
 21
8.464
  0
LINE
  8
0
 10
15.048
 11
15.041
 20
8.464
 21
8.428
  0
LINE
  8
0
 10
15.041
 11
15.031
 20
8.428
 21
8.394
  0
LINE
  8
0
 10
15.031
 11
15.017
 20
8.394
 21
8.361
  0
LINE
  8
0
 10
15.017
 11
15
 20
8.361
 21
8.333
  0
LINE
  8
0
 10
15
 11
15
 20
8.333
 21
8.33
  0
LINE
  8
0
 10
15
 11
14.998
 20
8.33
 21
8.295
  0
LINE
  8
0
 10
14.998
 11
14.991
 20
8.295
 21
8.259
  0
LINE
  8
0
 10
14.991
 11
14.981
 20
8.259
 21
8.226
  0
LINE
  8
0
 10
14.981
 11
14.966
 20
8.226
 21
8.194
  0
LINE
  8
0
 10
14.966
 11
14.947
 20
8.194
 21
8.163
  0
LINE
  8
0
 10
14.947
 11
14.925
 20
8.163
 21
8.135
  0
LINE
  8
0
 10
14.925
 11
14.899
 20
8.135
 21
8.109
  0
LINE
  8
0
 10
14.899
 11
14.87
 20
8.109
 21
8.088
  0
LINE
  8
0
 10
14.87
 11
14.839
 20
8.088
 21
8.069
  0
LINE
  8
0
 10
14.839
 11
14.806
 20
8.069
 21
8.055
  0
LINE
  8
0
 10
14.806
 11
14.772
 20
8.055
 21
8.045
  0
LINE
  8
0
 10
14.772
 11
14.736
 20
8.045
 21
8.038
  0
LINE
  8
0
 10
14.736
 11
14.7
 20
8.038
 21
8.036
  0
LINE
  8
0
 10
14.7
 11
12.504
 20
8.036
 21
8.036
  0
LINE
  8
0
 10
12.504
 11
12.405
 20
8.036
 21
8.03
  0
LINE
  8
0
 10
12.405
 11
12.308
 20
8.03
 21
8.012
  0
LINE
  8
0
 10
12.308
 11
12.213
 20
8.012
 21
7.982
  0
LINE
  8
0
 10
12.213
 11
12.123
 20
7.982
 21
7.942
  0
LINE
  8
0
 10
12.123
 11
12.039
 20
7.942
 21
7.89
  0
LINE
  8
0
 10
12.039
 11
11.962
 20
7.89
 21
7.829
  0
LINE
  8
0
 10
11.962
 11
11.916
 20
7.829
 21
7.781
  0
LINE
  8
0
 10
11.916
 11
11.899
 20
7.781
 21
7.751
  0
LINE
  8
0
 10
11.899
 11
11.863
 20
7.751
 21
7.66
  0
LINE
  8
0
 10
11.863
 11
11.837
 20
7.66
 21
7.564
  0
LINE
  8
0
 10
11.837
 11
11.823
 20
7.564
 21
7.466
  0
LINE
  8
0
 10
11.823
 11
11.821
 20
7.466
 21
7.367
  0
LINE
  8
0
 10
11.821
 11
11.831
 20
7.367
 21
7.268
  0
LINE
  8
0
 10
11.831
 11
11.852
 20
7.268
 21
7.172
  0
LINE
  8
0
 10
11.852
 11
11.887
 20
7.172
 21
7.079
  0
LINE
  8
0
 10
11.887
 11
11.931
 20
7.079
 21
6.99
  0
LINE
  8
0
 10
11.931
 11
11.957
 20
6.99
 21
6.951
  0
LINE
  8
0
 10
11.957
 11
14.244
 20
6.951
 21
4.62
  0
LINE
  8
0
 10
14.244
 11
14.495
 20
4.62
 21
4.391
  0
LINE
  8
0
 10
14.495
 11
14.769
 20
4.391
 21
4.192
  0
LINE
  8
0
 10
14.769
 11
15.064
 20
4.192
 21
4.026
  0
LINE
  8
0
 10
15.064
 11
15.375
 20
4.026
 21
3.894
  0
LINE
  8
0
 10
15.375
 11
15.698
 20
3.894
 21
3.799
  0
LINE
  8
0
 10
15.698
 11
16.03
 20
3.799
 21
3.742
  0
LINE
  8
0
 10
16.03
 11
16.365
 20
3.742
 21
3.723
  0
LINE
  8
0
 10
16.365
 11
18.635
 20
3.723
 21
3.723
  0
LINE
  8
0
 10
18.635
 11
18.97
 20
3.723
 21
3.742
  0
LINE
  8
0
 10
18.97
 11
19.302
 20
3.742
 21
3.799
  0
LINE
  8
0
 10
19.302
 11
19.625
 20
3.799
 21
3.894
  0
LINE
  8
0
 10
19.625
 11
19.936
 20
3.894
 21
4.026
  0
LINE
  8
0
 10
19.936
 11
20.231
 20
4.026
 21
4.192
  0
LINE
  8
0
 10
20.231
 11
20.505
 20
4.192
 21
4.391
  0
LINE
  8
0
 10
20.505
 11
20.756
 20
4.391
 21
4.62
  0
LINE
  8
0
 10
20.756
 11
23.043
 20
4.62
 21
6.951
  0
LINE
  8
0
 10
23.043
 11
23.069
 20
6.951
 21
6.99
  0
LINE
  8
0
 10
23.069
 11
23.113
 20
6.99
 21
7.079
  0
LINE
  8
0
 10
23.113
 11
23.148
 20
7.079
 21
7.172
  0
LINE
  8
0
 10
23.148
 11
23.169
 20
7.172
 21
7.268
  0
LINE
  8
0
 10
23.169
 11
23.179
 20
7.268
 21
7.367
  0
LINE
  8
0
 10
23.179
 11
23.177
 20
7.367
 21
7.466
  0
LINE
  8
0
 10
23.177
 11
23.163
 20
7.466
 21
7.564
  0
LINE
  8
0
 10
23.163
 11
23.137
 20
7.564
 21
7.66
  0
LINE
  8
0
 10
23.137
 11
23.101
 20
7.66
 21
7.751
  0
LINE
  8
0
 10
23.101
 11
23.084
 20
7.751
 21
7.781
  0
LINE
  8
0
 10
23.084
 11
23.038
 20
7.781
 21
7.829
  0
LINE
  8
0
 10
23.038
 11
22.961
 20
7.829
 21
7.89
  0
LINE
  8
0
 10
22.961
 11
22.877
 20
7.89
 21
7.942
  0
LINE
  8
0
 10
22.877
 11
22.787
 20
7.942
 21
7.982
  0
LINE
  8
0
 10
22.787
 11
22.692
 20
7.982
 21
8.012
  0
LINE
  8
0
 10
22.692
 11
22.595
 20
8.012
 21
8.03
  0
LINE
  8
0
 10
22.595
 11
22.496
 20
8.03
 21
8.036
  0
LINE
  8
0
 10
22.496
 11
20.3
 20
8.036
 21
8.036
  0
LINE
  8
0
 10
20.3
 11
20.264
 20
8.036
 21
8.038
  0
LINE
  8
0
 10
20.264
 11
20.228
 20
8.038
 21
8.045
  0
LINE
  8
0
 10
20.228
 11
20.194
 20
8.045
 21
8.055
  0
LINE
  8
0
 10
20.194
 11
20.161
 20
8.055
 21
8.069
  0
LINE
  8
0
 10
20.161
 11
20.13
 20
8.069
 21
8.088
  0
LINE
  8
0
 10
20.13
 11
20.101
 20
8.088
 21
8.109
  0
LINE
  8
0
 10
20.101
 11
20.075
 20
8.109
 21
8.135
  0
LINE
  8
0
 10
20.075
 11
20.053
 20
8.135
 21
8.163
  0
LINE
  8
0
 10
20.053
 11
20.034
 20
8.163
 21
8.194
  0
LINE
  8
0
 10
20.034
 11
20.019
 20
8.194
 21
8.226
  0
LINE
  8
0
 10
20.019
 11
20.009
 20
8.226
 21
8.259
  0
LINE
  8
0
 10
20.009
 11
20.002
 20
8.259
 21
8.295
  0
LINE
  8
0
 10
20.002
 11
20
 20
8.295
 21
8.33
  0
LINE
  8
0
 10
20
 11
20
 20
8.33
 21
8.333
  0
LINE
  8
0
 10
20
 11
19.983
 20
8.333
 21
8.361
  0
LINE
  8
0
 10
19.983
 11
19.969
 20
8.361
 21
8.394
  0
LINE
  8
0
 10
19.969
 11
19.959
 20
8.394
 21
8.428
  0
LINE
  8
0
 10
19.959
 11
19.952
 20
8.428
 21
8.464
  0
LINE
  8
0
 10
19.952
 11
19.95
 20
8.464
 21
8.5
  0
LINE
  8
0
 10
19.95
 11
19.95
 20
8.5
 21
9.2
  0
LINE
  8
0
 10
19.95
 11
19.956
 20
9.2
 21
9.296
  0
LINE
  8
0
 10
19.956
 11
19.973
 20
9.296
 21
9.391
  0
LINE
  8
0
 10
19.973
 11
20.001
 20
9.391
 21
9.484
  0
LINE
  8
0
 10
20.001
 11
20.01
 20
9.484
 21
9.504
  0
LINE
  8
0
 10
20.01
 11
20.023
 20
9.504
 21
9.579
  0
LINE
  8
0
 10
20.023
 11
20.052
 20
9.579
 21
9.674
  0
LINE
  8
0
 10
20.052
 11
20.092
 20
9.674
 21
9.763
  0
LINE
  8
0
 10
20.092
 11
20.142
 20
9.763
 21
9.847
  0
LINE
  8
0
 10
20.142
 11
20.201
 20
9.847
 21
9.925
  0
LINE
  8
0
 10
20.201
 11
20.27
 20
9.925
 21
9.995
  0
LINE
  8
0
 10
20.27
 11
20.346
 20
9.995
 21
10.055
  0
LINE
  8
0
 10
20.346
 11
20.428
 20
10.055
 21
10.106
  0
LINE
  8
0
 10
20.428
 11
20.516
 20
10.106
 21
10.147
  0
LINE
  8
0
 10
20.516
 11
20.609
 20
10.147
 21
10.177
  0
LINE
  8
0
 10
20.609
 11
20.704
 20
10.177
 21
10.194
  0
LINE
  8
0
 10
20.704
 11
20.8
 20
10.194
 21
10.2
  0
LINE
  8
0
 10
20.8
 11
25.5
 20
10.2
 21
10.2
  0
LINE
  8
0
 10
25.5
 11
25.741
 20
10.2
 21
10.185
  0
LINE
  8
0
 10
25.741
 11
25.979
 20
10.185
 21
10.141
  0
LINE
  8
0
 10
25.979
 11
26.209
 20
10.141
 21
10.067
  0
LINE
  8
0
 10
26.209
 11
26.429
 20
10.067
 21
9.966
  0
LINE
  8
0
 10
26.429
 11
26.636
 20
9.966
 21
9.839
  0
LINE
  8
0
 10
26.636
 11
26.826
 20
9.839
 21
9.687
  0
LINE
  8
0
 10
26.826
 11
26.997
 20
9.687
 21
9.513
  0
LINE
  8
0
 10
26.997
 11
27.004
 20
9.513
 21
9.504
  0
LINE
  8
0
 10
27.004
 11
27.013
 20
9.504
 21
9.497
  0
LINE
  8
0
 10
27.013
 11
27.187
 20
9.497
 21
9.326
  0
LINE
  8
0
 10
27.187
 11
27.339
 20
9.326
 21
9.136
  0
LINE
  8
0
 10
27.339
 11
27.466
 20
9.136
 21
8.929
  0
LINE
  8
0
 10
27.466
 11
27.567
 20
8.929
 21
8.709
  0
LINE
  8
0
 10
27.567
 11
27.641
 20
8.709
 21
8.479
  0
LINE
  8
0
 10
27.641
 11
27.685
 20
8.479
 21
8.241
  0
LINE
  8
0
 10
27.685
 11
27.7
 20
8.241
 21
8
  0
LINE
  8
0
 10
27.7
 11
27.7
 20
8
 21
3.3
  0
LINE
  8
0
 10
27.7
 11
27.694
 20
3.3
 21
3.204
  0
LINE
  8
0
 10
27.694
 11
27.677
 20
3.204
 21
3.109
  0
LINE
  8
0
 10
27.677
 11
27.647
 20
3.109
 21
3.016
  0
LINE
  8
0
 10
27.647
 11
27.606
 20
3.016
 21
2.928
  0
LINE
  8
0
 10
27.606
 11
27.555
 20
2.928
 21
2.846
  0
LINE
  8
0
 10
27.555
 11
27.495
 20
2.846
 21
2.77
  0
LINE
  8
0
 10
27.495
 11
27.425
 20
2.77
 21
2.701
  0
LINE
  8
0
 10
27.425
 11
27.347
 20
2.701
 21
2.642
  0
LINE
  8
0
 10
27.347
 11
27.263
 20
2.642
 21
2.592
  0
LINE
  8
0
 10
27.263
 11
27.174
 20
2.592
 21
2.552
  0
LINE
  8
0
 10
27.174
 11
27.079
 20
2.552
 21
2.523
  0
LINE
  8
0
 10
27.079
 11
27.004
 20
2.523
 21
2.51
  0
LINE
  8
0
 10
27.004
 11
26.984
 20
2.51
 21
2.501
  0
LINE
  8
0
 10
26.984
 11
26.891
 20
2.501
 21
2.473
  0
LINE
  8
0
 10
26.891
 11
26.796
 20
2.473
 21
2.456
  0
LINE
  8
0
 10
26.796
 11
26.7
 20
2.456
 21
2.45
  0
LINE
  8
0
 10
26.7
 11
26
 20
2.45
 21
2.45
  0
LINE
  8
0
 10
26
 11
25.964
 20
2.45
 21
2.452
  0
LINE
  8
0
 10
25.964
 11
25.928
 20
2.452
 21
2.459
  0
LINE
  8
0
 10
25.928
 11
25.894
 20
2.459
 21
2.469
  0
LINE
  8
0
 10
25.894
 11
25.861
 20
2.469
 21
2.483
  0
LINE
  8
0
 10
25.861
 11
25.833
 20
2.483
 21
2.5
  0
LINE
  8
0
 10
25.833
 11
25.83
 20
2.5
 21
2.5
  0
LINE
  8
0
 10
25.83
 11
25.795
 20
2.5
 21
2.502
  0
LINE
  8
0
 10
25.795
 11
25.759
 20
2.502
 21
2.509
  0
LINE
  8
0
 10
25.759
 11
25.726
 20
2.509
 21
2.519
  0
LINE
  8
0
 10
25.726
 11
25.694
 20
2.519
 21
2.534
  0
LINE
  8
0
 10
25.694
 11
25.663
 20
2.534
 21
2.553
  0
LINE
  8
0
 10
25.663
 11
25.635
 20
2.553
 21
2.575
  0
LINE
  8
0
 10
25.635
 11
25.609
 20
2.575
 21
2.601
  0
LINE
  8
0
 10
25.609
 11
25.588
 20
2.601
 21
2.63
  0
LINE
  8
0
 10
25.588
 11
25.569
 20
2.63
 21
2.661
  0
LINE
  8
0
 10
25.569
 11
25.555
 20
2.661
 21
2.694
  0
LINE
  8
0
 10
25.555
 11
25.545
 20
2.694
 21
2.728
  0
LINE
  8
0
 10
25.545
 11
25.538
 20
2.728
 21
2.764
  0
LINE
  8
0
 10
25.538
 11
25.536
 20
2.764
 21
2.8
  0
LINE
  8
0
 10
25.536
 11
25.536
 20
2.8
 21
4.996
  0
LINE
  8
0
 10
25.536
 11
25.53
 20
4.996
 21
5.095
  0
LINE
  8
0
 10
25.53
 11
25.512
 20
5.095
 21
5.192
  0
LINE
  8
0
 10
25.512
 11
25.482
 20
5.192
 21
5.287
  0
LINE
  8
0
 10
25.482
 11
25.442
 20
5.287
 21
5.377
  0
LINE
  8
0
 10
25.442
 11
25.39
 20
5.377
 21
5.461
  0
LINE
  8
0
 10
25.39
 11
25.329
 20
5.461
 21
5.538
  0
LINE
  8
0
 10
25.329
 11
25.281
 20
5.538
 21
5.584
  0
LINE
  8
0
 10
25.281
 11
25.251
 20
5.584
 21
5.601
  0
LINE
  8
0
 10
25.251
 11
25.16
 20
5.601
 21
5.637
  0
LINE
  8
0
 10
25.16
 11
25.064
 20
5.637
 21
5.663
  0
LINE
  8
0
 10
25.064
 11
24.966
 20
5.663
 21
5.677
  0
LINE
  8
0
 10
24.966
 11
24.867
 20
5.677
 21
5.679
  0
LINE
  8
0
 10
24.867
 11
24.768
 20
5.679
 21
5.669
  0
LINE
  8
0
 10
24.768
 11
24.672
 20
5.669
 21
5.648
  0
LINE
  8
0
 10
24.672
 11
24.579
 20
5.648
 21
5.613
  0
LINE
  8
0
 10
24.579
 11
24.49
 20
5.613
 21
5.569
  0
LINE
  8
0
 10
24.49
 11
24.451
 20
5.569
 21
5.543
  0
LINE
  8
0
 10
24.451
 11
22.12
 20
5.543
 21
3.256
  0
LINE
  8
0
 10
22.12
 11
21.891
 20
3.256
 21
3.005
  0
LINE
  8
0
 10
21.891
 11
21.692
 20
3.005
 21
2.731
  0
LINE
  8
0
 10
21.692
 11
21.526
 20
2.731
 21
2.436
  0
LINE
  8
0
 10
21.526
 11
21.394
 20
2.436
 21
2.125
  0
LINE
  8
0
 10
21.394
 11
21.299
 20
2.125
 21
1.802
  0
LINE
  8
0
 10
21.299
 11
21.242
 20
1.802
 21
1.47
  0
LINE
  8
0
 10
21.242
 11
21.223
 20
1.47
 21
1.135
  0
LINE
  8
0
 10
21.223
 11
21.223
 20
1.135
 21
-1.135
  0
LINE
  8
0
 10
21.223
 11
21.242
 20
-1.135
 21
-1.47
  0
LINE
  8
0
 10
21.242
 11
21.299
 20
-1.47
 21
-1.802
  0
LINE
  8
0
 10
21.299
 11
21.394
 20
-1.802
 21
-2.125
  0
LINE
  8
0
 10
21.394
 11
21.526
 20
-2.125
 21
-2.436
  0
LINE
  8
0
 10
21.526
 11
21.692
 20
-2.436
 21
-2.731
  0
LINE
  8
0
 10
21.692
 11
21.891
 20
-2.731
 21
-3.005
  0
LINE
  8
0
 10
21.891
 11
22.12
 20
-3.005
 21
-3.256
  0
LINE
  8
0
 10
22.12
 11
24.451
 20
-3.256
 21
-5.543
  0
LINE
  8
0
 10
24.451
 11
24.49
 20
-5.543
 21
-5.569
  0
LINE
  8
0
 10
24.49
 11
24.579
 20
-5.569
 21
-5.613
  0
LINE
  8
0
 10
24.579
 11
24.672
 20
-5.613
 21
-5.648
  0
LINE
  8
0
 10
24.672
 11
24.768
 20
-5.648
 21
-5.669
  0
LINE
  8
0
 10
24.768
 11
24.867
 20
-5.669
 21
-5.679
  0
LINE
  8
0
 10
24.867
 11
24.966
 20
-5.679
 21
-5.677
  0
LINE
  8
0
 10
24.966
 11
25.064
 20
-5.677
 21
-5.663
  0
LINE
  8
0
 10
25.064
 11
25.16
 20
-5.663
 21
-5.637
  0
LINE
  8
0
 10
25.16
 11
25.251
 20
-5.637
 21
-5.601
  0
LINE
  8
0
 10
25.251
 11
25.281
 20
-5.601
 21
-5.584
  0
LINE
  8
0
 10
25.281
 11
25.329
 20
-5.584
 21
-5.538
  0
LINE
  8
0
 10
25.329
 11
25.39
 20
-5.538
 21
-5.461
  0
LINE
  8
0
 10
25.39
 11
25.442
 20
-5.461
 21
-5.377
  0
LINE
  8
0
 10
25.442
 11
25.482
 20
-5.377
 21
-5.287
  0
LINE
  8
0
 10
25.482
 11
25.512
 20
-5.287
 21
-5.192
  0
LINE
  8
0
 10
25.512
 11
25.53
 20
-5.192
 21
-5.095
  0
LINE
  8
0
 10
25.53
 11
25.536
 20
-5.095
 21
-4.996
  0
LINE
  8
0
 10
25.536
 11
25.536
 20
-4.996
 21
-2.8
  0
LINE
  8
0
 10
25.536
 11
25.538
 20
-2.8
 21
-2.764
  0
LINE
  8
0
 10
25.538
 11
25.545
 20
-2.764
 21
-2.728
  0
LINE
  8
0
 10
25.545
 11
25.555
 20
-2.728
 21
-2.694
  0
LINE
  8
0
 10
25.555
 11
25.569
 20
-2.694
 21
-2.661
  0
LINE
  8
0
 10
25.569
 11
25.588
 20
-2.661
 21
-2.63
  0
LINE
  8
0
 10
25.588
 11
25.609
 20
-2.63
 21
-2.601
  0
LINE
  8
0
 10
25.609
 11
25.635
 20
-2.601
 21
-2.575
  0
LINE
  8
0
 10
25.635
 11
25.663
 20
-2.575
 21
-2.553
  0
LINE
  8
0
 10
25.663
 11
25.694
 20
-2.553
 21
-2.534
  0
LINE
  8
0
 10
25.694
 11
25.726
 20
-2.534
 21
-2.519
  0
LINE
  8
0
 10
25.726
 11
25.759
 20
-2.519
 21
-2.509
  0
LINE
  8
0
 10
25.759
 11
25.795
 20
-2.509
 21
-2.502
  0
LINE
  8
0
 10
25.795
 11
25.83
 20
-2.502
 21
-2.5
  0
LINE
  8
0
 10
25.83
 11
25.833
 20
-2.5
 21
-2.5
  0
LINE
  8
0
 10
25.833
 11
25.861
 20
-2.5
 21
-2.483
  0
LINE
  8
0
 10
25.861
 11
25.894
 20
-2.483
 21
-2.469
  0
LINE
  8
0
 10
25.894
 11
25.928
 20
-2.469
 21
-2.459
  0
LINE
  8
0
 10
25.928
 11
25.964
 20
-2.459
 21
-2.452
  0
LINE
  8
0
 10
25.964
 11
26
 20
-2.452
 21
-2.45
  0
LINE
  8
0
 10
26
 11
26.7
 20
-2.45
 21
-2.45
  0
LINE
  8
0
 10
26.7
 11
26.796
 20
-2.45
 21
-2.456
  0
LINE
  8
0
 10
26.796
 11
26.891
 20
-2.456
 21
-2.473
  0
LINE
  8
0
 10
26.891
 11
26.984
 20
-2.473
 21
-2.501
  0
LINE
  8
0
 10
26.984
 11
27.004
 20
-2.501
 21
-2.51
  0
LINE
  8
0
 10
27.004
 11
27.079
 20
-2.51
 21
-2.523
  0
LINE
  8
0
 10
27.079
 11
27.174
 20
-2.523
 21
-2.552
  0
LINE
  8
0
 10
27.174
 11
27.263
 20
-2.552
 21
-2.592
  0
LINE
  8
0
 10
27.263
 11
27.347
 20
-2.592
 21
-2.642
  0
LINE
  8
0
 10
27.347
 11
27.425
 20
-2.642
 21
-2.701
  0
LINE
  8
0
 10
27.425
 11
27.495
 20
-2.701
 21
-2.77
  0
LINE
  8
0
 10
27.495
 11
27.555
 20
-2.77
 21
-2.846
  0
LINE
  8
0
 10
27.555
 11
27.606
 20
-2.846
 21
-2.928
  0
LINE
  8
0
 10
27.606
 11
27.647
 20
-2.928
 21
-3.016
  0
LINE
  8
0
 10
27.647
 11
27.677
 20
-3.016
 21
-3.109
  0
LINE
  8
0
 10
27.677
 11
27.694
 20
-3.109
 21
-3.204
  0
LINE
  8
0
 10
27.694
 11
27.7
 20
-3.204
 21
-3.3
  0
LINE
  8
0
 10
27.7
 11
27.7
 20
-3.3
 21
-8
  0
LINE
  8
0
 10
27.7
 11
27.685
 20
-8
 21
-8.241
  0
LINE
  8
0
 10
27.685
 11
27.641
 20
-8.241
 21
-8.479
  0
LINE
  8
0
 10
27.641
 11
27.567
 20
-8.479
 21
-8.709
  0
LINE
  8
0
 10
27.567
 11
27.466
 20
-8.709
 21
-8.929
  0
LINE
  8
0
 10
27.466
 11
27.339
 20
-8.929
 21
-9.136
  0
LINE
  8
0
 10
27.339
 11
27.187
 20
-9.136
 21
-9.326
  0
LINE
  8
0
 10
27.187
 11
27.013
 20
-9.326
 21
-9.497
  0
LINE
  8
0
 10
27.013
 11
27.004
 20
-9.497
 21
-9.504
  0
LINE
  8
0
 10
27.004
 11
26.997
 20
-9.504
 21
-9.513
  0
LINE
  8
0
 10
26.997
 11
26.826
 20
-9.513
 21
-9.687
  0
LINE
  8
0
 10
26.826
 11
26.636
 20
-9.687
 21
-9.839
  0
LINE
  8
0
 10
26.636
 11
26.429
 20
-9.839
 21
-9.966
  0
LINE
  8
0
 10
26.429
 11
26.209
 20
-9.966
 21
-10.067
  0
LINE
  8
0
 10
26.209
 11
25.979
 20
-10.067
 21
-10.141
  0
LINE
  8
0
 10
25.979
 11
25.741
 20
-10.141
 21
-10.185
  0
LINE
  8
0
 10
25.741
 11
25.5
 20
-10.185
 21
-10.2
  0
LINE
  8
0
 10
25.5
 11
20.8
 20
-10.2
 21
-10.2
  0
LINE
  8
0
 10
20.8
 11
20.704
 20
-10.2
 21
-10.194
  0
LINE
  8
0
 10
20.704
 11
20.609
 20
-10.194
 21
-10.177
  0
LINE
  8
0
 10
20.609
 11
20.516
 20
-10.177
 21
-10.147
  0
LINE
  8
0
 10
20.516
 11
20.428
 20
-10.147
 21
-10.106
  0
LINE
  8
0
 10
20.428
 11
20.346
 20
-10.106
 21
-10.055
  0
LINE
  8
0
 10
20.346
 11
20.27
 20
-10.055
 21
-9.995
  0
LINE
  8
0
 10
20.27
 11
20.201
 20
-9.995
 21
-9.925
  0
LINE
  8
0
 10
20.201
 11
20.142
 20
-9.925
 21
-9.847
  0
LINE
  8
0
 10
20.142
 11
20.092
 20
-9.847
 21
-9.763
  0
LINE
  8
0
 10
20.092
 11
20.052
 20
-9.763
 21
-9.674
  0
LINE
  8
0
 10
20.052
 11
20.023
 20
-9.674
 21
-9.579
  0
LINE
  8
0
 10
20.023
 11
20.01
 20
-9.579
 21
-9.504
  0
LINE
  8
0
 10
20.01
 11
20.001
 20
-9.504
 21
-9.484
  0
LINE
  8
0
 10
20.001
 11
19.973
 20
-9.484
 21
-9.391
  0
LINE
  8
0
 10
19.973
 11
19.956
 20
-9.391
 21
-9.296
  0
LINE
  8
0
 10
19.956
 11
19.95
 20
-9.296
 21
-9.2
  0
LINE
  8
0
 10
19.95
 11
19.95
 20
-9.2
 21
-8.5
  0
LINE
  8
0
 10
19.95
 11
19.952
 20
-8.5
 21
-8.464
  0
LINE
  8
0
 10
19.952
 11
19.959
 20
-8.464
 21
-8.428
  0
LINE
  8
0
 10
19.959
 11
19.969
 20
-8.428
 21
-8.394
  0
LINE
  8
0
 10
19.969
 11
19.983
 20
-8.394
 21
-8.361
  0
LINE
  8
0
 10
19.983
 11
20
 20
-8.361
 21
-8.333
  0
LINE
  8
0
 10
20
 11
20
 20
-8.333
 21
-8.33
  0
LINE
  8
0
 10
20
 11
20.002
 20
-8.33
 21
-8.295
  0
LINE
  8
0
 10
20.002
 11
20.009
 20
-8.295
 21
-8.259
  0
LINE
  8
0
 10
20.009
 11
20.019
 20
-8.259
 21
-8.226
  0
LINE
  8
0
 10
20.019
 11
20.034
 20
-8.226
 21
-8.194
  0
LINE
  8
0
 10
20.034
 11
20.053
 20
-8.194
 21
-8.163
  0
LINE
  8
0
 10
20.053
 11
20.075
 20
-8.163
 21
-8.135
  0
LINE
  8
0
 10
20.075
 11
20.101
 20
-8.135
 21
-8.109
  0
LINE
  8
0
 10
20.101
 11
20.13
 20
-8.109
 21
-8.088
  0
LINE
  8
0
 10
20.13
 11
20.161
 20
-8.088
 21
-8.069
  0
LINE
  8
0
 10
20.161
 11
20.194
 20
-8.069
 21
-8.055
  0
LINE
  8
0
 10
20.194
 11
20.228
 20
-8.055
 21
-8.045
  0
LINE
  8
0
 10
20.228
 11
20.264
 20
-8.045
 21
-8.038
  0
LINE
  8
0
 10
20.264
 11
20.3
 20
-8.038
 21
-8.036
  0
LINE
  8
0
 10
20.3
 11
22.496
 20
-8.036
 21
-8.036
  0
LINE
  8
0
 10
22.496
 11
22.595
 20
-8.036
 21
-8.03
  0
LINE
  8
0
 10
22.595
 11
22.692
 20
-8.03
 21
-8.012
  0
LINE
  8
0
 10
22.692
 11
22.787
 20
-8.012
 21
-7.982
  0
LINE
  8
0
 10
22.787
 11
22.877
 20
-7.982
 21
-7.942
  0
LINE
  8
0
 10
22.877
 11
22.961
 20
-7.942
 21
-7.89
  0
LINE
  8
0
 10
22.961
 11
23.038
 20
-7.89
 21
-7.829
  0
LINE
  8
0
 10
23.038
 11
23.084
 20
-7.829
 21
-7.781
  0
LINE
  8
0
 10
23.084
 11
23.101
 20
-7.781
 21
-7.751
  0
LINE
  8
0
 10
23.101
 11
23.137
 20
-7.751
 21
-7.66
  0
LINE
  8
0
 10
23.137
 11
23.163
 20
-7.66
 21
-7.564
  0
LINE
  8
0
 10
23.163
 11
23.177
 20
-7.564
 21
-7.466
  0
LINE
  8
0
 10
23.177
 11
23.179
 20
-7.466
 21
-7.367
  0
LINE
  8
0
 10
23.179
 11
23.169
 20
-7.367
 21
-7.268
  0
LINE
  8
0
 10
23.169
 11
23.148
 20
-7.268
 21
-7.172
  0
LINE
  8
0
 10
23.148
 11
23.113
 20
-7.172
 21
-7.079
  0
LINE
  8
0
 10
23.113
 11
23.069
 20
-7.079
 21
-6.99
  0
LINE
  8
0
 10
23.069
 11
23.043
 20
-6.99
 21
-6.951
  0
LINE
  8
0
 10
23.043
 11
20.756
 20
-6.951
 21
-4.62
  0
LINE
  8
0
 10
20.756
 11
20.505
 20
-4.62
 21
-4.391
  0
LINE
  8
0
 10
20.505
 11
20.231
 20
-4.391
 21
-4.192
  0
LINE
  8
0
 10
20.231
 11
19.936
 20
-4.192
 21
-4.026
  0
LINE
  8
0
 10
19.936
 11
19.625
 20
-4.026
 21
-3.894
  0
LINE
  8
0
 10
19.625
 11
19.302
 20
-3.894
 21
-3.799
  0
LINE
  8
0
 10
19.302
 11
18.97
 20
-3.799
 21
-3.742
  0
LINE
  8
0
 10
18.97
 11
18.635
 20
-3.742
 21
-3.723
  0
LINE
  8
0
 10
18.635
 11
16.365
 20
-3.723
 21
-3.723
  0
LINE
  8
0
 10
16.365
 11
16.03
 20
-3.723
 21
-3.742
  0
LINE
  8
0
 10
16.03
 11
15.698
 20
-3.742
 21
-3.799
  0
LINE
  8
0
 10
15.698
 11
15.375
 20
-3.799
 21
-3.894
  0
LINE
  8
0
 10
15.375
 11
15.064
 20
-3.894
 21
-4.026
  0
LINE
  8
0
 10
15.064
 11
14.769
 20
-4.026
 21
-4.192
  0
LINE
  8
0
 10
14.769
 11
14.495
 20
-4.192
 21
-4.391
  0
LINE
  8
0
 10
14.495
 11
14.244
 20
-4.391
 21
-4.62
  0
LINE
  8
0
 10
14.244
 11
11.957
 20
-4.62
 21
-6.951
  0
LINE
  8
0
 10
11.957
 11
11.931
 20
-6.951
 21
-6.99
  0
LINE
  8
0
 10
11.931
 11
11.887
 20
-6.99
 21
-7.079
  0
LINE
  8
0
 10
11.887
 11
11.852
 20
-7.079
 21
-7.172
  0
LINE
  8
0
 10
11.852
 11
11.831
 20
-7.172
 21
-7.268
  0
LINE
  8
0
 10
11.831
 11
11.821
 20
-7.268
 21
-7.367
  0
LINE
  8
0
 10
11.821
 11
11.823
 20
-7.367
 21
-7.466
  0
LINE
  8
0
 10
11.823
 11
11.837
 20
-7.466
 21
-7.564
  0
LINE
  8
0
 10
11.837
 11
11.863
 20
-7.564
 21
-7.66
  0
LINE
  8
0
 10
11.863
 11
11.899
 20
-7.66
 21
-7.751
  0
LINE
  8
0
 10
11.899
 11
11.916
 20
-7.751
 21
-7.781
  0
LINE
  8
0
 10
11.916
 11
11.962
 20
-7.781
 21
-7.829
  0
LINE
  8
0
 10
11.962
 11
12.039
 20
-7.829
 21
-7.89
  0
LINE
  8
0
 10
12.039
 11
12.123
 20
-7.89
 21
-7.942
  0
LINE
  8
0
 10
12.123
 11
12.213
 20
-7.942
 21
-7.982
  0
LINE
  8
0
 10
12.213
 11
12.308
 20
-7.982
 21
-8.012
  0
LINE
  8
0
 10
12.308
 11
12.405
 20
-8.012
 21
-8.03
  0
LINE
  8
0
 10
12.405
 11
12.504
 20
-8.03
 21
-8.036
  0
LINE
  8
0
 10
12.504
 11
14.7
 20
-8.036
 21
-8.036
  0
LINE
  8
0
 10
14.7
 11
14.736
 20
-8.036
 21
-8.038
  0
LINE
  8
0
 10
14.736
 11
14.772
 20
-8.038
 21
-8.045
  0
LINE
  8
0
 10
14.772
 11
14.806
 20
-8.045
 21
-8.055
  0
LINE
  8
0
 10
14.806
 11
14.839
 20
-8.055
 21
-8.069
  0
LINE
  8
0
 10
14.839
 11
14.87
 20
-8.069
 21
-8.088
  0
LINE
  8
0
 10
14.87
 11
14.899
 20
-8.088
 21
-8.109
  0
LINE
  8
0
 10
14.899
 11
14.925
 20
-8.109
 21
-8.135
  0
LINE
  8
0
 10
14.925
 11
14.947
 20
-8.135
 21
-8.163
  0
LINE
  8
0
 10
14.947
 11
14.966
 20
-8.163
 21
-8.194
  0
LINE
  8
0
 10
14.966
 11
14.981
 20
-8.194
 21
-8.226
  0
LINE
  8
0
 10
14.981
 11
14.991
 20
-8.226
 21
-8.259
  0
LINE
  8
0
 10
14.991
 11
14.998
 20
-8.259
 21
-8.295
  0
LINE
  8
0
 10
14.998
 11
15
 20
-8.295
 21
-8.33
  0
LINE
  8
0
 10
15
 11
15
 20
-8.33
 21
-8.333
  0
LINE
  8
0
 10
15
 11
15.017
 20
-8.333
 21
-8.361
  0
LINE
  8
0
 10
15.017
 11
15.031
 20
-8.361
 21
-8.394
  0
LINE
  8
0
 10
15.031
 11
15.041
 20
-8.394
 21
-8.428
  0
LINE
  8
0
 10
15.041
 11
15.048
 20
-8.428
 21
-8.464
  0
LINE
  8
0
 10
15.048
 11
15.05
 20
-8.464
 21
-8.5
  0
LINE
  8
0
 10
15.05
 11
15.05
 20
-8.5
 21
-9.2
  0
LINE
  8
0
 10
15.05
 11
15.044
 20
-9.2
 21
-9.296
  0
LINE
  8
0
 10
15.044
 11
15.027
 20
-9.296
 21
-9.391
  0
LINE
  8
0
 10
15.027
 11
14.999
 20
-9.391
 21
-9.484
  0
LINE
  8
0
 10
14.999
 11
14.99
 20
-9.484
 21
-9.504
  0
LINE
  8
0
 10
14.99
 11
14.977
 20
-9.504
 21
-9.579
  0
LINE
  8
0
 10
14.977
 11
14.948
 20
-9.579
 21
-9.674
  0
LINE
  8
0
 10
14.948
 11
14.908
 20
-9.674
 21
-9.763
  0
LINE
  8
0
 10
14.908
 11
14.858
 20
-9.763
 21
-9.847
  0
LINE
  8
0
 10
14.858
 11
14.799
 20
-9.847
 21
-9.925
  0
LINE
  8
0
 10
14.799
 11
14.73
 20
-9.925
 21
-9.995
  0
LINE
  8
0
 10
14.73
 11
14.654
 20
-9.995
 21
-10.055
  0
LINE
  8
0
 10
14.654
 11
14.572
 20
-10.055
 21
-10.106
  0
LINE
  8
0
 10
14.572
 11
14.484
 20
-10.106
 21
-10.147
  0
LINE
  8
0
 10
14.484
 11
14.391
 20
-10.147
 21
-10.177
  0
LINE
  8
0
 10
14.391
 11
14.296
 20
-10.177
 21
-10.194
  0
LINE
  8
0
 10
14.296
 11
14.2
 20
-10.194
 21
-10.2
  0
LINE
  8
0
 10
14.2
 11
9.5
 20
-10.2
 21
-10.2
  0
LINE
  8
0
 10
9.5
 11
9.259
 20
-10.2
 21
-10.185
  0
LINE
  8
0
 10
9.259
 11
9.021
 20
-10.185
 21
-10.141
  0
LINE
  8
0
 10
9.021
 11
8.791
 20
-10.141
 21
-10.067
  0
LINE
  8
0
 10
8.791
 11
8.571
 20
-10.067
 21
-9.966
  0
LINE
  8
0
 10
8.571
 11
8.364
 20
-9.966
 21
-9.839
  0
LINE
  8
0
 10
8.364
 11
8.174
 20
-9.839
 21
-9.687
  0
LINE
  8
0
 10
8.174
 11
8.003
 20
-9.687
 21
-9.513
  0
LINE
  8
0
 10
8.003
 11
7.996
 20
-9.513
 21
-9.504
  0
LINE
  8
0
 10
7.996
 11
7.987
 20
-9.504
 21
-9.497
  0
LINE
  8
0
 10
7.987
 11
7.813
 20
-9.497
 21
-9.326
  0
LINE
  8
0
 10
7.813
 11
7.661
 20
-9.326
 21
-9.136
  0
LINE
  8
0
 10
7.661
 11
7.534
 20
-9.136
 21
-8.929
  0
LINE
  8
0
 10
7.534
 11
7.433
 20
-8.929
 21
-8.709
  0
LINE
  8
0
 10
7.433
 11
7.359
 20
-8.709
 21
-8.479
  0
LINE
  8
0
 10
7.359
 11
7.315
 20
-8.479
 21
-8.241
  0
LINE
  8
0
 10
7.315
 11
7.3
 20
-8.241
 21
-8
  0
LINE
  8
0
 10
29.5
 11
29.508
 20
13
 21
13.125
  0
LINE
  8
0
 10
29.508
 11
29.531
 20
13.125
 21
13.249
  0
LINE
  8
0
 10
29.531
 11
29.57
 20
13.249
 21
13.368
  0
LINE
  8
0
 10
29.57
 11
29.624
 20
13.368
 21
13.482
  0
LINE
  8
0
 10
29.624
 11
29.691
 20
13.482
 21
13.588
  0
LINE
  8
0
 10
29.691
 11
29.771
 20
13.588
 21
13.685
  0
LINE
  8
0
 10
29.771
 11
29.863
 20
13.685
 21
13.771
  0
LINE
  8
0
 10
29.863
 11
29.964
 20
13.771
 21
13.844
  0
LINE
  8
0
 10
29.964
 11
30.074
 20
13.844
 21
13.905
  0
LINE
  8
0
 10
30.074
 11
30.191
 20
13.905
 21
13.951
  0
LINE
  8
0
 10
30.191
 11
30.313
 20
13.951
 21
13.982
  0
LINE
  8
0
 10
30.313
 11
30.437
 20
13.982
 21
13.998
  0
LINE
  8
0
 10
30.437
 11
30.563
 20
13.998
 21
13.998
  0
LINE
  8
0
 10
30.563
 11
30.687
 20
13.998
 21
13.982
  0
LINE
  8
0
 10
30.687
 11
30.809
 20
13.982
 21
13.951
  0
LINE
  8
0
 10
30.809
 11
30.926
 20
13.951
 21
13.905
  0
LINE
  8
0
 10
30.926
 11
31.036
 20
13.905
 21
13.844
  0
LINE
  8
0
 10
31.036
 11
31.137
 20
13.844
 21
13.771
  0
LINE
  8
0
 10
31.137
 11
31.229
 20
13.771
 21
13.685
  0
LINE
  8
0
 10
31.229
 11
31.309
 20
13.685
 21
13.588
  0
LINE
  8
0
 10
31.309
 11
31.376
 20
13.588
 21
13.482
  0
LINE
  8
0
 10
31.376
 11
31.43
 20
13.482
 21
13.368
  0
LINE
  8
0
 10
31.43
 11
31.469
 20
13.368
 21
13.249
  0
LINE
  8
0
 10
31.469
 11
31.492
 20
13.249
 21
13.125
  0
LINE
  8
0
 10
31.492
 11
31.5
 20
13.125
 21
13
  0
LINE
  8
0
 10
31.5
 11
31.492
 20
13
 21
12.875
  0
LINE
  8
0
 10
31.492
 11
31.469
 20
12.875
 21
12.751
  0
LINE
  8
0
 10
31.469
 11
31.43
 20
12.751
 21
12.632
  0
LINE
  8
0
 10
31.43
 11
31.376
 20
12.632
 21
12.518
  0
LINE
  8
0
 10
31.376
 11
31.309
 20
12.518
 21
12.412
  0
LINE
  8
0
 10
31.309
 11
31.229
 20
12.412
 21
12.315
  0
LINE
  8
0
 10
31.229
 11
31.137
 20
12.315
 21
12.229
  0
LINE
  8
0
 10
31.137
 11
31.036
 20
12.229
 21
12.156
  0
LINE
  8
0
 10
31.036
 11
30.926
 20
12.156
 21
12.095
  0
LINE
  8
0
 10
30.926
 11
30.809
 20
12.095
 21
12.049
  0
LINE
  8
0
 10
30.809
 11
30.687
 20
12.049
 21
12.018
  0
LINE
  8
0
 10
30.687
 11
30.563
 20
12.018
 21
12.002
  0
LINE
  8
0
 10
30.563
 11
30.437
 20
12.002
 21
12.002
  0
LINE
  8
0
 10
30.437
 11
30.313
 20
12.002
 21
12.018
  0
LINE
  8
0
 10
30.313
 11
30.191
 20
12.018
 21
12.049
  0
LINE
  8
0
 10
30.191
 11
30.074
 20
12.049
 21
12.095
  0
LINE
  8
0
 10
30.074
 11
29.964
 20
12.095
 21
12.156
  0
LINE
  8
0
 10
29.964
 11
29.863
 20
12.156
 21
12.229
  0
LINE
  8
0
 10
29.863
 11
29.771
 20
12.229
 21
12.315
  0
LINE
  8
0
 10
29.771
 11
29.691
 20
12.315
 21
12.412
  0
LINE
  8
0
 10
29.691
 11
29.624
 20
12.412
 21
12.518
  0
LINE
  8
0
 10
29.624
 11
29.57
 20
12.518
 21
12.632
  0
LINE
  8
0
 10
29.57
 11
29.531
 20
12.632
 21
12.751
  0
LINE
  8
0
 10
29.531
 11
29.508
 20
12.751
 21
12.875
  0
LINE
  8
0
 10
29.508
 11
29.5
 20
12.875
 21
13
  0
LINE
  8
0
 10
29.502
 11
29.502
 20
-13.063
 21
-12.937
  0
LINE
  8
0
 10
29.502
 11
29.518
 20
-12.937
 21
-12.813
  0
LINE
  8
0
 10
29.518
 11
29.549
 20
-12.813
 21
-12.691
  0
LINE
  8
0
 10
29.549
 11
29.595
 20
-12.691
 21
-12.574
  0
LINE
  8
0
 10
29.595
 11
29.656
 20
-12.574
 21
-12.464
  0
LINE
  8
0
 10
29.656
 11
29.729
 20
-12.464
 21
-12.363
  0
LINE
  8
0
 10
29.729
 11
29.815
 20
-12.363
 21
-12.271
  0
LINE
  8
0
 10
29.815
 11
29.912
 20
-12.271
 21
-12.191
  0
LINE
  8
0
 10
29.912
 11
30.018
 20
-12.191
 21
-12.124
  0
LINE
  8
0
 10
30.018
 11
30.132
 20
-12.124
 21
-12.07
  0
LINE
  8
0
 10
30.132
 11
30.251
 20
-12.07
 21
-12.031
  0
LINE
  8
0
 10
30.251
 11
30.375
 20
-12.031
 21
-12.008
  0
LINE
  8
0
 10
30.375
 11
30.5
 20
-12.008
 21
-12
  0
LINE
  8
0
 10
30.5
 11
30.625
 20
-12
 21
-12.008
  0
LINE
  8
0
 10
30.625
 11
30.749
 20
-12.008
 21
-12.031
  0
LINE
  8
0
 10
30.749
 11
30.868
 20
-12.031
 21
-12.07
  0
LINE
  8
0
 10
30.868
 11
30.982
 20
-12.07
 21
-12.124
  0
LINE
  8
0
 10
30.982
 11
31.088
 20
-12.124
 21
-12.191
  0
LINE
  8
0
 10
31.088
 11
31.185
 20
-12.191
 21
-12.271
  0
LINE
  8
0
 10
31.185
 11
31.271
 20
-12.271
 21
-12.363
  0
LINE
  8
0
 10
31.271
 11
31.344
 20
-12.363
 21
-12.464
  0
LINE
  8
0
 10
31.344
 11
31.405
 20
-12.464
 21
-12.574
  0
LINE
  8
0
 10
31.405
 11
31.451
 20
-12.574
 21
-12.691
  0
LINE
  8
0
 10
31.451
 11
31.482
 20
-12.691
 21
-12.813
  0
LINE
  8
0
 10
31.482
 11
31.498
 20
-12.813
 21
-12.937
  0
LINE
  8
0
 10
31.498
 11
31.498
 20
-12.937
 21
-13.063
  0
LINE
  8
0
 10
31.498
 11
31.482
 20
-13.063
 21
-13.187
  0
LINE
  8
0
 10
31.482
 11
31.451
 20
-13.187
 21
-13.309
  0
LINE
  8
0
 10
31.451
 11
31.405
 20
-13.309
 21
-13.426
  0
LINE
  8
0
 10
31.405
 11
31.344
 20
-13.426
 21
-13.536
  0
LINE
  8
0
 10
31.344
 11
31.271
 20
-13.536
 21
-13.637
  0
LINE
  8
0
 10
31.271
 11
31.185
 20
-13.637
 21
-13.729
  0
LINE
  8
0
 10
31.185
 11
31.088
 20
-13.729
 21
-13.809
  0
LINE
  8
0
 10
31.088
 11
30.982
 20
-13.809
 21
-13.876
  0
LINE
  8
0
 10
30.982
 11
30.868
 20
-13.876
 21
-13.93
  0
LINE
  8
0
 10
30.868
 11
30.749
 20
-13.93
 21
-13.969
  0
LINE
  8
0
 10
30.749
 11
30.625
 20
-13.969
 21
-13.992
  0
LINE
  8
0
 10
30.625
 11
30.5
 20
-13.992
 21
-14
  0
LINE
  8
0
 10
30.5
 11
30.375
 20
-14
 21
-13.992
  0
LINE
  8
0
 10
30.375
 11
30.251
 20
-13.992
 21
-13.969
  0
LINE
  8
0
 10
30.251
 11
30.132
 20
-13.969
 21
-13.93
  0
LINE
  8
0
 10
30.132
 11
30.018
 20
-13.93
 21
-13.876
  0
LINE
  8
0
 10
30.018
 11
29.912
 20
-13.876
 21
-13.809
  0
LINE
  8
0
 10
29.912
 11
29.815
 20
-13.809
 21
-13.729
  0
LINE
  8
0
 10
29.815
 11
29.729
 20
-13.729
 21
-13.637
  0
LINE
  8
0
 10
29.729
 11
29.656
 20
-13.637
 21
-13.536
  0
LINE
  8
0
 10
29.656
 11
29.595
 20
-13.536
 21
-13.426
  0
LINE
  8
0
 10
29.595
 11
29.549
 20
-13.426
 21
-13.309
  0
LINE
  8
0
 10
29.549
 11
29.518
 20
-13.309
 21
-13.187
  0
LINE
  8
0
 10
29.518
 11
29.502
 20
-13.187
 21
-13.063
  0
LINE
  8
0
 10
35
 11
35
 20
-22.5
 21
-17.5
  0
LINE
  8
0
 10
35
 11
40
 20
-17.5
 21
-17.5
  0
LINE
  8
0
 10
40
 11
40
 20
-17.5
 21
-22.5
  0
LINE
  8
0
 10
40
 11
35
 20
-22.5
 21
-22.5
  0
LINE
  8
0
 10
35
 11
35
 20
17.5
 21
22.5
  0
LINE
  8
0
 10
35
 11
40
 20
22.5
 21
22.5
  0
LINE
  8
0
 10
40
 11
40
 20
22.5
 21
17.5
  0
LINE
  8
0
 10
40
 11
35
 20
17.5
 21
17.5
  0
ENDSEC
  0
SECTION
  2
OBJECTS
  0
DICTIONARY
  0
ENDSEC
  0
EOF
