  0
SECTION
  2
BLOCKS
  0
ENDSEC
  0
SECTION
  2
ENTITIES
  0
LINE
  8
0
 10
-28.5
 11
-28.5
 20
-20
 21
-15
  0
LINE
  8
0
 10
-28.5
 11
-23.5
 20
-15
 21
-15
  0
LINE
  8
0
 10
-23.5
 11
-23.5
 20
-15
 21
-20
  0
LINE
  8
0
 10
-23.5
 11
-28.5
 20
-20
 21
-20
  0
LINE
  8
0
 10
-31
 11
-31
 20
-25
 21
25
  0
LINE
  8
0
 10
-31
 11
-28.5
 20
25
 21
25
  0
LINE
  8
0
 10
-28.5
 11
-28.5
 20
25
 21
20
  0
LINE
  8
0
 10
-28.5
 11
-23.5
 20
20
 21
20
  0
LINE
  8
0
 10
-23.5
 11
-23.5
 20
20
 21
25
  0
LINE
  8
0
 10
-23.5
 11
23.5
 20
25
 21
25
  0
LINE
  8
0
 10
23.5
 11
23.5
 20
25
 21
20
  0
LINE
  8
0
 10
23.5
 11
28.5
 20
20
 21
20
  0
LINE
  8
0
 10
28.5
 11
28.5
 20
20
 21
25
  0
LINE
  8
0
 10
28.5
 11
31
 20
25
 21
25
  0
LINE
  8
0
 10
31
 11
31
 20
25
 21
-25
  0
LINE
  8
0
 10
31
 11
-31
 20
-25
 21
-25
  0
LINE
  8
0
 10
-28.5
 11
-28.5
 20
0
 21
5
  0
LINE
  8
0
 10
-28.5
 11
-23.5
 20
5
 21
5
  0
LINE
  8
0
 10
-23.5
 11
-23.5
 20
5
 21
0
  0
LINE
  8
0
 10
-23.5
 11
-28.5
 20
0
 21
0
  0
LINE
  8
0
 10
-27.5
 11
-27.488
 20
-7.5
 21
-7.312
  0
LINE
  8
0
 10
-27.488
 11
-27.453
 20
-7.312
 21
-7.127
  0
LINE
  8
0
 10
-27.453
 11
-27.395
 20
-7.127
 21
-6.948
  0
LINE
  8
0
 10
-27.395
 11
-27.314
 20
-6.948
 21
-6.777
  0
LINE
  8
0
 10
-27.314
 11
-27.214
 20
-6.777
 21
-6.618
  0
LINE
  8
0
 10
-27.214
 11
-27.093
 20
-6.618
 21
-6.473
  0
LINE
  8
0
 10
-27.093
 11
-26.956
 20
-6.473
 21
-6.344
  0
LINE
  8
0
 10
-26.956
 11
-26.804
 20
-6.344
 21
-6.234
  0
LINE
  8
0
 10
-26.804
 11
-26.639
 20
-6.234
 21
-6.143
  0
LINE
  8
0
 10
-26.639
 11
-26.464
 20
-6.143
 21
-6.073
  0
LINE
  8
0
 10
-26.464
 11
-26.281
 20
-6.073
 21
-6.027
  0
LINE
  8
0
 10
-26.281
 11
-26.094
 20
-6.027
 21
-6.003
  0
LINE
  8
0
 10
-26.094
 11
-25.906
 20
-6.003
 21
-6.003
  0
LINE
  8
0
 10
-25.906
 11
-25.719
 20
-6.003
 21
-6.027
  0
LINE
  8
0
 10
-25.719
 11
-25.536
 20
-6.027
 21
-6.073
  0
LINE
  8
0
 10
-25.536
 11
-25.361
 20
-6.073
 21
-6.143
  0
LINE
  8
0
 10
-25.361
 11
-25.196
 20
-6.143
 21
-6.234
  0
LINE
  8
0
 10
-25.196
 11
-25.044
 20
-6.234
 21
-6.344
  0
LINE
  8
0
 10
-25.044
 11
-24.907
 20
-6.344
 21
-6.473
  0
LINE
  8
0
 10
-24.907
 11
-24.786
 20
-6.473
 21
-6.618
  0
LINE
  8
0
 10
-24.786
 11
-24.686
 20
-6.618
 21
-6.777
  0
LINE
  8
0
 10
-24.686
 11
-24.605
 20
-6.777
 21
-6.948
  0
LINE
  8
0
 10
-24.605
 11
-24.547
 20
-6.948
 21
-7.127
  0
LINE
  8
0
 10
-24.547
 11
-24.512
 20
-7.127
 21
-7.312
  0
LINE
  8
0
 10
-24.512
 11
-24.5
 20
-7.312
 21
-7.5
  0
LINE
  8
0
 10
-24.5
 11
-24.512
 20
-7.5
 21
-7.688
  0
LINE
  8
0
 10
-24.512
 11
-24.547
 20
-7.688
 21
-7.873
  0
LINE
  8
0
 10
-24.547
 11
-24.605
 20
-7.873
 21
-8.052
  0
LINE
  8
0
 10
-24.605
 11
-24.686
 20
-8.052
 21
-8.223
  0
LINE
  8
0
 10
-24.686
 11
-24.786
 20
-8.223
 21
-8.382
  0
LINE
  8
0
 10
-24.786
 11
-24.907
 20
-8.382
 21
-8.527
  0
LINE
  8
0
 10
-24.907
 11
-25.044
 20
-8.527
 21
-8.656
  0
LINE
  8
0
 10
-25.044
 11
-25.196
 20
-8.656
 21
-8.766
  0
LINE
  8
0
 10
-25.196
 11
-25.361
 20
-8.766
 21
-8.857
  0
LINE
  8
0
 10
-25.361
 11
-25.536
 20
-8.857
 21
-8.927
  0
LINE
  8
0
 10
-25.536
 11
-25.719
 20
-8.927
 21
-8.973
  0
LINE
  8
0
 10
-25.719
 11
-25.906
 20
-8.973
 21
-8.997
  0
LINE
  8
0
 10
-25.906
 11
-26.094
 20
-8.997
 21
-8.997
  0
LINE
  8
0
 10
-26.094
 11
-26.281
 20
-8.997
 21
-8.973
  0
LINE
  8
0
 10
-26.281
 11
-26.464
 20
-8.973
 21
-8.927
  0
LINE
  8
0
 10
-26.464
 11
-26.639
 20
-8.927
 21
-8.857
  0
LINE
  8
0
 10
-26.639
 11
-26.804
 20
-8.857
 21
-8.766
  0
LINE
  8
0
 10
-26.804
 11
-26.956
 20
-8.766
 21
-8.656
  0
LINE
  8
0
 10
-26.956
 11
-27.093
 20
-8.656
 21
-8.527
  0
LINE
  8
0
 10
-27.093
 11
-27.214
 20
-8.527
 21
-8.382
  0
LINE
  8
0
 10
-27.214
 11
-27.314
 20
-8.382
 21
-8.223
  0
LINE
  8
0
 10
-27.314
 11
-27.395
 20
-8.223
 21
-8.052
  0
LINE
  8
0
 10
-27.395
 11
-27.453
 20
-8.052
 21
-7.873
  0
LINE
  8
0
 10
-27.453
 11
-27.488
 20
-7.873
 21
-7.688
  0
LINE
  8
0
 10
-27.488
 11
-27.5
 20
-7.688
 21
-7.5
  0
LINE
  8
0
 10
-27.5
 11
-27.488
 20
12.5
 21
12.688
  0
LINE
  8
0
 10
-27.488
 11
-27.453
 20
12.688
 21
12.873
  0
LINE
  8
0
 10
-27.453
 11
-27.395
 20
12.873
 21
13.052
  0
LINE
  8
0
 10
-27.395
 11
-27.314
 20
13.052
 21
13.223
  0
LINE
  8
0
 10
-27.314
 11
-27.214
 20
13.223
 21
13.382
  0
LINE
  8
0
 10
-27.214
 11
-27.093
 20
13.382
 21
13.527
  0
LINE
  8
0
 10
-27.093
 11
-26.956
 20
13.527
 21
13.656
  0
LINE
  8
0
 10
-26.956
 11
-26.804
 20
13.656
 21
13.766
  0
LINE
  8
0
 10
-26.804
 11
-26.639
 20
13.766
 21
13.857
  0
LINE
  8
0
 10
-26.639
 11
-26.464
 20
13.857
 21
13.927
  0
LINE
  8
0
 10
-26.464
 11
-26.281
 20
13.927
 21
13.973
  0
LINE
  8
0
 10
-26.281
 11
-26.094
 20
13.973
 21
13.997
  0
LINE
  8
0
 10
-26.094
 11
-25.906
 20
13.997
 21
13.997
  0
LINE
  8
0
 10
-25.906
 11
-25.719
 20
13.997
 21
13.973
  0
LINE
  8
0
 10
-25.719
 11
-25.536
 20
13.973
 21
13.927
  0
LINE
  8
0
 10
-25.536
 11
-25.361
 20
13.927
 21
13.857
  0
LINE
  8
0
 10
-25.361
 11
-25.196
 20
13.857
 21
13.766
  0
LINE
  8
0
 10
-25.196
 11
-25.044
 20
13.766
 21
13.656
  0
LINE
  8
0
 10
-25.044
 11
-24.907
 20
13.656
 21
13.527
  0
LINE
  8
0
 10
-24.907
 11
-24.786
 20
13.527
 21
13.382
  0
LINE
  8
0
 10
-24.786
 11
-24.686
 20
13.382
 21
13.223
  0
LINE
  8
0
 10
-24.686
 11
-24.605
 20
13.223
 21
13.052
  0
LINE
  8
0
 10
-24.605
 11
-24.547
 20
13.052
 21
12.873
  0
LINE
  8
0
 10
-24.547
 11
-24.512
 20
12.873
 21
12.688
  0
LINE
  8
0
 10
-24.512
 11
-24.5
 20
12.688
 21
12.5
  0
LINE
  8
0
 10
-24.5
 11
-24.512
 20
12.5
 21
12.312
  0
LINE
  8
0
 10
-24.512
 11
-24.547
 20
12.312
 21
12.127
  0
LINE
  8
0
 10
-24.547
 11
-24.605
 20
12.127
 21
11.948
  0
LINE
  8
0
 10
-24.605
 11
-24.686
 20
11.948
 21
11.777
  0
LINE
  8
0
 10
-24.686
 11
-24.786
 20
11.777
 21
11.618
  0
LINE
  8
0
 10
-24.786
 11
-24.907
 20
11.618
 21
11.473
  0
LINE
  8
0
 10
-24.907
 11
-25.044
 20
11.473
 21
11.344
  0
LINE
  8
0
 10
-25.044
 11
-25.196
 20
11.344
 21
11.234
  0
LINE
  8
0
 10
-25.196
 11
-25.361
 20
11.234
 21
11.143
  0
LINE
  8
0
 10
-25.361
 11
-25.536
 20
11.143
 21
11.073
  0
LINE
  8
0
 10
-25.536
 11
-25.719
 20
11.073
 21
11.027
  0
LINE
  8
0
 10
-25.719
 11
-25.906
 20
11.027
 21
11.003
  0
LINE
  8
0
 10
-25.906
 11
-26.094
 20
11.003
 21
11.003
  0
LINE
  8
0
 10
-26.094
 11
-26.281
 20
11.003
 21
11.027
  0
LINE
  8
0
 10
-26.281
 11
-26.464
 20
11.027
 21
11.073
  0
LINE
  8
0
 10
-26.464
 11
-26.639
 20
11.073
 21
11.143
  0
LINE
  8
0
 10
-26.639
 11
-26.804
 20
11.143
 21
11.234
  0
LINE
  8
0
 10
-26.804
 11
-26.956
 20
11.234
 21
11.344
  0
LINE
  8
0
 10
-26.956
 11
-27.093
 20
11.344
 21
11.473
  0
LINE
  8
0
 10
-27.093
 11
-27.214
 20
11.473
 21
11.618
  0
LINE
  8
0
 10
-27.214
 11
-27.314
 20
11.618
 21
11.777
  0
LINE
  8
0
 10
-27.314
 11
-27.395
 20
11.777
 21
11.948
  0
LINE
  8
0
 10
-27.395
 11
-27.453
 20
11.948
 21
12.127
  0
LINE
  8
0
 10
-27.453
 11
-27.488
 20
12.127
 21
12.312
  0
LINE
  8
0
 10
-27.488
 11
-27.5
 20
12.312
 21
12.5
  0
LINE
  8
0
 10
-19
 11
-18.988
 20
22.5
 21
22.688
  0
LINE
  8
0
 10
-18.988
 11
-18.953
 20
22.688
 21
22.873
  0
LINE
  8
0
 10
-18.953
 11
-18.895
 20
22.873
 21
23.052
  0
LINE
  8
0
 10
-18.895
 11
-18.814
 20
23.052
 21
23.223
  0
LINE
  8
0
 10
-18.814
 11
-18.714
 20
23.223
 21
23.382
  0
LINE
  8
0
 10
-18.714
 11
-18.593
 20
23.382
 21
23.527
  0
LINE
  8
0
 10
-18.593
 11
-18.456
 20
23.527
 21
23.656
  0
LINE
  8
0
 10
-18.456
 11
-18.304
 20
23.656
 21
23.766
  0
LINE
  8
0
 10
-18.304
 11
-18.139
 20
23.766
 21
23.857
  0
LINE
  8
0
 10
-18.139
 11
-17.964
 20
23.857
 21
23.927
  0
LINE
  8
0
 10
-17.964
 11
-17.781
 20
23.927
 21
23.973
  0
LINE
  8
0
 10
-17.781
 11
-17.594
 20
23.973
 21
23.997
  0
LINE
  8
0
 10
-17.594
 11
-17.406
 20
23.997
 21
23.997
  0
LINE
  8
0
 10
-17.406
 11
-17.219
 20
23.997
 21
23.973
  0
LINE
  8
0
 10
-17.219
 11
-17.036
 20
23.973
 21
23.927
  0
LINE
  8
0
 10
-17.036
 11
-16.861
 20
23.927
 21
23.857
  0
LINE
  8
0
 10
-16.861
 11
-16.696
 20
23.857
 21
23.766
  0
LINE
  8
0
 10
-16.696
 11
-16.544
 20
23.766
 21
23.656
  0
LINE
  8
0
 10
-16.544
 11
-16.407
 20
23.656
 21
23.527
  0
LINE
  8
0
 10
-16.407
 11
-16.286
 20
23.527
 21
23.382
  0
LINE
  8
0
 10
-16.286
 11
-16.186
 20
23.382
 21
23.223
  0
LINE
  8
0
 10
-16.186
 11
-16.105
 20
23.223
 21
23.052
  0
LINE
  8
0
 10
-16.105
 11
-16.047
 20
23.052
 21
22.873
  0
LINE
  8
0
 10
-16.047
 11
-16.012
 20
22.873
 21
22.688
  0
LINE
  8
0
 10
-16.012
 11
-16
 20
22.688
 21
22.5
  0
LINE
  8
0
 10
-16
 11
-16.012
 20
22.5
 21
22.312
  0
LINE
  8
0
 10
-16.012
 11
-16.047
 20
22.312
 21
22.127
  0
LINE
  8
0
 10
-16.047
 11
-16.105
 20
22.127
 21
21.948
  0
LINE
  8
0
 10
-16.105
 11
-16.186
 20
21.948
 21
21.777
  0
LINE
  8
0
 10
-16.186
 11
-16.286
 20
21.777
 21
21.618
  0
LINE
  8
0
 10
-16.286
 11
-16.407
 20
21.618
 21
21.473
  0
LINE
  8
0
 10
-16.407
 11
-16.544
 20
21.473
 21
21.344
  0
LINE
  8
0
 10
-16.544
 11
-16.696
 20
21.344
 21
21.234
  0
LINE
  8
0
 10
-16.696
 11
-16.861
 20
21.234
 21
21.143
  0
LINE
  8
0
 10
-16.861
 11
-17.036
 20
21.143
 21
21.073
  0
LINE
  8
0
 10
-17.036
 11
-17.219
 20
21.073
 21
21.027
  0
LINE
  8
0
 10
-17.219
 11
-17.406
 20
21.027
 21
21.003
  0
LINE
  8
0
 10
-17.406
 11
-17.594
 20
21.003
 21
21.003
  0
LINE
  8
0
 10
-17.594
 11
-17.781
 20
21.003
 21
21.027
  0
LINE
  8
0
 10
-17.781
 11
-17.964
 20
21.027
 21
21.073
  0
LINE
  8
0
 10
-17.964
 11
-18.139
 20
21.073
 21
21.143
  0
LINE
  8
0
 10
-18.139
 11
-18.304
 20
21.143
 21
21.234
  0
LINE
  8
0
 10
-18.304
 11
-18.456
 20
21.234
 21
21.344
  0
LINE
  8
0
 10
-18.456
 11
-18.593
 20
21.344
 21
21.473
  0
LINE
  8
0
 10
-18.593
 11
-18.714
 20
21.473
 21
21.618
  0
LINE
  8
0
 10
-18.714
 11
-18.814
 20
21.618
 21
21.777
  0
LINE
  8
0
 10
-18.814
 11
-18.895
 20
21.777
 21
21.948
  0
LINE
  8
0
 10
-18.895
 11
-18.953
 20
21.948
 21
22.127
  0
LINE
  8
0
 10
-18.953
 11
-18.988
 20
22.127
 21
22.312
  0
LINE
  8
0
 10
-18.988
 11
-19
 20
22.312
 21
22.5
  0
LINE
  8
0
 10
-2.5
 11
-2.48
 20
-15
 21
-14.687
  0
LINE
  8
0
 10
-2.48
 11
-2.421
 20
-14.687
 21
-14.378
  0
LINE
  8
0
 10
-2.421
 11
-2.324
 20
-14.378
 21
-14.08
  0
LINE
  8
0
 10
-2.324
 11
-2.191
 20
-14.08
 21
-13.796
  0
LINE
  8
0
 10
-2.191
 11
-2.023
 20
-13.796
 21
-13.531
  0
LINE
  8
0
 10
-2.023
 11
-1.822
 20
-13.531
 21
-13.289
  0
LINE
  8
0
 10
-1.822
 11
-1.594
 20
-13.289
 21
-13.074
  0
LINE
  8
0
 10
-1.594
 11
-1.34
 20
-13.074
 21
-12.889
  0
LINE
  8
0
 10
-1.34
 11
-1.064
 20
-12.889
 21
-12.738
  0
LINE
  8
0
 10
-1.064
 11
-0.773
 20
-12.738
 21
-12.622
  0
LINE
  8
0
 10
-0.773
 11
-0.468
 20
-12.622
 21
-12.544
  0
LINE
  8
0
 10
-0.468
 11
-0.157
 20
-12.544
 21
-12.505
  0
LINE
  8
0
 10
-0.157
 11
0.157
 20
-12.505
 21
-12.505
  0
LINE
  8
0
 10
0.157
 11
0.468
 20
-12.505
 21
-12.544
  0
LINE
  8
0
 10
0.468
 11
0.773
 20
-12.544
 21
-12.622
  0
LINE
  8
0
 10
0.773
 11
1.064
 20
-12.622
 21
-12.738
  0
LINE
  8
0
 10
1.064
 11
1.34
 20
-12.738
 21
-12.889
  0
LINE
  8
0
 10
1.34
 11
1.594
 20
-12.889
 21
-13.074
  0
LINE
  8
0
 10
1.594
 11
1.822
 20
-13.074
 21
-13.289
  0
LINE
  8
0
 10
1.822
 11
2.023
 20
-13.289
 21
-13.531
  0
LINE
  8
0
 10
2.023
 11
2.191
 20
-13.531
 21
-13.796
  0
LINE
  8
0
 10
2.191
 11
2.324
 20
-13.796
 21
-14.08
  0
LINE
  8
0
 10
2.324
 11
2.421
 20
-14.08
 21
-14.378
  0
LINE
  8
0
 10
2.421
 11
2.48
 20
-14.378
 21
-14.687
  0
LINE
  8
0
 10
2.48
 11
2.5
 20
-14.687
 21
-15
  0
LINE
  8
0
 10
2.5
 11
2.48
 20
-15
 21
-15.313
  0
LINE
  8
0
 10
2.48
 11
2.421
 20
-15.313
 21
-15.622
  0
LINE
  8
0
 10
2.421
 11
2.324
 20
-15.622
 21
-15.92
  0
LINE
  8
0
 10
2.324
 11
2.191
 20
-15.92
 21
-16.204
  0
LINE
  8
0
 10
2.191
 11
2.023
 20
-16.204
 21
-16.469
  0
LINE
  8
0
 10
2.023
 11
1.822
 20
-16.469
 21
-16.711
  0
LINE
  8
0
 10
1.822
 11
1.594
 20
-16.711
 21
-16.926
  0
LINE
  8
0
 10
1.594
 11
1.34
 20
-16.926
 21
-17.111
  0
LINE
  8
0
 10
1.34
 11
1.064
 20
-17.111
 21
-17.262
  0
LINE
  8
0
 10
1.064
 11
0.773
 20
-17.262
 21
-17.378
  0
LINE
  8
0
 10
0.773
 11
0.468
 20
-17.378
 21
-17.456
  0
LINE
  8
0
 10
0.468
 11
0.157
 20
-17.456
 21
-17.495
  0
LINE
  8
0
 10
0.157
 11
-0.157
 20
-17.495
 21
-17.495
  0
LINE
  8
0
 10
-0.157
 11
-0.468
 20
-17.495
 21
-17.456
  0
LINE
  8
0
 10
-0.468
 11
-0.773
 20
-17.456
 21
-17.378
  0
LINE
  8
0
 10
-0.773
 11
-1.064
 20
-17.378
 21
-17.262
  0
LINE
  8
0
 10
-1.064
 11
-1.34
 20
-17.262
 21
-17.111
  0
LINE
  8
0
 10
-1.34
 11
-1.594
 20
-17.111
 21
-16.926
  0
LINE
  8
0
 10
-1.594
 11
-1.822
 20
-16.926
 21
-16.711
  0
LINE
  8
0
 10
-1.822
 11
-2.023
 20
-16.711
 21
-16.469
  0
LINE
  8
0
 10
-2.023
 11
-2.191
 20
-16.469
 21
-16.204
  0
LINE
  8
0
 10
-2.191
 11
-2.324
 20
-16.204
 21
-15.92
  0
LINE
  8
0
 10
-2.324
 11
-2.421
 20
-15.92
 21
-15.622
  0
LINE
  8
0
 10
-2.421
 11
-2.48
 20
-15.622
 21
-15.313
  0
LINE
  8
0
 10
-2.48
 11
-2.5
 20
-15.313
 21
-15
  0
LINE
  8
0
 10
-2.5
 11
-2.48
 20
15
 21
15.313
  0
LINE
  8
0
 10
-2.48
 11
-2.421
 20
15.313
 21
15.622
  0
LINE
  8
0
 10
-2.421
 11
-2.324
 20
15.622
 21
15.92
  0
LINE
  8
0
 10
-2.324
 11
-2.191
 20
15.92
 21
16.204
  0
LINE
  8
0
 10
-2.191
 11
-2.023
 20
16.204
 21
16.469
  0
LINE
  8
0
 10
-2.023
 11
-1.822
 20
16.469
 21
16.711
  0
LINE
  8
0
 10
-1.822
 11
-1.594
 20
16.711
 21
16.926
  0
LINE
  8
0
 10
-1.594
 11
-1.34
 20
16.926
 21
17.111
  0
LINE
  8
0
 10
-1.34
 11
-1.064
 20
17.111
 21
17.262
  0
LINE
  8
0
 10
-1.064
 11
-0.773
 20
17.262
 21
17.378
  0
LINE
  8
0
 10
-0.773
 11
-0.468
 20
17.378
 21
17.456
  0
LINE
  8
0
 10
-0.468
 11
-0.157
 20
17.456
 21
17.495
  0
LINE
  8
0
 10
-0.157
 11
0.157
 20
17.495
 21
17.495
  0
LINE
  8
0
 10
0.157
 11
0.468
 20
17.495
 21
17.456
  0
LINE
  8
0
 10
0.468
 11
0.773
 20
17.456
 21
17.378
  0
LINE
  8
0
 10
0.773
 11
1.064
 20
17.378
 21
17.262
  0
LINE
  8
0
 10
1.064
 11
1.34
 20
17.262
 21
17.111
  0
LINE
  8
0
 10
1.34
 11
1.594
 20
17.111
 21
16.926
  0
LINE
  8
0
 10
1.594
 11
1.822
 20
16.926
 21
16.711
  0
LINE
  8
0
 10
1.822
 11
2.023
 20
16.711
 21
16.469
  0
LINE
  8
0
 10
2.023
 11
2.191
 20
16.469
 21
16.204
  0
LINE
  8
0
 10
2.191
 11
2.324
 20
16.204
 21
15.92
  0
LINE
  8
0
 10
2.324
 11
2.421
 20
15.92
 21
15.622
  0
LINE
  8
0
 10
2.421
 11
2.48
 20
15.622
 21
15.313
  0
LINE
  8
0
 10
2.48
 11
2.5
 20
15.313
 21
15
  0
LINE
  8
0
 10
2.5
 11
2.48
 20
15
 21
14.687
  0
LINE
  8
0
 10
2.48
 11
2.421
 20
14.687
 21
14.378
  0
LINE
  8
0
 10
2.421
 11
2.324
 20
14.378
 21
14.08
  0
LINE
  8
0
 10
2.324
 11
2.191
 20
14.08
 21
13.796
  0
LINE
  8
0
 10
2.191
 11
2.023
 20
13.796
 21
13.531
  0
LINE
  8
0
 10
2.023
 11
1.822
 20
13.531
 21
13.289
  0
LINE
  8
0
 10
1.822
 11
1.594
 20
13.289
 21
13.074
  0
LINE
  8
0
 10
1.594
 11
1.34
 20
13.074
 21
12.889
  0
LINE
  8
0
 10
1.34
 11
1.064
 20
12.889
 21
12.738
  0
LINE
  8
0
 10
1.064
 11
0.773
 20
12.738
 21
12.622
  0
LINE
  8
0
 10
0.773
 11
0.468
 20
12.622
 21
12.544
  0
LINE
  8
0
 10
0.468
 11
0.157
 20
12.544
 21
12.505
  0
LINE
  8
0
 10
0.157
 11
-0.157
 20
12.505
 21
12.505
  0
LINE
  8
0
 10
-0.157
 11
-0.468
 20
12.505
 21
12.544
  0
LINE
  8
0
 10
-0.468
 11
-0.773
 20
12.544
 21
12.622
  0
LINE
  8
0
 10
-0.773
 11
-1.064
 20
12.622
 21
12.738
  0
LINE
  8
0
 10
-1.064
 11
-1.34
 20
12.738
 21
12.889
  0
LINE
  8
0
 10
-1.34
 11
-1.594
 20
12.889
 21
13.074
  0
LINE
  8
0
 10
-1.594
 11
-1.822
 20
13.074
 21
13.289
  0
LINE
  8
0
 10
-1.822
 11
-2.023
 20
13.289
 21
13.531
  0
LINE
  8
0
 10
-2.023
 11
-2.191
 20
13.531
 21
13.796
  0
LINE
  8
0
 10
-2.191
 11
-2.324
 20
13.796
 21
14.08
  0
LINE
  8
0
 10
-2.324
 11
-2.421
 20
14.08
 21
14.378
  0
LINE
  8
0
 10
-2.421
 11
-2.48
 20
14.378
 21
14.687
  0
LINE
  8
0
 10
-2.48
 11
-2.5
 20
14.687
 21
15
  0
LINE
  8
0
 10
16
 11
16.012
 20
22.5
 21
22.688
  0
LINE
  8
0
 10
16.012
 11
16.047
 20
22.688
 21
22.873
  0
LINE
  8
0
 10
16.047
 11
16.105
 20
22.873
 21
23.052
  0
LINE
  8
0
 10
16.105
 11
16.186
 20
23.052
 21
23.223
  0
LINE
  8
0
 10
16.186
 11
16.286
 20
23.223
 21
23.382
  0
LINE
  8
0
 10
16.286
 11
16.407
 20
23.382
 21
23.527
  0
LINE
  8
0
 10
16.407
 11
16.544
 20
23.527
 21
23.656
  0
LINE
  8
0
 10
16.544
 11
16.696
 20
23.656
 21
23.766
  0
LINE
  8
0
 10
16.696
 11
16.861
 20
23.766
 21
23.857
  0
LINE
  8
0
 10
16.861
 11
17.036
 20
23.857
 21
23.927
  0
LINE
  8
0
 10
17.036
 11
17.219
 20
23.927
 21
23.973
  0
LINE
  8
0
 10
17.219
 11
17.406
 20
23.973
 21
23.997
  0
LINE
  8
0
 10
17.406
 11
17.594
 20
23.997
 21
23.997
  0
LINE
  8
0
 10
17.594
 11
17.781
 20
23.997
 21
23.973
  0
LINE
  8
0
 10
17.781
 11
17.964
 20
23.973
 21
23.927
  0
LINE
  8
0
 10
17.964
 11
18.139
 20
23.927
 21
23.857
  0
LINE
  8
0
 10
18.139
 11
18.304
 20
23.857
 21
23.766
  0
LINE
  8
0
 10
18.304
 11
18.456
 20
23.766
 21
23.656
  0
LINE
  8
0
 10
18.456
 11
18.593
 20
23.656
 21
23.527
  0
LINE
  8
0
 10
18.593
 11
18.714
 20
23.527
 21
23.382
  0
LINE
  8
0
 10
18.714
 11
18.814
 20
23.382
 21
23.223
  0
LINE
  8
0
 10
18.814
 11
18.895
 20
23.223
 21
23.052
  0
LINE
  8
0
 10
18.895
 11
18.953
 20
23.052
 21
22.873
  0
LINE
  8
0
 10
18.953
 11
18.988
 20
22.873
 21
22.688
  0
LINE
  8
0
 10
18.988
 11
19
 20
22.688
 21
22.5
  0
LINE
  8
0
 10
19
 11
18.988
 20
22.5
 21
22.312
  0
LINE
  8
0
 10
18.988
 11
18.953
 20
22.312
 21
22.127
  0
LINE
  8
0
 10
18.953
 11
18.895
 20
22.127
 21
21.948
  0
LINE
  8
0
 10
18.895
 11
18.814
 20
21.948
 21
21.777
  0
LINE
  8
0
 10
18.814
 11
18.714
 20
21.777
 21
21.618
  0
LINE
  8
0
 10
18.714
 11
18.593
 20
21.618
 21
21.473
  0
LINE
  8
0
 10
18.593
 11
18.456
 20
21.473
 21
21.344
  0
LINE
  8
0
 10
18.456
 11
18.304
 20
21.344
 21
21.234
  0
LINE
  8
0
 10
18.304
 11
18.139
 20
21.234
 21
21.143
  0
LINE
  8
0
 10
18.139
 11
17.964
 20
21.143
 21
21.073
  0
LINE
  8
0
 10
17.964
 11
17.781
 20
21.073
 21
21.027
  0
LINE
  8
0
 10
17.781
 11
17.594
 20
21.027
 21
21.003
  0
LINE
  8
0
 10
17.594
 11
17.406
 20
21.003
 21
21.003
  0
LINE
  8
0
 10
17.406
 11
17.219
 20
21.003
 21
21.027
  0
LINE
  8
0
 10
17.219
 11
17.036
 20
21.027
 21
21.073
  0
LINE
  8
0
 10
17.036
 11
16.861
 20
21.073
 21
21.143
  0
LINE
  8
0
 10
16.861
 11
16.696
 20
21.143
 21
21.234
  0
LINE
  8
0
 10
16.696
 11
16.544
 20
21.234
 21
21.344
  0
LINE
  8
0
 10
16.544
 11
16.407
 20
21.344
 21
21.473
  0
LINE
  8
0
 10
16.407
 11
16.286
 20
21.473
 21
21.618
  0
LINE
  8
0
 10
16.286
 11
16.186
 20
21.618
 21
21.777
  0
LINE
  8
0
 10
16.186
 11
16.105
 20
21.777
 21
21.948
  0
LINE
  8
0
 10
16.105
 11
16.047
 20
21.948
 21
22.127
  0
LINE
  8
0
 10
16.047
 11
16.012
 20
22.127
 21
22.312
  0
LINE
  8
0
 10
16.012
 11
16
 20
22.312
 21
22.5
  0
LINE
  8
0
 10
23.5
 11
23.5
 20
-20
 21
-15
  0
LINE
  8
0
 10
23.5
 11
28.5
 20
-15
 21
-15
  0
LINE
  8
0
 10
28.5
 11
28.5
 20
-15
 21
-20
  0
LINE
  8
0
 10
28.5
 11
23.5
 20
-20
 21
-20
  0
LINE
  8
0
 10
23.5
 11
23.5
 20
0
 21
5
  0
LINE
  8
0
 10
23.5
 11
28.5
 20
5
 21
5
  0
LINE
  8
0
 10
28.5
 11
28.5
 20
5
 21
0
  0
LINE
  8
0
 10
28.5
 11
23.5
 20
0
 21
0
  0
LINE
  8
0
 10
24.5
 11
24.512
 20
-7.5
 21
-7.312
  0
LINE
  8
0
 10
24.512
 11
24.547
 20
-7.312
 21
-7.127
  0
LINE
  8
0
 10
24.547
 11
24.605
 20
-7.127
 21
-6.948
  0
LINE
  8
0
 10
24.605
 11
24.686
 20
-6.948
 21
-6.777
  0
LINE
  8
0
 10
24.686
 11
24.786
 20
-6.777
 21
-6.618
  0
LINE
  8
0
 10
24.786
 11
24.907
 20
-6.618
 21
-6.473
  0
LINE
  8
0
 10
24.907
 11
25.044
 20
-6.473
 21
-6.344
  0
LINE
  8
0
 10
25.044
 11
25.196
 20
-6.344
 21
-6.234
  0
LINE
  8
0
 10
25.196
 11
25.361
 20
-6.234
 21
-6.143
  0
LINE
  8
0
 10
25.361
 11
25.536
 20
-6.143
 21
-6.073
  0
LINE
  8
0
 10
25.536
 11
25.719
 20
-6.073
 21
-6.027
  0
LINE
  8
0
 10
25.719
 11
25.906
 20
-6.027
 21
-6.003
  0
LINE
  8
0
 10
25.906
 11
26.094
 20
-6.003
 21
-6.003
  0
LINE
  8
0
 10
26.094
 11
26.281
 20
-6.003
 21
-6.027
  0
LINE
  8
0
 10
26.281
 11
26.464
 20
-6.027
 21
-6.073
  0
LINE
  8
0
 10
26.464
 11
26.639
 20
-6.073
 21
-6.143
  0
LINE
  8
0
 10
26.639
 11
26.804
 20
-6.143
 21
-6.234
  0
LINE
  8
0
 10
26.804
 11
26.956
 20
-6.234
 21
-6.344
  0
LINE
  8
0
 10
26.956
 11
27.093
 20
-6.344
 21
-6.473
  0
LINE
  8
0
 10
27.093
 11
27.214
 20
-6.473
 21
-6.618
  0
LINE
  8
0
 10
27.214
 11
27.314
 20
-6.618
 21
-6.777
  0
LINE
  8
0
 10
27.314
 11
27.395
 20
-6.777
 21
-6.948
  0
LINE
  8
0
 10
27.395
 11
27.453
 20
-6.948
 21
-7.127
  0
LINE
  8
0
 10
27.453
 11
27.488
 20
-7.127
 21
-7.312
  0
LINE
  8
0
 10
27.488
 11
27.5
 20
-7.312
 21
-7.5
  0
LINE
  8
0
 10
27.5
 11
27.488
 20
-7.5
 21
-7.688
  0
LINE
  8
0
 10
27.488
 11
27.453
 20
-7.688
 21
-7.873
  0
LINE
  8
0
 10
27.453
 11
27.395
 20
-7.873
 21
-8.052
  0
LINE
  8
0
 10
27.395
 11
27.314
 20
-8.052
 21
-8.223
  0
LINE
  8
0
 10
27.314
 11
27.214
 20
-8.223
 21
-8.382
  0
LINE
  8
0
 10
27.214
 11
27.093
 20
-8.382
 21
-8.527
  0
LINE
  8
0
 10
27.093
 11
26.956
 20
-8.527
 21
-8.656
  0
LINE
  8
0
 10
26.956
 11
26.804
 20
-8.656
 21
-8.766
  0
LINE
  8
0
 10
26.804
 11
26.639
 20
-8.766
 21
-8.857
  0
LINE
  8
0
 10
26.639
 11
26.464
 20
-8.857
 21
-8.927
  0
LINE
  8
0
 10
26.464
 11
26.281
 20
-8.927
 21
-8.973
  0
LINE
  8
0
 10
26.281
 11
26.094
 20
-8.973
 21
-8.997
  0
LINE
  8
0
 10
26.094
 11
25.906
 20
-8.997
 21
-8.997
  0
LINE
  8
0
 10
25.906
 11
25.719
 20
-8.997
 21
-8.973
  0
LINE
  8
0
 10
25.719
 11
25.536
 20
-8.973
 21
-8.927
  0
LINE
  8
0
 10
25.536
 11
25.361
 20
-8.927
 21
-8.857
  0
LINE
  8
0
 10
25.361
 11
25.196
 20
-8.857
 21
-8.766
  0
LINE
  8
0
 10
25.196
 11
25.044
 20
-8.766
 21
-8.656
  0
LINE
  8
0
 10
25.044
 11
24.907
 20
-8.656
 21
-8.527
  0
LINE
  8
0
 10
24.907
 11
24.786
 20
-8.527
 21
-8.382
  0
LINE
  8
0
 10
24.786
 11
24.686
 20
-8.382
 21
-8.223
  0
LINE
  8
0
 10
24.686
 11
24.605
 20
-8.223
 21
-8.052
  0
LINE
  8
0
 10
24.605
 11
24.547
 20
-8.052
 21
-7.873
  0
LINE
  8
0
 10
24.547
 11
24.512
 20
-7.873
 21
-7.688
  0
LINE
  8
0
 10
24.512
 11
24.5
 20
-7.688
 21
-7.5
  0
LINE
  8
0
 10
24.5
 11
24.512
 20
12.5
 21
12.688
  0
LINE
  8
0
 10
24.512
 11
24.547
 20
12.688
 21
12.873
  0
LINE
  8
0
 10
24.547
 11
24.605
 20
12.873
 21
13.052
  0
LINE
  8
0
 10
24.605
 11
24.686
 20
13.052
 21
13.223
  0
LINE
  8
0
 10
24.686
 11
24.786
 20
13.223
 21
13.382
  0
LINE
  8
0
 10
24.786
 11
24.907
 20
13.382
 21
13.527
  0
LINE
  8
0
 10
24.907
 11
25.044
 20
13.527
 21
13.656
  0
LINE
  8
0
 10
25.044
 11
25.196
 20
13.656
 21
13.766
  0
LINE
  8
0
 10
25.196
 11
25.361
 20
13.766
 21
13.857
  0
LINE
  8
0
 10
25.361
 11
25.536
 20
13.857
 21
13.927
  0
LINE
  8
0
 10
25.536
 11
25.719
 20
13.927
 21
13.973
  0
LINE
  8
0
 10
25.719
 11
25.906
 20
13.973
 21
13.997
  0
LINE
  8
0
 10
25.906
 11
26.094
 20
13.997
 21
13.997
  0
LINE
  8
0
 10
26.094
 11
26.281
 20
13.997
 21
13.973
  0
LINE
  8
0
 10
26.281
 11
26.464
 20
13.973
 21
13.927
  0
LINE
  8
0
 10
26.464
 11
26.639
 20
13.927
 21
13.857
  0
LINE
  8
0
 10
26.639
 11
26.804
 20
13.857
 21
13.766
  0
LINE
  8
0
 10
26.804
 11
26.956
 20
13.766
 21
13.656
  0
LINE
  8
0
 10
26.956
 11
27.093
 20
13.656
 21
13.527
  0
LINE
  8
0
 10
27.093
 11
27.214
 20
13.527
 21
13.382
  0
LINE
  8
0
 10
27.214
 11
27.314
 20
13.382
 21
13.223
  0
LINE
  8
0
 10
27.314
 11
27.395
 20
13.223
 21
13.052
  0
LINE
  8
0
 10
27.395
 11
27.453
 20
13.052
 21
12.873
  0
LINE
  8
0
 10
27.453
 11
27.488
 20
12.873
 21
12.688
  0
LINE
  8
0
 10
27.488
 11
27.5
 20
12.688
 21
12.5
  0
LINE
  8
0
 10
27.5
 11
27.488
 20
12.5
 21
12.312
  0
LINE
  8
0
 10
27.488
 11
27.453
 20
12.312
 21
12.127
  0
LINE
  8
0
 10
27.453
 11
27.395
 20
12.127
 21
11.948
  0
LINE
  8
0
 10
27.395
 11
27.314
 20
11.948
 21
11.777
  0
LINE
  8
0
 10
27.314
 11
27.214
 20
11.777
 21
11.618
  0
LINE
  8
0
 10
27.214
 11
27.093
 20
11.618
 21
11.473
  0
LINE
  8
0
 10
27.093
 11
26.956
 20
11.473
 21
11.344
  0
LINE
  8
0
 10
26.956
 11
26.804
 20
11.344
 21
11.234
  0
LINE
  8
0
 10
26.804
 11
26.639
 20
11.234
 21
11.143
  0
LINE
  8
0
 10
26.639
 11
26.464
 20
11.143
 21
11.073
  0
LINE
  8
0
 10
26.464
 11
26.281
 20
11.073
 21
11.027
  0
LINE
  8
0
 10
26.281
 11
26.094
 20
11.027
 21
11.003
  0
LINE
  8
0
 10
26.094
 11
25.906
 20
11.003
 21
11.003
  0
LINE
  8
0
 10
25.906
 11
25.719
 20
11.003
 21
11.027
  0
LINE
  8
0
 10
25.719
 11
25.536
 20
11.027
 21
11.073
  0
LINE
  8
0
 10
25.536
 11
25.361
 20
11.073
 21
11.143
  0
LINE
  8
0
 10
25.361
 11
25.196
 20
11.143
 21
11.234
  0
LINE
  8
0
 10
25.196
 11
25.044
 20
11.234
 21
11.344
  0
LINE
  8
0
 10
25.044
 11
24.907
 20
11.344
 21
11.473
  0
LINE
  8
0
 10
24.907
 11
24.786
 20
11.473
 21
11.618
  0
LINE
  8
0
 10
24.786
 11
24.686
 20
11.618
 21
11.777
  0
LINE
  8
0
 10
24.686
 11
24.605
 20
11.777
 21
11.948
  0
LINE
  8
0
 10
24.605
 11
24.547
 20
11.948
 21
12.127
  0
LINE
  8
0
 10
24.547
 11
24.512
 20
12.127
 21
12.312
  0
LINE
  8
0
 10
24.512
 11
24.5
 20
12.312
 21
12.5
  0
ENDSEC
  0
SECTION
  2
OBJECTS
  0
DICTIONARY
  0
ENDSEC
  0
EOF
