  0
SECTION
  2
BLOCKS
  0
ENDSEC
  0
SECTION
  2
ENTITIES
  0
LINE
  8
0
 10
-16
 11
-16
 20
-16
 21
16
  0
LINE
  8
0
 10
-16
 11
16
 20
16
 21
16
  0
LINE
  8
0
 10
16
 11
16
 20
16
 21
-16
  0
LINE
  8
0
 10
16
 11
-16
 20
-16
 21
-16
  0
LINE
  8
0
 10
-14
 11
-13.992
 20
-13
 21
-12.875
  0
LINE
  8
0
 10
-13.992
 11
-13.969
 20
-12.875
 21
-12.751
  0
LINE
  8
0
 10
-13.969
 11
-13.93
 20
-12.751
 21
-12.632
  0
LINE
  8
0
 10
-13.93
 11
-13.876
 20
-12.632
 21
-12.518
  0
LINE
  8
0
 10
-13.876
 11
-13.809
 20
-12.518
 21
-12.412
  0
LINE
  8
0
 10
-13.809
 11
-13.729
 20
-12.412
 21
-12.315
  0
LINE
  8
0
 10
-13.729
 11
-13.637
 20
-12.315
 21
-12.229
  0
LINE
  8
0
 10
-13.637
 11
-13.536
 20
-12.229
 21
-12.156
  0
LINE
  8
0
 10
-13.536
 11
-13.426
 20
-12.156
 21
-12.095
  0
LINE
  8
0
 10
-13.426
 11
-13.309
 20
-12.095
 21
-12.049
  0
LINE
  8
0
 10
-13.309
 11
-13.187
 20
-12.049
 21
-12.018
  0
LINE
  8
0
 10
-13.187
 11
-13.063
 20
-12.018
 21
-12.002
  0
LINE
  8
0
 10
-13.063
 11
-12.937
 20
-12.002
 21
-12.002
  0
LINE
  8
0
 10
-12.937
 11
-12.813
 20
-12.002
 21
-12.018
  0
LINE
  8
0
 10
-12.813
 11
-12.691
 20
-12.018
 21
-12.049
  0
LINE
  8
0
 10
-12.691
 11
-12.574
 20
-12.049
 21
-12.095
  0
LINE
  8
0
 10
-12.574
 11
-12.464
 20
-12.095
 21
-12.156
  0
LINE
  8
0
 10
-12.464
 11
-12.363
 20
-12.156
 21
-12.229
  0
LINE
  8
0
 10
-12.363
 11
-12.271
 20
-12.229
 21
-12.315
  0
LINE
  8
0
 10
-12.271
 11
-12.191
 20
-12.315
 21
-12.412
  0
LINE
  8
0
 10
-12.191
 11
-12.124
 20
-12.412
 21
-12.518
  0
LINE
  8
0
 10
-12.124
 11
-12.07
 20
-12.518
 21
-12.632
  0
LINE
  8
0
 10
-12.07
 11
-12.031
 20
-12.632
 21
-12.751
  0
LINE
  8
0
 10
-12.031
 11
-12.008
 20
-12.751
 21
-12.875
  0
LINE
  8
0
 10
-12.008
 11
-12
 20
-12.875
 21
-13
  0
LINE
  8
0
 10
-12
 11
-12.008
 20
-13
 21
-13.125
  0
LINE
  8
0
 10
-12.008
 11
-12.031
 20
-13.125
 21
-13.249
  0
LINE
  8
0
 10
-12.031
 11
-12.07
 20
-13.249
 21
-13.368
  0
LINE
  8
0
 10
-12.07
 11
-12.124
 20
-13.368
 21
-13.482
  0
LINE
  8
0
 10
-12.124
 11
-12.191
 20
-13.482
 21
-13.588
  0
LINE
  8
0
 10
-12.191
 11
-12.271
 20
-13.588
 21
-13.685
  0
LINE
  8
0
 10
-12.271
 11
-12.363
 20
-13.685
 21
-13.771
  0
LINE
  8
0
 10
-12.363
 11
-12.464
 20
-13.771
 21
-13.844
  0
LINE
  8
0
 10
-12.464
 11
-12.574
 20
-13.844
 21
-13.905
  0
LINE
  8
0
 10
-12.574
 11
-12.691
 20
-13.905
 21
-13.951
  0
LINE
  8
0
 10
-12.691
 11
-12.813
 20
-13.951
 21
-13.982
  0
LINE
  8
0
 10
-12.813
 11
-12.937
 20
-13.982
 21
-13.998
  0
LINE
  8
0
 10
-12.937
 11
-13.063
 20
-13.998
 21
-13.998
  0
LINE
  8
0
 10
-13.063
 11
-13.187
 20
-13.998
 21
-13.982
  0
LINE
  8
0
 10
-13.187
 11
-13.309
 20
-13.982
 21
-13.951
  0
LINE
  8
0
 10
-13.309
 11
-13.426
 20
-13.951
 21
-13.905
  0
LINE
  8
0
 10
-13.426
 11
-13.536
 20
-13.905
 21
-13.844
  0
LINE
  8
0
 10
-13.536
 11
-13.637
 20
-13.844
 21
-13.771
  0
LINE
  8
0
 10
-13.637
 11
-13.729
 20
-13.771
 21
-13.685
  0
LINE
  8
0
 10
-13.729
 11
-13.809
 20
-13.685
 21
-13.588
  0
LINE
  8
0
 10
-13.809
 11
-13.876
 20
-13.588
 21
-13.482
  0
LINE
  8
0
 10
-13.876
 11
-13.93
 20
-13.482
 21
-13.368
  0
LINE
  8
0
 10
-13.93
 11
-13.969
 20
-13.368
 21
-13.249
  0
LINE
  8
0
 10
-13.969
 11
-13.992
 20
-13.249
 21
-13.125
  0
LINE
  8
0
 10
-13.992
 11
-14
 20
-13.125
 21
-13
  0
LINE
  8
0
 10
-13.998
 11
-13.998
 20
12.937
 21
13.063
  0
LINE
  8
0
 10
-13.998
 11
-13.982
 20
13.063
 21
13.187
  0
LINE
  8
0
 10
-13.982
 11
-13.951
 20
13.187
 21
13.309
  0
LINE
  8
0
 10
-13.951
 11
-13.905
 20
13.309
 21
13.426
  0
LINE
  8
0
 10
-13.905
 11
-13.844
 20
13.426
 21
13.536
  0
LINE
  8
0
 10
-13.844
 11
-13.771
 20
13.536
 21
13.637
  0
LINE
  8
0
 10
-13.771
 11
-13.685
 20
13.637
 21
13.729
  0
LINE
  8
0
 10
-13.685
 11
-13.588
 20
13.729
 21
13.809
  0
LINE
  8
0
 10
-13.588
 11
-13.482
 20
13.809
 21
13.876
  0
LINE
  8
0
 10
-13.482
 11
-13.368
 20
13.876
 21
13.93
  0
LINE
  8
0
 10
-13.368
 11
-13.249
 20
13.93
 21
13.969
  0
LINE
  8
0
 10
-13.249
 11
-13.125
 20
13.969
 21
13.992
  0
LINE
  8
0
 10
-13.125
 11
-13
 20
13.992
 21
14
  0
LINE
  8
0
 10
-13
 11
-12.875
 20
14
 21
13.992
  0
LINE
  8
0
 10
-12.875
 11
-12.751
 20
13.992
 21
13.969
  0
LINE
  8
0
 10
-12.751
 11
-12.632
 20
13.969
 21
13.93
  0
LINE
  8
0
 10
-12.632
 11
-12.518
 20
13.93
 21
13.876
  0
LINE
  8
0
 10
-12.518
 11
-12.412
 20
13.876
 21
13.809
  0
LINE
  8
0
 10
-12.412
 11
-12.315
 20
13.809
 21
13.729
  0
LINE
  8
0
 10
-12.315
 11
-12.229
 20
13.729
 21
13.637
  0
LINE
  8
0
 10
-12.229
 11
-12.156
 20
13.637
 21
13.536
  0
LINE
  8
0
 10
-12.156
 11
-12.095
 20
13.536
 21
13.426
  0
LINE
  8
0
 10
-12.095
 11
-12.049
 20
13.426
 21
13.309
  0
LINE
  8
0
 10
-12.049
 11
-12.018
 20
13.309
 21
13.187
  0
LINE
  8
0
 10
-12.018
 11
-12.002
 20
13.187
 21
13.063
  0
LINE
  8
0
 10
-12.002
 11
-12.002
 20
13.063
 21
12.937
  0
LINE
  8
0
 10
-12.002
 11
-12.018
 20
12.937
 21
12.813
  0
LINE
  8
0
 10
-12.018
 11
-12.049
 20
12.813
 21
12.691
  0
LINE
  8
0
 10
-12.049
 11
-12.095
 20
12.691
 21
12.574
  0
LINE
  8
0
 10
-12.095
 11
-12.156
 20
12.574
 21
12.464
  0
LINE
  8
0
 10
-12.156
 11
-12.229
 20
12.464
 21
12.363
  0
LINE
  8
0
 10
-12.229
 11
-12.315
 20
12.363
 21
12.271
  0
LINE
  8
0
 10
-12.315
 11
-12.412
 20
12.271
 21
12.191
  0
LINE
  8
0
 10
-12.412
 11
-12.518
 20
12.191
 21
12.124
  0
LINE
  8
0
 10
-12.518
 11
-12.632
 20
12.124
 21
12.07
  0
LINE
  8
0
 10
-12.632
 11
-12.751
 20
12.07
 21
12.031
  0
LINE
  8
0
 10
-12.751
 11
-12.875
 20
12.031
 21
12.008
  0
LINE
  8
0
 10
-12.875
 11
-13
 20
12.008
 21
12
  0
LINE
  8
0
 10
-13
 11
-13.125
 20
12
 21
12.008
  0
LINE
  8
0
 10
-13.125
 11
-13.249
 20
12.008
 21
12.031
  0
LINE
  8
0
 10
-13.249
 11
-13.368
 20
12.031
 21
12.07
  0
LINE
  8
0
 10
-13.368
 11
-13.482
 20
12.07
 21
12.124
  0
LINE
  8
0
 10
-13.482
 11
-13.588
 20
12.124
 21
12.191
  0
LINE
  8
0
 10
-13.588
 11
-13.685
 20
12.191
 21
12.271
  0
LINE
  8
0
 10
-13.685
 11
-13.771
 20
12.271
 21
12.363
  0
LINE
  8
0
 10
-13.771
 11
-13.844
 20
12.363
 21
12.464
  0
LINE
  8
0
 10
-13.844
 11
-13.905
 20
12.464
 21
12.574
  0
LINE
  8
0
 10
-13.905
 11
-13.951
 20
12.574
 21
12.691
  0
LINE
  8
0
 10
-13.951
 11
-13.982
 20
12.691
 21
12.813
  0
LINE
  8
0
 10
-13.982
 11
-13.998
 20
12.813
 21
12.937
  0
LINE
  8
0
 10
-10.2
 11
-10.2
 20
-8
 21
-3.3
  0
LINE
  8
0
 10
-10.2
 11
-10.194
 20
-3.3
 21
-3.204
  0
LINE
  8
0
 10
-10.194
 11
-10.177
 20
-3.204
 21
-3.109
  0
LINE
  8
0
 10
-10.177
 11
-10.147
 20
-3.109
 21
-3.016
  0
LINE
  8
0
 10
-10.147
 11
-10.106
 20
-3.016
 21
-2.928
  0
LINE
  8
0
 10
-10.106
 11
-10.055
 20
-2.928
 21
-2.846
  0
LINE
  8
0
 10
-10.055
 11
-9.995
 20
-2.846
 21
-2.77
  0
LINE
  8
0
 10
-9.995
 11
-9.925
 20
-2.77
 21
-2.701
  0
LINE
  8
0
 10
-9.925
 11
-9.847
 20
-2.701
 21
-2.642
  0
LINE
  8
0
 10
-9.847
 11
-9.763
 20
-2.642
 21
-2.592
  0
LINE
  8
0
 10
-9.763
 11
-9.674
 20
-2.592
 21
-2.552
  0
LINE
  8
0
 10
-9.674
 11
-9.579
 20
-2.552
 21
-2.523
  0
LINE
  8
0
 10
-9.579
 11
-9.504
 20
-2.523
 21
-2.51
  0
LINE
  8
0
 10
-9.504
 11
-9.484
 20
-2.51
 21
-2.501
  0
LINE
  8
0
 10
-9.484
 11
-9.391
 20
-2.501
 21
-2.473
  0
LINE
  8
0
 10
-9.391
 11
-9.296
 20
-2.473
 21
-2.456
  0
LINE
  8
0
 10
-9.296
 11
-9.2
 20
-2.456
 21
-2.45
  0
LINE
  8
0
 10
-9.2
 11
-8.5
 20
-2.45
 21
-2.45
  0
LINE
  8
0
 10
-8.5
 11
-8.464
 20
-2.45
 21
-2.452
  0
LINE
  8
0
 10
-8.464
 11
-8.428
 20
-2.452
 21
-2.459
  0
LINE
  8
0
 10
-8.428
 11
-8.394
 20
-2.459
 21
-2.469
  0
LINE
  8
0
 10
-8.394
 11
-8.361
 20
-2.469
 21
-2.483
  0
LINE
  8
0
 10
-8.361
 11
-8.333
 20
-2.483
 21
-2.5
  0
LINE
  8
0
 10
-8.333
 11
-8.33
 20
-2.5
 21
-2.5
  0
LINE
  8
0
 10
-8.33
 11
-8.295
 20
-2.5
 21
-2.502
  0
LINE
  8
0
 10
-8.295
 11
-8.259
 20
-2.502
 21
-2.509
  0
LINE
  8
0
 10
-8.259
 11
-8.226
 20
-2.509
 21
-2.519
  0
LINE
  8
0
 10
-8.226
 11
-8.194
 20
-2.519
 21
-2.534
  0
LINE
  8
0
 10
-8.194
 11
-8.163
 20
-2.534
 21
-2.553
  0
LINE
  8
0
 10
-8.163
 11
-8.135
 20
-2.553
 21
-2.575
  0
LINE
  8
0
 10
-8.135
 11
-8.109
 20
-2.575
 21
-2.601
  0
LINE
  8
0
 10
-8.109
 11
-8.088
 20
-2.601
 21
-2.63
  0
LINE
  8
0
 10
-8.088
 11
-8.069
 20
-2.63
 21
-2.661
  0
LINE
  8
0
 10
-8.069
 11
-8.055
 20
-2.661
 21
-2.694
  0
LINE
  8
0
 10
-8.055
 11
-8.045
 20
-2.694
 21
-2.728
  0
LINE
  8
0
 10
-8.045
 11
-8.038
 20
-2.728
 21
-2.764
  0
LINE
  8
0
 10
-8.038
 11
-8.036
 20
-2.764
 21
-2.8
  0
LINE
  8
0
 10
-8.036
 11
-8.036
 20
-2.8
 21
-4.996
  0
LINE
  8
0
 10
-8.036
 11
-8.03
 20
-4.996
 21
-5.095
  0
LINE
  8
0
 10
-8.03
 11
-8.012
 20
-5.095
 21
-5.192
  0
LINE
  8
0
 10
-8.012
 11
-7.982
 20
-5.192
 21
-5.287
  0
LINE
  8
0
 10
-7.982
 11
-7.942
 20
-5.287
 21
-5.377
  0
LINE
  8
0
 10
-7.942
 11
-7.89
 20
-5.377
 21
-5.461
  0
LINE
  8
0
 10
-7.89
 11
-7.829
 20
-5.461
 21
-5.538
  0
LINE
  8
0
 10
-7.829
 11
-7.781
 20
-5.538
 21
-5.584
  0
LINE
  8
0
 10
-7.781
 11
-7.751
 20
-5.584
 21
-5.601
  0
LINE
  8
0
 10
-7.751
 11
-7.66
 20
-5.601
 21
-5.637
  0
LINE
  8
0
 10
-7.66
 11
-7.564
 20
-5.637
 21
-5.663
  0
LINE
  8
0
 10
-7.564
 11
-7.466
 20
-5.663
 21
-5.677
  0
LINE
  8
0
 10
-7.466
 11
-7.367
 20
-5.677
 21
-5.679
  0
LINE
  8
0
 10
-7.367
 11
-7.268
 20
-5.679
 21
-5.669
  0
LINE
  8
0
 10
-7.268
 11
-7.172
 20
-5.669
 21
-5.648
  0
LINE
  8
0
 10
-7.172
 11
-7.079
 20
-5.648
 21
-5.613
  0
LINE
  8
0
 10
-7.079
 11
-6.99
 20
-5.613
 21
-5.569
  0
LINE
  8
0
 10
-6.99
 11
-6.951
 20
-5.569
 21
-5.543
  0
LINE
  8
0
 10
-6.951
 11
-4.62
 20
-5.543
 21
-3.256
  0
LINE
  8
0
 10
-4.62
 11
-4.391
 20
-3.256
 21
-3.005
  0
LINE
  8
0
 10
-4.391
 11
-4.192
 20
-3.005
 21
-2.731
  0
LINE
  8
0
 10
-4.192
 11
-4.026
 20
-2.731
 21
-2.436
  0
LINE
  8
0
 10
-4.026
 11
-3.894
 20
-2.436
 21
-2.125
  0
LINE
  8
0
 10
-3.894
 11
-3.799
 20
-2.125
 21
-1.802
  0
LINE
  8
0
 10
-3.799
 11
-3.742
 20
-1.802
 21
-1.47
  0
LINE
  8
0
 10
-3.742
 11
-3.723
 20
-1.47
 21
-1.135
  0
LINE
  8
0
 10
-3.723
 11
-3.723
 20
-1.135
 21
1.135
  0
LINE
  8
0
 10
-3.723
 11
-3.742
 20
1.135
 21
1.47
  0
LINE
  8
0
 10
-3.742
 11
-3.799
 20
1.47
 21
1.802
  0
LINE
  8
0
 10
-3.799
 11
-3.894
 20
1.802
 21
2.125
  0
LINE
  8
0
 10
-3.894
 11
-4.026
 20
2.125
 21
2.436
  0
LINE
  8
0
 10
-4.026
 11
-4.192
 20
2.436
 21
2.731
  0
LINE
  8
0
 10
-4.192
 11
-4.391
 20
2.731
 21
3.005
  0
LINE
  8
0
 10
-4.391
 11
-4.62
 20
3.005
 21
3.256
  0
LINE
  8
0
 10
-4.62
 11
-6.951
 20
3.256
 21
5.543
  0
LINE
  8
0
 10
-6.951
 11
-6.99
 20
5.543
 21
5.569
  0
LINE
  8
0
 10
-6.99
 11
-7.079
 20
5.569
 21
5.613
  0
LINE
  8
0
 10
-7.079
 11
-7.172
 20
5.613
 21
5.648
  0
LINE
  8
0
 10
-7.172
 11
-7.268
 20
5.648
 21
5.669
  0
LINE
  8
0
 10
-7.268
 11
-7.367
 20
5.669
 21
5.679
  0
LINE
  8
0
 10
-7.367
 11
-7.466
 20
5.679
 21
5.677
  0
LINE
  8
0
 10
-7.466
 11
-7.564
 20
5.677
 21
5.663
  0
LINE
  8
0
 10
-7.564
 11
-7.66
 20
5.663
 21
5.637
  0
LINE
  8
0
 10
-7.66
 11
-7.751
 20
5.637
 21
5.601
  0
LINE
  8
0
 10
-7.751
 11
-7.781
 20
5.601
 21
5.584
  0
LINE
  8
0
 10
-7.781
 11
-7.829
 20
5.584
 21
5.538
  0
LINE
  8
0
 10
-7.829
 11
-7.89
 20
5.538
 21
5.461
  0
LINE
  8
0
 10
-7.89
 11
-7.942
 20
5.461
 21
5.377
  0
LINE
  8
0
 10
-7.942
 11
-7.982
 20
5.377
 21
5.287
  0
LINE
  8
0
 10
-7.982
 11
-8.012
 20
5.287
 21
5.192
  0
LINE
  8
0
 10
-8.012
 11
-8.03
 20
5.192
 21
5.095
  0
LINE
  8
0
 10
-8.03
 11
-8.036
 20
5.095
 21
4.996
  0
LINE
  8
0
 10
-8.036
 11
-8.036
 20
4.996
 21
2.8
  0
LINE
  8
0
 10
-8.036
 11
-8.038
 20
2.8
 21
2.764
  0
LINE
  8
0
 10
-8.038
 11
-8.045
 20
2.764
 21
2.728
  0
LINE
  8
0
 10
-8.045
 11
-8.055
 20
2.728
 21
2.694
  0
LINE
  8
0
 10
-8.055
 11
-8.069
 20
2.694
 21
2.661
  0
LINE
  8
0
 10
-8.069
 11
-8.088
 20
2.661
 21
2.63
  0
LINE
  8
0
 10
-8.088
 11
-8.109
 20
2.63
 21
2.601
  0
LINE
  8
0
 10
-8.109
 11
-8.135
 20
2.601
 21
2.575
  0
LINE
  8
0
 10
-8.135
 11
-8.163
 20
2.575
 21
2.553
  0
LINE
  8
0
 10
-8.163
 11
-8.194
 20
2.553
 21
2.534
  0
LINE
  8
0
 10
-8.194
 11
-8.226
 20
2.534
 21
2.519
  0
LINE
  8
0
 10
-8.226
 11
-8.259
 20
2.519
 21
2.509
  0
LINE
  8
0
 10
-8.259
 11
-8.295
 20
2.509
 21
2.502
  0
LINE
  8
0
 10
-8.295
 11
-8.33
 20
2.502
 21
2.5
  0
LINE
  8
0
 10
-8.33
 11
-8.333
 20
2.5
 21
2.5
  0
LINE
  8
0
 10
-8.333
 11
-8.361
 20
2.5
 21
2.483
  0
LINE
  8
0
 10
-8.361
 11
-8.394
 20
2.483
 21
2.469
  0
LINE
  8
0
 10
-8.394
 11
-8.428
 20
2.469
 21
2.459
  0
LINE
  8
0
 10
-8.428
 11
-8.464
 20
2.459
 21
2.452
  0
LINE
  8
0
 10
-8.464
 11
-8.5
 20
2.452
 21
2.45
  0
LINE
  8
0
 10
-8.5
 11
-9.2
 20
2.45
 21
2.45
  0
LINE
  8
0
 10
-9.2
 11
-9.296
 20
2.45
 21
2.456
  0
LINE
  8
0
 10
-9.296
 11
-9.391
 20
2.456
 21
2.473
  0
LINE
  8
0
 10
-9.391
 11
-9.484
 20
2.473
 21
2.501
  0
LINE
  8
0
 10
-9.484
 11
-9.504
 20
2.501
 21
2.51
  0
LINE
  8
0
 10
-9.504
 11
-9.579
 20
2.51
 21
2.523
  0
LINE
  8
0
 10
-9.579
 11
-9.674
 20
2.523
 21
2.552
  0
LINE
  8
0
 10
-9.674
 11
-9.763
 20
2.552
 21
2.592
  0
LINE
  8
0
 10
-9.763
 11
-9.847
 20
2.592
 21
2.642
  0
LINE
  8
0
 10
-9.847
 11
-9.925
 20
2.642
 21
2.701
  0
LINE
  8
0
 10
-9.925
 11
-9.995
 20
2.701
 21
2.77
  0
LINE
  8
0
 10
-9.995
 11
-10.055
 20
2.77
 21
2.846
  0
LINE
  8
0
 10
-10.055
 11
-10.106
 20
2.846
 21
2.928
  0
LINE
  8
0
 10
-10.106
 11
-10.147
 20
2.928
 21
3.016
  0
LINE
  8
0
 10
-10.147
 11
-10.177
 20
3.016
 21
3.109
  0
LINE
  8
0
 10
-10.177
 11
-10.194
 20
3.109
 21
3.204
  0
LINE
  8
0
 10
-10.194
 11
-10.2
 20
3.204
 21
3.3
  0
LINE
  8
0
 10
-10.2
 11
-10.2
 20
3.3
 21
8
  0
LINE
  8
0
 10
-10.2
 11
-10.185
 20
8
 21
8.241
  0
LINE
  8
0
 10
-10.185
 11
-10.141
 20
8.241
 21
8.479
  0
LINE
  8
0
 10
-10.141
 11
-10.067
 20
8.479
 21
8.709
  0
LINE
  8
0
 10
-10.067
 11
-9.966
 20
8.709
 21
8.929
  0
LINE
  8
0
 10
-9.966
 11
-9.839
 20
8.929
 21
9.136
  0
LINE
  8
0
 10
-9.839
 11
-9.687
 20
9.136
 21
9.326
  0
LINE
  8
0
 10
-9.687
 11
-9.513
 20
9.326
 21
9.497
  0
LINE
  8
0
 10
-9.513
 11
-9.504
 20
9.497
 21
9.504
  0
LINE
  8
0
 10
-9.504
 11
-9.497
 20
9.504
 21
9.513
  0
LINE
  8
0
 10
-9.497
 11
-9.326
 20
9.513
 21
9.687
  0
LINE
  8
0
 10
-9.326
 11
-9.136
 20
9.687
 21
9.839
  0
LINE
  8
0
 10
-9.136
 11
-8.929
 20
9.839
 21
9.966
  0
LINE
  8
0
 10
-8.929
 11
-8.709
 20
9.966
 21
10.067
  0
LINE
  8
0
 10
-8.709
 11
-8.479
 20
10.067
 21
10.141
  0
LINE
  8
0
 10
-8.479
 11
-8.241
 20
10.141
 21
10.185
  0
LINE
  8
0
 10
-8.241
 11
-8
 20
10.185
 21
10.2
  0
LINE
  8
0
 10
-8
 11
-3.3
 20
10.2
 21
10.2
  0
LINE
  8
0
 10
-3.3
 11
-3.204
 20
10.2
 21
10.194
  0
LINE
  8
0
 10
-3.204
 11
-3.109
 20
10.194
 21
10.177
  0
LINE
  8
0
 10
-3.109
 11
-3.016
 20
10.177
 21
10.147
  0
LINE
  8
0
 10
-3.016
 11
-2.928
 20
10.147
 21
10.106
  0
LINE
  8
0
 10
-2.928
 11
-2.846
 20
10.106
 21
10.055
  0
LINE
  8
0
 10
-2.846
 11
-2.77
 20
10.055
 21
9.995
  0
LINE
  8
0
 10
-2.77
 11
-2.701
 20
9.995
 21
9.925
  0
LINE
  8
0
 10
-2.701
 11
-2.642
 20
9.925
 21
9.847
  0
LINE
  8
0
 10
-2.642
 11
-2.592
 20
9.847
 21
9.763
  0
LINE
  8
0
 10
-2.592
 11
-2.552
 20
9.763
 21
9.674
  0
LINE
  8
0
 10
-2.552
 11
-2.523
 20
9.674
 21
9.579
  0
LINE
  8
0
 10
-2.523
 11
-2.51
 20
9.579
 21
9.504
  0
LINE
  8
0
 10
-2.51
 11
-2.501
 20
9.504
 21
9.484
  0
LINE
  8
0
 10
-2.501
 11
-2.473
 20
9.484
 21
9.391
  0
LINE
  8
0
 10
-2.473
 11
-2.456
 20
9.391
 21
9.296
  0
LINE
  8
0
 10
-2.456
 11
-2.45
 20
9.296
 21
9.2
  0
LINE
  8
0
 10
-2.45
 11
-2.45
 20
9.2
 21
8.5
  0
LINE
  8
0
 10
-2.45
 11
-2.452
 20
8.5
 21
8.464
  0
LINE
  8
0
 10
-2.452
 11
-2.459
 20
8.464
 21
8.428
  0
LINE
  8
0
 10
-2.459
 11
-2.469
 20
8.428
 21
8.394
  0
LINE
  8
0
 10
-2.469
 11
-2.483
 20
8.394
 21
8.361
  0
LINE
  8
0
 10
-2.483
 11
-2.5
 20
8.361
 21
8.333
  0
LINE
  8
0
 10
-2.5
 11
-2.5
 20
8.333
 21
8.33
  0
LINE
  8
0
 10
-2.5
 11
-2.502
 20
8.33
 21
8.295
  0
LINE
  8
0
 10
-2.502
 11
-2.509
 20
8.295
 21
8.259
  0
LINE
  8
0
 10
-2.509
 11
-2.519
 20
8.259
 21
8.226
  0
LINE
  8
0
 10
-2.519
 11
-2.534
 20
8.226
 21
8.194
  0
LINE
  8
0
 10
-2.534
 11
-2.553
 20
8.194
 21
8.163
  0
LINE
  8
0
 10
-2.553
 11
-2.575
 20
8.163
 21
8.135
  0
LINE
  8
0
 10
-2.575
 11
-2.601
 20
8.135
 21
8.109
  0
LINE
  8
0
 10
-2.601
 11
-2.63
 20
8.109
 21
8.088
  0
LINE
  8
0
 10
-2.63
 11
-2.661
 20
8.088
 21
8.069
  0
LINE
  8
0
 10
-2.661
 11
-2.694
 20
8.069
 21
8.055
  0
LINE
  8
0
 10
-2.694
 11
-2.728
 20
8.055
 21
8.045
  0
LINE
  8
0
 10
-2.728
 11
-2.764
 20
8.045
 21
8.038
  0
LINE
  8
0
 10
-2.764
 11
-2.8
 20
8.038
 21
8.036
  0
LINE
  8
0
 10
-2.8
 11
-4.996
 20
8.036
 21
8.036
  0
LINE
  8
0
 10
-4.996
 11
-5.095
 20
8.036
 21
8.03
  0
LINE
  8
0
 10
-5.095
 11
-5.192
 20
8.03
 21
8.012
  0
LINE
  8
0
 10
-5.192
 11
-5.287
 20
8.012
 21
7.982
  0
LINE
  8
0
 10
-5.287
 11
-5.377
 20
7.982
 21
7.942
  0
LINE
  8
0
 10
-5.377
 11
-5.461
 20
7.942
 21
7.89
  0
LINE
  8
0
 10
-5.461
 11
-5.538
 20
7.89
 21
7.829
  0
LINE
  8
0
 10
-5.538
 11
-5.584
 20
7.829
 21
7.781
  0
LINE
  8
0
 10
-5.584
 11
-5.601
 20
7.781
 21
7.751
  0
LINE
  8
0
 10
-5.601
 11
-5.637
 20
7.751
 21
7.66
  0
LINE
  8
0
 10
-5.637
 11
-5.663
 20
7.66
 21
7.564
  0
LINE
  8
0
 10
-5.663
 11
-5.677
 20
7.564
 21
7.466
  0
LINE
  8
0
 10
-5.677
 11
-5.679
 20
7.466
 21
7.367
  0
LINE
  8
0
 10
-5.679
 11
-5.669
 20
7.367
 21
7.268
  0
LINE
  8
0
 10
-5.669
 11
-5.648
 20
7.268
 21
7.172
  0
LINE
  8
0
 10
-5.648
 11
-5.613
 20
7.172
 21
7.079
  0
LINE
  8
0
 10
-5.613
 11
-5.569
 20
7.079
 21
6.99
  0
LINE
  8
0
 10
-5.569
 11
-5.543
 20
6.99
 21
6.951
  0
LINE
  8
0
 10
-5.543
 11
-3.256
 20
6.951
 21
4.62
  0
LINE
  8
0
 10
-3.256
 11
-3.005
 20
4.62
 21
4.391
  0
LINE
  8
0
 10
-3.005
 11
-2.731
 20
4.391
 21
4.192
  0
LINE
  8
0
 10
-2.731
 11
-2.436
 20
4.192
 21
4.026
  0
LINE
  8
0
 10
-2.436
 11
-2.125
 20
4.026
 21
3.894
  0
LINE
  8
0
 10
-2.125
 11
-1.802
 20
3.894
 21
3.799
  0
LINE
  8
0
 10
-1.802
 11
-1.47
 20
3.799
 21
3.742
  0
LINE
  8
0
 10
-1.47
 11
-1.135
 20
3.742
 21
3.723
  0
LINE
  8
0
 10
-1.135
 11
1.135
 20
3.723
 21
3.723
  0
LINE
  8
0
 10
1.135
 11
1.47
 20
3.723
 21
3.742
  0
LINE
  8
0
 10
1.47
 11
1.802
 20
3.742
 21
3.799
  0
LINE
  8
0
 10
1.802
 11
2.125
 20
3.799
 21
3.894
  0
LINE
  8
0
 10
2.125
 11
2.436
 20
3.894
 21
4.026
  0
LINE
  8
0
 10
2.436
 11
2.731
 20
4.026
 21
4.192
  0
LINE
  8
0
 10
2.731
 11
3.005
 20
4.192
 21
4.391
  0
LINE
  8
0
 10
3.005
 11
3.256
 20
4.391
 21
4.62
  0
LINE
  8
0
 10
3.256
 11
5.543
 20
4.62
 21
6.951
  0
LINE
  8
0
 10
5.543
 11
5.569
 20
6.951
 21
6.99
  0
LINE
  8
0
 10
5.569
 11
5.613
 20
6.99
 21
7.079
  0
LINE
  8
0
 10
5.613
 11
5.648
 20
7.079
 21
7.172
  0
LINE
  8
0
 10
5.648
 11
5.669
 20
7.172
 21
7.268
  0
LINE
  8
0
 10
5.669
 11
5.679
 20
7.268
 21
7.367
  0
LINE
  8
0
 10
5.679
 11
5.677
 20
7.367
 21
7.466
  0
LINE
  8
0
 10
5.677
 11
5.663
 20
7.466
 21
7.564
  0
LINE
  8
0
 10
5.663
 11
5.637
 20
7.564
 21
7.66
  0
LINE
  8
0
 10
5.637
 11
5.601
 20
7.66
 21
7.751
  0
LINE
  8
0
 10
5.601
 11
5.584
 20
7.751
 21
7.781
  0
LINE
  8
0
 10
5.584
 11
5.538
 20
7.781
 21
7.829
  0
LINE
  8
0
 10
5.538
 11
5.461
 20
7.829
 21
7.89
  0
LINE
  8
0
 10
5.461
 11
5.377
 20
7.89
 21
7.942
  0
LINE
  8
0
 10
5.377
 11
5.287
 20
7.942
 21
7.982
  0
LINE
  8
0
 10
5.287
 11
5.192
 20
7.982
 21
8.012
  0
LINE
  8
0
 10
5.192
 11
5.095
 20
8.012
 21
8.03
  0
LINE
  8
0
 10
5.095
 11
4.996
 20
8.03
 21
8.036
  0
LINE
  8
0
 10
4.996
 11
2.8
 20
8.036
 21
8.036
  0
LINE
  8
0
 10
2.8
 11
2.764
 20
8.036
 21
8.038
  0
LINE
  8
0
 10
2.764
 11
2.728
 20
8.038
 21
8.045
  0
LINE
  8
0
 10
2.728
 11
2.694
 20
8.045
 21
8.055
  0
LINE
  8
0
 10
2.694
 11
2.661
 20
8.055
 21
8.069
  0
LINE
  8
0
 10
2.661
 11
2.63
 20
8.069
 21
8.088
  0
LINE
  8
0
 10
2.63
 11
2.601
 20
8.088
 21
8.109
  0
LINE
  8
0
 10
2.601
 11
2.575
 20
8.109
 21
8.135
  0
LINE
  8
0
 10
2.575
 11
2.553
 20
8.135
 21
8.163
  0
LINE
  8
0
 10
2.553
 11
2.534
 20
8.163
 21
8.194
  0
LINE
  8
0
 10
2.534
 11
2.519
 20
8.194
 21
8.226
  0
LINE
  8
0
 10
2.519
 11
2.509
 20
8.226
 21
8.259
  0
LINE
  8
0
 10
2.509
 11
2.502
 20
8.259
 21
8.295
  0
LINE
  8
0
 10
2.502
 11
2.5
 20
8.295
 21
8.33
  0
LINE
  8
0
 10
2.5
 11
2.5
 20
8.33
 21
8.333
  0
LINE
  8
0
 10
2.5
 11
2.483
 20
8.333
 21
8.361
  0
LINE
  8
0
 10
2.483
 11
2.469
 20
8.361
 21
8.394
  0
LINE
  8
0
 10
2.469
 11
2.459
 20
8.394
 21
8.428
  0
LINE
  8
0
 10
2.459
 11
2.452
 20
8.428
 21
8.464
  0
LINE
  8
0
 10
2.452
 11
2.45
 20
8.464
 21
8.5
  0
LINE
  8
0
 10
2.45
 11
2.45
 20
8.5
 21
9.2
  0
LINE
  8
0
 10
2.45
 11
2.456
 20
9.2
 21
9.296
  0
LINE
  8
0
 10
2.456
 11
2.473
 20
9.296
 21
9.391
  0
LINE
  8
0
 10
2.473
 11
2.501
 20
9.391
 21
9.484
  0
LINE
  8
0
 10
2.501
 11
2.51
 20
9.484
 21
9.504
  0
LINE
  8
0
 10
2.51
 11
2.523
 20
9.504
 21
9.579
  0
LINE
  8
0
 10
2.523
 11
2.552
 20
9.579
 21
9.674
  0
LINE
  8
0
 10
2.552
 11
2.592
 20
9.674
 21
9.763
  0
LINE
  8
0
 10
2.592
 11
2.642
 20
9.763
 21
9.847
  0
LINE
  8
0
 10
2.642
 11
2.701
 20
9.847
 21
9.925
  0
LINE
  8
0
 10
2.701
 11
2.77
 20
9.925
 21
9.995
  0
LINE
  8
0
 10
2.77
 11
2.846
 20
9.995
 21
10.055
  0
LINE
  8
0
 10
2.846
 11
2.928
 20
10.055
 21
10.106
  0
LINE
  8
0
 10
2.928
 11
3.016
 20
10.106
 21
10.147
  0
LINE
  8
0
 10
3.016
 11
3.109
 20
10.147
 21
10.177
  0
LINE
  8
0
 10
3.109
 11
3.204
 20
10.177
 21
10.194
  0
LINE
  8
0
 10
3.204
 11
3.3
 20
10.194
 21
10.2
  0
LINE
  8
0
 10
3.3
 11
8
 20
10.2
 21
10.2
  0
LINE
  8
0
 10
8
 11
8.241
 20
10.2
 21
10.185
  0
LINE
  8
0
 10
8.241
 11
8.479
 20
10.185
 21
10.141
  0
LINE
  8
0
 10
8.479
 11
8.709
 20
10.141
 21
10.067
  0
LINE
  8
0
 10
8.709
 11
8.929
 20
10.067
 21
9.966
  0
LINE
  8
0
 10
8.929
 11
9.136
 20
9.966
 21
9.839
  0
LINE
  8
0
 10
9.136
 11
9.326
 20
9.839
 21
9.687
  0
LINE
  8
0
 10
9.326
 11
9.497
 20
9.687
 21
9.513
  0
LINE
  8
0
 10
9.497
 11
9.504
 20
9.513
 21
9.504
  0
LINE
  8
0
 10
9.504
 11
9.513
 20
9.504
 21
9.497
  0
LINE
  8
0
 10
9.513
 11
9.687
 20
9.497
 21
9.326
  0
LINE
  8
0
 10
9.687
 11
9.839
 20
9.326
 21
9.136
  0
LINE
  8
0
 10
9.839
 11
9.966
 20
9.136
 21
8.929
  0
LINE
  8
0
 10
9.966
 11
10.067
 20
8.929
 21
8.709
  0
LINE
  8
0
 10
10.067
 11
10.141
 20
8.709
 21
8.479
  0
LINE
  8
0
 10
10.141
 11
10.185
 20
8.479
 21
8.241
  0
LINE
  8
0
 10
10.185
 11
10.2
 20
8.241
 21
8
  0
LINE
  8
0
 10
10.2
 11
10.2
 20
8
 21
3.3
  0
LINE
  8
0
 10
10.2
 11
10.194
 20
3.3
 21
3.204
  0
LINE
  8
0
 10
10.194
 11
10.177
 20
3.204
 21
3.109
  0
LINE
  8
0
 10
10.177
 11
10.147
 20
3.109
 21
3.016
  0
LINE
  8
0
 10
10.147
 11
10.106
 20
3.016
 21
2.928
  0
LINE
  8
0
 10
10.106
 11
10.055
 20
2.928
 21
2.846
  0
LINE
  8
0
 10
10.055
 11
9.995
 20
2.846
 21
2.77
  0
LINE
  8
0
 10
9.995
 11
9.925
 20
2.77
 21
2.701
  0
LINE
  8
0
 10
9.925
 11
9.847
 20
2.701
 21
2.642
  0
LINE
  8
0
 10
9.847
 11
9.763
 20
2.642
 21
2.592
  0
LINE
  8
0
 10
9.763
 11
9.674
 20
2.592
 21
2.552
  0
LINE
  8
0
 10
9.674
 11
9.579
 20
2.552
 21
2.523
  0
LINE
  8
0
 10
9.579
 11
9.504
 20
2.523
 21
2.51
  0
LINE
  8
0
 10
9.504
 11
9.484
 20
2.51
 21
2.501
  0
LINE
  8
0
 10
9.484
 11
9.391
 20
2.501
 21
2.473
  0
LINE
  8
0
 10
9.391
 11
9.296
 20
2.473
 21
2.456
  0
LINE
  8
0
 10
9.296
 11
9.2
 20
2.456
 21
2.45
  0
LINE
  8
0
 10
9.2
 11
8.5
 20
2.45
 21
2.45
  0
LINE
  8
0
 10
8.5
 11
8.464
 20
2.45
 21
2.452
  0
LINE
  8
0
 10
8.464
 11
8.428
 20
2.452
 21
2.459
  0
LINE
  8
0
 10
8.428
 11
8.394
 20
2.459
 21
2.469
  0
LINE
  8
0
 10
8.394
 11
8.361
 20
2.469
 21
2.483
  0
LINE
  8
0
 10
8.361
 11
8.333
 20
2.483
 21
2.5
  0
LINE
  8
0
 10
8.333
 11
8.33
 20
2.5
 21
2.5
  0
LINE
  8
0
 10
8.33
 11
8.295
 20
2.5
 21
2.502
  0
LINE
  8
0
 10
8.295
 11
8.259
 20
2.502
 21
2.509
  0
LINE
  8
0
 10
8.259
 11
8.226
 20
2.509
 21
2.519
  0
LINE
  8
0
 10
8.226
 11
8.194
 20
2.519
 21
2.534
  0
LINE
  8
0
 10
8.194
 11
8.163
 20
2.534
 21
2.553
  0
LINE
  8
0
 10
8.163
 11
8.135
 20
2.553
 21
2.575
  0
LINE
  8
0
 10
8.135
 11
8.109
 20
2.575
 21
2.601
  0
LINE
  8
0
 10
8.109
 11
8.088
 20
2.601
 21
2.63
  0
LINE
  8
0
 10
8.088
 11
8.069
 20
2.63
 21
2.661
  0
LINE
  8
0
 10
8.069
 11
8.055
 20
2.661
 21
2.694
  0
LINE
  8
0
 10
8.055
 11
8.045
 20
2.694
 21
2.728
  0
LINE
  8
0
 10
8.045
 11
8.038
 20
2.728
 21
2.764
  0
LINE
  8
0
 10
8.038
 11
8.036
 20
2.764
 21
2.8
  0
LINE
  8
0
 10
8.036
 11
8.036
 20
2.8
 21
4.996
  0
LINE
  8
0
 10
8.036
 11
8.03
 20
4.996
 21
5.095
  0
LINE
  8
0
 10
8.03
 11
8.012
 20
5.095
 21
5.192
  0
LINE
  8
0
 10
8.012
 11
7.982
 20
5.192
 21
5.287
  0
LINE
  8
0
 10
7.982
 11
7.942
 20
5.287
 21
5.377
  0
LINE
  8
0
 10
7.942
 11
7.89
 20
5.377
 21
5.461
  0
LINE
  8
0
 10
7.89
 11
7.829
 20
5.461
 21
5.538
  0
LINE
  8
0
 10
7.829
 11
7.781
 20
5.538
 21
5.584
  0
LINE
  8
0
 10
7.781
 11
7.751
 20
5.584
 21
5.601
  0
LINE
  8
0
 10
7.751
 11
7.66
 20
5.601
 21
5.637
  0
LINE
  8
0
 10
7.66
 11
7.564
 20
5.637
 21
5.663
  0
LINE
  8
0
 10
7.564
 11
7.466
 20
5.663
 21
5.677
  0
LINE
  8
0
 10
7.466
 11
7.367
 20
5.677
 21
5.679
  0
LINE
  8
0
 10
7.367
 11
7.268
 20
5.679
 21
5.669
  0
LINE
  8
0
 10
7.268
 11
7.172
 20
5.669
 21
5.648
  0
LINE
  8
0
 10
7.172
 11
7.079
 20
5.648
 21
5.613
  0
LINE
  8
0
 10
7.079
 11
6.99
 20
5.613
 21
5.569
  0
LINE
  8
0
 10
6.99
 11
6.951
 20
5.569
 21
5.543
  0
LINE
  8
0
 10
6.951
 11
4.62
 20
5.543
 21
3.256
  0
LINE
  8
0
 10
4.62
 11
4.391
 20
3.256
 21
3.005
  0
LINE
  8
0
 10
4.391
 11
4.192
 20
3.005
 21
2.731
  0
LINE
  8
0
 10
4.192
 11
4.026
 20
2.731
 21
2.436
  0
LINE
  8
0
 10
4.026
 11
3.894
 20
2.436
 21
2.125
  0
LINE
  8
0
 10
3.894
 11
3.799
 20
2.125
 21
1.802
  0
LINE
  8
0
 10
3.799
 11
3.742
 20
1.802
 21
1.47
  0
LINE
  8
0
 10
3.742
 11
3.723
 20
1.47
 21
1.135
  0
LINE
  8
0
 10
3.723
 11
3.723
 20
1.135
 21
-1.135
  0
LINE
  8
0
 10
3.723
 11
3.742
 20
-1.135
 21
-1.47
  0
LINE
  8
0
 10
3.742
 11
3.799
 20
-1.47
 21
-1.802
  0
LINE
  8
0
 10
3.799
 11
3.894
 20
-1.802
 21
-2.125
  0
LINE
  8
0
 10
3.894
 11
4.026
 20
-2.125
 21
-2.436
  0
LINE
  8
0
 10
4.026
 11
4.192
 20
-2.436
 21
-2.731
  0
LINE
  8
0
 10
4.192
 11
4.391
 20
-2.731
 21
-3.005
  0
LINE
  8
0
 10
4.391
 11
4.62
 20
-3.005
 21
-3.256
  0
LINE
  8
0
 10
4.62
 11
6.951
 20
-3.256
 21
-5.543
  0
LINE
  8
0
 10
6.951
 11
6.99
 20
-5.543
 21
-5.569
  0
LINE
  8
0
 10
6.99
 11
7.079
 20
-5.569
 21
-5.613
  0
LINE
  8
0
 10
7.079
 11
7.172
 20
-5.613
 21
-5.648
  0
LINE
  8
0
 10
7.172
 11
7.268
 20
-5.648
 21
-5.669
  0
LINE
  8
0
 10
7.268
 11
7.367
 20
-5.669
 21
-5.679
  0
LINE
  8
0
 10
7.367
 11
7.466
 20
-5.679
 21
-5.677
  0
LINE
  8
0
 10
7.466
 11
7.564
 20
-5.677
 21
-5.663
  0
LINE
  8
0
 10
7.564
 11
7.66
 20
-5.663
 21
-5.637
  0
LINE
  8
0
 10
7.66
 11
7.751
 20
-5.637
 21
-5.601
  0
LINE
  8
0
 10
7.751
 11
7.781
 20
-5.601
 21
-5.584
  0
LINE
  8
0
 10
7.781
 11
7.829
 20
-5.584
 21
-5.538
  0
LINE
  8
0
 10
7.829
 11
7.89
 20
-5.538
 21
-5.461
  0
LINE
  8
0
 10
7.89
 11
7.942
 20
-5.461
 21
-5.377
  0
LINE
  8
0
 10
7.942
 11
7.982
 20
-5.377
 21
-5.287
  0
LINE
  8
0
 10
7.982
 11
8.012
 20
-5.287
 21
-5.192
  0
LINE
  8
0
 10
8.012
 11
8.03
 20
-5.192
 21
-5.095
  0
LINE
  8
0
 10
8.03
 11
8.036
 20
-5.095
 21
-4.996
  0
LINE
  8
0
 10
8.036
 11
8.036
 20
-4.996
 21
-2.8
  0
LINE
  8
0
 10
8.036
 11
8.038
 20
-2.8
 21
-2.764
  0
LINE
  8
0
 10
8.038
 11
8.045
 20
-2.764
 21
-2.728
  0
LINE
  8
0
 10
8.045
 11
8.055
 20
-2.728
 21
-2.694
  0
LINE
  8
0
 10
8.055
 11
8.069
 20
-2.694
 21
-2.661
  0
LINE
  8
0
 10
8.069
 11
8.088
 20
-2.661
 21
-2.63
  0
LINE
  8
0
 10
8.088
 11
8.109
 20
-2.63
 21
-2.601
  0
LINE
  8
0
 10
8.109
 11
8.135
 20
-2.601
 21
-2.575
  0
LINE
  8
0
 10
8.135
 11
8.163
 20
-2.575
 21
-2.553
  0
LINE
  8
0
 10
8.163
 11
8.194
 20
-2.553
 21
-2.534
  0
LINE
  8
0
 10
8.194
 11
8.226
 20
-2.534
 21
-2.519
  0
LINE
  8
0
 10
8.226
 11
8.259
 20
-2.519
 21
-2.509
  0
LINE
  8
0
 10
8.259
 11
8.295
 20
-2.509
 21
-2.502
  0
LINE
  8
0
 10
8.295
 11
8.33
 20
-2.502
 21
-2.5
  0
LINE
  8
0
 10
8.33
 11
8.333
 20
-2.5
 21
-2.5
  0
LINE
  8
0
 10
8.333
 11
8.361
 20
-2.5
 21
-2.483
  0
LINE
  8
0
 10
8.361
 11
8.394
 20
-2.483
 21
-2.469
  0
LINE
  8
0
 10
8.394
 11
8.428
 20
-2.469
 21
-2.459
  0
LINE
  8
0
 10
8.428
 11
8.464
 20
-2.459
 21
-2.452
  0
LINE
  8
0
 10
8.464
 11
8.5
 20
-2.452
 21
-2.45
  0
LINE
  8
0
 10
8.5
 11
9.2
 20
-2.45
 21
-2.45
  0
LINE
  8
0
 10
9.2
 11
9.296
 20
-2.45
 21
-2.456
  0
LINE
  8
0
 10
9.296
 11
9.391
 20
-2.456
 21
-2.473
  0
LINE
  8
0
 10
9.391
 11
9.484
 20
-2.473
 21
-2.501
  0
LINE
  8
0
 10
9.484
 11
9.504
 20
-2.501
 21
-2.51
  0
LINE
  8
0
 10
9.504
 11
9.579
 20
-2.51
 21
-2.523
  0
LINE
  8
0
 10
9.579
 11
9.674
 20
-2.523
 21
-2.552
  0
LINE
  8
0
 10
9.674
 11
9.763
 20
-2.552
 21
-2.592
  0
LINE
  8
0
 10
9.763
 11
9.847
 20
-2.592
 21
-2.642
  0
LINE
  8
0
 10
9.847
 11
9.925
 20
-2.642
 21
-2.701
  0
LINE
  8
0
 10
9.925
 11
9.995
 20
-2.701
 21
-2.77
  0
LINE
  8
0
 10
9.995
 11
10.055
 20
-2.77
 21
-2.846
  0
LINE
  8
0
 10
10.055
 11
10.106
 20
-2.846
 21
-2.928
  0
LINE
  8
0
 10
10.106
 11
10.147
 20
-2.928
 21
-3.016
  0
LINE
  8
0
 10
10.147
 11
10.177
 20
-3.016
 21
-3.109
  0
LINE
  8
0
 10
10.177
 11
10.194
 20
-3.109
 21
-3.204
  0
LINE
  8
0
 10
10.194
 11
10.2
 20
-3.204
 21
-3.3
  0
LINE
  8
0
 10
10.2
 11
10.2
 20
-3.3
 21
-8
  0
LINE
  8
0
 10
10.2
 11
10.185
 20
-8
 21
-8.241
  0
LINE
  8
0
 10
10.185
 11
10.141
 20
-8.241
 21
-8.479
  0
LINE
  8
0
 10
10.141
 11
10.067
 20
-8.479
 21
-8.709
  0
LINE
  8
0
 10
10.067
 11
9.966
 20
-8.709
 21
-8.929
  0
LINE
  8
0
 10
9.966
 11
9.839
 20
-8.929
 21
-9.136
  0
LINE
  8
0
 10
9.839
 11
9.687
 20
-9.136
 21
-9.326
  0
LINE
  8
0
 10
9.687
 11
9.513
 20
-9.326
 21
-9.497
  0
LINE
  8
0
 10
9.513
 11
9.504
 20
-9.497
 21
-9.504
  0
LINE
  8
0
 10
9.504
 11
9.497
 20
-9.504
 21
-9.513
  0
LINE
  8
0
 10
9.497
 11
9.326
 20
-9.513
 21
-9.687
  0
LINE
  8
0
 10
9.326
 11
9.136
 20
-9.687
 21
-9.839
  0
LINE
  8
0
 10
9.136
 11
8.929
 20
-9.839
 21
-9.966
  0
LINE
  8
0
 10
8.929
 11
8.709
 20
-9.966
 21
-10.067
  0
LINE
  8
0
 10
8.709
 11
8.479
 20
-10.067
 21
-10.141
  0
LINE
  8
0
 10
8.479
 11
8.241
 20
-10.141
 21
-10.185
  0
LINE
  8
0
 10
8.241
 11
8
 20
-10.185
 21
-10.2
  0
LINE
  8
0
 10
8
 11
3.3
 20
-10.2
 21
-10.2
  0
LINE
  8
0
 10
3.3
 11
3.204
 20
-10.2
 21
-10.194
  0
LINE
  8
0
 10
3.204
 11
3.109
 20
-10.194
 21
-10.177
  0
LINE
  8
0
 10
3.109
 11
3.016
 20
-10.177
 21
-10.147
  0
LINE
  8
0
 10
3.016
 11
2.928
 20
-10.147
 21
-10.106
  0
LINE
  8
0
 10
2.928
 11
2.846
 20
-10.106
 21
-10.055
  0
LINE
  8
0
 10
2.846
 11
2.77
 20
-10.055
 21
-9.995
  0
LINE
  8
0
 10
2.77
 11
2.701
 20
-9.995
 21
-9.925
  0
LINE
  8
0
 10
2.701
 11
2.642
 20
-9.925
 21
-9.847
  0
LINE
  8
0
 10
2.642
 11
2.592
 20
-9.847
 21
-9.763
  0
LINE
  8
0
 10
2.592
 11
2.552
 20
-9.763
 21
-9.674
  0
LINE
  8
0
 10
2.552
 11
2.523
 20
-9.674
 21
-9.579
  0
LINE
  8
0
 10
2.523
 11
2.51
 20
-9.579
 21
-9.504
  0
LINE
  8
0
 10
2.51
 11
2.501
 20
-9.504
 21
-9.484
  0
LINE
  8
0
 10
2.501
 11
2.473
 20
-9.484
 21
-9.391
  0
LINE
  8
0
 10
2.473
 11
2.456
 20
-9.391
 21
-9.296
  0
LINE
  8
0
 10
2.456
 11
2.45
 20
-9.296
 21
-9.2
  0
LINE
  8
0
 10
2.45
 11
2.45
 20
-9.2
 21
-8.5
  0
LINE
  8
0
 10
2.45
 11
2.452
 20
-8.5
 21
-8.464
  0
LINE
  8
0
 10
2.452
 11
2.459
 20
-8.464
 21
-8.428
  0
LINE
  8
0
 10
2.459
 11
2.469
 20
-8.428
 21
-8.394
  0
LINE
  8
0
 10
2.469
 11
2.483
 20
-8.394
 21
-8.361
  0
LINE
  8
0
 10
2.483
 11
2.5
 20
-8.361
 21
-8.333
  0
LINE
  8
0
 10
2.5
 11
2.5
 20
-8.333
 21
-8.33
  0
LINE
  8
0
 10
2.5
 11
2.502
 20
-8.33
 21
-8.295
  0
LINE
  8
0
 10
2.502
 11
2.509
 20
-8.295
 21
-8.259
  0
LINE
  8
0
 10
2.509
 11
2.519
 20
-8.259
 21
-8.226
  0
LINE
  8
0
 10
2.519
 11
2.534
 20
-8.226
 21
-8.194
  0
LINE
  8
0
 10
2.534
 11
2.553
 20
-8.194
 21
-8.163
  0
LINE
  8
0
 10
2.553
 11
2.575
 20
-8.163
 21
-8.135
  0
LINE
  8
0
 10
2.575
 11
2.601
 20
-8.135
 21
-8.109
  0
LINE
  8
0
 10
2.601
 11
2.63
 20
-8.109
 21
-8.088
  0
LINE
  8
0
 10
2.63
 11
2.661
 20
-8.088
 21
-8.069
  0
LINE
  8
0
 10
2.661
 11
2.694
 20
-8.069
 21
-8.055
  0
LINE
  8
0
 10
2.694
 11
2.728
 20
-8.055
 21
-8.045
  0
LINE
  8
0
 10
2.728
 11
2.764
 20
-8.045
 21
-8.038
  0
LINE
  8
0
 10
2.764
 11
2.8
 20
-8.038
 21
-8.036
  0
LINE
  8
0
 10
2.8
 11
4.996
 20
-8.036
 21
-8.036
  0
LINE
  8
0
 10
4.996
 11
5.095
 20
-8.036
 21
-8.03
  0
LINE
  8
0
 10
5.095
 11
5.192
 20
-8.03
 21
-8.012
  0
LINE
  8
0
 10
5.192
 11
5.287
 20
-8.012
 21
-7.982
  0
LINE
  8
0
 10
5.287
 11
5.377
 20
-7.982
 21
-7.942
  0
LINE
  8
0
 10
5.377
 11
5.461
 20
-7.942
 21
-7.89
  0
LINE
  8
0
 10
5.461
 11
5.538
 20
-7.89
 21
-7.829
  0
LINE
  8
0
 10
5.538
 11
5.584
 20
-7.829
 21
-7.781
  0
LINE
  8
0
 10
5.584
 11
5.601
 20
-7.781
 21
-7.751
  0
LINE
  8
0
 10
5.601
 11
5.637
 20
-7.751
 21
-7.66
  0
LINE
  8
0
 10
5.637
 11
5.663
 20
-7.66
 21
-7.564
  0
LINE
  8
0
 10
5.663
 11
5.677
 20
-7.564
 21
-7.466
  0
LINE
  8
0
 10
5.677
 11
5.679
 20
-7.466
 21
-7.367
  0
LINE
  8
0
 10
5.679
 11
5.669
 20
-7.367
 21
-7.268
  0
LINE
  8
0
 10
5.669
 11
5.648
 20
-7.268
 21
-7.172
  0
LINE
  8
0
 10
5.648
 11
5.613
 20
-7.172
 21
-7.079
  0
LINE
  8
0
 10
5.613
 11
5.569
 20
-7.079
 21
-6.99
  0
LINE
  8
0
 10
5.569
 11
5.543
 20
-6.99
 21
-6.951
  0
LINE
  8
0
 10
5.543
 11
3.256
 20
-6.951
 21
-4.62
  0
LINE
  8
0
 10
3.256
 11
3.005
 20
-4.62
 21
-4.391
  0
LINE
  8
0
 10
3.005
 11
2.731
 20
-4.391
 21
-4.192
  0
LINE
  8
0
 10
2.731
 11
2.436
 20
-4.192
 21
-4.026
  0
LINE
  8
0
 10
2.436
 11
2.125
 20
-4.026
 21
-3.894
  0
LINE
  8
0
 10
2.125
 11
1.802
 20
-3.894
 21
-3.799
  0
LINE
  8
0
 10
1.802
 11
1.47
 20
-3.799
 21
-3.742
  0
LINE
  8
0
 10
1.47
 11
1.135
 20
-3.742
 21
-3.723
  0
LINE
  8
0
 10
1.135
 11
-1.135
 20
-3.723
 21
-3.723
  0
LINE
  8
0
 10
-1.135
 11
-1.47
 20
-3.723
 21
-3.742
  0
LINE
  8
0
 10
-1.47
 11
-1.802
 20
-3.742
 21
-3.799
  0
LINE
  8
0
 10
-1.802
 11
-2.125
 20
-3.799
 21
-3.894
  0
LINE
  8
0
 10
-2.125
 11
-2.436
 20
-3.894
 21
-4.026
  0
LINE
  8
0
 10
-2.436
 11
-2.731
 20
-4.026
 21
-4.192
  0
LINE
  8
0
 10
-2.731
 11
-3.005
 20
-4.192
 21
-4.391
  0
LINE
  8
0
 10
-3.005
 11
-3.256
 20
-4.391
 21
-4.62
  0
LINE
  8
0
 10
-3.256
 11
-5.543
 20
-4.62
 21
-6.951
  0
LINE
  8
0
 10
-5.543
 11
-5.569
 20
-6.951
 21
-6.99
  0
LINE
  8
0
 10
-5.569
 11
-5.613
 20
-6.99
 21
-7.079
  0
LINE
  8
0
 10
-5.613
 11
-5.648
 20
-7.079
 21
-7.172
  0
LINE
  8
0
 10
-5.648
 11
-5.669
 20
-7.172
 21
-7.268
  0
LINE
  8
0
 10
-5.669
 11
-5.679
 20
-7.268
 21
-7.367
  0
LINE
  8
0
 10
-5.679
 11
-5.677
 20
-7.367
 21
-7.466
  0
LINE
  8
0
 10
-5.677
 11
-5.663
 20
-7.466
 21
-7.564
  0
LINE
  8
0
 10
-5.663
 11
-5.637
 20
-7.564
 21
-7.66
  0
LINE
  8
0
 10
-5.637
 11
-5.601
 20
-7.66
 21
-7.751
  0
LINE
  8
0
 10
-5.601
 11
-5.584
 20
-7.751
 21
-7.781
  0
LINE
  8
0
 10
-5.584
 11
-5.538
 20
-7.781
 21
-7.829
  0
LINE
  8
0
 10
-5.538
 11
-5.461
 20
-7.829
 21
-7.89
  0
LINE
  8
0
 10
-5.461
 11
-5.377
 20
-7.89
 21
-7.942
  0
LINE
  8
0
 10
-5.377
 11
-5.287
 20
-7.942
 21
-7.982
  0
LINE
  8
0
 10
-5.287
 11
-5.192
 20
-7.982
 21
-8.012
  0
LINE
  8
0
 10
-5.192
 11
-5.095
 20
-8.012
 21
-8.03
  0
LINE
  8
0
 10
-5.095
 11
-4.996
 20
-8.03
 21
-8.036
  0
LINE
  8
0
 10
-4.996
 11
-2.8
 20
-8.036
 21
-8.036
  0
LINE
  8
0
 10
-2.8
 11
-2.764
 20
-8.036
 21
-8.038
  0
LINE
  8
0
 10
-2.764
 11
-2.728
 20
-8.038
 21
-8.045
  0
LINE
  8
0
 10
-2.728
 11
-2.694
 20
-8.045
 21
-8.055
  0
LINE
  8
0
 10
-2.694
 11
-2.661
 20
-8.055
 21
-8.069
  0
LINE
  8
0
 10
-2.661
 11
-2.63
 20
-8.069
 21
-8.088
  0
LINE
  8
0
 10
-2.63
 11
-2.601
 20
-8.088
 21
-8.109
  0
LINE
  8
0
 10
-2.601
 11
-2.575
 20
-8.109
 21
-8.135
  0
LINE
  8
0
 10
-2.575
 11
-2.553
 20
-8.135
 21
-8.163
  0
LINE
  8
0
 10
-2.553
 11
-2.534
 20
-8.163
 21
-8.194
  0
LINE
  8
0
 10
-2.534
 11
-2.519
 20
-8.194
 21
-8.226
  0
LINE
  8
0
 10
-2.519
 11
-2.509
 20
-8.226
 21
-8.259
  0
LINE
  8
0
 10
-2.509
 11
-2.502
 20
-8.259
 21
-8.295
  0
LINE
  8
0
 10
-2.502
 11
-2.5
 20
-8.295
 21
-8.33
  0
LINE
  8
0
 10
-2.5
 11
-2.5
 20
-8.33
 21
-8.333
  0
LINE
  8
0
 10
-2.5
 11
-2.483
 20
-8.333
 21
-8.361
  0
LINE
  8
0
 10
-2.483
 11
-2.469
 20
-8.361
 21
-8.394
  0
LINE
  8
0
 10
-2.469
 11
-2.459
 20
-8.394
 21
-8.428
  0
LINE
  8
0
 10
-2.459
 11
-2.452
 20
-8.428
 21
-8.464
  0
LINE
  8
0
 10
-2.452
 11
-2.45
 20
-8.464
 21
-8.5
  0
LINE
  8
0
 10
-2.45
 11
-2.45
 20
-8.5
 21
-9.2
  0
LINE
  8
0
 10
-2.45
 11
-2.456
 20
-9.2
 21
-9.296
  0
LINE
  8
0
 10
-2.456
 11
-2.473
 20
-9.296
 21
-9.391
  0
LINE
  8
0
 10
-2.473
 11
-2.501
 20
-9.391
 21
-9.484
  0
LINE
  8
0
 10
-2.501
 11
-2.51
 20
-9.484
 21
-9.504
  0
LINE
  8
0
 10
-2.51
 11
-2.523
 20
-9.504
 21
-9.579
  0
LINE
  8
0
 10
-2.523
 11
-2.552
 20
-9.579
 21
-9.674
  0
LINE
  8
0
 10
-2.552
 11
-2.592
 20
-9.674
 21
-9.763
  0
LINE
  8
0
 10
-2.592
 11
-2.642
 20
-9.763
 21
-9.847
  0
LINE
  8
0
 10
-2.642
 11
-2.701
 20
-9.847
 21
-9.925
  0
LINE
  8
0
 10
-2.701
 11
-2.77
 20
-9.925
 21
-9.995
  0
LINE
  8
0
 10
-2.77
 11
-2.846
 20
-9.995
 21
-10.055
  0
LINE
  8
0
 10
-2.846
 11
-2.928
 20
-10.055
 21
-10.106
  0
LINE
  8
0
 10
-2.928
 11
-3.016
 20
-10.106
 21
-10.147
  0
LINE
  8
0
 10
-3.016
 11
-3.109
 20
-10.147
 21
-10.177
  0
LINE
  8
0
 10
-3.109
 11
-3.204
 20
-10.177
 21
-10.194
  0
LINE
  8
0
 10
-3.204
 11
-3.3
 20
-10.194
 21
-10.2
  0
LINE
  8
0
 10
-3.3
 11
-8
 20
-10.2
 21
-10.2
  0
LINE
  8
0
 10
-8
 11
-8.241
 20
-10.2
 21
-10.185
  0
LINE
  8
0
 10
-8.241
 11
-8.479
 20
-10.185
 21
-10.141
  0
LINE
  8
0
 10
-8.479
 11
-8.709
 20
-10.141
 21
-10.067
  0
LINE
  8
0
 10
-8.709
 11
-8.929
 20
-10.067
 21
-9.966
  0
LINE
  8
0
 10
-8.929
 11
-9.136
 20
-9.966
 21
-9.839
  0
LINE
  8
0
 10
-9.136
 11
-9.326
 20
-9.839
 21
-9.687
  0
LINE
  8
0
 10
-9.326
 11
-9.497
 20
-9.687
 21
-9.513
  0
LINE
  8
0
 10
-9.497
 11
-9.504
 20
-9.513
 21
-9.504
  0
LINE
  8
0
 10
-9.504
 11
-9.513
 20
-9.504
 21
-9.497
  0
LINE
  8
0
 10
-9.513
 11
-9.687
 20
-9.497
 21
-9.326
  0
LINE
  8
0
 10
-9.687
 11
-9.839
 20
-9.326
 21
-9.136
  0
LINE
  8
0
 10
-9.839
 11
-9.966
 20
-9.136
 21
-8.929
  0
LINE
  8
0
 10
-9.966
 11
-10.067
 20
-8.929
 21
-8.709
  0
LINE
  8
0
 10
-10.067
 11
-10.141
 20
-8.709
 21
-8.479
  0
LINE
  8
0
 10
-10.141
 11
-10.185
 20
-8.479
 21
-8.241
  0
LINE
  8
0
 10
-10.185
 11
-10.2
 20
-8.241
 21
-8
  0
LINE
  8
0
 10
12
 11
12.008
 20
13
 21
13.125
  0
LINE
  8
0
 10
12.008
 11
12.031
 20
13.125
 21
13.249
  0
LINE
  8
0
 10
12.031
 11
12.07
 20
13.249
 21
13.368
  0
LINE
  8
0
 10
12.07
 11
12.124
 20
13.368
 21
13.482
  0
LINE
  8
0
 10
12.124
 11
12.191
 20
13.482
 21
13.588
  0
LINE
  8
0
 10
12.191
 11
12.271
 20
13.588
 21
13.685
  0
LINE
  8
0
 10
12.271
 11
12.363
 20
13.685
 21
13.771
  0
LINE
  8
0
 10
12.363
 11
12.464
 20
13.771
 21
13.844
  0
LINE
  8
0
 10
12.464
 11
12.574
 20
13.844
 21
13.905
  0
LINE
  8
0
 10
12.574
 11
12.691
 20
13.905
 21
13.951
  0
LINE
  8
0
 10
12.691
 11
12.813
 20
13.951
 21
13.982
  0
LINE
  8
0
 10
12.813
 11
12.937
 20
13.982
 21
13.998
  0
LINE
  8
0
 10
12.937
 11
13.063
 20
13.998
 21
13.998
  0
LINE
  8
0
 10
13.063
 11
13.187
 20
13.998
 21
13.982
  0
LINE
  8
0
 10
13.187
 11
13.309
 20
13.982
 21
13.951
  0
LINE
  8
0
 10
13.309
 11
13.426
 20
13.951
 21
13.905
  0
LINE
  8
0
 10
13.426
 11
13.536
 20
13.905
 21
13.844
  0
LINE
  8
0
 10
13.536
 11
13.637
 20
13.844
 21
13.771
  0
LINE
  8
0
 10
13.637
 11
13.729
 20
13.771
 21
13.685
  0
LINE
  8
0
 10
13.729
 11
13.809
 20
13.685
 21
13.588
  0
LINE
  8
0
 10
13.809
 11
13.876
 20
13.588
 21
13.482
  0
LINE
  8
0
 10
13.876
 11
13.93
 20
13.482
 21
13.368
  0
LINE
  8
0
 10
13.93
 11
13.969
 20
13.368
 21
13.249
  0
LINE
  8
0
 10
13.969
 11
13.992
 20
13.249
 21
13.125
  0
LINE
  8
0
 10
13.992
 11
14
 20
13.125
 21
13
  0
LINE
  8
0
 10
14
 11
13.992
 20
13
 21
12.875
  0
LINE
  8
0
 10
13.992
 11
13.969
 20
12.875
 21
12.751
  0
LINE
  8
0
 10
13.969
 11
13.93
 20
12.751
 21
12.632
  0
LINE
  8
0
 10
13.93
 11
13.876
 20
12.632
 21
12.518
  0
LINE
  8
0
 10
13.876
 11
13.809
 20
12.518
 21
12.412
  0
LINE
  8
0
 10
13.809
 11
13.729
 20
12.412
 21
12.315
  0
LINE
  8
0
 10
13.729
 11
13.637
 20
12.315
 21
12.229
  0
LINE
  8
0
 10
13.637
 11
13.536
 20
12.229
 21
12.156
  0
LINE
  8
0
 10
13.536
 11
13.426
 20
12.156
 21
12.095
  0
LINE
  8
0
 10
13.426
 11
13.309
 20
12.095
 21
12.049
  0
LINE
  8
0
 10
13.309
 11
13.187
 20
12.049
 21
12.018
  0
LINE
  8
0
 10
13.187
 11
13.063
 20
12.018
 21
12.002
  0
LINE
  8
0
 10
13.063
 11
12.937
 20
12.002
 21
12.002
  0
LINE
  8
0
 10
12.937
 11
12.813
 20
12.002
 21
12.018
  0
LINE
  8
0
 10
12.813
 11
12.691
 20
12.018
 21
12.049
  0
LINE
  8
0
 10
12.691
 11
12.574
 20
12.049
 21
12.095
  0
LINE
  8
0
 10
12.574
 11
12.464
 20
12.095
 21
12.156
  0
LINE
  8
0
 10
12.464
 11
12.363
 20
12.156
 21
12.229
  0
LINE
  8
0
 10
12.363
 11
12.271
 20
12.229
 21
12.315
  0
LINE
  8
0
 10
12.271
 11
12.191
 20
12.315
 21
12.412
  0
LINE
  8
0
 10
12.191
 11
12.124
 20
12.412
 21
12.518
  0
LINE
  8
0
 10
12.124
 11
12.07
 20
12.518
 21
12.632
  0
LINE
  8
0
 10
12.07
 11
12.031
 20
12.632
 21
12.751
  0
LINE
  8
0
 10
12.031
 11
12.008
 20
12.751
 21
12.875
  0
LINE
  8
0
 10
12.008
 11
12
 20
12.875
 21
13
  0
LINE
  8
0
 10
12.002
 11
12.002
 20
-13.063
 21
-12.937
  0
LINE
  8
0
 10
12.002
 11
12.018
 20
-12.937
 21
-12.813
  0
LINE
  8
0
 10
12.018
 11
12.049
 20
-12.813
 21
-12.691
  0
LINE
  8
0
 10
12.049
 11
12.095
 20
-12.691
 21
-12.574
  0
LINE
  8
0
 10
12.095
 11
12.156
 20
-12.574
 21
-12.464
  0
LINE
  8
0
 10
12.156
 11
12.229
 20
-12.464
 21
-12.363
  0
LINE
  8
0
 10
12.229
 11
12.315
 20
-12.363
 21
-12.271
  0
LINE
  8
0
 10
12.315
 11
12.412
 20
-12.271
 21
-12.191
  0
LINE
  8
0
 10
12.412
 11
12.518
 20
-12.191
 21
-12.124
  0
LINE
  8
0
 10
12.518
 11
12.632
 20
-12.124
 21
-12.07
  0
LINE
  8
0
 10
12.632
 11
12.751
 20
-12.07
 21
-12.031
  0
LINE
  8
0
 10
12.751
 11
12.875
 20
-12.031
 21
-12.008
  0
LINE
  8
0
 10
12.875
 11
13
 20
-12.008
 21
-12
  0
LINE
  8
0
 10
13
 11
13.125
 20
-12
 21
-12.008
  0
LINE
  8
0
 10
13.125
 11
13.249
 20
-12.008
 21
-12.031
  0
LINE
  8
0
 10
13.249
 11
13.368
 20
-12.031
 21
-12.07
  0
LINE
  8
0
 10
13.368
 11
13.482
 20
-12.07
 21
-12.124
  0
LINE
  8
0
 10
13.482
 11
13.588
 20
-12.124
 21
-12.191
  0
LINE
  8
0
 10
13.588
 11
13.685
 20
-12.191
 21
-12.271
  0
LINE
  8
0
 10
13.685
 11
13.771
 20
-12.271
 21
-12.363
  0
LINE
  8
0
 10
13.771
 11
13.844
 20
-12.363
 21
-12.464
  0
LINE
  8
0
 10
13.844
 11
13.905
 20
-12.464
 21
-12.574
  0
LINE
  8
0
 10
13.905
 11
13.951
 20
-12.574
 21
-12.691
  0
LINE
  8
0
 10
13.951
 11
13.982
 20
-12.691
 21
-12.813
  0
LINE
  8
0
 10
13.982
 11
13.998
 20
-12.813
 21
-12.937
  0
LINE
  8
0
 10
13.998
 11
13.998
 20
-12.937
 21
-13.063
  0
LINE
  8
0
 10
13.998
 11
13.982
 20
-13.063
 21
-13.187
  0
LINE
  8
0
 10
13.982
 11
13.951
 20
-13.187
 21
-13.309
  0
LINE
  8
0
 10
13.951
 11
13.905
 20
-13.309
 21
-13.426
  0
LINE
  8
0
 10
13.905
 11
13.844
 20
-13.426
 21
-13.536
  0
LINE
  8
0
 10
13.844
 11
13.771
 20
-13.536
 21
-13.637
  0
LINE
  8
0
 10
13.771
 11
13.685
 20
-13.637
 21
-13.729
  0
LINE
  8
0
 10
13.685
 11
13.588
 20
-13.729
 21
-13.809
  0
LINE
  8
0
 10
13.588
 11
13.482
 20
-13.809
 21
-13.876
  0
LINE
  8
0
 10
13.482
 11
13.368
 20
-13.876
 21
-13.93
  0
LINE
  8
0
 10
13.368
 11
13.249
 20
-13.93
 21
-13.969
  0
LINE
  8
0
 10
13.249
 11
13.125
 20
-13.969
 21
-13.992
  0
LINE
  8
0
 10
13.125
 11
13
 20
-13.992
 21
-14
  0
LINE
  8
0
 10
13
 11
12.875
 20
-14
 21
-13.992
  0
LINE
  8
0
 10
12.875
 11
12.751
 20
-13.992
 21
-13.969
  0
LINE
  8
0
 10
12.751
 11
12.632
 20
-13.969
 21
-13.93
  0
LINE
  8
0
 10
12.632
 11
12.518
 20
-13.93
 21
-13.876
  0
LINE
  8
0
 10
12.518
 11
12.412
 20
-13.876
 21
-13.809
  0
LINE
  8
0
 10
12.412
 11
12.315
 20
-13.809
 21
-13.729
  0
LINE
  8
0
 10
12.315
 11
12.229
 20
-13.729
 21
-13.637
  0
LINE
  8
0
 10
12.229
 11
12.156
 20
-13.637
 21
-13.536
  0
LINE
  8
0
 10
12.156
 11
12.095
 20
-13.536
 21
-13.426
  0
LINE
  8
0
 10
12.095
 11
12.049
 20
-13.426
 21
-13.309
  0
LINE
  8
0
 10
12.049
 11
12.018
 20
-13.309
 21
-13.187
  0
LINE
  8
0
 10
12.018
 11
12.002
 20
-13.187
 21
-13.063
  0
ENDSEC
  0
SECTION
  2
OBJECTS
  0
DICTIONARY
  0
ENDSEC
  0
EOF
