  0
SECTION
  2
BLOCKS
  0
ENDSEC
  0
SECTION
  2
ENTITIES
  0
LINE
  8
0
 10
-31
 11
-31
 20
-29.5
 21
39.5
  0
LINE
  8
0
 10
-31
 11
31
 20
39.5
 21
39.5
  0
LINE
  8
0
 10
31
 11
31
 20
39.5
 21
-29.5
  0
LINE
  8
0
 10
31
 11
28.5
 20
-29.5
 21
-29.5
  0
LINE
  8
0
 10
28.5
 11
28.5
 20
-29.5
 21
-35
  0
LINE
  8
0
 10
28.5
 11
23.5
 20
-35
 21
-35
  0
LINE
  8
0
 10
23.5
 11
23.5
 20
-35
 21
-29.5
  0
LINE
  8
0
 10
23.5
 11
18.9
 20
-29.5
 21
-29.5
  0
LINE
  8
0
 10
18.9
 11
18.9
 20
-29.5
 21
-27.325
  0
LINE
  8
0
 10
18.9
 11
20.15
 20
-27.325
 21
-27.325
  0
LINE
  8
0
 10
20.15
 11
20.15
 20
-27.325
 21
-25.675
  0
LINE
  8
0
 10
20.15
 11
18.9
 20
-25.675
 21
-25.675
  0
LINE
  8
0
 10
18.9
 11
18.9
 20
-25.675
 21
-23.5
  0
LINE
  8
0
 10
18.9
 11
16.1
 20
-23.5
 21
-23.5
  0
LINE
  8
0
 10
16.1
 11
16.1
 20
-23.5
 21
-25.675
  0
LINE
  8
0
 10
16.1
 11
14.85
 20
-25.675
 21
-25.675
  0
LINE
  8
0
 10
14.85
 11
14.85
 20
-25.675
 21
-27.325
  0
LINE
  8
0
 10
14.85
 11
16.1
 20
-27.325
 21
-27.325
  0
LINE
  8
0
 10
16.1
 11
16.1
 20
-27.325
 21
-29.5
  0
LINE
  8
0
 10
16.1
 11
10
 20
-29.5
 21
-29.5
  0
LINE
  8
0
 10
10
 11
10
 20
-29.5
 21
-10
  0
LINE
  8
0
 10
10
 11
-10
 20
-10
 21
-10
  0
LINE
  8
0
 10
-10
 11
-10
 20
-10
 21
-29.5
  0
LINE
  8
0
 10
-10
 11
-16.1
 20
-29.5
 21
-29.5
  0
LINE
  8
0
 10
-16.1
 11
-16.1
 20
-29.5
 21
-27.325
  0
LINE
  8
0
 10
-16.1
 11
-14.85
 20
-27.325
 21
-27.325
  0
LINE
  8
0
 10
-14.85
 11
-14.85
 20
-27.325
 21
-25.675
  0
LINE
  8
0
 10
-14.85
 11
-16.1
 20
-25.675
 21
-25.675
  0
LINE
  8
0
 10
-16.1
 11
-16.1
 20
-25.675
 21
-23.5
  0
LINE
  8
0
 10
-16.1
 11
-18.9
 20
-23.5
 21
-23.5
  0
LINE
  8
0
 10
-18.9
 11
-18.9
 20
-23.5
 21
-25.675
  0
LINE
  8
0
 10
-18.9
 11
-20.15
 20
-25.675
 21
-25.675
  0
LINE
  8
0
 10
-20.15
 11
-20.15
 20
-25.675
 21
-27.325
  0
LINE
  8
0
 10
-20.15
 11
-18.9
 20
-27.325
 21
-27.325
  0
LINE
  8
0
 10
-18.9
 11
-18.9
 20
-27.325
 21
-29.5
  0
LINE
  8
0
 10
-18.9
 11
-23.5
 20
-29.5
 21
-29.5
  0
LINE
  8
0
 10
-23.5
 11
-23.5
 20
-29.5
 21
-35
  0
LINE
  8
0
 10
-23.5
 11
-28.5
 20
-35
 21
-35
  0
LINE
  8
0
 10
-28.5
 11
-28.5
 20
-35
 21
-29.5
  0
LINE
  8
0
 10
-28.5
 11
-31
 20
-29.5
 21
-29.5
  0
LINE
  8
0
 10
-28.5
 11
-28.5
 20
-25
 21
-20
  0
LINE
  8
0
 10
-28.5
 11
-23.5
 20
-20
 21
-20
  0
LINE
  8
0
 10
-23.5
 11
-23.5
 20
-20
 21
-25
  0
LINE
  8
0
 10
-23.5
 11
-28.5
 20
-25
 21
-25
  0
LINE
  8
0
 10
-28.5
 11
-28.5
 20
-5
 21
0
  0
LINE
  8
0
 10
-28.5
 11
-23.5
 20
0
 21
0
  0
LINE
  8
0
 10
-23.5
 11
-23.5
 20
0
 21
-5
  0
LINE
  8
0
 10
-23.5
 11
-28.5
 20
-5
 21
-5
  0
LINE
  8
0
 10
-28.5
 11
-28.5
 20
5
 21
10
  0
LINE
  8
0
 10
-28.5
 11
-23.5
 20
10
 21
10
  0
LINE
  8
0
 10
-23.5
 11
-23.5
 20
10
 21
5
  0
LINE
  8
0
 10
-23.5
 11
-28.5
 20
5
 21
5
  0
LINE
  8
0
 10
-28.5
 11
-28.5
 20
25
 21
30
  0
LINE
  8
0
 10
-28.5
 11
-23.5
 20
30
 21
30
  0
LINE
  8
0
 10
-23.5
 11
-23.5
 20
30
 21
25
  0
LINE
  8
0
 10
-23.5
 11
-28.5
 20
25
 21
25
  0
LINE
  8
0
 10
-27.5
 11
-27.488
 20
-12.5
 21
-12.312
  0
LINE
  8
0
 10
-27.488
 11
-27.453
 20
-12.312
 21
-12.127
  0
LINE
  8
0
 10
-27.453
 11
-27.395
 20
-12.127
 21
-11.948
  0
LINE
  8
0
 10
-27.395
 11
-27.314
 20
-11.948
 21
-11.777
  0
LINE
  8
0
 10
-27.314
 11
-27.214
 20
-11.777
 21
-11.618
  0
LINE
  8
0
 10
-27.214
 11
-27.093
 20
-11.618
 21
-11.473
  0
LINE
  8
0
 10
-27.093
 11
-26.956
 20
-11.473
 21
-11.344
  0
LINE
  8
0
 10
-26.956
 11
-26.804
 20
-11.344
 21
-11.234
  0
LINE
  8
0
 10
-26.804
 11
-26.639
 20
-11.234
 21
-11.143
  0
LINE
  8
0
 10
-26.639
 11
-26.464
 20
-11.143
 21
-11.073
  0
LINE
  8
0
 10
-26.464
 11
-26.281
 20
-11.073
 21
-11.027
  0
LINE
  8
0
 10
-26.281
 11
-26.094
 20
-11.027
 21
-11.003
  0
LINE
  8
0
 10
-26.094
 11
-25.906
 20
-11.003
 21
-11.003
  0
LINE
  8
0
 10
-25.906
 11
-25.719
 20
-11.003
 21
-11.027
  0
LINE
  8
0
 10
-25.719
 11
-25.536
 20
-11.027
 21
-11.073
  0
LINE
  8
0
 10
-25.536
 11
-25.361
 20
-11.073
 21
-11.143
  0
LINE
  8
0
 10
-25.361
 11
-25.196
 20
-11.143
 21
-11.234
  0
LINE
  8
0
 10
-25.196
 11
-25.044
 20
-11.234
 21
-11.344
  0
LINE
  8
0
 10
-25.044
 11
-24.907
 20
-11.344
 21
-11.473
  0
LINE
  8
0
 10
-24.907
 11
-24.786
 20
-11.473
 21
-11.618
  0
LINE
  8
0
 10
-24.786
 11
-24.686
 20
-11.618
 21
-11.777
  0
LINE
  8
0
 10
-24.686
 11
-24.605
 20
-11.777
 21
-11.948
  0
LINE
  8
0
 10
-24.605
 11
-24.547
 20
-11.948
 21
-12.127
  0
LINE
  8
0
 10
-24.547
 11
-24.512
 20
-12.127
 21
-12.312
  0
LINE
  8
0
 10
-24.512
 11
-24.5
 20
-12.312
 21
-12.5
  0
LINE
  8
0
 10
-24.5
 11
-24.512
 20
-12.5
 21
-12.688
  0
LINE
  8
0
 10
-24.512
 11
-24.547
 20
-12.688
 21
-12.873
  0
LINE
  8
0
 10
-24.547
 11
-24.605
 20
-12.873
 21
-13.052
  0
LINE
  8
0
 10
-24.605
 11
-24.686
 20
-13.052
 21
-13.223
  0
LINE
  8
0
 10
-24.686
 11
-24.786
 20
-13.223
 21
-13.382
  0
LINE
  8
0
 10
-24.786
 11
-24.907
 20
-13.382
 21
-13.527
  0
LINE
  8
0
 10
-24.907
 11
-25.044
 20
-13.527
 21
-13.656
  0
LINE
  8
0
 10
-25.044
 11
-25.196
 20
-13.656
 21
-13.766
  0
LINE
  8
0
 10
-25.196
 11
-25.361
 20
-13.766
 21
-13.857
  0
LINE
  8
0
 10
-25.361
 11
-25.536
 20
-13.857
 21
-13.927
  0
LINE
  8
0
 10
-25.536
 11
-25.719
 20
-13.927
 21
-13.973
  0
LINE
  8
0
 10
-25.719
 11
-25.906
 20
-13.973
 21
-13.997
  0
LINE
  8
0
 10
-25.906
 11
-26.094
 20
-13.997
 21
-13.997
  0
LINE
  8
0
 10
-26.094
 11
-26.281
 20
-13.997
 21
-13.973
  0
LINE
  8
0
 10
-26.281
 11
-26.464
 20
-13.973
 21
-13.927
  0
LINE
  8
0
 10
-26.464
 11
-26.639
 20
-13.927
 21
-13.857
  0
LINE
  8
0
 10
-26.639
 11
-26.804
 20
-13.857
 21
-13.766
  0
LINE
  8
0
 10
-26.804
 11
-26.956
 20
-13.766
 21
-13.656
  0
LINE
  8
0
 10
-26.956
 11
-27.093
 20
-13.656
 21
-13.527
  0
LINE
  8
0
 10
-27.093
 11
-27.214
 20
-13.527
 21
-13.382
  0
LINE
  8
0
 10
-27.214
 11
-27.314
 20
-13.382
 21
-13.223
  0
LINE
  8
0
 10
-27.314
 11
-27.395
 20
-13.223
 21
-13.052
  0
LINE
  8
0
 10
-27.395
 11
-27.453
 20
-13.052
 21
-12.873
  0
LINE
  8
0
 10
-27.453
 11
-27.488
 20
-12.873
 21
-12.688
  0
LINE
  8
0
 10
-27.488
 11
-27.5
 20
-12.688
 21
-12.5
  0
LINE
  8
0
 10
-27.5
 11
-27.488
 20
17.5
 21
17.688
  0
LINE
  8
0
 10
-27.488
 11
-27.453
 20
17.688
 21
17.873
  0
LINE
  8
0
 10
-27.453
 11
-27.395
 20
17.873
 21
18.052
  0
LINE
  8
0
 10
-27.395
 11
-27.314
 20
18.052
 21
18.223
  0
LINE
  8
0
 10
-27.314
 11
-27.214
 20
18.223
 21
18.382
  0
LINE
  8
0
 10
-27.214
 11
-27.093
 20
18.382
 21
18.527
  0
LINE
  8
0
 10
-27.093
 11
-26.956
 20
18.527
 21
18.656
  0
LINE
  8
0
 10
-26.956
 11
-26.804
 20
18.656
 21
18.766
  0
LINE
  8
0
 10
-26.804
 11
-26.639
 20
18.766
 21
18.857
  0
LINE
  8
0
 10
-26.639
 11
-26.464
 20
18.857
 21
18.927
  0
LINE
  8
0
 10
-26.464
 11
-26.281
 20
18.927
 21
18.973
  0
LINE
  8
0
 10
-26.281
 11
-26.094
 20
18.973
 21
18.997
  0
LINE
  8
0
 10
-26.094
 11
-25.906
 20
18.997
 21
18.997
  0
LINE
  8
0
 10
-25.906
 11
-25.719
 20
18.997
 21
18.973
  0
LINE
  8
0
 10
-25.719
 11
-25.536
 20
18.973
 21
18.927
  0
LINE
  8
0
 10
-25.536
 11
-25.361
 20
18.927
 21
18.857
  0
LINE
  8
0
 10
-25.361
 11
-25.196
 20
18.857
 21
18.766
  0
LINE
  8
0
 10
-25.196
 11
-25.044
 20
18.766
 21
18.656
  0
LINE
  8
0
 10
-25.044
 11
-24.907
 20
18.656
 21
18.527
  0
LINE
  8
0
 10
-24.907
 11
-24.786
 20
18.527
 21
18.382
  0
LINE
  8
0
 10
-24.786
 11
-24.686
 20
18.382
 21
18.223
  0
LINE
  8
0
 10
-24.686
 11
-24.605
 20
18.223
 21
18.052
  0
LINE
  8
0
 10
-24.605
 11
-24.547
 20
18.052
 21
17.873
  0
LINE
  8
0
 10
-24.547
 11
-24.512
 20
17.873
 21
17.688
  0
LINE
  8
0
 10
-24.512
 11
-24.5
 20
17.688
 21
17.5
  0
LINE
  8
0
 10
-24.5
 11
-24.512
 20
17.5
 21
17.312
  0
LINE
  8
0
 10
-24.512
 11
-24.547
 20
17.312
 21
17.127
  0
LINE
  8
0
 10
-24.547
 11
-24.605
 20
17.127
 21
16.948
  0
LINE
  8
0
 10
-24.605
 11
-24.686
 20
16.948
 21
16.777
  0
LINE
  8
0
 10
-24.686
 11
-24.786
 20
16.777
 21
16.618
  0
LINE
  8
0
 10
-24.786
 11
-24.907
 20
16.618
 21
16.473
  0
LINE
  8
0
 10
-24.907
 11
-25.044
 20
16.473
 21
16.344
  0
LINE
  8
0
 10
-25.044
 11
-25.196
 20
16.344
 21
16.234
  0
LINE
  8
0
 10
-25.196
 11
-25.361
 20
16.234
 21
16.143
  0
LINE
  8
0
 10
-25.361
 11
-25.536
 20
16.143
 21
16.073
  0
LINE
  8
0
 10
-25.536
 11
-25.719
 20
16.073
 21
16.027
  0
LINE
  8
0
 10
-25.719
 11
-25.906
 20
16.027
 21
16.003
  0
LINE
  8
0
 10
-25.906
 11
-26.094
 20
16.003
 21
16.003
  0
LINE
  8
0
 10
-26.094
 11
-26.281
 20
16.003
 21
16.027
  0
LINE
  8
0
 10
-26.281
 11
-26.464
 20
16.027
 21
16.073
  0
LINE
  8
0
 10
-26.464
 11
-26.639
 20
16.073
 21
16.143
  0
LINE
  8
0
 10
-26.639
 11
-26.804
 20
16.143
 21
16.234
  0
LINE
  8
0
 10
-26.804
 11
-26.956
 20
16.234
 21
16.344
  0
LINE
  8
0
 10
-26.956
 11
-27.093
 20
16.344
 21
16.473
  0
LINE
  8
0
 10
-27.093
 11
-27.214
 20
16.473
 21
16.618
  0
LINE
  8
0
 10
-27.214
 11
-27.314
 20
16.618
 21
16.777
  0
LINE
  8
0
 10
-27.314
 11
-27.395
 20
16.777
 21
16.948
  0
LINE
  8
0
 10
-27.395
 11
-27.453
 20
16.948
 21
17.127
  0
LINE
  8
0
 10
-27.453
 11
-27.488
 20
17.127
 21
17.312
  0
LINE
  8
0
 10
-27.488
 11
-27.5
 20
17.312
 21
17.5
  0
LINE
  8
0
 10
-17
 11
-17
 20
-6
 21
-3
  0
LINE
  8
0
 10
-17
 11
-16.988
 20
-3
 21
-2.812
  0
LINE
  8
0
 10
-16.988
 11
-16.953
 20
-2.812
 21
-2.627
  0
LINE
  8
0
 10
-16.953
 11
-16.895
 20
-2.627
 21
-2.448
  0
LINE
  8
0
 10
-16.895
 11
-16.814
 20
-2.448
 21
-2.277
  0
LINE
  8
0
 10
-16.814
 11
-16.714
 20
-2.277
 21
-2.118
  0
LINE
  8
0
 10
-16.714
 11
-16.593
 20
-2.118
 21
-1.973
  0
LINE
  8
0
 10
-16.593
 11
-16.456
 20
-1.973
 21
-1.844
  0
LINE
  8
0
 10
-16.456
 11
-16.304
 20
-1.844
 21
-1.734
  0
LINE
  8
0
 10
-16.304
 11
-16.139
 20
-1.734
 21
-1.643
  0
LINE
  8
0
 10
-16.139
 11
-15.964
 20
-1.643
 21
-1.573
  0
LINE
  8
0
 10
-15.964
 11
-15.781
 20
-1.573
 21
-1.527
  0
LINE
  8
0
 10
-15.781
 11
-15.594
 20
-1.527
 21
-1.503
  0
LINE
  8
0
 10
-15.594
 11
-15.406
 20
-1.503
 21
-1.503
  0
LINE
  8
0
 10
-15.406
 11
-15.219
 20
-1.503
 21
-1.527
  0
LINE
  8
0
 10
-15.219
 11
-15.036
 20
-1.527
 21
-1.573
  0
LINE
  8
0
 10
-15.036
 11
-14.861
 20
-1.573
 21
-1.643
  0
LINE
  8
0
 10
-14.861
 11
-14.696
 20
-1.643
 21
-1.734
  0
LINE
  8
0
 10
-14.696
 11
-14.544
 20
-1.734
 21
-1.844
  0
LINE
  8
0
 10
-14.544
 11
-14.407
 20
-1.844
 21
-1.973
  0
LINE
  8
0
 10
-14.407
 11
-14.286
 20
-1.973
 21
-2.118
  0
LINE
  8
0
 10
-14.286
 11
-14.186
 20
-2.118
 21
-2.277
  0
LINE
  8
0
 10
-14.186
 11
-14.105
 20
-2.277
 21
-2.448
  0
LINE
  8
0
 10
-14.105
 11
-14.047
 20
-2.448
 21
-2.627
  0
LINE
  8
0
 10
-14.047
 11
-14.012
 20
-2.627
 21
-2.812
  0
LINE
  8
0
 10
-14.012
 11
-14
 20
-2.812
 21
-3
  0
LINE
  8
0
 10
-14
 11
-14
 20
-3
 21
-6
  0
LINE
  8
0
 10
-14
 11
-14.012
 20
-6
 21
-6.188
  0
LINE
  8
0
 10
-14.012
 11
-14.047
 20
-6.188
 21
-6.373
  0
LINE
  8
0
 10
-14.047
 11
-14.105
 20
-6.373
 21
-6.552
  0
LINE
  8
0
 10
-14.105
 11
-14.186
 20
-6.552
 21
-6.723
  0
LINE
  8
0
 10
-14.186
 11
-14.286
 20
-6.723
 21
-6.882
  0
LINE
  8
0
 10
-14.286
 11
-14.407
 20
-6.882
 21
-7.027
  0
LINE
  8
0
 10
-14.407
 11
-14.544
 20
-7.027
 21
-7.156
  0
LINE
  8
0
 10
-14.544
 11
-14.696
 20
-7.156
 21
-7.266
  0
LINE
  8
0
 10
-14.696
 11
-14.861
 20
-7.266
 21
-7.357
  0
LINE
  8
0
 10
-14.861
 11
-15.036
 20
-7.357
 21
-7.427
  0
LINE
  8
0
 10
-15.036
 11
-15.219
 20
-7.427
 21
-7.473
  0
LINE
  8
0
 10
-15.219
 11
-15.406
 20
-7.473
 21
-7.497
  0
LINE
  8
0
 10
-15.406
 11
-15.594
 20
-7.497
 21
-7.497
  0
LINE
  8
0
 10
-15.594
 11
-15.781
 20
-7.497
 21
-7.473
  0
LINE
  8
0
 10
-15.781
 11
-15.964
 20
-7.473
 21
-7.427
  0
LINE
  8
0
 10
-15.964
 11
-16.139
 20
-7.427
 21
-7.357
  0
LINE
  8
0
 10
-16.139
 11
-16.304
 20
-7.357
 21
-7.266
  0
LINE
  8
0
 10
-16.304
 11
-16.456
 20
-7.266
 21
-7.156
  0
LINE
  8
0
 10
-16.456
 11
-16.593
 20
-7.156
 21
-7.027
  0
LINE
  8
0
 10
-16.593
 11
-16.714
 20
-7.027
 21
-6.882
  0
LINE
  8
0
 10
-16.714
 11
-16.814
 20
-6.882
 21
-6.723
  0
LINE
  8
0
 10
-16.814
 11
-16.895
 20
-6.723
 21
-6.552
  0
LINE
  8
0
 10
-16.895
 11
-16.953
 20
-6.552
 21
-6.373
  0
LINE
  8
0
 10
-16.953
 11
-16.988
 20
-6.373
 21
-6.188
  0
LINE
  8
0
 10
-16.988
 11
-17
 20
-6.188
 21
-6
  0
LINE
  8
0
 10
-17
 11
-17
 20
25
 21
28
  0
LINE
  8
0
 10
-17
 11
-16.988
 20
28
 21
28.188
  0
LINE
  8
0
 10
-16.988
 11
-16.953
 20
28.188
 21
28.373
  0
LINE
  8
0
 10
-16.953
 11
-16.895
 20
28.373
 21
28.552
  0
LINE
  8
0
 10
-16.895
 11
-16.814
 20
28.552
 21
28.723
  0
LINE
  8
0
 10
-16.814
 11
-16.714
 20
28.723
 21
28.882
  0
LINE
  8
0
 10
-16.714
 11
-16.593
 20
28.882
 21
29.027
  0
LINE
  8
0
 10
-16.593
 11
-16.456
 20
29.027
 21
29.156
  0
LINE
  8
0
 10
-16.456
 11
-16.304
 20
29.156
 21
29.266
  0
LINE
  8
0
 10
-16.304
 11
-16.139
 20
29.266
 21
29.357
  0
LINE
  8
0
 10
-16.139
 11
-15.964
 20
29.357
 21
29.427
  0
LINE
  8
0
 10
-15.964
 11
-15.781
 20
29.427
 21
29.473
  0
LINE
  8
0
 10
-15.781
 11
-15.594
 20
29.473
 21
29.497
  0
LINE
  8
0
 10
-15.594
 11
-15.406
 20
29.497
 21
29.497
  0
LINE
  8
0
 10
-15.406
 11
-15.219
 20
29.497
 21
29.473
  0
LINE
  8
0
 10
-15.219
 11
-15.036
 20
29.473
 21
29.427
  0
LINE
  8
0
 10
-15.036
 11
-14.861
 20
29.427
 21
29.357
  0
LINE
  8
0
 10
-14.861
 11
-14.696
 20
29.357
 21
29.266
  0
LINE
  8
0
 10
-14.696
 11
-14.544
 20
29.266
 21
29.156
  0
LINE
  8
0
 10
-14.544
 11
-14.407
 20
29.156
 21
29.027
  0
LINE
  8
0
 10
-14.407
 11
-14.286
 20
29.027
 21
28.882
  0
LINE
  8
0
 10
-14.286
 11
-14.186
 20
28.882
 21
28.723
  0
LINE
  8
0
 10
-14.186
 11
-14.105
 20
28.723
 21
28.552
  0
LINE
  8
0
 10
-14.105
 11
-14.047
 20
28.552
 21
28.373
  0
LINE
  8
0
 10
-14.047
 11
-14.012
 20
28.373
 21
28.188
  0
LINE
  8
0
 10
-14.012
 11
-14
 20
28.188
 21
28
  0
LINE
  8
0
 10
-14
 11
-14
 20
28
 21
25
  0
LINE
  8
0
 10
-14
 11
-14.012
 20
25
 21
24.812
  0
LINE
  8
0
 10
-14.012
 11
-14.047
 20
24.812
 21
24.627
  0
LINE
  8
0
 10
-14.047
 11
-14.105
 20
24.627
 21
24.448
  0
LINE
  8
0
 10
-14.105
 11
-14.186
 20
24.448
 21
24.277
  0
LINE
  8
0
 10
-14.186
 11
-14.286
 20
24.277
 21
24.118
  0
LINE
  8
0
 10
-14.286
 11
-14.407
 20
24.118
 21
23.973
  0
LINE
  8
0
 10
-14.407
 11
-14.544
 20
23.973
 21
23.844
  0
LINE
  8
0
 10
-14.544
 11
-14.696
 20
23.844
 21
23.734
  0
LINE
  8
0
 10
-14.696
 11
-14.861
 20
23.734
 21
23.643
  0
LINE
  8
0
 10
-14.861
 11
-15.036
 20
23.643
 21
23.573
  0
LINE
  8
0
 10
-15.036
 11
-15.219
 20
23.573
 21
23.527
  0
LINE
  8
0
 10
-15.219
 11
-15.406
 20
23.527
 21
23.503
  0
LINE
  8
0
 10
-15.406
 11
-15.594
 20
23.503
 21
23.503
  0
LINE
  8
0
 10
-15.594
 11
-15.781
 20
23.503
 21
23.527
  0
LINE
  8
0
 10
-15.781
 11
-15.964
 20
23.527
 21
23.573
  0
LINE
  8
0
 10
-15.964
 11
-16.139
 20
23.573
 21
23.643
  0
LINE
  8
0
 10
-16.139
 11
-16.304
 20
23.643
 21
23.734
  0
LINE
  8
0
 10
-16.304
 11
-16.456
 20
23.734
 21
23.844
  0
LINE
  8
0
 10
-16.456
 11
-16.593
 20
23.844
 21
23.973
  0
LINE
  8
0
 10
-16.593
 11
-16.714
 20
23.973
 21
24.118
  0
LINE
  8
0
 10
-16.714
 11
-16.814
 20
24.118
 21
24.277
  0
LINE
  8
0
 10
-16.814
 11
-16.895
 20
24.277
 21
24.448
  0
LINE
  8
0
 10
-16.895
 11
-16.953
 20
24.448
 21
24.627
  0
LINE
  8
0
 10
-16.953
 11
-16.988
 20
24.627
 21
24.812
  0
LINE
  8
0
 10
-16.988
 11
-17
 20
24.812
 21
25
  0
LINE
  8
0
 10
-14
 11
-13.89
 20
11
 21
12.755
  0
LINE
  8
0
 10
-13.89
 11
-13.56
 20
12.755
 21
14.482
  0
LINE
  8
0
 10
-13.56
 11
-13.017
 20
14.482
 21
16.154
  0
LINE
  8
0
 10
-13.017
 11
-12.268
 20
16.154
 21
17.745
  0
LINE
  8
0
 10
-12.268
 11
-11.326
 20
17.745
 21
19.229
  0
LINE
  8
0
 10
-11.326
 11
-10.206
 20
19.229
 21
20.584
  0
LINE
  8
0
 10
-10.206
 11
-8.924
 20
20.584
 21
21.787
  0
LINE
  8
0
 10
-8.924
 11
-7.502
 20
21.787
 21
22.821
  0
LINE
  8
0
 10
-7.502
 11
-5.961
 20
22.821
 21
23.668
  0
LINE
  8
0
 10
-5.961
 11
-4.326
 20
23.668
 21
24.315
  0
LINE
  8
0
 10
-4.326
 11
-2.623
 20
24.315
 21
24.752
  0
LINE
  8
0
 10
-2.623
 11
-0.879
 20
24.752
 21
24.972
  0
LINE
  8
0
 10
-0.879
 11
0.879
 20
24.972
 21
24.972
  0
LINE
  8
0
 10
0.879
 11
2.623
 20
24.972
 21
24.752
  0
LINE
  8
0
 10
2.623
 11
4.326
 20
24.752
 21
24.315
  0
LINE
  8
0
 10
4.326
 11
5.961
 20
24.315
 21
23.668
  0
LINE
  8
0
 10
5.961
 11
7.502
 20
23.668
 21
22.821
  0
LINE
  8
0
 10
7.502
 11
8.924
 20
22.821
 21
21.787
  0
LINE
  8
0
 10
8.924
 11
10.206
 20
21.787
 21
20.584
  0
LINE
  8
0
 10
10.206
 11
11.326
 20
20.584
 21
19.229
  0
LINE
  8
0
 10
11.326
 11
12.268
 20
19.229
 21
17.745
  0
LINE
  8
0
 10
12.268
 11
13.017
 20
17.745
 21
16.154
  0
LINE
  8
0
 10
13.017
 11
13.56
 20
16.154
 21
14.482
  0
LINE
  8
0
 10
13.56
 11
13.89
 20
14.482
 21
12.755
  0
LINE
  8
0
 10
13.89
 11
14
 20
12.755
 21
11
  0
LINE
  8
0
 10
14
 11
13.89
 20
11
 21
9.245
  0
LINE
  8
0
 10
13.89
 11
13.56
 20
9.245
 21
7.518
  0
LINE
  8
0
 10
13.56
 11
13.017
 20
7.518
 21
5.846
  0
LINE
  8
0
 10
13.017
 11
12.268
 20
5.846
 21
4.255
  0
LINE
  8
0
 10
12.268
 11
11.326
 20
4.255
 21
2.771
  0
LINE
  8
0
 10
11.326
 11
10.206
 20
2.771
 21
1.416
  0
LINE
  8
0
 10
10.206
 11
8.924
 20
1.416
 21
0.213
  0
LINE
  8
0
 10
8.924
 11
7.502
 20
0.213
 21
-0.821
  0
LINE
  8
0
 10
7.502
 11
5.961
 20
-0.821
 21
-1.668
  0
LINE
  8
0
 10
5.961
 11
4.326
 20
-1.668
 21
-2.315
  0
LINE
  8
0
 10
4.326
 11
2.623
 20
-2.315
 21
-2.752
  0
LINE
  8
0
 10
2.623
 11
0.879
 20
-2.752
 21
-2.972
  0
LINE
  8
0
 10
0.879
 11
-0.879
 20
-2.972
 21
-2.972
  0
LINE
  8
0
 10
-0.879
 11
-2.623
 20
-2.972
 21
-2.752
  0
LINE
  8
0
 10
-2.623
 11
-4.326
 20
-2.752
 21
-2.315
  0
LINE
  8
0
 10
-4.326
 11
-5.961
 20
-2.315
 21
-1.668
  0
LINE
  8
0
 10
-5.961
 11
-7.502
 20
-1.668
 21
-0.821
  0
LINE
  8
0
 10
-7.502
 11
-8.924
 20
-0.821
 21
0.213
  0
LINE
  8
0
 10
-8.924
 11
-10.206
 20
0.213
 21
1.416
  0
LINE
  8
0
 10
-10.206
 11
-11.326
 20
1.416
 21
2.771
  0
LINE
  8
0
 10
-11.326
 11
-12.268
 20
2.771
 21
4.255
  0
LINE
  8
0
 10
-12.268
 11
-13.017
 20
4.255
 21
5.846
  0
LINE
  8
0
 10
-13.017
 11
-13.56
 20
5.846
 21
7.518
  0
LINE
  8
0
 10
-13.56
 11
-13.89
 20
7.518
 21
9.245
  0
LINE
  8
0
 10
-13.89
 11
-14
 20
9.245
 21
11
  0
LINE
  8
0
 10
14
 11
14
 20
-6
 21
-3
  0
LINE
  8
0
 10
14
 11
14.012
 20
-3
 21
-2.812
  0
LINE
  8
0
 10
14.012
 11
14.047
 20
-2.812
 21
-2.627
  0
LINE
  8
0
 10
14.047
 11
14.105
 20
-2.627
 21
-2.448
  0
LINE
  8
0
 10
14.105
 11
14.186
 20
-2.448
 21
-2.277
  0
LINE
  8
0
 10
14.186
 11
14.286
 20
-2.277
 21
-2.118
  0
LINE
  8
0
 10
14.286
 11
14.407
 20
-2.118
 21
-1.973
  0
LINE
  8
0
 10
14.407
 11
14.544
 20
-1.973
 21
-1.844
  0
LINE
  8
0
 10
14.544
 11
14.696
 20
-1.844
 21
-1.734
  0
LINE
  8
0
 10
14.696
 11
14.861
 20
-1.734
 21
-1.643
  0
LINE
  8
0
 10
14.861
 11
15.036
 20
-1.643
 21
-1.573
  0
LINE
  8
0
 10
15.036
 11
15.219
 20
-1.573
 21
-1.527
  0
LINE
  8
0
 10
15.219
 11
15.406
 20
-1.527
 21
-1.503
  0
LINE
  8
0
 10
15.406
 11
15.594
 20
-1.503
 21
-1.503
  0
LINE
  8
0
 10
15.594
 11
15.781
 20
-1.503
 21
-1.527
  0
LINE
  8
0
 10
15.781
 11
15.964
 20
-1.527
 21
-1.573
  0
LINE
  8
0
 10
15.964
 11
16.139
 20
-1.573
 21
-1.643
  0
LINE
  8
0
 10
16.139
 11
16.304
 20
-1.643
 21
-1.734
  0
LINE
  8
0
 10
16.304
 11
16.456
 20
-1.734
 21
-1.844
  0
LINE
  8
0
 10
16.456
 11
16.593
 20
-1.844
 21
-1.973
  0
LINE
  8
0
 10
16.593
 11
16.714
 20
-1.973
 21
-2.118
  0
LINE
  8
0
 10
16.714
 11
16.814
 20
-2.118
 21
-2.277
  0
LINE
  8
0
 10
16.814
 11
16.895
 20
-2.277
 21
-2.448
  0
LINE
  8
0
 10
16.895
 11
16.953
 20
-2.448
 21
-2.627
  0
LINE
  8
0
 10
16.953
 11
16.988
 20
-2.627
 21
-2.812
  0
LINE
  8
0
 10
16.988
 11
17
 20
-2.812
 21
-3
  0
LINE
  8
0
 10
17
 11
17
 20
-3
 21
-6
  0
LINE
  8
0
 10
17
 11
16.988
 20
-6
 21
-6.188
  0
LINE
  8
0
 10
16.988
 11
16.953
 20
-6.188
 21
-6.373
  0
LINE
  8
0
 10
16.953
 11
16.895
 20
-6.373
 21
-6.552
  0
LINE
  8
0
 10
16.895
 11
16.814
 20
-6.552
 21
-6.723
  0
LINE
  8
0
 10
16.814
 11
16.714
 20
-6.723
 21
-6.882
  0
LINE
  8
0
 10
16.714
 11
16.593
 20
-6.882
 21
-7.027
  0
LINE
  8
0
 10
16.593
 11
16.456
 20
-7.027
 21
-7.156
  0
LINE
  8
0
 10
16.456
 11
16.304
 20
-7.156
 21
-7.266
  0
LINE
  8
0
 10
16.304
 11
16.139
 20
-7.266
 21
-7.357
  0
LINE
  8
0
 10
16.139
 11
15.964
 20
-7.357
 21
-7.427
  0
LINE
  8
0
 10
15.964
 11
15.781
 20
-7.427
 21
-7.473
  0
LINE
  8
0
 10
15.781
 11
15.594
 20
-7.473
 21
-7.497
  0
LINE
  8
0
 10
15.594
 11
15.406
 20
-7.497
 21
-7.497
  0
LINE
  8
0
 10
15.406
 11
15.219
 20
-7.497
 21
-7.473
  0
LINE
  8
0
 10
15.219
 11
15.036
 20
-7.473
 21
-7.427
  0
LINE
  8
0
 10
15.036
 11
14.861
 20
-7.427
 21
-7.357
  0
LINE
  8
0
 10
14.861
 11
14.696
 20
-7.357
 21
-7.266
  0
LINE
  8
0
 10
14.696
 11
14.544
 20
-7.266
 21
-7.156
  0
LINE
  8
0
 10
14.544
 11
14.407
 20
-7.156
 21
-7.027
  0
LINE
  8
0
 10
14.407
 11
14.286
 20
-7.027
 21
-6.882
  0
LINE
  8
0
 10
14.286
 11
14.186
 20
-6.882
 21
-6.723
  0
LINE
  8
0
 10
14.186
 11
14.105
 20
-6.723
 21
-6.552
  0
LINE
  8
0
 10
14.105
 11
14.047
 20
-6.552
 21
-6.373
  0
LINE
  8
0
 10
14.047
 11
14.012
 20
-6.373
 21
-6.188
  0
LINE
  8
0
 10
14.012
 11
14
 20
-6.188
 21
-6
  0
LINE
  8
0
 10
14
 11
14
 20
25
 21
28
  0
LINE
  8
0
 10
14
 11
14.012
 20
28
 21
28.188
  0
LINE
  8
0
 10
14.012
 11
14.047
 20
28.188
 21
28.373
  0
LINE
  8
0
 10
14.047
 11
14.105
 20
28.373
 21
28.552
  0
LINE
  8
0
 10
14.105
 11
14.186
 20
28.552
 21
28.723
  0
LINE
  8
0
 10
14.186
 11
14.286
 20
28.723
 21
28.882
  0
LINE
  8
0
 10
14.286
 11
14.407
 20
28.882
 21
29.027
  0
LINE
  8
0
 10
14.407
 11
14.544
 20
29.027
 21
29.156
  0
LINE
  8
0
 10
14.544
 11
14.696
 20
29.156
 21
29.266
  0
LINE
  8
0
 10
14.696
 11
14.861
 20
29.266
 21
29.357
  0
LINE
  8
0
 10
14.861
 11
15.036
 20
29.357
 21
29.427
  0
LINE
  8
0
 10
15.036
 11
15.219
 20
29.427
 21
29.473
  0
LINE
  8
0
 10
15.219
 11
15.406
 20
29.473
 21
29.497
  0
LINE
  8
0
 10
15.406
 11
15.594
 20
29.497
 21
29.497
  0
LINE
  8
0
 10
15.594
 11
15.781
 20
29.497
 21
29.473
  0
LINE
  8
0
 10
15.781
 11
15.964
 20
29.473
 21
29.427
  0
LINE
  8
0
 10
15.964
 11
16.139
 20
29.427
 21
29.357
  0
LINE
  8
0
 10
16.139
 11
16.304
 20
29.357
 21
29.266
  0
LINE
  8
0
 10
16.304
 11
16.456
 20
29.266
 21
29.156
  0
LINE
  8
0
 10
16.456
 11
16.593
 20
29.156
 21
29.027
  0
LINE
  8
0
 10
16.593
 11
16.714
 20
29.027
 21
28.882
  0
LINE
  8
0
 10
16.714
 11
16.814
 20
28.882
 21
28.723
  0
LINE
  8
0
 10
16.814
 11
16.895
 20
28.723
 21
28.552
  0
LINE
  8
0
 10
16.895
 11
16.953
 20
28.552
 21
28.373
  0
LINE
  8
0
 10
16.953
 11
16.988
 20
28.373
 21
28.188
  0
LINE
  8
0
 10
16.988
 11
17
 20
28.188
 21
28
  0
LINE
  8
0
 10
17
 11
17
 20
28
 21
25
  0
LINE
  8
0
 10
17
 11
16.988
 20
25
 21
24.812
  0
LINE
  8
0
 10
16.988
 11
16.953
 20
24.812
 21
24.627
  0
LINE
  8
0
 10
16.953
 11
16.895
 20
24.627
 21
24.448
  0
LINE
  8
0
 10
16.895
 11
16.814
 20
24.448
 21
24.277
  0
LINE
  8
0
 10
16.814
 11
16.714
 20
24.277
 21
24.118
  0
LINE
  8
0
 10
16.714
 11
16.593
 20
24.118
 21
23.973
  0
LINE
  8
0
 10
16.593
 11
16.456
 20
23.973
 21
23.844
  0
LINE
  8
0
 10
16.456
 11
16.304
 20
23.844
 21
23.734
  0
LINE
  8
0
 10
16.304
 11
16.139
 20
23.734
 21
23.643
  0
LINE
  8
0
 10
16.139
 11
15.964
 20
23.643
 21
23.573
  0
LINE
  8
0
 10
15.964
 11
15.781
 20
23.573
 21
23.527
  0
LINE
  8
0
 10
15.781
 11
15.594
 20
23.527
 21
23.503
  0
LINE
  8
0
 10
15.594
 11
15.406
 20
23.503
 21
23.503
  0
LINE
  8
0
 10
15.406
 11
15.219
 20
23.503
 21
23.527
  0
LINE
  8
0
 10
15.219
 11
15.036
 20
23.527
 21
23.573
  0
LINE
  8
0
 10
15.036
 11
14.861
 20
23.573
 21
23.643
  0
LINE
  8
0
 10
14.861
 11
14.696
 20
23.643
 21
23.734
  0
LINE
  8
0
 10
14.696
 11
14.544
 20
23.734
 21
23.844
  0
LINE
  8
0
 10
14.544
 11
14.407
 20
23.844
 21
23.973
  0
LINE
  8
0
 10
14.407
 11
14.286
 20
23.973
 21
24.118
  0
LINE
  8
0
 10
14.286
 11
14.186
 20
24.118
 21
24.277
  0
LINE
  8
0
 10
14.186
 11
14.105
 20
24.277
 21
24.448
  0
LINE
  8
0
 10
14.105
 11
14.047
 20
24.448
 21
24.627
  0
LINE
  8
0
 10
14.047
 11
14.012
 20
24.627
 21
24.812
  0
LINE
  8
0
 10
14.012
 11
14
 20
24.812
 21
25
  0
LINE
  8
0
 10
23.5
 11
23.5
 20
-25
 21
-20
  0
LINE
  8
0
 10
23.5
 11
28.5
 20
-20
 21
-20
  0
LINE
  8
0
 10
28.5
 11
28.5
 20
-20
 21
-25
  0
LINE
  8
0
 10
28.5
 11
23.5
 20
-25
 21
-25
  0
LINE
  8
0
 10
23.5
 11
23.5
 20
-5
 21
0
  0
LINE
  8
0
 10
23.5
 11
28.5
 20
0
 21
0
  0
LINE
  8
0
 10
28.5
 11
28.5
 20
0
 21
-5
  0
LINE
  8
0
 10
28.5
 11
23.5
 20
-5
 21
-5
  0
LINE
  8
0
 10
23.5
 11
23.5
 20
5
 21
10
  0
LINE
  8
0
 10
23.5
 11
28.5
 20
10
 21
10
  0
LINE
  8
0
 10
28.5
 11
28.5
 20
10
 21
5
  0
LINE
  8
0
 10
28.5
 11
23.5
 20
5
 21
5
  0
LINE
  8
0
 10
23.5
 11
23.5
 20
25
 21
30
  0
LINE
  8
0
 10
23.5
 11
28.5
 20
30
 21
30
  0
LINE
  8
0
 10
28.5
 11
28.5
 20
30
 21
25
  0
LINE
  8
0
 10
28.5
 11
23.5
 20
25
 21
25
  0
LINE
  8
0
 10
24.5
 11
24.512
 20
-12.5
 21
-12.312
  0
LINE
  8
0
 10
24.512
 11
24.547
 20
-12.312
 21
-12.127
  0
LINE
  8
0
 10
24.547
 11
24.605
 20
-12.127
 21
-11.948
  0
LINE
  8
0
 10
24.605
 11
24.686
 20
-11.948
 21
-11.777
  0
LINE
  8
0
 10
24.686
 11
24.786
 20
-11.777
 21
-11.618
  0
LINE
  8
0
 10
24.786
 11
24.907
 20
-11.618
 21
-11.473
  0
LINE
  8
0
 10
24.907
 11
25.044
 20
-11.473
 21
-11.344
  0
LINE
  8
0
 10
25.044
 11
25.196
 20
-11.344
 21
-11.234
  0
LINE
  8
0
 10
25.196
 11
25.361
 20
-11.234
 21
-11.143
  0
LINE
  8
0
 10
25.361
 11
25.536
 20
-11.143
 21
-11.073
  0
LINE
  8
0
 10
25.536
 11
25.719
 20
-11.073
 21
-11.027
  0
LINE
  8
0
 10
25.719
 11
25.906
 20
-11.027
 21
-11.003
  0
LINE
  8
0
 10
25.906
 11
26.094
 20
-11.003
 21
-11.003
  0
LINE
  8
0
 10
26.094
 11
26.281
 20
-11.003
 21
-11.027
  0
LINE
  8
0
 10
26.281
 11
26.464
 20
-11.027
 21
-11.073
  0
LINE
  8
0
 10
26.464
 11
26.639
 20
-11.073
 21
-11.143
  0
LINE
  8
0
 10
26.639
 11
26.804
 20
-11.143
 21
-11.234
  0
LINE
  8
0
 10
26.804
 11
26.956
 20
-11.234
 21
-11.344
  0
LINE
  8
0
 10
26.956
 11
27.093
 20
-11.344
 21
-11.473
  0
LINE
  8
0
 10
27.093
 11
27.214
 20
-11.473
 21
-11.618
  0
LINE
  8
0
 10
27.214
 11
27.314
 20
-11.618
 21
-11.777
  0
LINE
  8
0
 10
27.314
 11
27.395
 20
-11.777
 21
-11.948
  0
LINE
  8
0
 10
27.395
 11
27.453
 20
-11.948
 21
-12.127
  0
LINE
  8
0
 10
27.453
 11
27.488
 20
-12.127
 21
-12.312
  0
LINE
  8
0
 10
27.488
 11
27.5
 20
-12.312
 21
-12.5
  0
LINE
  8
0
 10
27.5
 11
27.488
 20
-12.5
 21
-12.688
  0
LINE
  8
0
 10
27.488
 11
27.453
 20
-12.688
 21
-12.873
  0
LINE
  8
0
 10
27.453
 11
27.395
 20
-12.873
 21
-13.052
  0
LINE
  8
0
 10
27.395
 11
27.314
 20
-13.052
 21
-13.223
  0
LINE
  8
0
 10
27.314
 11
27.214
 20
-13.223
 21
-13.382
  0
LINE
  8
0
 10
27.214
 11
27.093
 20
-13.382
 21
-13.527
  0
LINE
  8
0
 10
27.093
 11
26.956
 20
-13.527
 21
-13.656
  0
LINE
  8
0
 10
26.956
 11
26.804
 20
-13.656
 21
-13.766
  0
LINE
  8
0
 10
26.804
 11
26.639
 20
-13.766
 21
-13.857
  0
LINE
  8
0
 10
26.639
 11
26.464
 20
-13.857
 21
-13.927
  0
LINE
  8
0
 10
26.464
 11
26.281
 20
-13.927
 21
-13.973
  0
LINE
  8
0
 10
26.281
 11
26.094
 20
-13.973
 21
-13.997
  0
LINE
  8
0
 10
26.094
 11
25.906
 20
-13.997
 21
-13.997
  0
LINE
  8
0
 10
25.906
 11
25.719
 20
-13.997
 21
-13.973
  0
LINE
  8
0
 10
25.719
 11
25.536
 20
-13.973
 21
-13.927
  0
LINE
  8
0
 10
25.536
 11
25.361
 20
-13.927
 21
-13.857
  0
LINE
  8
0
 10
25.361
 11
25.196
 20
-13.857
 21
-13.766
  0
LINE
  8
0
 10
25.196
 11
25.044
 20
-13.766
 21
-13.656
  0
LINE
  8
0
 10
25.044
 11
24.907
 20
-13.656
 21
-13.527
  0
LINE
  8
0
 10
24.907
 11
24.786
 20
-13.527
 21
-13.382
  0
LINE
  8
0
 10
24.786
 11
24.686
 20
-13.382
 21
-13.223
  0
LINE
  8
0
 10
24.686
 11
24.605
 20
-13.223
 21
-13.052
  0
LINE
  8
0
 10
24.605
 11
24.547
 20
-13.052
 21
-12.873
  0
LINE
  8
0
 10
24.547
 11
24.512
 20
-12.873
 21
-12.688
  0
LINE
  8
0
 10
24.512
 11
24.5
 20
-12.688
 21
-12.5
  0
LINE
  8
0
 10
24.5
 11
24.512
 20
17.5
 21
17.688
  0
LINE
  8
0
 10
24.512
 11
24.547
 20
17.688
 21
17.873
  0
LINE
  8
0
 10
24.547
 11
24.605
 20
17.873
 21
18.052
  0
LINE
  8
0
 10
24.605
 11
24.686
 20
18.052
 21
18.223
  0
LINE
  8
0
 10
24.686
 11
24.786
 20
18.223
 21
18.382
  0
LINE
  8
0
 10
24.786
 11
24.907
 20
18.382
 21
18.527
  0
LINE
  8
0
 10
24.907
 11
25.044
 20
18.527
 21
18.656
  0
LINE
  8
0
 10
25.044
 11
25.196
 20
18.656
 21
18.766
  0
LINE
  8
0
 10
25.196
 11
25.361
 20
18.766
 21
18.857
  0
LINE
  8
0
 10
25.361
 11
25.536
 20
18.857
 21
18.927
  0
LINE
  8
0
 10
25.536
 11
25.719
 20
18.927
 21
18.973
  0
LINE
  8
0
 10
25.719
 11
25.906
 20
18.973
 21
18.997
  0
LINE
  8
0
 10
25.906
 11
26.094
 20
18.997
 21
18.997
  0
LINE
  8
0
 10
26.094
 11
26.281
 20
18.997
 21
18.973
  0
LINE
  8
0
 10
26.281
 11
26.464
 20
18.973
 21
18.927
  0
LINE
  8
0
 10
26.464
 11
26.639
 20
18.927
 21
18.857
  0
LINE
  8
0
 10
26.639
 11
26.804
 20
18.857
 21
18.766
  0
LINE
  8
0
 10
26.804
 11
26.956
 20
18.766
 21
18.656
  0
LINE
  8
0
 10
26.956
 11
27.093
 20
18.656
 21
18.527
  0
LINE
  8
0
 10
27.093
 11
27.214
 20
18.527
 21
18.382
  0
LINE
  8
0
 10
27.214
 11
27.314
 20
18.382
 21
18.223
  0
LINE
  8
0
 10
27.314
 11
27.395
 20
18.223
 21
18.052
  0
LINE
  8
0
 10
27.395
 11
27.453
 20
18.052
 21
17.873
  0
LINE
  8
0
 10
27.453
 11
27.488
 20
17.873
 21
17.688
  0
LINE
  8
0
 10
27.488
 11
27.5
 20
17.688
 21
17.5
  0
LINE
  8
0
 10
27.5
 11
27.488
 20
17.5
 21
17.312
  0
LINE
  8
0
 10
27.488
 11
27.453
 20
17.312
 21
17.127
  0
LINE
  8
0
 10
27.453
 11
27.395
 20
17.127
 21
16.948
  0
LINE
  8
0
 10
27.395
 11
27.314
 20
16.948
 21
16.777
  0
LINE
  8
0
 10
27.314
 11
27.214
 20
16.777
 21
16.618
  0
LINE
  8
0
 10
27.214
 11
27.093
 20
16.618
 21
16.473
  0
LINE
  8
0
 10
27.093
 11
26.956
 20
16.473
 21
16.344
  0
LINE
  8
0
 10
26.956
 11
26.804
 20
16.344
 21
16.234
  0
LINE
  8
0
 10
26.804
 11
26.639
 20
16.234
 21
16.143
  0
LINE
  8
0
 10
26.639
 11
26.464
 20
16.143
 21
16.073
  0
LINE
  8
0
 10
26.464
 11
26.281
 20
16.073
 21
16.027
  0
LINE
  8
0
 10
26.281
 11
26.094
 20
16.027
 21
16.003
  0
LINE
  8
0
 10
26.094
 11
25.906
 20
16.003
 21
16.003
  0
LINE
  8
0
 10
25.906
 11
25.719
 20
16.003
 21
16.027
  0
LINE
  8
0
 10
25.719
 11
25.536
 20
16.027
 21
16.073
  0
LINE
  8
0
 10
25.536
 11
25.361
 20
16.073
 21
16.143
  0
LINE
  8
0
 10
25.361
 11
25.196
 20
16.143
 21
16.234
  0
LINE
  8
0
 10
25.196
 11
25.044
 20
16.234
 21
16.344
  0
LINE
  8
0
 10
25.044
 11
24.907
 20
16.344
 21
16.473
  0
LINE
  8
0
 10
24.907
 11
24.786
 20
16.473
 21
16.618
  0
LINE
  8
0
 10
24.786
 11
24.686
 20
16.618
 21
16.777
  0
LINE
  8
0
 10
24.686
 11
24.605
 20
16.777
 21
16.948
  0
LINE
  8
0
 10
24.605
 11
24.547
 20
16.948
 21
17.127
  0
LINE
  8
0
 10
24.547
 11
24.512
 20
17.127
 21
17.312
  0
LINE
  8
0
 10
24.512
 11
24.5
 20
17.312
 21
17.5
  0
ENDSEC
  0
SECTION
  2
OBJECTS
  0
DICTIONARY
  0
ENDSEC
  0
EOF
