  0
SECTION
  2
BLOCKS
  0
ENDSEC
  0
SECTION
  2
ENTITIES
  0
LINE
  8
0
 10
0
 11
0
 20
5
 21
10
  0
LINE
  8
0
 10
0
 11
5
 20
10
 21
10
  0
LINE
  8
0
 10
5
 11
5
 20
10
 21
16.1
  0
LINE
  8
0
 10
5
 11
7.675
 20
16.1
 21
16.1
  0
LINE
  8
0
 10
7.675
 11
7.675
 20
16.1
 21
14.85
  0
LINE
  8
0
 10
7.675
 11
9.325
 20
14.85
 21
14.85
  0
LINE
  8
0
 10
9.325
 11
9.325
 20
14.85
 21
16.1
  0
LINE
  8
0
 10
9.325
 11
11.5
 20
16.1
 21
16.1
  0
LINE
  8
0
 10
11.5
 11
11.5
 20
16.1
 21
18.9
  0
LINE
  8
0
 10
11.5
 11
9.325
 20
18.9
 21
18.9
  0
LINE
  8
0
 10
9.325
 11
9.325
 20
18.9
 21
20.15
  0
LINE
  8
0
 10
9.325
 11
7.675
 20
20.15
 21
20.15
  0
LINE
  8
0
 10
7.675
 11
7.675
 20
20.15
 21
18.9
  0
LINE
  8
0
 10
7.675
 11
5
 20
18.9
 21
18.9
  0
LINE
  8
0
 10
5
 11
5
 20
18.9
 21
25
  0
LINE
  8
0
 10
5
 11
0
 20
25
 21
25
  0
LINE
  8
0
 10
0
 11
0
 20
25
 21
30
  0
LINE
  8
0
 10
0
 11
5
 20
30
 21
30
  0
LINE
  8
0
 10
5
 11
5
 20
30
 21
35
  0
LINE
  8
0
 10
5
 11
0
 20
35
 21
35
  0
LINE
  8
0
 10
0
 11
0
 20
35
 21
40
  0
LINE
  8
0
 10
0
 11
5
 20
40
 21
40
  0
LINE
  8
0
 10
5
 11
5
 20
40
 21
46.1
  0
LINE
  8
0
 10
5
 11
7.675
 20
46.1
 21
46.1
  0
LINE
  8
0
 10
7.675
 11
7.675
 20
46.1
 21
44.85
  0
LINE
  8
0
 10
7.675
 11
9.325
 20
44.85
 21
44.85
  0
LINE
  8
0
 10
9.325
 11
9.325
 20
44.85
 21
46.1
  0
LINE
  8
0
 10
9.325
 11
11.5
 20
46.1
 21
46.1
  0
LINE
  8
0
 10
11.5
 11
11.5
 20
46.1
 21
48.9
  0
LINE
  8
0
 10
11.5
 11
9.325
 20
48.9
 21
48.9
  0
LINE
  8
0
 10
9.325
 11
9.325
 20
48.9
 21
50.15
  0
LINE
  8
0
 10
9.325
 11
7.675
 20
50.15
 21
50.15
  0
LINE
  8
0
 10
7.675
 11
7.675
 20
50.15
 21
48.9
  0
LINE
  8
0
 10
7.675
 11
5
 20
48.9
 21
48.9
  0
LINE
  8
0
 10
5
 11
5
 20
48.9
 21
55
  0
LINE
  8
0
 10
5
 11
0
 20
55
 21
55
  0
LINE
  8
0
 10
0
 11
0
 20
55
 21
60
  0
LINE
  8
0
 10
0
 11
5
 20
60
 21
60
  0
LINE
  8
0
 10
5
 11
5
 20
60
 21
69
  0
LINE
  8
0
 10
5
 11
45
 20
69
 21
69
  0
LINE
  8
0
 10
45
 11
45
 20
69
 21
-5
  0
LINE
  8
0
 10
45
 11
40
 20
-5
 21
-5
  0
LINE
  8
0
 10
40
 11
40
 20
-5
 21
0
  0
LINE
  8
0
 10
40
 11
33.9
 20
0
 21
0
  0
LINE
  8
0
 10
33.9
 11
33.9
 20
0
 21
2.675
  0
LINE
  8
0
 10
33.9
 11
35.15
 20
2.675
 21
2.675
  0
LINE
  8
0
 10
35.15
 11
35.15
 20
2.675
 21
4.325
  0
LINE
  8
0
 10
35.15
 11
33.9
 20
4.325
 21
4.325
  0
LINE
  8
0
 10
33.9
 11
33.9
 20
4.325
 21
6.5
  0
LINE
  8
0
 10
33.9
 11
31.1
 20
6.5
 21
6.5
  0
LINE
  8
0
 10
31.1
 11
31.1
 20
6.5
 21
4.325
  0
LINE
  8
0
 10
31.1
 11
29.85
 20
4.325
 21
4.325
  0
LINE
  8
0
 10
29.85
 11
29.85
 20
4.325
 21
2.675
  0
LINE
  8
0
 10
29.85
 11
31.1
 20
2.675
 21
2.675
  0
LINE
  8
0
 10
31.1
 11
31.1
 20
2.675
 21
0
  0
LINE
  8
0
 10
31.1
 11
25
 20
0
 21
0
  0
LINE
  8
0
 10
25
 11
25
 20
0
 21
-5
  0
LINE
  8
0
 10
25
 11
20
 20
-5
 21
-5
  0
LINE
  8
0
 10
20
 11
20
 20
-5
 21
0
  0
LINE
  8
0
 10
20
 11
13.9
 20
0
 21
0
  0
LINE
  8
0
 10
13.9
 11
13.9
 20
0
 21
2.675
  0
LINE
  8
0
 10
13.9
 11
15.15
 20
2.675
 21
2.675
  0
LINE
  8
0
 10
15.15
 11
15.15
 20
2.675
 21
4.325
  0
LINE
  8
0
 10
15.15
 11
13.9
 20
4.325
 21
4.325
  0
LINE
  8
0
 10
13.9
 11
13.9
 20
4.325
 21
6.5
  0
LINE
  8
0
 10
13.9
 11
11.1
 20
6.5
 21
6.5
  0
LINE
  8
0
 10
11.1
 11
11.1
 20
6.5
 21
4.325
  0
LINE
  8
0
 10
11.1
 11
9.85
 20
4.325
 21
4.325
  0
LINE
  8
0
 10
9.85
 11
9.85
 20
4.325
 21
2.675
  0
LINE
  8
0
 10
9.85
 11
11.1
 20
2.675
 21
2.675
  0
LINE
  8
0
 10
11.1
 11
11.1
 20
2.675
 21
0
  0
LINE
  8
0
 10
11.1
 11
5
 20
0
 21
0
  0
LINE
  8
0
 10
5
 11
5
 20
0
 21
5
  0
LINE
  8
0
 10
5
 11
0
 20
5
 21
5
  0
ENDSEC
  0
SECTION
  2
OBJECTS
  0
DICTIONARY
  0
ENDSEC
  0
EOF
