  0
SECTION
  2
HEADER
  9
$ACADVER
  1
AC1014
  9
$HANDSEED
  5
FFFF
  9
$MEASUREMENT
 70
     1
  0
ENDSEC
  0
SECTION
  2
TABLES
  0
TABLE
  2
VPORT
  5
8
330
0
100
AcDbSymbolTable
 70
     4
  0
VPORT
  5
2E
330
8
100
AcDbSymbolTableRecord
100
AcDbViewportTableRecord
  2
*ACTIVE
 70
     0
 10
0.0
 20
0.0
 11
1.0
 21
1.0
 12
210.0
 22
148.5
 13
0.0
 23
0.0
 14
10.0
 24
10.0
 15
10.0
 25
10.0
 16
0.0
 26
0.0
 36
1.0
 17
0.0
 27
0.0
 37
0.0
 40
341.0
 41
1.24
 42
50.0
 43
0.0
 44
0.0
 50
0.0
 51
0.0
 71
     0
 72
   100
 73
     1
 74
     3
 75
     0
 76
     0
 77
     0
 78
     0
  0
ENDTAB
  0
TABLE
  2
LTYPE
  5
5
330
0
100
AcDbSymbolTable
 70
     1
  0
LTYPE
  5
14
330
5
100
AcDbSymbolTableRecord
100
AcDbLinetypeTableRecord
  2
BYBLOCK
 70
     0
  3

 72
    65
 73
     0
 40
0.0
  0
LTYPE
  5
15
330
5
100
AcDbSymbolTableRecord
100
AcDbLinetypeTableRecord
  2
BYLAYER
 70
     0
  3

 72
    65
 73
     0
 40
0.0
  0
LTYPE
  5
16
330
5
100
AcDbSymbolTableRecord
100
AcDbLinetypeTableRecord
  2
CONTINUOUS
 70
     0
  3
Solid line
 72
    65
 73
     0
 40
0.0
  0
ENDTAB
  0
TABLE
  2
LAYER
  5
2
100
AcDbSymbolTable
 70
2
  0
LAYER
  5
50
100
AcDbSymbolTableRecord
100
AcDbLayerTableRecord
  2
0
 70
0
  6
CONTINUOUS
  0
LAYER
  5
51
100
AcDbSymbolTableRecord
100
AcDbLayerTableRecord
  2
Layer_1
 70
0
  6
CONTINUOUS
  0
ENDTAB
  0
TABLE
  2
STYLE
  5
3
330
0
100
AcDbSymbolTable
 70
     1
  0
STYLE
  5
11
330
3
100
AcDbSymbolTableRecord
100
AcDbTextStyleTableRecord
  2
STANDARD
 70
     0
 40
0.0
 41
1.0
 50
0.0
 71
     0
 42
2.5
  3
txt
  4

  0
ENDTAB
  0
TABLE
  2
VIEW
  5
6
330
0
100
AcDbSymbolTable
 70
     0
  0
ENDTAB
  0
TABLE
  2
UCS
  5
7
330
0
100
AcDbSymbolTable
 70
     0
  0
ENDTAB
  0
TABLE
  2
APPID
  5
9
330
0
100
AcDbSymbolTable
 70
     2
  0
APPID
  5
12
330
9
100
AcDbSymbolTableRecord
100
AcDbRegAppTableRecord
  2
ACAD
 70
     0
  0
ENDTAB
  0
TABLE
  2
DIMSTYLE
  5
A
330
0
100
AcDbSymbolTable
 70
     1
  0
DIMSTYLE
105
27
330
A
100
AcDbSymbolTableRecord
100
AcDbDimStyleTableRecord
  2
ISO-25
 70
     0
  3

  4

  5

  6

  7

 40
1.0
 41
2.5
 42
0.625
 43
3.75
 44
1.25
 45
0.0
 46
0.0
 47
0.0
 48
0.0
140
2.5
141
2.5
142
0.0
143
0.03937007874016
144
1.0
145
0.0
146
1.0
147
0.625
 71
     0
 72
     0
 73
     0
 74
     0
 75
     0
 76
     0
 77
     1
 78
     8
170
     0
171
     3
172
     1
173
     0
174
     0
175
     0
176
     0
177
     0
178
     0
270
     2
271
     2
272
     2
273
     2
274
     3
340
11
275
     0
280
     0
281
     0
282
     0
283
     0
284
     8
285
     0
286
     0
287
     3
288
     0
  0
ENDTAB
  0
TABLE
  2
BLOCK_RECORD
  5
1
330
0
100
AcDbSymbolTable
 70
     1
  0
BLOCK_RECORD
  5
1F
330
1
100
AcDbSymbolTableRecord
100
AcDbBlockTableRecord
  2
*MODEL_SPACE
  0
BLOCK_RECORD
  5
1B
330
1
100
AcDbSymbolTableRecord
100
AcDbBlockTableRecord
  2
*PAPER_SPACE
  0
ENDTAB
  0
ENDSEC
  0
SECTION
  2
BLOCKS
  0
BLOCK
  5
20
330
1F
100
AcDbEntity
  8
0
100
AcDbBlockBegin
  2
*MODEL_SPACE
 70
     0
 10
0.0
 20
0.0
 30
0.0
  3
*MODEL_SPACE
  1

  0
ENDBLK
  5
21
330
1F
100
AcDbEntity
  8
0
100
AcDbBlockEnd
  0
BLOCK
  5
1C
330
1B
100
AcDbEntity
 67
     1
  8
0
100
AcDbBlockBegin
  2
*PAPER_SPACE
  1

  0
ENDBLK
  5
1D
330
1B
100
AcDbEntity
 67
     1
  8
0
100
AcDbBlockEnd
  0
ENDSEC
  0
SECTION
  2
ENTITIES
  0
LWPOLYLINE
  5
100
100
AcDbEntity
  8
Layer_1
 62
7
100
AcDbPolyline
 90
5
 70
0
 10
2.641112
 20
45.141102
 30
0.0
 10
2.641112
 20
40.141112
 30
0.0
 10
7.641111
 20
40.141112
 30
0.0
 10
7.641111
 20
45.141102
 30
0.0
 10
2.641112
 20
45.141102
 30
0.0
  0
LWPOLYLINE
  5
101
100
AcDbEntity
  8
Layer_1
 62
7
100
AcDbPolyline
 90
13
 70
0
 10
0.141111
 20
50.141121
 30
0.0
 10
0.141111
 20
0.141116
 30
0.0
 10
2.641112
 20
0.141116
 30
0.0
 10
2.641112
 20
5.141115
 30
0.0
 10
7.641111
 20
5.141115
 30
0.0
 10
7.641111
 20
0.141116
 30
0.0
 10
54.641111
 20
0.141116
 30
0.0
 10
54.641111
 20
5.141115
 30
0.0
 10
59.641111
 20
5.141115
 30
0.0
 10
59.641111
 20
0.141116
 30
0.0
 10
62.141111
 20
0.141116
 30
0.0
 10
62.141111
 20
50.141121
 30
0.0
 10
0.141111
 20
50.141121
 30
0.0
  0
LWPOLYLINE
  5
102
100
AcDbEntity
  8
Layer_1
 62
7
100
AcDbPolyline
 90
5
 70
0
 10
2.641112
 20
25.141114
 30
0.0
 10
2.641112
 20
20.141124
 30
0.0
 10
7.641111
 20
20.141124
 30
0.0
 10
7.641111
 20
25.141114
 30
0.0
 10
2.641112
 20
25.141114
 30
0.0
  0
LWPOLYLINE
  5
103
100
AcDbEntity
  8
Layer_1
 62
7
100
AcDbPolyline
 90
51
 70
0
 10
3.641111
 20
32.641113
 30
0.0
 10
3.653111
 20
32.453125
 30
0.0
 10
3.688111
 20
32.268128
 30
0.0
 10
3.746111
 20
32.089115
 30
0.0
 10
3.827111
 20
31.918116
 30
0.0
 10
3.927111
 20
31.759112
 30
0.0
 10
4.048111
 20
31.614107
 30
0.0
 10
4.185111
 20
31.485103
 30
0.0
 10
4.337111
 20
31.375121
 30
0.0
 10
4.502111
 20
31.284104
 30
0.0
 10
4.677111
 20
31.214113
 30
0.0
 10
4.860111
 20
31.168111
 30
0.0
 10
5.047111
 20
31.144122
 30
0.0
 10
5.235111
 20
31.144122
 30
0.0
 10
5.422111
 20
31.168111
 30
0.0
 10
5.605111
 20
31.214113
 30
0.0
 10
5.780111
 20
31.284104
 30
0.0
 10
5.945111
 20
31.375121
 30
0.0
 10
6.097111
 20
31.485103
 30
0.0
 10
6.234111
 20
31.614107
 30
0.0
 10
6.355111
 20
31.759112
 30
0.0
 10
6.455111
 20
31.918116
 30
0.0
 10
6.536111
 20
32.089115
 30
0.0
 10
6.594111
 20
32.268128
 30
0.0
 10
6.629111
 20
32.453125
 30
0.0
 10
6.641111
 20
32.641113
 30
0.0
 10
6.629111
 20
32.829130
 30
0.0
 10
6.594111
 20
33.014126
 30
0.0
 10
6.536111
 20
33.193112
 30
0.0
 10
6.455111
 20
33.364110
 30
0.0
 10
6.355111
 20
33.523114
 30
0.0
 10
6.234111
 20
33.668120
 30
0.0
 10
6.097111
 20
33.797124
 30
0.0
 10
5.945111
 20
33.907106
 30
0.0
 10
5.780111
 20
33.998122
 30
0.0
 10
5.605111
 20
34.068113
 30
0.0
 10
5.422111
 20
34.114116
 30
0.0
 10
5.235111
 20
34.138105
 30
0.0
 10
5.047111
 20
34.138105
 30
0.0
 10
4.860111
 20
34.114116
 30
0.0
 10
4.677111
 20
34.068113
 30
0.0
 10
4.502111
 20
33.998122
 30
0.0
 10
4.337111
 20
33.907106
 30
0.0
 10
4.185111
 20
33.797124
 30
0.0
 10
4.048111
 20
33.668120
 30
0.0
 10
3.927111
 20
33.523114
 30
0.0
 10
3.827111
 20
33.364110
 30
0.0
 10
3.746111
 20
33.193112
 30
0.0
 10
3.688111
 20
33.014126
 30
0.0
 10
3.653111
 20
32.829130
 30
0.0
 10
3.641111
 20
32.641113
 30
0.0
  0
LWPOLYLINE
  5
104
100
AcDbEntity
  8
Layer_1
 62
7
100
AcDbPolyline
 90
51
 70
0
 10
3.641111
 20
12.641125
 30
0.0
 10
3.653111
 20
12.453109
 30
0.0
 10
3.688111
 20
12.268112
 30
0.0
 10
3.746111
 20
12.089127
 30
0.0
 10
3.827111
 20
11.918128
 30
0.0
 10
3.927111
 20
11.759124
 30
0.0
 10
4.048111
 20
11.614118
 30
0.0
 10
4.185111
 20
11.485115
 30
0.0
 10
4.337111
 20
11.375104
 30
0.0
 10
4.502111
 20
11.284116
 30
0.0
 10
4.677111
 20
11.214125
 30
0.0
 10
4.860111
 20
11.168123
 30
0.0
 10
5.047111
 20
11.144134
 30
0.0
 10
5.235111
 20
11.144105
 30
0.0
 10
5.422111
 20
11.168094
 30
0.0
 10
5.605111
 20
11.214125
 30
0.0
 10
5.780111
 20
11.284116
 30
0.0
 10
5.945111
 20
11.375104
 30
0.0
 10
6.097111
 20
11.485115
 30
0.0
 10
6.234111
 20
11.614118
 30
0.0
 10
6.355111
 20
11.759124
 30
0.0
 10
6.455111
 20
11.918128
 30
0.0
 10
6.536111
 20
12.089127
 30
0.0
 10
6.594111
 20
12.268112
 30
0.0
 10
6.629111
 20
12.453109
 30
0.0
 10
6.641111
 20
12.641125
 30
0.0
 10
6.629111
 20
12.829113
 30
0.0
 10
6.594111
 20
13.014110
 30
0.0
 10
6.536111
 20
13.193123
 30
0.0
 10
6.455111
 20
13.364122
 30
0.0
 10
6.355111
 20
13.523126
 30
0.0
 10
6.234111
 20
13.668103
 30
0.0
 10
6.097111
 20
13.797107
 30
0.0
 10
5.945111
 20
13.907117
 30
0.0
 10
5.780111
 20
13.998106
 30
0.0
 10
5.605111
 20
14.068125
 30
0.0
 10
5.422111
 20
14.114127
 30
0.0
 10
5.235111
 20
14.138116
 30
0.0
 10
5.047111
 20
14.138116
 30
0.0
 10
4.860111
 20
14.114127
 30
0.0
 10
4.677111
 20
14.068125
 30
0.0
 10
4.502111
 20
13.998106
 30
0.0
 10
4.337111
 20
13.907117
 30
0.0
 10
4.185111
 20
13.797107
 30
0.0
 10
4.048111
 20
13.668103
 30
0.0
 10
3.927111
 20
13.523126
 30
0.0
 10
3.827111
 20
13.364122
 30
0.0
 10
3.746111
 20
13.193123
 30
0.0
 10
3.688111
 20
13.014110
 30
0.0
 10
3.653111
 20
12.829113
 30
0.0
 10
3.641111
 20
12.641125
 30
0.0
  0
LWPOLYLINE
  5
105
100
AcDbEntity
  8
Layer_1
 62
7
100
AcDbPolyline
 90
51
 70
0
 10
12.141111
 20
2.641114
 30
0.0
 10
12.153111
 20
2.453114
 30
0.0
 10
12.188111
 20
2.268115
 30
0.0
 10
12.246111
 20
2.089115
 30
0.0
 10
12.327111
 20
1.918114
 30
0.0
 10
12.427111
 20
1.759116
 30
0.0
 10
12.548111
 20
1.614116
 30
0.0
 10
12.685111
 20
1.485115
 30
0.0
 10
12.837111
 20
1.375116
 30
0.0
 10
13.002111
 20
1.284116
 30
0.0
 10
13.177111
 20
1.214117
 30
0.0
 10
13.360111
 20
1.168114
 30
0.0
 10
13.547111
 20
1.144125
 30
0.0
 10
13.735111
 20
1.144117
 30
0.0
 10
13.922111
 20
1.168106
 30
0.0
 10
14.105111
 20
1.214117
 30
0.0
 10
14.280111
 20
1.284116
 30
0.0
 10
14.445111
 20
1.375116
 30
0.0
 10
14.597111
 20
1.485115
 30
0.0
 10
14.734111
 20
1.614116
 30
0.0
 10
14.855111
 20
1.759116
 30
0.0
 10
14.955111
 20
1.918114
 30
0.0
 10
15.036111
 20
2.089115
 30
0.0
 10
15.094111
 20
2.268115
 30
0.0
 10
15.129111
 20
2.453114
 30
0.0
 10
15.141111
 20
2.641114
 30
0.0
 10
15.129111
 20
2.829116
 30
0.0
 10
15.094111
 20
3.014116
 30
0.0
 10
15.036111
 20
3.193115
 30
0.0
 10
14.955111
 20
3.364116
 30
0.0
 10
14.855111
 20
3.523115
 30
0.0
 10
14.734111
 20
3.668115
 30
0.0
 10
14.597111
 20
3.797116
 30
0.0
 10
14.445111
 20
3.907115
 30
0.0
 10
14.280111
 20
3.998115
 30
0.0
 10
14.105111
 20
4.068114
 30
0.0
 10
13.922111
 20
4.114116
 30
0.0
 10
13.735111
 20
4.138105
 30
0.0
 10
13.547111
 20
4.138117
 30
0.0
 10
13.360111
 20
4.114128
 30
0.0
 10
13.177111
 20
4.068114
 30
0.0
 10
13.002111
 20
3.998115
 30
0.0
 10
12.837111
 20
3.907115
 30
0.0
 10
12.685111
 20
3.797116
 30
0.0
 10
12.548111
 20
3.668115
 30
0.0
 10
12.427111
 20
3.523115
 30
0.0
 10
12.327111
 20
3.364116
 30
0.0
 10
12.246111
 20
3.193115
 30
0.0
 10
12.188111
 20
3.014116
 30
0.0
 10
12.153111
 20
2.829116
 30
0.0
 10
12.141111
 20
2.641114
 30
0.0
  0
LWPOLYLINE
  5
106
100
AcDbEntity
  8
Layer_1
 62
7
100
AcDbPolyline
 90
51
 70
0
 10
28.641111
 20
40.141112
 30
0.0
 10
28.661111
 20
39.828128
 30
0.0
 10
28.720111
 20
39.519123
 30
0.0
 10
28.817111
 20
39.221124
 30
0.0
 10
28.950111
 20
38.937124
 30
0.0
 10
29.118111
 20
38.672117
 30
0.0
 10
29.319111
 20
38.430112
 30
0.0
 10
29.547111
 20
38.215115
 30
0.0
 10
29.801111
 20
38.030118
 30
0.0
 10
30.077111
 20
37.879129
 30
0.0
 10
30.368111
 20
37.763108
 30
0.0
 10
30.673111
 20
37.685102
 30
0.0
 10
30.984111
 20
37.646127
 30
0.0
 10
31.298111
 20
37.646127
 30
0.0
 10
31.609111
 20
37.685102
 30
0.0
 10
31.914111
 20
37.763108
 30
0.0
 10
32.205111
 20
37.879129
 30
0.0
 10
32.481111
 20
38.030118
 30
0.0
 10
32.735111
 20
38.215115
 30
0.0
 10
32.963111
 20
38.430112
 30
0.0
 10
33.164111
 20
38.672117
 30
0.0
 10
33.332111
 20
38.937124
 30
0.0
 10
33.465111
 20
39.221124
 30
0.0
 10
33.562111
 20
39.519123
 30
0.0
 10
33.621111
 20
39.828128
 30
0.0
 10
33.641111
 20
40.141112
 30
0.0
 10
33.621111
 20
40.454125
 30
0.0
 10
33.562111
 20
40.763102
 30
0.0
 10
33.465111
 20
41.061129
 30
0.0
 10
33.332111
 20
41.345129
 30
0.0
 10
33.164111
 20
41.610107
 30
0.0
 10
32.963111
 20
41.852113
 30
0.0
 10
32.735111
 20
42.067110
 30
0.0
 10
32.481111
 20
42.252106
 30
0.0
 10
32.205111
 20
42.403123
 30
0.0
 10
31.914111
 20
42.519117
 30
0.0
 10
31.609111
 20
42.597123
 30
0.0
 10
31.298111
 20
42.636126
 30
0.0
 10
30.984111
 20
42.636126
 30
0.0
 10
30.673111
 20
42.597123
 30
0.0
 10
30.368111
 20
42.519117
 30
0.0
 10
30.077111
 20
42.403123
 30
0.0
 10
29.801111
 20
42.252106
 30
0.0
 10
29.547111
 20
42.067110
 30
0.0
 10
29.319111
 20
41.852113
 30
0.0
 10
29.118111
 20
41.610107
 30
0.0
 10
28.950111
 20
41.345129
 30
0.0
 10
28.817111
 20
41.061129
 30
0.0
 10
28.720111
 20
40.763102
 30
0.0
 10
28.661111
 20
40.454125
 30
0.0
 10
28.641111
 20
40.141112
 30
0.0
  0
LWPOLYLINE
  5
107
100
AcDbEntity
  8
Layer_1
 62
7
100
AcDbPolyline
 90
51
 70
0
 10
28.641111
 20
10.141116
 30
0.0
 10
28.661111
 20
9.828114
 30
0.0
 10
28.720111
 20
9.519115
 30
0.0
 10
28.817111
 20
9.221117
 30
0.0
 10
28.950111
 20
8.937116
 30
0.0
 10
29.118111
 20
8.672115
 30
0.0
 10
29.319111
 20
8.430115
 30
0.0
 10
29.547111
 20
8.215116
 30
0.0
 10
29.801111
 20
8.030116
 30
0.0
 10
30.077111
 20
7.879116
 30
0.0
 10
30.368111
 20
7.763114
 30
0.0
 10
30.673111
 20
7.685116
 30
0.0
 10
30.984111
 20
7.646116
 30
0.0
 10
31.298111
 20
7.646116
 30
0.0
 10
31.609111
 20
7.685116
 30
0.0
 10
31.914111
 20
7.763114
 30
0.0
 10
32.205111
 20
7.879116
 30
0.0
 10
32.481111
 20
8.030116
 30
0.0
 10
32.735111
 20
8.215116
 30
0.0
 10
32.963111
 20
8.430115
 30
0.0
 10
33.164111
 20
8.672115
 30
0.0
 10
33.332111
 20
8.937116
 30
0.0
 10
33.465111
 20
9.221117
 30
0.0
 10
33.562111
 20
9.519115
 30
0.0
 10
33.621111
 20
9.828114
 30
0.0
 10
33.641111
 20
10.141116
 30
0.0
 10
33.621111
 20
10.454129
 30
0.0
 10
33.562111
 20
10.763105
 30
0.0
 10
33.465111
 20
11.061104
 30
0.0
 10
33.332111
 20
11.345104
 30
0.0
 10
33.164111
 20
11.610111
 30
0.0
 10
32.963111
 20
11.852116
 30
0.0
 10
32.735111
 20
12.067113
 30
0.0
 10
32.481111
 20
12.252110
 30
0.0
 10
32.205111
 20
12.403127
 30
0.0
 10
31.914111
 20
12.519120
 30
0.0
 10
31.609111
 20
12.597127
 30
0.0
 10
31.298111
 20
12.636101
 30
0.0
 10
30.984111
 20
12.636101
 30
0.0
 10
30.673111
 20
12.597127
 30
0.0
 10
30.368111
 20
12.519120
 30
0.0
 10
30.077111
 20
12.403127
 30
0.0
 10
29.801111
 20
12.252110
 30
0.0
 10
29.547111
 20
12.067113
 30
0.0
 10
29.319111
 20
11.852116
 30
0.0
 10
29.118111
 20
11.610111
 30
0.0
 10
28.950111
 20
11.345104
 30
0.0
 10
28.817111
 20
11.061104
 30
0.0
 10
28.720111
 20
10.763105
 30
0.0
 10
28.661111
 20
10.454129
 30
0.0
 10
28.641111
 20
10.141116
 30
0.0
  0
LWPOLYLINE
  5
108
100
AcDbEntity
  8
Layer_1
 62
7
100
AcDbPolyline
 90
51
 70
0
 10
47.141111
 20
2.641114
 30
0.0
 10
47.153111
 20
2.453114
 30
0.0
 10
47.188111
 20
2.268115
 30
0.0
 10
47.246111
 20
2.089115
 30
0.0
 10
47.327111
 20
1.918114
 30
0.0
 10
47.427111
 20
1.759116
 30
0.0
 10
47.548111
 20
1.614116
 30
0.0
 10
47.685111
 20
1.485115
 30
0.0
 10
47.837111
 20
1.375116
 30
0.0
 10
48.002111
 20
1.284116
 30
0.0
 10
48.177111
 20
1.214117
 30
0.0
 10
48.360111
 20
1.168114
 30
0.0
 10
48.547111
 20
1.144125
 30
0.0
 10
48.735111
 20
1.144117
 30
0.0
 10
48.922111
 20
1.168106
 30
0.0
 10
49.105111
 20
1.214117
 30
0.0
 10
49.280111
 20
1.284116
 30
0.0
 10
49.445111
 20
1.375116
 30
0.0
 10
49.597111
 20
1.485115
 30
0.0
 10
49.734111
 20
1.614116
 30
0.0
 10
49.855111
 20
1.759116
 30
0.0
 10
49.955111
 20
1.918114
 30
0.0
 10
50.036111
 20
2.089115
 30
0.0
 10
50.094111
 20
2.268115
 30
0.0
 10
50.129111
 20
2.453114
 30
0.0
 10
50.141111
 20
2.641114
 30
0.0
 10
50.129111
 20
2.829116
 30
0.0
 10
50.094111
 20
3.014116
 30
0.0
 10
50.036111
 20
3.193115
 30
0.0
 10
49.955111
 20
3.364116
 30
0.0
 10
49.855111
 20
3.523115
 30
0.0
 10
49.734111
 20
3.668115
 30
0.0
 10
49.597111
 20
3.797116
 30
0.0
 10
49.445111
 20
3.907115
 30
0.0
 10
49.280111
 20
3.998115
 30
0.0
 10
49.105111
 20
4.068114
 30
0.0
 10
48.922111
 20
4.114116
 30
0.0
 10
48.735111
 20
4.138105
 30
0.0
 10
48.547111
 20
4.138117
 30
0.0
 10
48.360111
 20
4.114128
 30
0.0
 10
48.177111
 20
4.068114
 30
0.0
 10
48.002111
 20
3.998115
 30
0.0
 10
47.837111
 20
3.907115
 30
0.0
 10
47.685111
 20
3.797116
 30
0.0
 10
47.548111
 20
3.668115
 30
0.0
 10
47.427111
 20
3.523115
 30
0.0
 10
47.327111
 20
3.364116
 30
0.0
 10
47.246111
 20
3.193115
 30
0.0
 10
47.188111
 20
3.014116
 30
0.0
 10
47.153111
 20
2.829116
 30
0.0
 10
47.141111
 20
2.641114
 30
0.0
  0
LWPOLYLINE
  5
109
100
AcDbEntity
  8
Layer_1
 62
7
100
AcDbPolyline
 90
5
 70
0
 10
54.641111
 20
45.141102
 30
0.0
 10
54.641111
 20
40.141112
 30
0.0
 10
59.641111
 20
40.141112
 30
0.0
 10
59.641111
 20
45.141102
 30
0.0
 10
54.641111
 20
45.141102
 30
0.0
  0
LWPOLYLINE
  5
10a
100
AcDbEntity
  8
Layer_1
 62
7
100
AcDbPolyline
 90
5
 70
0
 10
54.641111
 20
25.141114
 30
0.0
 10
54.641111
 20
20.141124
 30
0.0
 10
59.641111
 20
20.141124
 30
0.0
 10
59.641111
 20
25.141114
 30
0.0
 10
54.641111
 20
25.141114
 30
0.0
  0
LWPOLYLINE
  5
10b
100
AcDbEntity
  8
Layer_1
 62
7
100
AcDbPolyline
 90
51
 70
0
 10
55.641111
 20
32.641113
 30
0.0
 10
55.653111
 20
32.453125
 30
0.0
 10
55.688111
 20
32.268128
 30
0.0
 10
55.746111
 20
32.089115
 30
0.0
 10
55.827111
 20
31.918116
 30
0.0
 10
55.927111
 20
31.759112
 30
0.0
 10
56.048111
 20
31.614107
 30
0.0
 10
56.185111
 20
31.485103
 30
0.0
 10
56.337111
 20
31.375121
 30
0.0
 10
56.502111
 20
31.284104
 30
0.0
 10
56.677111
 20
31.214113
 30
0.0
 10
56.860111
 20
31.168111
 30
0.0
 10
57.047111
 20
31.144122
 30
0.0
 10
57.235111
 20
31.144122
 30
0.0
 10
57.422111
 20
31.168111
 30
0.0
 10
57.605111
 20
31.214113
 30
0.0
 10
57.780111
 20
31.284104
 30
0.0
 10
57.945111
 20
31.375121
 30
0.0
 10
58.097111
 20
31.485103
 30
0.0
 10
58.234111
 20
31.614107
 30
0.0
 10
58.355111
 20
31.759112
 30
0.0
 10
58.455111
 20
31.918116
 30
0.0
 10
58.536111
 20
32.089115
 30
0.0
 10
58.594111
 20
32.268128
 30
0.0
 10
58.629111
 20
32.453125
 30
0.0
 10
58.641111
 20
32.641113
 30
0.0
 10
58.629111
 20
32.829130
 30
0.0
 10
58.594111
 20
33.014126
 30
0.0
 10
58.536111
 20
33.193112
 30
0.0
 10
58.455111
 20
33.364110
 30
0.0
 10
58.355111
 20
33.523114
 30
0.0
 10
58.234111
 20
33.668120
 30
0.0
 10
58.097111
 20
33.797124
 30
0.0
 10
57.945111
 20
33.907106
 30
0.0
 10
57.780111
 20
33.998122
 30
0.0
 10
57.605111
 20
34.068113
 30
0.0
 10
57.422111
 20
34.114116
 30
0.0
 10
57.235111
 20
34.138105
 30
0.0
 10
57.047111
 20
34.138105
 30
0.0
 10
56.860111
 20
34.114116
 30
0.0
 10
56.677111
 20
34.068113
 30
0.0
 10
56.502111
 20
33.998122
 30
0.0
 10
56.337111
 20
33.907106
 30
0.0
 10
56.185111
 20
33.797124
 30
0.0
 10
56.048111
 20
33.668120
 30
0.0
 10
55.927111
 20
33.523114
 30
0.0
 10
55.827111
 20
33.364110
 30
0.0
 10
55.746111
 20
33.193112
 30
0.0
 10
55.688111
 20
33.014126
 30
0.0
 10
55.653111
 20
32.829130
 30
0.0
 10
55.641111
 20
32.641113
 30
0.0
  0
LWPOLYLINE
  5
10c
100
AcDbEntity
  8
Layer_1
 62
7
100
AcDbPolyline
 90
51
 70
0
 10
55.641111
 20
12.641125
 30
0.0
 10
55.653111
 20
12.453109
 30
0.0
 10
55.688111
 20
12.268112
 30
0.0
 10
55.746111
 20
12.089127
 30
0.0
 10
55.827111
 20
11.918128
 30
0.0
 10
55.927111
 20
11.759124
 30
0.0
 10
56.048111
 20
11.614118
 30
0.0
 10
56.185111
 20
11.485115
 30
0.0
 10
56.337111
 20
11.375104
 30
0.0
 10
56.502111
 20
11.284116
 30
0.0
 10
56.677111
 20
11.214125
 30
0.0
 10
56.860111
 20
11.168123
 30
0.0
 10
57.047111
 20
11.144134
 30
0.0
 10
57.235111
 20
11.144105
 30
0.0
 10
57.422111
 20
11.168094
 30
0.0
 10
57.605111
 20
11.214125
 30
0.0
 10
57.780111
 20
11.284116
 30
0.0
 10
57.945111
 20
11.375104
 30
0.0
 10
58.097111
 20
11.485115
 30
0.0
 10
58.234111
 20
11.614118
 30
0.0
 10
58.355111
 20
11.759124
 30
0.0
 10
58.455111
 20
11.918128
 30
0.0
 10
58.536111
 20
12.089127
 30
0.0
 10
58.594111
 20
12.268112
 30
0.0
 10
58.629111
 20
12.453109
 30
0.0
 10
58.641111
 20
12.641125
 30
0.0
 10
58.629111
 20
12.829113
 30
0.0
 10
58.594111
 20
13.014110
 30
0.0
 10
58.536111
 20
13.193123
 30
0.0
 10
58.455111
 20
13.364122
 30
0.0
 10
58.355111
 20
13.523126
 30
0.0
 10
58.234111
 20
13.668103
 30
0.0
 10
58.097111
 20
13.797107
 30
0.0
 10
57.945111
 20
13.907117
 30
0.0
 10
57.780111
 20
13.998106
 30
0.0
 10
57.605111
 20
14.068125
 30
0.0
 10
57.422111
 20
14.114127
 30
0.0
 10
57.235111
 20
14.138116
 30
0.0
 10
57.047111
 20
14.138116
 30
0.0
 10
56.860111
 20
14.114127
 30
0.0
 10
56.677111
 20
14.068125
 30
0.0
 10
56.502111
 20
13.998106
 30
0.0
 10
56.337111
 20
13.907117
 30
0.0
 10
56.185111
 20
13.797107
 30
0.0
 10
56.048111
 20
13.668103
 30
0.0
 10
55.927111
 20
13.523126
 30
0.0
 10
55.827111
 20
13.364122
 30
0.0
 10
55.746111
 20
13.193123
 30
0.0
 10
55.688111
 20
13.014110
 30
0.0
 10
55.653111
 20
12.829113
 30
0.0
 10
55.641111
 20
12.641125
 30
0.0
  0
LWPOLYLINE
  5
10d
100
AcDbEntity
  8
Layer_1
 62
7
100
AcDbPolyline
 90
5
 70
0
 10
64.641112
 20
45.141102
 30
0.0
 10
64.641112
 20
40.141112
 30
0.0
 10
69.641111
 20
40.141112
 30
0.0
 10
69.641111
 20
45.141102
 30
0.0
 10
64.641112
 20
45.141102
 30
0.0
  0
LWPOLYLINE
  5
10e
100
AcDbEntity
  8
Layer_1
 62
7
100
AcDbPolyline
 90
13
 70
0
 10
62.141111
 20
50.141121
 30
0.0
 10
62.141111
 20
0.141116
 30
0.0
 10
64.641112
 20
0.141116
 30
0.0
 10
64.641112
 20
5.141115
 30
0.0
 10
69.641111
 20
5.141115
 30
0.0
 10
69.641111
 20
0.141116
 30
0.0
 10
116.641112
 20
0.141116
 30
0.0
 10
116.641112
 20
5.141115
 30
0.0
 10
121.641111
 20
5.141115
 30
0.0
 10
121.641111
 20
0.141116
 30
0.0
 10
124.141111
 20
0.141116
 30
0.0
 10
124.141111
 20
50.141121
 30
0.0
 10
62.141111
 20
50.141121
 30
0.0
  0
LWPOLYLINE
  5
10f
100
AcDbEntity
  8
Layer_1
 62
7
100
AcDbPolyline
 90
5
 70
0
 10
64.641112
 20
25.141114
 30
0.0
 10
64.641112
 20
20.141124
 30
0.0
 10
69.641111
 20
20.141124
 30
0.0
 10
69.641111
 20
25.141114
 30
0.0
 10
64.641112
 20
25.141114
 30
0.0
  0
LWPOLYLINE
  5
110
100
AcDbEntity
  8
Layer_1
 62
7
100
AcDbPolyline
 90
51
 70
0
 10
65.641111
 20
32.641113
 30
0.0
 10
65.653111
 20
32.453125
 30
0.0
 10
65.688112
 20
32.268128
 30
0.0
 10
65.746111
 20
32.089115
 30
0.0
 10
65.827111
 20
31.918116
 30
0.0
 10
65.927111
 20
31.759112
 30
0.0
 10
66.048111
 20
31.614107
 30
0.0
 10
66.185111
 20
31.485103
 30
0.0
 10
66.337111
 20
31.375121
 30
0.0
 10
66.502112
 20
31.284104
 30
0.0
 10
66.677111
 20
31.214113
 30
0.0
 10
66.860111
 20
31.168111
 30
0.0
 10
67.047111
 20
31.144122
 30
0.0
 10
67.235111
 20
31.144122
 30
0.0
 10
67.422111
 20
31.168111
 30
0.0
 10
67.605111
 20
31.214113
 30
0.0
 10
67.780111
 20
31.284104
 30
0.0
 10
67.945111
 20
31.375121
 30
0.0
 10
68.097111
 20
31.485103
 30
0.0
 10
68.234111
 20
31.614107
 30
0.0
 10
68.355112
 20
31.759112
 30
0.0
 10
68.455111
 20
31.918116
 30
0.0
 10
68.536111
 20
32.089115
 30
0.0
 10
68.594111
 20
32.268128
 30
0.0
 10
68.629111
 20
32.453125
 30
0.0
 10
68.641112
 20
32.641113
 30
0.0
 10
68.629111
 20
32.829130
 30
0.0
 10
68.594111
 20
33.014126
 30
0.0
 10
68.536111
 20
33.193112
 30
0.0
 10
68.455111
 20
33.364110
 30
0.0
 10
68.355112
 20
33.523114
 30
0.0
 10
68.234111
 20
33.668120
 30
0.0
 10
68.097111
 20
33.797124
 30
0.0
 10
67.945111
 20
33.907106
 30
0.0
 10
67.780111
 20
33.998122
 30
0.0
 10
67.605111
 20
34.068113
 30
0.0
 10
67.422111
 20
34.114116
 30
0.0
 10
67.235111
 20
34.138105
 30
0.0
 10
67.047111
 20
34.138105
 30
0.0
 10
66.860111
 20
34.114116
 30
0.0
 10
66.677111
 20
34.068113
 30
0.0
 10
66.502112
 20
33.998122
 30
0.0
 10
66.337111
 20
33.907106
 30
0.0
 10
66.185111
 20
33.797124
 30
0.0
 10
66.048111
 20
33.668120
 30
0.0
 10
65.927111
 20
33.523114
 30
0.0
 10
65.827111
 20
33.364110
 30
0.0
 10
65.746111
 20
33.193112
 30
0.0
 10
65.688112
 20
33.014126
 30
0.0
 10
65.653111
 20
32.829130
 30
0.0
 10
65.641111
 20
32.641113
 30
0.0
  0
LWPOLYLINE
  5
111
100
AcDbEntity
  8
Layer_1
 62
7
100
AcDbPolyline
 90
51
 70
0
 10
65.641111
 20
12.641125
 30
0.0
 10
65.653111
 20
12.453109
 30
0.0
 10
65.688112
 20
12.268112
 30
0.0
 10
65.746111
 20
12.089127
 30
0.0
 10
65.827111
 20
11.918128
 30
0.0
 10
65.927111
 20
11.759124
 30
0.0
 10
66.048111
 20
11.614118
 30
0.0
 10
66.185111
 20
11.485115
 30
0.0
 10
66.337111
 20
11.375104
 30
0.0
 10
66.502112
 20
11.284116
 30
0.0
 10
66.677111
 20
11.214125
 30
0.0
 10
66.860111
 20
11.168123
 30
0.0
 10
67.047111
 20
11.144134
 30
0.0
 10
67.235111
 20
11.144105
 30
0.0
 10
67.422111
 20
11.168094
 30
0.0
 10
67.605111
 20
11.214125
 30
0.0
 10
67.780111
 20
11.284116
 30
0.0
 10
67.945111
 20
11.375104
 30
0.0
 10
68.097111
 20
11.485115
 30
0.0
 10
68.234111
 20
11.614118
 30
0.0
 10
68.355112
 20
11.759124
 30
0.0
 10
68.455111
 20
11.918128
 30
0.0
 10
68.536111
 20
12.089127
 30
0.0
 10
68.594111
 20
12.268112
 30
0.0
 10
68.629111
 20
12.453109
 30
0.0
 10
68.641112
 20
12.641125
 30
0.0
 10
68.629111
 20
12.829113
 30
0.0
 10
68.594111
 20
13.014110
 30
0.0
 10
68.536111
 20
13.193123
 30
0.0
 10
68.455111
 20
13.364122
 30
0.0
 10
68.355112
 20
13.523126
 30
0.0
 10
68.234111
 20
13.668103
 30
0.0
 10
68.097111
 20
13.797107
 30
0.0
 10
67.945111
 20
13.907117
 30
0.0
 10
67.780111
 20
13.998106
 30
0.0
 10
67.605111
 20
14.068125
 30
0.0
 10
67.422111
 20
14.114127
 30
0.0
 10
67.235111
 20
14.138116
 30
0.0
 10
67.047111
 20
14.138116
 30
0.0
 10
66.860111
 20
14.114127
 30
0.0
 10
66.677111
 20
14.068125
 30
0.0
 10
66.502112
 20
13.998106
 30
0.0
 10
66.337111
 20
13.907117
 30
0.0
 10
66.185111
 20
13.797107
 30
0.0
 10
66.048111
 20
13.668103
 30
0.0
 10
65.927111
 20
13.523126
 30
0.0
 10
65.827111
 20
13.364122
 30
0.0
 10
65.746111
 20
13.193123
 30
0.0
 10
65.688112
 20
13.014110
 30
0.0
 10
65.653111
 20
12.829113
 30
0.0
 10
65.641111
 20
12.641125
 30
0.0
  0
LWPOLYLINE
  5
112
100
AcDbEntity
  8
Layer_1
 62
7
100
AcDbPolyline
 90
51
 70
0
 10
74.141111
 20
2.641114
 30
0.0
 10
74.153111
 20
2.453114
 30
0.0
 10
74.188111
 20
2.268115
 30
0.0
 10
74.246111
 20
2.089115
 30
0.0
 10
74.327111
 20
1.918114
 30
0.0
 10
74.427111
 20
1.759116
 30
0.0
 10
74.548111
 20
1.614116
 30
0.0
 10
74.685111
 20
1.485115
 30
0.0
 10
74.837111
 20
1.375116
 30
0.0
 10
75.002111
 20
1.284116
 30
0.0
 10
75.177111
 20
1.214117
 30
0.0
 10
75.360111
 20
1.168114
 30
0.0
 10
75.547111
 20
1.144125
 30
0.0
 10
75.735111
 20
1.144117
 30
0.0
 10
75.922111
 20
1.168106
 30
0.0
 10
76.105111
 20
1.214117
 30
0.0
 10
76.280111
 20
1.284116
 30
0.0
 10
76.445111
 20
1.375116
 30
0.0
 10
76.597112
 20
1.485115
 30
0.0
 10
76.734111
 20
1.614116
 30
0.0
 10
76.855111
 20
1.759116
 30
0.0
 10
76.955111
 20
1.918114
 30
0.0
 10
77.036111
 20
2.089115
 30
0.0
 10
77.094111
 20
2.268115
 30
0.0
 10
77.129111
 20
2.453114
 30
0.0
 10
77.141111
 20
2.641114
 30
0.0
 10
77.129111
 20
2.829116
 30
0.0
 10
77.094111
 20
3.014116
 30
0.0
 10
77.036111
 20
3.193115
 30
0.0
 10
76.955111
 20
3.364116
 30
0.0
 10
76.855111
 20
3.523115
 30
0.0
 10
76.734111
 20
3.668115
 30
0.0
 10
76.597112
 20
3.797116
 30
0.0
 10
76.445111
 20
3.907115
 30
0.0
 10
76.280111
 20
3.998115
 30
0.0
 10
76.105111
 20
4.068114
 30
0.0
 10
75.922111
 20
4.114116
 30
0.0
 10
75.735111
 20
4.138105
 30
0.0
 10
75.547111
 20
4.138117
 30
0.0
 10
75.360111
 20
4.114128
 30
0.0
 10
75.177111
 20
4.068114
 30
0.0
 10
75.002111
 20
3.998115
 30
0.0
 10
74.837111
 20
3.907115
 30
0.0
 10
74.685111
 20
3.797116
 30
0.0
 10
74.548111
 20
3.668115
 30
0.0
 10
74.427111
 20
3.523115
 30
0.0
 10
74.327111
 20
3.364116
 30
0.0
 10
74.246111
 20
3.193115
 30
0.0
 10
74.188111
 20
3.014116
 30
0.0
 10
74.153111
 20
2.829116
 30
0.0
 10
74.141111
 20
2.641114
 30
0.0
  0
LWPOLYLINE
  5
113
100
AcDbEntity
  8
Layer_1
 62
7
100
AcDbPolyline
 90
51
 70
0
 10
90.641111
 20
40.141112
 30
0.0
 10
90.661111
 20
39.828128
 30
0.0
 10
90.720112
 20
39.519123
 30
0.0
 10
90.817111
 20
39.221124
 30
0.0
 10
90.950111
 20
38.937124
 30
0.0
 10
91.118111
 20
38.672117
 30
0.0
 10
91.319111
 20
38.430112
 30
0.0
 10
91.547112
 20
38.215115
 30
0.0
 10
91.801112
 20
38.030118
 30
0.0
 10
92.077111
 20
37.879129
 30
0.0
 10
92.368111
 20
37.763108
 30
0.0
 10
92.673111
 20
37.685102
 30
0.0
 10
92.984111
 20
37.646127
 30
0.0
 10
93.298111
 20
37.646127
 30
0.0
 10
93.609111
 20
37.685102
 30
0.0
 10
93.914111
 20
37.763108
 30
0.0
 10
94.205111
 20
37.879129
 30
0.0
 10
94.481111
 20
38.030118
 30
0.0
 10
94.735111
 20
38.215115
 30
0.0
 10
94.963112
 20
38.430112
 30
0.0
 10
95.164111
 20
38.672117
 30
0.0
 10
95.332111
 20
38.937124
 30
0.0
 10
95.465111
 20
39.221124
 30
0.0
 10
95.562111
 20
39.519123
 30
0.0
 10
95.621111
 20
39.828128
 30
0.0
 10
95.641111
 20
40.141112
 30
0.0
 10
95.621111
 20
40.454125
 30
0.0
 10
95.562111
 20
40.763102
 30
0.0
 10
95.465111
 20
41.061129
 30
0.0
 10
95.332111
 20
41.345129
 30
0.0
 10
95.164111
 20
41.610107
 30
0.0
 10
94.963112
 20
41.852113
 30
0.0
 10
94.735111
 20
42.067110
 30
0.0
 10
94.481111
 20
42.252106
 30
0.0
 10
94.205111
 20
42.403123
 30
0.0
 10
93.914111
 20
42.519117
 30
0.0
 10
93.609111
 20
42.597123
 30
0.0
 10
93.298111
 20
42.636126
 30
0.0
 10
92.984111
 20
42.636126
 30
0.0
 10
92.673111
 20
42.597123
 30
0.0
 10
92.368111
 20
42.519117
 30
0.0
 10
92.077111
 20
42.403123
 30
0.0
 10
91.801112
 20
42.252106
 30
0.0
 10
91.547112
 20
42.067110
 30
0.0
 10
91.319111
 20
41.852113
 30
0.0
 10
91.118111
 20
41.610107
 30
0.0
 10
90.950111
 20
41.345129
 30
0.0
 10
90.817111
 20
41.061129
 30
0.0
 10
90.720112
 20
40.763102
 30
0.0
 10
90.661111
 20
40.454125
 30
0.0
 10
90.641111
 20
40.141112
 30
0.0
  0
LWPOLYLINE
  5
114
100
AcDbEntity
  8
Layer_1
 62
7
100
AcDbPolyline
 90
51
 70
0
 10
90.641111
 20
10.141116
 30
0.0
 10
90.661111
 20
9.828114
 30
0.0
 10
90.720112
 20
9.519115
 30
0.0
 10
90.817111
 20
9.221117
 30
0.0
 10
90.950111
 20
8.937116
 30
0.0
 10
91.118111
 20
8.672115
 30
0.0
 10
91.319111
 20
8.430115
 30
0.0
 10
91.547112
 20
8.215116
 30
0.0
 10
91.801112
 20
8.030116
 30
0.0
 10
92.077111
 20
7.879116
 30
0.0
 10
92.368111
 20
7.763114
 30
0.0
 10
92.673111
 20
7.685116
 30
0.0
 10
92.984111
 20
7.646116
 30
0.0
 10
93.298111
 20
7.646116
 30
0.0
 10
93.609111
 20
7.685116
 30
0.0
 10
93.914111
 20
7.763114
 30
0.0
 10
94.205111
 20
7.879116
 30
0.0
 10
94.481111
 20
8.030116
 30
0.0
 10
94.735111
 20
8.215116
 30
0.0
 10
94.963112
 20
8.430115
 30
0.0
 10
95.164111
 20
8.672115
 30
0.0
 10
95.332111
 20
8.937116
 30
0.0
 10
95.465111
 20
9.221117
 30
0.0
 10
95.562111
 20
9.519115
 30
0.0
 10
95.621111
 20
9.828114
 30
0.0
 10
95.641111
 20
10.141116
 30
0.0
 10
95.621111
 20
10.454129
 30
0.0
 10
95.562111
 20
10.763105
 30
0.0
 10
95.465111
 20
11.061104
 30
0.0
 10
95.332111
 20
11.345104
 30
0.0
 10
95.164111
 20
11.610111
 30
0.0
 10
94.963112
 20
11.852116
 30
0.0
 10
94.735111
 20
12.067113
 30
0.0
 10
94.481111
 20
12.252110
 30
0.0
 10
94.205111
 20
12.403127
 30
0.0
 10
93.914111
 20
12.519120
 30
0.0
 10
93.609111
 20
12.597127
 30
0.0
 10
93.298111
 20
12.636101
 30
0.0
 10
92.984111
 20
12.636101
 30
0.0
 10
92.673111
 20
12.597127
 30
0.0
 10
92.368111
 20
12.519120
 30
0.0
 10
92.077111
 20
12.403127
 30
0.0
 10
91.801112
 20
12.252110
 30
0.0
 10
91.547112
 20
12.067113
 30
0.0
 10
91.319111
 20
11.852116
 30
0.0
 10
91.118111
 20
11.610111
 30
0.0
 10
90.950111
 20
11.345104
 30
0.0
 10
90.817111
 20
11.061104
 30
0.0
 10
90.720112
 20
10.763105
 30
0.0
 10
90.661111
 20
10.454129
 30
0.0
 10
90.641111
 20
10.141116
 30
0.0
  0
LWPOLYLINE
  5
115
100
AcDbEntity
  8
Layer_1
 62
7
100
AcDbPolyline
 90
51
 70
0
 10
109.141111
 20
2.641114
 30
0.0
 10
109.153111
 20
2.453114
 30
0.0
 10
109.188111
 20
2.268115
 30
0.0
 10
109.246111
 20
2.089115
 30
0.0
 10
109.327112
 20
1.918114
 30
0.0
 10
109.427111
 20
1.759116
 30
0.0
 10
109.548111
 20
1.614116
 30
0.0
 10
109.685111
 20
1.485115
 30
0.0
 10
109.837111
 20
1.375116
 30
0.0
 10
110.002111
 20
1.284116
 30
0.0
 10
110.177112
 20
1.214117
 30
0.0
 10
110.360111
 20
1.168114
 30
0.0
 10
110.547111
 20
1.144125
 30
0.0
 10
110.735111
 20
1.144117
 30
0.0
 10
110.922111
 20
1.168106
 30
0.0
 10
111.105112
 20
1.214117
 30
0.0
 10
111.280111
 20
1.284116
 30
0.0
 10
111.445111
 20
1.375116
 30
0.0
 10
111.597111
 20
1.485115
 30
0.0
 10
111.734111
 20
1.614116
 30
0.0
 10
111.855111
 20
1.759116
 30
0.0
 10
111.955112
 20
1.918114
 30
0.0
 10
112.036111
 20
2.089115
 30
0.0
 10
112.094111
 20
2.268115
 30
0.0
 10
112.129111
 20
2.453114
 30
0.0
 10
112.141111
 20
2.641114
 30
0.0
 10
112.129111
 20
2.829116
 30
0.0
 10
112.094111
 20
3.014116
 30
0.0
 10
112.036111
 20
3.193115
 30
0.0
 10
111.955112
 20
3.364116
 30
0.0
 10
111.855111
 20
3.523115
 30
0.0
 10
111.734111
 20
3.668115
 30
0.0
 10
111.597111
 20
3.797116
 30
0.0
 10
111.445111
 20
3.907115
 30
0.0
 10
111.280111
 20
3.998115
 30
0.0
 10
111.105112
 20
4.068114
 30
0.0
 10
110.922111
 20
4.114116
 30
0.0
 10
110.735111
 20
4.138105
 30
0.0
 10
110.547111
 20
4.138117
 30
0.0
 10
110.360111
 20
4.114128
 30
0.0
 10
110.177112
 20
4.068114
 30
0.0
 10
110.002111
 20
3.998115
 30
0.0
 10
109.837111
 20
3.907115
 30
0.0
 10
109.685111
 20
3.797116
 30
0.0
 10
109.548111
 20
3.668115
 30
0.0
 10
109.427111
 20
3.523115
 30
0.0
 10
109.327112
 20
3.364116
 30
0.0
 10
109.246111
 20
3.193115
 30
0.0
 10
109.188111
 20
3.014116
 30
0.0
 10
109.153111
 20
2.829116
 30
0.0
 10
109.141111
 20
2.641114
 30
0.0
  0
LWPOLYLINE
  5
116
100
AcDbEntity
  8
Layer_1
 62
7
100
AcDbPolyline
 90
5
 70
0
 10
116.641112
 20
45.141102
 30
0.0
 10
116.641112
 20
40.141112
 30
0.0
 10
121.641111
 20
40.141112
 30
0.0
 10
121.641111
 20
45.141102
 30
0.0
 10
116.641112
 20
45.141102
 30
0.0
  0
LWPOLYLINE
  5
117
100
AcDbEntity
  8
Layer_1
 62
7
100
AcDbPolyline
 90
5
 70
0
 10
116.641112
 20
25.141114
 30
0.0
 10
116.641112
 20
20.141124
 30
0.0
 10
121.641111
 20
20.141124
 30
0.0
 10
121.641111
 20
25.141114
 30
0.0
 10
116.641112
 20
25.141114
 30
0.0
  0
LWPOLYLINE
  5
118
100
AcDbEntity
  8
Layer_1
 62
7
100
AcDbPolyline
 90
51
 70
0
 10
117.641111
 20
32.641113
 30
0.0
 10
117.653112
 20
32.453125
 30
0.0
 10
117.688111
 20
32.268128
 30
0.0
 10
117.746111
 20
32.089115
 30
0.0
 10
117.827111
 20
31.918116
 30
0.0
 10
117.927111
 20
31.759112
 30
0.0
 10
118.048111
 20
31.614107
 30
0.0
 10
118.185111
 20
31.485103
 30
0.0
 10
118.337111
 20
31.375121
 30
0.0
 10
118.502111
 20
31.284104
 30
0.0
 10
118.677111
 20
31.214113
 30
0.0
 10
118.860111
 20
31.168111
 30
0.0
 10
119.047111
 20
31.144122
 30
0.0
 10
119.235111
 20
31.144122
 30
0.0
 10
119.422112
 20
31.168111
 30
0.0
 10
119.605111
 20
31.214113
 30
0.0
 10
119.780111
 20
31.284104
 30
0.0
 10
119.945111
 20
31.375121
 30
0.0
 10
120.097111
 20
31.485103
 30
0.0
 10
120.234111
 20
31.614107
 30
0.0
 10
120.355111
 20
31.759112
 30
0.0
 10
120.455111
 20
31.918116
 30
0.0
 10
120.536111
 20
32.089115
 30
0.0
 10
120.594111
 20
32.268128
 30
0.0
 10
120.629111
 20
32.453125
 30
0.0
 10
120.641111
 20
32.641113
 30
0.0
 10
120.629111
 20
32.829130
 30
0.0
 10
120.594111
 20
33.014126
 30
0.0
 10
120.536111
 20
33.193112
 30
0.0
 10
120.455111
 20
33.364110
 30
0.0
 10
120.355111
 20
33.523114
 30
0.0
 10
120.234111
 20
33.668120
 30
0.0
 10
120.097111
 20
33.797124
 30
0.0
 10
119.945111
 20
33.907106
 30
0.0
 10
119.780111
 20
33.998122
 30
0.0
 10
119.605111
 20
34.068113
 30
0.0
 10
119.422112
 20
34.114116
 30
0.0
 10
119.235111
 20
34.138105
 30
0.0
 10
119.047111
 20
34.138105
 30
0.0
 10
118.860111
 20
34.114116
 30
0.0
 10
118.677111
 20
34.068113
 30
0.0
 10
118.502111
 20
33.998122
 30
0.0
 10
118.337111
 20
33.907106
 30
0.0
 10
118.185111
 20
33.797124
 30
0.0
 10
118.048111
 20
33.668120
 30
0.0
 10
117.927111
 20
33.523114
 30
0.0
 10
117.827111
 20
33.364110
 30
0.0
 10
117.746111
 20
33.193112
 30
0.0
 10
117.688111
 20
33.014126
 30
0.0
 10
117.653111
 20
32.829130
 30
0.0
 10
117.641111
 20
32.641113
 30
0.0
  0
LWPOLYLINE
  5
119
100
AcDbEntity
  8
Layer_1
 62
7
100
AcDbPolyline
 90
51
 70
0
 10
117.641111
 20
12.641125
 30
0.0
 10
117.653112
 20
12.453109
 30
0.0
 10
117.688111
 20
12.268112
 30
0.0
 10
117.746111
 20
12.089127
 30
0.0
 10
117.827111
 20
11.918128
 30
0.0
 10
117.927111
 20
11.759124
 30
0.0
 10
118.048111
 20
11.614118
 30
0.0
 10
118.185111
 20
11.485115
 30
0.0
 10
118.337111
 20
11.375104
 30
0.0
 10
118.502111
 20
11.284116
 30
0.0
 10
118.677111
 20
11.214125
 30
0.0
 10
118.860111
 20
11.168123
 30
0.0
 10
119.047111
 20
11.144134
 30
0.0
 10
119.235111
 20
11.144105
 30
0.0
 10
119.422112
 20
11.168094
 30
0.0
 10
119.605111
 20
11.214125
 30
0.0
 10
119.780111
 20
11.284116
 30
0.0
 10
119.945111
 20
11.375104
 30
0.0
 10
120.097111
 20
11.485115
 30
0.0
 10
120.234111
 20
11.614118
 30
0.0
 10
120.355111
 20
11.759124
 30
0.0
 10
120.455111
 20
11.918128
 30
0.0
 10
120.536111
 20
12.089127
 30
0.0
 10
120.594111
 20
12.268112
 30
0.0
 10
120.629111
 20
12.453109
 30
0.0
 10
120.641111
 20
12.641125
 30
0.0
 10
120.629111
 20
12.829113
 30
0.0
 10
120.594111
 20
13.014110
 30
0.0
 10
120.536111
 20
13.193123
 30
0.0
 10
120.455111
 20
13.364122
 30
0.0
 10
120.355111
 20
13.523126
 30
0.0
 10
120.234111
 20
13.668103
 30
0.0
 10
120.097111
 20
13.797107
 30
0.0
 10
119.945111
 20
13.907117
 30
0.0
 10
119.780111
 20
13.998106
 30
0.0
 10
119.605111
 20
14.068125
 30
0.0
 10
119.422112
 20
14.114127
 30
0.0
 10
119.235111
 20
14.138116
 30
0.0
 10
119.047111
 20
14.138116
 30
0.0
 10
118.860111
 20
14.114127
 30
0.0
 10
118.677111
 20
14.068125
 30
0.0
 10
118.502111
 20
13.998106
 30
0.0
 10
118.337111
 20
13.907117
 30
0.0
 10
118.185111
 20
13.797107
 30
0.0
 10
118.048111
 20
13.668103
 30
0.0
 10
117.927111
 20
13.523126
 30
0.0
 10
117.827111
 20
13.364122
 30
0.0
 10
117.746111
 20
13.193123
 30
0.0
 10
117.688111
 20
13.014110
 30
0.0
 10
117.653111
 20
12.829113
 30
0.0
 10
117.641111
 20
12.641125
 30
0.0
  0
LWPOLYLINE
  5
11a
100
AcDbEntity
  8
Layer_1
 62
7
100
AcDbPolyline
 90
41
 70
0
 10
124.141111
 20
119.141143
 30
0.0
 10
124.141111
 20
50.141131
 30
0.0
 10
62.141111
 20
50.141131
 30
0.0
 10
62.141111
 20
119.141143
 30
0.0
 10
64.641112
 20
119.141143
 30
0.0
 10
64.641112
 20
124.641146
 30
0.0
 10
69.641111
 20
124.641146
 30
0.0
 10
69.641111
 20
119.141143
 30
0.0
 10
74.241111
 20
119.141143
 30
0.0
 10
74.241111
 20
116.966141
 30
0.0
 10
72.991111
 20
116.966141
 30
0.0
 10
72.991111
 20
115.316128
 30
0.0
 10
74.241111
 20
115.316128
 30
0.0
 10
74.241111
 20
113.141126
 30
0.0
 10
77.041111
 20
113.141126
 30
0.0
 10
77.041111
 20
115.316128
 30
0.0
 10
78.291111
 20
115.316128
 30
0.0
 10
78.291111
 20
116.966141
 30
0.0
 10
77.041111
 20
116.966141
 30
0.0
 10
77.041111
 20
119.141143
 30
0.0
 10
83.141111
 20
119.141143
 30
0.0
 10
83.141111
 20
99.641139
 30
0.0
 10
103.141111
 20
99.641139
 30
0.0
 10
103.141111
 20
119.141143
 30
0.0
 10
109.241111
 20
119.141143
 30
0.0
 10
109.241111
 20
116.966141
 30
0.0
 10
107.991111
 20
116.966141
 30
0.0
 10
107.991111
 20
115.316128
 30
0.0
 10
109.241111
 20
115.316128
 30
0.0
 10
109.241111
 20
113.141126
 30
0.0
 10
112.041111
 20
113.141126
 30
0.0
 10
112.041111
 20
115.316128
 30
0.0
 10
113.291111
 20
115.316128
 30
0.0
 10
113.291111
 20
116.966141
 30
0.0
 10
112.041111
 20
116.966141
 30
0.0
 10
112.041111
 20
119.141143
 30
0.0
 10
116.641112
 20
119.141143
 30
0.0
 10
116.641112
 20
124.641146
 30
0.0
 10
121.641111
 20
124.641146
 30
0.0
 10
121.641111
 20
119.141143
 30
0.0
 10
124.141111
 20
119.141143
 30
0.0
  0
LWPOLYLINE
  5
11b
100
AcDbEntity
  8
Layer_1
 62
7
100
AcDbPolyline
 90
5
 70
0
 10
121.641111
 20
114.641137
 30
0.0
 10
121.641111
 20
109.641119
 30
0.0
 10
116.641112
 20
109.641119
 30
0.0
 10
116.641112
 20
114.641137
 30
0.0
 10
121.641111
 20
114.641137
 30
0.0
  0
LWPOLYLINE
  5
11c
100
AcDbEntity
  8
Layer_1
 62
7
100
AcDbPolyline
 90
5
 70
0
 10
121.641111
 20
94.641121
 30
0.0
 10
121.641111
 20
89.641131
 30
0.0
 10
116.641112
 20
89.641131
 30
0.0
 10
116.641112
 20
94.641121
 30
0.0
 10
121.641111
 20
94.641121
 30
0.0
  0
LWPOLYLINE
  5
11d
100
AcDbEntity
  8
Layer_1
 62
7
100
AcDbPolyline
 90
5
 70
0
 10
121.641111
 20
84.641141
 30
0.0
 10
121.641111
 20
79.641123
 30
0.0
 10
116.641112
 20
79.641123
 30
0.0
 10
116.641112
 20
84.641141
 30
0.0
 10
121.641111
 20
84.641141
 30
0.0
  0
LWPOLYLINE
  5
11e
100
AcDbEntity
  8
Layer_1
 62
7
100
AcDbPolyline
 90
5
 70
0
 10
121.641111
 20
64.641133
 30
0.0
 10
121.641111
 20
59.641132
 30
0.0
 10
116.641112
 20
59.641132
 30
0.0
 10
116.641112
 20
64.641133
 30
0.0
 10
121.641111
 20
64.641133
 30
0.0
  0
LWPOLYLINE
  5
11f
100
AcDbEntity
  8
Layer_1
 62
7
100
AcDbPolyline
 90
51
 70
0
 10
120.641111
 20
102.141120
 30
0.0
 10
120.629111
 20
101.953132
 30
0.0
 10
120.594111
 20
101.768135
 30
0.0
 10
120.536111
 20
101.589122
 30
0.0
 10
120.455111
 20
101.418123
 30
0.0
 10
120.355111
 20
101.259119
 30
0.0
 10
120.234111
 20
101.114142
 30
0.0
 10
120.097111
 20
100.985138
 30
0.0
 10
119.945111
 20
100.875128
 30
0.0
 10
119.780111
 20
100.784139
 30
0.0
 10
119.605111
 20
100.714120
 30
0.0
 10
119.422112
 20
100.668146
 30
0.0
 10
119.235111
 20
100.644157
 30
0.0
 10
119.047111
 20
100.644129
 30
0.0
 10
118.860111
 20
100.668118
 30
0.0
 10
118.677111
 20
100.714120
 30
0.0
 10
118.502111
 20
100.784139
 30
0.0
 10
118.337111
 20
100.875128
 30
0.0
 10
118.185111
 20
100.985138
 30
0.0
 10
118.048111
 20
101.114142
 30
0.0
 10
117.927111
 20
101.259119
 30
0.0
 10
117.827111
 20
101.418123
 30
0.0
 10
117.746111
 20
101.589122
 30
0.0
 10
117.688111
 20
101.768135
 30
0.0
 10
117.653111
 20
101.953132
 30
0.0
 10
117.641111
 20
102.141120
 30
0.0
 10
117.653112
 20
102.329137
 30
0.0
 10
117.688111
 20
102.514133
 30
0.0
 10
117.746111
 20
102.693119
 30
0.0
 10
117.827111
 20
102.864145
 30
0.0
 10
117.927111
 20
103.023121
 30
0.0
 10
118.048111
 20
103.168127
 30
0.0
 10
118.185111
 20
103.297131
 30
0.0
 10
118.337111
 20
103.407141
 30
0.0
 10
118.502111
 20
103.498129
 30
0.0
 10
118.677111
 20
103.568120
 30
0.0
 10
118.860111
 20
103.614123
 30
0.0
 10
119.047111
 20
103.638111
 30
0.0
 10
119.235111
 20
103.638140
 30
0.0
 10
119.422112
 20
103.614151
 30
0.0
 10
119.605111
 20
103.568120
 30
0.0
 10
119.780111
 20
103.498129
 30
0.0
 10
119.945111
 20
103.407141
 30
0.0
 10
120.097111
 20
103.297131
 30
0.0
 10
120.234111
 20
103.168127
 30
0.0
 10
120.355111
 20
103.023121
 30
0.0
 10
120.455111
 20
102.864145
 30
0.0
 10
120.536111
 20
102.693119
 30
0.0
 10
120.594111
 20
102.514133
 30
0.0
 10
120.629111
 20
102.329137
 30
0.0
 10
120.641111
 20
102.141120
 30
0.0
  0
LWPOLYLINE
  5
120
100
AcDbEntity
  8
Layer_1
 62
7
100
AcDbPolyline
 90
51
 70
0
 10
120.641111
 20
72.141132
 30
0.0
 10
120.629111
 20
71.953133
 30
0.0
 10
120.594111
 20
71.768133
 30
0.0
 10
120.536111
 20
71.589131
 30
0.0
 10
120.455111
 20
71.418132
 30
0.0
 10
120.355111
 20
71.259131
 30
0.0
 10
120.234111
 20
71.114131
 30
0.0
 10
120.097111
 20
70.985133
 30
0.0
 10
119.945111
 20
70.875131
 30
0.0
 10
119.780111
 20
70.784131
 30
0.0
 10
119.605111
 20
70.714132
 30
0.0
 10
119.422112
 20
70.668133
 30
0.0
 10
119.235111
 20
70.644144
 30
0.0
 10
119.047111
 20
70.644132
 30
0.0
 10
118.860111
 20
70.668121
 30
0.0
 10
118.677111
 20
70.714132
 30
0.0
 10
118.502111
 20
70.784131
 30
0.0
 10
118.337111
 20
70.875131
 30
0.0
 10
118.185111
 20
70.985133
 30
0.0
 10
118.048111
 20
71.114131
 30
0.0
 10
117.927111
 20
71.259131
 30
0.0
 10
117.827111
 20
71.418132
 30
0.0
 10
117.746111
 20
71.589131
 30
0.0
 10
117.688111
 20
71.768133
 30
0.0
 10
117.653111
 20
71.953133
 30
0.0
 10
117.641111
 20
72.141132
 30
0.0
 10
117.653112
 20
72.329132
 30
0.0
 10
117.688111
 20
72.514131
 30
0.0
 10
117.746111
 20
72.693133
 30
0.0
 10
117.827111
 20
72.864132
 30
0.0
 10
117.927111
 20
73.023133
 30
0.0
 10
118.048111
 20
73.168133
 30
0.0
 10
118.185111
 20
73.297131
 30
0.0
 10
118.337111
 20
73.407133
 30
0.0
 10
118.502111
 20
73.498133
 30
0.0
 10
118.677111
 20
73.568132
 30
0.0
 10
118.860111
 20
73.614132
 30
0.0
 10
119.047111
 20
73.638121
 30
0.0
 10
119.235111
 20
73.638132
 30
0.0
 10
119.422112
 20
73.614143
 30
0.0
 10
119.605111
 20
73.568132
 30
0.0
 10
119.780111
 20
73.498133
 30
0.0
 10
119.945111
 20
73.407133
 30
0.0
 10
120.097111
 20
73.297131
 30
0.0
 10
120.234111
 20
73.168133
 30
0.0
 10
120.355111
 20
73.023133
 30
0.0
 10
120.455111
 20
72.864132
 30
0.0
 10
120.536111
 20
72.693133
 30
0.0
 10
120.594111
 20
72.514131
 30
0.0
 10
120.629111
 20
72.329132
 30
0.0
 10
120.641111
 20
72.141132
 30
0.0
  0
LWPOLYLINE
  5
121
100
AcDbEntity
  8
Layer_1
 62
7
100
AcDbPolyline
 90
53
 70
0
 10
110.141111
 20
95.641119
 30
0.0
 10
110.141111
 20
92.641125
 30
0.0
 10
110.129111
 20
92.453137
 30
0.0
 10
110.094111
 20
92.268140
 30
0.0
 10
110.036111
 20
92.089127
 30
0.0
 10
109.955111
 20
91.918128
 30
0.0
 10
109.855111
 20
91.759124
 30
0.0
 10
109.734111
 20
91.614147
 30
0.0
 10
109.597111
 20
91.485143
 30
0.0
 10
109.445111
 20
91.375133
 30
0.0
 10
109.280111
 20
91.284144
 30
0.0
 10
109.105111
 20
91.214125
 30
0.0
 10
108.922111
 20
91.168123
 30
0.0
 10
108.735111
 20
91.144134
 30
0.0
 10
108.547111
 20
91.144134
 30
0.0
 10
108.360112
 20
91.168123
 30
0.0
 10
108.177111
 20
91.214125
 30
0.0
 10
108.002111
 20
91.284144
 30
0.0
 10
107.837111
 20
91.375133
 30
0.0
 10
107.685111
 20
91.485143
 30
0.0
 10
107.548111
 20
91.614147
 30
0.0
 10
107.427111
 20
91.759124
 30
0.0
 10
107.327111
 20
91.918128
 30
0.0
 10
107.246111
 20
92.089127
 30
0.0
 10
107.188111
 20
92.268140
 30
0.0
 10
107.153111
 20
92.453137
 30
0.0
 10
107.141111
 20
92.641125
 30
0.0
 10
107.141111
 20
95.641119
 30
0.0
 10
107.153111
 20
95.829135
 30
0.0
 10
107.188111
 20
96.014132
 30
0.0
 10
107.246111
 20
96.193146
 30
0.0
 10
107.327111
 20
96.364144
 30
0.0
 10
107.427111
 20
96.523120
 30
0.0
 10
107.548111
 20
96.668126
 30
0.0
 10
107.685111
 20
96.797129
 30
0.0
 10
107.837111
 20
96.907140
 30
0.0
 10
108.002111
 20
96.998128
 30
0.0
 10
108.177111
 20
97.068119
 30
0.0
 10
108.360112
 20
97.114121
 30
0.0
 10
108.547111
 20
97.138110
 30
0.0
 10
108.735111
 20
97.138139
 30
0.0
 10
108.922111
 20
97.114150
 30
0.0
 10
109.105111
 20
97.068119
 30
0.0
 10
109.280111
 20
96.998128
 30
0.0
 10
109.445111
 20
96.907140
 30
0.0
 10
109.597111
 20
96.797129
 30
0.0
 10
109.734111
 20
96.668126
 30
0.0
 10
109.855111
 20
96.523120
 30
0.0
 10
109.955111
 20
96.364144
 30
0.0
 10
110.036111
 20
96.193146
 30
0.0
 10
110.094111
 20
96.014132
 30
0.0
 10
110.129111
 20
95.829135
 30
0.0
 10
110.141112
 20
95.641119
 30
0.0
  0
LWPOLYLINE
  5
122
100
AcDbEntity
  8
Layer_1
 62
7
100
AcDbPolyline
 90
53
 70
0
 10
110.141111
 20
64.641133
 30
0.0
 10
110.141111
 20
61.641133
 30
0.0
 10
110.129111
 20
61.453134
 30
0.0
 10
110.094111
 20
61.268132
 30
0.0
 10
110.036111
 20
61.089132
 30
0.0
 10
109.955111
 20
60.918134
 30
0.0
 10
109.855111
 20
60.759132
 30
0.0
 10
109.734111
 20
60.614132
 30
0.0
 10
109.597111
 20
60.485131
 30
0.0
 10
109.445111
 20
60.375132
 30
0.0
 10
109.280111
 20
60.284133
 30
0.0
 10
109.105111
 20
60.214133
 30
0.0
 10
108.922111
 20
60.168131
 30
0.0
 10
108.735111
 20
60.144142
 30
0.0
 10
108.547111
 20
60.144134
 30
0.0
 10
108.360112
 20
60.168122
 30
0.0
 10
108.177111
 20
60.214133
 30
0.0
 10
108.002111
 20
60.284133
 30
0.0
 10
107.837111
 20
60.375132
 30
0.0
 10
107.685111
 20
60.485131
 30
0.0
 10
107.548111
 20
60.614132
 30
0.0
 10
107.427111
 20
60.759132
 30
0.0
 10
107.327111
 20
60.918134
 30
0.0
 10
107.246111
 20
61.089132
 30
0.0
 10
107.188111
 20
61.268132
 30
0.0
 10
107.153111
 20
61.453134
 30
0.0
 10
107.141111
 20
61.641133
 30
0.0
 10
107.141111
 20
64.641133
 30
0.0
 10
107.153111
 20
64.829133
 30
0.0
 10
107.188111
 20
65.014132
 30
0.0
 10
107.246111
 20
65.193131
 30
0.0
 10
107.327111
 20
65.364133
 30
0.0
 10
107.427111
 20
65.523131
 30
0.0
 10
107.548111
 20
65.668131
 30
0.0
 10
107.685111
 20
65.797132
 30
0.0
 10
107.837111
 20
65.907131
 30
0.0
 10
108.002111
 20
65.998134
 30
0.0
 10
108.177111
 20
66.068133
 30
0.0
 10
108.360112
 20
66.114133
 30
0.0
 10
108.547111
 20
66.138122
 30
0.0
 10
108.735111
 20
66.138133
 30
0.0
 10
108.922111
 20
66.114144
 30
0.0
 10
109.105111
 20
66.068133
 30
0.0
 10
109.280111
 20
65.998134
 30
0.0
 10
109.445111
 20
65.907131
 30
0.0
 10
109.597111
 20
65.797132
 30
0.0
 10
109.734111
 20
65.668131
 30
0.0
 10
109.855111
 20
65.523131
 30
0.0
 10
109.955111
 20
65.364133
 30
0.0
 10
110.036111
 20
65.193131
 30
0.0
 10
110.094111
 20
65.014132
 30
0.0
 10
110.129111
 20
64.829133
 30
0.0
 10
110.141112
 20
64.641133
 30
0.0
  0
LWPOLYLINE
  5
123
100
AcDbEntity
  8
Layer_1
 62
7
100
AcDbPolyline
 90
51
 70
0
 10
107.141111
 20
78.641125
 30
0.0
 10
107.031111
 20
76.886126
 30
0.0
 10
106.701111
 20
75.159123
 30
0.0
 10
106.158111
 20
73.487132
 30
0.0
 10
105.409111
 20
71.896132
 30
0.0
 10
104.467111
 20
70.412132
 30
0.0
 10
103.347111
 20
69.057132
 30
0.0
 10
102.065111
 20
67.854131
 30
0.0
 10
100.643111
 20
66.820131
 30
0.0
 10
99.102112
 20
65.973132
 30
0.0
 10
97.467111
 20
65.326132
 30
0.0
 10
95.764111
 20
64.889133
 30
0.0
 10
94.020111
 20
64.669132
 30
0.0
 10
92.262111
 20
64.669132
 30
0.0
 10
90.518112
 20
64.889133
 30
0.0
 10
88.815112
 20
65.326132
 30
0.0
 10
87.180111
 20
65.973132
 30
0.0
 10
85.639111
 20
66.820131
 30
0.0
 10
84.217112
 20
67.854131
 30
0.0
 10
82.935111
 20
69.057132
 30
0.0
 10
81.815111
 20
70.412132
 30
0.0
 10
80.873111
 20
71.896132
 30
0.0
 10
80.124111
 20
73.487132
 30
0.0
 10
79.581111
 20
75.159123
 30
0.0
 10
79.251111
 20
76.886126
 30
0.0
 10
79.141111
 20
78.641125
 30
0.0
 10
79.251111
 20
80.396124
 30
0.0
 10
79.581111
 20
82.123126
 30
0.0
 10
80.124111
 20
83.795123
 30
0.0
 10
80.873111
 20
85.386123
 30
0.0
 10
81.815111
 20
86.870132
 30
0.0
 10
82.935111
 20
88.225137
 30
0.0
 10
84.217112
 20
89.428138
 30
0.0
 10
85.639111
 20
90.462144
 30
0.0
 10
87.180111
 20
91.309121
 30
0.0
 10
88.815112
 20
91.956143
 30
0.0
 10
90.518112
 20
92.393136
 30
0.0
 10
92.262111
 20
92.613129
 30
0.0
 10
94.020111
 20
92.613129
 30
0.0
 10
95.764111
 20
92.393136
 30
0.0
 10
97.467111
 20
91.956143
 30
0.0
 10
99.102112
 20
91.309121
 30
0.0
 10
100.643111
 20
90.462144
 30
0.0
 10
102.065111
 20
89.428138
 30
0.0
 10
103.347111
 20
88.225137
 30
0.0
 10
104.467111
 20
86.870132
 30
0.0
 10
105.409111
 20
85.386123
 30
0.0
 10
106.158111
 20
83.795123
 30
0.0
 10
106.701111
 20
82.123126
 30
0.0
 10
107.031111
 20
80.396124
 30
0.0
 10
107.141111
 20
78.641125
 30
0.0
  0
LWPOLYLINE
  5
124
100
AcDbEntity
  8
Layer_1
 62
7
100
AcDbPolyline
 90
53
 70
0
 10
79.141111
 20
95.641119
 30
0.0
 10
79.141111
 20
92.641125
 30
0.0
 10
79.129111
 20
92.453137
 30
0.0
 10
79.094111
 20
92.268140
 30
0.0
 10
79.036112
 20
92.089127
 30
0.0
 10
78.955111
 20
91.918128
 30
0.0
 10
78.855111
 20
91.759124
 30
0.0
 10
78.734111
 20
91.614147
 30
0.0
 10
78.597111
 20
91.485143
 30
0.0
 10
78.445111
 20
91.375133
 30
0.0
 10
78.280111
 20
91.284144
 30
0.0
 10
78.105111
 20
91.214125
 30
0.0
 10
77.922111
 20
91.168123
 30
0.0
 10
77.735111
 20
91.144134
 30
0.0
 10
77.547111
 20
91.144134
 30
0.0
 10
77.360111
 20
91.168123
 30
0.0
 10
77.177111
 20
91.214125
 30
0.0
 10
77.002111
 20
91.284144
 30
0.0
 10
76.837111
 20
91.375133
 30
0.0
 10
76.685111
 20
91.485143
 30
0.0
 10
76.548112
 20
91.614147
 30
0.0
 10
76.427111
 20
91.759124
 30
0.0
 10
76.327111
 20
91.918128
 30
0.0
 10
76.246111
 20
92.089127
 30
0.0
 10
76.188111
 20
92.268140
 30
0.0
 10
76.153111
 20
92.453137
 30
0.0
 10
76.141111
 20
92.641125
 30
0.0
 10
76.141112
 20
95.641119
 30
0.0
 10
76.153112
 20
95.829135
 30
0.0
 10
76.188111
 20
96.014132
 30
0.0
 10
76.246111
 20
96.193146
 30
0.0
 10
76.327111
 20
96.364144
 30
0.0
 10
76.427111
 20
96.523120
 30
0.0
 10
76.548112
 20
96.668126
 30
0.0
 10
76.685111
 20
96.797129
 30
0.0
 10
76.837111
 20
96.907140
 30
0.0
 10
77.002111
 20
96.998128
 30
0.0
 10
77.177111
 20
97.068119
 30
0.0
 10
77.360111
 20
97.114121
 30
0.0
 10
77.547111
 20
97.138110
 30
0.0
 10
77.735111
 20
97.138139
 30
0.0
 10
77.922111
 20
97.114150
 30
0.0
 10
78.105111
 20
97.068119
 30
0.0
 10
78.280111
 20
96.998128
 30
0.0
 10
78.445111
 20
96.907140
 30
0.0
 10
78.597111
 20
96.797129
 30
0.0
 10
78.734111
 20
96.668126
 30
0.0
 10
78.855111
 20
96.523120
 30
0.0
 10
78.955111
 20
96.364144
 30
0.0
 10
79.036112
 20
96.193146
 30
0.0
 10
79.094111
 20
96.014132
 30
0.0
 10
79.129111
 20
95.829135
 30
0.0
 10
79.141111
 20
95.641119
 30
0.0
  0
LWPOLYLINE
  5
125
100
AcDbEntity
  8
Layer_1
 62
7
100
AcDbPolyline
 90
53
 70
0
 10
79.141111
 20
64.641133
 30
0.0
 10
79.141111
 20
61.641133
 30
0.0
 10
79.129111
 20
61.453134
 30
0.0
 10
79.094111
 20
61.268132
 30
0.0
 10
79.036112
 20
61.089132
 30
0.0
 10
78.955111
 20
60.918134
 30
0.0
 10
78.855111
 20
60.759132
 30
0.0
 10
78.734111
 20
60.614132
 30
0.0
 10
78.597111
 20
60.485131
 30
0.0
 10
78.445111
 20
60.375132
 30
0.0
 10
78.280111
 20
60.284133
 30
0.0
 10
78.105111
 20
60.214133
 30
0.0
 10
77.922111
 20
60.168131
 30
0.0
 10
77.735111
 20
60.144142
 30
0.0
 10
77.547111
 20
60.144134
 30
0.0
 10
77.360111
 20
60.168122
 30
0.0
 10
77.177111
 20
60.214133
 30
0.0
 10
77.002111
 20
60.284133
 30
0.0
 10
76.837111
 20
60.375132
 30
0.0
 10
76.685111
 20
60.485131
 30
0.0
 10
76.548112
 20
60.614132
 30
0.0
 10
76.427111
 20
60.759132
 30
0.0
 10
76.327111
 20
60.918134
 30
0.0
 10
76.246111
 20
61.089132
 30
0.0
 10
76.188111
 20
61.268132
 30
0.0
 10
76.153111
 20
61.453134
 30
0.0
 10
76.141111
 20
61.641133
 30
0.0
 10
76.141112
 20
64.641133
 30
0.0
 10
76.153112
 20
64.829133
 30
0.0
 10
76.188111
 20
65.014132
 30
0.0
 10
76.246111
 20
65.193131
 30
0.0
 10
76.327111
 20
65.364133
 30
0.0
 10
76.427111
 20
65.523131
 30
0.0
 10
76.548112
 20
65.668131
 30
0.0
 10
76.685111
 20
65.797132
 30
0.0
 10
76.837111
 20
65.907131
 30
0.0
 10
77.002111
 20
65.998134
 30
0.0
 10
77.177111
 20
66.068133
 30
0.0
 10
77.360111
 20
66.114133
 30
0.0
 10
77.547111
 20
66.138122
 30
0.0
 10
77.735111
 20
66.138133
 30
0.0
 10
77.922111
 20
66.114144
 30
0.0
 10
78.105111
 20
66.068133
 30
0.0
 10
78.280111
 20
65.998134
 30
0.0
 10
78.445111
 20
65.907131
 30
0.0
 10
78.597111
 20
65.797132
 30
0.0
 10
78.734111
 20
65.668131
 30
0.0
 10
78.855111
 20
65.523131
 30
0.0
 10
78.955111
 20
65.364133
 30
0.0
 10
79.036112
 20
65.193131
 30
0.0
 10
79.094111
 20
65.014132
 30
0.0
 10
79.129111
 20
64.829133
 30
0.0
 10
79.141111
 20
64.641133
 30
0.0
  0
LWPOLYLINE
  5
126
100
AcDbEntity
  8
Layer_1
 62
7
100
AcDbPolyline
 90
5
 70
0
 10
69.641111
 20
114.641137
 30
0.0
 10
69.641111
 20
109.641119
 30
0.0
 10
64.641112
 20
109.641119
 30
0.0
 10
64.641112
 20
114.641137
 30
0.0
 10
69.641111
 20
114.641137
 30
0.0
  0
LWPOLYLINE
  5
127
100
AcDbEntity
  8
Layer_1
 62
7
100
AcDbPolyline
 90
5
 70
0
 10
69.641111
 20
94.641121
 30
0.0
 10
69.641111
 20
89.641131
 30
0.0
 10
64.641112
 20
89.641131
 30
0.0
 10
64.641112
 20
94.641121
 30
0.0
 10
69.641111
 20
94.641121
 30
0.0
  0
LWPOLYLINE
  5
128
100
AcDbEntity
  8
Layer_1
 62
7
100
AcDbPolyline
 90
5
 70
0
 10
69.641111
 20
84.641141
 30
0.0
 10
69.641111
 20
79.641123
 30
0.0
 10
64.641112
 20
79.641123
 30
0.0
 10
64.641112
 20
84.641141
 30
0.0
 10
69.641111
 20
84.641141
 30
0.0
  0
LWPOLYLINE
  5
129
100
AcDbEntity
  8
Layer_1
 62
7
100
AcDbPolyline
 90
5
 70
0
 10
69.641111
 20
64.641133
 30
0.0
 10
69.641111
 20
59.641132
 30
0.0
 10
64.641112
 20
59.641132
 30
0.0
 10
64.641112
 20
64.641133
 30
0.0
 10
69.641111
 20
64.641133
 30
0.0
  0
LWPOLYLINE
  5
12a
100
AcDbEntity
  8
Layer_1
 62
7
100
AcDbPolyline
 90
51
 70
0
 10
68.641111
 20
102.141120
 30
0.0
 10
68.629111
 20
101.953132
 30
0.0
 10
68.594111
 20
101.768135
 30
0.0
 10
68.536111
 20
101.589122
 30
0.0
 10
68.455111
 20
101.418123
 30
0.0
 10
68.355112
 20
101.259119
 30
0.0
 10
68.234111
 20
101.114142
 30
0.0
 10
68.097111
 20
100.985138
 30
0.0
 10
67.945111
 20
100.875128
 30
0.0
 10
67.780111
 20
100.784139
 30
0.0
 10
67.605111
 20
100.714120
 30
0.0
 10
67.422111
 20
100.668146
 30
0.0
 10
67.235111
 20
100.644157
 30
0.0
 10
67.047111
 20
100.644129
 30
0.0
 10
66.860111
 20
100.668118
 30
0.0
 10
66.677111
 20
100.714120
 30
0.0
 10
66.502112
 20
100.784139
 30
0.0
 10
66.337111
 20
100.875128
 30
0.0
 10
66.185111
 20
100.985138
 30
0.0
 10
66.048111
 20
101.114142
 30
0.0
 10
65.927111
 20
101.259119
 30
0.0
 10
65.827111
 20
101.418123
 30
0.0
 10
65.746111
 20
101.589122
 30
0.0
 10
65.688112
 20
101.768135
 30
0.0
 10
65.653111
 20
101.953132
 30
0.0
 10
65.641111
 20
102.141120
 30
0.0
 10
65.653111
 20
102.329137
 30
0.0
 10
65.688112
 20
102.514133
 30
0.0
 10
65.746111
 20
102.693119
 30
0.0
 10
65.827111
 20
102.864145
 30
0.0
 10
65.927111
 20
103.023121
 30
0.0
 10
66.048111
 20
103.168127
 30
0.0
 10
66.185111
 20
103.297131
 30
0.0
 10
66.337111
 20
103.407141
 30
0.0
 10
66.502112
 20
103.498129
 30
0.0
 10
66.677111
 20
103.568120
 30
0.0
 10
66.860111
 20
103.614123
 30
0.0
 10
67.047111
 20
103.638111
 30
0.0
 10
67.235111
 20
103.638140
 30
0.0
 10
67.422111
 20
103.614151
 30
0.0
 10
67.605111
 20
103.568120
 30
0.0
 10
67.780111
 20
103.498129
 30
0.0
 10
67.945111
 20
103.407141
 30
0.0
 10
68.097111
 20
103.297131
 30
0.0
 10
68.234111
 20
103.168127
 30
0.0
 10
68.355112
 20
103.023121
 30
0.0
 10
68.455111
 20
102.864145
 30
0.0
 10
68.536111
 20
102.693119
 30
0.0
 10
68.594111
 20
102.514133
 30
0.0
 10
68.629111
 20
102.329137
 30
0.0
 10
68.641112
 20
102.141120
 30
0.0
  0
LWPOLYLINE
  5
12b
100
AcDbEntity
  8
Layer_1
 62
7
100
AcDbPolyline
 90
51
 70
0
 10
68.641111
 20
72.141132
 30
0.0
 10
68.629111
 20
71.953133
 30
0.0
 10
68.594111
 20
71.768133
 30
0.0
 10
68.536111
 20
71.589131
 30
0.0
 10
68.455111
 20
71.418132
 30
0.0
 10
68.355112
 20
71.259131
 30
0.0
 10
68.234111
 20
71.114131
 30
0.0
 10
68.097111
 20
70.985133
 30
0.0
 10
67.945111
 20
70.875131
 30
0.0
 10
67.780111
 20
70.784131
 30
0.0
 10
67.605111
 20
70.714132
 30
0.0
 10
67.422111
 20
70.668133
 30
0.0
 10
67.235111
 20
70.644144
 30
0.0
 10
67.047111
 20
70.644132
 30
0.0
 10
66.860111
 20
70.668121
 30
0.0
 10
66.677111
 20
70.714132
 30
0.0
 10
66.502112
 20
70.784131
 30
0.0
 10
66.337111
 20
70.875131
 30
0.0
 10
66.185111
 20
70.985133
 30
0.0
 10
66.048111
 20
71.114131
 30
0.0
 10
65.927111
 20
71.259131
 30
0.0
 10
65.827111
 20
71.418132
 30
0.0
 10
65.746111
 20
71.589131
 30
0.0
 10
65.688112
 20
71.768133
 30
0.0
 10
65.653111
 20
71.953133
 30
0.0
 10
65.641111
 20
72.141132
 30
0.0
 10
65.653111
 20
72.329132
 30
0.0
 10
65.688112
 20
72.514131
 30
0.0
 10
65.746111
 20
72.693133
 30
0.0
 10
65.827111
 20
72.864132
 30
0.0
 10
65.927111
 20
73.023133
 30
0.0
 10
66.048111
 20
73.168133
 30
0.0
 10
66.185111
 20
73.297131
 30
0.0
 10
66.337111
 20
73.407133
 30
0.0
 10
66.502112
 20
73.498133
 30
0.0
 10
66.677111
 20
73.568132
 30
0.0
 10
66.860111
 20
73.614132
 30
0.0
 10
67.047111
 20
73.638121
 30
0.0
 10
67.235111
 20
73.638132
 30
0.0
 10
67.422111
 20
73.614143
 30
0.0
 10
67.605111
 20
73.568132
 30
0.0
 10
67.780111
 20
73.498133
 30
0.0
 10
67.945111
 20
73.407133
 30
0.0
 10
68.097111
 20
73.297131
 30
0.0
 10
68.234111
 20
73.168133
 30
0.0
 10
68.355112
 20
73.023133
 30
0.0
 10
68.455111
 20
72.864132
 30
0.0
 10
68.536111
 20
72.693133
 30
0.0
 10
68.594111
 20
72.514131
 30
0.0
 10
68.629111
 20
72.329132
 30
0.0
 10
68.641112
 20
72.141132
 30
0.0
  0
LWPOLYLINE
  5
12c
100
AcDbEntity
  8
Layer_1
 62
7
100
AcDbPolyline
 90
41
 70
0
 10
62.141111
 20
119.141143
 30
0.0
 10
62.141111
 20
50.141131
 30
0.0
 10
0.141111
 20
50.141131
 30
0.0
 10
0.141111
 20
119.141143
 30
0.0
 10
2.641112
 20
119.141143
 30
0.0
 10
2.641112
 20
124.641146
 30
0.0
 10
7.641111
 20
124.641146
 30
0.0
 10
7.641111
 20
119.141143
 30
0.0
 10
12.241111
 20
119.141143
 30
0.0
 10
12.241111
 20
116.966141
 30
0.0
 10
10.991111
 20
116.966141
 30
0.0
 10
10.991111
 20
115.316128
 30
0.0
 10
12.241111
 20
115.316128
 30
0.0
 10
12.241111
 20
113.141126
 30
0.0
 10
15.041111
 20
113.141126
 30
0.0
 10
15.041111
 20
115.316128
 30
0.0
 10
16.291111
 20
115.316128
 30
0.0
 10
16.291111
 20
116.966141
 30
0.0
 10
15.041111
 20
116.966141
 30
0.0
 10
15.041111
 20
119.141143
 30
0.0
 10
21.141111
 20
119.141143
 30
0.0
 10
21.141111
 20
99.641139
 30
0.0
 10
41.141111
 20
99.641139
 30
0.0
 10
41.141111
 20
119.141143
 30
0.0
 10
47.241111
 20
119.141143
 30
0.0
 10
47.241111
 20
116.966141
 30
0.0
 10
45.991111
 20
116.966141
 30
0.0
 10
45.991111
 20
115.316128
 30
0.0
 10
47.241111
 20
115.316128
 30
0.0
 10
47.241111
 20
113.141126
 30
0.0
 10
50.041111
 20
113.141126
 30
0.0
 10
50.041111
 20
115.316128
 30
0.0
 10
51.291111
 20
115.316128
 30
0.0
 10
51.291111
 20
116.966141
 30
0.0
 10
50.041111
 20
116.966141
 30
0.0
 10
50.041111
 20
119.141143
 30
0.0
 10
54.641111
 20
119.141143
 30
0.0
 10
54.641111
 20
124.641146
 30
0.0
 10
59.641111
 20
124.641146
 30
0.0
 10
59.641111
 20
119.141143
 30
0.0
 10
62.141111
 20
119.141143
 30
0.0
  0
LWPOLYLINE
  5
12d
100
AcDbEntity
  8
Layer_1
 62
7
100
AcDbPolyline
 90
5
 70
0
 10
59.641111
 20
114.641137
 30
0.0
 10
59.641111
 20
109.641119
 30
0.0
 10
54.641111
 20
109.641119
 30
0.0
 10
54.641111
 20
114.641137
 30
0.0
 10
59.641111
 20
114.641137
 30
0.0
  0
LWPOLYLINE
  5
12e
100
AcDbEntity
  8
Layer_1
 62
7
100
AcDbPolyline
 90
5
 70
0
 10
59.641111
 20
94.641121
 30
0.0
 10
59.641111
 20
89.641131
 30
0.0
 10
54.641111
 20
89.641131
 30
0.0
 10
54.641111
 20
94.641121
 30
0.0
 10
59.641111
 20
94.641121
 30
0.0
  0
LWPOLYLINE
  5
12f
100
AcDbEntity
  8
Layer_1
 62
7
100
AcDbPolyline
 90
5
 70
0
 10
59.641111
 20
84.641141
 30
0.0
 10
59.641111
 20
79.641123
 30
0.0
 10
54.641111
 20
79.641123
 30
0.0
 10
54.641111
 20
84.641141
 30
0.0
 10
59.641111
 20
84.641141
 30
0.0
  0
LWPOLYLINE
  5
130
100
AcDbEntity
  8
Layer_1
 62
7
100
AcDbPolyline
 90
5
 70
0
 10
59.641111
 20
64.641133
 30
0.0
 10
59.641111
 20
59.641132
 30
0.0
 10
54.641111
 20
59.641132
 30
0.0
 10
54.641111
 20
64.641133
 30
0.0
 10
59.641111
 20
64.641133
 30
0.0
  0
LWPOLYLINE
  5
131
100
AcDbEntity
  8
Layer_1
 62
7
100
AcDbPolyline
 90
51
 70
0
 10
58.641111
 20
102.141120
 30
0.0
 10
58.629111
 20
101.953132
 30
0.0
 10
58.594111
 20
101.768135
 30
0.0
 10
58.536111
 20
101.589122
 30
0.0
 10
58.455111
 20
101.418123
 30
0.0
 10
58.355111
 20
101.259119
 30
0.0
 10
58.234111
 20
101.114142
 30
0.0
 10
58.097111
 20
100.985138
 30
0.0
 10
57.945111
 20
100.875128
 30
0.0
 10
57.780111
 20
100.784139
 30
0.0
 10
57.605111
 20
100.714120
 30
0.0
 10
57.422111
 20
100.668146
 30
0.0
 10
57.235111
 20
100.644157
 30
0.0
 10
57.047111
 20
100.644129
 30
0.0
 10
56.860111
 20
100.668118
 30
0.0
 10
56.677111
 20
100.714120
 30
0.0
 10
56.502111
 20
100.784139
 30
0.0
 10
56.337111
 20
100.875128
 30
0.0
 10
56.185111
 20
100.985138
 30
0.0
 10
56.048111
 20
101.114142
 30
0.0
 10
55.927111
 20
101.259119
 30
0.0
 10
55.827111
 20
101.418123
 30
0.0
 10
55.746111
 20
101.589122
 30
0.0
 10
55.688111
 20
101.768135
 30
0.0
 10
55.653111
 20
101.953132
 30
0.0
 10
55.641111
 20
102.141120
 30
0.0
 10
55.653111
 20
102.329137
 30
0.0
 10
55.688111
 20
102.514133
 30
0.0
 10
55.746111
 20
102.693119
 30
0.0
 10
55.827111
 20
102.864145
 30
0.0
 10
55.927111
 20
103.023121
 30
0.0
 10
56.048111
 20
103.168127
 30
0.0
 10
56.185111
 20
103.297131
 30
0.0
 10
56.337111
 20
103.407141
 30
0.0
 10
56.502111
 20
103.498129
 30
0.0
 10
56.677111
 20
103.568120
 30
0.0
 10
56.860111
 20
103.614123
 30
0.0
 10
57.047111
 20
103.638111
 30
0.0
 10
57.235111
 20
103.638140
 30
0.0
 10
57.422111
 20
103.614151
 30
0.0
 10
57.605111
 20
103.568120
 30
0.0
 10
57.780111
 20
103.498129
 30
0.0
 10
57.945111
 20
103.407141
 30
0.0
 10
58.097111
 20
103.297131
 30
0.0
 10
58.234111
 20
103.168127
 30
0.0
 10
58.355111
 20
103.023121
 30
0.0
 10
58.455111
 20
102.864145
 30
0.0
 10
58.536111
 20
102.693119
 30
0.0
 10
58.594111
 20
102.514133
 30
0.0
 10
58.629111
 20
102.329137
 30
0.0
 10
58.641111
 20
102.141120
 30
0.0
  0
LWPOLYLINE
  5
132
100
AcDbEntity
  8
Layer_1
 62
7
100
AcDbPolyline
 90
51
 70
0
 10
58.641111
 20
72.141132
 30
0.0
 10
58.629111
 20
71.953133
 30
0.0
 10
58.594111
 20
71.768133
 30
0.0
 10
58.536111
 20
71.589131
 30
0.0
 10
58.455111
 20
71.418132
 30
0.0
 10
58.355111
 20
71.259131
 30
0.0
 10
58.234111
 20
71.114131
 30
0.0
 10
58.097111
 20
70.985133
 30
0.0
 10
57.945111
 20
70.875131
 30
0.0
 10
57.780111
 20
70.784131
 30
0.0
 10
57.605111
 20
70.714132
 30
0.0
 10
57.422111
 20
70.668133
 30
0.0
 10
57.235111
 20
70.644144
 30
0.0
 10
57.047111
 20
70.644132
 30
0.0
 10
56.860111
 20
70.668121
 30
0.0
 10
56.677111
 20
70.714132
 30
0.0
 10
56.502111
 20
70.784131
 30
0.0
 10
56.337111
 20
70.875131
 30
0.0
 10
56.185111
 20
70.985133
 30
0.0
 10
56.048111
 20
71.114131
 30
0.0
 10
55.927111
 20
71.259131
 30
0.0
 10
55.827111
 20
71.418132
 30
0.0
 10
55.746111
 20
71.589131
 30
0.0
 10
55.688111
 20
71.768133
 30
0.0
 10
55.653111
 20
71.953133
 30
0.0
 10
55.641111
 20
72.141132
 30
0.0
 10
55.653111
 20
72.329132
 30
0.0
 10
55.688111
 20
72.514131
 30
0.0
 10
55.746111
 20
72.693133
 30
0.0
 10
55.827111
 20
72.864132
 30
0.0
 10
55.927111
 20
73.023133
 30
0.0
 10
56.048111
 20
73.168133
 30
0.0
 10
56.185111
 20
73.297131
 30
0.0
 10
56.337111
 20
73.407133
 30
0.0
 10
56.502111
 20
73.498133
 30
0.0
 10
56.677111
 20
73.568132
 30
0.0
 10
56.860111
 20
73.614132
 30
0.0
 10
57.047111
 20
73.638121
 30
0.0
 10
57.235111
 20
73.638132
 30
0.0
 10
57.422111
 20
73.614143
 30
0.0
 10
57.605111
 20
73.568132
 30
0.0
 10
57.780111
 20
73.498133
 30
0.0
 10
57.945111
 20
73.407133
 30
0.0
 10
58.097111
 20
73.297131
 30
0.0
 10
58.234111
 20
73.168133
 30
0.0
 10
58.355111
 20
73.023133
 30
0.0
 10
58.455111
 20
72.864132
 30
0.0
 10
58.536111
 20
72.693133
 30
0.0
 10
58.594111
 20
72.514131
 30
0.0
 10
58.629111
 20
72.329132
 30
0.0
 10
58.641111
 20
72.141132
 30
0.0
  0
LWPOLYLINE
  5
133
100
AcDbEntity
  8
Layer_1
 62
7
100
AcDbPolyline
 90
53
 70
0
 10
48.141111
 20
95.641119
 30
0.0
 10
48.141111
 20
92.641125
 30
0.0
 10
48.129111
 20
92.453137
 30
0.0
 10
48.094111
 20
92.268140
 30
0.0
 10
48.036111
 20
92.089127
 30
0.0
 10
47.955111
 20
91.918128
 30
0.0
 10
47.855111
 20
91.759124
 30
0.0
 10
47.734111
 20
91.614147
 30
0.0
 10
47.597111
 20
91.485143
 30
0.0
 10
47.445111
 20
91.375133
 30
0.0
 10
47.280111
 20
91.284144
 30
0.0
 10
47.105111
 20
91.214125
 30
0.0
 10
46.922111
 20
91.168123
 30
0.0
 10
46.735111
 20
91.144134
 30
0.0
 10
46.547111
 20
91.144134
 30
0.0
 10
46.360111
 20
91.168123
 30
0.0
 10
46.177111
 20
91.214125
 30
0.0
 10
46.002111
 20
91.284144
 30
0.0
 10
45.837111
 20
91.375133
 30
0.0
 10
45.685111
 20
91.485143
 30
0.0
 10
45.548111
 20
91.614147
 30
0.0
 10
45.427111
 20
91.759124
 30
0.0
 10
45.327111
 20
91.918128
 30
0.0
 10
45.246111
 20
92.089127
 30
0.0
 10
45.188111
 20
92.268140
 30
0.0
 10
45.153111
 20
92.453137
 30
0.0
 10
45.141111
 20
92.641125
 30
0.0
 10
45.141111
 20
95.641119
 30
0.0
 10
45.153111
 20
95.829135
 30
0.0
 10
45.188111
 20
96.014132
 30
0.0
 10
45.246111
 20
96.193146
 30
0.0
 10
45.327111
 20
96.364144
 30
0.0
 10
45.427111
 20
96.523120
 30
0.0
 10
45.548111
 20
96.668126
 30
0.0
 10
45.685111
 20
96.797129
 30
0.0
 10
45.837111
 20
96.907140
 30
0.0
 10
46.002111
 20
96.998128
 30
0.0
 10
46.177111
 20
97.068119
 30
0.0
 10
46.360111
 20
97.114121
 30
0.0
 10
46.547111
 20
97.138110
 30
0.0
 10
46.735111
 20
97.138139
 30
0.0
 10
46.922111
 20
97.114150
 30
0.0
 10
47.105111
 20
97.068119
 30
0.0
 10
47.280111
 20
96.998128
 30
0.0
 10
47.445111
 20
96.907140
 30
0.0
 10
47.597111
 20
96.797129
 30
0.0
 10
47.734111
 20
96.668126
 30
0.0
 10
47.855111
 20
96.523120
 30
0.0
 10
47.955111
 20
96.364144
 30
0.0
 10
48.036111
 20
96.193146
 30
0.0
 10
48.094111
 20
96.014132
 30
0.0
 10
48.129111
 20
95.829135
 30
0.0
 10
48.141111
 20
95.641119
 30
0.0
  0
LWPOLYLINE
  5
134
100
AcDbEntity
  8
Layer_1
 62
7
100
AcDbPolyline
 90
53
 70
0
 10
48.141111
 20
64.641133
 30
0.0
 10
48.141111
 20
61.641133
 30
0.0
 10
48.129111
 20
61.453134
 30
0.0
 10
48.094111
 20
61.268132
 30
0.0
 10
48.036111
 20
61.089132
 30
0.0
 10
47.955111
 20
60.918134
 30
0.0
 10
47.855111
 20
60.759132
 30
0.0
 10
47.734111
 20
60.614132
 30
0.0
 10
47.597111
 20
60.485131
 30
0.0
 10
47.445111
 20
60.375132
 30
0.0
 10
47.280111
 20
60.284133
 30
0.0
 10
47.105111
 20
60.214133
 30
0.0
 10
46.922111
 20
60.168131
 30
0.0
 10
46.735111
 20
60.144142
 30
0.0
 10
46.547111
 20
60.144134
 30
0.0
 10
46.360111
 20
60.168122
 30
0.0
 10
46.177111
 20
60.214133
 30
0.0
 10
46.002111
 20
60.284133
 30
0.0
 10
45.837111
 20
60.375132
 30
0.0
 10
45.685111
 20
60.485131
 30
0.0
 10
45.548111
 20
60.614132
 30
0.0
 10
45.427111
 20
60.759132
 30
0.0
 10
45.327111
 20
60.918134
 30
0.0
 10
45.246111
 20
61.089132
 30
0.0
 10
45.188111
 20
61.268132
 30
0.0
 10
45.153111
 20
61.453134
 30
0.0
 10
45.141111
 20
61.641133
 30
0.0
 10
45.141111
 20
64.641133
 30
0.0
 10
45.153111
 20
64.829133
 30
0.0
 10
45.188111
 20
65.014132
 30
0.0
 10
45.246111
 20
65.193131
 30
0.0
 10
45.327111
 20
65.364133
 30
0.0
 10
45.427111
 20
65.523131
 30
0.0
 10
45.548111
 20
65.668131
 30
0.0
 10
45.685111
 20
65.797132
 30
0.0
 10
45.837111
 20
65.907131
 30
0.0
 10
46.002111
 20
65.998134
 30
0.0
 10
46.177111
 20
66.068133
 30
0.0
 10
46.360111
 20
66.114133
 30
0.0
 10
46.547111
 20
66.138122
 30
0.0
 10
46.735111
 20
66.138133
 30
0.0
 10
46.922111
 20
66.114144
 30
0.0
 10
47.105111
 20
66.068133
 30
0.0
 10
47.280111
 20
65.998134
 30
0.0
 10
47.445111
 20
65.907131
 30
0.0
 10
47.597111
 20
65.797132
 30
0.0
 10
47.734111
 20
65.668131
 30
0.0
 10
47.855111
 20
65.523131
 30
0.0
 10
47.955111
 20
65.364133
 30
0.0
 10
48.036111
 20
65.193131
 30
0.0
 10
48.094111
 20
65.014132
 30
0.0
 10
48.129111
 20
64.829133
 30
0.0
 10
48.141111
 20
64.641133
 30
0.0
  0
LWPOLYLINE
  5
135
100
AcDbEntity
  8
Layer_1
 62
7
100
AcDbPolyline
 90
51
 70
0
 10
45.141111
 20
78.641125
 30
0.0
 10
45.031111
 20
76.886126
 30
0.0
 10
44.701111
 20
75.159123
 30
0.0
 10
44.158111
 20
73.487132
 30
0.0
 10
43.409111
 20
71.896132
 30
0.0
 10
42.467111
 20
70.412132
 30
0.0
 10
41.347111
 20
69.057132
 30
0.0
 10
40.065111
 20
67.854131
 30
0.0
 10
38.643111
 20
66.820131
 30
0.0
 10
37.102111
 20
65.973132
 30
0.0
 10
35.467111
 20
65.326132
 30
0.0
 10
33.764111
 20
64.889133
 30
0.0
 10
32.020111
 20
64.669132
 30
0.0
 10
30.262111
 20
64.669132
 30
0.0
 10
28.518111
 20
64.889133
 30
0.0
 10
26.815111
 20
65.326132
 30
0.0
 10
25.180111
 20
65.973132
 30
0.0
 10
23.639111
 20
66.820131
 30
0.0
 10
22.217111
 20
67.854131
 30
0.0
 10
20.935111
 20
69.057132
 30
0.0
 10
19.815111
 20
70.412132
 30
0.0
 10
18.873111
 20
71.896132
 30
0.0
 10
18.124111
 20
73.487132
 30
0.0
 10
17.581111
 20
75.159123
 30
0.0
 10
17.251111
 20
76.886126
 30
0.0
 10
17.141111
 20
78.641125
 30
0.0
 10
17.251111
 20
80.396124
 30
0.0
 10
17.581111
 20
82.123126
 30
0.0
 10
18.124111
 20
83.795123
 30
0.0
 10
18.873111
 20
85.386123
 30
0.0
 10
19.815111
 20
86.870132
 30
0.0
 10
20.935111
 20
88.225137
 30
0.0
 10
22.217111
 20
89.428138
 30
0.0
 10
23.639111
 20
90.462144
 30
0.0
 10
25.180111
 20
91.309121
 30
0.0
 10
26.815111
 20
91.956143
 30
0.0
 10
28.518111
 20
92.393136
 30
0.0
 10
30.262111
 20
92.613129
 30
0.0
 10
32.020111
 20
92.613129
 30
0.0
 10
33.764111
 20
92.393136
 30
0.0
 10
35.467111
 20
91.956143
 30
0.0
 10
37.102111
 20
91.309121
 30
0.0
 10
38.643111
 20
90.462144
 30
0.0
 10
40.065111
 20
89.428138
 30
0.0
 10
41.347111
 20
88.225137
 30
0.0
 10
42.467111
 20
86.870132
 30
0.0
 10
43.409111
 20
85.386123
 30
0.0
 10
44.158111
 20
83.795123
 30
0.0
 10
44.701111
 20
82.123126
 30
0.0
 10
45.031111
 20
80.396124
 30
0.0
 10
45.141111
 20
78.641125
 30
0.0
  0
LWPOLYLINE
  5
136
100
AcDbEntity
  8
Layer_1
 62
7
100
AcDbPolyline
 90
53
 70
0
 10
17.141111
 20
95.641119
 30
0.0
 10
17.141111
 20
92.641125
 30
0.0
 10
17.129111
 20
92.453137
 30
0.0
 10
17.094111
 20
92.268140
 30
0.0
 10
17.036111
 20
92.089127
 30
0.0
 10
16.955111
 20
91.918128
 30
0.0
 10
16.855111
 20
91.759124
 30
0.0
 10
16.734111
 20
91.614147
 30
0.0
 10
16.597111
 20
91.485143
 30
0.0
 10
16.445111
 20
91.375133
 30
0.0
 10
16.280111
 20
91.284144
 30
0.0
 10
16.105111
 20
91.214125
 30
0.0
 10
15.922111
 20
91.168123
 30
0.0
 10
15.735111
 20
91.144134
 30
0.0
 10
15.547111
 20
91.144134
 30
0.0
 10
15.360111
 20
91.168123
 30
0.0
 10
15.177111
 20
91.214125
 30
0.0
 10
15.002111
 20
91.284144
 30
0.0
 10
14.837111
 20
91.375133
 30
0.0
 10
14.685111
 20
91.485143
 30
0.0
 10
14.548111
 20
91.614147
 30
0.0
 10
14.427111
 20
91.759124
 30
0.0
 10
14.327111
 20
91.918128
 30
0.0
 10
14.246111
 20
92.089127
 30
0.0
 10
14.188111
 20
92.268140
 30
0.0
 10
14.153111
 20
92.453137
 30
0.0
 10
14.141111
 20
92.641125
 30
0.0
 10
14.141111
 20
95.641119
 30
0.0
 10
14.153111
 20
95.829135
 30
0.0
 10
14.188111
 20
96.014132
 30
0.0
 10
14.246111
 20
96.193146
 30
0.0
 10
14.327111
 20
96.364144
 30
0.0
 10
14.427111
 20
96.523120
 30
0.0
 10
14.548111
 20
96.668126
 30
0.0
 10
14.685111
 20
96.797129
 30
0.0
 10
14.837111
 20
96.907140
 30
0.0
 10
15.002111
 20
96.998128
 30
0.0
 10
15.177111
 20
97.068119
 30
0.0
 10
15.360111
 20
97.114121
 30
0.0
 10
15.547111
 20
97.138110
 30
0.0
 10
15.735111
 20
97.138139
 30
0.0
 10
15.922111
 20
97.114150
 30
0.0
 10
16.105111
 20
97.068119
 30
0.0
 10
16.280111
 20
96.998128
 30
0.0
 10
16.445111
 20
96.907140
 30
0.0
 10
16.597111
 20
96.797129
 30
0.0
 10
16.734111
 20
96.668126
 30
0.0
 10
16.855111
 20
96.523120
 30
0.0
 10
16.955111
 20
96.364144
 30
0.0
 10
17.036111
 20
96.193146
 30
0.0
 10
17.094111
 20
96.014132
 30
0.0
 10
17.129111
 20
95.829135
 30
0.0
 10
17.141111
 20
95.641119
 30
0.0
  0
LWPOLYLINE
  5
137
100
AcDbEntity
  8
Layer_1
 62
7
100
AcDbPolyline
 90
53
 70
0
 10
17.141111
 20
64.641133
 30
0.0
 10
17.141111
 20
61.641133
 30
0.0
 10
17.129111
 20
61.453134
 30
0.0
 10
17.094111
 20
61.268132
 30
0.0
 10
17.036111
 20
61.089132
 30
0.0
 10
16.955111
 20
60.918134
 30
0.0
 10
16.855111
 20
60.759132
 30
0.0
 10
16.734111
 20
60.614132
 30
0.0
 10
16.597111
 20
60.485131
 30
0.0
 10
16.445111
 20
60.375132
 30
0.0
 10
16.280111
 20
60.284133
 30
0.0
 10
16.105111
 20
60.214133
 30
0.0
 10
15.922111
 20
60.168131
 30
0.0
 10
15.735111
 20
60.144142
 30
0.0
 10
15.547111
 20
60.144134
 30
0.0
 10
15.360111
 20
60.168122
 30
0.0
 10
15.177111
 20
60.214133
 30
0.0
 10
15.002111
 20
60.284133
 30
0.0
 10
14.837111
 20
60.375132
 30
0.0
 10
14.685111
 20
60.485131
 30
0.0
 10
14.548111
 20
60.614132
 30
0.0
 10
14.427111
 20
60.759132
 30
0.0
 10
14.327111
 20
60.918134
 30
0.0
 10
14.246111
 20
61.089132
 30
0.0
 10
14.188111
 20
61.268132
 30
0.0
 10
14.153111
 20
61.453134
 30
0.0
 10
14.141111
 20
61.641133
 30
0.0
 10
14.141111
 20
64.641133
 30
0.0
 10
14.153111
 20
64.829133
 30
0.0
 10
14.188111
 20
65.014132
 30
0.0
 10
14.246111
 20
65.193131
 30
0.0
 10
14.327111
 20
65.364133
 30
0.0
 10
14.427111
 20
65.523131
 30
0.0
 10
14.548111
 20
65.668131
 30
0.0
 10
14.685111
 20
65.797132
 30
0.0
 10
14.837111
 20
65.907131
 30
0.0
 10
15.002111
 20
65.998134
 30
0.0
 10
15.177111
 20
66.068133
 30
0.0
 10
15.360111
 20
66.114133
 30
0.0
 10
15.547111
 20
66.138122
 30
0.0
 10
15.735111
 20
66.138133
 30
0.0
 10
15.922111
 20
66.114144
 30
0.0
 10
16.105111
 20
66.068133
 30
0.0
 10
16.280111
 20
65.998134
 30
0.0
 10
16.445111
 20
65.907131
 30
0.0
 10
16.597111
 20
65.797132
 30
0.0
 10
16.734111
 20
65.668131
 30
0.0
 10
16.855111
 20
65.523131
 30
0.0
 10
16.955111
 20
65.364133
 30
0.0
 10
17.036111
 20
65.193131
 30
0.0
 10
17.094111
 20
65.014132
 30
0.0
 10
17.129111
 20
64.829133
 30
0.0
 10
17.141111
 20
64.641133
 30
0.0
  0
LWPOLYLINE
  5
138
100
AcDbEntity
  8
Layer_1
 62
7
100
AcDbPolyline
 90
5
 70
0
 10
7.641111
 20
114.641137
 30
0.0
 10
7.641111
 20
109.641119
 30
0.0
 10
2.641112
 20
109.641119
 30
0.0
 10
2.641112
 20
114.641137
 30
0.0
 10
7.641111
 20
114.641137
 30
0.0
  0
LWPOLYLINE
  5
139
100
AcDbEntity
  8
Layer_1
 62
7
100
AcDbPolyline
 90
5
 70
0
 10
7.641111
 20
94.641121
 30
0.0
 10
7.641111
 20
89.641131
 30
0.0
 10
2.641112
 20
89.641131
 30
0.0
 10
2.641112
 20
94.641121
 30
0.0
 10
7.641111
 20
94.641121
 30
0.0
  0
LWPOLYLINE
  5
13a
100
AcDbEntity
  8
Layer_1
 62
7
100
AcDbPolyline
 90
5
 70
0
 10
7.641111
 20
84.641141
 30
0.0
 10
7.641111
 20
79.641123
 30
0.0
 10
2.641112
 20
79.641123
 30
0.0
 10
2.641112
 20
84.641141
 30
0.0
 10
7.641111
 20
84.641141
 30
0.0
  0
LWPOLYLINE
  5
13b
100
AcDbEntity
  8
Layer_1
 62
7
100
AcDbPolyline
 90
5
 70
0
 10
7.641111
 20
64.641133
 30
0.0
 10
7.641111
 20
59.641132
 30
0.0
 10
2.641112
 20
59.641132
 30
0.0
 10
2.641112
 20
64.641133
 30
0.0
 10
7.641111
 20
64.641133
 30
0.0
  0
LWPOLYLINE
  5
13c
100
AcDbEntity
  8
Layer_1
 62
7
100
AcDbPolyline
 90
51
 70
0
 10
6.641111
 20
102.141120
 30
0.0
 10
6.629111
 20
101.953132
 30
0.0
 10
6.594111
 20
101.768135
 30
0.0
 10
6.536111
 20
101.589122
 30
0.0
 10
6.455111
 20
101.418123
 30
0.0
 10
6.355111
 20
101.259119
 30
0.0
 10
6.234111
 20
101.114142
 30
0.0
 10
6.097111
 20
100.985138
 30
0.0
 10
5.945111
 20
100.875128
 30
0.0
 10
5.780111
 20
100.784139
 30
0.0
 10
5.605111
 20
100.714120
 30
0.0
 10
5.422111
 20
100.668146
 30
0.0
 10
5.235111
 20
100.644157
 30
0.0
 10
5.047111
 20
100.644129
 30
0.0
 10
4.860111
 20
100.668118
 30
0.0
 10
4.677111
 20
100.714120
 30
0.0
 10
4.502111
 20
100.784139
 30
0.0
 10
4.337111
 20
100.875128
 30
0.0
 10
4.185111
 20
100.985138
 30
0.0
 10
4.048111
 20
101.114142
 30
0.0
 10
3.927111
 20
101.259119
 30
0.0
 10
3.827111
 20
101.418123
 30
0.0
 10
3.746111
 20
101.589122
 30
0.0
 10
3.688111
 20
101.768135
 30
0.0
 10
3.653111
 20
101.953132
 30
0.0
 10
3.641111
 20
102.141120
 30
0.0
 10
3.653111
 20
102.329137
 30
0.0
 10
3.688111
 20
102.514133
 30
0.0
 10
3.746111
 20
102.693119
 30
0.0
 10
3.827111
 20
102.864145
 30
0.0
 10
3.927111
 20
103.023121
 30
0.0
 10
4.048111
 20
103.168127
 30
0.0
 10
4.185111
 20
103.297131
 30
0.0
 10
4.337111
 20
103.407141
 30
0.0
 10
4.502111
 20
103.498129
 30
0.0
 10
4.677111
 20
103.568120
 30
0.0
 10
4.860111
 20
103.614123
 30
0.0
 10
5.047111
 20
103.638111
 30
0.0
 10
5.235111
 20
103.638140
 30
0.0
 10
5.422111
 20
103.614151
 30
0.0
 10
5.605111
 20
103.568120
 30
0.0
 10
5.780111
 20
103.498129
 30
0.0
 10
5.945111
 20
103.407141
 30
0.0
 10
6.097111
 20
103.297131
 30
0.0
 10
6.234111
 20
103.168127
 30
0.0
 10
6.355111
 20
103.023121
 30
0.0
 10
6.455111
 20
102.864145
 30
0.0
 10
6.536111
 20
102.693119
 30
0.0
 10
6.594111
 20
102.514133
 30
0.0
 10
6.629111
 20
102.329137
 30
0.0
 10
6.641111
 20
102.141120
 30
0.0
  0
LWPOLYLINE
  5
13d
100
AcDbEntity
  8
Layer_1
 62
7
100
AcDbPolyline
 90
51
 70
0
 10
6.641111
 20
72.141132
 30
0.0
 10
6.629111
 20
71.953133
 30
0.0
 10
6.594111
 20
71.768133
 30
0.0
 10
6.536111
 20
71.589131
 30
0.0
 10
6.455111
 20
71.418132
 30
0.0
 10
6.355111
 20
71.259131
 30
0.0
 10
6.234111
 20
71.114131
 30
0.0
 10
6.097111
 20
70.985133
 30
0.0
 10
5.945111
 20
70.875131
 30
0.0
 10
5.780111
 20
70.784131
 30
0.0
 10
5.605111
 20
70.714132
 30
0.0
 10
5.422111
 20
70.668133
 30
0.0
 10
5.235111
 20
70.644144
 30
0.0
 10
5.047111
 20
70.644132
 30
0.0
 10
4.860111
 20
70.668121
 30
0.0
 10
4.677111
 20
70.714132
 30
0.0
 10
4.502111
 20
70.784131
 30
0.0
 10
4.337111
 20
70.875131
 30
0.0
 10
4.185111
 20
70.985133
 30
0.0
 10
4.048111
 20
71.114131
 30
0.0
 10
3.927111
 20
71.259131
 30
0.0
 10
3.827111
 20
71.418132
 30
0.0
 10
3.746111
 20
71.589131
 30
0.0
 10
3.688111
 20
71.768133
 30
0.0
 10
3.653111
 20
71.953133
 30
0.0
 10
3.641111
 20
72.141132
 30
0.0
 10
3.653111
 20
72.329132
 30
0.0
 10
3.688111
 20
72.514131
 30
0.0
 10
3.746111
 20
72.693133
 30
0.0
 10
3.827111
 20
72.864132
 30
0.0
 10
3.927111
 20
73.023133
 30
0.0
 10
4.048111
 20
73.168133
 30
0.0
 10
4.185111
 20
73.297131
 30
0.0
 10
4.337111
 20
73.407133
 30
0.0
 10
4.502111
 20
73.498133
 30
0.0
 10
4.677111
 20
73.568132
 30
0.0
 10
4.860111
 20
73.614132
 30
0.0
 10
5.047111
 20
73.638121
 30
0.0
 10
5.235111
 20
73.638132
 30
0.0
 10
5.422111
 20
73.614143
 30
0.0
 10
5.605111
 20
73.568132
 30
0.0
 10
5.780111
 20
73.498133
 30
0.0
 10
5.945111
 20
73.407133
 30
0.0
 10
6.097111
 20
73.297131
 30
0.0
 10
6.234111
 20
73.168133
 30
0.0
 10
6.355111
 20
73.023133
 30
0.0
 10
6.455111
 20
72.864132
 30
0.0
 10
6.536111
 20
72.693133
 30
0.0
 10
6.594111
 20
72.514131
 30
0.0
 10
6.629111
 20
72.329132
 30
0.0
 10
6.641111
 20
72.141132
 30
0.0
  0
ENDSEC
  0
SECTION
  2
OBJECTS
  0
DICTIONARY
  5
C
330
0
100
AcDbDictionary
  3
ACAD_GROUP
350
D
  3
ACAD_MLINESTYLE
350
17
  0
DICTIONARY
  5
D
330
C
100
AcDbDictionary
  0
DICTIONARY
  5
1A
330
C
100
AcDbDictionary
  0
DICTIONARY
  5
17
330
C
100
AcDbDictionary
  3
STANDARD
350
18
  0
DICTIONARY
  5
19
330
C
100
AcDbDictionary
  0
ENDSEC
  0
EOF
