  0
SECTION
  2
HEADER
  9
$ACADVER
  1
AC1014
  9
$HANDSEED
  5
FFFF
  9
$MEASUREMENT
 70
     1
  0
ENDSEC
  0
SECTION
  2
TABLES
  0
TABLE
  2
VPORT
  5
8
330
0
100
AcDbSymbolTable
 70
     4
  0
VPORT
  5
2E
330
8
100
AcDbSymbolTableRecord
100
AcDbViewportTableRecord
  2
*ACTIVE
 70
     0
 10
0.0
 20
0.0
 11
1.0
 21
1.0
 12
210.0
 22
148.5
 13
0.0
 23
0.0
 14
10.0
 24
10.0
 15
10.0
 25
10.0
 16
0.0
 26
0.0
 36
1.0
 17
0.0
 27
0.0
 37
0.0
 40
341.0
 41
1.24
 42
50.0
 43
0.0
 44
0.0
 50
0.0
 51
0.0
 71
     0
 72
   100
 73
     1
 74
     3
 75
     0
 76
     0
 77
     0
 78
     0
  0
ENDTAB
  0
TABLE
  2
LTYPE
  5
5
330
0
100
AcDbSymbolTable
 70
     1
  0
LTYPE
  5
14
330
5
100
AcDbSymbolTableRecord
100
AcDbLinetypeTableRecord
  2
BYBLOCK
 70
     0
  3

 72
    65
 73
     0
 40
0.0
  0
LTYPE
  5
15
330
5
100
AcDbSymbolTableRecord
100
AcDbLinetypeTableRecord
  2
BYLAYER
 70
     0
  3

 72
    65
 73
     0
 40
0.0
  0
LTYPE
  5
16
330
5
100
AcDbSymbolTableRecord
100
AcDbLinetypeTableRecord
  2
CONTINUOUS
 70
     0
  3
Solid line
 72
    65
 73
     0
 40
0.0
  0
ENDTAB
  0
TABLE
  2
LAYER
  5
2
100
AcDbSymbolTable
 70
2
  0
LAYER
  5
50
100
AcDbSymbolTableRecord
100
AcDbLayerTableRecord
  2
0
 70
0
  6
CONTINUOUS
  0
LAYER
  5
51
100
AcDbSymbolTableRecord
100
AcDbLayerTableRecord
  2
Layer_1
 70
0
  6
CONTINUOUS
  0
ENDTAB
  0
TABLE
  2
STYLE
  5
3
330
0
100
AcDbSymbolTable
 70
     1
  0
STYLE
  5
11
330
3
100
AcDbSymbolTableRecord
100
AcDbTextStyleTableRecord
  2
STANDARD
 70
     0
 40
0.0
 41
1.0
 50
0.0
 71
     0
 42
2.5
  3
txt
  4

  0
ENDTAB
  0
TABLE
  2
VIEW
  5
6
330
0
100
AcDbSymbolTable
 70
     0
  0
ENDTAB
  0
TABLE
  2
UCS
  5
7
330
0
100
AcDbSymbolTable
 70
     0
  0
ENDTAB
  0
TABLE
  2
APPID
  5
9
330
0
100
AcDbSymbolTable
 70
     2
  0
APPID
  5
12
330
9
100
AcDbSymbolTableRecord
100
AcDbRegAppTableRecord
  2
ACAD
 70
     0
  0
ENDTAB
  0
TABLE
  2
DIMSTYLE
  5
A
330
0
100
AcDbSymbolTable
 70
     1
  0
DIMSTYLE
105
27
330
A
100
AcDbSymbolTableRecord
100
AcDbDimStyleTableRecord
  2
ISO-25
 70
     0
  3

  4

  5

  6

  7

 40
1.0
 41
2.5
 42
0.625
 43
3.75
 44
1.25
 45
0.0
 46
0.0
 47
0.0
 48
0.0
140
2.5
141
2.5
142
0.0
143
0.03937007874016
144
1.0
145
0.0
146
1.0
147
0.625
 71
     0
 72
     0
 73
     0
 74
     0
 75
     0
 76
     0
 77
     1
 78
     8
170
     0
171
     3
172
     1
173
     0
174
     0
175
     0
176
     0
177
     0
178
     0
270
     2
271
     2
272
     2
273
     2
274
     3
340
11
275
     0
280
     0
281
     0
282
     0
283
     0
284
     8
285
     0
286
     0
287
     3
288
     0
  0
ENDTAB
  0
TABLE
  2
BLOCK_RECORD
  5
1
330
0
100
AcDbSymbolTable
 70
     1
  0
BLOCK_RECORD
  5
1F
330
1
100
AcDbSymbolTableRecord
100
AcDbBlockTableRecord
  2
*MODEL_SPACE
  0
BLOCK_RECORD
  5
1B
330
1
100
AcDbSymbolTableRecord
100
AcDbBlockTableRecord
  2
*PAPER_SPACE
  0
ENDTAB
  0
ENDSEC
  0
SECTION
  2
BLOCKS
  0
BLOCK
  5
20
330
1F
100
AcDbEntity
  8
0
100
AcDbBlockBegin
  2
*MODEL_SPACE
 70
     0
 10
0.0
 20
0.0
 30
0.0
  3
*MODEL_SPACE
  1

  0
ENDBLK
  5
21
330
1F
100
AcDbEntity
  8
0
100
AcDbBlockEnd
  0
BLOCK
  5
1C
330
1B
100
AcDbEntity
 67
     1
  8
0
100
AcDbBlockBegin
  2
*PAPER_SPACE
  1

  0
ENDBLK
  5
1D
330
1B
100
AcDbEntity
 67
     1
  8
0
100
AcDbBlockEnd
  0
ENDSEC
  0
SECTION
  2
ENTITIES
  0
LWPOLYLINE
  5
100
100
AcDbEntity
  8
Layer_1
 62
7
100
AcDbPolyline
 90
75
 70
0
 10
9.999980
 20
226.330994
 30
0.0
 10
14.999998
 20
226.330994
 30
0.0
 10
14.999998
 20
221.330994
 30
0.0
 10
21.099989
 20
221.330994
 30
0.0
 10
21.099989
 20
218.655994
 30
0.0
 10
19.849990
 20
218.655994
 30
0.0
 10
19.849990
 20
217.005994
 30
0.0
 10
21.099989
 20
217.005994
 30
0.0
 10
21.099989
 20
214.830994
 30
0.0
 10
23.899989
 20
214.830994
 30
0.0
 10
23.899989
 20
217.005994
 30
0.0
 10
25.149988
 20
217.005994
 30
0.0
 10
25.149988
 20
218.655994
 30
0.0
 10
23.899989
 20
218.655994
 30
0.0
 10
23.899989
 20
221.330994
 30
0.0
 10
29.999988
 20
221.330994
 30
0.0
 10
29.999988
 20
226.330994
 30
0.0
 10
34.999989
 20
226.330994
 30
0.0
 10
34.999989
 20
221.330994
 30
0.0
 10
39.999988
 20
221.330994
 30
0.0
 10
39.999988
 20
226.330994
 30
0.0
 10
44.999989
 20
226.330994
 30
0.0
 10
44.999989
 20
221.330994
 30
0.0
 10
51.099988
 20
221.330994
 30
0.0
 10
51.099988
 20
218.655994
 30
0.0
 10
49.849989
 20
218.655994
 30
0.0
 10
49.849989
 20
217.005994
 30
0.0
 10
51.099988
 20
217.005994
 30
0.0
 10
51.099988
 20
214.830994
 30
0.0
 10
53.899988
 20
214.830994
 30
0.0
 10
53.899988
 20
217.005994
 30
0.0
 10
55.149990
 20
217.005994
 30
0.0
 10
55.149990
 20
218.655994
 30
0.0
 10
53.899988
 20
218.655994
 30
0.0
 10
53.899988
 20
221.330994
 30
0.0
 10
59.999987
 20
221.330994
 30
0.0
 10
59.999987
 20
226.330994
 30
0.0
 10
64.999989
 20
226.330994
 30
0.0
 10
64.999989
 20
221.330994
 30
0.0
 10
73.999987
 20
221.330994
 30
0.0
 10
73.999987
 20
181.330994
 30
0.0
 10
0.000000
 20
181.330994
 30
0.0
 10
0.000000
 20
186.330995
 30
0.0
 10
4.999990
 20
186.330995
 30
0.0
 10
4.999990
 20
192.430994
 30
0.0
 10
7.674977
 20
192.430994
 30
0.0
 10
7.674977
 20
191.180995
 30
0.0
 10
9.324989
 20
191.180995
 30
0.0
 10
9.324989
 20
192.430994
 30
0.0
 10
11.499991
 20
192.430994
 30
0.0
 10
11.499991
 20
195.230994
 30
0.0
 10
9.324989
 20
195.230994
 30
0.0
 10
9.324989
 20
196.480993
 30
0.0
 10
7.674977
 20
196.480993
 30
0.0
 10
7.674977
 20
195.230994
 30
0.0
 10
4.999990
 20
195.230994
 30
0.0
 10
4.999990
 20
201.330994
 30
0.0
 10
0.000000
 20
201.330994
 30
0.0
 10
0.000000
 20
206.330994
 30
0.0
 10
4.999990
 20
206.330994
 30
0.0
 10
4.999990
 20
212.430994
 30
0.0
 10
7.674977
 20
212.430994
 30
0.0
 10
7.674977
 20
211.180994
 30
0.0
 10
9.324989
 20
211.180994
 30
0.0
 10
9.324989
 20
212.430994
 30
0.0
 10
11.499991
 20
212.430994
 30
0.0
 10
11.499991
 20
215.230994
 30
0.0
 10
9.324989
 20
215.230994
 30
0.0
 10
9.324989
 20
216.480994
 30
0.0
 10
7.674977
 20
216.480994
 30
0.0
 10
7.674977
 20
215.230994
 30
0.0
 10
4.999990
 20
215.230994
 30
0.0
 10
4.999990
 20
221.330994
 30
0.0
 10
9.999980
 20
221.330994
 30
0.0
 10
9.999980
 20
226.330994
 30
0.0
  0
LWPOLYLINE
  5
101
100
AcDbEntity
  8
Layer_1
 62
7
100
AcDbPolyline
 90
75
 70
0
 10
9.999980
 20
136.330993
 30
0.0
 10
14.999998
 20
136.330993
 30
0.0
 10
14.999998
 20
141.330993
 30
0.0
 10
21.099989
 20
141.330993
 30
0.0
 10
21.099989
 20
144.005993
 30
0.0
 10
19.849990
 20
144.005993
 30
0.0
 10
19.849990
 20
145.655993
 30
0.0
 10
21.099989
 20
145.655993
 30
0.0
 10
21.099989
 20
147.830993
 30
0.0
 10
23.899989
 20
147.830993
 30
0.0
 10
23.899989
 20
145.655993
 30
0.0
 10
25.149988
 20
145.655993
 30
0.0
 10
25.149988
 20
144.005993
 30
0.0
 10
23.899989
 20
144.005993
 30
0.0
 10
23.899989
 20
141.330993
 30
0.0
 10
29.999988
 20
141.330993
 30
0.0
 10
29.999988
 20
136.330993
 30
0.0
 10
34.999989
 20
136.330993
 30
0.0
 10
34.999989
 20
141.330993
 30
0.0
 10
39.999988
 20
141.330993
 30
0.0
 10
39.999988
 20
136.330993
 30
0.0
 10
44.999989
 20
136.330993
 30
0.0
 10
44.999989
 20
141.330993
 30
0.0
 10
51.099988
 20
141.330993
 30
0.0
 10
51.099988
 20
144.005993
 30
0.0
 10
49.849989
 20
144.005993
 30
0.0
 10
49.849989
 20
145.655993
 30
0.0
 10
51.099988
 20
145.655993
 30
0.0
 10
51.099988
 20
147.830993
 30
0.0
 10
53.899988
 20
147.830993
 30
0.0
 10
53.899988
 20
145.655993
 30
0.0
 10
55.149990
 20
145.655993
 30
0.0
 10
55.149990
 20
144.005993
 30
0.0
 10
53.899988
 20
144.005993
 30
0.0
 10
53.899988
 20
141.330993
 30
0.0
 10
59.999987
 20
141.330993
 30
0.0
 10
59.999987
 20
136.330993
 30
0.0
 10
64.999989
 20
136.330993
 30
0.0
 10
64.999989
 20
141.330993
 30
0.0
 10
73.999987
 20
141.330993
 30
0.0
 10
73.999987
 20
181.330994
 30
0.0
 10
0.000000
 20
181.330994
 30
0.0
 10
0.000000
 20
176.330992
 30
0.0
 10
4.999990
 20
176.330992
 30
0.0
 10
4.999990
 20
170.230993
 30
0.0
 10
7.674977
 20
170.230993
 30
0.0
 10
7.674977
 20
171.480992
 30
0.0
 10
9.324989
 20
171.480992
 30
0.0
 10
9.324989
 20
170.230993
 30
0.0
 10
11.499991
 20
170.230993
 30
0.0
 10
11.499991
 20
167.430993
 30
0.0
 10
9.324989
 20
167.430993
 30
0.0
 10
9.324989
 20
166.180994
 30
0.0
 10
7.674977
 20
166.180994
 30
0.0
 10
7.674977
 20
167.430993
 30
0.0
 10
4.999990
 20
167.430993
 30
0.0
 10
4.999990
 20
161.330993
 30
0.0
 10
0.000000
 20
161.330993
 30
0.0
 10
0.000000
 20
156.330993
 30
0.0
 10
4.999990
 20
156.330993
 30
0.0
 10
4.999990
 20
150.230993
 30
0.0
 10
7.674977
 20
150.230993
 30
0.0
 10
7.674977
 20
151.480993
 30
0.0
 10
9.324989
 20
151.480993
 30
0.0
 10
9.324989
 20
150.230993
 30
0.0
 10
11.499991
 20
150.230993
 30
0.0
 10
11.499991
 20
147.430993
 30
0.0
 10
9.324989
 20
147.430993
 30
0.0
 10
9.324989
 20
146.180993
 30
0.0
 10
7.674977
 20
146.180993
 30
0.0
 10
7.674977
 20
147.430993
 30
0.0
 10
4.999990
 20
147.430993
 30
0.0
 10
4.999990
 20
141.330993
 30
0.0
 10
9.999980
 20
141.330993
 30
0.0
 10
9.999980
 20
136.330993
 30
0.0
  0
LWPOLYLINE
  5
102
100
AcDbEntity
  8
Layer_1
 62
7
100
AcDbPolyline
 90
75
 70
0
 10
137.999995
 20
226.330994
 30
0.0
 10
132.999977
 20
226.330994
 30
0.0
 10
132.999977
 20
221.330994
 30
0.0
 10
126.899986
 20
221.330994
 30
0.0
 10
126.899986
 20
218.655994
 30
0.0
 10
128.149985
 20
218.655994
 30
0.0
 10
128.149985
 20
217.005994
 30
0.0
 10
126.899986
 20
217.005994
 30
0.0
 10
126.899986
 20
214.830994
 30
0.0
 10
124.099986
 20
214.830994
 30
0.0
 10
124.099986
 20
217.005994
 30
0.0
 10
122.849987
 20
217.005994
 30
0.0
 10
122.849987
 20
218.655994
 30
0.0
 10
124.099986
 20
218.655994
 30
0.0
 10
124.099986
 20
221.330994
 30
0.0
 10
117.999987
 20
221.330994
 30
0.0
 10
117.999987
 20
226.330994
 30
0.0
 10
112.999986
 20
226.330994
 30
0.0
 10
112.999986
 20
221.330994
 30
0.0
 10
107.999987
 20
221.330994
 30
0.0
 10
107.999987
 20
226.330994
 30
0.0
 10
102.999986
 20
226.330994
 30
0.0
 10
102.999986
 20
221.330994
 30
0.0
 10
96.899987
 20
221.330994
 30
0.0
 10
96.899987
 20
218.655994
 30
0.0
 10
98.149986
 20
218.655994
 30
0.0
 10
98.149986
 20
217.005994
 30
0.0
 10
96.899987
 20
217.005994
 30
0.0
 10
96.899987
 20
214.830994
 30
0.0
 10
94.099987
 20
214.830994
 30
0.0
 10
94.099987
 20
217.005994
 30
0.0
 10
92.849985
 20
217.005994
 30
0.0
 10
92.849985
 20
218.655994
 30
0.0
 10
94.099987
 20
218.655994
 30
0.0
 10
94.099987
 20
221.330994
 30
0.0
 10
87.999988
 20
221.330994
 30
0.0
 10
87.999988
 20
226.330994
 30
0.0
 10
82.999986
 20
226.330994
 30
0.0
 10
82.999986
 20
221.330994
 30
0.0
 10
73.999987
 20
221.330994
 30
0.0
 10
73.999987
 20
181.330994
 30
0.0
 10
147.999975
 20
181.330994
 30
0.0
 10
147.999975
 20
186.330995
 30
0.0
 10
142.999985
 20
186.330995
 30
0.0
 10
142.999985
 20
192.430994
 30
0.0
 10
140.324998
 20
192.430994
 30
0.0
 10
140.324998
 20
191.180995
 30
0.0
 10
138.674986
 20
191.180995
 30
0.0
 10
138.674986
 20
192.430994
 30
0.0
 10
136.499984
 20
192.430994
 30
0.0
 10
136.499984
 20
195.230994
 30
0.0
 10
138.674986
 20
195.230994
 30
0.0
 10
138.674986
 20
196.480993
 30
0.0
 10
140.324998
 20
196.480993
 30
0.0
 10
140.324998
 20
195.230994
 30
0.0
 10
142.999985
 20
195.230994
 30
0.0
 10
142.999985
 20
201.330994
 30
0.0
 10
147.999975
 20
201.330994
 30
0.0
 10
147.999975
 20
206.330994
 30
0.0
 10
142.999985
 20
206.330994
 30
0.0
 10
142.999985
 20
212.430994
 30
0.0
 10
140.324998
 20
212.430994
 30
0.0
 10
140.324998
 20
211.180994
 30
0.0
 10
138.674986
 20
211.180994
 30
0.0
 10
138.674986
 20
212.430994
 30
0.0
 10
136.499984
 20
212.430994
 30
0.0
 10
136.499984
 20
215.230994
 30
0.0
 10
138.674986
 20
215.230994
 30
0.0
 10
138.674986
 20
216.480994
 30
0.0
 10
140.324998
 20
216.480994
 30
0.0
 10
140.324998
 20
215.230994
 30
0.0
 10
142.999985
 20
215.230994
 30
0.0
 10
142.999985
 20
221.330994
 30
0.0
 10
137.999995
 20
221.330994
 30
0.0
 10
137.999995
 20
226.330994
 30
0.0
  0
LWPOLYLINE
  5
103
100
AcDbEntity
  8
Layer_1
 62
7
100
AcDbPolyline
 90
75
 70
0
 10
137.999995
 20
136.330993
 30
0.0
 10
132.999977
 20
136.330993
 30
0.0
 10
132.999977
 20
141.330993
 30
0.0
 10
126.899986
 20
141.330993
 30
0.0
 10
126.899986
 20
144.005993
 30
0.0
 10
128.149985
 20
144.005993
 30
0.0
 10
128.149985
 20
145.655993
 30
0.0
 10
126.899986
 20
145.655993
 30
0.0
 10
126.899986
 20
147.830993
 30
0.0
 10
124.099986
 20
147.830993
 30
0.0
 10
124.099986
 20
145.655993
 30
0.0
 10
122.849987
 20
145.655993
 30
0.0
 10
122.849987
 20
144.005993
 30
0.0
 10
124.099986
 20
144.005993
 30
0.0
 10
124.099986
 20
141.330993
 30
0.0
 10
117.999987
 20
141.330993
 30
0.0
 10
117.999987
 20
136.330993
 30
0.0
 10
112.999986
 20
136.330993
 30
0.0
 10
112.999986
 20
141.330993
 30
0.0
 10
107.999987
 20
141.330993
 30
0.0
 10
107.999987
 20
136.330993
 30
0.0
 10
102.999986
 20
136.330993
 30
0.0
 10
102.999986
 20
141.330993
 30
0.0
 10
96.899987
 20
141.330993
 30
0.0
 10
96.899987
 20
144.005993
 30
0.0
 10
98.149986
 20
144.005993
 30
0.0
 10
98.149986
 20
145.655993
 30
0.0
 10
96.899987
 20
145.655993
 30
0.0
 10
96.899987
 20
147.830993
 30
0.0
 10
94.099987
 20
147.830993
 30
0.0
 10
94.099987
 20
145.655993
 30
0.0
 10
92.849985
 20
145.655993
 30
0.0
 10
92.849985
 20
144.005993
 30
0.0
 10
94.099987
 20
144.005993
 30
0.0
 10
94.099987
 20
141.330993
 30
0.0
 10
87.999988
 20
141.330993
 30
0.0
 10
87.999988
 20
136.330993
 30
0.0
 10
82.999986
 20
136.330993
 30
0.0
 10
82.999986
 20
141.330993
 30
0.0
 10
73.999987
 20
141.330993
 30
0.0
 10
73.999987
 20
181.330994
 30
0.0
 10
147.999975
 20
181.330994
 30
0.0
 10
147.999975
 20
176.330992
 30
0.0
 10
142.999985
 20
176.330992
 30
0.0
 10
142.999985
 20
170.230993
 30
0.0
 10
140.324998
 20
170.230993
 30
0.0
 10
140.324998
 20
171.480992
 30
0.0
 10
138.674986
 20
171.480992
 30
0.0
 10
138.674986
 20
170.230993
 30
0.0
 10
136.499984
 20
170.230993
 30
0.0
 10
136.499984
 20
167.430993
 30
0.0
 10
138.674986
 20
167.430993
 30
0.0
 10
138.674986
 20
166.180994
 30
0.0
 10
140.324998
 20
166.180994
 30
0.0
 10
140.324998
 20
167.430993
 30
0.0
 10
142.999985
 20
167.430993
 30
0.0
 10
142.999985
 20
161.330993
 30
0.0
 10
147.999975
 20
161.330993
 30
0.0
 10
147.999975
 20
156.330993
 30
0.0
 10
142.999985
 20
156.330993
 30
0.0
 10
142.999985
 20
150.230993
 30
0.0
 10
140.324998
 20
150.230993
 30
0.0
 10
140.324998
 20
151.480993
 30
0.0
 10
138.674986
 20
151.480993
 30
0.0
 10
138.674986
 20
150.230993
 30
0.0
 10
136.499984
 20
150.230993
 30
0.0
 10
136.499984
 20
147.430993
 30
0.0
 10
138.674986
 20
147.430993
 30
0.0
 10
138.674986
 20
146.180993
 30
0.0
 10
140.324998
 20
146.180993
 30
0.0
 10
140.324998
 20
147.430993
 30
0.0
 10
142.999985
 20
147.430993
 30
0.0
 10
142.999985
 20
141.330993
 30
0.0
 10
137.999995
 20
141.330993
 30
0.0
 10
137.999995
 20
136.330993
 30
0.0
  0
ENDSEC
  0
SECTION
  2
OBJECTS
  0
DICTIONARY
  5
C
330
0
100
AcDbDictionary
  3
ACAD_GROUP
350
D
  3
ACAD_MLINESTYLE
350
17
  0
DICTIONARY
  5
D
330
C
100
AcDbDictionary
  0
DICTIONARY
  5
1A
330
C
100
AcDbDictionary
  0
DICTIONARY
  5
17
330
C
100
AcDbDictionary
  3
STANDARD
350
18
  0
DICTIONARY
  5
19
330
C
100
AcDbDictionary
  0
ENDSEC
  0
EOF
