  0
SECTION
  2
HEADER
  9
$ACADVER
  1
AC1027
  9
$ACADMAINTVER
 70
    55
  9
$DWGCODEPAGE
  3
ANSI_1252
  9
$LASTSAVEDBY
  1
Moritz
  9
$REQUIREDVERSIONS
160
                 0
  9
$INSBASE
 10
0.0
 20
0.0
 30
0.0
  9
$EXTMIN
 10
0.141111
 20
0.141116
 30
0.0
  9
$EXTMAX
 10
124.141111
 20
124.641146
 30
0.0
  9
$LIMMIN
 10
0.0
 20
0.0
  9
$LIMMAX
 10
12.0
 20
9.0
  9
$ORTHOMODE
 70
     0
  9
$REGENMODE
 70
     1
  9
$FILLMODE
 70
     1
  9
$QTEXTMODE
 70
     0
  9
$MIRRTEXT
 70
     0
  9
$LTSCALE
 40
1.0
  9
$ATTMODE
 70
     1
  9
$TEXTSIZE
 40
2.5
  9
$TRACEWID
 40
0.05
  9
$TEXTSTYLE
  7
STANDARD
  9
$CLAYER
  8
0
  9
$CELTYPE
  6
CONTINUOUS
  9
$CECOLOR
 62
   256
  9
$CELTSCALE
 40
1.0
  9
$DISPSILH
 70
     0
  9
$DIMSCALE
 40
1.0
  9
$DIMASZ
 40
0.18
  9
$DIMEXO
 40
0.0625
  9
$DIMDLI
 40
0.38
  9
$DIMRND
 40
0.0
  9
$DIMDLE
 40
0.0
  9
$DIMEXE
 40
0.18
  9
$DIMTP
 40
0.0
  9
$DIMTM
 40
0.0
  9
$DIMTXT
 40
0.18
  9
$DIMCEN
 40
0.09
  9
$DIMTSZ
 40
0.0
  9
$DIMTOL
 70
     0
  9
$DIMLIM
 70
     0
  9
$DIMTIH
 70
     1
  9
$DIMTOH
 70
     1
  9
$DIMSE1
 70
     0
  9
$DIMSE2
 70
     0
  9
$DIMTAD
 70
     0
  9
$DIMZIN
 70
     0
  9
$DIMBLK
  1

  9
$DIMASO
 70
     1
  9
$DIMSHO
 70
     1
  9
$DIMPOST
  1

  9
$DIMAPOST
  1

  9
$DIMALT
 70
     0
  9
$DIMALTD
 70
     2
  9
$DIMALTF
 40
25.4
  9
$DIMLFAC
 40
1.0
  9
$DIMTOFL
 70
     0
  9
$DIMTVP
 40
0.0
  9
$DIMTIX
 70
     0
  9
$DIMSOXD
 70
     0
  9
$DIMSAH
 70
     0
  9
$DIMBLK1
  1

  9
$DIMBLK2
  1

  9
$DIMSTYLE
  2
ISO-25
  9
$DIMCLRD
 70
     0
  9
$DIMCLRE
 70
     0
  9
$DIMCLRT
 70
     0
  9
$DIMTFAC
 40
1.0
  9
$DIMGAP
 40
0.09
  9
$DIMJUST
 70
     0
  9
$DIMSD1
 70
     0
  9
$DIMSD2
 70
     0
  9
$DIMTOLJ
 70
     1
  9
$DIMTZIN
 70
     0
  9
$DIMALTZ
 70
     0
  9
$DIMALTTZ
 70
     0
  9
$DIMUPT
 70
     0
  9
$DIMDEC
 70
     4
  9
$DIMTDEC
 70
     4
  9
$DIMALTU
 70
     2
  9
$DIMALTTD
 70
     2
  9
$DIMTXSTY
  7
STANDARD
  9
$DIMAUNIT
 70
     0
  9
$DIMADEC
 70
     0
  9
$DIMALTRND
 40
0.0
  9
$DIMAZIN
 70
     0
  9
$DIMDSEP
 70
    46
  9
$DIMATFIT
 70
     3
  9
$DIMFRAC
 70
     0
  9
$DIMLDRBLK
  1

  9
$DIMLUNIT
 70
     2
  9
$DIMLWD
 70
    -2
  9
$DIMLWE
 70
    -2
  9
$DIMTMOVE
 70
     0
  9
$DIMFXL
 40
1.0
  9
$DIMFXLON
 70
     0
  9
$DIMJOGANG
 40
0.7853981633974483
  9
$DIMTFILL
 70
     0
  9
$DIMTFILLCLR
 70
     0
  9
$DIMARCSYM
 70
     0
  9
$DIMLTYPE
  6

  9
$DIMLTEX1
  6

  9
$DIMLTEX2
  6

  9
$DIMTXTDIRECTION
 70
     0
  9
$LUNITS
 70
     2
  9
$LUPREC
 70
     4
  9
$SKETCHINC
 40
0.1
  9
$FILLETRAD
 40
0.0
  9
$AUNITS
 70
     0
  9
$AUPREC
 70
     0
  9
$MENU
  1
.
  9
$ELEVATION
 40
0.0
  9
$PELEVATION
 40
0.0
  9
$THICKNESS
 40
0.0
  9
$LIMCHECK
 70
     0
  9
$CHAMFERA
 40
0.0
  9
$CHAMFERB
 40
0.0
  9
$CHAMFERC
 40
0.0
  9
$CHAMFERD
 40
0.0
  9
$SKPOLY
 70
     0
  9
$TDCREATE
 40
2457069.751498576
  9
$TDUCREATE
 40
2457069.709831910
  9
$TDUPDATE
 40
2457069.751881632
  9
$TDUUPDATE
 40
2457069.710214965
  9
$TDINDWG
 40
0.0003833102
  9
$TDUSRTIMER
 40
0.0003833102
  9
$USRTIMER
 70
     1
  9
$ANGBASE
 50
0.0
  9
$ANGDIR
 70
     0
  9
$PDMODE
 70
     0
  9
$PDSIZE
 40
0.0
  9
$PLINEWID
 40
0.0
  9
$SPLFRAME
 70
     0
  9
$SPLINETYPE
 70
     6
  9
$SPLINESEGS
 70
     8
  9
$HANDSEED
  5
10075
  9
$SURFTAB1
 70
     6
  9
$SURFTAB2
 70
     6
  9
$SURFTYPE
 70
     6
  9
$SURFU
 70
     6
  9
$SURFV
 70
     6
  9
$UCSBASE
  2

  9
$UCSNAME
  2

  9
$UCSORG
 10
0.0
 20
0.0
 30
0.0
  9
$UCSXDIR
 10
1.0
 20
0.0
 30
0.0
  9
$UCSYDIR
 10
0.0
 20
1.0
 30
0.0
  9
$UCSORTHOREF
  2

  9
$UCSORTHOVIEW
 70
     0
  9
$UCSORGTOP
 10
0.0
 20
0.0
 30
0.0
  9
$UCSORGBOTTOM
 10
0.0
 20
0.0
 30
0.0
  9
$UCSORGLEFT
 10
0.0
 20
0.0
 30
0.0
  9
$UCSORGRIGHT
 10
0.0
 20
0.0
 30
0.0
  9
$UCSORGFRONT
 10
0.0
 20
0.0
 30
0.0
  9
$UCSORGBACK
 10
0.0
 20
0.0
 30
0.0
  9
$PUCSBASE
  2

  9
$PUCSNAME
  2

  9
$PUCSORG
 10
0.0
 20
0.0
 30
0.0
  9
$PUCSXDIR
 10
1.0
 20
0.0
 30
0.0
  9
$PUCSYDIR
 10
0.0
 20
1.0
 30
0.0
  9
$PUCSORTHOREF
  2

  9
$PUCSORTHOVIEW
 70
     0
  9
$PUCSORGTOP
 10
0.0
 20
0.0
 30
0.0
  9
$PUCSORGBOTTOM
 10
0.0
 20
0.0
 30
0.0
  9
$PUCSORGLEFT
 10
0.0
 20
0.0
 30
0.0
  9
$PUCSORGRIGHT
 10
0.0
 20
0.0
 30
0.0
  9
$PUCSORGFRONT
 10
0.0
 20
0.0
 30
0.0
  9
$PUCSORGBACK
 10
0.0
 20
0.0
 30
0.0
  9
$USERI1
 70
     0
  9
$USERI2
 70
     0
  9
$USERI3
 70
     0
  9
$USERI4
 70
     0
  9
$USERI5
 70
     0
  9
$USERR1
 40
0.0
  9
$USERR2
 40
0.0
  9
$USERR3
 40
0.0
  9
$USERR4
 40
0.0
  9
$USERR5
 40
0.0
  9
$WORLDVIEW
 70
     1
  9
$SHADEDGE
 70
     3
  9
$SHADEDIF
 70
    70
  9
$TILEMODE
 70
     1
  9
$MAXACTVP
 70
    64
  9
$PINSBASE
 10
0.0
 20
0.0
 30
0.0
  9
$PLIMCHECK
 70
     0
  9
$PEXTMIN
 10
1.000000000000000E+20
 20
1.000000000000000E+20
 30
1.000000000000000E+20
  9
$PEXTMAX
 10
-1.000000000000000E+20
 20
-1.000000000000000E+20
 30
-1.000000000000000E+20
  9
$PLIMMIN
 10
0.0
 20
0.0
  9
$PLIMMAX
 10
12.0
 20
9.0
  9
$UNITMODE
 70
     0
  9
$VISRETAIN
 70
     1
  9
$PLINEGEN
 70
     0
  9
$PSLTSCALE
 70
     1
  9
$TREEDEPTH
 70
  3020
  9
$CMLSTYLE
  2
STANDARD
  9
$CMLJUST
 70
     0
  9
$CMLSCALE
 40
1.0
  9
$PROXYGRAPHICS
 70
     1
  9
$MEASUREMENT
 70
     1
  9
$CELWEIGHT
370
    -1
  9
$ENDCAPS
280
     0
  9
$JOINSTYLE
280
     0
  9
$LWDISPLAY
290
     0
  9
$INSUNITS
 70
     0
  9
$HYPERLINKBASE
  1

  9
$STYLESHEET
  1

  9
$XEDIT
290
     1
  9
$CEPSNTYPE
380
     0
  9
$PSTYLEMODE
290
     1
  9
$FINGERPRINTGUID
  2
{2C73CBEF-050C-489A-A1C3-79F203768066}
  9
$VERSIONGUID
  2
{B08C52E1-724C-4E1F-AA9D-4334ACF6B8F3}
  9
$EXTNAMES
290
     1
  9
$PSVPSCALE
 40
0.0
  9
$OLESTARTUP
290
     0
  9
$SORTENTS
280
   127
  9
$INDEXCTL
280
     0
  9
$HIDETEXT
280
     0
  9
$XCLIPFRAME
280
     2
  9
$HALOGAP
280
     0
  9
$OBSCOLOR
 70
   257
  9
$OBSLTYPE
280
     0
  9
$INTERSECTIONDISPLAY
280
     0
  9
$INTERSECTIONCOLOR
 70
   257
  9
$DIMASSOC
280
     1
  9
$PROJECTNAME
  1

  9
$CAMERADISPLAY
290
     0
  9
$LENSLENGTH
 40
50.0
  9
$CAMERAHEIGHT
 40
0.0
  9
$STEPSPERSEC
 40
2.0
  9
$STEPSIZE
 40
6.0
  9
$3DDWFPREC
 40
2.0
  9
$PSOLWIDTH
 40
0.25
  9
$PSOLHEIGHT
 40
4.0
  9
$LOFTANG1
 40
1.570796326794896
  9
$LOFTANG2
 40
1.570796326794896
  9
$LOFTMAG1
 40
0.0
  9
$LOFTMAG2
 40
0.0
  9
$LOFTPARAM
 70
     7
  9
$LOFTNORMALS
280
     1
  9
$LATITUDE
 40
37.795
  9
$LONGITUDE
 40
-122.394
  9
$NORTHDIRECTION
 40
0.0
  9
$TIMEZONE
 70
 -8000
  9
$LIGHTGLYPHDISPLAY
280
     1
  9
$TILEMODELIGHTSYNCH
280
     1
  9
$CMATERIAL
347
10004
  9
$SOLIDHIST
280
     0
  9
$SHOWHIST
280
     1
  9
$DWFFRAME
280
     2
  9
$DGNFRAME
280
     0
  9
$REALWORLDSCALE
290
     1
  9
$INTERFERECOLOR
 62
     1
  9
$INTERFEREOBJVS
345
10026
  9
$INTERFEREVPVS
346
10023
  9
$CSHADOW
280
     0
  9
$SHADOWPLANELOCATION
 40
0.0
  0
ENDSEC
  0
SECTION
  2
CLASSES
  0
CLASS
  1
ACDBDICTIONARYWDFLT
  2
AcDbDictionaryWithDefault
  3
ObjectDBX Classes
 90
        0
 91
        1
280
     0
281
     0
  0
CLASS
  1
MATERIAL
  2
AcDbMaterial
  3
ObjectDBX Classes
 90
     1153
 91
        3
280
     0
281
     0
  0
CLASS
  1
VISUALSTYLE
  2
AcDbVisualStyle
  3
ObjectDBX Classes
 90
     4095
 91
       24
280
     0
281
     0
  0
CLASS
  1
TABLESTYLE
  2
AcDbTableStyle
  3
ObjectDBX Classes
 90
     4095
 91
        1
280
     0
281
     0
  0
CLASS
  1
SCALE
  2
AcDbScale
  3
ObjectDBX Classes
 90
     1153
 91
       17
280
     0
281
     0
  0
CLASS
  1
MLEADERSTYLE
  2
AcDbMLeaderStyle
  3
ACDB_MLEADERSTYLE_CLASS
 90
     4095
 91
        1
280
     0
281
     0
  0
CLASS
  1
ACDBSECTIONVIEWSTYLE
  2
AcDbSectionViewStyle
  3
ObjectDBX Classes
 90
     1025
 91
        1
280
     0
281
     0
  0
CLASS
  1
ACDBDETAILVIEWSTYLE
  2
AcDbDetailViewStyle
  3
ObjectDBX Classes
 90
     1025
 91
        1
280
     0
281
     0
  0
CLASS
  1
DICTIONARYVAR
  2
AcDbDictionaryVar
  3
ObjectDBX Classes
 90
        0
 91
        9
280
     0
281
     0
  0
CLASS
  1
CELLSTYLEMAP
  2
AcDbCellStyleMap
  3
ObjectDBX Classes
 90
     1152
 91
        1
280
     0
281
     0
  0
ENDSEC
  0
SECTION
  2
TABLES
  0
TABLE
  2
VPORT
  5
8
330
0
100
AcDbSymbolTable
 70
     1
  0
VPORT
  5
2E
330
8
100
AcDbSymbolTableRecord
100
AcDbViewportTableRecord
  2
*ACTIVE
 70
     0
 10
0.0
 20
0.0
 11
1.0
 21
1.0
 12
336.9019895287959
 22
148.5
 13
0.0
 23
0.0
 14
10.0
 24
10.0
 15
10.0
 25
10.0
 16
0.0
 26
0.0
 36
1.0
 17
0.0
 27
0.0
 37
0.0
 40
287.1391213389121
 41
2.356965174129353
 42
50.0
 43
0.0
 44
0.0
 50
0.0
 51
0.0
 71
     0
 72
   100
 73
     1
 74
     3
 75
     0
 76
     0
 77
     0
 78
     0
281
     0
 65
     1
110
0.0
120
0.0
130
0.0
111
1.0
121
0.0
131
0.0
112
0.0
122
1.0
132
0.0
 79
     0
146
0.0
348
10022
 60
     3
 61
     5
292
     1
282
     1
141
0.0
142
0.0
 63
   250
421
  3355443
1001
ACAD_NAV_VCDISPLAY
1070
     3
  0
ENDTAB
  0
TABLE
  2
LTYPE
  5
5
330
0
100
AcDbSymbolTable
 70
     1
  0
LTYPE
  5
14
330
5
100
AcDbSymbolTableRecord
100
AcDbLinetypeTableRecord
  2
BYBLOCK
 70
     0
  3

 72
    65
 73
     0
 40
0.0
  0
LTYPE
  5
15
330
5
100
AcDbSymbolTableRecord
100
AcDbLinetypeTableRecord
  2
BYLAYER
 70
     0
  3

 72
    65
 73
     0
 40
0.0
  0
LTYPE
  5
16
330
5
100
AcDbSymbolTableRecord
100
AcDbLinetypeTableRecord
  2
CONTINUOUS
 70
     0
  3
Solid line
 72
    65
 73
     0
 40
0.0
  0
ENDTAB
  0
TABLE
  2
LAYER
  5
2
330
0
100
AcDbSymbolTable
 70
     2
  0
LAYER
  5
50
102
{ACAD_XDICTIONARY
360
1005F
102
}
330
2
100
AcDbSymbolTableRecord
100
AcDbLayerTableRecord
  2
0
 70
     0
 62
     7
  6
CONTINUOUS
370
    -3
390
10002
347
10014
348
0
  0
LAYER
  5
51
102
{ACAD_XDICTIONARY
360
10061
102
}
330
2
100
AcDbSymbolTableRecord
100
AcDbLayerTableRecord
  2
LAYER_1
 70
     0
 62
     7
  6
CONTINUOUS
370
    -3
390
10002
347
10014
348
0
  0
ENDTAB
  0
TABLE
  2
STYLE
  5
3
330
0
100
AcDbSymbolTable
 70
     1
  0
STYLE
  5
11
330
3
100
AcDbSymbolTableRecord
100
AcDbTextStyleTableRecord
  2
STANDARD
 70
     0
 40
0.0
 41
1.0
 50
0.0
 71
     0
 42
2.5
  3
txt
  4

  0
ENDTAB
  0
TABLE
  2
VIEW
  5
6
330
0
100
AcDbSymbolTable
 70
     0
  0
ENDTAB
  0
TABLE
  2
UCS
  5
7
330
0
100
AcDbSymbolTable
 70
     0
  0
ENDTAB
  0
TABLE
  2
APPID
  5
9
330
0
100
AcDbSymbolTable
 70
     2
  0
APPID
  5
12
330
9
100
AcDbSymbolTableRecord
100
AcDbRegAppTableRecord
  2
ACAD
 70
     0
  0
APPID
  5
1006D
330
9
100
AcDbSymbolTableRecord
100
AcDbRegAppTableRecord
  2
ACAD_NAV_VCDISPLAY
 70
     0
  0
ENDTAB
  0
TABLE
  2
DIMSTYLE
  5
A
330
0
100
AcDbSymbolTable
 70
     1
100
AcDbDimStyleTable
 71
     0
  0
DIMSTYLE
105
27
330
A
100
AcDbSymbolTableRecord
100
AcDbDimStyleTableRecord
  2
ISO-25
 70
     0
 41
2.5
 42
0.625
 43
3.75
 44
1.25
 73
     0
 74
     0
 77
     1
 78
     8
140
2.5
141
2.5
143
0.03937007874016
147
0.625
171
     3
172
     1
271
     2
272
     2
274
     3
283
     0
284
     8
340
11
  0
ENDTAB
  0
TABLE
  2
BLOCK_RECORD
  5
1
330
0
100
AcDbSymbolTable
 70
     0
  0
BLOCK_RECORD
  5
1F
330
1
100
AcDbSymbolTableRecord
100
AcDbBlockTableRecord
  2
*MODEL_SPACE
340
10052
 70
     0
280
     1
281
     0
  0
BLOCK_RECORD
  5
1B
330
1
100
AcDbSymbolTableRecord
100
AcDbBlockTableRecord
  2
*PAPER_SPACE
340
10053
 70
     0
280
     1
281
     0
  0
ENDTAB
  0
ENDSEC
  0
SECTION
  2
BLOCKS
  0
BLOCK
  5
20
330
1F
100
AcDbEntity
  8
0
100
AcDbBlockBegin
  2
*MODEL_SPACE
 70
     0
 10
0.0
 20
0.0
 30
0.0
  3
*MODEL_SPACE
  1

  0
ENDBLK
  5
21
330
1F
100
AcDbEntity
  8
0
100
AcDbBlockEnd
  0
BLOCK
  5
1C
330
1B
100
AcDbEntity
 67
     1
  8
0
100
AcDbBlockBegin
  2
*PAPER_SPACE
 70
     0
 10
0.0
 20
0.0
 30
0.0
  3
*PAPER_SPACE
  1

  0
ENDBLK
  5
1D
330
1B
100
AcDbEntity
 67
     1
  8
0
100
AcDbBlockEnd
  0
ENDSEC
  0
SECTION
  2
ENTITIES
  0
LWPOLYLINE
  5
100
330
1F
100
AcDbEntity
  8
LAYER_1
 62
     7
100
AcDbPolyline
 90
        5
 70
     0
 43
0.0
 10
2.641111999999999
 20
45.141102
 10
2.641111999999999
 20
40.141112
 10
7.641111
 20
40.141112
 10
7.641111
 20
45.141102
 10
2.641111999999999
 20
45.141102
  0
LWPOLYLINE
  5
101
330
1F
100
AcDbEntity
  8
LAYER_1
 62
     7
100
AcDbPolyline
 90
        2
 70
     0
 43
0.0
 10
62.141111
 20
0.141116
 10
62.141111
 20
119.141143
  0
LWPOLYLINE
  5
102
330
1F
100
AcDbEntity
  8
LAYER_1
 62
     7
100
AcDbPolyline
 90
        5
 70
     0
 43
0.0
 10
2.641111999999999
 20
25.141114
 10
2.641111999999999
 20
20.141124
 10
7.641111
 20
20.141124
 10
7.641111
 20
25.141114
 10
2.641111999999999
 20
25.141114
  0
LWPOLYLINE
  5
103
330
1F
100
AcDbEntity
  8
LAYER_1
 62
     7
100
AcDbPolyline
 90
       51
 70
     0
 43
0.0
 10
3.641110999999999
 20
32.641113
 10
3.653110999999999
 20
32.453125
 10
3.688111
 20
32.26812800000001
 10
3.746110999999999
 20
32.089115
 10
3.827111
 20
31.918116
 10
3.927111
 20
31.759112
 10
4.048111
 20
31.614107
 10
4.185111
 20
31.485103
 10
4.337111
 20
31.375121
 10
4.502111
 20
31.284104
 10
4.677111
 20
31.214113
 10
4.860110999999999
 20
31.168111
 10
5.047111
 20
31.144122
 10
5.235110999999999
 20
31.144122
 10
5.422111
 20
31.168111
 10
5.605110999999999
 20
31.214113
 10
5.780110999999999
 20
31.284104
 10
5.945110999999999
 20
31.375121
 10
6.097110999999999
 20
31.485103
 10
6.234111
 20
31.614107
 10
6.355110999999999
 20
31.759112
 10
6.455111
 20
31.918116
 10
6.536111
 20
32.089115
 10
6.594110999999999
 20
32.26812800000001
 10
6.629110999999999
 20
32.453125
 10
6.641111
 20
32.641113
 10
6.629110999999999
 20
32.82913
 10
6.594110999999999
 20
33.014126
 10
6.536111
 20
33.193112
 10
6.455111
 20
33.36411
 10
6.355110999999999
 20
33.523114
 10
6.234111
 20
33.66812
 10
6.097110999999999
 20
33.797124
 10
5.945110999999999
 20
33.907106
 10
5.780110999999999
 20
33.99812199999999
 10
5.605110999999999
 20
34.06811300000001
 10
5.422111
 20
34.114116
 10
5.235110999999999
 20
34.138105
 10
5.047111
 20
34.138105
 10
4.860110999999999
 20
34.114116
 10
4.677111
 20
34.06811300000001
 10
4.502111
 20
33.99812199999999
 10
4.337111
 20
33.907106
 10
4.185111
 20
33.797124
 10
4.048111
 20
33.66812
 10
3.927111
 20
33.523114
 10
3.827111
 20
33.36411
 10
3.746110999999999
 20
33.193112
 10
3.688111
 20
33.014126
 10
3.653110999999999
 20
32.82913
 10
3.641110999999999
 20
32.641113
  0
LWPOLYLINE
  5
104
330
1F
100
AcDbEntity
  8
LAYER_1
 62
     7
100
AcDbPolyline
 90
       51
 70
     0
 43
0.0
 10
3.641110999999999
 20
12.641125
 10
3.653110999999999
 20
12.453109
 10
3.688111
 20
12.268112
 10
3.746110999999999
 20
12.089127
 10
3.827111
 20
11.918128
 10
3.927111
 20
11.759124
 10
4.048111
 20
11.614118
 10
4.185111
 20
11.485115
 10
4.337111
 20
11.375104
 10
4.502111
 20
11.284116
 10
4.677111
 20
11.214125
 10
4.860110999999999
 20
11.168123
 10
5.047111
 20
11.144134
 10
5.235110999999999
 20
11.144105
 10
5.422111
 20
11.168094
 10
5.605110999999999
 20
11.214125
 10
5.780110999999999
 20
11.284116
 10
5.945110999999999
 20
11.375104
 10
6.097110999999999
 20
11.485115
 10
6.234111
 20
11.614118
 10
6.355110999999999
 20
11.759124
 10
6.455111
 20
11.918128
 10
6.536111
 20
12.089127
 10
6.594110999999999
 20
12.268112
 10
6.629110999999999
 20
12.453109
 10
6.641111
 20
12.641125
 10
6.629110999999999
 20
12.829113
 10
6.594110999999999
 20
13.01411
 10
6.536111
 20
13.193123
 10
6.455111
 20
13.364122
 10
6.355110999999999
 20
13.523126
 10
6.234111
 20
13.668103
 10
6.097110999999999
 20
13.797107
 10
5.945110999999999
 20
13.907117
 10
5.780110999999999
 20
13.998106
 10
5.605110999999999
 20
14.068125
 10
5.422111
 20
14.114127
 10
5.235110999999999
 20
14.138116
 10
5.047111
 20
14.138116
 10
4.860110999999999
 20
14.114127
 10
4.677111
 20
14.068125
 10
4.502111
 20
13.998106
 10
4.337111
 20
13.907117
 10
4.185111
 20
13.797107
 10
4.048111
 20
13.668103
 10
3.927111
 20
13.523126
 10
3.827111
 20
13.364122
 10
3.746110999999999
 20
13.193123
 10
3.688111
 20
13.01411
 10
3.653110999999999
 20
12.829113
 10
3.641110999999999
 20
12.641125
  0
LWPOLYLINE
  5
105
330
1F
100
AcDbEntity
  8
LAYER_1
 62
     7
100
AcDbPolyline
 90
       51
 70
     0
 43
0.0
 10
12.141111
 20
2.641113999999999
 10
12.153111
 20
2.453113999999999
 10
12.188111
 20
2.268115
 10
12.246111
 20
2.089115
 10
12.327111
 20
1.918113999999999
 10
12.427111
 20
1.759115999999999
 10
12.548111
 20
1.614115999999999
 10
12.685111
 20
1.485114999999999
 10
12.837111
 20
1.375116
 10
13.002111
 20
1.284116
 10
13.177111
 20
1.214117
 10
13.360111
 20
1.168113999999999
 10
13.547111
 20
1.144125
 10
13.735111
 20
1.144117
 10
13.922111
 20
1.168105999999999
 10
14.105111
 20
1.214117
 10
14.280111
 20
1.284116
 10
14.445111
 20
1.375116
 10
14.59711099999999
 20
1.485114999999999
 10
14.734111
 20
1.614115999999999
 10
14.855111
 20
1.759115999999999
 10
14.955111
 20
1.918113999999999
 10
15.036111
 20
2.089115
 10
15.094111
 20
2.268115
 10
15.129111
 20
2.453113999999999
 10
15.141111
 20
2.641113999999999
 10
15.129111
 20
2.829115999999999
 10
15.094111
 20
3.014116
 10
15.036111
 20
3.193115
 10
14.955111
 20
3.364116
 10
14.855111
 20
3.523115
 10
14.734111
 20
3.668115
 10
14.59711099999999
 20
3.797116
 10
14.445111
 20
3.907115
 10
14.280111
 20
3.998115
 10
14.105111
 20
4.068113999999999
 10
13.922111
 20
4.114116
 10
13.735111
 20
4.138105
 10
13.547111
 20
4.138117
 10
13.360111
 20
4.114128
 10
13.177111
 20
4.068113999999999
 10
13.002111
 20
3.998115
 10
12.837111
 20
3.907115
 10
12.685111
 20
3.797116
 10
12.548111
 20
3.668115
 10
12.427111
 20
3.523115
 10
12.327111
 20
3.364116
 10
12.246111
 20
3.193115
 10
12.188111
 20
3.014116
 10
12.153111
 20
2.829115999999999
 10
12.141111
 20
2.641113999999999
  0
LWPOLYLINE
  5
106
330
1F
100
AcDbEntity
  8
LAYER_1
 62
     7
100
AcDbPolyline
 90
       51
 70
     0
 43
0.0
 10
28.641111
 20
40.141112
 10
28.661111
 20
39.828128
 10
28.720111
 20
39.519123
 10
28.817111
 20
39.22112399999999
 10
28.950111
 20
38.937124
 10
29.118111
 20
38.672117
 10
29.319111
 20
38.430112
 10
29.547111
 20
38.21511500000001
 10
29.801111
 20
38.030118
 10
30.077111
 20
37.879129
 10
30.368111
 20
37.763108
 10
30.673111
 20
37.685102
 10
30.984111
 20
37.646127
 10
31.298111
 20
37.646127
 10
31.609111
 20
37.685102
 10
31.914111
 20
37.763108
 10
32.20511099999999
 20
37.879129
 10
32.481111
 20
38.030118
 10
32.735111
 20
38.21511500000001
 10
32.963111
 20
38.430112
 10
33.164111
 20
38.672117
 10
33.332111
 20
38.937124
 10
33.465111
 20
39.22112399999999
 10
33.562111
 20
39.519123
 10
33.621111
 20
39.828128
 10
33.641111
 20
40.141112
 10
33.621111
 20
40.454125
 10
33.562111
 20
40.763102
 10
33.465111
 20
41.061129
 10
33.332111
 20
41.34512899999999
 10
33.164111
 20
41.610107
 10
32.963111
 20
41.852113
 10
32.735111
 20
42.06711
 10
32.481111
 20
42.25210599999999
 10
32.20511099999999
 20
42.403123
 10
31.914111
 20
42.51911699999999
 10
31.609111
 20
42.59712299999999
 10
31.298111
 20
42.636126
 10
30.984111
 20
42.636126
 10
30.673111
 20
42.59712299999999
 10
30.368111
 20
42.51911699999999
 10
30.077111
 20
42.403123
 10
29.801111
 20
42.25210599999999
 10
29.547111
 20
42.06711
 10
29.319111
 20
41.852113
 10
29.118111
 20
41.610107
 10
28.950111
 20
41.34512899999999
 10
28.817111
 20
41.061129
 10
28.720111
 20
40.763102
 10
28.661111
 20
40.454125
 10
28.641111
 20
40.141112
  0
LWPOLYLINE
  5
107
330
1F
100
AcDbEntity
  8
LAYER_1
 62
     7
100
AcDbPolyline
 90
       51
 70
     0
 43
0.0
 10
28.641111
 20
10.141116
 10
28.661111
 20
9.828113999999999
 10
28.720111
 20
9.519114999999999
 10
28.817111
 20
9.221116999999999
 10
28.950111
 20
8.937115999999999
 10
29.118111
 20
8.672114999999999
 10
29.319111
 20
8.430114999999998
 10
29.547111
 20
8.215116
 10
29.801111
 20
8.030115999999999
 10
30.077111
 20
7.879116
 10
30.368111
 20
7.763113999999999
 10
30.673111
 20
7.685116
 10
30.984111
 20
7.646116
 10
31.298111
 20
7.646116
 10
31.609111
 20
7.685116
 10
31.914111
 20
7.763113999999999
 10
32.20511099999999
 20
7.879116
 10
32.481111
 20
8.030115999999999
 10
32.735111
 20
8.215116
 10
32.963111
 20
8.430114999999998
 10
33.164111
 20
8.672114999999999
 10
33.332111
 20
8.937115999999999
 10
33.465111
 20
9.221116999999999
 10
33.562111
 20
9.519114999999999
 10
33.621111
 20
9.828113999999999
 10
33.641111
 20
10.141116
 10
33.621111
 20
10.454129
 10
33.562111
 20
10.763105
 10
33.465111
 20
11.061104
 10
33.332111
 20
11.345104
 10
33.164111
 20
11.610111
 10
32.963111
 20
11.852116
 10
32.735111
 20
12.067113
 10
32.481111
 20
12.25211
 10
32.20511099999999
 20
12.403127
 10
31.914111
 20
12.51912
 10
31.609111
 20
12.597127
 10
31.298111
 20
12.636101
 10
30.984111
 20
12.636101
 10
30.673111
 20
12.597127
 10
30.368111
 20
12.51912
 10
30.077111
 20
12.403127
 10
29.801111
 20
12.25211
 10
29.547111
 20
12.067113
 10
29.319111
 20
11.852116
 10
29.118111
 20
11.610111
 10
28.950111
 20
11.345104
 10
28.817111
 20
11.061104
 10
28.720111
 20
10.763105
 10
28.661111
 20
10.454129
 10
28.641111
 20
10.141116
  0
LWPOLYLINE
  5
108
330
1F
100
AcDbEntity
  8
LAYER_1
 62
     7
100
AcDbPolyline
 90
       51
 70
     0
 43
0.0
 10
47.14111099999999
 20
2.641113999999999
 10
47.153111
 20
2.453113999999999
 10
47.18811099999999
 20
2.268115
 10
47.24611099999999
 20
2.089115
 10
47.327111
 20
1.918113999999999
 10
47.427111
 20
1.759115999999999
 10
47.548111
 20
1.614115999999999
 10
47.685111
 20
1.485114999999999
 10
47.837111
 20
1.375116
 10
48.002111
 20
1.284116
 10
48.177111
 20
1.214117
 10
48.360111
 20
1.168113999999999
 10
48.547111
 20
1.144125
 10
48.73511099999999
 20
1.144117
 10
48.922111
 20
1.168105999999999
 10
49.105111
 20
1.214117
 10
49.28011099999999
 20
1.284116
 10
49.44511099999999
 20
1.375116
 10
49.59711099999999
 20
1.485114999999999
 10
49.73411099999999
 20
1.614115999999999
 10
49.855111
 20
1.759115999999999
 10
49.95511099999999
 20
1.918113999999999
 10
50.036111
 20
2.089115
 10
50.094111
 20
2.268115
 10
50.129111
 20
2.453113999999999
 10
50.141111
 20
2.641113999999999
 10
50.129111
 20
2.829115999999999
 10
50.094111
 20
3.014116
 10
50.036111
 20
3.193115
 10
49.95511099999999
 20
3.364116
 10
49.855111
 20
3.523115
 10
49.73411099999999
 20
3.668115
 10
49.59711099999999
 20
3.797116
 10
49.44511099999999
 20
3.907115
 10
49.28011099999999
 20
3.998115
 10
49.105111
 20
4.068113999999999
 10
48.922111
 20
4.114116
 10
48.73511099999999
 20
4.138105
 10
48.547111
 20
4.138117
 10
48.360111
 20
4.114128
 10
48.177111
 20
4.068113999999999
 10
48.002111
 20
3.998115
 10
47.837111
 20
3.907115
 10
47.685111
 20
3.797116
 10
47.548111
 20
3.668115
 10
47.427111
 20
3.523115
 10
47.327111
 20
3.364116
 10
47.24611099999999
 20
3.193115
 10
47.18811099999999
 20
3.014116
 10
47.153111
 20
2.829115999999999
 10
47.14111099999999
 20
2.641113999999999
  0
LWPOLYLINE
  5
109
330
1F
100
AcDbEntity
  8
LAYER_1
 62
     7
100
AcDbPolyline
 90
        5
 70
     0
 43
0.0
 10
54.641111
 20
45.141102
 10
54.641111
 20
40.141112
 10
59.641111
 20
40.141112
 10
59.641111
 20
45.141102
 10
54.641111
 20
45.141102
  0
LWPOLYLINE
  5
10A
330
1F
100
AcDbEntity
  8
LAYER_1
 62
     7
100
AcDbPolyline
 90
        5
 70
     0
 43
0.0
 10
54.641111
 20
25.141114
 10
54.641111
 20
20.141124
 10
59.641111
 20
20.141124
 10
59.641111
 20
25.141114
 10
54.641111
 20
25.141114
  0
LWPOLYLINE
  5
10B
330
1F
100
AcDbEntity
  8
LAYER_1
 62
     7
100
AcDbPolyline
 90
       51
 70
     0
 43
0.0
 10
55.64111099999999
 20
32.641113
 10
55.65311099999999
 20
32.453125
 10
55.688111
 20
32.26812800000001
 10
55.746111
 20
32.089115
 10
55.827111
 20
31.918116
 10
55.92711099999999
 20
31.759112
 10
56.048111
 20
31.614107
 10
56.185111
 20
31.485103
 10
56.337111
 20
31.375121
 10
56.50211099999999
 20
31.284104
 10
56.677111
 20
31.214113
 10
56.86011099999999
 20
31.168111
 10
57.047111
 20
31.144122
 10
57.23511099999999
 20
31.144122
 10
57.422111
 20
31.168111
 10
57.605111
 20
31.214113
 10
57.780111
 20
31.284104
 10
57.945111
 20
31.375121
 10
58.097111
 20
31.485103
 10
58.234111
 20
31.614107
 10
58.355111
 20
31.759112
 10
58.45511099999999
 20
31.918116
 10
58.536111
 20
32.089115
 10
58.59411099999999
 20
32.26812800000001
 10
58.629111
 20
32.453125
 10
58.64111099999999
 20
32.641113
 10
58.629111
 20
32.82913
 10
58.59411099999999
 20
33.014126
 10
58.536111
 20
33.193112
 10
58.45511099999999
 20
33.36411
 10
58.355111
 20
33.523114
 10
58.234111
 20
33.66812
 10
58.097111
 20
33.797124
 10
57.945111
 20
33.907106
 10
57.780111
 20
33.99812199999999
 10
57.605111
 20
34.06811300000001
 10
57.422111
 20
34.114116
 10
57.23511099999999
 20
34.138105
 10
57.047111
 20
34.138105
 10
56.86011099999999
 20
34.114116
 10
56.677111
 20
34.06811300000001
 10
56.50211099999999
 20
33.99812199999999
 10
56.337111
 20
33.907106
 10
56.185111
 20
33.797124
 10
56.048111
 20
33.66812
 10
55.92711099999999
 20
33.523114
 10
55.827111
 20
33.36411
 10
55.746111
 20
33.193112
 10
55.688111
 20
33.014126
 10
55.65311099999999
 20
32.82913
 10
55.64111099999999
 20
32.641113
  0
LWPOLYLINE
  5
10C
330
1F
100
AcDbEntity
  8
LAYER_1
 62
     7
100
AcDbPolyline
 90
       51
 70
     0
 43
0.0
 10
55.64111099999999
 20
12.641125
 10
55.65311099999999
 20
12.453109
 10
55.688111
 20
12.268112
 10
55.746111
 20
12.089127
 10
55.827111
 20
11.918128
 10
55.92711099999999
 20
11.759124
 10
56.048111
 20
11.614118
 10
56.185111
 20
11.485115
 10
56.337111
 20
11.375104
 10
56.50211099999999
 20
11.284116
 10
56.677111
 20
11.214125
 10
56.86011099999999
 20
11.168123
 10
57.047111
 20
11.144134
 10
57.23511099999999
 20
11.144105
 10
57.422111
 20
11.168094
 10
57.605111
 20
11.214125
 10
57.780111
 20
11.284116
 10
57.945111
 20
11.375104
 10
58.097111
 20
11.485115
 10
58.234111
 20
11.614118
 10
58.355111
 20
11.759124
 10
58.45511099999999
 20
11.918128
 10
58.536111
 20
12.089127
 10
58.59411099999999
 20
12.268112
 10
58.629111
 20
12.453109
 10
58.64111099999999
 20
12.641125
 10
58.629111
 20
12.829113
 10
58.59411099999999
 20
13.01411
 10
58.536111
 20
13.193123
 10
58.45511099999999
 20
13.364122
 10
58.355111
 20
13.523126
 10
58.234111
 20
13.668103
 10
58.097111
 20
13.797107
 10
57.945111
 20
13.907117
 10
57.780111
 20
13.998106
 10
57.605111
 20
14.068125
 10
57.422111
 20
14.114127
 10
57.23511099999999
 20
14.138116
 10
57.047111
 20
14.138116
 10
56.86011099999999
 20
14.114127
 10
56.677111
 20
14.068125
 10
56.50211099999999
 20
13.998106
 10
56.337111
 20
13.907117
 10
56.185111
 20
13.797107
 10
56.048111
 20
13.668103
 10
55.92711099999999
 20
13.523126
 10
55.827111
 20
13.364122
 10
55.746111
 20
13.193123
 10
55.688111
 20
13.01411
 10
55.65311099999999
 20
12.829113
 10
55.64111099999999
 20
12.641125
  0
LWPOLYLINE
  5
10D
330
1F
100
AcDbEntity
  8
LAYER_1
 62
     7
100
AcDbPolyline
 90
        5
 70
     0
 43
0.0
 10
64.64111199999999
 20
45.141102
 10
64.64111199999999
 20
40.141112
 10
69.641111
 20
40.141112
 10
69.641111
 20
45.141102
 10
64.64111199999999
 20
45.141102
  0
LWPOLYLINE
  5
10E
330
1F
100
AcDbEntity
  8
LAYER_1
 62
     7
100
AcDbPolyline
 90
       10
 70
     0
 43
0.0
 10
64.64111199999999
 20
0.141116
 10
64.64111199999999
 20
5.141115
 10
69.641111
 20
5.141115
 10
69.641111
 20
0.141116
 10
116.641112
 20
0.141116
 10
116.641112
 20
5.141115
 10
121.641111
 20
5.141115
 10
121.641111
 20
0.141116
 10
124.141111
 20
0.141116
 10
124.141111
 20
119.141143
  0
LWPOLYLINE
  5
10F
330
1F
100
AcDbEntity
  8
LAYER_1
 62
     7
100
AcDbPolyline
 90
        5
 70
     0
 43
0.0
 10
64.64111199999999
 20
25.141114
 10
64.64111199999999
 20
20.141124
 10
69.641111
 20
20.141124
 10
69.641111
 20
25.141114
 10
64.64111199999999
 20
25.141114
  0
LWPOLYLINE
  5
110
330
1F
100
AcDbEntity
  8
LAYER_1
 62
     7
100
AcDbPolyline
 90
       51
 70
     0
 43
0.0
 10
65.64111099999999
 20
32.641113
 10
65.65311099999999
 20
32.453125
 10
65.688112
 20
32.26812800000001
 10
65.746111
 20
32.089115
 10
65.827111
 20
31.918116
 10
65.92711099999999
 20
31.759112
 10
66.04811099999999
 20
31.614107
 10
66.18511099999999
 20
31.485103
 10
66.33711099999999
 20
31.375121
 10
66.502112
 20
31.284104
 10
66.677111
 20
31.214113
 10
66.860111
 20
31.168111
 10
67.047111
 20
31.144122
 10
67.235111
 20
31.144122
 10
67.422111
 20
31.168111
 10
67.60511099999999
 20
31.214113
 10
67.780111
 20
31.284104
 10
67.945111
 20
31.375121
 10
68.097111
 20
31.485103
 10
68.234111
 20
31.614107
 10
68.355112
 20
31.759112
 10
68.455111
 20
31.918116
 10
68.53611100000001
 20
32.089115
 10
68.59411099999999
 20
32.26812800000001
 10
68.62911099999999
 20
32.453125
 10
68.64111199999999
 20
32.641113
 10
68.62911099999999
 20
32.82913
 10
68.59411099999999
 20
33.014126
 10
68.53611100000001
 20
33.193112
 10
68.455111
 20
33.36411
 10
68.355112
 20
33.523114
 10
68.234111
 20
33.66812
 10
68.097111
 20
33.797124
 10
67.945111
 20
33.907106
 10
67.780111
 20
33.99812199999999
 10
67.60511099999999
 20
34.06811300000001
 10
67.422111
 20
34.114116
 10
67.235111
 20
34.138105
 10
67.047111
 20
34.138105
 10
66.860111
 20
34.114116
 10
66.677111
 20
34.06811300000001
 10
66.502112
 20
33.99812199999999
 10
66.33711099999999
 20
33.907106
 10
66.18511099999999
 20
33.797124
 10
66.04811099999999
 20
33.66812
 10
65.92711099999999
 20
33.523114
 10
65.827111
 20
33.36411
 10
65.746111
 20
33.193112
 10
65.688112
 20
33.014126
 10
65.65311099999999
 20
32.82913
 10
65.64111099999999
 20
32.641113
  0
LWPOLYLINE
  5
111
330
1F
100
AcDbEntity
  8
LAYER_1
 62
     7
100
AcDbPolyline
 90
       51
 70
     0
 43
0.0
 10
65.64111099999999
 20
12.641125
 10
65.65311099999999
 20
12.453109
 10
65.688112
 20
12.268112
 10
65.746111
 20
12.089127
 10
65.827111
 20
11.918128
 10
65.92711099999999
 20
11.759124
 10
66.04811099999999
 20
11.614118
 10
66.18511099999999
 20
11.485115
 10
66.33711099999999
 20
11.375104
 10
66.502112
 20
11.284116
 10
66.677111
 20
11.214125
 10
66.860111
 20
11.168123
 10
67.047111
 20
11.144134
 10
67.235111
 20
11.144105
 10
67.422111
 20
11.168094
 10
67.60511099999999
 20
11.214125
 10
67.780111
 20
11.284116
 10
67.945111
 20
11.375104
 10
68.097111
 20
11.485115
 10
68.234111
 20
11.614118
 10
68.355112
 20
11.759124
 10
68.455111
 20
11.918128
 10
68.53611100000001
 20
12.089127
 10
68.59411099999999
 20
12.268112
 10
68.62911099999999
 20
12.453109
 10
68.64111199999999
 20
12.641125
 10
68.62911099999999
 20
12.829113
 10
68.59411099999999
 20
13.01411
 10
68.53611100000001
 20
13.193123
 10
68.455111
 20
13.364122
 10
68.355112
 20
13.523126
 10
68.234111
 20
13.668103
 10
68.097111
 20
13.797107
 10
67.945111
 20
13.907117
 10
67.780111
 20
13.998106
 10
67.60511099999999
 20
14.068125
 10
67.422111
 20
14.114127
 10
67.235111
 20
14.138116
 10
67.047111
 20
14.138116
 10
66.860111
 20
14.114127
 10
66.677111
 20
14.068125
 10
66.502112
 20
13.998106
 10
66.33711099999999
 20
13.907117
 10
66.18511099999999
 20
13.797107
 10
66.04811099999999
 20
13.668103
 10
65.92711099999999
 20
13.523126
 10
65.827111
 20
13.364122
 10
65.746111
 20
13.193123
 10
65.688112
 20
13.01411
 10
65.65311099999999
 20
12.829113
 10
65.64111099999999
 20
12.641125
  0
LWPOLYLINE
  5
112
330
1F
100
AcDbEntity
  8
LAYER_1
 62
     7
100
AcDbPolyline
 90
       51
 70
     0
 43
0.0
 10
74.14111099999999
 20
2.641113999999999
 10
74.153111
 20
2.453113999999999
 10
74.18811099999999
 20
2.268115
 10
74.24611099999999
 20
2.089115
 10
74.327111
 20
1.918113999999999
 10
74.427111
 20
1.759115999999999
 10
74.54811099999999
 20
1.614115999999999
 10
74.68511099999999
 20
1.485114999999999
 10
74.83711099999999
 20
1.375116
 10
75.002111
 20
1.284116
 10
75.17711099999999
 20
1.214117
 10
75.360111
 20
1.168113999999999
 10
75.547111
 20
1.144125
 10
75.73511100000001
 20
1.144117
 10
75.922111
 20
1.168105999999999
 10
76.105111
 20
1.214117
 10
76.28011100000001
 20
1.284116
 10
76.44511099999999
 20
1.375116
 10
76.597112
 20
1.485114999999999
 10
76.734111
 20
1.614115999999999
 10
76.85511099999999
 20
1.759115999999999
 10
76.955111
 20
1.918113999999999
 10
77.036111
 20
2.089115
 10
77.094111
 20
2.268115
 10
77.12911099999999
 20
2.453113999999999
 10
77.141111
 20
2.641113999999999
 10
77.12911099999999
 20
2.829115999999999
 10
77.094111
 20
3.014116
 10
77.036111
 20
3.193115
 10
76.955111
 20
3.364116
 10
76.85511099999999
 20
3.523115
 10
76.734111
 20
3.668115
 10
76.597112
 20
3.797116
 10
76.44511099999999
 20
3.907115
 10
76.28011100000001
 20
3.998115
 10
76.105111
 20
4.068113999999999
 10
75.922111
 20
4.114116
 10
75.73511100000001
 20
4.138105
 10
75.547111
 20
4.138117
 10
75.360111
 20
4.114128
 10
75.17711099999999
 20
4.068113999999999
 10
75.002111
 20
3.998115
 10
74.83711099999999
 20
3.907115
 10
74.68511099999999
 20
3.797116
 10
74.54811099999999
 20
3.668115
 10
74.427111
 20
3.523115
 10
74.327111
 20
3.364116
 10
74.24611099999999
 20
3.193115
 10
74.18811099999999
 20
3.014116
 10
74.153111
 20
2.829115999999999
 10
74.14111099999999
 20
2.641113999999999
  0
LWPOLYLINE
  5
113
330
1F
100
AcDbEntity
  8
LAYER_1
 62
     7
100
AcDbPolyline
 90
       51
 70
     0
 43
0.0
 10
90.64111099999999
 20
40.141112
 10
90.661111
 20
39.828128
 10
90.720112
 20
39.519123
 10
90.81711099999999
 20
39.22112399999999
 10
90.95011099999998
 20
38.937124
 10
91.118111
 20
38.672117
 10
91.31911099999999
 20
38.430112
 10
91.54711199999999
 20
38.21511500000001
 10
91.801112
 20
38.030118
 10
92.077111
 20
37.879129
 10
92.368111
 20
37.763108
 10
92.67311099999998
 20
37.685102
 10
92.984111
 20
37.646127
 10
93.29811099999998
 20
37.646127
 10
93.609111
 20
37.685102
 10
93.914111
 20
37.763108
 10
94.205111
 20
37.879129
 10
94.481111
 20
38.030118
 10
94.73511100000001
 20
38.21511500000001
 10
94.96311199999999
 20
38.430112
 10
95.164111
 20
38.672117
 10
95.332111
 20
38.937124
 10
95.465111
 20
39.22112399999999
 10
95.562111
 20
39.519123
 10
95.621111
 20
39.828128
 10
95.64111099999999
 20
40.141112
 10
95.621111
 20
40.454125
 10
95.562111
 20
40.763102
 10
95.465111
 20
41.061129
 10
95.332111
 20
41.34512899999999
 10
95.164111
 20
41.610107
 10
94.96311199999999
 20
41.852113
 10
94.73511100000001
 20
42.06711
 10
94.481111
 20
42.25210599999999
 10
94.205111
 20
42.403123
 10
93.914111
 20
42.51911699999999
 10
93.609111
 20
42.59712299999999
 10
93.29811099999998
 20
42.636126
 10
92.984111
 20
42.636126
 10
92.67311099999998
 20
42.59712299999999
 10
92.368111
 20
42.51911699999999
 10
92.077111
 20
42.403123
 10
91.801112
 20
42.25210599999999
 10
91.54711199999999
 20
42.06711
 10
91.31911099999999
 20
41.852113
 10
91.118111
 20
41.610107
 10
90.95011099999998
 20
41.34512899999999
 10
90.81711099999999
 20
41.061129
 10
90.720112
 20
40.763102
 10
90.661111
 20
40.454125
 10
90.64111099999999
 20
40.141112
  0
LWPOLYLINE
  5
114
330
1F
100
AcDbEntity
  8
LAYER_1
 62
     7
100
AcDbPolyline
 90
       51
 70
     0
 43
0.0
 10
90.64111099999999
 20
10.141116
 10
90.661111
 20
9.828113999999999
 10
90.720112
 20
9.519114999999999
 10
90.81711099999999
 20
9.221116999999999
 10
90.95011099999998
 20
8.937115999999999
 10
91.118111
 20
8.672114999999999
 10
91.31911099999999
 20
8.430114999999998
 10
91.54711199999999
 20
8.215116
 10
91.801112
 20
8.030115999999999
 10
92.077111
 20
7.879116
 10
92.368111
 20
7.763113999999999
 10
92.67311099999998
 20
7.685116
 10
92.984111
 20
7.646116
 10
93.29811099999998
 20
7.646116
 10
93.609111
 20
7.685116
 10
93.914111
 20
7.763113999999999
 10
94.205111
 20
7.879116
 10
94.481111
 20
8.030115999999999
 10
94.73511100000001
 20
8.215116
 10
94.96311199999999
 20
8.430114999999998
 10
95.164111
 20
8.672114999999999
 10
95.332111
 20
8.937115999999999
 10
95.465111
 20
9.221116999999999
 10
95.562111
 20
9.519114999999999
 10
95.621111
 20
9.828113999999999
 10
95.64111099999999
 20
10.141116
 10
95.621111
 20
10.454129
 10
95.562111
 20
10.763105
 10
95.465111
 20
11.061104
 10
95.332111
 20
11.345104
 10
95.164111
 20
11.610111
 10
94.96311199999999
 20
11.852116
 10
94.73511100000001
 20
12.067113
 10
94.481111
 20
12.25211
 10
94.205111
 20
12.403127
 10
93.914111
 20
12.51912
 10
93.609111
 20
12.597127
 10
93.29811099999998
 20
12.636101
 10
92.984111
 20
12.636101
 10
92.67311099999998
 20
12.597127
 10
92.368111
 20
12.51912
 10
92.077111
 20
12.403127
 10
91.801112
 20
12.25211
 10
91.54711199999999
 20
12.067113
 10
91.31911099999999
 20
11.852116
 10
91.118111
 20
11.610111
 10
90.95011099999998
 20
11.345104
 10
90.81711099999999
 20
11.061104
 10
90.720112
 20
10.763105
 10
90.661111
 20
10.454129
 10
90.64111099999999
 20
10.141116
  0
LWPOLYLINE
  5
115
330
1F
100
AcDbEntity
  8
LAYER_1
 62
     7
100
AcDbPolyline
 90
       51
 70
     0
 43
0.0
 10
109.141111
 20
2.641113999999999
 10
109.153111
 20
2.453113999999999
 10
109.188111
 20
2.268115
 10
109.246111
 20
2.089115
 10
109.327112
 20
1.918113999999999
 10
109.427111
 20
1.759115999999999
 10
109.548111
 20
1.614115999999999
 10
109.685111
 20
1.485114999999999
 10
109.837111
 20
1.375116
 10
110.002111
 20
1.284116
 10
110.177112
 20
1.214117
 10
110.360111
 20
1.168113999999999
 10
110.547111
 20
1.144125
 10
110.735111
 20
1.144117
 10
110.922111
 20
1.168105999999999
 10
111.105112
 20
1.214117
 10
111.280111
 20
1.284116
 10
111.445111
 20
1.375116
 10
111.597111
 20
1.485114999999999
 10
111.734111
 20
1.614115999999999
 10
111.855111
 20
1.759115999999999
 10
111.955112
 20
1.918113999999999
 10
112.036111
 20
2.089115
 10
112.094111
 20
2.268115
 10
112.129111
 20
2.453113999999999
 10
112.141111
 20
2.641113999999999
 10
112.129111
 20
2.829115999999999
 10
112.094111
 20
3.014116
 10
112.036111
 20
3.193115
 10
111.955112
 20
3.364116
 10
111.855111
 20
3.523115
 10
111.734111
 20
3.668115
 10
111.597111
 20
3.797116
 10
111.445111
 20
3.907115
 10
111.280111
 20
3.998115
 10
111.105112
 20
4.068113999999999
 10
110.922111
 20
4.114116
 10
110.735111
 20
4.138105
 10
110.547111
 20
4.138117
 10
110.360111
 20
4.114128
 10
110.177112
 20
4.068113999999999
 10
110.002111
 20
3.998115
 10
109.837111
 20
3.907115
 10
109.685111
 20
3.797116
 10
109.548111
 20
3.668115
 10
109.427111
 20
3.523115
 10
109.327112
 20
3.364116
 10
109.246111
 20
3.193115
 10
109.188111
 20
3.014116
 10
109.153111
 20
2.829115999999999
 10
109.141111
 20
2.641113999999999
  0
LWPOLYLINE
  5
116
330
1F
100
AcDbEntity
  8
LAYER_1
 62
     7
100
AcDbPolyline
 90
        5
 70
     0
 43
0.0
 10
116.641112
 20
45.141102
 10
116.641112
 20
40.141112
 10
121.641111
 20
40.141112
 10
121.641111
 20
45.141102
 10
116.641112
 20
45.141102
  0
LWPOLYLINE
  5
117
330
1F
100
AcDbEntity
  8
LAYER_1
 62
     7
100
AcDbPolyline
 90
        5
 70
     0
 43
0.0
 10
116.641112
 20
25.141114
 10
116.641112
 20
20.141124
 10
121.641111
 20
20.141124
 10
121.641111
 20
25.141114
 10
116.641112
 20
25.141114
  0
LWPOLYLINE
  5
118
330
1F
100
AcDbEntity
  8
LAYER_1
 62
     7
100
AcDbPolyline
 90
       51
 70
     0
 43
0.0
 10
117.641111
 20
32.641113
 10
117.653112
 20
32.453125
 10
117.688111
 20
32.26812800000001
 10
117.746111
 20
32.089115
 10
117.827111
 20
31.918116
 10
117.927111
 20
31.759112
 10
118.048111
 20
31.614107
 10
118.185111
 20
31.485103
 10
118.337111
 20
31.375121
 10
118.502111
 20
31.284104
 10
118.677111
 20
31.214113
 10
118.860111
 20
31.168111
 10
119.047111
 20
31.144122
 10
119.235111
 20
31.144122
 10
119.422112
 20
31.168111
 10
119.605111
 20
31.214113
 10
119.780111
 20
31.284104
 10
119.945111
 20
31.375121
 10
120.097111
 20
31.485103
 10
120.234111
 20
31.614107
 10
120.355111
 20
31.759112
 10
120.455111
 20
31.918116
 10
120.536111
 20
32.089115
 10
120.594111
 20
32.26812800000001
 10
120.629111
 20
32.453125
 10
120.641111
 20
32.641113
 10
120.629111
 20
32.82913
 10
120.594111
 20
33.014126
 10
120.536111
 20
33.193112
 10
120.455111
 20
33.36411
 10
120.355111
 20
33.523114
 10
120.234111
 20
33.66812
 10
120.097111
 20
33.797124
 10
119.945111
 20
33.907106
 10
119.780111
 20
33.99812199999999
 10
119.605111
 20
34.06811300000001
 10
119.422112
 20
34.114116
 10
119.235111
 20
34.138105
 10
119.047111
 20
34.138105
 10
118.860111
 20
34.114116
 10
118.677111
 20
34.06811300000001
 10
118.502111
 20
33.99812199999999
 10
118.337111
 20
33.907106
 10
118.185111
 20
33.797124
 10
118.048111
 20
33.66812
 10
117.927111
 20
33.523114
 10
117.827111
 20
33.36411
 10
117.746111
 20
33.193112
 10
117.688111
 20
33.014126
 10
117.653111
 20
32.82913
 10
117.641111
 20
32.641113
  0
LWPOLYLINE
  5
119
330
1F
100
AcDbEntity
  8
LAYER_1
 62
     7
100
AcDbPolyline
 90
       51
 70
     0
 43
0.0
 10
117.641111
 20
12.641125
 10
117.653112
 20
12.453109
 10
117.688111
 20
12.268112
 10
117.746111
 20
12.089127
 10
117.827111
 20
11.918128
 10
117.927111
 20
11.759124
 10
118.048111
 20
11.614118
 10
118.185111
 20
11.485115
 10
118.337111
 20
11.375104
 10
118.502111
 20
11.284116
 10
118.677111
 20
11.214125
 10
118.860111
 20
11.168123
 10
119.047111
 20
11.144134
 10
119.235111
 20
11.144105
 10
119.422112
 20
11.168094
 10
119.605111
 20
11.214125
 10
119.780111
 20
11.284116
 10
119.945111
 20
11.375104
 10
120.097111
 20
11.485115
 10
120.234111
 20
11.614118
 10
120.355111
 20
11.759124
 10
120.455111
 20
11.918128
 10
120.536111
 20
12.089127
 10
120.594111
 20
12.268112
 10
120.629111
 20
12.453109
 10
120.641111
 20
12.641125
 10
120.629111
 20
12.829113
 10
120.594111
 20
13.01411
 10
120.536111
 20
13.193123
 10
120.455111
 20
13.364122
 10
120.355111
 20
13.523126
 10
120.234111
 20
13.668103
 10
120.097111
 20
13.797107
 10
119.945111
 20
13.907117
 10
119.780111
 20
13.998106
 10
119.605111
 20
14.068125
 10
119.422112
 20
14.114127
 10
119.235111
 20
14.138116
 10
119.047111
 20
14.138116
 10
118.860111
 20
14.114127
 10
118.677111
 20
14.068125
 10
118.502111
 20
13.998106
 10
118.337111
 20
13.907117
 10
118.185111
 20
13.797107
 10
118.048111
 20
13.668103
 10
117.927111
 20
13.523126
 10
117.827111
 20
13.364122
 10
117.746111
 20
13.193123
 10
117.688111
 20
13.01411
 10
117.653111
 20
12.829113
 10
117.641111
 20
12.641125
  0
LWPOLYLINE
  5
11A
330
1F
100
AcDbEntity
  8
LAYER_1
 62
     7
100
AcDbPolyline
 90
       37
 70
     0
 43
0.0
 10
64.64111199999999
 20
119.141143
 10
64.64111199999999
 20
124.641146
 10
69.641111
 20
124.641146
 10
69.641111
 20
119.141143
 10
74.24111100000001
 20
119.141143
 10
74.24111100000001
 20
116.966141
 10
72.99111100000001
 20
116.966141
 10
72.99111100000001
 20
115.316128
 10
74.24111100000001
 20
115.316128
 10
74.24111100000001
 20
113.141126
 10
77.041111
 20
113.141126
 10
77.041111
 20
115.316128
 10
78.291111
 20
115.316128
 10
78.291111
 20
116.966141
 10
77.041111
 20
116.966141
 10
77.041111
 20
119.141143
 10
83.14111099999999
 20
119.141143
 10
83.14111099999999
 20
99.641139
 10
103.141111
 20
99.641139
 10
103.141111
 20
119.141143
 10
109.241111
 20
119.141143
 10
109.241111
 20
116.966141
 10
107.991111
 20
116.966141
 10
107.991111
 20
115.316128
 10
109.241111
 20
115.316128
 10
109.241111
 20
113.141126
 10
112.041111
 20
113.141126
 10
112.041111
 20
115.316128
 10
113.291111
 20
115.316128
 10
113.291111
 20
116.966141
 10
112.041111
 20
116.966141
 10
112.041111
 20
119.141143
 10
116.641112
 20
119.141143
 10
116.641112
 20
124.641146
 10
121.641111
 20
124.641146
 10
121.641111
 20
119.141143
 10
124.141111
 20
119.141143
  0
LWPOLYLINE
  5
11B
330
1F
100
AcDbEntity
  8
LAYER_1
 62
     7
100
AcDbPolyline
 90
        5
 70
     0
 43
0.0
 10
121.641111
 20
114.641137
 10
121.641111
 20
109.641119
 10
116.641112
 20
109.641119
 10
116.641112
 20
114.641137
 10
121.641111
 20
114.641137
  0
LWPOLYLINE
  5
11C
330
1F
100
AcDbEntity
  8
LAYER_1
 62
     7
100
AcDbPolyline
 90
        5
 70
     0
 43
0.0
 10
121.641111
 20
94.64112099999999
 10
121.641111
 20
89.641131
 10
116.641112
 20
89.641131
 10
116.641112
 20
94.64112099999999
 10
121.641111
 20
94.64112099999999
  0
LWPOLYLINE
  5
11D
330
1F
100
AcDbEntity
  8
LAYER_1
 62
     7
100
AcDbPolyline
 90
        5
 70
     0
 43
0.0
 10
121.641111
 20
84.64114100000001
 10
121.641111
 20
79.641123
 10
116.641112
 20
79.641123
 10
116.641112
 20
84.64114100000001
 10
121.641111
 20
84.64114100000001
  0
LWPOLYLINE
  5
11E
330
1F
100
AcDbEntity
  8
LAYER_1
 62
     7
100
AcDbPolyline
 90
        5
 70
     0
 43
0.0
 10
121.641111
 20
64.641133
 10
121.641111
 20
59.64113199999999
 10
116.641112
 20
59.64113199999999
 10
116.641112
 20
64.641133
 10
121.641111
 20
64.641133
  0
LWPOLYLINE
  5
11F
330
1F
100
AcDbEntity
  8
LAYER_1
 62
     7
100
AcDbPolyline
 90
       51
 70
     0
 43
0.0
 10
120.641111
 20
102.14112
 10
120.629111
 20
101.953132
 10
120.594111
 20
101.768135
 10
120.536111
 20
101.589122
 10
120.455111
 20
101.418123
 10
120.355111
 20
101.259119
 10
120.234111
 20
101.114142
 10
120.097111
 20
100.985138
 10
119.945111
 20
100.875128
 10
119.780111
 20
100.784139
 10
119.605111
 20
100.71412
 10
119.422112
 20
100.668146
 10
119.235111
 20
100.644157
 10
119.047111
 20
100.644129
 10
118.860111
 20
100.668118
 10
118.677111
 20
100.71412
 10
118.502111
 20
100.784139
 10
118.337111
 20
100.875128
 10
118.185111
 20
100.985138
 10
118.048111
 20
101.114142
 10
117.927111
 20
101.259119
 10
117.827111
 20
101.418123
 10
117.746111
 20
101.589122
 10
117.688111
 20
101.768135
 10
117.653111
 20
101.953132
 10
117.641111
 20
102.14112
 10
117.653112
 20
102.329137
 10
117.688111
 20
102.514133
 10
117.746111
 20
102.693119
 10
117.827111
 20
102.864145
 10
117.927111
 20
103.023121
 10
118.048111
 20
103.168127
 10
118.185111
 20
103.297131
 10
118.337111
 20
103.407141
 10
118.502111
 20
103.498129
 10
118.677111
 20
103.56812
 10
118.860111
 20
103.614123
 10
119.047111
 20
103.638111
 10
119.235111
 20
103.63814
 10
119.422112
 20
103.614151
 10
119.605111
 20
103.56812
 10
119.780111
 20
103.498129
 10
119.945111
 20
103.407141
 10
120.097111
 20
103.297131
 10
120.234111
 20
103.168127
 10
120.355111
 20
103.023121
 10
120.455111
 20
102.864145
 10
120.536111
 20
102.693119
 10
120.594111
 20
102.514133
 10
120.629111
 20
102.329137
 10
120.641111
 20
102.14112
  0
LWPOLYLINE
  5
120
330
1F
100
AcDbEntity
  8
LAYER_1
 62
     7
100
AcDbPolyline
 90
       51
 70
     0
 43
0.0
 10
120.641111
 20
72.14113199999999
 10
120.629111
 20
71.95313299999999
 10
120.594111
 20
71.76813299999999
 10
120.536111
 20
71.58913100000001
 10
120.455111
 20
71.418132
 10
120.355111
 20
71.25913100000001
 10
120.234111
 20
71.114131
 10
120.097111
 20
70.98513299999999
 10
119.945111
 20
70.87513100000001
 10
119.780111
 20
70.784131
 10
119.605111
 20
70.71413199999999
 10
119.422112
 20
70.66813299999999
 10
119.235111
 20
70.644144
 10
119.047111
 20
70.644132
 10
118.860111
 20
70.66812099999999
 10
118.677111
 20
70.71413199999999
 10
118.502111
 20
70.784131
 10
118.337111
 20
70.87513100000001
 10
118.185111
 20
70.98513299999999
 10
118.048111
 20
71.114131
 10
117.927111
 20
71.25913100000001
 10
117.827111
 20
71.418132
 10
117.746111
 20
71.58913100000001
 10
117.688111
 20
71.76813299999999
 10
117.653111
 20
71.95313299999999
 10
117.641111
 20
72.14113199999999
 10
117.653112
 20
72.329132
 10
117.688111
 20
72.514131
 10
117.746111
 20
72.69313299999999
 10
117.827111
 20
72.864132
 10
117.927111
 20
73.023133
 10
118.048111
 20
73.16813299999999
 10
118.185111
 20
73.29713100000001
 10
118.337111
 20
73.407133
 10
118.502111
 20
73.498133
 10
118.677111
 20
73.56813199999999
 10
118.860111
 20
73.614132
 10
119.047111
 20
73.638121
 10
119.235111
 20
73.638132
 10
119.422112
 20
73.61414299999999
 10
119.605111
 20
73.56813199999999
 10
119.780111
 20
73.498133
 10
119.945111
 20
73.407133
 10
120.097111
 20
73.29713100000001
 10
120.234111
 20
73.16813299999999
 10
120.355111
 20
73.023133
 10
120.455111
 20
72.864132
 10
120.536111
 20
72.69313299999999
 10
120.594111
 20
72.514131
 10
120.629111
 20
72.329132
 10
120.641111
 20
72.14113199999999
  0
LWPOLYLINE
  5
121
330
1F
100
AcDbEntity
  8
LAYER_1
 62
     7
100
AcDbPolyline
 90
       53
 70
     0
 43
0.0
 10
110.141111
 20
95.64111899999998
 10
110.141111
 20
92.64112500000001
 10
110.129111
 20
92.453137
 10
110.094111
 20
92.26814
 10
110.036111
 20
92.089127
 10
109.955111
 20
91.91812799999999
 10
109.855111
 20
91.75912399999999
 10
109.734111
 20
91.61414699999999
 10
109.597111
 20
91.485143
 10
109.445111
 20
91.375133
 10
109.280111
 20
91.284144
 10
109.105111
 20
91.21412499999999
 10
108.922111
 20
91.16812299999999
 10
108.735111
 20
91.144134
 10
108.547111
 20
91.144134
 10
108.360112
 20
91.16812299999999
 10
108.177111
 20
91.21412499999999
 10
108.002111
 20
91.284144
 10
107.837111
 20
91.375133
 10
107.685111
 20
91.485143
 10
107.548111
 20
91.61414699999999
 10
107.427111
 20
91.75912399999999
 10
107.327111
 20
91.91812799999999
 10
107.246111
 20
92.089127
 10
107.188111
 20
92.26814
 10
107.153111
 20
92.453137
 10
107.141111
 20
92.64112500000001
 10
107.141111
 20
95.64111899999998
 10
107.153111
 20
95.829135
 10
107.188111
 20
96.01413199999999
 10
107.246111
 20
96.193146
 10
107.327111
 20
96.36414399999999
 10
107.427111
 20
96.52312
 10
107.548111
 20
96.668126
 10
107.685111
 20
96.797129
 10
107.837111
 20
96.90713999999999
 10
108.002111
 20
96.99812800000001
 10
108.177111
 20
97.06811899999999
 10
108.360112
 20
97.114121
 10
108.547111
 20
97.13810999999999
 10
108.735111
 20
97.13813899999999
 10
108.922111
 20
97.11415
 10
109.105111
 20
97.06811899999999
 10
109.280111
 20
96.99812800000001
 10
109.445111
 20
96.90713999999999
 10
109.597111
 20
96.797129
 10
109.734111
 20
96.668126
 10
109.855111
 20
96.52312
 10
109.955111
 20
96.36414399999999
 10
110.036111
 20
96.193146
 10
110.094111
 20
96.01413199999999
 10
110.129111
 20
95.829135
 10
110.141112
 20
95.64111899999998
  0
LWPOLYLINE
  5
122
330
1F
100
AcDbEntity
  8
LAYER_1
 62
     7
100
AcDbPolyline
 90
       53
 70
     0
 43
0.0
 10
110.141111
 20
64.641133
 10
110.141111
 20
61.641133
 10
110.129111
 20
61.453134
 10
110.094111
 20
61.26813199999999
 10
110.036111
 20
61.08913199999999
 10
109.955111
 20
60.91813399999999
 10
109.855111
 20
60.75913199999999
 10
109.734111
 20
60.614132
 10
109.597111
 20
60.485131
 10
109.445111
 20
60.37513199999999
 10
109.280111
 20
60.284133
 10
109.105111
 20
60.21413299999999
 10
108.922111
 20
60.168131
 10
108.735111
 20
60.144142
 10
108.547111
 20
60.14413399999999
 10
108.360112
 20
60.168122
 10
108.177111
 20
60.21413299999999
 10
108.002111
 20
60.284133
 10
107.837111
 20
60.37513199999999
 10
107.685111
 20
60.485131
 10
107.548111
 20
60.614132
 10
107.427111
 20
60.75913199999999
 10
107.327111
 20
60.91813399999999
 10
107.246111
 20
61.08913199999999
 10
107.188111
 20
61.26813199999999
 10
107.153111
 20
61.453134
 10
107.141111
 20
61.641133
 10
107.141111
 20
64.641133
 10
107.153111
 20
64.82913299999999
 10
107.188111
 20
65.01413199999999
 10
107.246111
 20
65.19313100000001
 10
107.327111
 20
65.36413299999999
 10
107.427111
 20
65.52313100000001
 10
107.548111
 20
65.668131
 10
107.685111
 20
65.79713199999999
 10
107.837111
 20
65.90713100000001
 10
108.002111
 20
65.99813399999999
 10
108.177111
 20
66.06813299999998
 10
108.360112
 20
66.11413299999999
 10
108.547111
 20
66.13812199999999
 10
108.735111
 20
66.138133
 10
108.922111
 20
66.114144
 10
109.105111
 20
66.06813299999998
 10
109.280111
 20
65.99813399999999
 10
109.445111
 20
65.90713100000001
 10
109.597111
 20
65.79713199999999
 10
109.734111
 20
65.668131
 10
109.855111
 20
65.52313100000001
 10
109.955111
 20
65.36413299999999
 10
110.036111
 20
65.19313100000001
 10
110.094111
 20
65.01413199999999
 10
110.129111
 20
64.82913299999999
 10
110.141112
 20
64.641133
  0
LWPOLYLINE
  5
123
330
1F
100
AcDbEntity
  8
LAYER_1
 62
     7
100
AcDbPolyline
 90
       51
 70
     0
 43
0.0
 10
107.141111
 20
78.641125
 10
107.031111
 20
76.886126
 10
106.701111
 20
75.159123
 10
106.158111
 20
73.48713199999998
 10
105.409111
 20
71.896132
 10
104.467111
 20
70.412132
 10
103.347111
 20
69.057132
 10
102.065111
 20
67.85413100000001
 10
100.643111
 20
66.820131
 10
99.102112
 20
65.97313199999999
 10
97.467111
 20
65.326132
 10
95.76411099999999
 20
64.889133
 10
94.02011100000001
 20
64.66913199999999
 10
92.262111
 20
64.66913199999999
 10
90.51811200000001
 20
64.889133
 10
88.815112
 20
65.326132
 10
87.180111
 20
65.97313199999999
 10
85.639111
 20
66.820131
 10
84.217112
 20
67.85413100000001
 10
82.93511099999999
 20
69.057132
 10
81.81511099999999
 20
70.412132
 10
80.87311099999999
 20
71.896132
 10
80.12411099999999
 20
73.48713199999998
 10
79.58111099999999
 20
75.159123
 10
79.25111099999999
 20
76.886126
 10
79.14111099999999
 20
78.641125
 10
79.25111099999999
 20
80.39612400000001
 10
79.58111099999999
 20
82.123126
 10
80.12411099999999
 20
83.795123
 10
80.87311099999999
 20
85.386123
 10
81.81511099999999
 20
86.870132
 10
82.93511099999999
 20
88.225137
 10
84.217112
 20
89.42813800000001
 10
85.639111
 20
90.462144
 10
87.180111
 20
91.30912099999999
 10
88.815112
 20
91.956143
 10
90.51811200000001
 20
92.393136
 10
92.262111
 20
92.613129
 10
94.02011100000001
 20
92.613129
 10
95.76411099999999
 20
92.393136
 10
97.467111
 20
91.956143
 10
99.102112
 20
91.30912099999999
 10
100.643111
 20
90.462144
 10
102.065111
 20
89.42813800000001
 10
103.347111
 20
88.225137
 10
104.467111
 20
86.870132
 10
105.409111
 20
85.386123
 10
106.158111
 20
83.795123
 10
106.701111
 20
82.123126
 10
107.031111
 20
80.39612400000001
 10
107.141111
 20
78.641125
  0
LWPOLYLINE
  5
124
330
1F
100
AcDbEntity
  8
LAYER_1
 62
     7
100
AcDbPolyline
 90
       53
 70
     0
 43
0.0
 10
79.14111099999999
 20
95.64111899999998
 10
79.14111099999999
 20
92.64112500000001
 10
79.12911099999999
 20
92.453137
 10
79.09411099999999
 20
92.26814
 10
79.036112
 20
92.089127
 10
78.955111
 20
91.91812799999999
 10
78.85511099999999
 20
91.75912399999999
 10
78.734111
 20
91.61414699999999
 10
78.597111
 20
91.485143
 10
78.445111
 20
91.375133
 10
78.28011100000001
 20
91.284144
 10
78.10511099999999
 20
91.21412499999999
 10
77.922111
 20
91.16812299999999
 10
77.735111
 20
91.144134
 10
77.547111
 20
91.144134
 10
77.360111
 20
91.16812299999999
 10
77.17711099999999
 20
91.21412499999999
 10
77.002111
 20
91.284144
 10
76.837111
 20
91.375133
 10
76.68511099999999
 20
91.485143
 10
76.54811200000001
 20
91.61414699999999
 10
76.42711099999999
 20
91.75912399999999
 10
76.327111
 20
91.91812799999999
 10
76.246111
 20
92.089127
 10
76.18811099999999
 20
92.26814
 10
76.15311099999999
 20
92.453137
 10
76.14111099999999
 20
92.64112500000001
 10
76.14111199999999
 20
95.64111899999998
 10
76.15311199999999
 20
95.829135
 10
76.18811099999999
 20
96.01413199999999
 10
76.246111
 20
96.193146
 10
76.327111
 20
96.36414399999999
 10
76.42711099999999
 20
96.52312
 10
76.54811200000001
 20
96.668126
 10
76.68511099999999
 20
96.797129
 10
76.837111
 20
96.90713999999999
 10
77.002111
 20
96.99812800000001
 10
77.17711099999999
 20
97.06811899999999
 10
77.360111
 20
97.114121
 10
77.547111
 20
97.13810999999999
 10
77.735111
 20
97.13813899999999
 10
77.922111
 20
97.11415
 10
78.10511099999999
 20
97.06811899999999
 10
78.28011100000001
 20
96.99812800000001
 10
78.445111
 20
96.90713999999999
 10
78.597111
 20
96.797129
 10
78.734111
 20
96.668126
 10
78.85511099999999
 20
96.52312
 10
78.955111
 20
96.36414399999999
 10
79.036112
 20
96.193146
 10
79.09411099999999
 20
96.01413199999999
 10
79.12911099999999
 20
95.829135
 10
79.14111099999999
 20
95.64111899999998
  0
LWPOLYLINE
  5
125
330
1F
100
AcDbEntity
  8
LAYER_1
 62
     7
100
AcDbPolyline
 90
       53
 70
     0
 43
0.0
 10
79.14111099999999
 20
64.641133
 10
79.14111099999999
 20
61.641133
 10
79.12911099999999
 20
61.453134
 10
79.09411099999999
 20
61.26813199999999
 10
79.036112
 20
61.08913199999999
 10
78.955111
 20
60.91813399999999
 10
78.85511099999999
 20
60.75913199999999
 10
78.734111
 20
60.614132
 10
78.597111
 20
60.485131
 10
78.445111
 20
60.37513199999999
 10
78.28011100000001
 20
60.284133
 10
78.10511099999999
 20
60.21413299999999
 10
77.922111
 20
60.168131
 10
77.735111
 20
60.144142
 10
77.547111
 20
60.14413399999999
 10
77.360111
 20
60.168122
 10
77.17711099999999
 20
60.21413299999999
 10
77.002111
 20
60.284133
 10
76.837111
 20
60.37513199999999
 10
76.68511099999999
 20
60.485131
 10
76.54811200000001
 20
60.614132
 10
76.42711099999999
 20
60.75913199999999
 10
76.327111
 20
60.91813399999999
 10
76.246111
 20
61.08913199999999
 10
76.18811099999999
 20
61.26813199999999
 10
76.15311099999999
 20
61.453134
 10
76.14111099999999
 20
61.641133
 10
76.14111199999999
 20
64.641133
 10
76.15311199999999
 20
64.82913299999999
 10
76.18811099999999
 20
65.01413199999999
 10
76.246111
 20
65.19313100000001
 10
76.327111
 20
65.36413299999999
 10
76.42711099999999
 20
65.52313100000001
 10
76.54811200000001
 20
65.668131
 10
76.68511099999999
 20
65.79713199999999
 10
76.837111
 20
65.90713100000001
 10
77.002111
 20
65.99813399999999
 10
77.17711099999999
 20
66.06813299999998
 10
77.360111
 20
66.11413299999999
 10
77.547111
 20
66.13812199999999
 10
77.735111
 20
66.138133
 10
77.922111
 20
66.114144
 10
78.10511099999999
 20
66.06813299999998
 10
78.28011100000001
 20
65.99813399999999
 10
78.445111
 20
65.90713100000001
 10
78.597111
 20
65.79713199999999
 10
78.734111
 20
65.668131
 10
78.85511099999999
 20
65.52313100000001
 10
78.955111
 20
65.36413299999999
 10
79.036112
 20
65.19313100000001
 10
79.09411099999999
 20
65.01413199999999
 10
79.12911099999999
 20
64.82913299999999
 10
79.14111099999999
 20
64.641133
  0
LWPOLYLINE
  5
126
330
1F
100
AcDbEntity
  8
LAYER_1
 62
     7
100
AcDbPolyline
 90
        5
 70
     0
 43
0.0
 10
69.641111
 20
114.641137
 10
69.641111
 20
109.641119
 10
64.64111199999999
 20
109.641119
 10
64.64111199999999
 20
114.641137
 10
69.641111
 20
114.641137
  0
LWPOLYLINE
  5
127
330
1F
100
AcDbEntity
  8
LAYER_1
 62
     7
100
AcDbPolyline
 90
        5
 70
     0
 43
0.0
 10
69.641111
 20
94.64112099999999
 10
69.641111
 20
89.641131
 10
64.64111199999999
 20
89.641131
 10
64.64111199999999
 20
94.64112099999999
 10
69.641111
 20
94.64112099999999
  0
LWPOLYLINE
  5
128
330
1F
100
AcDbEntity
  8
LAYER_1
 62
     7
100
AcDbPolyline
 90
        5
 70
     0
 43
0.0
 10
69.641111
 20
84.64114100000001
 10
69.641111
 20
79.641123
 10
64.64111199999999
 20
79.641123
 10
64.64111199999999
 20
84.64114100000001
 10
69.641111
 20
84.64114100000001
  0
LWPOLYLINE
  5
129
330
1F
100
AcDbEntity
  8
LAYER_1
 62
     7
100
AcDbPolyline
 90
        5
 70
     0
 43
0.0
 10
69.641111
 20
64.641133
 10
69.641111
 20
59.64113199999999
 10
64.64111199999999
 20
59.64113199999999
 10
64.64111199999999
 20
64.641133
 10
69.641111
 20
64.641133
  0
LWPOLYLINE
  5
12A
330
1F
100
AcDbEntity
  8
LAYER_1
 62
     7
100
AcDbPolyline
 90
       51
 70
     0
 43
0.0
 10
68.64111099999999
 20
102.14112
 10
68.62911099999999
 20
101.953132
 10
68.59411099999999
 20
101.768135
 10
68.53611100000001
 20
101.589122
 10
68.455111
 20
101.418123
 10
68.355112
 20
101.259119
 10
68.234111
 20
101.114142
 10
68.097111
 20
100.985138
 10
67.945111
 20
100.875128
 10
67.780111
 20
100.784139
 10
67.60511099999999
 20
100.71412
 10
67.422111
 20
100.668146
 10
67.235111
 20
100.644157
 10
67.047111
 20
100.644129
 10
66.860111
 20
100.668118
 10
66.677111
 20
100.71412
 10
66.502112
 20
100.784139
 10
66.33711099999999
 20
100.875128
 10
66.18511099999999
 20
100.985138
 10
66.04811099999999
 20
101.114142
 10
65.92711099999999
 20
101.259119
 10
65.827111
 20
101.418123
 10
65.746111
 20
101.589122
 10
65.688112
 20
101.768135
 10
65.65311099999999
 20
101.953132
 10
65.64111099999999
 20
102.14112
 10
65.65311099999999
 20
102.329137
 10
65.688112
 20
102.514133
 10
65.746111
 20
102.693119
 10
65.827111
 20
102.864145
 10
65.92711099999999
 20
103.023121
 10
66.04811099999999
 20
103.168127
 10
66.18511099999999
 20
103.297131
 10
66.33711099999999
 20
103.407141
 10
66.502112
 20
103.498129
 10
66.677111
 20
103.56812
 10
66.860111
 20
103.614123
 10
67.047111
 20
103.638111
 10
67.235111
 20
103.63814
 10
67.422111
 20
103.614151
 10
67.60511099999999
 20
103.56812
 10
67.780111
 20
103.498129
 10
67.945111
 20
103.407141
 10
68.097111
 20
103.297131
 10
68.234111
 20
103.168127
 10
68.355112
 20
103.023121
 10
68.455111
 20
102.864145
 10
68.53611100000001
 20
102.693119
 10
68.59411099999999
 20
102.514133
 10
68.62911099999999
 20
102.329137
 10
68.64111199999999
 20
102.14112
  0
LWPOLYLINE
  5
12B
330
1F
100
AcDbEntity
  8
LAYER_1
 62
     7
100
AcDbPolyline
 90
       51
 70
     0
 43
0.0
 10
68.64111099999999
 20
72.14113199999999
 10
68.62911099999999
 20
71.95313299999999
 10
68.59411099999999
 20
71.76813299999999
 10
68.53611100000001
 20
71.58913100000001
 10
68.455111
 20
71.418132
 10
68.355112
 20
71.25913100000001
 10
68.234111
 20
71.114131
 10
68.097111
 20
70.98513299999999
 10
67.945111
 20
70.87513100000001
 10
67.780111
 20
70.784131
 10
67.60511099999999
 20
70.71413199999999
 10
67.422111
 20
70.66813299999999
 10
67.235111
 20
70.644144
 10
67.047111
 20
70.644132
 10
66.860111
 20
70.66812099999999
 10
66.677111
 20
70.71413199999999
 10
66.502112
 20
70.784131
 10
66.33711099999999
 20
70.87513100000001
 10
66.18511099999999
 20
70.98513299999999
 10
66.04811099999999
 20
71.114131
 10
65.92711099999999
 20
71.25913100000001
 10
65.827111
 20
71.418132
 10
65.746111
 20
71.58913100000001
 10
65.688112
 20
71.76813299999999
 10
65.65311099999999
 20
71.95313299999999
 10
65.64111099999999
 20
72.14113199999999
 10
65.65311099999999
 20
72.329132
 10
65.688112
 20
72.514131
 10
65.746111
 20
72.69313299999999
 10
65.827111
 20
72.864132
 10
65.92711099999999
 20
73.023133
 10
66.04811099999999
 20
73.16813299999999
 10
66.18511099999999
 20
73.29713100000001
 10
66.33711099999999
 20
73.407133
 10
66.502112
 20
73.498133
 10
66.677111
 20
73.56813199999999
 10
66.860111
 20
73.614132
 10
67.047111
 20
73.638121
 10
67.235111
 20
73.638132
 10
67.422111
 20
73.61414299999999
 10
67.60511099999999
 20
73.56813199999999
 10
67.780111
 20
73.498133
 10
67.945111
 20
73.407133
 10
68.097111
 20
73.29713100000001
 10
68.234111
 20
73.16813299999999
 10
68.355112
 20
73.023133
 10
68.455111
 20
72.864132
 10
68.53611100000001
 20
72.69313299999999
 10
68.59411099999999
 20
72.514131
 10
68.62911099999999
 20
72.329132
 10
68.64111199999999
 20
72.14113199999999
  0
LWPOLYLINE
  5
12C
330
1F
100
AcDbEntity
  8
LAYER_1
 62
     7
100
AcDbPolyline
 90
       38
 70
     0
 43
0.0
 10
0.141111
 20
119.141143
 10
2.641111999999999
 20
119.141143
 10
2.641111999999999
 20
124.641146
 10
7.641111
 20
124.641146
 10
7.641111
 20
119.141143
 10
12.241111
 20
119.141143
 10
12.241111
 20
116.966141
 10
10.991111
 20
116.966141
 10
10.991111
 20
115.316128
 10
12.241111
 20
115.316128
 10
12.241111
 20
113.141126
 10
15.041111
 20
113.141126
 10
15.041111
 20
115.316128
 10
16.291111
 20
115.316128
 10
16.291111
 20
116.966141
 10
15.041111
 20
116.966141
 10
15.041111
 20
119.141143
 10
21.141111
 20
119.141143
 10
21.141111
 20
99.641139
 10
41.14111099999999
 20
99.641139
 10
41.14111099999999
 20
119.141143
 10
47.241111
 20
119.141143
 10
47.241111
 20
116.966141
 10
45.991111
 20
116.966141
 10
45.991111
 20
115.316128
 10
47.241111
 20
115.316128
 10
47.241111
 20
113.141126
 10
50.041111
 20
113.141126
 10
50.041111
 20
115.316128
 10
51.291111
 20
115.316128
 10
51.291111
 20
116.966141
 10
50.041111
 20
116.966141
 10
50.041111
 20
119.141143
 10
54.641111
 20
119.141143
 10
54.641111
 20
124.641146
 10
59.641111
 20
124.641146
 10
59.641111
 20
119.141143
 10
64.64111199999999
 20
119.141143
  0
LWPOLYLINE
  5
12D
330
1F
100
AcDbEntity
  8
LAYER_1
 62
     7
100
AcDbPolyline
 90
        5
 70
     0
 43
0.0
 10
59.641111
 20
114.641137
 10
59.641111
 20
109.641119
 10
54.641111
 20
109.641119
 10
54.641111
 20
114.641137
 10
59.641111
 20
114.641137
  0
LWPOLYLINE
  5
12E
330
1F
100
AcDbEntity
  8
LAYER_1
 62
     7
100
AcDbPolyline
 90
        5
 70
     0
 43
0.0
 10
59.641111
 20
94.64112099999999
 10
59.641111
 20
89.641131
 10
54.641111
 20
89.641131
 10
54.641111
 20
94.64112099999999
 10
59.641111
 20
94.64112099999999
  0
LWPOLYLINE
  5
12F
330
1F
100
AcDbEntity
  8
LAYER_1
 62
     7
100
AcDbPolyline
 90
        5
 70
     0
 43
0.0
 10
59.641111
 20
84.64114100000001
 10
59.641111
 20
79.641123
 10
54.641111
 20
79.641123
 10
54.641111
 20
84.64114100000001
 10
59.641111
 20
84.64114100000001
  0
LWPOLYLINE
  5
130
330
1F
100
AcDbEntity
  8
LAYER_1
 62
     7
100
AcDbPolyline
 90
        5
 70
     0
 43
0.0
 10
59.641111
 20
64.641133
 10
59.641111
 20
59.64113199999999
 10
54.641111
 20
59.64113199999999
 10
54.641111
 20
64.641133
 10
59.641111
 20
64.641133
  0
LWPOLYLINE
  5
131
330
1F
100
AcDbEntity
  8
LAYER_1
 62
     7
100
AcDbPolyline
 90
       51
 70
     0
 43
0.0
 10
58.64111099999999
 20
102.14112
 10
58.629111
 20
101.953132
 10
58.59411099999999
 20
101.768135
 10
58.536111
 20
101.589122
 10
58.45511099999999
 20
101.418123
 10
58.355111
 20
101.259119
 10
58.234111
 20
101.114142
 10
58.097111
 20
100.985138
 10
57.945111
 20
100.875128
 10
57.780111
 20
100.784139
 10
57.605111
 20
100.71412
 10
57.422111
 20
100.668146
 10
57.23511099999999
 20
100.644157
 10
57.047111
 20
100.644129
 10
56.86011099999999
 20
100.668118
 10
56.677111
 20
100.71412
 10
56.50211099999999
 20
100.784139
 10
56.337111
 20
100.875128
 10
56.185111
 20
100.985138
 10
56.048111
 20
101.114142
 10
55.92711099999999
 20
101.259119
 10
55.827111
 20
101.418123
 10
55.746111
 20
101.589122
 10
55.688111
 20
101.768135
 10
55.65311099999999
 20
101.953132
 10
55.64111099999999
 20
102.14112
 10
55.65311099999999
 20
102.329137
 10
55.688111
 20
102.514133
 10
55.746111
 20
102.693119
 10
55.827111
 20
102.864145
 10
55.92711099999999
 20
103.023121
 10
56.048111
 20
103.168127
 10
56.185111
 20
103.297131
 10
56.337111
 20
103.407141
 10
56.50211099999999
 20
103.498129
 10
56.677111
 20
103.56812
 10
56.86011099999999
 20
103.614123
 10
57.047111
 20
103.638111
 10
57.23511099999999
 20
103.63814
 10
57.422111
 20
103.614151
 10
57.605111
 20
103.56812
 10
57.780111
 20
103.498129
 10
57.945111
 20
103.407141
 10
58.097111
 20
103.297131
 10
58.234111
 20
103.168127
 10
58.355111
 20
103.023121
 10
58.45511099999999
 20
102.864145
 10
58.536111
 20
102.693119
 10
58.59411099999999
 20
102.514133
 10
58.629111
 20
102.329137
 10
58.64111099999999
 20
102.14112
  0
LWPOLYLINE
  5
132
330
1F
100
AcDbEntity
  8
LAYER_1
 62
     7
100
AcDbPolyline
 90
       51
 70
     0
 43
0.0
 10
58.64111099999999
 20
72.14113199999999
 10
58.629111
 20
71.95313299999999
 10
58.59411099999999
 20
71.76813299999999
 10
58.536111
 20
71.58913100000001
 10
58.45511099999999
 20
71.418132
 10
58.355111
 20
71.25913100000001
 10
58.234111
 20
71.114131
 10
58.097111
 20
70.98513299999999
 10
57.945111
 20
70.87513100000001
 10
57.780111
 20
70.784131
 10
57.605111
 20
70.71413199999999
 10
57.422111
 20
70.66813299999999
 10
57.23511099999999
 20
70.644144
 10
57.047111
 20
70.644132
 10
56.86011099999999
 20
70.66812099999999
 10
56.677111
 20
70.71413199999999
 10
56.50211099999999
 20
70.784131
 10
56.337111
 20
70.87513100000001
 10
56.185111
 20
70.98513299999999
 10
56.048111
 20
71.114131
 10
55.92711099999999
 20
71.25913100000001
 10
55.827111
 20
71.418132
 10
55.746111
 20
71.58913100000001
 10
55.688111
 20
71.76813299999999
 10
55.65311099999999
 20
71.95313299999999
 10
55.64111099999999
 20
72.14113199999999
 10
55.65311099999999
 20
72.329132
 10
55.688111
 20
72.514131
 10
55.746111
 20
72.69313299999999
 10
55.827111
 20
72.864132
 10
55.92711099999999
 20
73.023133
 10
56.048111
 20
73.16813299999999
 10
56.185111
 20
73.29713100000001
 10
56.337111
 20
73.407133
 10
56.50211099999999
 20
73.498133
 10
56.677111
 20
73.56813199999999
 10
56.86011099999999
 20
73.614132
 10
57.047111
 20
73.638121
 10
57.23511099999999
 20
73.638132
 10
57.422111
 20
73.61414299999999
 10
57.605111
 20
73.56813199999999
 10
57.780111
 20
73.498133
 10
57.945111
 20
73.407133
 10
58.097111
 20
73.29713100000001
 10
58.234111
 20
73.16813299999999
 10
58.355111
 20
73.023133
 10
58.45511099999999
 20
72.864132
 10
58.536111
 20
72.69313299999999
 10
58.59411099999999
 20
72.514131
 10
58.629111
 20
72.329132
 10
58.64111099999999
 20
72.14113199999999
  0
LWPOLYLINE
  5
133
330
1F
100
AcDbEntity
  8
LAYER_1
 62
     7
100
AcDbPolyline
 90
       53
 70
     0
 43
0.0
 10
48.14111099999999
 20
95.64111899999998
 10
48.14111099999999
 20
92.64112500000001
 10
48.129111
 20
92.453137
 10
48.094111
 20
92.26814
 10
48.036111
 20
92.089127
 10
47.95511099999999
 20
91.91812799999999
 10
47.85511099999999
 20
91.75912399999999
 10
47.73411099999999
 20
91.61414699999999
 10
47.59711099999999
 20
91.485143
 10
47.44511099999999
 20
91.375133
 10
47.28011099999999
 20
91.284144
 10
47.105111
 20
91.21412499999999
 10
46.922111
 20
91.16812299999999
 10
46.73511099999999
 20
91.144134
 10
46.547111
 20
91.144134
 10
46.360111
 20
91.16812299999999
 10
46.177111
 20
91.21412499999999
 10
46.002111
 20
91.284144
 10
45.837111
 20
91.375133
 10
45.685111
 20
91.485143
 10
45.548111
 20
91.61414699999999
 10
45.427111
 20
91.75912399999999
 10
45.327111
 20
91.91812799999999
 10
45.246111
 20
92.089127
 10
45.18811099999999
 20
92.26814
 10
45.15311099999999
 20
92.453137
 10
45.141111
 20
92.64112500000001
 10
45.141111
 20
95.64111899999998
 10
45.15311099999999
 20
95.829135
 10
45.18811099999999
 20
96.01413199999999
 10
45.246111
 20
96.193146
 10
45.327111
 20
96.36414399999999
 10
45.427111
 20
96.52312
 10
45.548111
 20
96.668126
 10
45.685111
 20
96.797129
 10
45.837111
 20
96.90713999999999
 10
46.002111
 20
96.99812800000001
 10
46.177111
 20
97.06811899999999
 10
46.360111
 20
97.114121
 10
46.547111
 20
97.13810999999999
 10
46.73511099999999
 20
97.13813899999999
 10
46.922111
 20
97.11415
 10
47.105111
 20
97.06811899999999
 10
47.28011099999999
 20
96.99812800000001
 10
47.44511099999999
 20
96.90713999999999
 10
47.59711099999999
 20
96.797129
 10
47.73411099999999
 20
96.668126
 10
47.85511099999999
 20
96.52312
 10
47.95511099999999
 20
96.36414399999999
 10
48.036111
 20
96.193146
 10
48.094111
 20
96.01413199999999
 10
48.129111
 20
95.829135
 10
48.14111099999999
 20
95.64111899999998
  0
LWPOLYLINE
  5
134
330
1F
100
AcDbEntity
  8
LAYER_1
 62
     7
100
AcDbPolyline
 90
       53
 70
     0
 43
0.0
 10
48.14111099999999
 20
64.641133
 10
48.14111099999999
 20
61.641133
 10
48.129111
 20
61.453134
 10
48.094111
 20
61.26813199999999
 10
48.036111
 20
61.08913199999999
 10
47.95511099999999
 20
60.91813399999999
 10
47.85511099999999
 20
60.75913199999999
 10
47.73411099999999
 20
60.614132
 10
47.59711099999999
 20
60.485131
 10
47.44511099999999
 20
60.37513199999999
 10
47.28011099999999
 20
60.284133
 10
47.105111
 20
60.21413299999999
 10
46.922111
 20
60.168131
 10
46.73511099999999
 20
60.144142
 10
46.547111
 20
60.14413399999999
 10
46.360111
 20
60.168122
 10
46.177111
 20
60.21413299999999
 10
46.002111
 20
60.284133
 10
45.837111
 20
60.37513199999999
 10
45.685111
 20
60.485131
 10
45.548111
 20
60.614132
 10
45.427111
 20
60.75913199999999
 10
45.327111
 20
60.91813399999999
 10
45.246111
 20
61.08913199999999
 10
45.18811099999999
 20
61.26813199999999
 10
45.15311099999999
 20
61.453134
 10
45.141111
 20
61.641133
 10
45.141111
 20
64.641133
 10
45.15311099999999
 20
64.82913299999999
 10
45.18811099999999
 20
65.01413199999999
 10
45.246111
 20
65.19313100000001
 10
45.327111
 20
65.36413299999999
 10
45.427111
 20
65.52313100000001
 10
45.548111
 20
65.668131
 10
45.685111
 20
65.79713199999999
 10
45.837111
 20
65.90713100000001
 10
46.002111
 20
65.99813399999999
 10
46.177111
 20
66.06813299999998
 10
46.360111
 20
66.11413299999999
 10
46.547111
 20
66.13812199999999
 10
46.73511099999999
 20
66.138133
 10
46.922111
 20
66.114144
 10
47.105111
 20
66.06813299999998
 10
47.28011099999999
 20
65.99813399999999
 10
47.44511099999999
 20
65.90713100000001
 10
47.59711099999999
 20
65.79713199999999
 10
47.73411099999999
 20
65.668131
 10
47.85511099999999
 20
65.52313100000001
 10
47.95511099999999
 20
65.36413299999999
 10
48.036111
 20
65.19313100000001
 10
48.094111
 20
65.01413199999999
 10
48.129111
 20
64.82913299999999
 10
48.14111099999999
 20
64.641133
  0
LWPOLYLINE
  5
135
330
1F
100
AcDbEntity
  8
LAYER_1
 62
     7
100
AcDbPolyline
 90
       51
 70
     0
 43
0.0
 10
32.63200100000001
 20
64.66913199999999
 10
30.262111
 20
64.66913199999999
 10
28.518111
 20
64.889133
 10
26.815111
 20
65.326132
 10
25.180111
 20
65.97313199999999
 10
23.639111
 20
66.820131
 10
22.217111
 20
67.85413100000001
 10
20.935111
 20
69.057132
 10
19.815111
 20
70.412132
 10
18.87311099999999
 20
71.896132
 10
18.124111
 20
73.48713199999998
 10
17.581111
 20
75.159123
 10
17.251111
 20
76.886126
 10
17.141111
 20
78.641125
 10
17.251111
 20
80.39612400000001
 10
17.581111
 20
82.123126
 10
18.124111
 20
83.795123
 10
18.87311099999999
 20
85.386123
 10
19.815111
 20
86.870132
 10
20.935111
 20
88.225137
 10
22.217111
 20
89.42813800000001
 10
23.639111
 20
90.462144
 10
25.180111
 20
91.30912099999999
 10
26.815111
 20
91.956143
 10
28.518111
 20
92.393136
 10
30.262111
 20
92.613129
 10
32.020111
 20
92.613129
 10
33.764111
 20
92.393136
 10
35.467111
 20
91.956143
 10
37.102111
 20
91.30912099999999
 10
38.643111
 20
90.462144
 10
40.06511099999999
 20
89.42813800000001
 10
41.34711099999999
 20
88.225137
 10
42.46711099999999
 20
86.870132
 10
43.40911099999999
 20
85.386123
 10
44.15811099999999
 20
83.795123
 10
44.70111099999999
 20
82.123126
 10
45.03111099999999
 20
80.39612400000001
 10
45.141111
 20
78.641125
 10
45.03111099999999
 20
76.886126
 10
44.70111099999999
 20
75.159123
 10
44.15811099999999
 20
73.48713199999998
 10
43.40911099999999
 20
71.896132
 10
42.46711099999999
 20
70.412132
 10
41.34711099999999
 20
69.057132
 10
40.06511099999999
 20
67.85413100000001
 10
38.643111
 20
66.820131
 10
37.102111
 20
65.97313199999999
 10
35.467111
 20
65.326132
 10
33.764111
 20
64.889133
 10
32.020111
 20
64.66913199999999
  0
LWPOLYLINE
  5
136
330
1F
100
AcDbEntity
  8
LAYER_1
 62
     7
100
AcDbPolyline
 90
       53
 70
     0
 43
0.0
 10
17.141111
 20
95.64111899999998
 10
17.141111
 20
92.64112500000001
 10
17.129111
 20
92.453137
 10
17.094111
 20
92.26814
 10
17.036111
 20
92.089127
 10
16.955111
 20
91.91812799999999
 10
16.855111
 20
91.75912399999999
 10
16.734111
 20
91.61414699999999
 10
16.597111
 20
91.485143
 10
16.445111
 20
91.375133
 10
16.280111
 20
91.284144
 10
16.105111
 20
91.21412499999999
 10
15.922111
 20
91.16812299999999
 10
15.735111
 20
91.144134
 10
15.547111
 20
91.144134
 10
15.360111
 20
91.16812299999999
 10
15.177111
 20
91.21412499999999
 10
15.002111
 20
91.284144
 10
14.837111
 20
91.375133
 10
14.685111
 20
91.485143
 10
14.548111
 20
91.61414699999999
 10
14.427111
 20
91.75912399999999
 10
14.327111
 20
91.91812799999999
 10
14.246111
 20
92.089127
 10
14.188111
 20
92.26814
 10
14.153111
 20
92.453137
 10
14.141111
 20
92.64112500000001
 10
14.141111
 20
95.64111899999998
 10
14.153111
 20
95.829135
 10
14.188111
 20
96.01413199999999
 10
14.246111
 20
96.193146
 10
14.327111
 20
96.36414399999999
 10
14.427111
 20
96.52312
 10
14.548111
 20
96.668126
 10
14.685111
 20
96.797129
 10
14.837111
 20
96.90713999999999
 10
15.002111
 20
96.99812800000001
 10
15.177111
 20
97.06811899999999
 10
15.360111
 20
97.114121
 10
15.547111
 20
97.13810999999999
 10
15.735111
 20
97.13813899999999
 10
15.922111
 20
97.11415
 10
16.105111
 20
97.06811899999999
 10
16.280111
 20
96.99812800000001
 10
16.445111
 20
96.90713999999999
 10
16.597111
 20
96.797129
 10
16.734111
 20
96.668126
 10
16.855111
 20
96.52312
 10
16.955111
 20
96.36414399999999
 10
17.036111
 20
96.193146
 10
17.094111
 20
96.01413199999999
 10
17.129111
 20
95.829135
 10
17.141111
 20
95.64111899999998
  0
LWPOLYLINE
  5
137
330
1F
100
AcDbEntity
  8
LAYER_1
 62
     7
100
AcDbPolyline
 90
       53
 70
     0
 43
0.0
 10
17.141111
 20
64.641133
 10
17.141111
 20
61.641133
 10
17.129111
 20
61.453134
 10
17.094111
 20
61.26813199999999
 10
17.036111
 20
61.08913199999999
 10
16.955111
 20
60.91813399999999
 10
16.855111
 20
60.75913199999999
 10
16.734111
 20
60.614132
 10
16.597111
 20
60.485131
 10
16.445111
 20
60.37513199999999
 10
16.280111
 20
60.284133
 10
16.105111
 20
60.21413299999999
 10
15.922111
 20
60.168131
 10
15.735111
 20
60.144142
 10
15.547111
 20
60.14413399999999
 10
15.360111
 20
60.168122
 10
15.177111
 20
60.21413299999999
 10
15.002111
 20
60.284133
 10
14.837111
 20
60.37513199999999
 10
14.685111
 20
60.485131
 10
14.548111
 20
60.614132
 10
14.427111
 20
60.75913199999999
 10
14.327111
 20
60.91813399999999
 10
14.246111
 20
61.08913199999999
 10
14.188111
 20
61.26813199999999
 10
14.153111
 20
61.453134
 10
14.141111
 20
61.641133
 10
14.141111
 20
64.641133
 10
14.153111
 20
64.82913299999999
 10
14.188111
 20
65.01413199999999
 10
14.246111
 20
65.19313100000001
 10
14.327111
 20
65.36413299999999
 10
14.427111
 20
65.52313100000001
 10
14.548111
 20
65.668131
 10
14.685111
 20
65.79713199999999
 10
14.837111
 20
65.90713100000001
 10
15.002111
 20
65.99813399999999
 10
15.177111
 20
66.06813299999998
 10
15.360111
 20
66.11413299999999
 10
15.547111
 20
66.13812199999999
 10
15.735111
 20
66.138133
 10
15.922111
 20
66.114144
 10
16.105111
 20
66.06813299999998
 10
16.280111
 20
65.99813399999999
 10
16.445111
 20
65.90713100000001
 10
16.597111
 20
65.79713199999999
 10
16.734111
 20
65.668131
 10
16.855111
 20
65.52313100000001
 10
16.955111
 20
65.36413299999999
 10
17.036111
 20
65.19313100000001
 10
17.094111
 20
65.01413199999999
 10
17.129111
 20
64.82913299999999
 10
17.141111
 20
64.641133
  0
LWPOLYLINE
  5
138
330
1F
100
AcDbEntity
  8
LAYER_1
 62
     7
100
AcDbPolyline
 90
        5
 70
     0
 43
0.0
 10
7.641111
 20
114.641137
 10
7.641111
 20
109.641119
 10
2.641111999999999
 20
109.641119
 10
2.641111999999999
 20
114.641137
 10
7.641111
 20
114.641137
  0
LWPOLYLINE
  5
139
330
1F
100
AcDbEntity
  8
LAYER_1
 62
     7
100
AcDbPolyline
 90
        5
 70
     0
 43
0.0
 10
7.641111
 20
94.64112099999999
 10
7.641111
 20
89.641131
 10
2.641111999999999
 20
89.641131
 10
2.641111999999999
 20
94.64112099999999
 10
7.641111
 20
94.64112099999999
  0
LWPOLYLINE
  5
13A
330
1F
100
AcDbEntity
  8
LAYER_1
 62
     7
100
AcDbPolyline
 90
        5
 70
     0
 43
0.0
 10
7.641111
 20
84.64114100000001
 10
7.641111
 20
79.641123
 10
2.641111999999999
 20
79.641123
 10
2.641111999999999
 20
84.64114100000001
 10
7.641111
 20
84.64114100000001
  0
LWPOLYLINE
  5
13B
330
1F
100
AcDbEntity
  8
LAYER_1
 62
     7
100
AcDbPolyline
 90
        5
 70
     0
 43
0.0
 10
7.641111
 20
64.641133
 10
7.641111
 20
59.64113199999999
 10
2.641111999999999
 20
59.64113199999999
 10
2.641111999999999
 20
64.641133
 10
7.641111
 20
64.641133
  0
LWPOLYLINE
  5
13C
330
1F
100
AcDbEntity
  8
LAYER_1
 62
     7
100
AcDbPolyline
 90
       51
 70
     0
 43
0.0
 10
6.641111
 20
102.14112
 10
6.629110999999999
 20
101.953132
 10
6.594110999999999
 20
101.768135
 10
6.536111
 20
101.589122
 10
6.455111
 20
101.418123
 10
6.355110999999999
 20
101.259119
 10
6.234111
 20
101.114142
 10
6.097110999999999
 20
100.985138
 10
5.945110999999999
 20
100.875128
 10
5.780110999999999
 20
100.784139
 10
5.605110999999999
 20
100.71412
 10
5.422111
 20
100.668146
 10
5.235110999999999
 20
100.644157
 10
5.047111
 20
100.644129
 10
4.860110999999999
 20
100.668118
 10
4.677111
 20
100.71412
 10
4.502111
 20
100.784139
 10
4.337111
 20
100.875128
 10
4.185111
 20
100.985138
 10
4.048111
 20
101.114142
 10
3.927111
 20
101.259119
 10
3.827111
 20
101.418123
 10
3.746110999999999
 20
101.589122
 10
3.688111
 20
101.768135
 10
3.653110999999999
 20
101.953132
 10
3.641110999999999
 20
102.14112
 10
3.653110999999999
 20
102.329137
 10
3.688111
 20
102.514133
 10
3.746110999999999
 20
102.693119
 10
3.827111
 20
102.864145
 10
3.927111
 20
103.023121
 10
4.048111
 20
103.168127
 10
4.185111
 20
103.297131
 10
4.337111
 20
103.407141
 10
4.502111
 20
103.498129
 10
4.677111
 20
103.56812
 10
4.860110999999999
 20
103.614123
 10
5.047111
 20
103.638111
 10
5.235110999999999
 20
103.63814
 10
5.422111
 20
103.614151
 10
5.605110999999999
 20
103.56812
 10
5.780110999999999
 20
103.498129
 10
5.945110999999999
 20
103.407141
 10
6.097110999999999
 20
103.297131
 10
6.234111
 20
103.168127
 10
6.355110999999999
 20
103.023121
 10
6.455111
 20
102.864145
 10
6.536111
 20
102.693119
 10
6.594110999999999
 20
102.514133
 10
6.629110999999999
 20
102.329137
 10
6.641111
 20
102.14112
  0
LWPOLYLINE
  5
13D
330
1F
100
AcDbEntity
  8
LAYER_1
 62
     7
100
AcDbPolyline
 90
       51
 70
     0
 43
0.0
 10
6.641111
 20
72.14113199999999
 10
6.629110999999999
 20
71.95313299999999
 10
6.594110999999999
 20
71.76813299999999
 10
6.536111
 20
71.58913100000001
 10
6.455111
 20
71.418132
 10
6.355110999999999
 20
71.25913100000001
 10
6.234111
 20
71.114131
 10
6.097110999999999
 20
70.98513299999999
 10
5.945110999999999
 20
70.87513100000001
 10
5.780110999999999
 20
70.784131
 10
5.605110999999999
 20
70.71413199999999
 10
5.422111
 20
70.66813299999999
 10
5.235110999999999
 20
70.644144
 10
5.047111
 20
70.644132
 10
4.860110999999999
 20
70.66812099999999
 10
4.677111
 20
70.71413199999999
 10
4.502111
 20
70.784131
 10
4.337111
 20
70.87513100000001
 10
4.185111
 20
70.98513299999999
 10
4.048111
 20
71.114131
 10
3.927111
 20
71.25913100000001
 10
3.827111
 20
71.418132
 10
3.746110999999999
 20
71.58913100000001
 10
3.688111
 20
71.76813299999999
 10
3.653110999999999
 20
71.95313299999999
 10
3.641110999999999
 20
72.14113199999999
 10
3.653110999999999
 20
72.329132
 10
3.688111
 20
72.514131
 10
3.746110999999999
 20
72.69313299999999
 10
3.827111
 20
72.864132
 10
3.927111
 20
73.023133
 10
4.048111
 20
73.16813299999999
 10
4.185111
 20
73.29713100000001
 10
4.337111
 20
73.407133
 10
4.502111
 20
73.498133
 10
4.677111
 20
73.56813199999999
 10
4.860110999999999
 20
73.614132
 10
5.047111
 20
73.638121
 10
5.235110999999999
 20
73.638132
 10
5.422111
 20
73.61414299999999
 10
5.605110999999999
 20
73.56813199999999
 10
5.780110999999999
 20
73.498133
 10
5.945110999999999
 20
73.407133
 10
6.097110999999999
 20
73.29713100000001
 10
6.234111
 20
73.16813299999999
 10
6.355110999999999
 20
73.023133
 10
6.455111
 20
72.864132
 10
6.536111
 20
72.69313299999999
 10
6.594110999999999
 20
72.514131
 10
6.629110999999999
 20
72.329132
 10
6.641111
 20
72.14113199999999
  0
LWPOLYLINE
  5
13E
330
1F
100
AcDbEntity
  8
LAYER_1
 62
     7
100
AcDbPolyline
 90
       50
 70
     0
 43
0.0
 10
91.65022200000001
 20
65.17135500000001
 10
90.15422200000001
 20
65.360359
 10
88.695222
 20
65.73436
 10
87.294222
 20
66.289379
 10
85.97322099999999
 20
67.015367
 10
84.754222
 20
67.901375
 10
83.65522199999999
 20
68.932361
 10
82.695222
 20
70.09435500000001
 10
81.88722199999999
 20
71.366359
 10
81.24622200000001
 20
72.730367
 10
80.78022199999999
 20
74.16337900000001
 10
80.49822199999999
 20
75.64338000000001
 10
80.403222
 20
77.14737099999999
 10
80.49822199999999
 20
78.65136099999999
 10
80.78022199999999
 20
80.13136300000001
 10
81.24622200000001
 20
81.56437399999999
 10
81.88722199999999
 20
82.928382
 10
82.695222
 20
84.20035799999999
 10
83.65522199999999
 20
85.36238
 10
84.754222
 20
86.393366
 10
85.97322099999999
 20
87.279374
 10
87.294222
 20
88.005363
 10
88.695222
 20
88.56038100000001
 10
90.15422200000001
 20
88.934382
 10
91.65022200000001
 20
89.12335799999999
 10
93.15622199999999
 20
89.12335799999999
 10
94.65222199999999
 20
88.934382
 10
96.111222
 20
88.56038100000001
 10
97.512222
 20
88.005363
 10
98.833222
 20
87.279374
 10
100.052222
 20
86.393366
 10
101.151222
 20
85.36238
 10
102.111222
 20
84.20035799999999
 10
102.919222
 20
82.928382
 10
103.560222
 20
81.56437399999999
 10
104.026222
 20
80.13136300000001
 10
104.308222
 20
78.65136099999999
 10
104.403222
 20
77.14737099999999
 10
104.308222
 20
75.64338000000001
 10
104.026222
 20
74.16337900000001
 10
103.560222
 20
72.730367
 10
102.919222
 20
71.366359
 10
102.111222
 20
70.09435500000001
 10
101.151222
 20
68.932361
 10
100.052222
 20
67.901375
 10
98.833222
 20
67.015367
 10
97.512222
 20
66.289379
 10
96.111222
 20
65.73436
 10
94.65222199999999
 20
65.360359
 10
93.15622199999999
 20
65.17135500000001
  0
LWPOLYLINE
  5
13F
330
1F
100
AcDbEntity
  8
LAYER_1
 62
     7
100
AcDbPolyline
 90
       51
 70
     0
 43
0.0
 10
85.90322200000001
 20
72.14738100000001
 10
85.91522199999999
 20
72.335369
 10
85.950222
 20
72.52036499999999
 10
86.00822200000001
 20
72.69937900000001
 10
86.089222
 20
72.870377
 10
86.189222
 20
73.029381
 10
86.310222
 20
73.17435899999999
 10
86.447222
 20
73.303363
 10
86.599222
 20
73.41337299999999
 10
86.76422200000001
 20
73.504361
 10
86.93922200000001
 20
73.574381
 10
87.12222199999999
 20
73.62038299999999
 10
87.309222
 20
73.64437200000001
 10
87.49722099999999
 20
73.64437200000001
 10
87.68422199999999
 20
73.62038299999999
 10
87.86722199999999
 20
73.574381
 10
88.04222199999999
 20
73.504361
 10
88.20722099999999
 20
73.41337299999999
 10
88.359222
 20
73.303363
 10
88.496222
 20
73.17435899999999
 10
88.617222
 20
73.029381
 10
88.71722199999998
 20
72.870377
 10
88.79822199999999
 20
72.69937900000001
 10
88.856222
 20
72.52036499999999
 10
88.891222
 20
72.335369
 10
88.90322199999999
 20
72.14738100000001
 10
88.89122099999999
 20
71.959364
 10
88.856222
 20
71.774367
 10
88.79822199999999
 20
71.595382
 10
88.71722199999998
 20
71.42435500000001
 10
88.617222
 20
71.26538
 10
88.496222
 20
71.120374
 10
88.359222
 20
70.99136999999998
 10
88.20722099999999
 20
70.88136
 10
88.04222199999999
 20
70.79037099999999
 10
87.86722199999999
 20
70.72038
 10
87.68422199999999
 20
70.674378
 10
87.49722099999999
 20
70.65038900000001
 10
87.309222
 20
70.650361
 10
87.12222199999999
 20
70.67435
 10
86.93922200000001
 20
70.72038
 10
86.76422200000001
 20
70.79037099999999
 10
86.599222
 20
70.88136
 10
86.447222
 20
70.99136999999998
 10
86.310222
 20
71.120374
 10
86.189222
 20
71.26538
 10
86.089222
 20
71.42435500000001
 10
86.00822200000001
 20
71.595382
 10
85.950222
 20
71.774367
 10
85.91522199999999
 20
71.959364
 10
85.90322200000001
 20
72.14738100000001
  0
LWPOLYLINE
  5
140
330
1F
100
AcDbEntity
  8
LAYER_1
 62
     7
100
AcDbPolyline
 90
       14
 70
     0
 43
0.0
 10
85.906222
 20
82.053381
 10
85.906222
 20
82.24136899999999
 10
85.930222
 20
82.42836899999998
 10
85.97622199999999
 20
82.61136200000001
 10
86.04622199999999
 20
82.78636800000001
 10
86.13722199999999
 20
82.951355
 10
86.24722199999999
 20
83.10335999999999
 10
86.376222
 20
83.240379
 10
86.52122199999999
 20
83.361368
 10
86.68022200000001
 20
83.461359
 10
86.851222
 20
83.542357
 10
87.03022199999999
 20
83.60038199999999
 10
87.215222
 20
83.635377
 10
87.40322199999999
 20
83.647513
  0
LWPOLYLINE
  5
141
330
1F
100
AcDbEntity
  8
LAYER_1
 62
     7
100
AcDbPolyline
 90
        2
 70
     0
 43
0.0
 10
87.40322199999999
 20
83.647372
 10
87.591222
 20
83.63523599999998
  0
LWPOLYLINE
  5
142
330
1F
100
AcDbEntity
  8
LAYER_1
 62
     7
100
AcDbPolyline
 90
       25
 70
     0
 43
0.0
 10
87.591222
 20
83.635377
 10
87.77622200000001
 20
83.60038199999999
 10
87.95522199999998
 20
83.542357
 10
88.12622199999999
 20
83.461359
 10
88.285222
 20
83.361368
 10
88.430222
 20
83.240379
 10
88.559222
 20
83.10335999999999
 10
88.66922199999999
 20
82.951355
 10
88.76022199999999
 20
82.78636800000001
 10
88.83022199999999
 20
82.61136200000001
 10
88.876222
 20
82.42836899999998
 10
88.900222
 20
82.24136899999999
 10
88.900222
 20
82.053381
 10
88.87622099999999
 20
81.86638
 10
88.83022199999999
 20
81.683359
 10
88.76022199999999
 20
81.50838099999999
 10
88.66922199999999
 20
81.34336600000001
 10
88.559222
 20
81.191361
 10
88.430222
 20
81.05437
 10
88.285222
 20
80.93338199999999
 10
88.12622199999999
 20
80.83336199999999
 10
87.95522199999998
 20
80.75236399999999
 10
87.77622200000001
 20
80.69436800000001
 10
87.591222
 20
80.65937199999998
 10
87.40322199999999
 20
80.647237
  0
LWPOLYLINE
  5
143
330
1F
100
AcDbEntity
  8
LAYER_1
 62
     7
100
AcDbPolyline
 90
        2
 70
     0
 43
0.0
 10
87.40322199999999
 20
80.64737800000001
 10
87.215222
 20
80.659513
  0
LWPOLYLINE
  5
144
330
1F
100
AcDbEntity
  8
LAYER_1
 62
     7
100
AcDbPolyline
 90
       12
 70
     0
 43
0.0
 10
87.215222
 20
80.65937199999998
 10
87.03022199999999
 20
80.69436800000001
 10
86.851222
 20
80.75236399999999
 10
86.68022200000001
 20
80.83336199999999
 10
86.52122199999999
 20
80.93338199999999
 10
86.376222
 20
81.05437
 10
86.24722199999999
 20
81.191361
 10
86.13722199999999
 20
81.34336600000001
 10
86.04622199999999
 20
81.50838099999999
 10
85.97622199999999
 20
81.683359
 10
85.930222
 20
81.86638
 10
85.906221
 20
82.053381
  0
LWPOLYLINE
  5
145
330
1F
100
AcDbEntity
  8
LAYER_1
 62
     7
100
AcDbPolyline
 90
       51
 70
     0
 43
0.0
 10
95.90322200000001
 20
82.14736100000001
 10
95.91522199999999
 20
82.33537700000001
 10
95.950222
 20
82.520374
 10
96.00822200000001
 20
82.699359
 10
96.089222
 20
82.870357
 10
96.189222
 20
83.029361
 10
96.310222
 20
83.174367
 10
96.447222
 20
83.30337099999999
 10
96.599222
 20
83.41338099999999
 10
96.76422200000001
 20
83.50436999999999
 10
96.93922200000001
 20
83.57436099999999
 10
97.12222199999999
 20
83.62036299999999
 10
97.309222
 20
83.644352
 10
97.497222
 20
83.64437999999999
 10
97.68422199999999
 20
83.620391
 10
97.86722199999999
 20
83.57436099999999
 10
98.04222199999999
 20
83.50436999999999
 10
98.207222
 20
83.41338099999999
 10
98.359222
 20
83.30337099999999
 10
98.496222
 20
83.174367
 10
98.617222
 20
83.029361
 10
98.717222
 20
82.870357
 10
98.79822199999999
 20
82.699359
 10
98.856222
 20
82.520374
 10
98.891222
 20
82.33537700000001
 10
98.90322199999999
 20
82.14736100000001
 10
98.891222
 20
81.95937200000001
 10
98.856222
 20
81.77437600000001
 10
98.79822199999999
 20
81.59536199999999
 10
98.717222
 20
81.42436399999999
 10
98.617222
 20
81.26535999999999
 10
98.496222
 20
81.12038199999998
 10
98.359222
 20
80.99137799999999
 10
98.207222
 20
80.881368
 10
98.04222199999999
 20
80.79038
 10
97.86722199999999
 20
80.72036
 10
97.68422199999999
 20
80.674358
 10
97.497222
 20
80.650369
 10
97.309222
 20
80.650369
 10
97.12222199999999
 20
80.674358
 10
96.93922200000001
 20
80.72036
 10
96.76422200000001
 20
80.79038
 10
96.599222
 20
80.881368
 10
96.447222
 20
80.99137799999999
 10
96.310222
 20
81.12038199999998
 10
96.189222
 20
81.26535999999999
 10
96.089222
 20
81.42436399999999
 10
96.00822200000001
 20
81.59536199999999
 10
95.950222
 20
81.77437600000001
 10
95.915221
 20
81.95937200000001
 10
95.90322099999999
 20
82.14736100000001
  0
LWPOLYLINE
  5
146
330
1F
100
AcDbEntity
  8
LAYER_1
 62
     7
100
AcDbPolyline
 90
       14
 70
     0
 43
0.0
 10
95.906222
 20
72.05337199999999
 10
95.906222
 20
72.24136099999999
 10
95.930222
 20
72.42836099999999
 10
95.97622199999999
 20
72.61138199999999
 10
96.04622200000001
 20
72.78636
 10
96.13722199999999
 20
72.951375
 10
96.24722099999999
 20
73.10338
 10
96.376222
 20
73.24037099999999
 10
96.521222
 20
73.36135899999999
 10
96.68022200000001
 20
73.46137900000001
 10
96.851222
 20
73.542377
 10
97.03022199999999
 20
73.60037300000001
 10
97.215222
 20
73.63536899999999
 10
97.403221
 20
73.64750500000001
  0
LWPOLYLINE
  5
147
330
1F
100
AcDbEntity
  8
LAYER_1
 62
     7
100
AcDbPolyline
 90
        2
 70
     0
 43
0.0
 10
97.403221
 20
73.647363
 10
97.591222
 20
73.635228
  0
LWPOLYLINE
  5
148
330
1F
100
AcDbEntity
  8
LAYER_1
 62
     7
100
AcDbPolyline
 90
       25
 70
     0
 43
0.0
 10
97.591222
 20
73.63536899999999
 10
97.77622200000001
 20
73.60037300000001
 10
97.955222
 20
73.542377
 10
98.126221
 20
73.46137900000001
 10
98.285222
 20
73.36135899999999
 10
98.430222
 20
73.24037099999999
 10
98.559222
 20
73.10338
 10
98.66922199999999
 20
72.951375
 10
98.76022200000001
 20
72.78636
 10
98.83022199999999
 20
72.61138199999999
 10
98.876222
 20
72.42836099999999
 10
98.900222
 20
72.24136099999999
 10
98.900222
 20
72.05337199999999
 10
98.87622100000001
 20
71.86637199999999
 10
98.83022199999999
 20
71.683379
 10
98.76022200000001
 20
71.50837299999999
 10
98.66922199999999
 20
71.34335799999999
 10
98.559222
 20
71.191381
 10
98.430222
 20
71.05436199999999
 10
98.285222
 20
70.933373
 10
98.126221
 20
70.833382
 10
97.955222
 20
70.752356
 10
97.77622200000001
 20
70.69435899999999
 10
97.591222
 20
70.659364
 10
97.403221
 20
70.647228
  0
LWPOLYLINE
  5
149
330
1F
100
AcDbEntity
  8
LAYER_1
 62
     7
100
AcDbPolyline
 90
        2
 70
     0
 43
0.0
 10
97.403221
 20
70.64736899999999
 10
97.215222
 20
70.65950500000001
  0
LWPOLYLINE
  5
14A
330
1F
100
AcDbEntity
  8
LAYER_1
 62
     7
100
AcDbPolyline
 90
       12
 70
     0
 43
0.0
 10
97.215222
 20
70.659364
 10
97.03022199999999
 20
70.69435899999999
 10
96.851222
 20
70.752356
 10
96.68022200000001
 20
70.833382
 10
96.521222
 20
70.933373
 10
96.376222
 20
71.05436199999999
 10
96.24722099999999
 20
71.191381
 10
96.13722199999999
 20
71.34335799999999
 10
96.04622200000001
 20
71.50837299999999
 10
95.97622199999999
 20
71.683379
 10
95.930222
 20
71.86637199999999
 10
95.906221
 20
72.05337199999999
  0
LWPOLYLINE
  5
14B
330
1F
100
AcDbEntity
  8
LAYER_1
 62
     7
100
AcDbPolyline
 90
       50
 70
     0
 43
0.0
 10
31.126001
 20
64.66913199999999
 10
29.630001
 20
64.858137
 10
28.171001
 20
65.23213699999999
 10
26.770001
 20
65.78715600000001
 10
25.449001
 20
66.513144
 10
24.230001
 20
67.39915299999999
 10
23.131001
 20
68.43013899999999
 10
22.171001
 20
69.59213199999999
 10
21.363001
 20
70.864136
 10
20.722001
 20
72.228144
 10
20.256001
 20
73.661156
 10
19.974001
 20
75.14115699999999
 10
19.879001
 20
76.64514799999999
 10
19.974001
 20
78.14913799999999
 10
20.256001
 20
79.62914000000001
 10
20.722001
 20
81.062151
 10
21.363001
 20
82.426159
 10
22.171001
 20
83.69813499999999
 10
23.131001
 20
84.86015700000001
 10
24.230001
 20
85.891143
 10
25.449001
 20
86.777151
 10
26.770001
 20
87.50314000000001
 10
28.171001
 20
88.05815799999999
 10
29.630001
 20
88.432159
 10
31.126001
 20
88.62113499999999
 10
32.63200100000001
 20
88.62113499999999
 10
34.128001
 20
88.432159
 10
35.587001
 20
88.05815799999999
 10
36.98800100000001
 20
87.50314000000001
 10
38.309001
 20
86.777151
 10
39.52800100000001
 20
85.891143
 10
40.62700099999999
 20
84.86015700000001
 10
41.58700099999999
 20
83.69813499999999
 10
42.39500099999999
 20
82.426159
 10
43.03600099999999
 20
81.062151
 10
43.502001
 20
79.62914000000001
 10
43.784001
 20
78.14913799999999
 10
43.879001
 20
76.64514799999999
 10
43.784001
 20
75.14115699999999
 10
43.502001
 20
73.661156
 10
43.03600099999999
 20
72.228144
 10
42.39500099999999
 20
70.864136
 10
41.58700099999999
 20
69.59213199999999
 10
40.62700099999999
 20
68.43013899999999
 10
39.52800100000001
 20
67.39915299999999
 10
38.309001
 20
66.513144
 10
36.98800100000001
 20
65.78715600000001
 10
35.587001
 20
65.23213699999999
 10
34.128001
 20
64.858137
 10
32.63200100000001
 20
64.66913199999999
  0
LWPOLYLINE
  5
14C
330
1F
100
AcDbEntity
  8
LAYER_1
 62
     7
100
AcDbPolyline
 90
       51
 70
     0
 43
0.0
 10
25.379001
 20
71.645158
 10
25.391001
 20
71.833146
 10
25.426001
 20
72.01814300000001
 10
25.484001
 20
72.197156
 10
25.565001
 20
72.368155
 10
25.665001
 20
72.527159
 10
25.786001
 20
72.67213599999999
 10
25.923001
 20
72.80114000000001
 10
26.075001
 20
72.91115000000001
 10
26.240001
 20
73.002139
 10
26.415001
 20
73.072158
 10
26.598001
 20
73.11816
 10
26.785001
 20
73.142149
 10
26.973001
 20
73.142149
 10
27.160001
 20
73.11816
 10
27.343001
 20
73.072158
 10
27.518001
 20
73.002139
 10
27.683001
 20
72.91115000000001
 10
27.835001
 20
72.80114000000001
 10
27.972001
 20
72.67213599999999
 10
28.093001
 20
72.527159
 10
28.193001
 20
72.368155
 10
28.274001
 20
72.197156
 10
28.332001
 20
72.01814300000001
 10
28.367001
 20
71.833146
 10
28.379001
 20
71.645158
 10
28.367001
 20
71.45714100000001
 10
28.332001
 20
71.272145
 10
28.274001
 20
71.093159
 10
28.193001
 20
70.922133
 10
28.093001
 20
70.76315699999999
 10
27.972001
 20
70.618151
 10
27.835001
 20
70.489147
 10
27.683001
 20
70.379137
 10
27.518001
 20
70.288149
 10
27.343001
 20
70.21815699999999
 10
27.160001
 20
70.172155
 10
26.973001
 20
70.148166
 10
26.785001
 20
70.148138
 10
26.598001
 20
70.172127
 10
26.415001
 20
70.21815699999999
 10
26.240001
 20
70.288149
 10
26.075001
 20
70.379137
 10
25.923001
 20
70.489147
 10
25.786001
 20
70.618151
 10
25.665001
 20
70.76315699999999
 10
25.565001
 20
70.922133
 10
25.484001
 20
71.093159
 10
25.426001
 20
71.272145
 10
25.391001
 20
71.45714100000001
 10
25.379001
 20
71.645158
  0
LWPOLYLINE
  5
14D
330
1F
100
AcDbEntity
  8
LAYER_1
 62
     7
100
AcDbPolyline
 90
       14
 70
     0
 43
0.0
 10
25.382001
 20
81.551158
 10
25.382001
 20
81.73914599999999
 10
25.406001
 20
81.926146
 10
25.452001
 20
82.10913899999999
 10
25.522001
 20
82.28414499999999
 10
25.613001
 20
82.44913199999999
 10
25.723001
 20
82.60113699999999
 10
25.852001
 20
82.738156
 10
25.997001
 20
82.859145
 10
26.156001
 20
82.959136
 10
26.327001
 20
83.040134
 10
26.506001
 20
83.098159
 10
26.691001
 20
83.133154
 10
26.879001
 20
83.14529
  0
LWPOLYLINE
  5
14E
330
1F
100
AcDbEntity
  8
LAYER_1
 62
     7
100
AcDbPolyline
 90
        2
 70
     0
 43
0.0
 10
26.879001
 20
83.145149
 10
27.067001
 20
83.133013
  0
LWPOLYLINE
  5
14F
330
1F
100
AcDbEntity
  8
LAYER_1
 62
     7
100
AcDbPolyline
 90
       25
 70
     0
 43
0.0
 10
27.067001
 20
83.133154
 10
27.252001
 20
83.098159
 10
27.431001
 20
83.040134
 10
27.602001
 20
82.959136
 10
27.761001
 20
82.859145
 10
27.906001
 20
82.738156
 10
28.035001
 20
82.60113699999999
 10
28.145001
 20
82.44913199999999
 10
28.236001
 20
82.28414499999999
 10
28.306001
 20
82.10913899999999
 10
28.352001
 20
81.926146
 10
28.376001
 20
81.73914599999999
 10
28.376001
 20
81.551158
 10
28.352001
 20
81.36415699999998
 10
28.306001
 20
81.18113599999999
 10
28.236001
 20
81.00615799999999
 10
28.145001
 20
80.84114300000001
 10
28.035001
 20
80.689138
 10
27.906001
 20
80.55214699999998
 10
27.761001
 20
80.431159
 10
27.602001
 20
80.33113900000001
 10
27.431001
 20
80.25014099999999
 10
27.252001
 20
80.192145
 10
27.067001
 20
80.157149
 10
26.879001
 20
80.145014
  0
LWPOLYLINE
  5
150
330
1F
100
AcDbEntity
  8
LAYER_1
 62
     7
100
AcDbPolyline
 90
        2
 70
     0
 43
0.0
 10
26.879001
 20
80.14515499999999
 10
26.691001
 20
80.15729
  0
LWPOLYLINE
  5
151
330
1F
100
AcDbEntity
  8
LAYER_1
 62
     7
100
AcDbPolyline
 90
       12
 70
     0
 43
0.0
 10
26.691001
 20
80.157149
 10
26.506001
 20
80.192145
 10
26.327001
 20
80.25014099999999
 10
26.156001
 20
80.33113900000001
 10
25.997001
 20
80.431159
 10
25.852001
 20
80.55214699999998
 10
25.723001
 20
80.689138
 10
25.613001
 20
80.84114300000001
 10
25.522001
 20
81.00615799999999
 10
25.452001
 20
81.18113599999999
 10
25.406001
 20
81.36415699999998
 10
25.382001
 20
81.551158
  0
LWPOLYLINE
  5
152
330
1F
100
AcDbEntity
  8
LAYER_1
 62
     7
100
AcDbPolyline
 90
       51
 70
     0
 43
0.0
 10
35.379001
 20
81.64513799999999
 10
35.39100100000001
 20
81.83315400000001
 10
35.426001
 20
82.01815100000001
 10
35.484001
 20
82.197136
 10
35.565001
 20
82.368135
 10
35.66500100000001
 20
82.52713900000001
 10
35.786001
 20
82.67214399999998
 10
35.923001
 20
82.80114799999999
 10
36.075001
 20
82.911158
 10
36.240001
 20
83.00214699999999
 10
36.415001
 20
83.07213799999999
 10
36.598001
 20
83.11814
 10
36.785001
 20
83.14212899999999
 10
36.973001
 20
83.142157
 10
37.160001
 20
83.118168
 10
37.343001
 20
83.07213799999999
 10
37.518001
 20
83.00214699999999
 10
37.68300100000001
 20
82.911158
 10
37.835001
 20
82.80114799999999
 10
37.972001
 20
82.67214399999998
 10
38.093001
 20
82.52713900000001
 10
38.193001
 20
82.368135
 10
38.274001
 20
82.197136
 10
38.332001
 20
82.01815100000001
 10
38.367001
 20
81.83315400000001
 10
38.379001
 20
81.64513799999999
 10
38.367001
 20
81.45714899999999
 10
38.332001
 20
81.27215300000001
 10
38.274001
 20
81.09313900000001
 10
38.193001
 20
80.92214099999999
 10
38.093001
 20
80.763137
 10
37.972001
 20
80.61815899999999
 10
37.835001
 20
80.48915500000001
 10
37.68300100000001
 20
80.37914499999999
 10
37.518001
 20
80.288157
 10
37.343001
 20
80.218137
 10
37.160001
 20
80.172135
 10
36.973001
 20
80.14814599999999
 10
36.785001
 20
80.14814599999999
 10
36.598001
 20
80.172135
 10
36.415001
 20
80.218137
 10
36.240001
 20
80.288157
 10
36.075001
 20
80.37914499999999
 10
35.923001
 20
80.48915500000001
 10
35.786001
 20
80.61815899999999
 10
35.66500100000001
 20
80.763137
 10
35.565001
 20
80.92214099999999
 10
35.484001
 20
81.09313900000001
 10
35.426001
 20
81.27215300000001
 10
35.39100100000001
 20
81.45714899999999
 10
35.379001
 20
81.64513799999999
  0
LWPOLYLINE
  5
153
330
1F
100
AcDbEntity
  8
LAYER_1
 62
     7
100
AcDbPolyline
 90
       14
 70
     0
 43
0.0
 10
35.382001
 20
71.551149
 10
35.382001
 20
71.739138
 10
35.40600100000001
 20
71.926138
 10
35.45200100000001
 20
72.10915899999999
 10
35.522001
 20
72.284137
 10
35.613001
 20
72.449152
 10
35.723001
 20
72.601157
 10
35.852001
 20
72.738148
 10
35.99700100000001
 20
72.859137
 10
36.156001
 20
72.959156
 10
36.327001
 20
73.040154
 10
36.506001
 20
73.098151
 10
36.691001
 20
73.13314599999999
 10
36.879001
 20
73.14528199999999
  0
LWPOLYLINE
  5
154
330
1F
100
AcDbEntity
  8
LAYER_1
 62
     7
100
AcDbPolyline
 90
        2
 70
     0
 43
0.0
 10
36.879001
 20
73.14514100000001
 10
37.067001
 20
73.13300500000001
  0
LWPOLYLINE
  5
155
330
1F
100
AcDbEntity
  8
LAYER_1
 62
     7
100
AcDbPolyline
 90
       25
 70
     0
 43
0.0
 10
37.067001
 20
73.13314599999999
 10
37.252001
 20
73.098151
 10
37.431001
 20
73.040154
 10
37.602001
 20
72.959156
 10
37.761001
 20
72.859137
 10
37.90600100000001
 20
72.738148
 10
38.035001
 20
72.601157
 10
38.145001
 20
72.449152
 10
38.236001
 20
72.284137
 10
38.306001
 20
72.10915899999999
 10
38.352001
 20
71.926138
 10
38.376001
 20
71.739138
 10
38.376001
 20
71.551149
 10
38.352001
 20
71.364149
 10
38.306001
 20
71.181156
 10
38.236001
 20
71.00615000000001
 10
38.145001
 20
70.84113499999999
 10
38.035001
 20
70.68915799999999
 10
37.90600100000001
 20
70.552139
 10
37.761001
 20
70.431151
 10
37.602001
 20
70.331159
 10
37.431001
 20
70.25013299999999
 10
37.252001
 20
70.192137
 10
37.067001
 20
70.15714100000001
 10
36.879001
 20
70.145005
  0
LWPOLYLINE
  5
156
330
1F
100
AcDbEntity
  8
LAYER_1
 62
     7
100
AcDbPolyline
 90
        2
 70
     0
 43
0.0
 10
36.879001
 20
70.14514699999999
 10
36.691001
 20
70.15728199999999
  0
LWPOLYLINE
  5
157
330
1F
100
AcDbEntity
  8
LAYER_1
 62
     7
100
AcDbPolyline
 90
       12
 70
     0
 43
0.0
 10
36.691001
 20
70.15714100000001
 10
36.506001
 20
70.192137
 10
36.327001
 20
70.25013299999999
 10
36.156001
 20
70.331159
 10
35.99700100000001
 20
70.431151
 10
35.852001
 20
70.552139
 10
35.723001
 20
70.68915799999999
 10
35.613001
 20
70.84113499999999
 10
35.522001
 20
71.00615000000001
 10
35.45200100000001
 20
71.181156
 10
35.40600100000001
 20
71.364149
 10
35.382001
 20
71.551149
  0
LINE
  5
1005D
330
1F
100
AcDbEntity
  8
LAYER_1
 62
     7
100
AcDbLine
 10
124.141111
 20
50.14112100000001
 30
0.0
 11
0.141111
 21
50.14112100000001
 31
0.0
  0
LWPOLYLINE
  5
1005E
330
1F
100
AcDbEntity
  8
LAYER_1
 62
     7
100
AcDbPolyline
 90
       11
 70
     0
 43
0.0
 10
0.141111
 20
119.141143
 10
0.141111
 20
0.141116
 10
2.641111999999999
 20
0.141116
 10
2.641111999999999
 20
5.141115
 10
7.641111
 20
5.141115
 10
7.641111
 20
0.141116
 10
54.641111
 20
0.141116
 10
54.641111
 20
5.141115
 10
59.641111
 20
5.141115
 10
59.641111
 20
0.141116
 10
64.64111199999999
 20
0.141116
  0
ENDSEC
  0
SECTION
  2
OBJECTS
  0
DICTIONARY
  5
C
330
0
100
AcDbDictionary
281
     1
  3
ACAD_CIP_PREVIOUS_PRODUCT_INFO
350
10056
  3
ACAD_COLOR
350
10035
  3
ACAD_DETAILVIEWSTYLE
350
1004E
  3
ACAD_GROUP
350
D
  3
ACAD_LAYOUT
350
10050
  3
ACAD_MATERIAL
350
10003
  3
ACAD_MLEADERSTYLE
350
1004A
  3
ACAD_MLINESTYLE
350
17
  3
ACAD_PLOTSETTINGS
350
10051
  3
ACAD_PLOTSTYLENAME
350
10001
  3
ACAD_SCALELIST
350
10038
  3
ACAD_SECTIONVIEWSTYLE
350
1004C
  3
ACAD_TABLESTYLE
350
10036
  3
ACAD_VISUALSTYLE
350
1001C
  3
ACDB_RECOMPOSE_DATA
350
10074
  3
AcDbVariableDictionary
350
10063
  0
DICTIONARY
  5
1005F
330
50
100
AcDbDictionary
280
     1
281
     1
  3
ADSK_XREC_LAYER_RECONCILED
360
10060
  0
DICTIONARY
  5
10061
330
51
100
AcDbDictionary
280
     1
281
     1
  3
ADSK_XREC_LAYER_RECONCILED
360
10062
  0
XRECORD
  5
10056
102
{ACAD_REACTORS
330
C
102
}
330
C
100
AcDbXrecord
280
     1
300
ACD
300
2014
300
ACD_F_S
  0
DICTIONARY
  5
10035
102
{ACAD_REACTORS
330
C
102
}
330
C
100
AcDbDictionary
281
     1
  0
DICTIONARY
  5
1004E
102
{ACAD_REACTORS
330
C
102
}
330
C
100
AcDbDictionary
281
     1
  3
Metric50
350
1004F
  0
DICTIONARY
  5
D
330
C
100
AcDbDictionary
281
     1
  0
DICTIONARY
  5
10050
102
{ACAD_REACTORS
330
C
102
}
330
C
100
AcDbDictionary
281
     1
  3
Layout1
350
10053
  3
Model
350
10052
  0
DICTIONARY
  5
10003
102
{ACAD_REACTORS
330
C
102
}
330
C
100
AcDbDictionary
281
     1
  3
ByBlock
350
1000C
  3
ByLayer
350
10004
  3
Global
350
10014
  0
DICTIONARY
  5
1004A
102
{ACAD_REACTORS
330
C
102
}
330
C
100
AcDbDictionary
281
     1
  3
Standard
350
1004B
  0
DICTIONARY
  5
17
330
C
100
AcDbDictionary
281
     1
  0
DICTIONARY
  5
10051
102
{ACAD_REACTORS
330
C
102
}
330
C
100
AcDbDictionary
281
     1
  0
ACDBDICTIONARYWDFLT
  5
10001
102
{ACAD_REACTORS
330
C
102
}
330
C
100
AcDbDictionary
281
     1
  3
Normal
350
10002
100
AcDbDictionaryWithDefault
340
10002
  0
DICTIONARY
  5
10038
102
{ACAD_REACTORS
330
C
102
}
330
C
100
AcDbDictionary
281
     1
  3
A0
350
10039
  3
A1
350
1003A
  3
A2
350
1003B
  3
A3
350
1003C
  3
A4
350
1003D
  3
A5
350
1003E
  3
A6
350
1003F
  3
A7
350
10040
  3
A8
350
10041
  3
A9
350
10042
  3
B0
350
10043
  3
B1
350
10044
  3
B2
350
10045
  3
B3
350
10046
  3
B4
350
10047
  3
B5
350
10048
  3
B6
350
10049
  0
DICTIONARY
  5
1004C
102
{ACAD_REACTORS
330
C
102
}
330
C
100
AcDbDictionary
281
     1
  3
Metric50
350
1004D
  0
DICTIONARY
  5
10036
102
{ACAD_REACTORS
330
C
102
}
330
C
100
AcDbDictionary
281
     1
  3
Standard
350
10037
  0
DICTIONARY
  5
1001C
102
{ACAD_REACTORS
330
C
102
}
330
C
100
AcDbDictionary
281
     1
  3
2dWireframe
350
10022
  3
Basic
350
10021
  3
Brighten
350
10028
  3
ColorChange
350
1002C
  3
Conceptual
350
10025
  3
Dim
350
10027
  3
EdgeColorOff
350
10034
  3
Facepattern
350
1002B
  3
Flat
350
1001D
  3
FlatWithEdges
350
1001E
  3
Gouraud
350
1001F
  3
GouraudWithEdges
350
10020
  3
Hidden
350
10024
  3
JitterOff
350
10032
  3
Linepattern
350
1002A
  3
OverhangOff
350
10033
  3
Realistic
350
10026
  3
Shaded
350
10031
  3
Shaded with edges
350
10030
  3
Shades of Gray
350
1002D
  3
Sketchy
350
1002E
  3
Thicken
350
10029
  3
Wireframe
350
10023
  3
X-Ray
350
1002F
  0
XRECORD
  5
10074
102
{ACAD_REACTORS
330
C
102
}
330
C
100
AcDbXrecord
280
     1
 90
        1
330
10037
330
1004D
330
1004F
  0
DICTIONARY
  5
10063
102
{ACAD_REACTORS
330
C
102
}
330
C
100
AcDbDictionary
281
     1
  3
CANNOSCALE
350
10069
  3
CMLEADERSTYLE
350
10065
  3
CTABLESTYLE
350
10064
  3
CVIEWDETAILSTYLE
350
10066
  3
CVIEWSECTIONSTYLE
350
10067
  3
LAYEREVAL
350
1006B
  3
LAYERNOTIFY
350
1006C
  3
LIGHTINGUNITS
350
1006A
  3
MSLTSCALE
350
10068
  0
XRECORD
  5
10060
102
{ACAD_REACTORS
330
1005F
102
}
330
1005F
100
AcDbXrecord
280
     1
290
     1
  0
XRECORD
  5
10062
102
{ACAD_REACTORS
330
10061
102
}
330
10061
100
AcDbXrecord
280
     1
290
     1
  0
ACDBDETAILVIEWSTYLE
  5
1004F
102
{ACAD_XDICTIONARY
360
10072
102
}
102
{ACAD_REACTORS
330
1004E
102
}
330
1004E
100
AcDbModelDocViewStyle
 70
     0
  3
Metric50
290
     0
100
AcDbDetailViewStyle
 70
     0
 71
     0
 90
        3
 71
     1
340
11
 62
   256
 40
5.0
340
0
 62
   256
 40
5.0
300

 40
0.0
280
     1
 71
     2
340
16
 90
       25
 62
   256
 71
     3
340
11
 62
   256
 40
5.0
 90
        0
 40
15.0
 90
        1
300
%<\AcVar ViewDetailId>% (%<\AcVar ViewScale \f "%sn">%)
 71
     4
340
16
 90
       25
 62
   256
340
16
 90
       25
 62
   256
280
     0
  0
LAYOUT
  5
10053
102
{ACAD_REACTORS
330
10050
102
}
330
10050
100
AcDbPlotSettings
  1

  2
Canon LBP6020
  4

  6

 40
0.0
 41
0.0
 42
0.0
 43
0.0
 44
0.0
 45
0.0
 46
0.0
 47
0.0
 48
0.0
 49
0.0
140
0.0
141
0.0
142
1.0
143
1.0
 70
   688
 72
     0
 73
     0
 74
     5
  7

 75
    16
147
1.0
 76
     0
 77
     2
 78
   300
148
0.0
149
0.0
100
AcDbLayout
  1
Layout1
 70
     1
 71
     1
 10
0.0
 20
0.0
 11
12.0
 21
9.0
 12
0.0
 22
0.0
 32
0.0
 14
1.000000000000000E+20
 24
1.000000000000000E+20
 34
1.000000000000000E+20
 15
-1.000000000000000E+20
 25
-1.000000000000000E+20
 35
-1.000000000000000E+20
146
0.0
 13
0.0
 23
0.0
 33
0.0
 16
1.0
 26
0.0
 36
0.0
 17
0.0
 27
1.0
 37
0.0
 76
     0
330
1B
  0
LAYOUT
  5
10052
102
{ACAD_REACTORS
330
10050
102
}
330
10050
100
AcDbPlotSettings
  1

  2
Canon LBP6020
  4

  6

 40
0.0
 41
0.0
 42
0.0
 43
0.0
 44
0.0
 45
0.0
 46
0.0
 47
0.0
 48
0.0
 49
0.0
140
0.0
141
0.0
142
1.0
143
1.0
 70
  1712
 72
     0
 73
     0
 74
     0
  7

 75
     0
147
1.0
 76
     0
 77
     2
 78
   300
148
0.0
149
0.0
100
AcDbLayout
  1
Model
 70
     1
 71
     0
 10
0.0
 20
0.0
 11
12.0
 21
9.0
 12
0.0
 22
0.0
 32
0.0
 14
0.0
 24
0.0
 34
0.0
 15
0.0
 25
0.0
 35
0.0
146
0.0
 13
0.0
 23
0.0
 33
0.0
 16
1.0
 26
0.0
 36
0.0
 17
0.0
 27
1.0
 37
0.0
 76
     0
330
1F
331
2E
  0
MATERIAL
  5
1000C
102
{ACAD_XDICTIONARY
360
1000D
102
}
102
{ACAD_REACTORS
330
10003
102
}
330
10003
100
AcDbMaterial
  1
ByBlock
 72
     0
 43
0.0208333333333333
 43
0.0
 43
0.0
 43
0.0
 43
0.0
 43
0.0208333333333333
 43
0.0
 43
0.0
 43
0.0
 43
0.0
 43
1.0
 43
0.0
 43
0.0
 43
0.0
 43
0.0
 43
1.0
 77
     0
 47
0.0208333333333333
 47
0.0
 47
0.0
 47
0.0
 47
0.0
 47
0.0208333333333333
 47
0.0
 47
0.0
 47
0.0
 47
0.0
 47
1.0
 47
0.0
 47
0.0
 47
0.0
 47
0.0
 47
1.0
171
     0
 49
0.0208333333333333
 49
0.0
 49
0.0
 49
0.0
 49
0.0
 49
0.0208333333333333
 49
0.0
 49
0.0
 49
0.0
 49
0.0
 49
1.0
 49
0.0
 49
0.0
 49
0.0
 49
0.0
 49
1.0
175
     0
142
0.0208333333333333
142
0.0
142
0.0
142
0.0
142
0.0
142
0.0208333333333333
142
0.0
142
0.0
142
0.0
142
0.0
142
1.0
142
0.0
142
0.0
142
0.0
142
0.0
142
1.0
179
     0
144
0.0208333333333333
144
0.0
144
0.0
144
0.0
144
0.0
144
0.0208333333333333
144
0.0
144
0.0
144
0.0
144
0.0
144
1.0
144
0.0
144
0.0
144
0.0
144
0.0
144
1.0
147
0.0208333333333333
147
0.0
147
0.0
147
0.0
147
0.0
147
0.0208333333333333
147
0.0
147
0.0
147
0.0
147
0.0
147
1.0
147
0.0
147
0.0
147
0.0
147
0.0
147
1.0
  0
MATERIAL
  5
10004
102
{ACAD_XDICTIONARY
360
10005
102
}
102
{ACAD_REACTORS
330
10003
102
}
330
10003
100
AcDbMaterial
  1
ByLayer
 72
     0
 43
0.0208333333333333
 43
0.0
 43
0.0
 43
0.0
 43
0.0
 43
0.0208333333333333
 43
0.0
 43
0.0
 43
0.0
 43
0.0
 43
1.0
 43
0.0
 43
0.0
 43
0.0
 43
0.0
 43
1.0
 77
     0
 47
0.0208333333333333
 47
0.0
 47
0.0
 47
0.0
 47
0.0
 47
0.0208333333333333
 47
0.0
 47
0.0
 47
0.0
 47
0.0
 47
1.0
 47
0.0
 47
0.0
 47
0.0
 47
0.0
 47
1.0
171
     0
 49
0.0208333333333333
 49
0.0
 49
0.0
 49
0.0
 49
0.0
 49
0.0208333333333333
 49
0.0
 49
0.0
 49
0.0
 49
0.0
 49
1.0
 49
0.0
 49
0.0
 49
0.0
 49
0.0
 49
1.0
175
     0
142
0.0208333333333333
142
0.0
142
0.0
142
0.0
142
0.0
142
0.0208333333333333
142
0.0
142
0.0
142
0.0
142
0.0
142
1.0
142
0.0
142
0.0
142
0.0
142
0.0
142
1.0
179
     0
144
0.0208333333333333
144
0.0
144
0.0
144
0.0
144
0.0
144
0.0208333333333333
144
0.0
144
0.0
144
0.0
144
0.0
144
1.0
144
0.0
144
0.0
144
0.0
144
0.0
144
1.0
147
0.0208333333333333
147
0.0
147
0.0
147
0.0
147
0.0
147
0.0208333333333333
147
0.0
147
0.0
147
0.0
147
0.0
147
1.0
147
0.0
147
0.0
147
0.0
147
0.0
147
1.0
  0
MATERIAL
  5
10014
102
{ACAD_XDICTIONARY
360
10015
102
}
102
{ACAD_REACTORS
330
10003
102
}
330
10003
100
AcDbMaterial
  1
Global
 72
     0
 43
0.0208333333333333
 43
0.0
 43
0.0
 43
0.0
 43
0.0
 43
0.0208333333333333
 43
0.0
 43
0.0
 43
0.0
 43
0.0
 43
1.0
 43
0.0
 43
0.0
 43
0.0
 43
0.0
 43
1.0
 77
     0
 47
0.0208333333333333
 47
0.0
 47
0.0
 47
0.0
 47
0.0
 47
0.0208333333333333
 47
0.0
 47
0.0
 47
0.0
 47
0.0
 47
1.0
 47
0.0
 47
0.0
 47
0.0
 47
0.0
 47
1.0
171
     0
 49
0.0208333333333333
 49
0.0
 49
0.0
 49
0.0
 49
0.0
 49
0.0208333333333333
 49
0.0
 49
0.0
 49
0.0
 49
0.0
 49
1.0
 49
0.0
 49
0.0
 49
0.0
 49
0.0
 49
1.0
175
     0
142
0.0208333333333333
142
0.0
142
0.0
142
0.0
142
0.0
142
0.0208333333333333
142
0.0
142
0.0
142
0.0
142
0.0
142
1.0
142
0.0
142
0.0
142
0.0
142
0.0
142
1.0
179
     0
144
0.0208333333333333
144
0.0
144
0.0
144
0.0
144
0.0
144
0.0208333333333333
144
0.0
144
0.0
144
0.0
144
0.0
144
1.0
144
0.0
144
0.0
144
0.0
144
0.0
144
1.0
147
0.0208333333333333
147
0.0
147
0.0
147
0.0
147
0.0
147
0.0208333333333333
147
0.0
147
0.0
147
0.0
147
0.0
147
1.0
147
0.0
147
0.0
147
0.0
147
0.0
147
1.0
  0
MLEADERSTYLE
  5
1004B
102
{ACAD_REACTORS
330
1004A
102
}
330
1004A
100
AcDbMLeaderStyle
179
     2
170
     2
171
     1
172
     0
 90
        2
 40
0.0
 41
0.0
173
     1
 91
-1056964608
340
14
 92
       -2
290
     1
 42
2.0
291
     1
 43
0.36
  3
Standard
 44
4.0
300

342
11
174
     1
178
     6
175
     1
176
     0
 93
-1056964608
 45
4.0
292
     0
297
     0
 46
4.0
 94
-1056964608
 47
1.0
 49
1.0
140
1.0
293
     1
141
0.0
294
     1
177
     0
142
1.0
295
     0
296
     0
143
0.125
271
     0
272
     9
273
     9
298
     0
  0
ACDBPLACEHOLDER
  5
10002
102
{ACAD_REACTORS
330
10001
102
}
330
10001
  0
SCALE
  5
10039
102
{ACAD_REACTORS
330
10038
102
}
330
10038
100
AcDbScale
 70
     0
300
1:1
140
1.0
141
1.0
290
     1
  0
SCALE
  5
1003A
102
{ACAD_REACTORS
330
10038
102
}
330
10038
100
AcDbScale
 70
     0
300
1:2
140
1.0
141
2.0
290
     0
  0
SCALE
  5
1003B
102
{ACAD_REACTORS
330
10038
102
}
330
10038
100
AcDbScale
 70
     0
300
1:4
140
1.0
141
4.0
290
     0
  0
SCALE
  5
1003C
102
{ACAD_REACTORS
330
10038
102
}
330
10038
100
AcDbScale
 70
     0
300
1:5
140
1.0
141
5.0
290
     0
  0
SCALE
  5
1003D
102
{ACAD_REACTORS
330
10038
102
}
330
10038
100
AcDbScale
 70
     0
300
1:8
140
1.0
141
8.0
290
     0
  0
SCALE
  5
1003E
102
{ACAD_REACTORS
330
10038
102
}
330
10038
100
AcDbScale
 70
     0
300
1:10
140
1.0
141
10.0
290
     0
  0
SCALE
  5
1003F
102
{ACAD_REACTORS
330
10038
102
}
330
10038
100
AcDbScale
 70
     0
300
1:16
140
1.0
141
16.0
290
     0
  0
SCALE
  5
10040
102
{ACAD_REACTORS
330
10038
102
}
330
10038
100
AcDbScale
 70
     0
300
1:20
140
1.0
141
20.0
290
     0
  0
SCALE
  5
10041
102
{ACAD_REACTORS
330
10038
102
}
330
10038
100
AcDbScale
 70
     0
300
1:30
140
1.0
141
30.0
290
     0
  0
SCALE
  5
10042
102
{ACAD_REACTORS
330
10038
102
}
330
10038
100
AcDbScale
 70
     0
300
1:40
140
1.0
141
40.0
290
     0
  0
SCALE
  5
10043
102
{ACAD_REACTORS
330
10038
102
}
330
10038
100
AcDbScale
 70
     0
300
1:50
140
1.0
141
50.0
290
     0
  0
SCALE
  5
10044
102
{ACAD_REACTORS
330
10038
102
}
330
10038
100
AcDbScale
 70
     0
300
1:100
140
1.0
141
100.0
290
     0
  0
SCALE
  5
10045
102
{ACAD_REACTORS
330
10038
102
}
330
10038
100
AcDbScale
 70
     0
300
2:1
140
2.0
141
1.0
290
     0
  0
SCALE
  5
10046
102
{ACAD_REACTORS
330
10038
102
}
330
10038
100
AcDbScale
 70
     0
300
4:1
140
4.0
141
1.0
290
     0
  0
SCALE
  5
10047
102
{ACAD_REACTORS
330
10038
102
}
330
10038
100
AcDbScale
 70
     0
300
8:1
140
8.0
141
1.0
290
     0
  0
SCALE
  5
10048
102
{ACAD_REACTORS
330
10038
102
}
330
10038
100
AcDbScale
 70
     0
300
10:1
140
10.0
141
1.0
290
     0
  0
SCALE
  5
10049
102
{ACAD_REACTORS
330
10038
102
}
330
10038
100
AcDbScale
 70
     0
300
100:1
140
100.0
141
1.0
290
     0
  0
ACDBSECTIONVIEWSTYLE
  5
1004D
102
{ACAD_XDICTIONARY
360
10070
102
}
102
{ACAD_REACTORS
330
1004C
102
}
330
1004C
100
AcDbModelDocViewStyle
 70
     0
  3
Metric50
290
     0
100
AcDbSectionViewStyle
 70
     0
 71
     0
 90
      102
 71
     1
340
11
 62
   256
 40
5.0
340
0
340
0
 62
   256
 40
5.0
300
I, O, Q, S, X, Z
 40
10.0
 90
        0
 40
2.5
 90
        0
 71
     2
340
16
 90
       25
 62
   256
340
16
 90
       50
 62
   256
 40
5.0
 40
2.5
 40
5.0
 71
     3
340
11
 62
   256
 40
5.0
 90
        0
 40
15.0
 90
        1
300
%<\AcVar ViewSectionStartId>%-%<\AcVar ViewSectionEndId>% (%<\AcVar ViewScale \f "%sn">%)
 71
     4
 62
   256
 62
   257
300
ANSI31
 40
1.0
 90
        0
290
     0
290
     0
 90
        6
 40
0.0
 40
1.570796326794896
 40
0.2617993877991494
 40
1.308996938995747
 40
-0.2617993877991494
 40
1.832595714594046
  0
TABLESTYLE
  5
10037
102
{ACAD_XDICTIONARY
360
1006E
102
}
102
{ACAD_REACTORS
330
10036
102
}
330
10036
100
AcDbTableStyle
280
     0
  3
Standard
 70
     0
 71
     0
 40
1.5
 41
1.5
280
     0
281
     0
  7
STANDARD
140
4.5
170
     2
 62
     0
 63
     7
283
     0
 90
      512
 91
        0
  1

274
    -2
284
     1
 64
     0
275
    -2
285
     1
 65
     0
276
    -2
286
     1
 66
     0
277
    -2
287
     1
 67
     0
278
    -2
288
     1
 68
     0
279
    -2
289
     1
 69
     0
  7
STANDARD
140
6.0
170
     5
 62
     0
 63
     7
283
     0
 90
      512
 91
        0
  1

274
    -2
284
     1
 64
     0
275
    -2
285
     1
 65
     0
276
    -2
286
     1
 66
     0
277
    -2
287
     1
 67
     0
278
    -2
288
     1
 68
     0
279
    -2
289
     1
 69
     0
  7
STANDARD
140
4.5
170
     5
 62
     0
 63
     7
283
     0
 90
      512
 91
        0
  1

274
    -2
284
     1
 64
     0
275
    -2
285
     1
 65
     0
276
    -2
286
     1
 66
     0
277
    -2
287
     1
 67
     0
278
    -2
288
     1
 68
     0
279
    -2
289
     1
 69
     0
  0
VISUALSTYLE
  5
10022
102
{ACAD_REACTORS
330
1001C
102
}
330
1001C
100
AcDbVisualStyle
  2
2dWireframe
 70
     4
177
     3
291
     0
 70
    58
 90
        0
176
     1
 90
        2
176
     1
 90
        0
176
     1
 90
        0
176
     1
 40
0.6
176
     1
 40
30.0
176
     1
 62
     7
420
 16777215
176
     1
 90
        1
176
     1
 90
        4
176
     1
 62
     7
176
     1
 62
   257
176
     1
 90
        1
176
     1
 90
        1
176
     1
 40
1.0
176
     1
 90
        0
176
     1
 62
   257
176
     1
 40
1.0
176
     1
 90
        1
176
     1
 90
        6
176
     1
 90
        2
176
     1
 62
     7
176
     1
 90
        5
176
     1
 90
        0
176
     1
 90
        0
176
     1
290
     0
176
     1
 90
        1
176
     1
 40
0.0
176
     1
 90
        0
176
     1
290
     1
176
     1
290
     1
176
     1
290
     0
176
     1
290
     0
176
     1
290
     0
176
     1
290
     0
176
     1
290
     0
176
     1
290
     0
176
     1
290
     0
176
     1
 90
       50
176
     1
 40
0.0
176
     1
 40
1.0
176
     1
 90
        0
176
     1
 62
    18
420
        0
176
     1
 90
       50
176
     1
 90
        3
176
     1
 62
     5
420
      255
176
     1
290
     0
176
     1
 90
       50
176
     1
 90
       50
176
     1
 90
       50
176
     1
290
     0
176
     1
 90
       50
176
     1
 62
   256
176
     0
 40
1.0
176
     0
 90
        2
176
     1
  1
strokes_ogs.tif
176
     1
290
     0
176
     1
 40
1.0
176
     1
 40
1.0
176
     1
  0
VISUALSTYLE
  5
10021
102
{ACAD_REACTORS
330
1001C
102
}
330
1001C
100
AcDbVisualStyle
  2
Basic
 70
     7
177
     3
291
     1
 70
    58
 90
        1
176
     1
 90
        0
176
     1
 90
        1
176
     1
 90
        0
176
     1
 40
0.6
176
     1
 40
30.0
176
     1
 62
     7
420
 16777215
176
     1
 90
        0
176
     1
 90
        4
176
     1
 62
     7
176
     1
 62
   257
176
     1
 90
        1
176
     1
 90
        1
176
     1
 40
1.0
176
     1
 90
        8
176
     1
 62
     7
176
     1
 40
1.0
176
     1
 90
        1
176
     1
 90
        6
176
     1
 90
        2
176
     1
 62
     7
176
     1
 90
        5
176
     1
 90
        0
176
     1
 90
        0
176
     1
290
     0
176
     1
 90
        1
176
     1
 40
0.0
176
     1
 90
        0
176
     1
290
     0
176
     1
290
     1
176
     1
290
     1
176
     1
290
     0
176
     1
290
     0
176
     1
290
     0
176
     1
290
     0
176
     1
290
     0
176
     1
290
     0
176
     1
 90
       50
176
     1
 40
0.0
176
     1
 40
1.0
176
     1
 90
        0
176
     1
 62
    18
420
        0
176
     1
 90
       50
176
     1
 90
        3
176
     1
 62
     5
420
      255
176
     1
290
     0
176
     1
 90
       50
176
     1
 90
       50
176
     1
 90
       50
176
     1
290
     0
176
     1
 90
       50
176
     1
 62
   256
176
     0
 40
1.0
176
     0
 90
        2
176
     1
  1
strokes_ogs.tif
176
     1
290
     0
176
     1
 40
1.0
176
     1
 40
1.0
176
     1
  0
VISUALSTYLE
  5
10028
102
{ACAD_REACTORS
330
1001C
102
}
330
1001C
100
AcDbVisualStyle
  2
Brighten
 70
    12
177
     3
291
     1
 70
    58
 90
        2
176
     1
 90
        2
176
     1
 90
        0
176
     1
 90
        0
176
     1
 40
0.6
176
     1
 40
30.0
176
     1
 62
     7
420
 16777215
176
     1
 90
        1
176
     1
 90
        4
176
     1
 62
     7
176
     1
 62
   257
176
     1
 90
        1
176
     1
 90
        1
176
     1
 40
1.0
176
     1
 90
        8
176
     1
 62
     7
176
     1
 40
1.0
176
     1
 90
        1
176
     1
 90
        6
176
     1
 90
        2
176
     1
 62
     7
176
     1
 90
        5
176
     1
 90
        0
176
     1
 90
        0
176
     1
290
     0
176
     1
 90
        1
176
     1
 40
50.0
176
     1
 90
        0
176
     1
290
     0
176
     1
290
     1
176
     1
290
     1
176
     1
290
     0
176
     1
290
     0
176
     1
290
     0
176
     1
290
     0
176
     1
290
     0
176
     1
290
     0
176
     1
 90
       50
176
     1
 40
0.0
176
     1
 40
1.0
176
     1
 90
        0
176
     1
 62
    18
420
        0
176
     1
 90
       50
176
     1
 90
        3
176
     1
 62
     5
420
      255
176
     1
290
     0
176
     1
 90
       50
176
     1
 90
       50
176
     1
 90
       50
176
     1
290
     0
176
     1
 90
       50
176
     1
 62
   256
176
     0
 40
1.0
176
     0
 90
        2
176
     1
  1
strokes_ogs.tif
176
     1
290
     0
176
     1
 40
1.0
176
     1
 40
1.0
176
     1
  0
VISUALSTYLE
  5
1002C
102
{ACAD_REACTORS
330
1001C
102
}
330
1001C
100
AcDbVisualStyle
  2
ColorChange
 70
    16
177
     3
291
     1
 70
    58
 90
        2
176
     1
 90
        2
176
     1
 90
        3
176
     1
 90
        0
176
     1
 40
0.6
176
     1
 40
30.0
176
     1
 62
     8
420
  8421504
176
     1
 90
        1
176
     1
 90
        4
176
     1
 62
     7
176
     1
 62
   257
176
     1
 90
        1
176
     1
 90
        1
176
     1
 40
1.0
176
     1
 90
        8
176
     1
 62
     8
420
  8421504
176
     1
 40
1.0
176
     1
 90
        1
176
     1
 90
        6
176
     1
 90
        2
176
     1
 62
     7
176
     1
 90
        5
176
     1
 90
        0
176
     1
 90
        0
176
     1
290
     0
176
     1
 90
        1
176
     1
 40
0.0
176
     1
 90
        0
176
     1
290
     0
176
     1
290
     1
176
     1
290
     1
176
     1
290
     0
176
     1
290
     0
176
     1
290
     0
176
     1
290
     0
176
     1
290
     0
176
     1
290
     0
176
     1
 90
       50
176
     1
 40
0.0
176
     1
 40
1.0
176
     1
 90
        0
176
     1
 62
    18
420
        0
176
     1
 90
       50
176
     1
 90
        3
176
     1
 62
     5
420
      255
176
     1
290
     0
176
     1
 90
       50
176
     1
 90
       50
176
     1
 90
       50
176
     1
290
     0
176
     1
 90
       50
176
     1
 62
   256
176
     0
 40
1.0
176
     0
 90
        2
176
     1
  1
strokes_ogs.tif
176
     1
290
     0
176
     1
 40
1.0
176
     1
 40
1.0
176
     1
  0
VISUALSTYLE
  5
10025
102
{ACAD_REACTORS
330
1001C
102
}
330
1001C
100
AcDbVisualStyle
  2
Conceptual
 70
     9
177
     3
291
     0
 70
    58
 90
        3
176
     1
 90
        2
176
     1
 90
        0
176
     1
 90
        0
176
     1
 40
0.6
176
     1
 40
30.0
176
     1
 62
     7
420
 16777215
176
     1
 90
        2
176
     1
 90
        2
176
     1
 62
     7
176
     1
 62
   257
176
     1
 90
        1
176
     1
 90
        1
176
     1
 40
179.0
176
     1
 90
        8
176
     1
 62
     7
176
     1
 40
1.0
176
     1
 90
        1
176
     1
 90
        6
176
     1
 90
        2
176
     1
 62
     7
176
     1
 90
        3
176
     1
 90
        0
176
     1
 90
        0
176
     1
290
     0
176
     1
 90
        1
176
     1
 40
0.0
176
     1
 90
        0
176
     1
290
     0
176
     1
290
     1
176
     1
290
     1
176
     1
290
     0
176
     1
290
     0
176
     1
290
     0
176
     1
290
     0
176
     1
290
     0
176
     1
290
     0
176
     1
 90
       50
176
     1
 40
0.0
176
     1
 40
1.0
176
     1
 90
        0
176
     1
 62
    18
420
        0
176
     1
 90
       50
176
     1
 90
        3
176
     1
 62
     5
420
      255
176
     1
290
     0
176
     1
 90
       50
176
     1
 90
       50
176
     1
 90
       50
176
     1
290
     0
176
     1
 90
       50
176
     1
 62
   256
176
     0
 40
1.0
176
     0
 90
        2
176
     1
  1
strokes_ogs.tif
176
     1
290
     0
176
     1
 40
1.0
176
     1
 40
1.0
176
     1
  0
VISUALSTYLE
  5
10027
102
{ACAD_REACTORS
330
1001C
102
}
330
1001C
100
AcDbVisualStyle
  2
Dim
 70
    11
177
     3
291
     1
 70
    58
 90
        2
176
     1
 90
        2
176
     1
 90
        0
176
     1
 90
        0
176
     1
 40
0.6
176
     1
 40
30.0
176
     1
 62
     7
420
 16777215
176
     1
 90
        1
176
     1
 90
        4
176
     1
 62
     7
176
     1
 62
   257
176
     1
 90
        1
176
     1
 90
        1
176
     1
 40
1.0
176
     1
 90
        8
176
     1
 62
     7
176
     1
 40
1.0
176
     1
 90
        1
176
     1
 90
        6
176
     1
 90
        2
176
     1
 62
     7
176
     1
 90
        5
176
     1
 90
        0
176
     1
 90
        0
176
     1
290
     0
176
     1
 90
        1
176
     1
 40
-50.0
176
     1
 90
        0
176
     1
290
     0
176
     1
290
     1
176
     1
290
     1
176
     1
290
     0
176
     1
290
     0
176
     1
290
     0
176
     1
290
     0
176
     1
290
     0
176
     1
290
     0
176
     1
 90
       50
176
     1
 40
0.0
176
     1
 40
1.0
176
     1
 90
        0
176
     1
 62
    18
420
        0
176
     1
 90
       50
176
     1
 90
        3
176
     1
 62
     5
420
      255
176
     1
290
     0
176
     1
 90
       50
176
     1
 90
       50
176
     1
 90
       50
176
     1
290
     0
176
     1
 90
       50
176
     1
 62
   256
176
     0
 40
1.0
176
     0
 90
        2
176
     1
  1
strokes_ogs.tif
176
     1
290
     0
176
     1
 40
1.0
176
     1
 40
1.0
176
     1
  0
VISUALSTYLE
  5
10034
102
{ACAD_REACTORS
330
1001C
102
}
330
1001C
100
AcDbVisualStyle
  2
EdgeColorOff
 70
    22
177
     3
291
     1
 70
    58
 90
        2
176
     0
 90
        2
176
     0
 90
        0
176
     0
 90
        0
176
     0
 40
0.6
176
     0
 40
30.0
176
     0
 62
     7
420
 16777215
176
     0
 90
        1
176
     0
 90
        4
176
     0
 62
     7
176
     0
 62
   257
176
     0
 90
        1
176
     0
 90
        1
176
     0
 40
1.0
176
     0
 90
        8
176
     2
 62
     7
176
     0
 40
1.0
176
     0
 90
        1
176
     0
 90
        6
176
     0
 90
        2
176
     0
 62
     7
176
     0
 90
        5
176
     0
 90
        0
176
     0
 90
        0
176
     0
290
     0
176
     0
 90
        1
176
     0
 40
0.0
176
     0
 90
        0
176
     0
290
     0
176
     1
290
     1
176
     1
290
     1
176
     1
290
     0
176
     1
290
     0
176
     1
290
     0
176
     1
290
     0
176
     1
290
     0
176
     1
290
     0
176
     1
 90
       50
176
     0
 40
0.0
176
     0
 40
1.0
176
     0
 90
        0
176
     0
 62
    18
420
        0
176
     0
 90
       50
176
     0
 90
        3
176
     0
 62
     5
420
      255
176
     0
290
     0
176
     1
 90
       50
176
     0
 90
       50
176
     0
 90
       50
176
     0
290
     0
176
     1
 90
       50
176
     0
 62
   256
176
     0
 40
1.0
176
     0
 90
        2
176
     0
  1
strokes_ogs.tif
176
     0
290
     0
176
     1
 40
1.0
176
     0
 40
1.0
176
     0
  0
VISUALSTYLE
  5
1002B
102
{ACAD_REACTORS
330
1001C
102
}
330
1001C
100
AcDbVisualStyle
  2
Facepattern
 70
    15
177
     3
291
     1
 70
    58
 90
        2
176
     1
 90
        2
176
     1
 90
        0
176
     1
 90
        0
176
     1
 40
0.6
176
     1
 40
30.0
176
     1
 62
     7
420
 16777215
176
     1
 90
        1
176
     1
 90
        4
176
     1
 62
     7
176
     1
 62
   257
176
     1
 90
        1
176
     1
 90
        1
176
     1
 40
1.0
176
     1
 90
        8
176
     1
 62
     7
176
     1
 40
1.0
176
     1
 90
        1
176
     1
 90
        6
176
     1
 90
        2
176
     1
 62
     7
176
     1
 90
        5
176
     1
 90
        0
176
     1
 90
        0
176
     1
290
     0
176
     1
 90
        1
176
     1
 40
0.0
176
     1
 90
        0
176
     1
290
     0
176
     1
290
     1
176
     1
290
     1
176
     1
290
     0
176
     1
290
     0
176
     1
290
     0
176
     1
290
     0
176
     1
290
     0
176
     1
290
     0
176
     1
 90
       50
176
     1
 40
0.0
176
     1
 40
1.0
176
     1
 90
        0
176
     1
 62
    18
420
        0
176
     1
 90
       50
176
     1
 90
        3
176
     1
 62
     5
420
      255
176
     1
290
     0
176
     1
 90
       50
176
     1
 90
       50
176
     1
 90
       50
176
     1
290
     0
176
     1
 90
       50
176
     1
 62
   256
176
     0
 40
1.0
176
     0
 90
        2
176
     1
  1
strokes_ogs.tif
176
     1
290
     0
176
     1
 40
1.0
176
     1
 40
1.0
176
     1
  0
VISUALSTYLE
  5
1001D
102
{ACAD_REACTORS
330
1001C
102
}
330
1001C
100
AcDbVisualStyle
  2
Flat
 70
     0
177
     3
291
     1
 70
    58
 90
        2
176
     1
 90
        1
176
     1
 90
        1
176
     1
 90
        2
176
     1
 40
0.6
176
     1
 40
30.0
176
     1
 62
     7
420
 16777215
176
     1
 90
        0
176
     1
 90
        0
176
     1
 62
     7
176
     1
 62
   257
176
     1
 90
        1
176
     1
 90
        1
176
     1
 40
1.0
176
     1
 90
        8
176
     1
 62
     7
176
     1
 40
1.0
176
     1
 90
        1
176
     1
 90
        6
176
     1
 90
        2
176
     1
 62
     7
176
     1
 90
        5
176
     1
 90
        0
176
     1
 90
        0
176
     1
290
     0
176
     1
 90
       13
176
     1
 40
0.0
176
     1
 90
        0
176
     1
290
     0
176
     1
290
     1
176
     1
290
     1
176
     1
290
     0
176
     1
290
     0
176
     1
290
     0
176
     1
290
     0
176
     1
290
     0
176
     1
290
     0
176
     1
 90
       50
176
     1
 40
0.0
176
     1
 40
1.0
176
     1
 90
        0
176
     1
 62
    18
420
        0
176
     1
 90
       50
176
     1
 90
        3
176
     1
 62
     5
420
      255
176
     1
290
     0
176
     1
 90
       50
176
     1
 90
       50
176
     1
 90
       50
176
     1
290
     0
176
     1
 90
       50
176
     1
 62
   256
176
     0
 40
1.0
176
     0
 90
        2
176
     1
  1
strokes_ogs.tif
176
     1
290
     0
176
     1
 40
1.0
176
     1
 40
1.0
176
     1
  0
VISUALSTYLE
  5
1001E
102
{ACAD_REACTORS
330
1001C
102
}
330
1001C
100
AcDbVisualStyle
  2
FlatWithEdges
 70
     1
177
     3
291
     1
 70
    58
 90
        2
176
     1
 90
        1
176
     1
 90
        1
176
     1
 90
        2
176
     1
 40
0.6
176
     1
 40
30.0
176
     1
 62
     7
420
 16777215
176
     1
 90
        1
176
     1
 90
        0
176
     1
 62
     7
176
     1
 62
   257
176
     1
 90
        1
176
     1
 90
        1
176
     1
 40
1.0
176
     1
 90
        0
176
     1
 62
   257
176
     1
 40
1.0
176
     1
 90
        1
176
     1
 90
        6
176
     1
 90
        2
176
     1
 62
     7
176
     1
 90
        5
176
     1
 90
        0
176
     1
 90
        0
176
     1
290
     0
176
     1
 90
       13
176
     1
 40
0.0
176
     1
 90
        0
176
     1
290
     0
176
     1
290
     1
176
     1
290
     1
176
     1
290
     0
176
     1
290
     0
176
     1
290
     0
176
     1
290
     0
176
     1
290
     0
176
     1
290
     0
176
     1
 90
       50
176
     1
 40
0.0
176
     1
 40
1.0
176
     1
 90
        0
176
     1
 62
    18
420
        0
176
     1
 90
       50
176
     1
 90
        3
176
     1
 62
     5
420
      255
176
     1
290
     0
176
     1
 90
       50
176
     1
 90
       50
176
     1
 90
       50
176
     1
290
     0
176
     1
 90
       50
176
     1
 62
   256
176
     0
 40
1.0
176
     0
 90
        2
176
     1
  1
strokes_ogs.tif
176
     1
290
     0
176
     1
 40
1.0
176
     1
 40
1.0
176
     1
  0
VISUALSTYLE
  5
1001F
102
{ACAD_REACTORS
330
1001C
102
}
330
1001C
100
AcDbVisualStyle
  2
Gouraud
 70
     2
177
     3
291
     1
 70
    58
 90
        2
176
     1
 90
        2
176
     1
 90
        1
176
     1
 90
        2
176
     1
 40
0.6
176
     1
 40
30.0
176
     1
 62
     7
420
 16777215
176
     1
 90
        0
176
     1
 90
        0
176
     1
 62
     7
176
     1
 62
   257
176
     1
 90
        1
176
     1
 90
        1
176
     1
 40
1.0
176
     1
 90
        0
176
     1
 62
     7
176
     1
 40
1.0
176
     1
 90
        1
176
     1
 90
        6
176
     1
 90
        2
176
     1
 62
     7
176
     1
 90
        5
176
     1
 90
        0
176
     1
 90
        0
176
     1
290
     0
176
     1
 90
       13
176
     1
 40
0.0
176
     1
 90
        0
176
     1
290
     0
176
     1
290
     1
176
     1
290
     1
176
     1
290
     0
176
     1
290
     0
176
     1
290
     0
176
     1
290
     0
176
     1
290
     0
176
     1
290
     0
176
     1
 90
       50
176
     1
 40
0.0
176
     1
 40
1.0
176
     1
 90
        0
176
     1
 62
    18
420
        0
176
     1
 90
       50
176
     1
 90
        3
176
     1
 62
     5
420
      255
176
     1
290
     0
176
     1
 90
       50
176
     1
 90
       50
176
     1
 90
       50
176
     1
290
     0
176
     1
 90
       50
176
     1
 62
   256
176
     0
 40
1.0
176
     0
 90
        2
176
     1
  1
strokes_ogs.tif
176
     1
290
     0
176
     1
 40
1.0
176
     1
 40
1.0
176
     1
  0
VISUALSTYLE
  5
10020
102
{ACAD_REACTORS
330
1001C
102
}
330
1001C
100
AcDbVisualStyle
  2
GouraudWithEdges
 70
     3
177
     3
291
     1
 70
    58
 90
        2
176
     1
 90
        2
176
     1
 90
        1
176
     1
 90
        2
176
     1
 40
0.6
176
     1
 40
30.0
176
     1
 62
     7
420
 16777215
176
     1
 90
        1
176
     1
 90
        0
176
     1
 62
     7
176
     1
 62
   257
176
     1
 90
        1
176
     1
 90
        1
176
     1
 40
1.0
176
     1
 90
        0
176
     1
 62
   257
176
     1
 40
1.0
176
     1
 90
        1
176
     1
 90
        6
176
     1
 90
        2
176
     1
 62
     7
176
     1
 90
        5
176
     1
 90
        0
176
     1
 90
        0
176
     1
290
     0
176
     1
 90
       13
176
     1
 40
0.0
176
     1
 90
        0
176
     1
290
     0
176
     1
290
     1
176
     1
290
     1
176
     1
290
     0
176
     1
290
     0
176
     1
290
     0
176
     1
290
     0
176
     1
290
     0
176
     1
290
     0
176
     1
 90
       50
176
     1
 40
0.0
176
     1
 40
1.0
176
     1
 90
        0
176
     1
 62
    18
420
        0
176
     1
 90
       50
176
     1
 90
        3
176
     1
 62
     5
420
      255
176
     1
290
     0
176
     1
 90
       50
176
     1
 90
       50
176
     1
 90
       50
176
     1
290
     0
176
     1
 90
       50
176
     1
 62
   256
176
     0
 40
1.0
176
     0
 90
        2
176
     1
  1
strokes_ogs.tif
176
     1
290
     0
176
     1
 40
1.0
176
     1
 40
1.0
176
     1
  0
VISUALSTYLE
  5
10024
102
{ACAD_REACTORS
330
1001C
102
}
330
1001C
100
AcDbVisualStyle
  2
Hidden
 70
     6
177
     3
291
     0
 70
    58
 90
        1
176
     1
 90
        2
176
     1
 90
        2
176
     1
 90
        0
176
     1
 40
0.6
176
     1
 40
30.0
176
     1
 62
     7
420
 16777215
176
     1
 90
        2
176
     1
 90
        2
176
     1
 62
     7
176
     1
 62
   257
176
     1
 90
        2
176
     1
 90
        1
176
     1
 40
40.0
176
     1
 90
        0
176
     1
 62
   257
176
     1
 40
1.0
176
     1
 90
        1
176
     1
 90
        6
176
     1
 90
        2
176
     1
 62
     7
176
     1
 90
        3
176
     1
 90
        0
176
     1
 90
        0
176
     1
290
     0
176
     1
 90
        1
176
     1
 40
0.0
176
     1
 90
        0
176
     1
290
     0
176
     1
290
     1
176
     1
290
     1
176
     1
290
     0
176
     1
290
     0
176
     1
290
     0
176
     1
290
     0
176
     1
290
     0
176
     1
290
     0
176
     1
 90
       50
176
     1
 40
0.0
176
     1
 40
1.0
176
     1
 90
        0
176
     1
 62
    18
420
        0
176
     1
 90
       50
176
     1
 90
        3
176
     1
 62
     5
420
      255
176
     1
290
     0
176
     1
 90
       50
176
     1
 90
       50
176
     1
 90
       50
176
     1
290
     0
176
     1
 90
       50
176
     1
 62
   256
176
     0
 40
1.0
176
     0
 90
        2
176
     1
  1
strokes_ogs.tif
176
     1
290
     0
176
     1
 40
1.0
176
     1
 40
1.0
176
     1
  0
VISUALSTYLE
  5
10032
102
{ACAD_REACTORS
330
1001C
102
}
330
1001C
100
AcDbVisualStyle
  2
JitterOff
 70
    20
177
     3
291
     1
 70
    58
 90
        2
176
     0
 90
        2
176
     0
 90
        0
176
     0
 90
        0
176
     0
 40
0.6
176
     0
 40
30.0
176
     0
 62
     7
420
 16777215
176
     0
 90
        1
176
     0
 90
        4
176
     0
 62
     7
176
     0
 62
   257
176
     0
 90
        1
176
     0
 90
        1
176
     0
 40
1.0
176
     0
 90
       10
176
     2
 62
     7
176
     0
 40
1.0
176
     0
 90
        1
176
     0
 90
        6
176
     0
 90
        2
176
     0
 62
     7
176
     0
 90
        5
176
     0
 90
        0
176
     0
 90
        0
176
     0
290
     0
176
     0
 90
        1
176
     0
 40
0.0
176
     0
 90
        0
176
     0
290
     0
176
     1
290
     1
176
     1
290
     1
176
     1
290
     0
176
     1
290
     0
176
     1
290
     0
176
     1
290
     0
176
     1
290
     0
176
     1
290
     0
176
     1
 90
       50
176
     0
 40
0.0
176
     0
 40
1.0
176
     0
 90
        0
176
     0
 62
    18
420
        0
176
     0
 90
       50
176
     0
 90
        3
176
     0
 62
     5
420
      255
176
     0
290
     0
176
     1
 90
       50
176
     0
 90
       50
176
     0
 90
       50
176
     0
290
     0
176
     1
 90
       50
176
     0
 62
   256
176
     0
 40
1.0
176
     0
 90
        2
176
     0
  1
strokes_ogs.tif
176
     0
290
     0
176
     1
 40
1.0
176
     0
 40
1.0
176
     0
  0
VISUALSTYLE
  5
1002A
102
{ACAD_REACTORS
330
1001C
102
}
330
1001C
100
AcDbVisualStyle
  2
Linepattern
 70
    14
177
     3
291
     1
 70
    58
 90
        2
176
     1
 90
        2
176
     1
 90
        0
176
     1
 90
        0
176
     1
 40
0.6
176
     1
 40
30.0
176
     1
 62
     7
420
 16777215
176
     1
 90
        1
176
     1
 90
        4
176
     1
 62
     7
176
     1
 62
   257
176
     1
 90
        7
176
     1
 90
        7
176
     1
 40
1.0
176
     1
 90
        8
176
     1
 62
     7
176
     1
 40
1.0
176
     1
 90
        1
176
     1
 90
        6
176
     1
 90
        2
176
     1
 62
     7
176
     1
 90
        5
176
     1
 90
        0
176
     1
 90
        0
176
     1
290
     0
176
     1
 90
        1
176
     1
 40
0.0
176
     1
 90
        0
176
     1
290
     0
176
     1
290
     1
176
     1
290
     1
176
     1
290
     0
176
     1
290
     0
176
     1
290
     0
176
     1
290
     0
176
     1
290
     0
176
     1
290
     0
176
     1
 90
       50
176
     1
 40
0.0
176
     1
 40
1.0
176
     1
 90
        0
176
     1
 62
    18
420
        0
176
     1
 90
       50
176
     1
 90
        3
176
     1
 62
     5
420
      255
176
     1
290
     0
176
     1
 90
       50
176
     1
 90
       50
176
     1
 90
       50
176
     1
290
     0
176
     1
 90
       50
176
     1
 62
   256
176
     0
 40
1.0
176
     0
 90
        2
176
     1
  1
strokes_ogs.tif
176
     1
290
     0
176
     1
 40
1.0
176
     1
 40
1.0
176
     1
  0
VISUALSTYLE
  5
10033
102
{ACAD_REACTORS
330
1001C
102
}
330
1001C
100
AcDbVisualStyle
  2
OverhangOff
 70
    21
177
     3
291
     1
 70
    58
 90
        2
176
     0
 90
        2
176
     0
 90
        0
176
     0
 90
        0
176
     0
 40
0.6
176
     0
 40
30.0
176
     0
 62
     7
420
 16777215
176
     0
 90
        1
176
     0
 90
        4
176
     0
 62
     7
176
     0
 62
   257
176
     0
 90
        1
176
     0
 90
        1
176
     0
 40
1.0
176
     0
 90
        9
176
     2
 62
     7
176
     0
 40
1.0
176
     0
 90
        1
176
     0
 90
        6
176
     0
 90
        2
176
     0
 62
     7
176
     0
 90
        5
176
     0
 90
        0
176
     0
 90
        0
176
     0
290
     0
176
     0
 90
        1
176
     0
 40
0.0
176
     0
 90
        0
176
     0
290
     0
176
     1
290
     1
176
     1
290
     1
176
     1
290
     0
176
     1
290
     0
176
     1
290
     0
176
     1
290
     0
176
     1
290
     0
176
     1
290
     0
176
     1
 90
       50
176
     0
 40
0.0
176
     0
 40
1.0
176
     0
 90
        0
176
     0
 62
    18
420
        0
176
     0
 90
       50
176
     0
 90
        3
176
     0
 62
     5
420
      255
176
     0
290
     0
176
     1
 90
       50
176
     0
 90
       50
176
     0
 90
       50
176
     0
290
     0
176
     1
 90
       50
176
     0
 62
   256
176
     0
 40
1.0
176
     0
 90
        2
176
     0
  1
strokes_ogs.tif
176
     0
290
     0
176
     1
 40
1.0
176
     0
 40
1.0
176
     0
  0
VISUALSTYLE
  5
10026
102
{ACAD_REACTORS
330
1001C
102
}
330
1001C
100
AcDbVisualStyle
  2
Realistic
 70
     8
177
     3
291
     0
 70
    58
 90
        2
176
     1
 90
        3
176
     1
 90
        0
176
     1
 90
        2
176
     1
 40
0.6
176
     1
 40
30.0
176
     1
 62
     7
420
 16777215
176
     1
 90
        0
176
     1
 90
        0
176
     1
 62
     7
176
     1
 62
   257
176
     1
 90
        1
176
     1
 90
        1
176
     1
 40
1.0
176
     1
 90
        8
176
     1
 62
   257
176
     1
 40
1.0
176
     1
 90
        1
176
     1
 90
        6
176
     1
 90
        2
176
     1
 62
     7
176
     1
 90
        3
176
     1
 90
        0
176
     1
 90
        0
176
     1
290
     0
176
     1
 90
       13
176
     1
 40
0.0
176
     1
 90
        0
176
     1
290
     0
176
     1
290
     1
176
     1
290
     1
176
     1
290
     0
176
     1
290
     0
176
     1
290
     0
176
     1
290
     0
176
     1
290
     0
176
     1
290
     0
176
     1
 90
       50
176
     1
 40
0.0
176
     1
 40
1.0
176
     1
 90
        0
176
     1
 62
    18
420
        0
176
     1
 90
       50
176
     1
 90
        3
176
     1
 62
     5
420
      255
176
     1
290
     0
176
     1
 90
       50
176
     1
 90
       50
176
     1
 90
       50
176
     1
290
     0
176
     1
 90
       50
176
     1
 62
   256
176
     0
 40
1.0
176
     0
 90
        2
176
     1
  1
strokes_ogs.tif
176
     1
290
     0
176
     1
 40
1.0
176
     1
 40
1.0
176
     1
  0
VISUALSTYLE
  5
10031
102
{ACAD_REACTORS
330
1001C
102
}
330
1001C
100
AcDbVisualStyle
  2
Shaded
 70
    27
177
     3
291
     0
 70
    58
 90
        2
176
     1
 90
        2
176
     1
 90
        1
176
     1
 90
        2
176
     1
 40
0.6
176
     1
 40
30.0
176
     1
 62
     7
420
 16777215
176
     1
 90
        0
176
     1
 90
        4
176
     1
 62
     7
176
     1
 62
   257
176
     1
 90
        1
176
     1
 90
        1
176
     1
 40
1.0
176
     1
 90
        8
176
     1
 62
   257
176
     1
 40
1.0
176
     1
 90
        1
176
     1
 90
        6
176
     1
 90
        2
176
     1
 62
     8
420
  7895160
176
     1
 90
        3
176
     1
 90
        0
176
     1
 90
        0
176
     1
290
     0
176
     1
 90
        5
176
     1
 40
0.0
176
     1
 90
        0
176
     1
290
     0
176
     1
290
     1
176
     1
290
     1
176
     1
290
     0
176
     1
290
     0
176
     1
290
     0
176
     1
290
     0
176
     1
290
     0
176
     1
290
     0
176
     1
 90
       50
176
     1
 40
0.0
176
     1
 40
1.0
176
     1
 90
        0
176
     1
 62
    18
420
        0
176
     1
 90
       50
176
     1
 90
        3
176
     1
 62
     5
420
      255
176
     1
290
     0
176
     1
 90
       50
176
     1
 90
       50
176
     1
 90
       50
176
     1
290
     0
176
     1
 90
       50
176
     1
 62
   256
176
     0
 40
1.0
176
     0
 90
        2
176
     1
  1
strokes_ogs.tif
176
     1
290
     0
176
     1
 40
1.0
176
     1
 40
1.0
176
     1
  0
VISUALSTYLE
  5
10030
102
{ACAD_REACTORS
330
1001C
102
}
330
1001C
100
AcDbVisualStyle
  2
Shaded with edges
 70
    26
177
     3
291
     0
 70
    58
 90
        2
176
     1
 90
        2
176
     1
 90
        1
176
     1
 90
        2
176
     1
 40
0.6
176
     1
 40
30.0
176
     1
 62
     7
420
 16777215
176
     1
 90
        1
176
     1
 90
       10
176
     1
 62
     7
176
     1
 62
   257
176
     1
 90
        2
176
     1
 90
        1
176
     1
 40
1.0
176
     1
 90
        8
176
     1
 62
   257
176
     1
 40
1.0
176
     1
 90
        1
176
     1
 90
        6
176
     1
 90
        2
176
     1
 62
     7
176
     1
 90
        3
176
     1
 90
        0
176
     1
 90
        0
176
     1
290
     0
176
     1
 90
        5
176
     1
 40
0.0
176
     1
 90
        0
176
     1
290
     0
176
     1
290
     1
176
     1
290
     1
176
     1
290
     0
176
     1
290
     0
176
     1
290
     0
176
     1
290
     0
176
     1
290
     0
176
     1
290
     0
176
     1
 90
       50
176
     1
 40
0.0
176
     1
 40
1.0
176
     1
 90
        0
176
     1
 62
    18
420
        0
176
     1
 90
       50
176
     1
 90
        3
176
     1
 62
     5
420
      255
176
     1
290
     0
176
     1
 90
       50
176
     1
 90
       50
176
     1
 90
       50
176
     1
290
     0
176
     1
 90
       50
176
     1
 62
   256
176
     0
 40
1.0
176
     0
 90
        2
176
     1
  1
strokes_ogs.tif
176
     1
290
     0
176
     1
 40
1.0
176
     1
 40
1.0
176
     1
  0
VISUALSTYLE
  5
1002D
102
{ACAD_REACTORS
330
1001C
102
}
330
1001C
100
AcDbVisualStyle
  2
Shades of Gray
 70
    23
177
     3
291
     0
 70
    58
 90
        2
176
     1
 90
        2
176
     1
 90
        3
176
     1
 90
        0
176
     1
 40
0.6
176
     1
 40
30.0
176
     1
 62
     7
420
 16777215
176
     1
 90
        2
176
     1
 90
        2
176
     1
 62
     7
176
     1
 62
     7
176
     1
 90
        1
176
     1
 90
        1
176
     1
 40
40.0
176
     1
 90
        8
176
     1
 62
     7
176
     1
 40
1.0
176
     1
 90
        1
176
     1
 90
        6
176
     1
 90
        2
176
     1
 62
     7
176
     1
 90
        3
176
     1
 90
        0
176
     1
 90
        0
176
     1
290
     0
176
     1
 90
        1
176
     1
 40
0.0
176
     1
 90
        0
176
     1
290
     0
176
     1
290
     1
176
     1
290
     1
176
     1
290
     0
176
     1
290
     0
176
     1
290
     0
176
     1
290
     0
176
     1
290
     0
176
     1
290
     0
176
     1
 90
       50
176
     1
 40
0.0
176
     1
 40
1.0
176
     1
 90
        0
176
     1
 62
    18
420
        0
176
     1
 90
       50
176
     1
 90
        3
176
     1
 62
     5
420
      255
176
     1
290
     0
176
     1
 90
       50
176
     1
 90
       50
176
     1
 90
       50
176
     1
290
     0
176
     1
 90
       50
176
     1
 62
   256
176
     0
 40
1.0
176
     0
 90
        2
176
     1
  1
strokes_ogs.tif
176
     1
290
     0
176
     1
 40
1.0
176
     1
 40
1.0
176
     1
  0
VISUALSTYLE
  5
1002E
102
{ACAD_REACTORS
330
1001C
102
}
330
1001C
100
AcDbVisualStyle
  2
Sketchy
 70
    24
177
     3
291
     0
 70
    58
 90
        1
176
     1
 90
        2
176
     1
 90
        2
176
     1
 90
        0
176
     1
 40
0.6
176
     1
 40
30.0
176
     1
 62
     7
420
 16777215
176
     1
 90
        2
176
     1
 90
        2
176
     1
 62
     7
176
     1
 62
     7
176
     1
 90
        1
176
     1
 90
        1
176
     1
 40
40.0
176
     1
 90
       11
176
     1
 62
     7
176
     1
 40
1.0
176
     1
 90
        1
176
     1
 90
        6
176
     1
 90
        2
176
     1
 62
     7
176
     1
 90
        6
176
     1
 90
        0
176
     1
 90
        0
176
     1
290
     0
176
     1
 90
        1
176
     1
 40
0.0
176
     1
 90
        0
176
     1
290
     0
176
     1
290
     1
176
     1
290
     1
176
     1
290
     0
176
     1
290
     0
176
     1
290
     0
176
     1
290
     0
176
     1
290
     0
176
     1
290
     0
176
     1
 90
       50
176
     1
 40
0.0
176
     1
 40
1.0
176
     1
 90
        0
176
     1
 62
    18
420
        0
176
     1
 90
       50
176
     1
 90
        3
176
     1
 62
     5
420
      255
176
     1
290
     0
176
     1
 90
       50
176
     1
 90
       50
176
     1
 90
       50
176
     1
290
     0
176
     1
 90
       50
176
     1
 62
   256
176
     0
 40
1.0
176
     0
 90
        2
176
     1
  1
strokes_ogs.tif
176
     1
290
     0
176
     1
 40
1.0
176
     1
 40
1.0
176
     1
  0
VISUALSTYLE
  5
10029
102
{ACAD_REACTORS
330
1001C
102
}
330
1001C
100
AcDbVisualStyle
  2
Thicken
 70
    13
177
     3
291
     1
 70
    58
 90
        2
176
     1
 90
        2
176
     1
 90
        0
176
     1
 90
        0
176
     1
 40
0.6
176
     1
 40
30.0
176
     1
 62
     7
420
 16777215
176
     1
 90
        1
176
     1
 90
        4
176
     1
 62
     7
176
     1
 62
   257
176
     1
 90
        1
176
     1
 90
        1
176
     1
 40
1.0
176
     1
 90
       12
176
     1
 62
     7
176
     1
 40
1.0
176
     1
 90
        1
176
     1
 90
        6
176
     1
 90
        2
176
     1
 62
     7
176
     1
 90
        5
176
     1
 90
        0
176
     1
 90
        0
176
     1
290
     0
176
     1
 90
        1
176
     1
 40
0.0
176
     1
 90
        0
176
     1
290
     0
176
     1
290
     1
176
     1
290
     1
176
     1
290
     0
176
     1
290
     0
176
     1
290
     0
176
     1
290
     0
176
     1
290
     0
176
     1
290
     0
176
     1
 90
       50
176
     1
 40
0.0
176
     1
 40
1.0
176
     1
 90
        0
176
     1
 62
    18
420
        0
176
     1
 90
       50
176
     1
 90
        3
176
     1
 62
     5
420
      255
176
     1
290
     0
176
     1
 90
       50
176
     1
 90
       50
176
     1
 90
       50
176
     1
290
     0
176
     1
 90
       50
176
     1
 62
   256
176
     0
 40
1.0
176
     0
 90
        2
176
     1
  1
strokes_ogs.tif
176
     1
290
     0
176
     1
 40
1.0
176
     1
 40
1.0
176
     1
  0
VISUALSTYLE
  5
10023
102
{ACAD_REACTORS
330
1001C
102
}
330
1001C
100
AcDbVisualStyle
  2
Wireframe
 70
     5
177
     3
291
     0
 70
    58
 90
        0
176
     1
 90
        2
176
     1
 90
        0
176
     1
 90
        0
176
     1
 40
0.6
176
     1
 40
30.0
176
     1
 62
     7
420
 16777215
176
     1
 90
        1
176
     1
 90
        4
176
     1
 62
     7
176
     1
 62
   257
176
     1
 90
        1
176
     1
 90
        1
176
     1
 40
1.0
176
     1
 90
        0
176
     1
 62
   257
176
     1
 40
1.0
176
     1
 90
        1
176
     1
 90
        6
176
     1
 90
        2
176
     1
 62
     7
176
     1
 90
        3
176
     1
 90
        0
176
     1
 90
        0
176
     1
290
     0
176
     1
 90
        1
176
     1
 40
0.0
176
     1
 90
        0
176
     1
290
     0
176
     1
290
     1
176
     1
290
     1
176
     1
290
     0
176
     1
290
     0
176
     1
290
     0
176
     1
290
     0
176
     1
290
     0
176
     1
290
     0
176
     1
 90
       50
176
     1
 40
0.0
176
     1
 40
1.0
176
     1
 90
        0
176
     1
 62
    18
420
        0
176
     1
 90
       50
176
     1
 90
        3
176
     1
 62
     5
420
      255
176
     1
290
     0
176
     1
 90
       50
176
     1
 90
       50
176
     1
 90
       50
176
     1
290
     0
176
     1
 90
       50
176
     1
 62
   256
176
     0
 40
1.0
176
     0
 90
        2
176
     1
  1
strokes_ogs.tif
176
     1
290
     0
176
     1
 40
1.0
176
     1
 40
1.0
176
     1
  0
VISUALSTYLE
  5
1002F
102
{ACAD_REACTORS
330
1001C
102
}
330
1001C
100
AcDbVisualStyle
  2
X-Ray
 70
    25
177
     3
291
     0
 70
    58
 90
        2
176
     1
 90
        2
176
     1
 90
        1
176
     1
 90
        1
176
     1
 40
0.5
176
     1
 40
30.0
176
     1
 62
     7
420
 16777215
176
     1
 90
        1
176
     1
 90
        0
176
     1
 62
     7
176
     1
 62
   257
176
     1
 90
        1
176
     1
 90
        1
176
     1
 40
1.0
176
     1
 90
        8
176
     1
 62
     7
176
     1
 40
1.0
176
     1
 90
        1
176
     1
 90
        6
176
     1
 90
        2
176
     1
 62
     7
176
     1
 90
        3
176
     1
 90
        0
176
     1
 90
        0
176
     1
290
     0
176
     1
 90
       13
176
     1
 40
0.0
176
     1
 90
        0
176
     1
290
     0
176
     1
290
     1
176
     1
290
     1
176
     1
290
     0
176
     1
290
     0
176
     1
290
     0
176
     1
290
     0
176
     1
290
     0
176
     1
290
     0
176
     1
 90
       50
176
     1
 40
0.0
176
     1
 40
1.0
176
     1
 90
        0
176
     1
 62
    18
420
        0
176
     1
 90
       50
176
     1
 90
        3
176
     1
 62
     5
420
      255
176
     1
290
     0
176
     1
 90
       50
176
     1
 90
       50
176
     1
 90
       50
176
     1
290
     0
176
     1
 90
       50
176
     1
 62
   256
176
     0
 40
1.0
176
     0
 90
        2
176
     1
  1
strokes_ogs.tif
176
     1
290
     0
176
     1
 40
1.0
176
     1
 40
1.0
176
     1
  0
DICTIONARYVAR
  5
10069
102
{ACAD_REACTORS
330
10063
102
}
330
10063
100
DictionaryVariables
280
     0
  1
1:1
  0
DICTIONARYVAR
  5
10065
102
{ACAD_REACTORS
330
10063
102
}
330
10063
100
DictionaryVariables
280
     0
  1
STANDARD
  0
DICTIONARYVAR
  5
10064
102
{ACAD_REACTORS
330
10063
102
}
330
10063
100
DictionaryVariables
280
     0
  1
STANDARD
  0
DICTIONARYVAR
  5
10066
102
{ACAD_REACTORS
330
10063
102
}
330
10063
100
DictionaryVariables
280
     0
  1
Metric50
  0
DICTIONARYVAR
  5
10067
102
{ACAD_REACTORS
330
10063
102
}
330
10063
100
DictionaryVariables
280
     0
  1
Metric50
  0
DICTIONARYVAR
  5
1006B
102
{ACAD_REACTORS
330
10063
102
}
330
10063
100
DictionaryVariables
280
     0
  1
1
  0
DICTIONARYVAR
  5
1006C
102
{ACAD_REACTORS
330
10063
102
}
330
10063
100
DictionaryVariables
280
     0
  1
15
  0
DICTIONARYVAR
  5
1006A
102
{ACAD_REACTORS
330
10063
102
}
330
10063
100
DictionaryVariables
280
     0
  1
0
  0
DICTIONARYVAR
  5
10068
102
{ACAD_REACTORS
330
10063
102
}
330
10063
100
DictionaryVariables
280
     0
  1
0
  0
DICTIONARY
  5
10072
330
1004F
100
AcDbDictionary
280
     1
281
     1
  3
ACAD_XREC_ROUNDTRIP
360
10073
  0
DICTIONARY
  5
1000D
330
1000C
100
AcDbDictionary
280
     1
281
     1
  3
BUMPTILE
360
1000F
  3
DIFFUSETILE
360
1000E
  3
OPACITYTILE
360
10012
  3
REFLECTIONTILE
360
10011
  3
REFRACTIONTILE
360
10013
  3
SPECULARTILE
360
10010
  0
DICTIONARY
  5
10005
330
10004
100
AcDbDictionary
280
     1
281
     1
  3
BUMPTILE
360
10007
  3
DIFFUSETILE
360
10006
  3
OPACITYTILE
360
1000A
  3
REFLECTIONTILE
360
10009
  3
REFRACTIONTILE
360
1000B
  3
SPECULARTILE
360
10008
  0
DICTIONARY
  5
10015
330
10014
100
AcDbDictionary
280
     1
281
     1
  3
BUMPTILE
360
10017
  3
DIFFUSETILE
360
10016
  3
OPACITYTILE
360
1001A
  3
REFLECTIONTILE
360
10019
  3
REFRACTIONTILE
360
1001B
  3
SPECULARTILE
360
10018
  0
DICTIONARY
  5
10070
330
1004D
100
AcDbDictionary
280
     1
281
     1
  3
ACAD_XREC_ROUNDTRIP
360
10071
  0
DICTIONARY
  5
1006E
330
10037
100
AcDbDictionary
280
     1
281
     1
  3
ACAD_ROUNDTRIP_2008_TABLESTYLE_CELLSTYLEMAP
360
1006F
  0
XRECORD
  5
10073
102
{ACAD_REACTORS
330
10072
102
}
330
10072
100
AcDbXrecord
280
     1
102
DISPLAYNAME
  1
Metric50
102
FLAGS
 90
        0
  0
XRECORD
  5
1000F
102
{ACAD_REACTORS
330
1000D
102
}
330
1000D
100
AcDbXrecord
280
     1
270
     1
271
     1
  0
XRECORD
  5
1000E
102
{ACAD_REACTORS
330
1000D
102
}
330
1000D
100
AcDbXrecord
280
     1
270
     1
271
     1
  0
XRECORD
  5
10012
102
{ACAD_REACTORS
330
1000D
102
}
330
1000D
100
AcDbXrecord
280
     1
270
     1
271
     1
  0
XRECORD
  5
10011
102
{ACAD_REACTORS
330
1000D
102
}
330
1000D
100
AcDbXrecord
280
     1
270
     1
271
     1
  0
XRECORD
  5
10013
102
{ACAD_REACTORS
330
1000D
102
}
330
1000D
100
AcDbXrecord
280
     1
270
     1
271
     1
  0
XRECORD
  5
10010
102
{ACAD_REACTORS
330
1000D
102
}
330
1000D
100
AcDbXrecord
280
     1
270
     1
271
     1
  0
XRECORD
  5
10007
102
{ACAD_REACTORS
330
10005
102
}
330
10005
100
AcDbXrecord
280
     1
270
     1
271
     1
  0
XRECORD
  5
10006
102
{ACAD_REACTORS
330
10005
102
}
330
10005
100
AcDbXrecord
280
     1
270
     1
271
     1
  0
XRECORD
  5
1000A
102
{ACAD_REACTORS
330
10005
102
}
330
10005
100
AcDbXrecord
280
     1
270
     1
271
     1
  0
XRECORD
  5
10009
102
{ACAD_REACTORS
330
10005
102
}
330
10005
100
AcDbXrecord
280
     1
270
     1
271
     1
  0
XRECORD
  5
1000B
102
{ACAD_REACTORS
330
10005
102
}
330
10005
100
AcDbXrecord
280
     1
270
     1
271
     1
  0
XRECORD
  5
10008
102
{ACAD_REACTORS
330
10005
102
}
330
10005
100
AcDbXrecord
280
     1
270
     1
271
     1
  0
XRECORD
  5
10017
102
{ACAD_REACTORS
330
10015
102
}
330
10015
100
AcDbXrecord
280
     1
270
     1
271
     1
  0
XRECORD
  5
10016
102
{ACAD_REACTORS
330
10015
102
}
330
10015
100
AcDbXrecord
280
     1
270
     1
271
     1
  0
XRECORD
  5
1001A
102
{ACAD_REACTORS
330
10015
102
}
330
10015
100
AcDbXrecord
280
     1
270
     1
271
     1
  0
XRECORD
  5
10019
102
{ACAD_REACTORS
330
10015
102
}
330
10015
100
AcDbXrecord
280
     1
270
     1
271
     1
  0
XRECORD
  5
1001B
102
{ACAD_REACTORS
330
10015
102
}
330
10015
100
AcDbXrecord
280
     1
270
     1
271
     1
  0
XRECORD
  5
10018
102
{ACAD_REACTORS
330
10015
102
}
330
10015
100
AcDbXrecord
280
     1
270
     1
271
     1
  0
XRECORD
  5
10071
102
{ACAD_REACTORS
330
10070
102
}
330
10070
100
AcDbXrecord
280
     1
102
DISPLAYNAME
  1
Metric50
102
FLAGS
 90
        0
  0
CELLSTYLEMAP
  5
1006F
102
{ACAD_REACTORS
330
1006E
102
}
330
1006E
100
AcDbCellStyleMap
 90
        3
300
CELLSTYLE
  1
TABLEFORMAT_BEGIN
 90
        5
170
     1
 91
        0
 92
    32768
 62
   257
 93
        1
300
CONTENTFORMAT
  1
CONTENTFORMAT_BEGIN
 90
        0
 91
        0
 92
      512
 93
        0
300

 40
0.0
140
1.0
 94
        5
 62
     0
340
11
144
6.0
309
CONTENTFORMAT_END
171
     1
301
MARGIN
  1
CELLMARGIN_BEGIN
 40
1.5
 40
1.5
 40
1.5
 40
1.5
 40
4.5
 40
4.5
309
CELLMARGIN_END
 94
        6
 95
        1
302
GRIDFORMAT
  1
GRIDFORMAT_BEGIN
 90
        0
 91
        1
 62
     0
 92
       -2
340
0
 93
        0
 40
1.125
309
GRIDFORMAT_END
 95
        2
302
GRIDFORMAT
  1
GRIDFORMAT_BEGIN
 90
        0
 91
        1
 62
     0
 92
       -2
340
0
 93
        0
 40
1.125
309
GRIDFORMAT_END
 95
        4
302
GRIDFORMAT
  1
GRIDFORMAT_BEGIN
 90
        0
 91
        1
 62
     0
 92
       -2
340
0
 93
        0
 40
1.125
309
GRIDFORMAT_END
 95
        8
302
GRIDFORMAT
  1
GRIDFORMAT_BEGIN
 90
        0
 91
        1
 62
     0
 92
       -2
340
0
 93
        0
 40
1.125
309
GRIDFORMAT_END
 95
       16
302
GRIDFORMAT
  1
GRIDFORMAT_BEGIN
 90
        0
 91
        1
 62
     0
 92
       -2
340
0
 93
        0
 40
1.125
309
GRIDFORMAT_END
 95
       32
302
GRIDFORMAT
  1
GRIDFORMAT_BEGIN
 90
        0
 91
        1
 62
     0
 92
       -2
340
0
 93
        0
 40
1.125
309
GRIDFORMAT_END
309
TABLEFORMAT_END
  1
CELLSTYLE_BEGIN
 90
        1
 91
        1
300
_TITLE
309
CELLSTYLE_END
300
CELLSTYLE
  1
TABLEFORMAT_BEGIN
 90
        5
170
     1
 91
        0
 92
        0
 62
   257
 93
        1
300
CONTENTFORMAT
  1
CONTENTFORMAT_BEGIN
 90
        0
 91
        0
 92
      512
 93
        0
300

 40
0.0
140
1.0
 94
        5
 62
     0
340
11
144
4.5
309
CONTENTFORMAT_END
171
     1
301
MARGIN
  1
CELLMARGIN_BEGIN
 40
1.5
 40
1.5
 40
1.5
 40
1.5
 40
4.5
 40
4.5
309
CELLMARGIN_END
 94
        6
 95
        1
302
GRIDFORMAT
  1
GRIDFORMAT_BEGIN
 90
        0
 91
        1
 62
     0
 92
       -2
340
0
 93
        0
 40
1.125
309
GRIDFORMAT_END
 95
        2
302
GRIDFORMAT
  1
GRIDFORMAT_BEGIN
 90
        0
 91
        1
 62
     0
 92
       -2
340
0
 93
        0
 40
1.125
309
GRIDFORMAT_END
 95
        4
302
GRIDFORMAT
  1
GRIDFORMAT_BEGIN
 90
        0
 91
        1
 62
     0
 92
       -2
340
0
 93
        0
 40
1.125
309
GRIDFORMAT_END
 95
        8
302
GRIDFORMAT
  1
GRIDFORMAT_BEGIN
 90
        0
 91
        1
 62
     0
 92
       -2
340
0
 93
        0
 40
1.125
309
GRIDFORMAT_END
 95
       16
302
GRIDFORMAT
  1
GRIDFORMAT_BEGIN
 90
        0
 91
        1
 62
     0
 92
       -2
340
0
 93
        0
 40
1.125
309
GRIDFORMAT_END
 95
       32
302
GRIDFORMAT
  1
GRIDFORMAT_BEGIN
 90
        0
 91
        1
 62
     0
 92
       -2
340
0
 93
        0
 40
1.125
309
GRIDFORMAT_END
309
TABLEFORMAT_END
  1
CELLSTYLE_BEGIN
 90
        2
 91
        1
300
_HEADER
309
CELLSTYLE_END
300
CELLSTYLE
  1
TABLEFORMAT_BEGIN
 90
        5
170
     1
 91
        0
 92
        0
 62
   257
 93
        1
300
CONTENTFORMAT
  1
CONTENTFORMAT_BEGIN
 90
        0
 91
        0
 92
      512
 93
        0
300

 40
0.0
140
1.0
 94
        2
 62
     0
340
11
144
4.5
309
CONTENTFORMAT_END
171
     1
301
MARGIN
  1
CELLMARGIN_BEGIN
 40
1.5
 40
1.5
 40
1.5
 40
1.5
 40
4.5
 40
4.5
309
CELLMARGIN_END
 94
        6
 95
        1
302
GRIDFORMAT
  1
GRIDFORMAT_BEGIN
 90
        0
 91
        1
 62
     0
 92
       -2
340
0
 93
        0
 40
1.125
309
GRIDFORMAT_END
 95
        2
302
GRIDFORMAT
  1
GRIDFORMAT_BEGIN
 90
        0
 91
        1
 62
     0
 92
       -2
340
0
 93
        0
 40
1.125
309
GRIDFORMAT_END
 95
        4
302
GRIDFORMAT
  1
GRIDFORMAT_BEGIN
 90
        0
 91
        1
 62
     0
 92
       -2
340
0
 93
        0
 40
1.125
309
GRIDFORMAT_END
 95
        8
302
GRIDFORMAT
  1
GRIDFORMAT_BEGIN
 90
        0
 91
        1
 62
     0
 92
       -2
340
0
 93
        0
 40
1.125
309
GRIDFORMAT_END
 95
       16
302
GRIDFORMAT
  1
GRIDFORMAT_BEGIN
 90
        0
 91
        1
 62
     0
 92
       -2
340
0
 93
        0
 40
1.125
309
GRIDFORMAT_END
 95
       32
302
GRIDFORMAT
  1
GRIDFORMAT_BEGIN
 90
        0
 91
        1
 62
     0
 92
       -2
340
0
 93
        0
 40
1.125
309
GRIDFORMAT_END
309
TABLEFORMAT_END
  1
CELLSTYLE_BEGIN
 90
        3
 91
        2
300
_DATA
309
CELLSTYLE_END
  0
ENDSEC
  0
EOF
