  0
SECTION
  2
BLOCKS
  0
ENDSEC
  0
SECTION
  2
ENTITIES
  0
LINE
  8
0
 10
115
 20
70
 11
-115
 21
70
  0
LINE
  8
0
 10
-115
 20
70
 11
-115
 21
-70
  0
LINE
  8
0
 10
-115
 20
-70
 11
115
 21
-70
  0
LINE
  8
0
 10
115
 20
-70
 11
115
 21
70
  0
LINE
  8
0
 10
4.90581
 20
63.5029
 11
4.71892
 21
63.5266
  0
LINE
  8
0
 10
4.71892
 20
63.5266
 11
4.53647
 21
63.5734
  0
LINE
  8
0
 10
4.53647
 20
63.5734
 11
4.36133
 21
63.6427
  0
LINE
  8
0
 10
4.36133
 20
63.6427
 11
4.19626
 21
63.7335
  0
LINE
  8
0
 10
4.19626
 20
63.7335
 11
4.04385
 21
63.8442
  0
LINE
  8
0
 10
4.04385
 20
63.8442
 11
3.90654
 21
63.9732
  0
LINE
  8
0
 10
3.90654
 20
63.9732
 11
3.78647
 21
64.1183
  0
LINE
  8
0
 10
3.78647
 20
64.1183
 11
3.68553
 21
64.2774
  0
LINE
  8
0
 10
3.68553
 20
64.2774
 11
3.60533
 21
64.4478
  0
LINE
  8
0
 10
3.60533
 20
64.4478
 11
3.54712
 21
64.627
  0
LINE
  8
0
 10
3.54712
 20
64.627
 11
3.51183
 21
64.812
  0
LINE
  8
0
 10
3.51183
 20
64.812
 11
3.5
 21
65
  0
LINE
  8
0
 10
3.5
 20
65
 11
3.51183
 21
65.188
  0
LINE
  8
0
 10
3.51183
 20
65.188
 11
3.54712
 21
65.373
  0
LINE
  8
0
 10
3.54712
 20
65.373
 11
3.60533
 21
65.5522
  0
LINE
  8
0
 10
3.60533
 20
65.5522
 11
3.68553
 21
65.7226
  0
LINE
  8
0
 10
3.68553
 20
65.7226
 11
3.78647
 21
65.8817
  0
LINE
  8
0
 10
3.78647
 20
65.8817
 11
3.90654
 21
66.0268
  0
LINE
  8
0
 10
3.90654
 20
66.0268
 11
4.04385
 21
66.1558
  0
LINE
  8
0
 10
4.04385
 20
66.1558
 11
4.19626
 21
66.2665
  0
LINE
  8
0
 10
4.19626
 20
66.2665
 11
4.36133
 21
66.3572
  0
LINE
  8
0
 10
4.36133
 20
66.3572
 11
4.53647
 21
66.4266
  0
LINE
  8
0
 10
4.53647
 20
66.4266
 11
4.71892
 21
66.4734
  0
LINE
  8
0
 10
4.71892
 20
66.4734
 11
4.90581
 21
66.497
  0
LINE
  8
0
 10
4.90581
 20
66.497
 11
5.09418
 21
66.497
  0
LINE
  8
0
 10
5.09418
 20
66.497
 11
5.28107
 21
66.4734
  0
LINE
  8
0
 10
5.28107
 20
66.4734
 11
5.46352
 21
66.4266
  0
LINE
  8
0
 10
5.46352
 20
66.4266
 11
5.63866
 21
66.3572
  0
LINE
  8
0
 10
5.63866
 20
66.3572
 11
5.80373
 21
66.2665
  0
LINE
  8
0
 10
5.80373
 20
66.2665
 11
5.95613
 21
66.1558
  0
LINE
  8
0
 10
5.95613
 20
66.1558
 11
6.09344
 21
66.0268
  0
LINE
  8
0
 10
6.09344
 20
66.0268
 11
6.21352
 21
65.8817
  0
LINE
  8
0
 10
6.21352
 20
65.8817
 11
6.31445
 21
65.7226
  0
LINE
  8
0
 10
6.31445
 20
65.7226
 11
6.39465
 21
65.5522
  0
LINE
  8
0
 10
6.39465
 20
65.5522
 11
6.45287
 21
65.373
  0
LINE
  8
0
 10
6.45287
 20
65.373
 11
6.48816
 21
65.188
  0
LINE
  8
0
 10
6.48816
 20
65.188
 11
6.5
 21
65
  0
LINE
  8
0
 10
6.5
 20
65
 11
6.48816
 21
64.812
  0
LINE
  8
0
 10
6.48816
 20
64.812
 11
6.45287
 21
64.627
  0
LINE
  8
0
 10
6.45287
 20
64.627
 11
6.39465
 21
64.4478
  0
LINE
  8
0
 10
6.39465
 20
64.4478
 11
6.31445
 21
64.2774
  0
LINE
  8
0
 10
6.31445
 20
64.2774
 11
6.21352
 21
64.1183
  0
LINE
  8
0
 10
6.21352
 20
64.1183
 11
6.09344
 21
63.9732
  0
LINE
  8
0
 10
6.09344
 20
63.9732
 11
5.95613
 21
63.8442
  0
LINE
  8
0
 10
5.95613
 20
63.8442
 11
5.80373
 21
63.7335
  0
LINE
  8
0
 10
5.80373
 20
63.7335
 11
5.63866
 21
63.6427
  0
LINE
  8
0
 10
5.63866
 20
63.6427
 11
5.46352
 21
63.5734
  0
LINE
  8
0
 10
5.46352
 20
63.5734
 11
5.28107
 21
63.5266
  0
LINE
  8
0
 10
5.28107
 20
63.5266
 11
5.09418
 21
63.5029
  0
LINE
  8
0
 10
5.09418
 20
63.5029
 11
4.90581
 21
63.5029
  0
LINE
  8
0
 10
-76
 20
38
 11
-76
 21
62
  0
LINE
  8
0
 10
-76
 20
62
 11
-64
 21
62
  0
LINE
  8
0
 10
-64
 20
62
 11
-64
 21
38
  0
LINE
  8
0
 10
-64
 20
38
 11
-76
 21
38
  0
LINE
  8
0
 10
105.974
 20
58.0039
 11
105.725
 21
58.0354
  0
LINE
  8
0
 10
105.725
 20
58.0354
 11
105.482
 21
58.0979
  0
LINE
  8
0
 10
105.482
 20
58.0979
 11
105.248
 21
58.1903
  0
LINE
  8
0
 10
105.248
 20
58.1903
 11
105.028
 21
58.3113
  0
LINE
  8
0
 10
105.028
 20
58.3113
 11
104.825
 21
58.459
  0
LINE
  8
0
 10
104.825
 20
58.459
 11
104.642
 21
58.6309
  0
LINE
  8
0
 10
104.642
 20
58.6309
 11
104.482
 21
58.8244
  0
LINE
  8
0
 10
104.482
 20
58.8244
 11
104.347
 21
59.0365
  0
LINE
  8
0
 10
104.347
 20
59.0365
 11
104.24
 21
59.2637
  0
LINE
  8
0
 10
104.24
 20
59.2637
 11
104.163
 21
59.5026
  0
LINE
  8
0
 10
104.163
 20
59.5026
 11
104.116
 21
59.7493
  0
LINE
  8
0
 10
104.116
 20
59.7493
 11
104.1
 21
60
  0
LINE
  8
0
 10
104.1
 20
60
 11
104.116
 21
60.2507
  0
LINE
  8
0
 10
104.116
 20
60.2507
 11
104.163
 21
60.4974
  0
LINE
  8
0
 10
104.163
 20
60.4974
 11
104.24
 21
60.7362
  0
LINE
  8
0
 10
104.24
 20
60.7362
 11
104.347
 21
60.9635
  0
LINE
  8
0
 10
104.347
 20
60.9635
 11
104.482
 21
61.1756
  0
LINE
  8
0
 10
104.482
 20
61.1756
 11
104.642
 21
61.3691
  0
LINE
  8
0
 10
104.642
 20
61.3691
 11
104.825
 21
61.541
  0
LINE
  8
0
 10
104.825
 20
61.541
 11
105.028
 21
61.6886
  0
LINE
  8
0
 10
105.028
 20
61.6886
 11
105.248
 21
61.8096
  0
LINE
  8
0
 10
105.248
 20
61.8096
 11
105.482
 21
61.9021
  0
LINE
  8
0
 10
105.482
 20
61.9021
 11
105.725
 21
61.9646
  0
LINE
  8
0
 10
105.725
 20
61.9646
 11
105.974
 21
61.996
  0
LINE
  8
0
 10
105.974
 20
61.996
 11
106.226
 21
61.996
  0
LINE
  8
0
 10
106.226
 20
61.996
 11
106.475
 21
61.9646
  0
LINE
  8
0
 10
106.475
 20
61.9646
 11
106.718
 21
61.9021
  0
LINE
  8
0
 10
106.718
 20
61.9021
 11
106.952
 21
61.8096
  0
LINE
  8
0
 10
106.952
 20
61.8096
 11
107.172
 21
61.6886
  0
LINE
  8
0
 10
107.172
 20
61.6886
 11
107.375
 21
61.541
  0
LINE
  8
0
 10
107.375
 20
61.541
 11
107.558
 21
61.3691
  0
LINE
  8
0
 10
107.558
 20
61.3691
 11
107.718
 21
61.1756
  0
LINE
  8
0
 10
107.718
 20
61.1756
 11
107.853
 21
60.9635
  0
LINE
  8
0
 10
107.853
 20
60.9635
 11
107.96
 21
60.7362
  0
LINE
  8
0
 10
107.96
 20
60.7362
 11
108.037
 21
60.4974
  0
LINE
  8
0
 10
108.037
 20
60.4974
 11
108.084
 21
60.2507
  0
LINE
  8
0
 10
108.084
 20
60.2507
 11
108.1
 21
60
  0
LINE
  8
0
 10
108.1
 20
60
 11
108.084
 21
59.7493
  0
LINE
  8
0
 10
108.084
 20
59.7493
 11
108.037
 21
59.5026
  0
LINE
  8
0
 10
108.037
 20
59.5026
 11
107.96
 21
59.2637
  0
LINE
  8
0
 10
107.96
 20
59.2637
 11
107.853
 21
59.0365
  0
LINE
  8
0
 10
107.853
 20
59.0365
 11
107.718
 21
58.8244
  0
LINE
  8
0
 10
107.718
 20
58.8244
 11
107.558
 21
58.6309
  0
LINE
  8
0
 10
107.558
 20
58.6309
 11
107.375
 21
58.459
  0
LINE
  8
0
 10
107.375
 20
58.459
 11
107.172
 21
58.3113
  0
LINE
  8
0
 10
107.172
 20
58.3113
 11
106.952
 21
58.1903
  0
LINE
  8
0
 10
106.952
 20
58.1903
 11
106.718
 21
58.0979
  0
LINE
  8
0
 10
106.718
 20
58.0979
 11
106.475
 21
58.0354
  0
LINE
  8
0
 10
106.475
 20
58.0354
 11
106.226
 21
58.0039
  0
LINE
  8
0
 10
106.226
 20
58.0039
 11
105.974
 21
58.0039
  0
LINE
  8
0
 10
-106.226
 20
58.0039
 11
-106.475
 21
58.0354
  0
LINE
  8
0
 10
-106.475
 20
58.0354
 11
-106.718
 21
58.0979
  0
LINE
  8
0
 10
-106.718
 20
58.0979
 11
-106.952
 21
58.1903
  0
LINE
  8
0
 10
-106.952
 20
58.1903
 11
-107.172
 21
58.3113
  0
LINE
  8
0
 10
-107.172
 20
58.3113
 11
-107.375
 21
58.459
  0
LINE
  8
0
 10
-107.375
 20
58.459
 11
-107.558
 21
58.6309
  0
LINE
  8
0
 10
-107.558
 20
58.6309
 11
-107.718
 21
58.8244
  0
LINE
  8
0
 10
-107.718
 20
58.8244
 11
-107.853
 21
59.0365
  0
LINE
  8
0
 10
-107.853
 20
59.0365
 11
-107.96
 21
59.2637
  0
LINE
  8
0
 10
-107.96
 20
59.2637
 11
-108.037
 21
59.5026
  0
LINE
  8
0
 10
-108.037
 20
59.5026
 11
-108.084
 21
59.7493
  0
LINE
  8
0
 10
-108.084
 20
59.7493
 11
-108.1
 21
60
  0
LINE
  8
0
 10
-108.1
 20
60
 11
-108.084
 21
60.2507
  0
LINE
  8
0
 10
-108.084
 20
60.2507
 11
-108.037
 21
60.4974
  0
LINE
  8
0
 10
-108.037
 20
60.4974
 11
-107.96
 21
60.7362
  0
LINE
  8
0
 10
-107.96
 20
60.7362
 11
-107.853
 21
60.9635
  0
LINE
  8
0
 10
-107.853
 20
60.9635
 11
-107.718
 21
61.1756
  0
LINE
  8
0
 10
-107.718
 20
61.1756
 11
-107.558
 21
61.3691
  0
LINE
  8
0
 10
-107.558
 20
61.3691
 11
-107.375
 21
61.541
  0
LINE
  8
0
 10
-107.375
 20
61.541
 11
-107.172
 21
61.6886
  0
LINE
  8
0
 10
-107.172
 20
61.6886
 11
-106.952
 21
61.8096
  0
LINE
  8
0
 10
-106.952
 20
61.8096
 11
-106.718
 21
61.9021
  0
LINE
  8
0
 10
-106.718
 20
61.9021
 11
-106.475
 21
61.9646
  0
LINE
  8
0
 10
-106.475
 20
61.9646
 11
-106.226
 21
61.996
  0
LINE
  8
0
 10
-106.226
 20
61.996
 11
-105.974
 21
61.996
  0
LINE
  8
0
 10
-105.974
 20
61.996
 11
-105.725
 21
61.9646
  0
LINE
  8
0
 10
-105.725
 20
61.9646
 11
-105.482
 21
61.9021
  0
LINE
  8
0
 10
-105.482
 20
61.9021
 11
-105.248
 21
61.8096
  0
LINE
  8
0
 10
-105.248
 20
61.8096
 11
-105.028
 21
61.6886
  0
LINE
  8
0
 10
-105.028
 20
61.6886
 11
-104.825
 21
61.541
  0
LINE
  8
0
 10
-104.825
 20
61.541
 11
-104.642
 21
61.3691
  0
LINE
  8
0
 10
-104.642
 20
61.3691
 11
-104.482
 21
61.1756
  0
LINE
  8
0
 10
-104.482
 20
61.1756
 11
-104.347
 21
60.9635
  0
LINE
  8
0
 10
-104.347
 20
60.9635
 11
-104.24
 21
60.7362
  0
LINE
  8
0
 10
-104.24
 20
60.7362
 11
-104.163
 21
60.4974
  0
LINE
  8
0
 10
-104.163
 20
60.4974
 11
-104.116
 21
60.2507
  0
LINE
  8
0
 10
-104.116
 20
60.2507
 11
-104.1
 21
60
  0
LINE
  8
0
 10
-104.1
 20
60
 11
-104.116
 21
59.7493
  0
LINE
  8
0
 10
-104.116
 20
59.7493
 11
-104.163
 21
59.5026
  0
LINE
  8
0
 10
-104.163
 20
59.5026
 11
-104.24
 21
59.2637
  0
LINE
  8
0
 10
-104.24
 20
59.2637
 11
-104.347
 21
59.0365
  0
LINE
  8
0
 10
-104.347
 20
59.0365
 11
-104.482
 21
58.8244
  0
LINE
  8
0
 10
-104.482
 20
58.8244
 11
-104.642
 21
58.6309
  0
LINE
  8
0
 10
-104.642
 20
58.6309
 11
-104.825
 21
58.459
  0
LINE
  8
0
 10
-104.825
 20
58.459
 11
-105.028
 21
58.3113
  0
LINE
  8
0
 10
-105.028
 20
58.3113
 11
-105.248
 21
58.1903
  0
LINE
  8
0
 10
-105.248
 20
58.1903
 11
-105.482
 21
58.0979
  0
LINE
  8
0
 10
-105.482
 20
58.0979
 11
-105.725
 21
58.0354
  0
LINE
  8
0
 10
-105.725
 20
58.0354
 11
-105.974
 21
58.0039
  0
LINE
  8
0
 10
-105.974
 20
58.0039
 11
-106.226
 21
58.0039
  0
LINE
  8
0
 10
-80
 20
56
 11
-80
 21
60
  0
LINE
  8
0
 10
-80
 20
60
 11
-78
 21
60
  0
LINE
  8
0
 10
-78
 20
60
 11
-78
 21
56
  0
LINE
  8
0
 10
-78
 20
56
 11
-80
 21
56
  0
LINE
  8
0
 10
-62
 20
56
 11
-62
 21
60
  0
LINE
  8
0
 10
-62
 20
60
 11
-60
 21
60
  0
LINE
  8
0
 10
-60
 20
60
 11
-60
 21
56
  0
LINE
  8
0
 10
-60
 20
56
 11
-62
 21
56
  0
LINE
  8
0
 10
49.9058
 20
48.5029
 11
49.7189
 21
48.5266
  0
LINE
  8
0
 10
49.7189
 20
48.5266
 11
49.5365
 21
48.5734
  0
LINE
  8
0
 10
49.5365
 20
48.5734
 11
49.3613
 21
48.6427
  0
LINE
  8
0
 10
49.3613
 20
48.6427
 11
49.1963
 21
48.7335
  0
LINE
  8
0
 10
49.1963
 20
48.7335
 11
49.0439
 21
48.8442
  0
LINE
  8
0
 10
49.0439
 20
48.8442
 11
48.9065
 21
48.9732
  0
LINE
  8
0
 10
48.9065
 20
48.9732
 11
48.7865
 21
49.1183
  0
LINE
  8
0
 10
48.7865
 20
49.1183
 11
48.6855
 21
49.2774
  0
LINE
  8
0
 10
48.6855
 20
49.2774
 11
48.6053
 21
49.4478
  0
LINE
  8
0
 10
48.6053
 20
49.4478
 11
48.5471
 21
49.627
  0
LINE
  8
0
 10
48.5471
 20
49.627
 11
48.5118
 21
49.812
  0
LINE
  8
0
 10
48.5118
 20
49.812
 11
48.5
 21
50
  0
LINE
  8
0
 10
48.5
 20
50
 11
48.5118
 21
50.188
  0
LINE
  8
0
 10
48.5118
 20
50.188
 11
48.5471
 21
50.373
  0
LINE
  8
0
 10
48.5471
 20
50.373
 11
48.6053
 21
50.5522
  0
LINE
  8
0
 10
48.6053
 20
50.5522
 11
48.6855
 21
50.7226
  0
LINE
  8
0
 10
48.6855
 20
50.7226
 11
48.7865
 21
50.8817
  0
LINE
  8
0
 10
48.7865
 20
50.8817
 11
48.9065
 21
51.0268
  0
LINE
  8
0
 10
48.9065
 20
51.0268
 11
49.0439
 21
51.1558
  0
LINE
  8
0
 10
49.0439
 20
51.1558
 11
49.1963
 21
51.2665
  0
LINE
  8
0
 10
49.1963
 20
51.2665
 11
49.3613
 21
51.3572
  0
LINE
  8
0
 10
49.3613
 20
51.3572
 11
49.5365
 21
51.4266
  0
LINE
  8
0
 10
49.5365
 20
51.4266
 11
49.7189
 21
51.4734
  0
LINE
  8
0
 10
49.7189
 20
51.4734
 11
49.9058
 21
51.497
  0
LINE
  8
0
 10
49.9058
 20
51.497
 11
50.0942
 21
51.497
  0
LINE
  8
0
 10
50.0942
 20
51.497
 11
50.2811
 21
51.4734
  0
LINE
  8
0
 10
50.2811
 20
51.4734
 11
50.4635
 21
51.4266
  0
LINE
  8
0
 10
50.4635
 20
51.4266
 11
50.6387
 21
51.3572
  0
LINE
  8
0
 10
50.6387
 20
51.3572
 11
50.8037
 21
51.2665
  0
LINE
  8
0
 10
50.8037
 20
51.2665
 11
50.9561
 21
51.1558
  0
LINE
  8
0
 10
50.9561
 20
51.1558
 11
51.0934
 21
51.0268
  0
LINE
  8
0
 10
51.0934
 20
51.0268
 11
51.2135
 21
50.8817
  0
LINE
  8
0
 10
51.2135
 20
50.8817
 11
51.3145
 21
50.7226
  0
LINE
  8
0
 10
51.3145
 20
50.7226
 11
51.3947
 21
50.5522
  0
LINE
  8
0
 10
51.3947
 20
50.5522
 11
51.4529
 21
50.373
  0
LINE
  8
0
 10
51.4529
 20
50.373
 11
51.4882
 21
50.188
  0
LINE
  8
0
 10
51.4882
 20
50.188
 11
51.5
 21
50
  0
LINE
  8
0
 10
51.5
 20
50
 11
51.4882
 21
49.812
  0
LINE
  8
0
 10
51.4882
 20
49.812
 11
51.4529
 21
49.627
  0
LINE
  8
0
 10
51.4529
 20
49.627
 11
51.3947
 21
49.4478
  0
LINE
  8
0
 10
51.3947
 20
49.4478
 11
51.3145
 21
49.2774
  0
LINE
  8
0
 10
51.3145
 20
49.2774
 11
51.2135
 21
49.1183
  0
LINE
  8
0
 10
51.2135
 20
49.1183
 11
51.0934
 21
48.9732
  0
LINE
  8
0
 10
51.0934
 20
48.9732
 11
50.9561
 21
48.8442
  0
LINE
  8
0
 10
50.9561
 20
48.8442
 11
50.8037
 21
48.7335
  0
LINE
  8
0
 10
50.8037
 20
48.7335
 11
50.6387
 21
48.6427
  0
LINE
  8
0
 10
50.6387
 20
48.6427
 11
50.4635
 21
48.5734
  0
LINE
  8
0
 10
50.4635
 20
48.5734
 11
50.2811
 21
48.5266
  0
LINE
  8
0
 10
50.2811
 20
48.5266
 11
50.0942
 21
48.5029
  0
LINE
  8
0
 10
50.0942
 20
48.5029
 11
49.9058
 21
48.5029
  0
LINE
  8
0
 10
-50.0942
 20
48.5029
 11
-50.2811
 21
48.5266
  0
LINE
  8
0
 10
-50.2811
 20
48.5266
 11
-50.4635
 21
48.5734
  0
LINE
  8
0
 10
-50.4635
 20
48.5734
 11
-50.6387
 21
48.6427
  0
LINE
  8
0
 10
-50.6387
 20
48.6427
 11
-50.8037
 21
48.7335
  0
LINE
  8
0
 10
-50.8037
 20
48.7335
 11
-50.9561
 21
48.8442
  0
LINE
  8
0
 10
-50.9561
 20
48.8442
 11
-51.0934
 21
48.9732
  0
LINE
  8
0
 10
-51.0934
 20
48.9732
 11
-51.2135
 21
49.1183
  0
LINE
  8
0
 10
-51.2135
 20
49.1183
 11
-51.3145
 21
49.2774
  0
LINE
  8
0
 10
-51.3145
 20
49.2774
 11
-51.3947
 21
49.4478
  0
LINE
  8
0
 10
-51.3947
 20
49.4478
 11
-51.4529
 21
49.627
  0
LINE
  8
0
 10
-51.4529
 20
49.627
 11
-51.4882
 21
49.812
  0
LINE
  8
0
 10
-51.4882
 20
49.812
 11
-51.5
 21
50
  0
LINE
  8
0
 10
-51.5
 20
50
 11
-51.4882
 21
50.188
  0
LINE
  8
0
 10
-51.4882
 20
50.188
 11
-51.4529
 21
50.373
  0
LINE
  8
0
 10
-51.4529
 20
50.373
 11
-51.3947
 21
50.5522
  0
LINE
  8
0
 10
-51.3947
 20
50.5522
 11
-51.3145
 21
50.7226
  0
LINE
  8
0
 10
-51.3145
 20
50.7226
 11
-51.2135
 21
50.8817
  0
LINE
  8
0
 10
-51.2135
 20
50.8817
 11
-51.0934
 21
51.0268
  0
LINE
  8
0
 10
-51.0934
 20
51.0268
 11
-50.9561
 21
51.1558
  0
LINE
  8
0
 10
-50.9561
 20
51.1558
 11
-50.8037
 21
51.2665
  0
LINE
  8
0
 10
-50.8037
 20
51.2665
 11
-50.6387
 21
51.3572
  0
LINE
  8
0
 10
-50.6387
 20
51.3572
 11
-50.4635
 21
51.4266
  0
LINE
  8
0
 10
-50.4635
 20
51.4266
 11
-50.2811
 21
51.4734
  0
LINE
  8
0
 10
-50.2811
 20
51.4734
 11
-50.0942
 21
51.497
  0
LINE
  8
0
 10
-50.0942
 20
51.497
 11
-49.9058
 21
51.497
  0
LINE
  8
0
 10
-49.9058
 20
51.497
 11
-49.7189
 21
51.4734
  0
LINE
  8
0
 10
-49.7189
 20
51.4734
 11
-49.5365
 21
51.4266
  0
LINE
  8
0
 10
-49.5365
 20
51.4266
 11
-49.3613
 21
51.3572
  0
LINE
  8
0
 10
-49.3613
 20
51.3572
 11
-49.1963
 21
51.2665
  0
LINE
  8
0
 10
-49.1963
 20
51.2665
 11
-49.0439
 21
51.1558
  0
LINE
  8
0
 10
-49.0439
 20
51.1558
 11
-48.9065
 21
51.0268
  0
LINE
  8
0
 10
-48.9065
 20
51.0268
 11
-48.7865
 21
50.8817
  0
LINE
  8
0
 10
-48.7865
 20
50.8817
 11
-48.6855
 21
50.7226
  0
LINE
  8
0
 10
-48.6855
 20
50.7226
 11
-48.6053
 21
50.5522
  0
LINE
  8
0
 10
-48.6053
 20
50.5522
 11
-48.5471
 21
50.373
  0
LINE
  8
0
 10
-48.5471
 20
50.373
 11
-48.5118
 21
50.188
  0
LINE
  8
0
 10
-48.5118
 20
50.188
 11
-48.5
 21
50
  0
LINE
  8
0
 10
-48.5
 20
50
 11
-48.5118
 21
49.812
  0
LINE
  8
0
 10
-48.5118
 20
49.812
 11
-48.5471
 21
49.627
  0
LINE
  8
0
 10
-48.5471
 20
49.627
 11
-48.6053
 21
49.4478
  0
LINE
  8
0
 10
-48.6053
 20
49.4478
 11
-48.6855
 21
49.2774
  0
LINE
  8
0
 10
-48.6855
 20
49.2774
 11
-48.7865
 21
49.1183
  0
LINE
  8
0
 10
-48.7865
 20
49.1183
 11
-48.9065
 21
48.9732
  0
LINE
  8
0
 10
-48.9065
 20
48.9732
 11
-49.0439
 21
48.8442
  0
LINE
  8
0
 10
-49.0439
 20
48.8442
 11
-49.1963
 21
48.7335
  0
LINE
  8
0
 10
-49.1963
 20
48.7335
 11
-49.3613
 21
48.6427
  0
LINE
  8
0
 10
-49.3613
 20
48.6427
 11
-49.5365
 21
48.5734
  0
LINE
  8
0
 10
-49.5365
 20
48.5734
 11
-49.7189
 21
48.5266
  0
LINE
  8
0
 10
-49.7189
 20
48.5266
 11
-49.9058
 21
48.5029
  0
LINE
  8
0
 10
-49.9058
 20
48.5029
 11
-50.0942
 21
48.5029
  0
LINE
  8
0
 10
-80
 20
40
 11
-80
 21
44
  0
LINE
  8
0
 10
-80
 20
44
 11
-78
 21
44
  0
LINE
  8
0
 10
-78
 20
44
 11
-78
 21
40
  0
LINE
  8
0
 10
-78
 20
40
 11
-80
 21
40
  0
LINE
  8
0
 10
-62
 20
40
 11
-62
 21
44
  0
LINE
  8
0
 10
-62
 20
44
 11
-60
 21
44
  0
LINE
  8
0
 10
-60
 20
44
 11
-60
 21
40
  0
LINE
  8
0
 10
-60
 20
40
 11
-62
 21
40
  0
LINE
  8
0
 10
64
 20
-12
 11
64
 21
12
  0
LINE
  8
0
 10
64
 20
12
 11
76
 21
12
  0
LINE
  8
0
 10
76
 20
12
 11
76
 21
-12
  0
LINE
  8
0
 10
76
 20
-12
 11
64
 21
-12
  0
LINE
  8
0
 10
60
 20
6
 11
60
 21
10
  0
LINE
  8
0
 10
60
 20
10
 11
62
 21
10
  0
LINE
  8
0
 10
62
 20
10
 11
62
 21
6
  0
LINE
  8
0
 10
62
 20
6
 11
60
 21
6
  0
LINE
  8
0
 10
78
 20
6
 11
78
 21
10
  0
LINE
  8
0
 10
78
 20
10
 11
80
 21
10
  0
LINE
  8
0
 10
80
 20
10
 11
80
 21
6
  0
LINE
  8
0
 10
80
 20
6
 11
78
 21
6
  0
LINE
  8
0
 10
60
 20
-10
 11
60
 21
-6
  0
LINE
  8
0
 10
60
 20
-6
 11
62
 21
-6
  0
LINE
  8
0
 10
62
 20
-6
 11
62
 21
-10
  0
LINE
  8
0
 10
62
 20
-10
 11
60
 21
-10
  0
LINE
  8
0
 10
78
 20
-10
 11
78
 21
-6
  0
LINE
  8
0
 10
78
 20
-6
 11
80
 21
-6
  0
LINE
  8
0
 10
80
 20
-6
 11
80
 21
-10
  0
LINE
  8
0
 10
80
 20
-10
 11
78
 21
-10
  0
LINE
  8
0
 10
-76
 20
-62
 11
-76
 21
-38
  0
LINE
  8
0
 10
-76
 20
-38
 11
-64
 21
-38
  0
LINE
  8
0
 10
-64
 20
-38
 11
-64
 21
-62
  0
LINE
  8
0
 10
-64
 20
-62
 11
-76
 21
-62
  0
LINE
  8
0
 10
-62
 20
-44
 11
-62
 21
-40
  0
LINE
  8
0
 10
-62
 20
-40
 11
-60
 21
-40
  0
LINE
  8
0
 10
-60
 20
-40
 11
-60
 21
-44
  0
LINE
  8
0
 10
-60
 20
-44
 11
-62
 21
-44
  0
LINE
  8
0
 10
-80
 20
-44
 11
-80
 21
-40
  0
LINE
  8
0
 10
-80
 20
-40
 11
-78
 21
-40
  0
LINE
  8
0
 10
-78
 20
-40
 11
-78
 21
-44
  0
LINE
  8
0
 10
-78
 20
-44
 11
-80
 21
-44
  0
LINE
  8
0
 10
-50.0942
 20
-51.497
 11
-50.2811
 21
-51.4734
  0
LINE
  8
0
 10
-50.2811
 20
-51.4734
 11
-50.4635
 21
-51.4266
  0
LINE
  8
0
 10
-50.4635
 20
-51.4266
 11
-50.6387
 21
-51.3572
  0
LINE
  8
0
 10
-50.6387
 20
-51.3572
 11
-50.8037
 21
-51.2665
  0
LINE
  8
0
 10
-50.8037
 20
-51.2665
 11
-50.9561
 21
-51.1558
  0
LINE
  8
0
 10
-50.9561
 20
-51.1558
 11
-51.0934
 21
-51.0268
  0
LINE
  8
0
 10
-51.0934
 20
-51.0268
 11
-51.2135
 21
-50.8817
  0
LINE
  8
0
 10
-51.2135
 20
-50.8817
 11
-51.3145
 21
-50.7226
  0
LINE
  8
0
 10
-51.3145
 20
-50.7226
 11
-51.3947
 21
-50.5522
  0
LINE
  8
0
 10
-51.3947
 20
-50.5522
 11
-51.4529
 21
-50.373
  0
LINE
  8
0
 10
-51.4529
 20
-50.373
 11
-51.4882
 21
-50.188
  0
LINE
  8
0
 10
-51.4882
 20
-50.188
 11
-51.5
 21
-50
  0
LINE
  8
0
 10
-51.5
 20
-50
 11
-51.4882
 21
-49.812
  0
LINE
  8
0
 10
-51.4882
 20
-49.812
 11
-51.4529
 21
-49.627
  0
LINE
  8
0
 10
-51.4529
 20
-49.627
 11
-51.3947
 21
-49.4478
  0
LINE
  8
0
 10
-51.3947
 20
-49.4478
 11
-51.3145
 21
-49.2774
  0
LINE
  8
0
 10
-51.3145
 20
-49.2774
 11
-51.2135
 21
-49.1183
  0
LINE
  8
0
 10
-51.2135
 20
-49.1183
 11
-51.0934
 21
-48.9732
  0
LINE
  8
0
 10
-51.0934
 20
-48.9732
 11
-50.9561
 21
-48.8442
  0
LINE
  8
0
 10
-50.9561
 20
-48.8442
 11
-50.8037
 21
-48.7335
  0
LINE
  8
0
 10
-50.8037
 20
-48.7335
 11
-50.6387
 21
-48.6427
  0
LINE
  8
0
 10
-50.6387
 20
-48.6427
 11
-50.4635
 21
-48.5734
  0
LINE
  8
0
 10
-50.4635
 20
-48.5734
 11
-50.2811
 21
-48.5266
  0
LINE
  8
0
 10
-50.2811
 20
-48.5266
 11
-50.0942
 21
-48.5029
  0
LINE
  8
0
 10
-50.0942
 20
-48.5029
 11
-49.9058
 21
-48.5029
  0
LINE
  8
0
 10
-49.9058
 20
-48.5029
 11
-49.7189
 21
-48.5266
  0
LINE
  8
0
 10
-49.7189
 20
-48.5266
 11
-49.5365
 21
-48.5734
  0
LINE
  8
0
 10
-49.5365
 20
-48.5734
 11
-49.3613
 21
-48.6427
  0
LINE
  8
0
 10
-49.3613
 20
-48.6427
 11
-49.1963
 21
-48.7335
  0
LINE
  8
0
 10
-49.1963
 20
-48.7335
 11
-49.0439
 21
-48.8442
  0
LINE
  8
0
 10
-49.0439
 20
-48.8442
 11
-48.9065
 21
-48.9732
  0
LINE
  8
0
 10
-48.9065
 20
-48.9732
 11
-48.7865
 21
-49.1183
  0
LINE
  8
0
 10
-48.7865
 20
-49.1183
 11
-48.6855
 21
-49.2774
  0
LINE
  8
0
 10
-48.6855
 20
-49.2774
 11
-48.6053
 21
-49.4478
  0
LINE
  8
0
 10
-48.6053
 20
-49.4478
 11
-48.5471
 21
-49.627
  0
LINE
  8
0
 10
-48.5471
 20
-49.627
 11
-48.5118
 21
-49.812
  0
LINE
  8
0
 10
-48.5118
 20
-49.812
 11
-48.5
 21
-50
  0
LINE
  8
0
 10
-48.5
 20
-50
 11
-48.5118
 21
-50.188
  0
LINE
  8
0
 10
-48.5118
 20
-50.188
 11
-48.5471
 21
-50.373
  0
LINE
  8
0
 10
-48.5471
 20
-50.373
 11
-48.6053
 21
-50.5522
  0
LINE
  8
0
 10
-48.6053
 20
-50.5522
 11
-48.6855
 21
-50.7226
  0
LINE
  8
0
 10
-48.6855
 20
-50.7226
 11
-48.7865
 21
-50.8817
  0
LINE
  8
0
 10
-48.7865
 20
-50.8817
 11
-48.9065
 21
-51.0268
  0
LINE
  8
0
 10
-48.9065
 20
-51.0268
 11
-49.0439
 21
-51.1558
  0
LINE
  8
0
 10
-49.0439
 20
-51.1558
 11
-49.1963
 21
-51.2665
  0
LINE
  8
0
 10
-49.1963
 20
-51.2665
 11
-49.3613
 21
-51.3572
  0
LINE
  8
0
 10
-49.3613
 20
-51.3572
 11
-49.5365
 21
-51.4266
  0
LINE
  8
0
 10
-49.5365
 20
-51.4266
 11
-49.7189
 21
-51.4734
  0
LINE
  8
0
 10
-49.7189
 20
-51.4734
 11
-49.9058
 21
-51.497
  0
LINE
  8
0
 10
-49.9058
 20
-51.497
 11
-50.0942
 21
-51.497
  0
LINE
  8
0
 10
49.9058
 20
-51.497
 11
49.7189
 21
-51.4734
  0
LINE
  8
0
 10
49.7189
 20
-51.4734
 11
49.5365
 21
-51.4266
  0
LINE
  8
0
 10
49.5365
 20
-51.4266
 11
49.3613
 21
-51.3572
  0
LINE
  8
0
 10
49.3613
 20
-51.3572
 11
49.1963
 21
-51.2665
  0
LINE
  8
0
 10
49.1963
 20
-51.2665
 11
49.0439
 21
-51.1558
  0
LINE
  8
0
 10
49.0439
 20
-51.1558
 11
48.9065
 21
-51.0268
  0
LINE
  8
0
 10
48.9065
 20
-51.0268
 11
48.7865
 21
-50.8817
  0
LINE
  8
0
 10
48.7865
 20
-50.8817
 11
48.6855
 21
-50.7226
  0
LINE
  8
0
 10
48.6855
 20
-50.7226
 11
48.6053
 21
-50.5522
  0
LINE
  8
0
 10
48.6053
 20
-50.5522
 11
48.5471
 21
-50.373
  0
LINE
  8
0
 10
48.5471
 20
-50.373
 11
48.5118
 21
-50.188
  0
LINE
  8
0
 10
48.5118
 20
-50.188
 11
48.5
 21
-50
  0
LINE
  8
0
 10
48.5
 20
-50
 11
48.5118
 21
-49.812
  0
LINE
  8
0
 10
48.5118
 20
-49.812
 11
48.5471
 21
-49.627
  0
LINE
  8
0
 10
48.5471
 20
-49.627
 11
48.6053
 21
-49.4478
  0
LINE
  8
0
 10
48.6053
 20
-49.4478
 11
48.6855
 21
-49.2774
  0
LINE
  8
0
 10
48.6855
 20
-49.2774
 11
48.7865
 21
-49.1183
  0
LINE
  8
0
 10
48.7865
 20
-49.1183
 11
48.9065
 21
-48.9732
  0
LINE
  8
0
 10
48.9065
 20
-48.9732
 11
49.0439
 21
-48.8442
  0
LINE
  8
0
 10
49.0439
 20
-48.8442
 11
49.1963
 21
-48.7335
  0
LINE
  8
0
 10
49.1963
 20
-48.7335
 11
49.3613
 21
-48.6427
  0
LINE
  8
0
 10
49.3613
 20
-48.6427
 11
49.5365
 21
-48.5734
  0
LINE
  8
0
 10
49.5365
 20
-48.5734
 11
49.7189
 21
-48.5266
  0
LINE
  8
0
 10
49.7189
 20
-48.5266
 11
49.9058
 21
-48.5029
  0
LINE
  8
0
 10
49.9058
 20
-48.5029
 11
50.0942
 21
-48.5029
  0
LINE
  8
0
 10
50.0942
 20
-48.5029
 11
50.2811
 21
-48.5266
  0
LINE
  8
0
 10
50.2811
 20
-48.5266
 11
50.4635
 21
-48.5734
  0
LINE
  8
0
 10
50.4635
 20
-48.5734
 11
50.6387
 21
-48.6427
  0
LINE
  8
0
 10
50.6387
 20
-48.6427
 11
50.8037
 21
-48.7335
  0
LINE
  8
0
 10
50.8037
 20
-48.7335
 11
50.9561
 21
-48.8442
  0
LINE
  8
0
 10
50.9561
 20
-48.8442
 11
51.0934
 21
-48.9732
  0
LINE
  8
0
 10
51.0934
 20
-48.9732
 11
51.2135
 21
-49.1183
  0
LINE
  8
0
 10
51.2135
 20
-49.1183
 11
51.3145
 21
-49.2774
  0
LINE
  8
0
 10
51.3145
 20
-49.2774
 11
51.3947
 21
-49.4478
  0
LINE
  8
0
 10
51.3947
 20
-49.4478
 11
51.4529
 21
-49.627
  0
LINE
  8
0
 10
51.4529
 20
-49.627
 11
51.4882
 21
-49.812
  0
LINE
  8
0
 10
51.4882
 20
-49.812
 11
51.5
 21
-50
  0
LINE
  8
0
 10
51.5
 20
-50
 11
51.4882
 21
-50.188
  0
LINE
  8
0
 10
51.4882
 20
-50.188
 11
51.4529
 21
-50.373
  0
LINE
  8
0
 10
51.4529
 20
-50.373
 11
51.3947
 21
-50.5522
  0
LINE
  8
0
 10
51.3947
 20
-50.5522
 11
51.3145
 21
-50.7226
  0
LINE
  8
0
 10
51.3145
 20
-50.7226
 11
51.2135
 21
-50.8817
  0
LINE
  8
0
 10
51.2135
 20
-50.8817
 11
51.0934
 21
-51.0268
  0
LINE
  8
0
 10
51.0934
 20
-51.0268
 11
50.9561
 21
-51.1558
  0
LINE
  8
0
 10
50.9561
 20
-51.1558
 11
50.8037
 21
-51.2665
  0
LINE
  8
0
 10
50.8037
 20
-51.2665
 11
50.6387
 21
-51.3572
  0
LINE
  8
0
 10
50.6387
 20
-51.3572
 11
50.4635
 21
-51.4266
  0
LINE
  8
0
 10
50.4635
 20
-51.4266
 11
50.2811
 21
-51.4734
  0
LINE
  8
0
 10
50.2811
 20
-51.4734
 11
50.0942
 21
-51.497
  0
LINE
  8
0
 10
50.0942
 20
-51.497
 11
49.9058
 21
-51.497
  0
LINE
  8
0
 10
-62
 20
-60
 11
-62
 21
-56
  0
LINE
  8
0
 10
-62
 20
-56
 11
-60
 21
-56
  0
LINE
  8
0
 10
-60
 20
-56
 11
-60
 21
-60
  0
LINE
  8
0
 10
-60
 20
-60
 11
-62
 21
-60
  0
LINE
  8
0
 10
-80
 20
-60
 11
-80
 21
-56
  0
LINE
  8
0
 10
-80
 20
-56
 11
-78
 21
-56
  0
LINE
  8
0
 10
-78
 20
-56
 11
-78
 21
-60
  0
LINE
  8
0
 10
-78
 20
-60
 11
-80
 21
-60
  0
LINE
  8
0
 10
-106.226
 20
-61.996
 11
-106.475
 21
-61.9646
  0
LINE
  8
0
 10
-106.475
 20
-61.9646
 11
-106.718
 21
-61.9021
  0
LINE
  8
0
 10
-106.718
 20
-61.9021
 11
-106.952
 21
-61.8096
  0
LINE
  8
0
 10
-106.952
 20
-61.8096
 11
-107.172
 21
-61.6886
  0
LINE
  8
0
 10
-107.172
 20
-61.6886
 11
-107.375
 21
-61.541
  0
LINE
  8
0
 10
-107.375
 20
-61.541
 11
-107.558
 21
-61.3691
  0
LINE
  8
0
 10
-107.558
 20
-61.3691
 11
-107.718
 21
-61.1756
  0
LINE
  8
0
 10
-107.718
 20
-61.1756
 11
-107.853
 21
-60.9635
  0
LINE
  8
0
 10
-107.853
 20
-60.9635
 11
-107.96
 21
-60.7362
  0
LINE
  8
0
 10
-107.96
 20
-60.7362
 11
-108.037
 21
-60.4974
  0
LINE
  8
0
 10
-108.037
 20
-60.4974
 11
-108.084
 21
-60.2507
  0
LINE
  8
0
 10
-108.084
 20
-60.2507
 11
-108.1
 21
-60
  0
LINE
  8
0
 10
-108.1
 20
-60
 11
-108.084
 21
-59.7493
  0
LINE
  8
0
 10
-108.084
 20
-59.7493
 11
-108.037
 21
-59.5026
  0
LINE
  8
0
 10
-108.037
 20
-59.5026
 11
-107.96
 21
-59.2637
  0
LINE
  8
0
 10
-107.96
 20
-59.2637
 11
-107.853
 21
-59.0365
  0
LINE
  8
0
 10
-107.853
 20
-59.0365
 11
-107.718
 21
-58.8244
  0
LINE
  8
0
 10
-107.718
 20
-58.8244
 11
-107.558
 21
-58.6309
  0
LINE
  8
0
 10
-107.558
 20
-58.6309
 11
-107.375
 21
-58.459
  0
LINE
  8
0
 10
-107.375
 20
-58.459
 11
-107.172
 21
-58.3113
  0
LINE
  8
0
 10
-107.172
 20
-58.3113
 11
-106.952
 21
-58.1903
  0
LINE
  8
0
 10
-106.952
 20
-58.1903
 11
-106.718
 21
-58.0979
  0
LINE
  8
0
 10
-106.718
 20
-58.0979
 11
-106.475
 21
-58.0354
  0
LINE
  8
0
 10
-106.475
 20
-58.0354
 11
-106.226
 21
-58.0039
  0
LINE
  8
0
 10
-106.226
 20
-58.0039
 11
-105.974
 21
-58.0039
  0
LINE
  8
0
 10
-105.974
 20
-58.0039
 11
-105.725
 21
-58.0354
  0
LINE
  8
0
 10
-105.725
 20
-58.0354
 11
-105.482
 21
-58.0979
  0
LINE
  8
0
 10
-105.482
 20
-58.0979
 11
-105.248
 21
-58.1903
  0
LINE
  8
0
 10
-105.248
 20
-58.1903
 11
-105.028
 21
-58.3113
  0
LINE
  8
0
 10
-105.028
 20
-58.3113
 11
-104.825
 21
-58.459
  0
LINE
  8
0
 10
-104.825
 20
-58.459
 11
-104.642
 21
-58.6309
  0
LINE
  8
0
 10
-104.642
 20
-58.6309
 11
-104.482
 21
-58.8244
  0
LINE
  8
0
 10
-104.482
 20
-58.8244
 11
-104.347
 21
-59.0365
  0
LINE
  8
0
 10
-104.347
 20
-59.0365
 11
-104.24
 21
-59.2637
  0
LINE
  8
0
 10
-104.24
 20
-59.2637
 11
-104.163
 21
-59.5026
  0
LINE
  8
0
 10
-104.163
 20
-59.5026
 11
-104.116
 21
-59.7493
  0
LINE
  8
0
 10
-104.116
 20
-59.7493
 11
-104.1
 21
-60
  0
LINE
  8
0
 10
-104.1
 20
-60
 11
-104.116
 21
-60.2507
  0
LINE
  8
0
 10
-104.116
 20
-60.2507
 11
-104.163
 21
-60.4974
  0
LINE
  8
0
 10
-104.163
 20
-60.4974
 11
-104.24
 21
-60.7362
  0
LINE
  8
0
 10
-104.24
 20
-60.7362
 11
-104.347
 21
-60.9635
  0
LINE
  8
0
 10
-104.347
 20
-60.9635
 11
-104.482
 21
-61.1756
  0
LINE
  8
0
 10
-104.482
 20
-61.1756
 11
-104.642
 21
-61.3691
  0
LINE
  8
0
 10
-104.642
 20
-61.3691
 11
-104.825
 21
-61.541
  0
LINE
  8
0
 10
-104.825
 20
-61.541
 11
-105.028
 21
-61.6886
  0
LINE
  8
0
 10
-105.028
 20
-61.6886
 11
-105.248
 21
-61.8096
  0
LINE
  8
0
 10
-105.248
 20
-61.8096
 11
-105.482
 21
-61.9021
  0
LINE
  8
0
 10
-105.482
 20
-61.9021
 11
-105.725
 21
-61.9646
  0
LINE
  8
0
 10
-105.725
 20
-61.9646
 11
-105.974
 21
-61.996
  0
LINE
  8
0
 10
-105.974
 20
-61.996
 11
-106.226
 21
-61.996
  0
LINE
  8
0
 10
105.974
 20
-61.996
 11
105.725
 21
-61.9646
  0
LINE
  8
0
 10
105.725
 20
-61.9646
 11
105.482
 21
-61.9021
  0
LINE
  8
0
 10
105.482
 20
-61.9021
 11
105.248
 21
-61.8096
  0
LINE
  8
0
 10
105.248
 20
-61.8096
 11
105.028
 21
-61.6886
  0
LINE
  8
0
 10
105.028
 20
-61.6886
 11
104.825
 21
-61.541
  0
LINE
  8
0
 10
104.825
 20
-61.541
 11
104.642
 21
-61.3691
  0
LINE
  8
0
 10
104.642
 20
-61.3691
 11
104.482
 21
-61.1756
  0
LINE
  8
0
 10
104.482
 20
-61.1756
 11
104.347
 21
-60.9635
  0
LINE
  8
0
 10
104.347
 20
-60.9635
 11
104.24
 21
-60.7362
  0
LINE
  8
0
 10
104.24
 20
-60.7362
 11
104.163
 21
-60.4974
  0
LINE
  8
0
 10
104.163
 20
-60.4974
 11
104.116
 21
-60.2507
  0
LINE
  8
0
 10
104.116
 20
-60.2507
 11
104.1
 21
-60
  0
LINE
  8
0
 10
104.1
 20
-60
 11
104.116
 21
-59.7493
  0
LINE
  8
0
 10
104.116
 20
-59.7493
 11
104.163
 21
-59.5026
  0
LINE
  8
0
 10
104.163
 20
-59.5026
 11
104.24
 21
-59.2637
  0
LINE
  8
0
 10
104.24
 20
-59.2637
 11
104.347
 21
-59.0365
  0
LINE
  8
0
 10
104.347
 20
-59.0365
 11
104.482
 21
-58.8244
  0
LINE
  8
0
 10
104.482
 20
-58.8244
 11
104.642
 21
-58.6309
  0
LINE
  8
0
 10
104.642
 20
-58.6309
 11
104.825
 21
-58.459
  0
LINE
  8
0
 10
104.825
 20
-58.459
 11
105.028
 21
-58.3113
  0
LINE
  8
0
 10
105.028
 20
-58.3113
 11
105.248
 21
-58.1903
  0
LINE
  8
0
 10
105.248
 20
-58.1903
 11
105.482
 21
-58.0979
  0
LINE
  8
0
 10
105.482
 20
-58.0979
 11
105.725
 21
-58.0354
  0
LINE
  8
0
 10
105.725
 20
-58.0354
 11
105.974
 21
-58.0039
  0
LINE
  8
0
 10
105.974
 20
-58.0039
 11
106.226
 21
-58.0039
  0
LINE
  8
0
 10
106.226
 20
-58.0039
 11
106.475
 21
-58.0354
  0
LINE
  8
0
 10
106.475
 20
-58.0354
 11
106.718
 21
-58.0979
  0
LINE
  8
0
 10
106.718
 20
-58.0979
 11
106.952
 21
-58.1903
  0
LINE
  8
0
 10
106.952
 20
-58.1903
 11
107.172
 21
-58.3113
  0
LINE
  8
0
 10
107.172
 20
-58.3113
 11
107.375
 21
-58.459
  0
LINE
  8
0
 10
107.375
 20
-58.459
 11
107.558
 21
-58.6309
  0
LINE
  8
0
 10
107.558
 20
-58.6309
 11
107.718
 21
-58.8244
  0
LINE
  8
0
 10
107.718
 20
-58.8244
 11
107.853
 21
-59.0365
  0
LINE
  8
0
 10
107.853
 20
-59.0365
 11
107.96
 21
-59.2637
  0
LINE
  8
0
 10
107.96
 20
-59.2637
 11
108.037
 21
-59.5026
  0
LINE
  8
0
 10
108.037
 20
-59.5026
 11
108.084
 21
-59.7493
  0
LINE
  8
0
 10
108.084
 20
-59.7493
 11
108.1
 21
-60
  0
LINE
  8
0
 10
108.1
 20
-60
 11
108.084
 21
-60.2507
  0
LINE
  8
0
 10
108.084
 20
-60.2507
 11
108.037
 21
-60.4974
  0
LINE
  8
0
 10
108.037
 20
-60.4974
 11
107.96
 21
-60.7362
  0
LINE
  8
0
 10
107.96
 20
-60.7362
 11
107.853
 21
-60.9635
  0
LINE
  8
0
 10
107.853
 20
-60.9635
 11
107.718
 21
-61.1756
  0
LINE
  8
0
 10
107.718
 20
-61.1756
 11
107.558
 21
-61.3691
  0
LINE
  8
0
 10
107.558
 20
-61.3691
 11
107.375
 21
-61.541
  0
LINE
  8
0
 10
107.375
 20
-61.541
 11
107.172
 21
-61.6886
  0
LINE
  8
0
 10
107.172
 20
-61.6886
 11
106.952
 21
-61.8096
  0
LINE
  8
0
 10
106.952
 20
-61.8096
 11
106.718
 21
-61.9021
  0
LINE
  8
0
 10
106.718
 20
-61.9021
 11
106.475
 21
-61.9646
  0
LINE
  8
0
 10
106.475
 20
-61.9646
 11
106.226
 21
-61.996
  0
LINE
  8
0
 10
106.226
 20
-61.996
 11
105.974
 21
-61.996
  0
LINE
  8
0
 10
4.90581
 20
-66.497
 11
4.71892
 21
-66.4734
  0
LINE
  8
0
 10
4.71892
 20
-66.4734
 11
4.53647
 21
-66.4266
  0
LINE
  8
0
 10
4.53647
 20
-66.4266
 11
4.36133
 21
-66.3572
  0
LINE
  8
0
 10
4.36133
 20
-66.3572
 11
4.19626
 21
-66.2665
  0
LINE
  8
0
 10
4.19626
 20
-66.2665
 11
4.04385
 21
-66.1558
  0
LINE
  8
0
 10
4.04385
 20
-66.1558
 11
3.90654
 21
-66.0268
  0
LINE
  8
0
 10
3.90654
 20
-66.0268
 11
3.78647
 21
-65.8817
  0
LINE
  8
0
 10
3.78647
 20
-65.8817
 11
3.68553
 21
-65.7226
  0
LINE
  8
0
 10
3.68553
 20
-65.7226
 11
3.60533
 21
-65.5522
  0
LINE
  8
0
 10
3.60533
 20
-65.5522
 11
3.54712
 21
-65.373
  0
LINE
  8
0
 10
3.54712
 20
-65.373
 11
3.51183
 21
-65.188
  0
LINE
  8
0
 10
3.51183
 20
-65.188
 11
3.5
 21
-65
  0
LINE
  8
0
 10
3.5
 20
-65
 11
3.51183
 21
-64.812
  0
LINE
  8
0
 10
3.51183
 20
-64.812
 11
3.54712
 21
-64.627
  0
LINE
  8
0
 10
3.54712
 20
-64.627
 11
3.60533
 21
-64.4478
  0
LINE
  8
0
 10
3.60533
 20
-64.4478
 11
3.68553
 21
-64.2774
  0
LINE
  8
0
 10
3.68553
 20
-64.2774
 11
3.78647
 21
-64.1183
  0
LINE
  8
0
 10
3.78647
 20
-64.1183
 11
3.90654
 21
-63.9732
  0
LINE
  8
0
 10
3.90654
 20
-63.9732
 11
4.04385
 21
-63.8442
  0
LINE
  8
0
 10
4.04385
 20
-63.8442
 11
4.19626
 21
-63.7335
  0
LINE
  8
0
 10
4.19626
 20
-63.7335
 11
4.36133
 21
-63.6427
  0
LINE
  8
0
 10
4.36133
 20
-63.6427
 11
4.53647
 21
-63.5734
  0
LINE
  8
0
 10
4.53647
 20
-63.5734
 11
4.71892
 21
-63.5266
  0
LINE
  8
0
 10
4.71892
 20
-63.5266
 11
4.90581
 21
-63.5029
  0
LINE
  8
0
 10
4.90581
 20
-63.5029
 11
5.09418
 21
-63.5029
  0
LINE
  8
0
 10
5.09418
 20
-63.5029
 11
5.28107
 21
-63.5266
  0
LINE
  8
0
 10
5.28107
 20
-63.5266
 11
5.46352
 21
-63.5734
  0
LINE
  8
0
 10
5.46352
 20
-63.5734
 11
5.63866
 21
-63.6427
  0
LINE
  8
0
 10
5.63866
 20
-63.6427
 11
5.80373
 21
-63.7335
  0
LINE
  8
0
 10
5.80373
 20
-63.7335
 11
5.95613
 21
-63.8442
  0
LINE
  8
0
 10
5.95613
 20
-63.8442
 11
6.09344
 21
-63.9732
  0
LINE
  8
0
 10
6.09344
 20
-63.9732
 11
6.21352
 21
-64.1183
  0
LINE
  8
0
 10
6.21352
 20
-64.1183
 11
6.31445
 21
-64.2774
  0
LINE
  8
0
 10
6.31445
 20
-64.2774
 11
6.39465
 21
-64.4478
  0
LINE
  8
0
 10
6.39465
 20
-64.4478
 11
6.45287
 21
-64.627
  0
LINE
  8
0
 10
6.45287
 20
-64.627
 11
6.48816
 21
-64.812
  0
LINE
  8
0
 10
6.48816
 20
-64.812
 11
6.5
 21
-65
  0
LINE
  8
0
 10
6.5
 20
-65
 11
6.48816
 21
-65.188
  0
LINE
  8
0
 10
6.48816
 20
-65.188
 11
6.45287
 21
-65.373
  0
LINE
  8
0
 10
6.45287
 20
-65.373
 11
6.39465
 21
-65.5522
  0
LINE
  8
0
 10
6.39465
 20
-65.5522
 11
6.31445
 21
-65.7226
  0
LINE
  8
0
 10
6.31445
 20
-65.7226
 11
6.21352
 21
-65.8817
  0
LINE
  8
0
 10
6.21352
 20
-65.8817
 11
6.09344
 21
-66.0268
  0
LINE
  8
0
 10
6.09344
 20
-66.0268
 11
5.95613
 21
-66.1558
  0
LINE
  8
0
 10
5.95613
 20
-66.1558
 11
5.80373
 21
-66.2665
  0
LINE
  8
0
 10
5.80373
 20
-66.2665
 11
5.63866
 21
-66.3572
  0
LINE
  8
0
 10
5.63866
 20
-66.3572
 11
5.46352
 21
-66.4266
  0
LINE
  8
0
 10
5.46352
 20
-66.4266
 11
5.28107
 21
-66.4734
  0
LINE
  8
0
 10
5.28107
 20
-66.4734
 11
5.09418
 21
-66.497
  0
LINE
  8
0
 10
5.09418
 20
-66.497
 11
4.90581
 21
-66.497
  0
ENDSEC
  0
SECTION
  2
OBJECTS
  0
DICTIONARY
  0
ENDSEC
  0
EOF
