  0
SECTION
  2
BLOCKS
  0
ENDSEC
  0
SECTION
  2
ENTITIES
  0
LINE
  8
0
 10
100
 20
-66.5936
 11
99.5393
 21
-66.1609
  0
LINE
  8
0
 10
99.5393
 20
-66.1609
 11
98.8188
 21
-65.2901
  0
LINE
  8
0
 10
98.8188
 20
-65.2901
 11
98.2132
 21
-64.3358
  0
LINE
  8
0
 10
98.2132
 20
-64.3358
 11
97.732
 21
-63.3131
  0
LINE
  8
0
 10
97.732
 20
-63.3131
 11
97.3828
 21
-62.2382
  0
LINE
  8
0
 10
97.3828
 20
-62.2382
 11
97.171
 21
-61.128
  0
LINE
  8
0
 10
97.171
 20
-61.128
 11
97.1
 21
-60
  0
LINE
  8
0
 10
97.1
 20
-60
 11
97.171
 21
-58.872
  0
LINE
  8
0
 10
97.171
 20
-58.872
 11
97.3828
 21
-57.7618
  0
LINE
  8
0
 10
97.3828
 20
-57.7618
 11
97.732
 21
-56.6869
  0
LINE
  8
0
 10
97.732
 20
-56.6869
 11
98.2132
 21
-55.6642
  0
LINE
  8
0
 10
98.2132
 20
-55.6642
 11
98.8188
 21
-54.7099
  0
LINE
  8
0
 10
98.8188
 20
-54.7099
 11
99.5393
 21
-53.8391
  0
LINE
  8
0
 10
99.5393
 20
-53.8391
 11
100
 21
-53.4064
  0
LINE
  8
0
 10
100
 20
-53.4064
 11
100
 21
53.4064
  0
LINE
  8
0
 10
100
 20
53.4064
 11
99.5393
 21
53.8391
  0
LINE
  8
0
 10
99.5393
 20
53.8391
 11
98.8188
 21
54.7099
  0
LINE
  8
0
 10
98.8188
 20
54.7099
 11
98.2132
 21
55.6642
  0
LINE
  8
0
 10
98.2132
 20
55.6642
 11
97.732
 21
56.6869
  0
LINE
  8
0
 10
97.732
 20
56.6869
 11
97.3828
 21
57.7618
  0
LINE
  8
0
 10
97.3828
 20
57.7618
 11
97.171
 21
58.872
  0
LINE
  8
0
 10
97.171
 20
58.872
 11
97.1
 21
60
  0
LINE
  8
0
 10
97.1
 20
60
 11
97.171
 21
61.128
  0
LINE
  8
0
 10
97.171
 20
61.128
 11
97.3828
 21
62.2382
  0
LINE
  8
0
 10
97.3828
 20
62.2382
 11
97.732
 21
63.3131
  0
LINE
  8
0
 10
97.732
 20
63.3131
 11
98.2132
 21
64.3358
  0
LINE
  8
0
 10
98.2132
 20
64.3358
 11
98.8188
 21
65.2901
  0
LINE
  8
0
 10
98.8188
 20
65.2901
 11
99.5393
 21
66.1609
  0
LINE
  8
0
 10
99.5393
 20
66.1609
 11
100
 21
66.5936
  0
LINE
  8
0
 10
100
 20
66.5936
 11
100
 21
100
  0
LINE
  8
0
 10
100
 20
100
 11
-100
 21
100
  0
LINE
  8
0
 10
-100
 20
100
 11
-100
 21
66.5936
  0
LINE
  8
0
 10
-100
 20
66.5936
 11
-99.5393
 21
66.1609
  0
LINE
  8
0
 10
-99.5393
 20
66.1609
 11
-98.8188
 21
65.2901
  0
LINE
  8
0
 10
-98.8188
 20
65.2901
 11
-98.2132
 21
64.3358
  0
LINE
  8
0
 10
-98.2132
 20
64.3358
 11
-97.732
 21
63.3131
  0
LINE
  8
0
 10
-97.732
 20
63.3131
 11
-97.3828
 21
62.2382
  0
LINE
  8
0
 10
-97.3828
 20
62.2382
 11
-97.171
 21
61.128
  0
LINE
  8
0
 10
-97.171
 20
61.128
 11
-97.1
 21
60
  0
LINE
  8
0
 10
-97.1
 20
60
 11
-97.171
 21
58.872
  0
LINE
  8
0
 10
-97.171
 20
58.872
 11
-97.3828
 21
57.7618
  0
LINE
  8
0
 10
-97.3828
 20
57.7618
 11
-97.732
 21
56.6869
  0
LINE
  8
0
 10
-97.732
 20
56.6869
 11
-98.2132
 21
55.6642
  0
LINE
  8
0
 10
-98.2132
 20
55.6642
 11
-98.8188
 21
54.7099
  0
LINE
  8
0
 10
-98.8188
 20
54.7099
 11
-99.5393
 21
53.8391
  0
LINE
  8
0
 10
-99.5393
 20
53.8391
 11
-100
 21
53.4064
  0
LINE
  8
0
 10
-100
 20
53.4064
 11
-100
 21
-53.4064
  0
LINE
  8
0
 10
-100
 20
-53.4064
 11
-99.5393
 21
-53.8391
  0
LINE
  8
0
 10
-99.5393
 20
-53.8391
 11
-98.8188
 21
-54.7099
  0
LINE
  8
0
 10
-98.8188
 20
-54.7099
 11
-98.2132
 21
-55.6642
  0
LINE
  8
0
 10
-98.2132
 20
-55.6642
 11
-97.732
 21
-56.6869
  0
LINE
  8
0
 10
-97.732
 20
-56.6869
 11
-97.3828
 21
-57.7618
  0
LINE
  8
0
 10
-97.3828
 20
-57.7618
 11
-97.171
 21
-58.872
  0
LINE
  8
0
 10
-97.171
 20
-58.872
 11
-97.1
 21
-60
  0
LINE
  8
0
 10
-97.1
 20
-60
 11
-97.171
 21
-61.128
  0
LINE
  8
0
 10
-97.171
 20
-61.128
 11
-97.3828
 21
-62.2382
  0
LINE
  8
0
 10
-97.3828
 20
-62.2382
 11
-97.732
 21
-63.3131
  0
LINE
  8
0
 10
-97.732
 20
-63.3131
 11
-98.2132
 21
-64.3358
  0
LINE
  8
0
 10
-98.2132
 20
-64.3358
 11
-98.8188
 21
-65.2901
  0
LINE
  8
0
 10
-98.8188
 20
-65.2901
 11
-99.5393
 21
-66.1609
  0
LINE
  8
0
 10
-99.5393
 20
-66.1609
 11
-100
 21
-66.5936
  0
LINE
  8
0
 10
-100
 20
-66.5936
 11
-100
 21
-100
  0
LINE
  8
0
 10
-100
 20
-100
 11
100
 21
-100
  0
LINE
  8
0
 10
100
 20
-100
 11
100
 21
-66.5936
  0
LINE
  8
0
 10
-50.0942
 20
48.5029
 11
-50.2811
 21
48.5266
  0
LINE
  8
0
 10
-50.2811
 20
48.5266
 11
-50.4635
 21
48.5734
  0
LINE
  8
0
 10
-50.4635
 20
48.5734
 11
-50.6387
 21
48.6427
  0
LINE
  8
0
 10
-50.6387
 20
48.6427
 11
-50.8037
 21
48.7335
  0
LINE
  8
0
 10
-50.8037
 20
48.7335
 11
-50.9561
 21
48.8442
  0
LINE
  8
0
 10
-50.9561
 20
48.8442
 11
-51.0934
 21
48.9732
  0
LINE
  8
0
 10
-51.0934
 20
48.9732
 11
-51.2135
 21
49.1183
  0
LINE
  8
0
 10
-51.2135
 20
49.1183
 11
-51.3145
 21
49.2774
  0
LINE
  8
0
 10
-51.3145
 20
49.2774
 11
-51.3947
 21
49.4478
  0
LINE
  8
0
 10
-51.3947
 20
49.4478
 11
-51.4529
 21
49.627
  0
LINE
  8
0
 10
-51.4529
 20
49.627
 11
-51.4882
 21
49.812
  0
LINE
  8
0
 10
-51.4882
 20
49.812
 11
-51.5
 21
50
  0
LINE
  8
0
 10
-51.5
 20
50
 11
-51.4882
 21
50.188
  0
LINE
  8
0
 10
-51.4882
 20
50.188
 11
-51.4529
 21
50.373
  0
LINE
  8
0
 10
-51.4529
 20
50.373
 11
-51.3947
 21
50.5522
  0
LINE
  8
0
 10
-51.3947
 20
50.5522
 11
-51.3145
 21
50.7226
  0
LINE
  8
0
 10
-51.3145
 20
50.7226
 11
-51.2135
 21
50.8817
  0
LINE
  8
0
 10
-51.2135
 20
50.8817
 11
-51.0934
 21
51.0268
  0
LINE
  8
0
 10
-51.0934
 20
51.0268
 11
-50.9561
 21
51.1558
  0
LINE
  8
0
 10
-50.9561
 20
51.1558
 11
-50.8037
 21
51.2665
  0
LINE
  8
0
 10
-50.8037
 20
51.2665
 11
-50.6387
 21
51.3572
  0
LINE
  8
0
 10
-50.6387
 20
51.3572
 11
-50.4635
 21
51.4266
  0
LINE
  8
0
 10
-50.4635
 20
51.4266
 11
-50.2811
 21
51.4734
  0
LINE
  8
0
 10
-50.2811
 20
51.4734
 11
-50.0942
 21
51.497
  0
LINE
  8
0
 10
-50.0942
 20
51.497
 11
-49.9058
 21
51.497
  0
LINE
  8
0
 10
-49.9058
 20
51.497
 11
-49.7189
 21
51.4734
  0
LINE
  8
0
 10
-49.7189
 20
51.4734
 11
-49.5365
 21
51.4266
  0
LINE
  8
0
 10
-49.5365
 20
51.4266
 11
-49.3613
 21
51.3572
  0
LINE
  8
0
 10
-49.3613
 20
51.3572
 11
-49.1963
 21
51.2665
  0
LINE
  8
0
 10
-49.1963
 20
51.2665
 11
-49.0439
 21
51.1558
  0
LINE
  8
0
 10
-49.0439
 20
51.1558
 11
-48.9065
 21
51.0268
  0
LINE
  8
0
 10
-48.9065
 20
51.0268
 11
-48.7865
 21
50.8817
  0
LINE
  8
0
 10
-48.7865
 20
50.8817
 11
-48.6855
 21
50.7226
  0
LINE
  8
0
 10
-48.6855
 20
50.7226
 11
-48.6053
 21
50.5522
  0
LINE
  8
0
 10
-48.6053
 20
50.5522
 11
-48.5471
 21
50.373
  0
LINE
  8
0
 10
-48.5471
 20
50.373
 11
-48.5118
 21
50.188
  0
LINE
  8
0
 10
-48.5118
 20
50.188
 11
-48.5
 21
50
  0
LINE
  8
0
 10
-48.5
 20
50
 11
-48.5118
 21
49.812
  0
LINE
  8
0
 10
-48.5118
 20
49.812
 11
-48.5471
 21
49.627
  0
LINE
  8
0
 10
-48.5471
 20
49.627
 11
-48.6053
 21
49.4478
  0
LINE
  8
0
 10
-48.6053
 20
49.4478
 11
-48.6855
 21
49.2774
  0
LINE
  8
0
 10
-48.6855
 20
49.2774
 11
-48.7865
 21
49.1183
  0
LINE
  8
0
 10
-48.7865
 20
49.1183
 11
-48.9065
 21
48.9732
  0
LINE
  8
0
 10
-48.9065
 20
48.9732
 11
-49.0439
 21
48.8442
  0
LINE
  8
0
 10
-49.0439
 20
48.8442
 11
-49.1963
 21
48.7335
  0
LINE
  8
0
 10
-49.1963
 20
48.7335
 11
-49.3613
 21
48.6427
  0
LINE
  8
0
 10
-49.3613
 20
48.6427
 11
-49.5365
 21
48.5734
  0
LINE
  8
0
 10
-49.5365
 20
48.5734
 11
-49.7189
 21
48.5266
  0
LINE
  8
0
 10
-49.7189
 20
48.5266
 11
-49.9058
 21
48.5029
  0
LINE
  8
0
 10
-49.9058
 20
48.5029
 11
-50.0942
 21
48.5029
  0
LINE
  8
0
 10
49.9058
 20
48.5029
 11
49.7189
 21
48.5266
  0
LINE
  8
0
 10
49.7189
 20
48.5266
 11
49.5365
 21
48.5734
  0
LINE
  8
0
 10
49.5365
 20
48.5734
 11
49.3613
 21
48.6427
  0
LINE
  8
0
 10
49.3613
 20
48.6427
 11
49.1963
 21
48.7335
  0
LINE
  8
0
 10
49.1963
 20
48.7335
 11
49.0439
 21
48.8442
  0
LINE
  8
0
 10
49.0439
 20
48.8442
 11
48.9065
 21
48.9732
  0
LINE
  8
0
 10
48.9065
 20
48.9732
 11
48.7865
 21
49.1183
  0
LINE
  8
0
 10
48.7865
 20
49.1183
 11
48.6855
 21
49.2774
  0
LINE
  8
0
 10
48.6855
 20
49.2774
 11
48.6053
 21
49.4478
  0
LINE
  8
0
 10
48.6053
 20
49.4478
 11
48.5471
 21
49.627
  0
LINE
  8
0
 10
48.5471
 20
49.627
 11
48.5118
 21
49.812
  0
LINE
  8
0
 10
48.5118
 20
49.812
 11
48.5
 21
50
  0
LINE
  8
0
 10
48.5
 20
50
 11
48.5118
 21
50.188
  0
LINE
  8
0
 10
48.5118
 20
50.188
 11
48.5471
 21
50.373
  0
LINE
  8
0
 10
48.5471
 20
50.373
 11
48.6053
 21
50.5522
  0
LINE
  8
0
 10
48.6053
 20
50.5522
 11
48.6855
 21
50.7226
  0
LINE
  8
0
 10
48.6855
 20
50.7226
 11
48.7865
 21
50.8817
  0
LINE
  8
0
 10
48.7865
 20
50.8817
 11
48.9065
 21
51.0268
  0
LINE
  8
0
 10
48.9065
 20
51.0268
 11
49.0439
 21
51.1558
  0
LINE
  8
0
 10
49.0439
 20
51.1558
 11
49.1963
 21
51.2665
  0
LINE
  8
0
 10
49.1963
 20
51.2665
 11
49.3613
 21
51.3572
  0
LINE
  8
0
 10
49.3613
 20
51.3572
 11
49.5365
 21
51.4266
  0
LINE
  8
0
 10
49.5365
 20
51.4266
 11
49.7189
 21
51.4734
  0
LINE
  8
0
 10
49.7189
 20
51.4734
 11
49.9058
 21
51.497
  0
LINE
  8
0
 10
49.9058
 20
51.497
 11
50.0942
 21
51.497
  0
LINE
  8
0
 10
50.0942
 20
51.497
 11
50.2811
 21
51.4734
  0
LINE
  8
0
 10
50.2811
 20
51.4734
 11
50.4635
 21
51.4266
  0
LINE
  8
0
 10
50.4635
 20
51.4266
 11
50.6387
 21
51.3572
  0
LINE
  8
0
 10
50.6387
 20
51.3572
 11
50.8037
 21
51.2665
  0
LINE
  8
0
 10
50.8037
 20
51.2665
 11
50.9561
 21
51.1558
  0
LINE
  8
0
 10
50.9561
 20
51.1558
 11
51.0934
 21
51.0268
  0
LINE
  8
0
 10
51.0934
 20
51.0268
 11
51.2135
 21
50.8817
  0
LINE
  8
0
 10
51.2135
 20
50.8817
 11
51.3145
 21
50.7226
  0
LINE
  8
0
 10
51.3145
 20
50.7226
 11
51.3947
 21
50.5522
  0
LINE
  8
0
 10
51.3947
 20
50.5522
 11
51.4529
 21
50.373
  0
LINE
  8
0
 10
51.4529
 20
50.373
 11
51.4882
 21
50.188
  0
LINE
  8
0
 10
51.4882
 20
50.188
 11
51.5
 21
50
  0
LINE
  8
0
 10
51.5
 20
50
 11
51.4882
 21
49.812
  0
LINE
  8
0
 10
51.4882
 20
49.812
 11
51.4529
 21
49.627
  0
LINE
  8
0
 10
51.4529
 20
49.627
 11
51.3947
 21
49.4478
  0
LINE
  8
0
 10
51.3947
 20
49.4478
 11
51.3145
 21
49.2774
  0
LINE
  8
0
 10
51.3145
 20
49.2774
 11
51.2135
 21
49.1183
  0
LINE
  8
0
 10
51.2135
 20
49.1183
 11
51.0934
 21
48.9732
  0
LINE
  8
0
 10
51.0934
 20
48.9732
 11
50.9561
 21
48.8442
  0
LINE
  8
0
 10
50.9561
 20
48.8442
 11
50.8037
 21
48.7335
  0
LINE
  8
0
 10
50.8037
 20
48.7335
 11
50.6387
 21
48.6427
  0
LINE
  8
0
 10
50.6387
 20
48.6427
 11
50.4635
 21
48.5734
  0
LINE
  8
0
 10
50.4635
 20
48.5734
 11
50.2811
 21
48.5266
  0
LINE
  8
0
 10
50.2811
 20
48.5266
 11
50.0942
 21
48.5029
  0
LINE
  8
0
 10
50.0942
 20
48.5029
 11
49.9058
 21
48.5029
  0
LINE
  8
0
 10
-50.0942
 20
-51.497
 11
-50.2811
 21
-51.4734
  0
LINE
  8
0
 10
-50.2811
 20
-51.4734
 11
-50.4635
 21
-51.4266
  0
LINE
  8
0
 10
-50.4635
 20
-51.4266
 11
-50.6387
 21
-51.3572
  0
LINE
  8
0
 10
-50.6387
 20
-51.3572
 11
-50.8037
 21
-51.2665
  0
LINE
  8
0
 10
-50.8037
 20
-51.2665
 11
-50.9561
 21
-51.1558
  0
LINE
  8
0
 10
-50.9561
 20
-51.1558
 11
-51.0934
 21
-51.0268
  0
LINE
  8
0
 10
-51.0934
 20
-51.0268
 11
-51.2135
 21
-50.8817
  0
LINE
  8
0
 10
-51.2135
 20
-50.8817
 11
-51.3145
 21
-50.7226
  0
LINE
  8
0
 10
-51.3145
 20
-50.7226
 11
-51.3947
 21
-50.5522
  0
LINE
  8
0
 10
-51.3947
 20
-50.5522
 11
-51.4529
 21
-50.373
  0
LINE
  8
0
 10
-51.4529
 20
-50.373
 11
-51.4882
 21
-50.188
  0
LINE
  8
0
 10
-51.4882
 20
-50.188
 11
-51.5
 21
-50
  0
LINE
  8
0
 10
-51.5
 20
-50
 11
-51.4882
 21
-49.812
  0
LINE
  8
0
 10
-51.4882
 20
-49.812
 11
-51.4529
 21
-49.627
  0
LINE
  8
0
 10
-51.4529
 20
-49.627
 11
-51.3947
 21
-49.4478
  0
LINE
  8
0
 10
-51.3947
 20
-49.4478
 11
-51.3145
 21
-49.2774
  0
LINE
  8
0
 10
-51.3145
 20
-49.2774
 11
-51.2135
 21
-49.1183
  0
LINE
  8
0
 10
-51.2135
 20
-49.1183
 11
-51.0934
 21
-48.9732
  0
LINE
  8
0
 10
-51.0934
 20
-48.9732
 11
-50.9561
 21
-48.8442
  0
LINE
  8
0
 10
-50.9561
 20
-48.8442
 11
-50.8037
 21
-48.7335
  0
LINE
  8
0
 10
-50.8037
 20
-48.7335
 11
-50.6387
 21
-48.6427
  0
LINE
  8
0
 10
-50.6387
 20
-48.6427
 11
-50.4635
 21
-48.5734
  0
LINE
  8
0
 10
-50.4635
 20
-48.5734
 11
-50.2811
 21
-48.5266
  0
LINE
  8
0
 10
-50.2811
 20
-48.5266
 11
-50.0942
 21
-48.5029
  0
LINE
  8
0
 10
-50.0942
 20
-48.5029
 11
-49.9058
 21
-48.5029
  0
LINE
  8
0
 10
-49.9058
 20
-48.5029
 11
-49.7189
 21
-48.5266
  0
LINE
  8
0
 10
-49.7189
 20
-48.5266
 11
-49.5365
 21
-48.5734
  0
LINE
  8
0
 10
-49.5365
 20
-48.5734
 11
-49.3613
 21
-48.6427
  0
LINE
  8
0
 10
-49.3613
 20
-48.6427
 11
-49.1963
 21
-48.7335
  0
LINE
  8
0
 10
-49.1963
 20
-48.7335
 11
-49.0439
 21
-48.8442
  0
LINE
  8
0
 10
-49.0439
 20
-48.8442
 11
-48.9065
 21
-48.9732
  0
LINE
  8
0
 10
-48.9065
 20
-48.9732
 11
-48.7865
 21
-49.1183
  0
LINE
  8
0
 10
-48.7865
 20
-49.1183
 11
-48.6855
 21
-49.2774
  0
LINE
  8
0
 10
-48.6855
 20
-49.2774
 11
-48.6053
 21
-49.4478
  0
LINE
  8
0
 10
-48.6053
 20
-49.4478
 11
-48.5471
 21
-49.627
  0
LINE
  8
0
 10
-48.5471
 20
-49.627
 11
-48.5118
 21
-49.812
  0
LINE
  8
0
 10
-48.5118
 20
-49.812
 11
-48.5
 21
-50
  0
LINE
  8
0
 10
-48.5
 20
-50
 11
-48.5118
 21
-50.188
  0
LINE
  8
0
 10
-48.5118
 20
-50.188
 11
-48.5471
 21
-50.373
  0
LINE
  8
0
 10
-48.5471
 20
-50.373
 11
-48.6053
 21
-50.5522
  0
LINE
  8
0
 10
-48.6053
 20
-50.5522
 11
-48.6855
 21
-50.7226
  0
LINE
  8
0
 10
-48.6855
 20
-50.7226
 11
-48.7865
 21
-50.8817
  0
LINE
  8
0
 10
-48.7865
 20
-50.8817
 11
-48.9065
 21
-51.0268
  0
LINE
  8
0
 10
-48.9065
 20
-51.0268
 11
-49.0439
 21
-51.1558
  0
LINE
  8
0
 10
-49.0439
 20
-51.1558
 11
-49.1963
 21
-51.2665
  0
LINE
  8
0
 10
-49.1963
 20
-51.2665
 11
-49.3613
 21
-51.3572
  0
LINE
  8
0
 10
-49.3613
 20
-51.3572
 11
-49.5365
 21
-51.4266
  0
LINE
  8
0
 10
-49.5365
 20
-51.4266
 11
-49.7189
 21
-51.4734
  0
LINE
  8
0
 10
-49.7189
 20
-51.4734
 11
-49.9058
 21
-51.497
  0
LINE
  8
0
 10
-49.9058
 20
-51.497
 11
-50.0942
 21
-51.497
  0
LINE
  8
0
 10
49.9058
 20
-51.497
 11
49.7189
 21
-51.4734
  0
LINE
  8
0
 10
49.7189
 20
-51.4734
 11
49.5365
 21
-51.4266
  0
LINE
  8
0
 10
49.5365
 20
-51.4266
 11
49.3613
 21
-51.3572
  0
LINE
  8
0
 10
49.3613
 20
-51.3572
 11
49.1963
 21
-51.2665
  0
LINE
  8
0
 10
49.1963
 20
-51.2665
 11
49.0439
 21
-51.1558
  0
LINE
  8
0
 10
49.0439
 20
-51.1558
 11
48.9065
 21
-51.0268
  0
LINE
  8
0
 10
48.9065
 20
-51.0268
 11
48.7865
 21
-50.8817
  0
LINE
  8
0
 10
48.7865
 20
-50.8817
 11
48.6855
 21
-50.7226
  0
LINE
  8
0
 10
48.6855
 20
-50.7226
 11
48.6053
 21
-50.5522
  0
LINE
  8
0
 10
48.6053
 20
-50.5522
 11
48.5471
 21
-50.373
  0
LINE
  8
0
 10
48.5471
 20
-50.373
 11
48.5118
 21
-50.188
  0
LINE
  8
0
 10
48.5118
 20
-50.188
 11
48.5
 21
-50
  0
LINE
  8
0
 10
48.5
 20
-50
 11
48.5118
 21
-49.812
  0
LINE
  8
0
 10
48.5118
 20
-49.812
 11
48.5471
 21
-49.627
  0
LINE
  8
0
 10
48.5471
 20
-49.627
 11
48.6053
 21
-49.4478
  0
LINE
  8
0
 10
48.6053
 20
-49.4478
 11
48.6855
 21
-49.2774
  0
LINE
  8
0
 10
48.6855
 20
-49.2774
 11
48.7865
 21
-49.1183
  0
LINE
  8
0
 10
48.7865
 20
-49.1183
 11
48.9065
 21
-48.9732
  0
LINE
  8
0
 10
48.9065
 20
-48.9732
 11
49.0439
 21
-48.8442
  0
LINE
  8
0
 10
49.0439
 20
-48.8442
 11
49.1963
 21
-48.7335
  0
LINE
  8
0
 10
49.1963
 20
-48.7335
 11
49.3613
 21
-48.6427
  0
LINE
  8
0
 10
49.3613
 20
-48.6427
 11
49.5365
 21
-48.5734
  0
LINE
  8
0
 10
49.5365
 20
-48.5734
 11
49.7189
 21
-48.5266
  0
LINE
  8
0
 10
49.7189
 20
-48.5266
 11
49.9058
 21
-48.5029
  0
LINE
  8
0
 10
49.9058
 20
-48.5029
 11
50.0942
 21
-48.5029
  0
LINE
  8
0
 10
50.0942
 20
-48.5029
 11
50.2811
 21
-48.5266
  0
LINE
  8
0
 10
50.2811
 20
-48.5266
 11
50.4635
 21
-48.5734
  0
LINE
  8
0
 10
50.4635
 20
-48.5734
 11
50.6387
 21
-48.6427
  0
LINE
  8
0
 10
50.6387
 20
-48.6427
 11
50.8037
 21
-48.7335
  0
LINE
  8
0
 10
50.8037
 20
-48.7335
 11
50.9561
 21
-48.8442
  0
LINE
  8
0
 10
50.9561
 20
-48.8442
 11
51.0934
 21
-48.9732
  0
LINE
  8
0
 10
51.0934
 20
-48.9732
 11
51.2135
 21
-49.1183
  0
LINE
  8
0
 10
51.2135
 20
-49.1183
 11
51.3145
 21
-49.2774
  0
LINE
  8
0
 10
51.3145
 20
-49.2774
 11
51.3947
 21
-49.4478
  0
LINE
  8
0
 10
51.3947
 20
-49.4478
 11
51.4529
 21
-49.627
  0
LINE
  8
0
 10
51.4529
 20
-49.627
 11
51.4882
 21
-49.812
  0
LINE
  8
0
 10
51.4882
 20
-49.812
 11
51.5
 21
-50
  0
LINE
  8
0
 10
51.5
 20
-50
 11
51.4882
 21
-50.188
  0
LINE
  8
0
 10
51.4882
 20
-50.188
 11
51.4529
 21
-50.373
  0
LINE
  8
0
 10
51.4529
 20
-50.373
 11
51.3947
 21
-50.5522
  0
LINE
  8
0
 10
51.3947
 20
-50.5522
 11
51.3145
 21
-50.7226
  0
LINE
  8
0
 10
51.3145
 20
-50.7226
 11
51.2135
 21
-50.8817
  0
LINE
  8
0
 10
51.2135
 20
-50.8817
 11
51.0934
 21
-51.0268
  0
LINE
  8
0
 10
51.0934
 20
-51.0268
 11
50.9561
 21
-51.1558
  0
LINE
  8
0
 10
50.9561
 20
-51.1558
 11
50.8037
 21
-51.2665
  0
LINE
  8
0
 10
50.8037
 20
-51.2665
 11
50.6387
 21
-51.3572
  0
LINE
  8
0
 10
50.6387
 20
-51.3572
 11
50.4635
 21
-51.4266
  0
LINE
  8
0
 10
50.4635
 20
-51.4266
 11
50.2811
 21
-51.4734
  0
LINE
  8
0
 10
50.2811
 20
-51.4734
 11
50.0942
 21
-51.497
  0
LINE
  8
0
 10
50.0942
 20
-51.497
 11
49.9058
 21
-51.497
  0
ENDSEC
  0
SECTION
  2
OBJECTS
  0
DICTIONARY
  0
ENDSEC
  0
EOF
