solid OpenSCAD_Model
  facet normal -1 0 0
    outer loop
      vertex -10 -5 0
      vertex -10 -5 20
      vertex -10 0 0
    endloop
  endfacet
  facet normal -1 0 0
    outer loop
      vertex -10 0 0
      vertex -10 -5 20
      vertex -10 0 20
    endloop
  endfacet
  facet normal 0 -1 0
    outer loop
      vertex -10 -5 20
      vertex -10 -5 0
      vertex 10 -5 0
    endloop
  endfacet
  facet normal 0 -1 0
    outer loop
      vertex 10 -5 20
      vertex -10 -5 20
      vertex 10 -5 0
    endloop
  endfacet
  facet normal 0 0 -1
    outer loop
      vertex -10 -5 0
      vertex -10 0 0
      vertex 10 -5 0
    endloop
  endfacet
  facet normal 0 0 -1
    outer loop
      vertex 10 -5 0
      vertex -10 0 0
      vertex -8 0 0
    endloop
  endfacet
  facet normal 0 0 -1
    outer loop
      vertex 10 -5 0
      vertex -8 0 0
      vertex -3.3 0 0
    endloop
  endfacet
  facet normal 0 0 -1
    outer loop
      vertex 10 -5 0
      vertex -3.3 0 0
      vertex -2.734 0.234 0
    endloop
  endfacet
  facet normal 0 0 -1
    outer loop
      vertex -2.734 0.234 0
      vertex -2.5 0.8 0
      vertex 10 -5 0
    endloop
  endfacet
  facet normal 0 0 -1
    outer loop
      vertex -2.5 0.8 0
      vertex -2.5 1.5 0
      vertex 10 -5 0
    endloop
  endfacet
  facet normal 0 0 -1
    outer loop
      vertex -2.5 1.5 0
      vertex -2.588 1.712 0
      vertex 10 -5 0
    endloop
  endfacet
  facet normal 0 0 -1
    outer loop
      vertex -2.8 1.8 0
      vertex -3.5 1.8 0
      vertex -3.5 5.22711 0
    endloop
  endfacet
  facet normal 0 0 -1
    outer loop
      vertex -2.8 1.8 0
      vertex -3.5 5.22711 0
      vertex -2.588 1.712 0
    endloop
  endfacet
  facet normal 0 0 -1
    outer loop
      vertex 2.5 0.8 0
      vertex -3.5 5.22711 0
      vertex -3.256 5.471 0
    endloop
  endfacet
  facet normal 0 0 -1
    outer loop
      vertex 2.5 1.5 0
      vertex -3.256 5.471 0
      vertex -2.46534 6 0
    endloop
  endfacet
  facet normal 0 0 -1
    outer loop
      vertex 3.5 1.8 0
      vertex -2.46534 6 0
      vertex 2.46534 6 0
    endloop
  endfacet
  facet normal 0 0 -1
    outer loop
      vertex 2.8 1.8 0
      vertex -2.46534 6 0
      vertex 3.5 1.8 0
    endloop
  endfacet
  facet normal 0 0 -1
    outer loop
      vertex 2.5 1.5 0
      vertex -2.46534 6 0
      vertex 2.588 1.712 0
    endloop
  endfacet
  facet normal 0 0 -1
    outer loop
      vertex 2.588 1.712 0
      vertex -2.46534 6 0
      vertex 2.8 1.8 0
    endloop
  endfacet
  facet normal 0 0 -1
    outer loop
      vertex 2.5 0.8 0
      vertex -3.256 5.471 0
      vertex 2.5 1.5 0
    endloop
  endfacet
  facet normal 0 0 -1
    outer loop
      vertex 2.734 0.234 0
      vertex -3.5 5.22711 0
      vertex 2.5 0.8 0
    endloop
  endfacet
  facet normal 0 0 -1
    outer loop
      vertex -2.588 1.712 0
      vertex -3.5 5.22711 0
      vertex 2.734 0.234 0
    endloop
  endfacet
  facet normal 0 0 -1
    outer loop
      vertex -2.588 1.712 0
      vertex 2.734 0.234 0
      vertex 10 -5 0
    endloop
  endfacet
  facet normal 0 0 -1
    outer loop
      vertex 8 0 0
      vertex 10 -5 0
      vertex 3.3 0 0
    endloop
  endfacet
  facet normal 0 0 -1
    outer loop
      vertex 2.734 0.234 0
      vertex 3.3 0 0
      vertex 10 -5 0
    endloop
  endfacet
  facet normal 0 0 -1
    outer loop
      vertex 10 -5 0
      vertex 8 0 0
      vertex 10 0 0
    endloop
  endfacet
  facet normal 0 0 -1
    outer loop
      vertex 3.5 1.8 0
      vertex 2.46534 6 0
      vertex 3.256 5.471 0
    endloop
  endfacet
  facet normal 0 0 -1
    outer loop
      vertex 3.5 1.8 0
      vertex 3.256 5.471 0
      vertex 3.5 5.22711 0
    endloop
  endfacet
  facet normal 0 1 0
    outer loop
      vertex -8 0 20
      vertex -8 0 0
      vertex -10 0 20
    endloop
  endfacet
  facet normal 0 1 0
    outer loop
      vertex -10 0 20
      vertex -8 0 0
      vertex -10 0 0
    endloop
  endfacet
  facet normal 0 0 1
    outer loop
      vertex -10 0 20
      vertex -10 -5 20
      vertex 10 -5 20
    endloop
  endfacet
  facet normal 0 0 1
    outer loop
      vertex -3.3 0 20
      vertex -8 0 20
      vertex 10 -5 20
    endloop
  endfacet
  facet normal 0 0 1
    outer loop
      vertex 3.3 0 20
      vertex -3.3 0 20
      vertex 10 -5 20
    endloop
  endfacet
  facet normal 0 0 1
    outer loop
      vertex 10 0 20
      vertex 8 0 20
      vertex 10 -5 20
    endloop
  endfacet
  facet normal 0 0 1
    outer loop
      vertex 8 0 20
      vertex 3.3 0 20
      vertex 10 -5 20
    endloop
  endfacet
  facet normal 0 0 1
    outer loop
      vertex -2.5 0.8 20
      vertex -2.734 0.234 20
      vertex 2.5 0.8 20
    endloop
  endfacet
  facet normal 0 0 1
    outer loop
      vertex -2.734 0.234 20
      vertex -3.3 0 20
      vertex 2.734 0.234 20
    endloop
  endfacet
  facet normal 0 0 1
    outer loop
      vertex 3.5 1.8 20
      vertex 3.5 5.22711 20
      vertex 2.8 1.8 20
    endloop
  endfacet
  facet normal 0 0 1
    outer loop
      vertex -2.5 1.5 20
      vertex 2.588 1.712 20
      vertex 2.8 1.8 20
    endloop
  endfacet
  facet normal 0 0 1
    outer loop
      vertex -2.5 1.5 20
      vertex 2.5 1.5 20
      vertex 2.588 1.712 20
    endloop
  endfacet
  facet normal 0 0 1
    outer loop
      vertex -2.5 1.5 20
      vertex -2.5 0.8 20
      vertex 2.5 1.5 20
    endloop
  endfacet
  facet normal 0 0 1
    outer loop
      vertex -2.46534 6 20
      vertex -3.256 5.471 20
      vertex -3.5 5.22711 20
    endloop
  endfacet
  facet normal 0 0 1
    outer loop
      vertex -2.8 1.8 20
      vertex 3.5 5.22711 20
      vertex -3.5 1.8 20
    endloop
  endfacet
  facet normal 0 0 1
    outer loop
      vertex 2.8 1.8 20
      vertex 3.5 5.22711 20
      vertex -2.8 1.8 20
    endloop
  endfacet
  facet normal 0 0 1
    outer loop
      vertex 2.8 1.8 20
      vertex -2.8 1.8 20
      vertex -2.588 1.712 20
    endloop
  endfacet
  facet normal 0 0 1
    outer loop
      vertex 2.8 1.8 20
      vertex -2.588 1.712 20
      vertex -2.5 1.5 20
    endloop
  endfacet
  facet normal 0 0 1
    outer loop
      vertex 2.5 0.8 20
      vertex 2.5 1.5 20
      vertex -2.5 0.8 20
    endloop
  endfacet
  facet normal 0 0 1
    outer loop
      vertex 2.734 0.234 20
      vertex 2.5 0.8 20
      vertex -2.734 0.234 20
    endloop
  endfacet
  facet normal 0 0 1
    outer loop
      vertex 2.734 0.234 20
      vertex -3.3 0 20
      vertex 3.3 0 20
    endloop
  endfacet
  facet normal 0 0 1
    outer loop
      vertex -8 0 20
      vertex -10 0 20
      vertex 10 -5 20
    endloop
  endfacet
  facet normal 0 0 1
    outer loop
      vertex -3.5 5.22711 20
      vertex 2.46534 6 20
      vertex -2.46534 6 20
    endloop
  endfacet
  facet normal 0 0 1
    outer loop
      vertex -3.5 5.22711 20
      vertex 3.256 5.471 20
      vertex 2.46534 6 20
    endloop
  endfacet
  facet normal 0 0 1
    outer loop
      vertex -3.5 5.22711 20
      vertex 3.5 5.22711 20
      vertex 3.256 5.471 20
    endloop
  endfacet
  facet normal 0 0 1
    outer loop
      vertex -3.5 5.22711 20
      vertex -3.5 1.8 20
      vertex 3.5 5.22711 20
    endloop
  endfacet
  facet normal 1 0 0
    outer loop
      vertex 10 -5 20
      vertex 10 -5 0
      vertex 10 0 0
    endloop
  endfacet
  facet normal 1 0 0
    outer loop
      vertex 10 0 20
      vertex 10 -5 20
      vertex 10 0 0
    endloop
  endfacet
  facet normal 0 1 0
    outer loop
      vertex 10 0 20
      vertex 10 0 0
      vertex 8 0 20
    endloop
  endfacet
  facet normal 0 1 0
    outer loop
      vertex 8 0 20
      vertex 10 0 0
      vertex 8 0 0
    endloop
  endfacet
  facet normal 0 1 0
    outer loop
      vertex 8 0 20
      vertex 8 0 0
      vertex 3.3 0 20
    endloop
  endfacet
  facet normal 0 1 0
    outer loop
      vertex 3.3 0 20
      vertex 8 0 0
      vertex 3.3 0 0
    endloop
  endfacet
  facet normal 0.382063 0.924136 0
    outer loop
      vertex 3.3 0 20
      vertex 3.3 0 0
      vertex 2.734 0.234 20
    endloop
  endfacet
  facet normal 0.382063 0.924136 0
    outer loop
      vertex 2.734 0.234 20
      vertex 3.3 0 0
      vertex 2.734 0.234 0
    endloop
  endfacet
  facet normal 0.924136 0.382063 0
    outer loop
      vertex 2.5 0.8 20
      vertex 2.734 0.234 20
      vertex 2.734 0.234 0
    endloop
  endfacet
  facet normal 0.924136 0.382063 0
    outer loop
      vertex 2.5 0.8 0
      vertex 2.5 0.8 20
      vertex 2.734 0.234 0
    endloop
  endfacet
  facet normal 1 0 0
    outer loop
      vertex 2.5 1.5 0
      vertex 2.5 1.5 20
      vertex 2.5 0.8 20
    endloop
  endfacet
  facet normal 1 0 0
    outer loop
      vertex 2.5 0.8 0
      vertex 2.5 1.5 0
      vertex 2.5 0.8 20
    endloop
  endfacet
  facet normal 0.923592 -0.383378 0
    outer loop
      vertex 2.588 1.712 0
      vertex 2.588 1.712 20
      vertex 2.5 1.5 20
    endloop
  endfacet
  facet normal 0.923592 -0.383378 0
    outer loop
      vertex 2.5 1.5 0
      vertex 2.588 1.712 0
      vertex 2.5 1.5 20
    endloop
  endfacet
  facet normal 0.383378 -0.923592 0
    outer loop
      vertex 2.8 1.8 0
      vertex 2.8 1.8 20
      vertex 2.588 1.712 20
    endloop
  endfacet
  facet normal 0.383378 -0.923592 0
    outer loop
      vertex 2.588 1.712 0
      vertex 2.8 1.8 0
      vertex 2.588 1.712 20
    endloop
  endfacet
  facet normal 0 -1 0
    outer loop
      vertex 3.5 1.8 0
      vertex 3.5 1.8 20
      vertex 2.8 1.8 20
    endloop
  endfacet
  facet normal 0 -1 0
    outer loop
      vertex 2.8 1.8 0
      vertex 3.5 1.8 0
      vertex 2.8 1.8 20
    endloop
  endfacet
  facet normal 1 0 0
    outer loop
      vertex 3.5 1.8 20
      vertex 3.5 1.8 0
      vertex 3.5 5.22711 0
    endloop
  endfacet
  facet normal 1 0 0
    outer loop
      vertex 3.5 5.22711 20
      vertex 3.5 1.8 20
      vertex 3.5 5.22711 0
    endloop
  endfacet
  facet normal 0.706953 0.70726 0
    outer loop
      vertex 3.5 5.22711 20
      vertex 3.5 5.22711 0
      vertex 3.256 5.471 20
    endloop
  endfacet
  facet normal 0.706953 0.70726 0
    outer loop
      vertex 3.256 5.471 20
      vertex 3.5 5.22711 0
      vertex 3.256 5.471 0
    endloop
  endfacet
  facet normal 0.556079 0.831129 0
    outer loop
      vertex 3.256 5.471 20
      vertex 3.256 5.471 0
      vertex 2.46534 6 20
    endloop
  endfacet
  facet normal 0.556079 0.831129 0
    outer loop
      vertex 2.46534 6 20
      vertex 3.256 5.471 0
      vertex 2.46534 6 0
    endloop
  endfacet
  facet normal 0 1 0
    outer loop
      vertex -2.46534 6 0
      vertex -2.46534 6 20
      vertex 2.46534 6 0
    endloop
  endfacet
  facet normal 0 1 0
    outer loop
      vertex 2.46534 6 0
      vertex -2.46534 6 20
      vertex 2.46534 6 20
    endloop
  endfacet
  facet normal -0.556079 0.831129 0
    outer loop
      vertex -2.46534 6 20
      vertex -2.46534 6 0
      vertex -3.256 5.471 20
    endloop
  endfacet
  facet normal -0.556079 0.831129 0
    outer loop
      vertex -3.256 5.471 20
      vertex -2.46534 6 0
      vertex -3.256 5.471 0
    endloop
  endfacet
  facet normal -0.706953 0.70726 0
    outer loop
      vertex -3.256 5.471 20
      vertex -3.256 5.471 0
      vertex -3.5 5.22711 20
    endloop
  endfacet
  facet normal -0.706953 0.70726 0
    outer loop
      vertex -3.5 5.22711 20
      vertex -3.256 5.471 0
      vertex -3.5 5.22711 0
    endloop
  endfacet
  facet normal -1 0 0
    outer loop
      vertex -3.5 1.8 0
      vertex -3.5 1.8 20
      vertex -3.5 5.22711 0
    endloop
  endfacet
  facet normal -1 0 0
    outer loop
      vertex -3.5 5.22711 0
      vertex -3.5 1.8 20
      vertex -3.5 5.22711 20
    endloop
  endfacet
  facet normal 0 -1 0
    outer loop
      vertex -2.8 1.8 0
      vertex -2.8 1.8 20
      vertex -3.5 1.8 20
    endloop
  endfacet
  facet normal 0 -1 0
    outer loop
      vertex -3.5 1.8 0
      vertex -2.8 1.8 0
      vertex -3.5 1.8 20
    endloop
  endfacet
  facet normal -0.383378 -0.923592 0
    outer loop
      vertex -2.588 1.712 0
      vertex -2.588 1.712 20
      vertex -2.8 1.8 20
    endloop
  endfacet
  facet normal -0.383378 -0.923592 0
    outer loop
      vertex -2.8 1.8 0
      vertex -2.588 1.712 0
      vertex -2.8 1.8 20
    endloop
  endfacet
  facet normal -0.923592 -0.383378 0
    outer loop
      vertex -2.5 1.5 20
      vertex -2.588 1.712 20
      vertex -2.5 1.5 0
    endloop
  endfacet
  facet normal -0.923592 -0.383378 0
    outer loop
      vertex -2.5 1.5 0
      vertex -2.588 1.712 20
      vertex -2.588 1.712 0
    endloop
  endfacet
  facet normal -1 0 0
    outer loop
      vertex -2.5 1.5 20
      vertex -2.5 1.5 0
      vertex -2.5 0.8 20
    endloop
  endfacet
  facet normal -1 0 0
    outer loop
      vertex -2.5 0.8 20
      vertex -2.5 1.5 0
      vertex -2.5 0.8 0
    endloop
  endfacet
  facet normal -0.924136 0.382063 0
    outer loop
      vertex -2.5 0.8 20
      vertex -2.5 0.8 0
      vertex -2.734 0.234 20
    endloop
  endfacet
  facet normal -0.924136 0.382063 0
    outer loop
      vertex -2.734 0.234 20
      vertex -2.5 0.8 0
      vertex -2.734 0.234 0
    endloop
  endfacet
  facet normal -0.382063 0.924136 0
    outer loop
      vertex -2.734 0.234 20
      vertex -2.734 0.234 0
      vertex -3.3 0 20
    endloop
  endfacet
  facet normal -0.382063 0.924136 0
    outer loop
      vertex -3.3 0 20
      vertex -2.734 0.234 0
      vertex -3.3 0 0
    endloop
  endfacet
  facet normal 0 1 0
    outer loop
      vertex -3.3 0 20
      vertex -3.3 0 0
      vertex -8 0 20
    endloop
  endfacet
  facet normal 0 1 0
    outer loop
      vertex -8 0 20
      vertex -3.3 0 0
      vertex -8 0 0
    endloop
  endfacet
endsolid OpenSCAD_Model
