solid OpenSCAD_Model
  facet normal -1 0 0
    outer loop
      vertex -9.7 -4.85 0
      vertex -9.7 -4.85 2.91
      vertex -9.7 0 0
    endloop
  endfacet
  facet normal -1 0 0
    outer loop
      vertex -9.7 0 0
      vertex -9.7 -4.85 2.91
      vertex -9.7 0 2.91
    endloop
  endfacet
  facet normal 0 -1 0
    outer loop
      vertex -9.7 -4.85 2.91
      vertex -9.7 -4.85 0
      vertex 9.7 -4.85 0
    endloop
  endfacet
  facet normal 0 -1 0
    outer loop
      vertex 9.7 -4.85 2.91
      vertex -9.7 -4.85 2.91
      vertex 9.7 -4.85 0
    endloop
  endfacet
  facet normal 0 0 -1
    outer loop
      vertex -9.7 -4.85 0
      vertex -9.7 0 0
      vertex 9.7 -4.85 0
    endloop
  endfacet
  facet normal 0 0 -1
    outer loop
      vertex 9.7 -4.85 0
      vertex -9.7 0 0
      vertex -7.76 0 0
    endloop
  endfacet
  facet normal 0 0 -1
    outer loop
      vertex 9.7 -4.85 0
      vertex -7.76 0 0
      vertex -3.201 0 0
    endloop
  endfacet
  facet normal 0 0 -1
    outer loop
      vertex 9.7 -4.85 0
      vertex -3.201 0 0
      vertex -2.425 0 0
    endloop
  endfacet
  facet normal 0 0 -1
    outer loop
      vertex 9.7 -4.85 0
      vertex -2.425 0 0
      vertex -2.425 0.776 0
    endloop
  endfacet
  facet normal 0 0 -1
    outer loop
      vertex -2.425 0.776 0
      vertex -2.425 1.455 0
      vertex 9.7 -4.85 0
    endloop
  endfacet
  facet normal 0 0 -1
    outer loop
      vertex 7.76 0 0
      vertex 9.7 -4.85 0
      vertex 3.201 0 0
    endloop
  endfacet
  facet normal 0 0 -1
    outer loop
      vertex -2.425 1.455 0
      vertex -2.425 5.79751 0
      vertex 2.425 1.455 0
    endloop
  endfacet
  facet normal 0 0 -1
    outer loop
      vertex -2.425 1.455 0
      vertex 2.425 1.455 0
      vertex 2.425 0.776 0
    endloop
  endfacet
  facet normal 0 0 -1
    outer loop
      vertex -2.425 1.455 0
      vertex 2.425 0.776 0
      vertex 2.425 0 0
    endloop
  endfacet
  facet normal 0 0 -1
    outer loop
      vertex -2.425 1.455 0
      vertex 2.425 0 0
      vertex 9.7 -4.85 0
    endloop
  endfacet
  facet normal 0 0 -1
    outer loop
      vertex 2.425 0 0
      vertex 3.201 0 0
      vertex 9.7 -4.85 0
    endloop
  endfacet
  facet normal 0 0 -1
    outer loop
      vertex 9.7 -4.85 0
      vertex 7.76 0 0
      vertex 9.7 0 0
    endloop
  endfacet
  facet normal 0 0 -1
    outer loop
      vertex 2.425 1.455 0
      vertex -2.425 5.79751 0
      vertex -2.24641 5.917 0
    endloop
  endfacet
  facet normal 0 0 -1
    outer loop
      vertex 2.425 1.455 0
      vertex -2.24641 5.917 0
      vertex 2.24641 5.917 0
    endloop
  endfacet
  facet normal 0 0 -1
    outer loop
      vertex 2.425 1.455 0
      vertex 2.24641 5.917 0
      vertex 2.425 5.79751 0
    endloop
  endfacet
  facet normal 0 1 0
    outer loop
      vertex -7.76 0 2.91
      vertex -7.76 0 0
      vertex -9.7 0 2.91
    endloop
  endfacet
  facet normal 0 1 0
    outer loop
      vertex -9.7 0 2.91
      vertex -7.76 0 0
      vertex -9.7 0 0
    endloop
  endfacet
  facet normal 0 0 1
    outer loop
      vertex -9.7 0 2.91
      vertex -9.7 -4.85 2.91
      vertex 9.7 -4.85 2.91
    endloop
  endfacet
  facet normal 0 0 1
    outer loop
      vertex -2.425 0 2.91
      vertex -3.201 0 2.91
      vertex 9.7 -4.85 2.91
    endloop
  endfacet
  facet normal 0 0 1
    outer loop
      vertex 2.425 0 2.91
      vertex -2.425 0 2.91
      vertex 9.7 -4.85 2.91
    endloop
  endfacet
  facet normal 0 0 1
    outer loop
      vertex 9.7 0 2.91
      vertex 7.76 0 2.91
      vertex 9.7 -4.85 2.91
    endloop
  endfacet
  facet normal 0 0 1
    outer loop
      vertex 7.76 0 2.91
      vertex 3.201 0 2.91
      vertex 9.7 -4.85 2.91
    endloop
  endfacet
  facet normal 0 0 1
    outer loop
      vertex 3.201 0 2.91
      vertex 2.425 0 2.91
      vertex 9.7 -4.85 2.91
    endloop
  endfacet
  facet normal 0 0 1
    outer loop
      vertex -2.425 1.455 2.91
      vertex -2.425 0.776 2.91
      vertex 2.425 1.455 2.91
    endloop
  endfacet
  facet normal 0 0 1
    outer loop
      vertex -2.425 0.776 2.91
      vertex -2.425 0 2.91
      vertex 2.425 0.776 2.91
    endloop
  endfacet
  facet normal 0 0 1
    outer loop
      vertex 2.425 1.455 2.91
      vertex 2.425 5.79751 2.91
      vertex -2.425 1.455 2.91
    endloop
  endfacet
  facet normal 0 0 1
    outer loop
      vertex 2.425 0.776 2.91
      vertex 2.425 1.455 2.91
      vertex -2.425 0.776 2.91
    endloop
  endfacet
  facet normal 0 0 1
    outer loop
      vertex 2.425 0.776 2.91
      vertex -2.425 0 2.91
      vertex 2.425 0 2.91
    endloop
  endfacet
  facet normal 0 0 1
    outer loop
      vertex -3.201 0 2.91
      vertex -7.76 0 2.91
      vertex 9.7 -4.85 2.91
    endloop
  endfacet
  facet normal 0 0 1
    outer loop
      vertex -7.76 0 2.91
      vertex -9.7 0 2.91
      vertex 9.7 -4.85 2.91
    endloop
  endfacet
  facet normal 0 0 1
    outer loop
      vertex -2.425 5.79751 2.91
      vertex 2.24641 5.917 2.91
      vertex -2.24641 5.917 2.91
    endloop
  endfacet
  facet normal 0 0 1
    outer loop
      vertex -2.425 5.79751 2.91
      vertex 2.425 5.79751 2.91
      vertex 2.24641 5.917 2.91
    endloop
  endfacet
  facet normal 0 0 1
    outer loop
      vertex -2.425 5.79751 2.91
      vertex -2.425 1.455 2.91
      vertex 2.425 5.79751 2.91
    endloop
  endfacet
  facet normal 1 0 0
    outer loop
      vertex 9.7 -4.85 2.91
      vertex 9.7 -4.85 0
      vertex 9.7 0 0
    endloop
  endfacet
  facet normal 1 0 0
    outer loop
      vertex 9.7 0 2.91
      vertex 9.7 -4.85 2.91
      vertex 9.7 0 0
    endloop
  endfacet
  facet normal 0 1 0
    outer loop
      vertex 9.7 0 2.91
      vertex 9.7 0 0
      vertex 7.76 0 2.91
    endloop
  endfacet
  facet normal 0 1 0
    outer loop
      vertex 7.76 0 2.91
      vertex 9.7 0 0
      vertex 7.76 0 0
    endloop
  endfacet
  facet normal 0 1 0
    outer loop
      vertex 7.76 0 2.91
      vertex 7.76 0 0
      vertex 3.201 0 2.91
    endloop
  endfacet
  facet normal 0 1 0
    outer loop
      vertex 3.201 0 2.91
      vertex 7.76 0 0
      vertex 3.201 0 0
    endloop
  endfacet
  facet normal 0 1 0
    outer loop
      vertex 3.201 0 2.91
      vertex 3.201 0 0
      vertex 2.425 0 2.91
    endloop
  endfacet
  facet normal 0 1 0
    outer loop
      vertex 2.425 0 2.91
      vertex 3.201 0 0
      vertex 2.425 0 0
    endloop
  endfacet
  facet normal 1 0 0
    outer loop
      vertex 2.425 0.776 0
      vertex 2.425 0.776 2.91
      vertex 2.425 0 2.91
    endloop
  endfacet
  facet normal 1 0 0
    outer loop
      vertex 2.425 0 0
      vertex 2.425 0.776 0
      vertex 2.425 0 2.91
    endloop
  endfacet
  facet normal 1 0 0
    outer loop
      vertex 2.425 1.455 0
      vertex 2.425 1.455 2.91
      vertex 2.425 0.776 2.91
    endloop
  endfacet
  facet normal 1 0 0
    outer loop
      vertex 2.425 0.776 0
      vertex 2.425 1.455 0
      vertex 2.425 0.776 2.91
    endloop
  endfacet
  facet normal 1 0 0
    outer loop
      vertex 2.425 5.79751 0
      vertex 2.425 5.79751 2.91
      vertex 2.425 1.455 2.91
    endloop
  endfacet
  facet normal 1 0 0
    outer loop
      vertex 2.425 1.455 0
      vertex 2.425 5.79751 0
      vertex 2.425 1.455 2.91
    endloop
  endfacet
  facet normal 0.556079 0.831129 0
    outer loop
      vertex 2.425 5.79751 2.91
      vertex 2.425 5.79751 0
      vertex 2.24641 5.917 2.91
    endloop
  endfacet
  facet normal 0.556079 0.831129 0
    outer loop
      vertex 2.24641 5.917 2.91
      vertex 2.425 5.79751 0
      vertex 2.24641 5.917 0
    endloop
  endfacet
  facet normal 0 1 0
    outer loop
      vertex -2.24641 5.917 0
      vertex -2.24641 5.917 2.91
      vertex 2.24641 5.917 0
    endloop
  endfacet
  facet normal 0 1 0
    outer loop
      vertex 2.24641 5.917 0
      vertex -2.24641 5.917 2.91
      vertex 2.24641 5.917 2.91
    endloop
  endfacet
  facet normal -0.556079 0.831129 0
    outer loop
      vertex -2.24641 5.917 2.91
      vertex -2.24641 5.917 0
      vertex -2.425 5.79751 2.91
    endloop
  endfacet
  facet normal -0.556079 0.831129 0
    outer loop
      vertex -2.425 5.79751 2.91
      vertex -2.24641 5.917 0
      vertex -2.425 5.79751 0
    endloop
  endfacet
  facet normal -1 0 0
    outer loop
      vertex -2.425 5.79751 2.91
      vertex -2.425 5.79751 0
      vertex -2.425 1.455 2.91
    endloop
  endfacet
  facet normal -1 0 0
    outer loop
      vertex -2.425 1.455 2.91
      vertex -2.425 5.79751 0
      vertex -2.425 1.455 0
    endloop
  endfacet
  facet normal -1 0 0
    outer loop
      vertex -2.425 1.455 2.91
      vertex -2.425 1.455 0
      vertex -2.425 0.776 2.91
    endloop
  endfacet
  facet normal -1 0 0
    outer loop
      vertex -2.425 0.776 2.91
      vertex -2.425 1.455 0
      vertex -2.425 0.776 0
    endloop
  endfacet
  facet normal -1 0 0
    outer loop
      vertex -2.425 0.776 2.91
      vertex -2.425 0.776 0
      vertex -2.425 0 2.91
    endloop
  endfacet
  facet normal -1 0 0
    outer loop
      vertex -2.425 0 2.91
      vertex -2.425 0.776 0
      vertex -2.425 0 0
    endloop
  endfacet
  facet normal 0 1 0
    outer loop
      vertex -2.425 0 2.91
      vertex -2.425 0 0
      vertex -3.201 0 2.91
    endloop
  endfacet
  facet normal 0 1 0
    outer loop
      vertex -3.201 0 2.91
      vertex -2.425 0 0
      vertex -3.201 0 0
    endloop
  endfacet
  facet normal 0 1 0
    outer loop
      vertex -3.201 0 2.91
      vertex -3.201 0 0
      vertex -7.76 0 2.91
    endloop
  endfacet
  facet normal 0 1 0
    outer loop
      vertex -7.76 0 2.91
      vertex -3.201 0 0
      vertex -7.76 0 0
    endloop
  endfacet
endsolid OpenSCAD_Model
