solid OpenSCAD_Model
  facet normal -1 0 0
    outer loop
      vertex -10 -5 0
      vertex -10 -5 3
      vertex -10 0 0
    endloop
  endfacet
  facet normal -1 0 0
    outer loop
      vertex -10 0 0
      vertex -10 -5 3
      vertex -10 0 3
    endloop
  endfacet
  facet normal 0 -1 0
    outer loop
      vertex -10 -5 3
      vertex -10 -5 0
      vertex 10 -5 0
    endloop
  endfacet
  facet normal 0 -1 0
    outer loop
      vertex 10 -5 3
      vertex -10 -5 3
      vertex 10 -5 0
    endloop
  endfacet
  facet normal 0 0 -1
    outer loop
      vertex -10 -5 0
      vertex -10 0 0
      vertex 10 -5 0
    endloop
  endfacet
  facet normal 0 0 -1
    outer loop
      vertex 10 -5 0
      vertex -10 0 0
      vertex -8 0 0
    endloop
  endfacet
  facet normal 0 0 -1
    outer loop
      vertex 10 -5 0
      vertex -8 0 0
      vertex -3.3 0 0
    endloop
  endfacet
  facet normal 0 0 -1
    outer loop
      vertex 10 -5 0
      vertex -3.3 0 0
      vertex -2.5 0 0
    endloop
  endfacet
  facet normal 0 0 -1
    outer loop
      vertex 10 -5 0
      vertex -2.5 0 0
      vertex -2.5 0.8 0
    endloop
  endfacet
  facet normal 0 0 -1
    outer loop
      vertex -2.5 0.8 0
      vertex -2.5 1.5 0
      vertex 10 -5 0
    endloop
  endfacet
  facet normal 0 0 -1
    outer loop
      vertex 8 0 0
      vertex 10 -5 0
      vertex 3.3 0 0
    endloop
  endfacet
  facet normal 0 0 -1
    outer loop
      vertex -2.5 1.5 0
      vertex -2.5 5.97681 0
      vertex 2.5 1.5 0
    endloop
  endfacet
  facet normal 0 0 -1
    outer loop
      vertex -2.5 1.5 0
      vertex 2.5 1.5 0
      vertex 2.5 0.8 0
    endloop
  endfacet
  facet normal 0 0 -1
    outer loop
      vertex -2.5 1.5 0
      vertex 2.5 0.8 0
      vertex 2.5 0 0
    endloop
  endfacet
  facet normal 0 0 -1
    outer loop
      vertex -2.5 1.5 0
      vertex 2.5 0 0
      vertex 10 -5 0
    endloop
  endfacet
  facet normal 0 0 -1
    outer loop
      vertex 2.5 0 0
      vertex 3.3 0 0
      vertex 10 -5 0
    endloop
  endfacet
  facet normal 0 0 -1
    outer loop
      vertex 10 -5 0
      vertex 8 0 0
      vertex 10 0 0
    endloop
  endfacet
  facet normal 0 0 -1
    outer loop
      vertex 2.5 1.5 0
      vertex -2.5 5.97681 0
      vertex -2.31588 6.1 0
    endloop
  endfacet
  facet normal 0 0 -1
    outer loop
      vertex 2.5 1.5 0
      vertex -2.31588 6.1 0
      vertex 2.31588 6.1 0
    endloop
  endfacet
  facet normal 0 0 -1
    outer loop
      vertex 2.5 1.5 0
      vertex 2.31588 6.1 0
      vertex 2.5 5.97681 0
    endloop
  endfacet
  facet normal 0 1 0
    outer loop
      vertex -8 0 3
      vertex -8 0 0
      vertex -10 0 3
    endloop
  endfacet
  facet normal 0 1 0
    outer loop
      vertex -10 0 3
      vertex -8 0 0
      vertex -10 0 0
    endloop
  endfacet
  facet normal 0 0 1
    outer loop
      vertex -10 0 3
      vertex -10 -5 3
      vertex 10 -5 3
    endloop
  endfacet
  facet normal 0 0 1
    outer loop
      vertex -2.5 0 3
      vertex -3.3 0 3
      vertex 10 -5 3
    endloop
  endfacet
  facet normal 0 0 1
    outer loop
      vertex 2.5 0 3
      vertex -2.5 0 3
      vertex 10 -5 3
    endloop
  endfacet
  facet normal 0 0 1
    outer loop
      vertex 10 0 3
      vertex 8 0 3
      vertex 10 -5 3
    endloop
  endfacet
  facet normal 0 0 1
    outer loop
      vertex 8 0 3
      vertex 3.3 0 3
      vertex 10 -5 3
    endloop
  endfacet
  facet normal 0 0 1
    outer loop
      vertex 3.3 0 3
      vertex 2.5 0 3
      vertex 10 -5 3
    endloop
  endfacet
  facet normal 0 0 1
    outer loop
      vertex -2.5 1.5 3
      vertex -2.5 0.8 3
      vertex 2.5 1.5 3
    endloop
  endfacet
  facet normal 0 0 1
    outer loop
      vertex -2.5 0.8 3
      vertex -2.5 0 3
      vertex 2.5 0.8 3
    endloop
  endfacet
  facet normal 0 0 1
    outer loop
      vertex 2.5 1.5 3
      vertex 2.5 5.97681 3
      vertex -2.5 1.5 3
    endloop
  endfacet
  facet normal 0 0 1
    outer loop
      vertex 2.5 0.8 3
      vertex 2.5 1.5 3
      vertex -2.5 0.8 3
    endloop
  endfacet
  facet normal 0 0 1
    outer loop
      vertex 2.5 0.8 3
      vertex -2.5 0 3
      vertex 2.5 0 3
    endloop
  endfacet
  facet normal 0 0 1
    outer loop
      vertex -3.3 0 3
      vertex -8 0 3
      vertex 10 -5 3
    endloop
  endfacet
  facet normal 0 0 1
    outer loop
      vertex -8 0 3
      vertex -10 0 3
      vertex 10 -5 3
    endloop
  endfacet
  facet normal 0 0 1
    outer loop
      vertex -2.5 5.97681 3
      vertex 2.31588 6.1 3
      vertex -2.31588 6.1 3
    endloop
  endfacet
  facet normal 0 0 1
    outer loop
      vertex -2.5 5.97681 3
      vertex 2.5 5.97681 3
      vertex 2.31588 6.1 3
    endloop
  endfacet
  facet normal 0 0 1
    outer loop
      vertex -2.5 5.97681 3
      vertex -2.5 1.5 3
      vertex 2.5 5.97681 3
    endloop
  endfacet
  facet normal 1 0 0
    outer loop
      vertex 10 -5 3
      vertex 10 -5 0
      vertex 10 0 0
    endloop
  endfacet
  facet normal 1 0 0
    outer loop
      vertex 10 0 3
      vertex 10 -5 3
      vertex 10 0 0
    endloop
  endfacet
  facet normal 0 1 0
    outer loop
      vertex 10 0 3
      vertex 10 0 0
      vertex 8 0 3
    endloop
  endfacet
  facet normal 0 1 0
    outer loop
      vertex 8 0 3
      vertex 10 0 0
      vertex 8 0 0
    endloop
  endfacet
  facet normal 0 1 0
    outer loop
      vertex 8 0 3
      vertex 8 0 0
      vertex 3.3 0 3
    endloop
  endfacet
  facet normal 0 1 0
    outer loop
      vertex 3.3 0 3
      vertex 8 0 0
      vertex 3.3 0 0
    endloop
  endfacet
  facet normal 0 1 0
    outer loop
      vertex 3.3 0 3
      vertex 3.3 0 0
      vertex 2.5 0 3
    endloop
  endfacet
  facet normal 0 1 0
    outer loop
      vertex 2.5 0 3
      vertex 3.3 0 0
      vertex 2.5 0 0
    endloop
  endfacet
  facet normal 1 0 0
    outer loop
      vertex 2.5 0.8 0
      vertex 2.5 0.8 3
      vertex 2.5 0 3
    endloop
  endfacet
  facet normal 1 0 0
    outer loop
      vertex 2.5 0 0
      vertex 2.5 0.8 0
      vertex 2.5 0 3
    endloop
  endfacet
  facet normal 1 0 0
    outer loop
      vertex 2.5 1.5 0
      vertex 2.5 1.5 3
      vertex 2.5 0.8 3
    endloop
  endfacet
  facet normal 1 0 0
    outer loop
      vertex 2.5 0.8 0
      vertex 2.5 1.5 0
      vertex 2.5 0.8 3
    endloop
  endfacet
  facet normal 1 0 0
    outer loop
      vertex 2.5 5.97681 0
      vertex 2.5 5.97681 3
      vertex 2.5 1.5 3
    endloop
  endfacet
  facet normal 1 0 0
    outer loop
      vertex 2.5 1.5 0
      vertex 2.5 5.97681 0
      vertex 2.5 1.5 3
    endloop
  endfacet
  facet normal 0.556079 0.831129 0
    outer loop
      vertex 2.5 5.97681 3
      vertex 2.5 5.97681 0
      vertex 2.31588 6.1 3
    endloop
  endfacet
  facet normal 0.556079 0.831129 0
    outer loop
      vertex 2.31588 6.1 3
      vertex 2.5 5.97681 0
      vertex 2.31588 6.1 0
    endloop
  endfacet
  facet normal 0 1 0
    outer loop
      vertex -2.31588 6.1 0
      vertex -2.31588 6.1 3
      vertex 2.31588 6.1 0
    endloop
  endfacet
  facet normal 0 1 0
    outer loop
      vertex 2.31588 6.1 0
      vertex -2.31588 6.1 3
      vertex 2.31588 6.1 3
    endloop
  endfacet
  facet normal -0.556079 0.831129 0
    outer loop
      vertex -2.31588 6.1 3
      vertex -2.31588 6.1 0
      vertex -2.5 5.97681 3
    endloop
  endfacet
  facet normal -0.556079 0.831129 0
    outer loop
      vertex -2.5 5.97681 3
      vertex -2.31588 6.1 0
      vertex -2.5 5.97681 0
    endloop
  endfacet
  facet normal -1 0 0
    outer loop
      vertex -2.5 5.97681 3
      vertex -2.5 5.97681 0
      vertex -2.5 1.5 3
    endloop
  endfacet
  facet normal -1 0 0
    outer loop
      vertex -2.5 1.5 3
      vertex -2.5 5.97681 0
      vertex -2.5 1.5 0
    endloop
  endfacet
  facet normal -1 0 0
    outer loop
      vertex -2.5 1.5 3
      vertex -2.5 1.5 0
      vertex -2.5 0.8 3
    endloop
  endfacet
  facet normal -1 0 0
    outer loop
      vertex -2.5 0.8 3
      vertex -2.5 1.5 0
      vertex -2.5 0.8 0
    endloop
  endfacet
  facet normal -1 0 0
    outer loop
      vertex -2.5 0.8 3
      vertex -2.5 0.8 0
      vertex -2.5 0 3
    endloop
  endfacet
  facet normal -1 0 0
    outer loop
      vertex -2.5 0 3
      vertex -2.5 0.8 0
      vertex -2.5 0 0
    endloop
  endfacet
  facet normal 0 1 0
    outer loop
      vertex -2.5 0 3
      vertex -2.5 0 0
      vertex -3.3 0 3
    endloop
  endfacet
  facet normal 0 1 0
    outer loop
      vertex -3.3 0 3
      vertex -2.5 0 0
      vertex -3.3 0 0
    endloop
  endfacet
  facet normal 0 1 0
    outer loop
      vertex -3.3 0 3
      vertex -3.3 0 0
      vertex -8 0 3
    endloop
  endfacet
  facet normal 0 1 0
    outer loop
      vertex -8 0 3
      vertex -3.3 0 0
      vertex -8 0 0
    endloop
  endfacet
endsolid OpenSCAD_Model
