solid OpenSCAD_Model
  facet normal -1 0 0
    outer loop
      vertex -9.9 -4.95 0
      vertex -9.9 -4.95 2.97
      vertex -9.9 0 0
    endloop
  endfacet
  facet normal -1 0 0
    outer loop
      vertex -9.9 0 0
      vertex -9.9 -4.95 2.97
      vertex -9.9 0 2.97
    endloop
  endfacet
  facet normal 0 -1 0
    outer loop
      vertex -9.9 -4.95 2.97
      vertex -9.9 -4.95 0
      vertex 9.9 -4.95 0
    endloop
  endfacet
  facet normal 0 -1 0
    outer loop
      vertex 9.9 -4.95 2.97
      vertex -9.9 -4.95 2.97
      vertex 9.9 -4.95 0
    endloop
  endfacet
  facet normal 0 0 -1
    outer loop
      vertex -9.9 -4.95 0
      vertex -9.9 0 0
      vertex 9.9 -4.95 0
    endloop
  endfacet
  facet normal 0 0 -1
    outer loop
      vertex 9.9 -4.95 0
      vertex -9.9 0 0
      vertex -7.92 0 0
    endloop
  endfacet
  facet normal 0 0 -1
    outer loop
      vertex 9.9 -4.95 0
      vertex -7.92 0 0
      vertex -3.267 0 0
    endloop
  endfacet
  facet normal 0 0 -1
    outer loop
      vertex 9.9 -4.95 0
      vertex -3.267 0 0
      vertex -2.475 0 0
    endloop
  endfacet
  facet normal 0 0 -1
    outer loop
      vertex 9.9 -4.95 0
      vertex -2.475 0 0
      vertex -2.475 0.792 0
    endloop
  endfacet
  facet normal 0 0 -1
    outer loop
      vertex -2.475 0.792 0
      vertex -2.475 1.485 0
      vertex 9.9 -4.95 0
    endloop
  endfacet
  facet normal 0 0 -1
    outer loop
      vertex 7.92 0 0
      vertex 9.9 -4.95 0
      vertex 3.267 0 0
    endloop
  endfacet
  facet normal 0 0 -1
    outer loop
      vertex -2.475 1.485 0
      vertex -2.475 5.91704 0
      vertex 2.475 1.485 0
    endloop
  endfacet
  facet normal 0 0 -1
    outer loop
      vertex -2.475 1.485 0
      vertex 2.475 1.485 0
      vertex 2.475 0.792 0
    endloop
  endfacet
  facet normal 0 0 -1
    outer loop
      vertex -2.475 1.485 0
      vertex 2.475 0.792 0
      vertex 2.475 0 0
    endloop
  endfacet
  facet normal 0 0 -1
    outer loop
      vertex -2.475 1.485 0
      vertex 2.475 0 0
      vertex 9.9 -4.95 0
    endloop
  endfacet
  facet normal 0 0 -1
    outer loop
      vertex 2.475 0 0
      vertex 3.267 0 0
      vertex 9.9 -4.95 0
    endloop
  endfacet
  facet normal 0 0 -1
    outer loop
      vertex 9.9 -4.95 0
      vertex 7.92 0 0
      vertex 9.9 0 0
    endloop
  endfacet
  facet normal 0 0 -1
    outer loop
      vertex 2.475 1.485 0
      vertex -2.475 5.91704 0
      vertex -2.29272 6.039 0
    endloop
  endfacet
  facet normal 0 0 -1
    outer loop
      vertex 2.475 1.485 0
      vertex -2.29272 6.039 0
      vertex 2.29272 6.039 0
    endloop
  endfacet
  facet normal 0 0 -1
    outer loop
      vertex 2.475 1.485 0
      vertex 2.29272 6.039 0
      vertex 2.475 5.91704 0
    endloop
  endfacet
  facet normal 0 1 0
    outer loop
      vertex -7.92 0 2.97
      vertex -7.92 0 0
      vertex -9.9 0 2.97
    endloop
  endfacet
  facet normal 0 1 0
    outer loop
      vertex -9.9 0 2.97
      vertex -7.92 0 0
      vertex -9.9 0 0
    endloop
  endfacet
  facet normal 0 0 1
    outer loop
      vertex -9.9 0 2.97
      vertex -9.9 -4.95 2.97
      vertex 9.9 -4.95 2.97
    endloop
  endfacet
  facet normal 0 0 1
    outer loop
      vertex -2.475 0 2.97
      vertex -3.267 0 2.97
      vertex 9.9 -4.95 2.97
    endloop
  endfacet
  facet normal 0 0 1
    outer loop
      vertex 2.475 0 2.97
      vertex -2.475 0 2.97
      vertex 9.9 -4.95 2.97
    endloop
  endfacet
  facet normal 0 0 1
    outer loop
      vertex 9.9 0 2.97
      vertex 7.92 0 2.97
      vertex 9.9 -4.95 2.97
    endloop
  endfacet
  facet normal 0 0 1
    outer loop
      vertex 7.92 0 2.97
      vertex 3.267 0 2.97
      vertex 9.9 -4.95 2.97
    endloop
  endfacet
  facet normal 0 0 1
    outer loop
      vertex 3.267 0 2.97
      vertex 2.475 0 2.97
      vertex 9.9 -4.95 2.97
    endloop
  endfacet
  facet normal 0 0 1
    outer loop
      vertex -2.475 1.485 2.97
      vertex -2.475 0.792 2.97
      vertex 2.475 1.485 2.97
    endloop
  endfacet
  facet normal 0 0 1
    outer loop
      vertex -2.475 0.792 2.97
      vertex -2.475 0 2.97
      vertex 2.475 0.792 2.97
    endloop
  endfacet
  facet normal 0 0 1
    outer loop
      vertex 2.475 1.485 2.97
      vertex 2.475 5.91704 2.97
      vertex -2.475 1.485 2.97
    endloop
  endfacet
  facet normal 0 0 1
    outer loop
      vertex 2.475 0.792 2.97
      vertex 2.475 1.485 2.97
      vertex -2.475 0.792 2.97
    endloop
  endfacet
  facet normal 0 0 1
    outer loop
      vertex 2.475 0.792 2.97
      vertex -2.475 0 2.97
      vertex 2.475 0 2.97
    endloop
  endfacet
  facet normal 0 0 1
    outer loop
      vertex -3.267 0 2.97
      vertex -7.92 0 2.97
      vertex 9.9 -4.95 2.97
    endloop
  endfacet
  facet normal 0 0 1
    outer loop
      vertex -7.92 0 2.97
      vertex -9.9 0 2.97
      vertex 9.9 -4.95 2.97
    endloop
  endfacet
  facet normal 0 0 1
    outer loop
      vertex -2.475 5.91704 2.97
      vertex 2.29272 6.039 2.97
      vertex -2.29272 6.039 2.97
    endloop
  endfacet
  facet normal 0 0 1
    outer loop
      vertex -2.475 5.91704 2.97
      vertex 2.475 5.91704 2.97
      vertex 2.29272 6.039 2.97
    endloop
  endfacet
  facet normal 0 0 1
    outer loop
      vertex -2.475 5.91704 2.97
      vertex -2.475 1.485 2.97
      vertex 2.475 5.91704 2.97
    endloop
  endfacet
  facet normal 1 0 0
    outer loop
      vertex 9.9 -4.95 2.97
      vertex 9.9 -4.95 0
      vertex 9.9 0 0
    endloop
  endfacet
  facet normal 1 0 0
    outer loop
      vertex 9.9 0 2.97
      vertex 9.9 -4.95 2.97
      vertex 9.9 0 0
    endloop
  endfacet
  facet normal 0 1 0
    outer loop
      vertex 9.9 0 2.97
      vertex 9.9 0 0
      vertex 7.92 0 2.97
    endloop
  endfacet
  facet normal 0 1 0
    outer loop
      vertex 7.92 0 2.97
      vertex 9.9 0 0
      vertex 7.92 0 0
    endloop
  endfacet
  facet normal 0 1 0
    outer loop
      vertex 7.92 0 2.97
      vertex 7.92 0 0
      vertex 3.267 0 2.97
    endloop
  endfacet
  facet normal 0 1 0
    outer loop
      vertex 3.267 0 2.97
      vertex 7.92 0 0
      vertex 3.267 0 0
    endloop
  endfacet
  facet normal 0 1 0
    outer loop
      vertex 3.267 0 2.97
      vertex 3.267 0 0
      vertex 2.475 0 2.97
    endloop
  endfacet
  facet normal 0 1 0
    outer loop
      vertex 2.475 0 2.97
      vertex 3.267 0 0
      vertex 2.475 0 0
    endloop
  endfacet
  facet normal 1 0 0
    outer loop
      vertex 2.475 0.792 0
      vertex 2.475 0.792 2.97
      vertex 2.475 0 2.97
    endloop
  endfacet
  facet normal 1 0 0
    outer loop
      vertex 2.475 0 0
      vertex 2.475 0.792 0
      vertex 2.475 0 2.97
    endloop
  endfacet
  facet normal 1 0 0
    outer loop
      vertex 2.475 1.485 0
      vertex 2.475 1.485 2.97
      vertex 2.475 0.792 2.97
    endloop
  endfacet
  facet normal 1 0 0
    outer loop
      vertex 2.475 0.792 0
      vertex 2.475 1.485 0
      vertex 2.475 0.792 2.97
    endloop
  endfacet
  facet normal 1 0 0
    outer loop
      vertex 2.475 5.91704 0
      vertex 2.475 5.91704 2.97
      vertex 2.475 1.485 2.97
    endloop
  endfacet
  facet normal 1 0 0
    outer loop
      vertex 2.475 1.485 0
      vertex 2.475 5.91704 0
      vertex 2.475 1.485 2.97
    endloop
  endfacet
  facet normal 0.556079 0.831129 0
    outer loop
      vertex 2.475 5.91704 2.97
      vertex 2.475 5.91704 0
      vertex 2.29272 6.039 2.97
    endloop
  endfacet
  facet normal 0.556079 0.831129 0
    outer loop
      vertex 2.29272 6.039 2.97
      vertex 2.475 5.91704 0
      vertex 2.29272 6.039 0
    endloop
  endfacet
  facet normal 0 1 0
    outer loop
      vertex -2.29272 6.039 0
      vertex -2.29272 6.039 2.97
      vertex 2.29272 6.039 0
    endloop
  endfacet
  facet normal 0 1 0
    outer loop
      vertex 2.29272 6.039 0
      vertex -2.29272 6.039 2.97
      vertex 2.29272 6.039 2.97
    endloop
  endfacet
  facet normal -0.556079 0.831129 0
    outer loop
      vertex -2.29272 6.039 2.97
      vertex -2.29272 6.039 0
      vertex -2.475 5.91704 2.97
    endloop
  endfacet
  facet normal -0.556079 0.831129 0
    outer loop
      vertex -2.475 5.91704 2.97
      vertex -2.29272 6.039 0
      vertex -2.475 5.91704 0
    endloop
  endfacet
  facet normal -1 0 0
    outer loop
      vertex -2.475 5.91704 2.97
      vertex -2.475 5.91704 0
      vertex -2.475 1.485 2.97
    endloop
  endfacet
  facet normal -1 0 0
    outer loop
      vertex -2.475 1.485 2.97
      vertex -2.475 5.91704 0
      vertex -2.475 1.485 0
    endloop
  endfacet
  facet normal -1 0 0
    outer loop
      vertex -2.475 1.485 2.97
      vertex -2.475 1.485 0
      vertex -2.475 0.792 2.97
    endloop
  endfacet
  facet normal -1 0 0
    outer loop
      vertex -2.475 0.792 2.97
      vertex -2.475 1.485 0
      vertex -2.475 0.792 0
    endloop
  endfacet
  facet normal -1 0 0
    outer loop
      vertex -2.475 0.792 2.97
      vertex -2.475 0.792 0
      vertex -2.475 0 2.97
    endloop
  endfacet
  facet normal -1 0 0
    outer loop
      vertex -2.475 0 2.97
      vertex -2.475 0.792 0
      vertex -2.475 0 0
    endloop
  endfacet
  facet normal 0 1 0
    outer loop
      vertex -2.475 0 2.97
      vertex -2.475 0 0
      vertex -3.267 0 2.97
    endloop
  endfacet
  facet normal 0 1 0
    outer loop
      vertex -3.267 0 2.97
      vertex -2.475 0 0
      vertex -3.267 0 0
    endloop
  endfacet
  facet normal 0 1 0
    outer loop
      vertex -3.267 0 2.97
      vertex -3.267 0 0
      vertex -7.92 0 2.97
    endloop
  endfacet
  facet normal 0 1 0
    outer loop
      vertex -7.92 0 2.97
      vertex -3.267 0 0
      vertex -7.92 0 0
    endloop
  endfacet
endsolid OpenSCAD_Model
